<?xml version="1.0" encoding="UTF-8" standalone="no"?>
<!DOCTYPE svg PUBLIC "-//W3C//DTD SVG 1.1//EN"
 "http://www.w3.org/Graphics/SVG/1.1/DTD/svg11.dtd">
<!-- Generated by graphviz version 2.40.1 (20161225.0304)
 -->
<!-- Title: Salesforce+ ERD Pages: 1 -->
<svg width="1844pt" height="566pt"
 viewBox="0.00 0.00 1844.44 565.72" xmlns="http://www.w3.org/2000/svg" xmlns:xlink="http://www.w3.org/1999/xlink">
<g id="graph0" class="graph" transform="scale(1 1) rotate(0) translate(4 561.7195)">
<title>Salesforce+ ERD</title>
<polygon fill="#efeffd" stroke="transparent" points="-4,4 -4,-561.7195 1840.4404,-561.7195 1840.4404,4 -4,4"/>
<text text-anchor="middle" x="1787.9338" y="-5.8" font-family="Courier,monospace" font-size="9.00" fill="#000000">Salesforce ERD </text>
<!-- Pricebook2 -->
<g id="node1" class="node">
<title>Pricebook2</title>
<g id="a_node1"><a xlink:href="#" xlink:title=" Pricebook2 ">
<polygon fill="#ffeeff" stroke="transparent" points="257.9316,-368.7195 257.9316,-557.7195 1002.9316,-557.7195 1002.9316,-368.7195 257.9316,-368.7195"/>
<polygon fill="#add8e6" stroke="transparent" points="259.4316,-539.2195 259.4316,-556.2195 1002.4316,-556.2195 1002.4316,-539.2195 259.4316,-539.2195"/>
<polygon fill="none" stroke="#99ccff" points="259.4316,-539.2195 259.4316,-556.2195 1002.4316,-556.2195 1002.4316,-539.2195 259.4316,-539.2195"/>
<text text-anchor="start" x="597.9263" y="-545.4195" font-family="Courier,monospace" font-weight="bold" font-size="11.00" fill="#000000">Pricebook2</text>
<polygon fill="#99ccff" stroke="transparent" points="259.4316,-522.2195 259.4316,-539.2195 911.4316,-539.2195 911.4316,-522.2195 259.4316,-522.2195"/>
<polygon fill="none" stroke="#99ccff" points="259.4316,-522.2195 259.4316,-539.2195 911.4316,-539.2195 911.4316,-522.2195 259.4316,-522.2195"/>
<text text-anchor="start" x="262.4316" y="-528.4195" font-family="Courier,monospace" font-size="11.00" fill="#000000"> &#160;&#160;&#160;&#160;&#160;&#160;&#160;&#160;&#160;&#160;&#160;&#160;&#160;&#160;&#160;&#160;&#160;&#160;&#160;&#160;&#160;&#160;&#160;&#160;&#160;&#160;&#160;&#160;&#160;&#160;&#160;&#160;&#160;&#160;&#160;&#160;&#160;&#160;&#160;&#160;&#160;&#160;</text>
<text text-anchor="start" x="546.2778" y="-528.4195" font-family="Courier,monospace" font-weight="bold" font-size="11.00" fill="#000000">Id</text>
<text text-anchor="start" x="559.48" y="-528.4195" font-family="Courier,monospace" font-size="11.00" fill="#000000"> &#160;&#160;&#160;&#160;&#160;&#160;&#160;&#160;&#160;&#160;&#160;&#160;&#160;&#160;&#160;&#160;&#160;&#160;&#160;&#160;&#160;&#160;&#160;&#160;&#160;&#160;&#160;&#160;&#160;&#160;&#160;&#160;&#160;&#160;&#160;&#160;&#160;&#160;&#160;</text>
<polygon fill="none" stroke="#99ccff" points="911.4316,-522.2195 911.4316,-539.2195 1002.4316,-539.2195 1002.4316,-522.2195 911.4316,-522.2195"/>
<text text-anchor="start" x="937.1284" y="-527.4195" font-family="Courier,monospace" font-size="11.00" fill="#000000">id(18)</text>
<polygon fill="none" stroke="#99ccff" points="259.4316,-505.2195 259.4316,-522.2195 911.4316,-522.2195 911.4316,-505.2195 259.4316,-505.2195"/>
<text text-anchor="start" x="262.4316" y="-510.4195" font-family="Courier,monospace" font-size="11.00" fill="#000000"> &#160;&#160;&#160;&#160;&#160;&#160;&#160;&#160;&#160;&#160;&#160;&#160;&#160;&#160;&#160;&#160;&#160;&#160;&#160;&#160;&#160;&#160;&#160;&#160;&#160;&#160;&#160;&#160;&#160;&#160;&#160;&#160;&#160;&#160;&#160;&#160;&#160;&#160;&#160;&#160;IsDeleted &#160;&#160;&#160;&#160;&#160;&#160;&#160;&#160;&#160;&#160;&#160;&#160;&#160;&#160;&#160;&#160;&#160;&#160;&#160;&#160;&#160;&#160;&#160;&#160;&#160;&#160;&#160;&#160;&#160;&#160;&#160;&#160;&#160;&#160;&#160;&#160;&#160;&#160;</text>
<polygon fill="none" stroke="#99ccff" points="911.4316,-505.2195 911.4316,-522.2195 1002.4316,-522.2195 1002.4316,-505.2195 911.4316,-505.2195"/>
<text text-anchor="start" x="933.8279" y="-510.4195" font-family="Courier,monospace" font-size="11.00" fill="#000000">boolean</text>
<polygon fill="none" stroke="#99ccff" points="259.4316,-488.2195 259.4316,-505.2195 911.4316,-505.2195 911.4316,-488.2195 259.4316,-488.2195"/>
<text text-anchor="start" x="262.4316" y="-493.4195" font-family="Courier,monospace" font-size="11.00" fill="#000000"> &#160;&#160;&#160;&#160;&#160;&#160;&#160;&#160;&#160;&#160;&#160;&#160;&#160;&#160;&#160;&#160;&#160;&#160;&#160;&#160;&#160;&#160;&#160;&#160;&#160;&#160;&#160;&#160;&#160;&#160;&#160;&#160;&#160;&#160;&#160;&#160;&#160;&#160;&#160;&#160;Name &#160;&#160;&#160;&#160;&#160;&#160;&#160;&#160;&#160;&#160;&#160;&#160;&#160;&#160;&#160;&#160;&#160;&#160;&#160;&#160;&#160;&#160;&#160;&#160;&#160;&#160;&#160;&#160;&#160;&#160;&#160;&#160;&#160;&#160;&#160;&#160;&#160;&#160;</text>
<polygon fill="none" stroke="#99ccff" points="911.4316,-488.2195 911.4316,-505.2195 1002.4316,-505.2195 1002.4316,-488.2195 911.4316,-488.2195"/>
<text text-anchor="start" x="920.6257" y="-493.4195" font-family="Courier,monospace" font-size="11.00" fill="#000000">string(255)</text>
<polygon fill="none" stroke="#99ccff" points="259.4316,-471.2195 259.4316,-488.2195 911.4316,-488.2195 911.4316,-471.2195 259.4316,-471.2195"/>
<text text-anchor="start" x="262.4316" y="-476.4195" font-family="Courier,monospace" font-size="11.00" fill="#000000"> &#160;&#160;&#160;&#160;&#160;&#160;&#160;&#160;&#160;&#160;&#160;&#160;&#160;&#160;&#160;&#160;&#160;&#160;&#160;&#160;&#160;&#160;&#160;&#160;&#160;&#160;&#160;&#160;&#160;&#160;&#160;&#160;&#160;&#160;&#160;&#160;&#160;&#160;&#160;&#160;LastModifiedById &#160;&#160;&#160;&#160;&#160;&#160;&#160;&#160;&#160;&#160;&#160;&#160;&#160;&#160;&#160;&#160;&#160;&#160;&#160;&#160;&#160;&#160;&#160;&#160;&#160;&#160;&#160;&#160;&#160;&#160;&#160;&#160;&#160;&#160;&#160;&#160;&#160;&#160;</text>
<polygon fill="none" stroke="#99ccff" points="911.4316,-471.2195 911.4316,-488.2195 1002.4316,-488.2195 1002.4316,-471.2195 911.4316,-471.2195"/>
<text text-anchor="start" x="914.0247" y="-476.4195" font-family="Courier,monospace" font-size="11.00" fill="#000000">reference(18)</text>
<polygon fill="none" stroke="#99ccff" points="259.4316,-454.2195 259.4316,-471.2195 911.4316,-471.2195 911.4316,-454.2195 259.4316,-454.2195"/>
<text text-anchor="start" x="262.4316" y="-459.4195" font-family="Courier,monospace" font-size="11.00" fill="#000000"> &#160;&#160;&#160;&#160;&#160;&#160;&#160;&#160;&#160;&#160;&#160;&#160;&#160;&#160;&#160;&#160;&#160;&#160;&#160;&#160;&#160;&#160;&#160;&#160;&#160;&#160;&#160;&#160;&#160;&#160;&#160;&#160;&#160;&#160;&#160;&#160;&#160;&#160;&#160;&#160;LastViewedDate &#160;&#160;&#160;&#160;&#160;&#160;&#160;&#160;&#160;&#160;&#160;&#160;&#160;&#160;&#160;&#160;&#160;&#160;&#160;&#160;&#160;&#160;&#160;&#160;&#160;&#160;&#160;&#160;&#160;&#160;&#160;&#160;&#160;&#160;&#160;&#160;&#160;&#160;</text>
<polygon fill="none" stroke="#99ccff" points="911.4316,-454.2195 911.4316,-471.2195 1002.4316,-471.2195 1002.4316,-454.2195 911.4316,-454.2195"/>
<text text-anchor="start" x="930.5273" y="-459.4195" font-family="Courier,monospace" font-size="11.00" fill="#000000">datetime</text>
<polygon fill="none" stroke="#99ccff" points="259.4316,-437.2195 259.4316,-454.2195 911.4316,-454.2195 911.4316,-437.2195 259.4316,-437.2195"/>
<text text-anchor="start" x="261.979" y="-442.4195" font-family="Courier,monospace" font-size="11.00" fill="#000000"> &#160;&#160;&#160;&#160;&#160;&#160;&#160;&#160;&#160;&#160;&#160;&#160;&#160;&#160;&#160;&#160;&#160;&#160;&#160;&#160;&#160;&#160;&#160;&#160;&#160;&#160;&#160;&#160;&#160;&#160;&#160;&#160;&#160;&#160;&#160;&#160;&#160;&#160;&#160;&#160;LastReferencedDate &#160;&#160;&#160;&#160;&#160;&#160;&#160;&#160;&#160;&#160;&#160;&#160;&#160;&#160;&#160;&#160;&#160;&#160;&#160;&#160;&#160;&#160;&#160;&#160;&#160;&#160;&#160;&#160;&#160;&#160;&#160;&#160;&#160;&#160;&#160;&#160;&#160;&#160;</text>
<polygon fill="none" stroke="#99ccff" points="911.4316,-437.2195 911.4316,-454.2195 1002.4316,-454.2195 1002.4316,-437.2195 911.4316,-437.2195"/>
<text text-anchor="start" x="930.5273" y="-442.4195" font-family="Courier,monospace" font-size="11.00" fill="#000000">datetime</text>
<polygon fill="none" stroke="#99ccff" points="259.4316,-420.2195 259.4316,-437.2195 911.4316,-437.2195 911.4316,-420.2195 259.4316,-420.2195"/>
<text text-anchor="start" x="262.4316" y="-425.4195" font-family="Courier,monospace" font-size="11.00" fill="#000000"> &#160;&#160;&#160;&#160;&#160;&#160;&#160;&#160;&#160;&#160;&#160;&#160;&#160;&#160;&#160;&#160;&#160;&#160;&#160;&#160;&#160;&#160;&#160;&#160;&#160;&#160;&#160;&#160;&#160;&#160;&#160;&#160;&#160;&#160;&#160;&#160;&#160;&#160;&#160;&#160;IsActive &#160;&#160;&#160;&#160;&#160;&#160;&#160;&#160;&#160;&#160;&#160;&#160;&#160;&#160;&#160;&#160;&#160;&#160;&#160;&#160;&#160;&#160;&#160;&#160;&#160;&#160;&#160;&#160;&#160;&#160;&#160;&#160;&#160;&#160;&#160;&#160;&#160;&#160;</text>
<polygon fill="none" stroke="#99ccff" points="911.4316,-420.2195 911.4316,-437.2195 1002.4316,-437.2195 1002.4316,-420.2195 911.4316,-420.2195"/>
<text text-anchor="start" x="933.8279" y="-425.4195" font-family="Courier,monospace" font-size="11.00" fill="#000000">boolean</text>
<polygon fill="none" stroke="#99ccff" points="259.4316,-403.2195 259.4316,-420.2195 911.4316,-420.2195 911.4316,-403.2195 259.4316,-403.2195"/>
<text text-anchor="start" x="262.4316" y="-408.4195" font-family="Courier,monospace" font-size="11.00" fill="#000000"> &#160;&#160;&#160;&#160;&#160;&#160;&#160;&#160;&#160;&#160;&#160;&#160;&#160;&#160;&#160;&#160;&#160;&#160;&#160;&#160;&#160;&#160;&#160;&#160;&#160;&#160;&#160;&#160;&#160;&#160;&#160;&#160;&#160;&#160;&#160;&#160;&#160;&#160;&#160;&#160;IsArchived &#160;&#160;&#160;&#160;&#160;&#160;&#160;&#160;&#160;&#160;&#160;&#160;&#160;&#160;&#160;&#160;&#160;&#160;&#160;&#160;&#160;&#160;&#160;&#160;&#160;&#160;&#160;&#160;&#160;&#160;&#160;&#160;&#160;&#160;&#160;&#160;&#160;&#160;</text>
<polygon fill="none" stroke="#99ccff" points="911.4316,-403.2195 911.4316,-420.2195 1002.4316,-420.2195 1002.4316,-403.2195 911.4316,-403.2195"/>
<text text-anchor="start" x="933.8279" y="-408.4195" font-family="Courier,monospace" font-size="11.00" fill="#000000">boolean</text>
<polygon fill="none" stroke="#99ccff" points="259.4316,-386.2195 259.4316,-403.2195 911.4316,-403.2195 911.4316,-386.2195 259.4316,-386.2195"/>
<text text-anchor="start" x="262.4316" y="-391.4195" font-family="Courier,monospace" font-size="11.00" fill="#000000"> &#160;&#160;&#160;&#160;&#160;&#160;&#160;&#160;&#160;&#160;&#160;&#160;&#160;&#160;&#160;&#160;&#160;&#160;&#160;&#160;&#160;&#160;&#160;&#160;&#160;&#160;&#160;&#160;&#160;&#160;&#160;&#160;&#160;&#160;&#160;&#160;&#160;&#160;&#160;&#160;Description &#160;&#160;&#160;&#160;&#160;&#160;&#160;&#160;&#160;&#160;&#160;&#160;&#160;&#160;&#160;&#160;&#160;&#160;&#160;&#160;&#160;&#160;&#160;&#160;&#160;&#160;&#160;&#160;&#160;&#160;&#160;&#160;&#160;&#160;&#160;&#160;&#160;&#160;</text>
<polygon fill="none" stroke="#99ccff" points="911.4316,-386.2195 911.4316,-403.2195 1002.4316,-403.2195 1002.4316,-386.2195 911.4316,-386.2195"/>
<text text-anchor="start" x="920.6257" y="-391.4195" font-family="Courier,monospace" font-size="11.00" fill="#000000">string(255)</text>
<polygon fill="none" stroke="#99ccff" points="259.4316,-369.2195 259.4316,-386.2195 911.4316,-386.2195 911.4316,-369.2195 259.4316,-369.2195"/>
<text text-anchor="start" x="262.4316" y="-374.4195" font-family="Courier,monospace" font-size="11.00" fill="#000000"> &#160;&#160;&#160;&#160;&#160;&#160;&#160;&#160;&#160;&#160;&#160;&#160;&#160;&#160;&#160;&#160;&#160;&#160;&#160;&#160;&#160;&#160;&#160;&#160;&#160;&#160;&#160;&#160;&#160;&#160;&#160;&#160;&#160;&#160;&#160;&#160;&#160;&#160;&#160;&#160;IsStandard &#160;&#160;&#160;&#160;&#160;&#160;&#160;&#160;&#160;&#160;&#160;&#160;&#160;&#160;&#160;&#160;&#160;&#160;&#160;&#160;&#160;&#160;&#160;&#160;&#160;&#160;&#160;&#160;&#160;&#160;&#160;&#160;&#160;&#160;&#160;&#160;&#160;&#160;</text>
<polygon fill="none" stroke="#99ccff" points="911.4316,-369.2195 911.4316,-386.2195 1002.4316,-386.2195 1002.4316,-369.2195 911.4316,-369.2195"/>
<text text-anchor="start" x="933.8279" y="-374.4195" font-family="Courier,monospace" font-size="11.00" fill="#000000">boolean</text>
<polygon fill="none" stroke="#99ccff" points="257.9316,-368.7195 257.9316,-557.7195 1002.9316,-557.7195 1002.9316,-368.7195 257.9316,-368.7195"/>
</a>
</g>
</g>
<!-- User -->
<g id="node2" class="node">
<title>User</title>
<text text-anchor="middle" x="67.4097" y="-247.9195" font-family="Courier,monospace" font-size="11.00" fill="#000000">User</text>
</g>
<!-- Pricebook2&#45;&gt;User -->
<g id="edge1" class="edge">
<title>Pricebook2:w&#45;&gt;User:e</title>
<path fill="none" stroke="#ff99cc" d="M244.9466,-479.2967C144.4373,-466.3822 89.435,-321.4722 72.8517,-269.5725"/>
<polygon fill="#ff99cc" stroke="#ff99cc" points="251.4478,-479.7108 259.2027,-483.8123 255.4397,-479.9652 259.4316,-480.2195 259.4316,-480.2195 259.4316,-480.2195 255.4397,-479.9652 259.6606,-476.6268 251.4478,-479.7108 251.4478,-479.7108"/>
<ellipse fill="none" stroke="#ff99cc" cx="248.2543" cy="-479.5073" rx="3.2" ry="3.2"/>
<text text-anchor="middle" x="189.6255" y="-478.021" font-family="Monaco" font-size="9.00" fill="#000000">LastModifiedBy</text>
</g>
<!-- PricebookEntry -->
<g id="node3" class="node">
<title>PricebookEntry</title>
<g id="a_node3"><a xlink:href="#" xlink:title=" PricebookEntry ">
<polygon fill="#ffeeff" stroke="transparent" points="1104.4404,-217.7195 1104.4404,-406.7195 1836.4404,-406.7195 1836.4404,-217.7195 1104.4404,-217.7195"/>
<polygon fill="#add8e6" stroke="transparent" points="1105.4404,-388.2195 1105.4404,-405.2195 1835.4404,-405.2195 1835.4404,-388.2195 1105.4404,-388.2195"/>
<polygon fill="none" stroke="#99ccff" points="1105.4404,-388.2195 1105.4404,-405.2195 1835.4404,-405.2195 1835.4404,-388.2195 1105.4404,-388.2195"/>
<text text-anchor="start" x="1424.2329" y="-394.4195" font-family="Courier,monospace" font-weight="bold" font-size="11.00" fill="#000000">PricebookEntry</text>
<polygon fill="#99ccff" stroke="transparent" points="1105.4404,-371.2195 1105.4404,-388.2195 1744.4404,-388.2195 1744.4404,-371.2195 1105.4404,-371.2195"/>
<polygon fill="none" stroke="#99ccff" points="1105.4404,-371.2195 1105.4404,-388.2195 1744.4404,-388.2195 1744.4404,-371.2195 1105.4404,-371.2195"/>
<text text-anchor="start" x="1108.4404" y="-377.4195" font-family="Courier,monospace" font-size="11.00" fill="#000000"> &#160;&#160;&#160;&#160;&#160;&#160;&#160;&#160;&#160;&#160;&#160;&#160;&#160;&#160;&#160;&#160;&#160;&#160;&#160;&#160;&#160;&#160;&#160;&#160;&#160;&#160;&#160;&#160;&#160;&#160;&#160;&#160;&#160;&#160;&#160;&#160;&#160;&#160;&#160;&#160;&#160;&#160;</text>
<text text-anchor="start" x="1392.2866" y="-377.4195" font-family="Courier,monospace" font-weight="bold" font-size="11.00" fill="#000000">Id</text>
<text text-anchor="start" x="1405.4888" y="-377.4195" font-family="Courier,monospace" font-size="11.00" fill="#000000"> &#160;&#160;&#160;&#160;&#160;&#160;&#160;&#160;&#160;&#160;&#160;&#160;&#160;&#160;&#160;&#160;&#160;&#160;&#160;&#160;&#160;&#160;&#160;&#160;&#160;&#160;&#160;&#160;&#160;&#160;&#160;&#160;&#160;&#160;&#160;&#160;&#160;&#160;&#160;</text>
<polygon fill="none" stroke="#99ccff" points="1744.4404,-371.2195 1744.4404,-388.2195 1835.4404,-388.2195 1835.4404,-371.2195 1744.4404,-371.2195"/>
<text text-anchor="start" x="1770.1372" y="-376.4195" font-family="Courier,monospace" font-size="11.00" fill="#000000">id(18)</text>
<polygon fill="none" stroke="#99ccff" points="1105.4404,-354.2195 1105.4404,-371.2195 1744.4404,-371.2195 1744.4404,-354.2195 1105.4404,-354.2195"/>
<text text-anchor="start" x="1108.4404" y="-359.4195" font-family="Courier,monospace" font-size="11.00" fill="#000000"> &#160;&#160;&#160;&#160;&#160;&#160;&#160;&#160;&#160;&#160;&#160;&#160;&#160;&#160;&#160;&#160;&#160;&#160;&#160;&#160;&#160;&#160;&#160;&#160;&#160;&#160;&#160;&#160;&#160;&#160;&#160;&#160;&#160;&#160;&#160;&#160;&#160;&#160;&#160;&#160;Name &#160;&#160;&#160;&#160;&#160;&#160;&#160;&#160;&#160;&#160;&#160;&#160;&#160;&#160;&#160;&#160;&#160;&#160;&#160;&#160;&#160;&#160;&#160;&#160;&#160;&#160;&#160;&#160;&#160;&#160;&#160;&#160;&#160;&#160;&#160;&#160;&#160;&#160;</text>
<polygon fill="none" stroke="#99ccff" points="1744.4404,-354.2195 1744.4404,-371.2195 1835.4404,-371.2195 1835.4404,-354.2195 1744.4404,-354.2195"/>
<text text-anchor="start" x="1753.6345" y="-359.4195" font-family="Courier,monospace" font-size="11.00" fill="#000000">string(255)</text>
<polygon fill="none" stroke="#99ccff" points="1105.4404,-337.2195 1105.4404,-354.2195 1744.4404,-354.2195 1744.4404,-337.2195 1105.4404,-337.2195"/>
<text text-anchor="start" x="1108.4404" y="-342.4195" font-family="Courier,monospace" font-size="11.00" fill="#000000"> &#160;&#160;&#160;&#160;&#160;&#160;&#160;&#160;&#160;&#160;&#160;&#160;&#160;&#160;&#160;&#160;&#160;&#160;&#160;&#160;&#160;&#160;&#160;&#160;&#160;&#160;&#160;&#160;&#160;&#160;&#160;&#160;&#160;&#160;&#160;&#160;&#160;&#160;&#160;&#160;Pricebook2Id &#160;&#160;&#160;&#160;&#160;&#160;&#160;&#160;&#160;&#160;&#160;&#160;&#160;&#160;&#160;&#160;&#160;&#160;&#160;&#160;&#160;&#160;&#160;&#160;&#160;&#160;&#160;&#160;&#160;&#160;&#160;&#160;&#160;&#160;&#160;&#160;&#160;&#160;</text>
<polygon fill="none" stroke="#99ccff" points="1744.4404,-337.2195 1744.4404,-354.2195 1835.4404,-354.2195 1835.4404,-337.2195 1744.4404,-337.2195"/>
<text text-anchor="start" x="1747.0334" y="-342.4195" font-family="Courier,monospace" font-size="11.00" fill="#000000">reference(18)</text>
<polygon fill="none" stroke="#99ccff" points="1105.4404,-320.2195 1105.4404,-337.2195 1744.4404,-337.2195 1744.4404,-320.2195 1105.4404,-320.2195"/>
<text text-anchor="start" x="1108.4404" y="-325.4195" font-family="Courier,monospace" font-size="11.00" fill="#000000"> &#160;&#160;&#160;&#160;&#160;&#160;&#160;&#160;&#160;&#160;&#160;&#160;&#160;&#160;&#160;&#160;&#160;&#160;&#160;&#160;&#160;&#160;&#160;&#160;&#160;&#160;&#160;&#160;&#160;&#160;&#160;&#160;&#160;&#160;&#160;&#160;&#160;&#160;&#160;&#160;Product2Id &#160;&#160;&#160;&#160;&#160;&#160;&#160;&#160;&#160;&#160;&#160;&#160;&#160;&#160;&#160;&#160;&#160;&#160;&#160;&#160;&#160;&#160;&#160;&#160;&#160;&#160;&#160;&#160;&#160;&#160;&#160;&#160;&#160;&#160;&#160;&#160;&#160;&#160;</text>
<polygon fill="none" stroke="#99ccff" points="1744.4404,-320.2195 1744.4404,-337.2195 1835.4404,-337.2195 1835.4404,-320.2195 1744.4404,-320.2195"/>
<text text-anchor="start" x="1747.0334" y="-325.4195" font-family="Courier,monospace" font-size="11.00" fill="#000000">reference(18)</text>
<polygon fill="none" stroke="#99ccff" points="1105.4404,-303.2195 1105.4404,-320.2195 1744.4404,-320.2195 1744.4404,-303.2195 1105.4404,-303.2195"/>
<text text-anchor="start" x="1108.4404" y="-308.4195" font-family="Courier,monospace" font-size="11.00" fill="#000000"> &#160;&#160;&#160;&#160;&#160;&#160;&#160;&#160;&#160;&#160;&#160;&#160;&#160;&#160;&#160;&#160;&#160;&#160;&#160;&#160;&#160;&#160;&#160;&#160;&#160;&#160;&#160;&#160;&#160;&#160;&#160;&#160;&#160;&#160;&#160;&#160;&#160;&#160;&#160;&#160;UnitPrice &#160;&#160;&#160;&#160;&#160;&#160;&#160;&#160;&#160;&#160;&#160;&#160;&#160;&#160;&#160;&#160;&#160;&#160;&#160;&#160;&#160;&#160;&#160;&#160;&#160;&#160;&#160;&#160;&#160;&#160;&#160;&#160;&#160;&#160;&#160;&#160;&#160;&#160;</text>
<polygon fill="none" stroke="#99ccff" points="1744.4404,-303.2195 1744.4404,-320.2195 1835.4404,-320.2195 1835.4404,-303.2195 1744.4404,-303.2195"/>
<text text-anchor="start" x="1763.5361" y="-308.4195" font-family="Courier,monospace" font-size="11.00" fill="#000000">currency</text>
<polygon fill="none" stroke="#99ccff" points="1105.4404,-286.2195 1105.4404,-303.2195 1744.4404,-303.2195 1744.4404,-286.2195 1105.4404,-286.2195"/>
<text text-anchor="start" x="1108.4404" y="-291.4195" font-family="Courier,monospace" font-size="11.00" fill="#000000"> &#160;&#160;&#160;&#160;&#160;&#160;&#160;&#160;&#160;&#160;&#160;&#160;&#160;&#160;&#160;&#160;&#160;&#160;&#160;&#160;&#160;&#160;&#160;&#160;&#160;&#160;&#160;&#160;&#160;&#160;&#160;&#160;&#160;&#160;&#160;&#160;&#160;&#160;&#160;&#160;IsActive &#160;&#160;&#160;&#160;&#160;&#160;&#160;&#160;&#160;&#160;&#160;&#160;&#160;&#160;&#160;&#160;&#160;&#160;&#160;&#160;&#160;&#160;&#160;&#160;&#160;&#160;&#160;&#160;&#160;&#160;&#160;&#160;&#160;&#160;&#160;&#160;&#160;&#160;</text>
<polygon fill="none" stroke="#99ccff" points="1744.4404,-286.2195 1744.4404,-303.2195 1835.4404,-303.2195 1835.4404,-286.2195 1744.4404,-286.2195"/>
<text text-anchor="start" x="1766.8367" y="-291.4195" font-family="Courier,monospace" font-size="11.00" fill="#000000">boolean</text>
<polygon fill="none" stroke="#99ccff" points="1105.4404,-269.2195 1105.4404,-286.2195 1744.4404,-286.2195 1744.4404,-269.2195 1105.4404,-269.2195"/>
<text text-anchor="start" x="1108.0889" y="-274.4195" font-family="Courier,monospace" font-size="11.00" fill="#000000"> &#160;&#160;&#160;&#160;&#160;&#160;&#160;&#160;&#160;&#160;&#160;&#160;&#160;&#160;&#160;&#160;&#160;&#160;&#160;&#160;&#160;&#160;&#160;&#160;&#160;&#160;&#160;&#160;&#160;&#160;&#160;&#160;&#160;&#160;&#160;&#160;&#160;&#160;&#160;&#160;UseStandardPrice &#160;&#160;&#160;&#160;&#160;&#160;&#160;&#160;&#160;&#160;&#160;&#160;&#160;&#160;&#160;&#160;&#160;&#160;&#160;&#160;&#160;&#160;&#160;&#160;&#160;&#160;&#160;&#160;&#160;&#160;&#160;&#160;&#160;&#160;&#160;&#160;&#160;&#160;</text>
<polygon fill="none" stroke="#99ccff" points="1744.4404,-269.2195 1744.4404,-286.2195 1835.4404,-286.2195 1835.4404,-269.2195 1744.4404,-269.2195"/>
<text text-anchor="start" x="1766.8367" y="-274.4195" font-family="Courier,monospace" font-size="11.00" fill="#000000">boolean</text>
<polygon fill="none" stroke="#99ccff" points="1105.4404,-252.2195 1105.4404,-269.2195 1744.4404,-269.2195 1744.4404,-252.2195 1105.4404,-252.2195"/>
<text text-anchor="start" x="1108.0889" y="-257.4195" font-family="Courier,monospace" font-size="11.00" fill="#000000"> &#160;&#160;&#160;&#160;&#160;&#160;&#160;&#160;&#160;&#160;&#160;&#160;&#160;&#160;&#160;&#160;&#160;&#160;&#160;&#160;&#160;&#160;&#160;&#160;&#160;&#160;&#160;&#160;&#160;&#160;&#160;&#160;&#160;&#160;&#160;&#160;&#160;&#160;&#160;&#160;LastModifiedById &#160;&#160;&#160;&#160;&#160;&#160;&#160;&#160;&#160;&#160;&#160;&#160;&#160;&#160;&#160;&#160;&#160;&#160;&#160;&#160;&#160;&#160;&#160;&#160;&#160;&#160;&#160;&#160;&#160;&#160;&#160;&#160;&#160;&#160;&#160;&#160;&#160;&#160;</text>
<polygon fill="none" stroke="#99ccff" points="1744.4404,-252.2195 1744.4404,-269.2195 1835.4404,-269.2195 1835.4404,-252.2195 1744.4404,-252.2195"/>
<text text-anchor="start" x="1747.0334" y="-257.4195" font-family="Courier,monospace" font-size="11.00" fill="#000000">reference(18)</text>
<polygon fill="none" stroke="#99ccff" points="1105.4404,-235.2195 1105.4404,-252.2195 1744.4404,-252.2195 1744.4404,-235.2195 1105.4404,-235.2195"/>
<text text-anchor="start" x="1108.4404" y="-240.4195" font-family="Courier,monospace" font-size="11.00" fill="#000000"> &#160;&#160;&#160;&#160;&#160;&#160;&#160;&#160;&#160;&#160;&#160;&#160;&#160;&#160;&#160;&#160;&#160;&#160;&#160;&#160;&#160;&#160;&#160;&#160;&#160;&#160;&#160;&#160;&#160;&#160;&#160;&#160;&#160;&#160;&#160;&#160;&#160;&#160;&#160;&#160;ProductCode &#160;&#160;&#160;&#160;&#160;&#160;&#160;&#160;&#160;&#160;&#160;&#160;&#160;&#160;&#160;&#160;&#160;&#160;&#160;&#160;&#160;&#160;&#160;&#160;&#160;&#160;&#160;&#160;&#160;&#160;&#160;&#160;&#160;&#160;&#160;&#160;&#160;&#160;</text>
<polygon fill="none" stroke="#99ccff" points="1744.4404,-235.2195 1744.4404,-252.2195 1835.4404,-252.2195 1835.4404,-235.2195 1744.4404,-235.2195"/>
<text text-anchor="start" x="1753.6345" y="-240.4195" font-family="Courier,monospace" font-size="11.00" fill="#000000">string(255)</text>
<polygon fill="none" stroke="#99ccff" points="1105.4404,-218.2195 1105.4404,-235.2195 1744.4404,-235.2195 1744.4404,-218.2195 1105.4404,-218.2195"/>
<text text-anchor="start" x="1108.4404" y="-223.4195" font-family="Courier,monospace" font-size="11.00" fill="#000000"> &#160;&#160;&#160;&#160;&#160;&#160;&#160;&#160;&#160;&#160;&#160;&#160;&#160;&#160;&#160;&#160;&#160;&#160;&#160;&#160;&#160;&#160;&#160;&#160;&#160;&#160;&#160;&#160;&#160;&#160;&#160;&#160;&#160;&#160;&#160;&#160;&#160;&#160;&#160;&#160;IsDeleted &#160;&#160;&#160;&#160;&#160;&#160;&#160;&#160;&#160;&#160;&#160;&#160;&#160;&#160;&#160;&#160;&#160;&#160;&#160;&#160;&#160;&#160;&#160;&#160;&#160;&#160;&#160;&#160;&#160;&#160;&#160;&#160;&#160;&#160;&#160;&#160;&#160;&#160;</text>
<polygon fill="none" stroke="#99ccff" points="1744.4404,-218.2195 1744.4404,-235.2195 1835.4404,-235.2195 1835.4404,-218.2195 1744.4404,-218.2195"/>
<text text-anchor="start" x="1766.8367" y="-223.4195" font-family="Courier,monospace" font-size="11.00" fill="#000000">boolean</text>
<polygon fill="none" stroke="#99ccff" points="1104.4404,-217.7195 1104.4404,-406.7195 1836.4404,-406.7195 1836.4404,-217.7195 1104.4404,-217.7195"/>
</a>
</g>
</g>
<!-- PricebookEntry&#45;&gt;Pricebook2 -->
<g id="edge2" class="edge">
<title>PricebookEntry:w&#45;&gt;Pricebook2:e</title>
<path fill="none" stroke="#ff99cc" d="M1090.9612,-347.2149C989.7994,-361.7764 1025.4568,-531.2195 911.4316,-531.2195"/>
<polygon fill="#ff99cc" stroke="#ff99cc" points="1097.4593,-346.7682 1105.6873,-349.8111 1101.4498,-346.4939 1105.4404,-346.2195 1105.4404,-346.2195 1105.4404,-346.2195 1101.4498,-346.4939 1105.1935,-342.628 1097.4593,-346.7682 1097.4593,-346.7682"/>
<ellipse fill="none" stroke="#ff99cc" cx="1094.2668" cy="-346.9877" rx="3.2" ry="3.2"/>
<text text-anchor="middle" x="1060.436" y="-390.021" font-family="Monaco" font-size="9.00" fill="#000000">Pricebook2</text>
</g>
<!-- PricebookEntry&#45;&gt;User -->
<g id="edge4" class="edge">
<title>PricebookEntry:w&#45;&gt;User:e</title>
<path fill="none" stroke="#ff99cc" d="M1090.9771,-258.8063C1024.846,-244.4391 1087.6556,-124.4547 1016.4316,-80.2181 870.6974,10.2962 397.7685,-3.2824 244.4316,-80.2181 171.589,-116.7664 200.3793,-178.8075 134.8193,-227.2195 122.9273,-236.0011 107.5253,-241.8045 94.4461,-245.5009"/>
<polygon fill="#ff99cc" stroke="#ff99cc" points="1097.4783,-259.4415 1105.0903,-263.8025 1101.4594,-259.8305 1105.4404,-260.2195 1105.4404,-260.2195 1105.4404,-260.2195 1101.4594,-259.8305 1105.7905,-256.6366 1097.4783,-259.4415 1097.4783,-259.4415"/>
<ellipse fill="none" stroke="#ff99cc" cx="1094.2935" cy="-259.1303" rx="3.2" ry="3.2"/>
<text text-anchor="middle" x="630.4316" y="-85.021" font-family="Monaco" font-size="9.00" fill="#000000">LastModifiedBy</text>
</g>
<!-- Product2 -->
<g id="node4" class="node">
<title>Product2</title>
<g id="a_node4"><a xlink:href="#" xlink:title=" Product2 ">
<polygon fill="#ffeeff" stroke="transparent" points="244.4316,-98.7195 244.4316,-355.7195 1016.4316,-355.7195 1016.4316,-98.7195 244.4316,-98.7195"/>
<polygon fill="#add8e6" stroke="transparent" points="245.4316,-337.2195 245.4316,-354.2195 1015.4316,-354.2195 1015.4316,-337.2195 245.4316,-337.2195"/>
<polygon fill="none" stroke="#99ccff" points="245.4316,-337.2195 245.4316,-354.2195 1015.4316,-354.2195 1015.4316,-337.2195 245.4316,-337.2195"/>
<text text-anchor="start" x="604.0273" y="-343.4195" font-family="Courier,monospace" font-weight="bold" font-size="11.00" fill="#000000">Product2</text>
<polygon fill="#99ccff" stroke="transparent" points="245.4316,-320.2195 245.4316,-337.2195 917.4316,-337.2195 917.4316,-320.2195 245.4316,-320.2195"/>
<polygon fill="none" stroke="#99ccff" points="245.4316,-320.2195 245.4316,-337.2195 917.4316,-337.2195 917.4316,-320.2195 245.4316,-320.2195"/>
<text text-anchor="start" x="248.4316" y="-326.4195" font-family="Courier,monospace" font-size="11.00" fill="#000000"> &#160;&#160;&#160;&#160;&#160;&#160;&#160;&#160;&#160;&#160;&#160;&#160;&#160;&#160;&#160;&#160;&#160;&#160;&#160;&#160;&#160;&#160;&#160;&#160;&#160;&#160;&#160;&#160;&#160;&#160;&#160;&#160;&#160;&#160;&#160;&#160;&#160;&#160;&#160;&#160;&#160;&#160;</text>
<text text-anchor="start" x="532.2778" y="-326.4195" font-family="Courier,monospace" font-weight="bold" font-size="11.00" fill="#000000">Id</text>
<text text-anchor="start" x="545.48" y="-326.4195" font-family="Courier,monospace" font-size="11.00" fill="#000000"> &#160;&#160;&#160;&#160;&#160;&#160;&#160;&#160;&#160;&#160;&#160;&#160;&#160;&#160;&#160;&#160;&#160;&#160;&#160;&#160;&#160;&#160;&#160;&#160;&#160;&#160;&#160;&#160;&#160;&#160;&#160;&#160;&#160;&#160;&#160;&#160;&#160;&#160;&#160;</text>
<polygon fill="none" stroke="#99ccff" points="917.4316,-320.2195 917.4316,-337.2195 1015.4316,-337.2195 1015.4316,-320.2195 917.4316,-320.2195"/>
<text text-anchor="start" x="946.6284" y="-325.4195" font-family="Courier,monospace" font-size="11.00" fill="#000000">id(18)</text>
<polygon fill="none" stroke="#99ccff" points="245.4316,-303.2195 245.4316,-320.2195 917.4316,-320.2195 917.4316,-303.2195 245.4316,-303.2195"/>
<text text-anchor="start" x="248.4316" y="-308.4195" font-family="Courier,monospace" font-size="11.00" fill="#000000"> &#160;&#160;&#160;&#160;&#160;&#160;&#160;&#160;&#160;&#160;&#160;&#160;&#160;&#160;&#160;&#160;&#160;&#160;&#160;&#160;&#160;&#160;&#160;&#160;&#160;&#160;&#160;&#160;&#160;&#160;&#160;&#160;&#160;&#160;&#160;&#160;&#160;&#160;&#160;&#160;Name &#160;&#160;&#160;&#160;&#160;&#160;&#160;&#160;&#160;&#160;&#160;&#160;&#160;&#160;&#160;&#160;&#160;&#160;&#160;&#160;&#160;&#160;&#160;&#160;&#160;&#160;&#160;&#160;&#160;&#160;&#160;&#160;&#160;&#160;&#160;&#160;&#160;&#160;</text>
<polygon fill="none" stroke="#99ccff" points="917.4316,-303.2195 917.4316,-320.2195 1015.4316,-320.2195 1015.4316,-303.2195 917.4316,-303.2195"/>
<text text-anchor="start" x="930.1257" y="-308.4195" font-family="Courier,monospace" font-size="11.00" fill="#000000">string(255)</text>
<polygon fill="none" stroke="#99ccff" points="245.4316,-286.2195 245.4316,-303.2195 917.4316,-303.2195 917.4316,-286.2195 245.4316,-286.2195"/>
<text text-anchor="start" x="248.4316" y="-291.4195" font-family="Courier,monospace" font-size="11.00" fill="#000000"> &#160;&#160;&#160;&#160;&#160;&#160;&#160;&#160;&#160;&#160;&#160;&#160;&#160;&#160;&#160;&#160;&#160;&#160;&#160;&#160;&#160;&#160;&#160;&#160;&#160;&#160;&#160;&#160;&#160;&#160;&#160;&#160;&#160;&#160;&#160;&#160;&#160;&#160;&#160;&#160;ProductCode &#160;&#160;&#160;&#160;&#160;&#160;&#160;&#160;&#160;&#160;&#160;&#160;&#160;&#160;&#160;&#160;&#160;&#160;&#160;&#160;&#160;&#160;&#160;&#160;&#160;&#160;&#160;&#160;&#160;&#160;&#160;&#160;&#160;&#160;&#160;&#160;&#160;&#160;</text>
<polygon fill="none" stroke="#99ccff" points="917.4316,-286.2195 917.4316,-303.2195 1015.4316,-303.2195 1015.4316,-286.2195 917.4316,-286.2195"/>
<text text-anchor="start" x="930.1257" y="-291.4195" font-family="Courier,monospace" font-size="11.00" fill="#000000">string(255)</text>
<polygon fill="none" stroke="#99ccff" points="245.4316,-269.2195 245.4316,-286.2195 917.4316,-286.2195 917.4316,-269.2195 245.4316,-269.2195"/>
<text text-anchor="start" x="248.4316" y="-274.4195" font-family="Courier,monospace" font-size="11.00" fill="#000000"> &#160;&#160;&#160;&#160;&#160;&#160;&#160;&#160;&#160;&#160;&#160;&#160;&#160;&#160;&#160;&#160;&#160;&#160;&#160;&#160;&#160;&#160;&#160;&#160;&#160;&#160;&#160;&#160;&#160;&#160;&#160;&#160;&#160;&#160;&#160;&#160;&#160;&#160;&#160;&#160;Description &#160;&#160;&#160;&#160;&#160;&#160;&#160;&#160;&#160;&#160;&#160;&#160;&#160;&#160;&#160;&#160;&#160;&#160;&#160;&#160;&#160;&#160;&#160;&#160;&#160;&#160;&#160;&#160;&#160;&#160;&#160;&#160;&#160;&#160;&#160;&#160;&#160;&#160;</text>
<polygon fill="none" stroke="#99ccff" points="917.4316,-269.2195 917.4316,-286.2195 1015.4316,-286.2195 1015.4316,-269.2195 917.4316,-269.2195"/>
<text text-anchor="start" x="920.2241" y="-274.4195" font-family="Courier,monospace" font-size="11.00" fill="#000000">textarea(4000)</text>
<polygon fill="none" stroke="#99ccff" points="245.4316,-252.2195 245.4316,-269.2195 917.4316,-269.2195 917.4316,-252.2195 245.4316,-252.2195"/>
<text text-anchor="start" x="248.4316" y="-257.4195" font-family="Courier,monospace" font-size="11.00" fill="#000000"> &#160;&#160;&#160;&#160;&#160;&#160;&#160;&#160;&#160;&#160;&#160;&#160;&#160;&#160;&#160;&#160;&#160;&#160;&#160;&#160;&#160;&#160;&#160;&#160;&#160;&#160;&#160;&#160;&#160;&#160;&#160;&#160;&#160;&#160;&#160;&#160;&#160;&#160;&#160;&#160;IsActive &#160;&#160;&#160;&#160;&#160;&#160;&#160;&#160;&#160;&#160;&#160;&#160;&#160;&#160;&#160;&#160;&#160;&#160;&#160;&#160;&#160;&#160;&#160;&#160;&#160;&#160;&#160;&#160;&#160;&#160;&#160;&#160;&#160;&#160;&#160;&#160;&#160;&#160;</text>
<polygon fill="none" stroke="#99ccff" points="917.4316,-252.2195 917.4316,-269.2195 1015.4316,-269.2195 1015.4316,-252.2195 917.4316,-252.2195"/>
<text text-anchor="start" x="943.3279" y="-257.4195" font-family="Courier,monospace" font-size="11.00" fill="#000000">boolean</text>
<polygon fill="none" stroke="#99ccff" points="245.4316,-235.2195 245.4316,-252.2195 917.4316,-252.2195 917.4316,-235.2195 245.4316,-235.2195"/>
<text text-anchor="start" x="248.4316" y="-240.4195" font-family="Courier,monospace" font-size="11.00" fill="#000000"> &#160;&#160;&#160;&#160;&#160;&#160;&#160;&#160;&#160;&#160;&#160;&#160;&#160;&#160;&#160;&#160;&#160;&#160;&#160;&#160;&#160;&#160;&#160;&#160;&#160;&#160;&#160;&#160;&#160;&#160;&#160;&#160;&#160;&#160;&#160;&#160;&#160;&#160;&#160;&#160;LastModifiedById &#160;&#160;&#160;&#160;&#160;&#160;&#160;&#160;&#160;&#160;&#160;&#160;&#160;&#160;&#160;&#160;&#160;&#160;&#160;&#160;&#160;&#160;&#160;&#160;&#160;&#160;&#160;&#160;&#160;&#160;&#160;&#160;&#160;&#160;&#160;&#160;&#160;&#160;</text>
<polygon fill="none" stroke="#99ccff" points="917.4316,-235.2195 917.4316,-252.2195 1015.4316,-252.2195 1015.4316,-235.2195 917.4316,-235.2195"/>
<text text-anchor="start" x="923.5247" y="-240.4195" font-family="Courier,monospace" font-size="11.00" fill="#000000">reference(18)</text>
<polygon fill="none" stroke="#99ccff" points="245.4316,-218.2195 245.4316,-235.2195 917.4316,-235.2195 917.4316,-218.2195 245.4316,-218.2195"/>
<text text-anchor="start" x="248.4316" y="-223.4195" font-family="Courier,monospace" font-size="11.00" fill="#000000"> &#160;&#160;&#160;&#160;&#160;&#160;&#160;&#160;&#160;&#160;&#160;&#160;&#160;&#160;&#160;&#160;&#160;&#160;&#160;&#160;&#160;&#160;&#160;&#160;&#160;&#160;&#160;&#160;&#160;&#160;&#160;&#160;&#160;&#160;&#160;&#160;&#160;&#160;&#160;&#160;Family &#160;&#160;&#160;&#160;&#160;&#160;&#160;&#160;&#160;&#160;&#160;&#160;&#160;&#160;&#160;&#160;&#160;&#160;&#160;&#160;&#160;&#160;&#160;&#160;&#160;&#160;&#160;&#160;&#160;&#160;&#160;&#160;&#160;&#160;&#160;&#160;&#160;&#160;</text>
<polygon fill="none" stroke="#99ccff" points="917.4316,-218.2195 917.4316,-235.2195 1015.4316,-235.2195 1015.4316,-218.2195 917.4316,-218.2195"/>
<text text-anchor="start" x="926.8252" y="-223.4195" font-family="Courier,monospace" font-size="11.00" fill="#000000">picklist(40)</text>
<polygon fill="none" stroke="#99ccff" points="245.4316,-201.2195 245.4316,-218.2195 917.4316,-218.2195 917.4316,-201.2195 245.4316,-201.2195"/>
<text text-anchor="start" x="248.4316" y="-206.4195" font-family="Courier,monospace" font-size="11.00" fill="#000000"> &#160;&#160;&#160;&#160;&#160;&#160;&#160;&#160;&#160;&#160;&#160;&#160;&#160;&#160;&#160;&#160;&#160;&#160;&#160;&#160;&#160;&#160;&#160;&#160;&#160;&#160;&#160;&#160;&#160;&#160;&#160;&#160;&#160;&#160;&#160;&#160;&#160;&#160;&#160;&#160;ExternalDataSourceId &#160;&#160;&#160;&#160;&#160;&#160;&#160;&#160;&#160;&#160;&#160;&#160;&#160;&#160;&#160;&#160;&#160;&#160;&#160;&#160;&#160;&#160;&#160;&#160;&#160;&#160;&#160;&#160;&#160;&#160;&#160;&#160;&#160;&#160;&#160;&#160;&#160;&#160;</text>
<polygon fill="none" stroke="#99ccff" points="917.4316,-201.2195 917.4316,-218.2195 1015.4316,-218.2195 1015.4316,-201.2195 917.4316,-201.2195"/>
<text text-anchor="start" x="923.5247" y="-206.4195" font-family="Courier,monospace" font-size="11.00" fill="#000000">reference(18)</text>
<polygon fill="none" stroke="#99ccff" points="245.4316,-184.2195 245.4316,-201.2195 917.4316,-201.2195 917.4316,-184.2195 245.4316,-184.2195"/>
<text text-anchor="start" x="248.4316" y="-189.4195" font-family="Courier,monospace" font-size="11.00" fill="#000000"> &#160;&#160;&#160;&#160;&#160;&#160;&#160;&#160;&#160;&#160;&#160;&#160;&#160;&#160;&#160;&#160;&#160;&#160;&#160;&#160;&#160;&#160;&#160;&#160;&#160;&#160;&#160;&#160;&#160;&#160;&#160;&#160;&#160;&#160;&#160;&#160;&#160;&#160;&#160;&#160;ExternalId &#160;&#160;&#160;&#160;&#160;&#160;&#160;&#160;&#160;&#160;&#160;&#160;&#160;&#160;&#160;&#160;&#160;&#160;&#160;&#160;&#160;&#160;&#160;&#160;&#160;&#160;&#160;&#160;&#160;&#160;&#160;&#160;&#160;&#160;&#160;&#160;&#160;&#160;</text>
<polygon fill="none" stroke="#99ccff" points="917.4316,-184.2195 917.4316,-201.2195 1015.4316,-201.2195 1015.4316,-184.2195 917.4316,-184.2195"/>
<text text-anchor="start" x="930.1257" y="-189.4195" font-family="Courier,monospace" font-size="11.00" fill="#000000">string(255)</text>
<polygon fill="none" stroke="#99ccff" points="245.4316,-167.2195 245.4316,-184.2195 917.4316,-184.2195 917.4316,-167.2195 245.4316,-167.2195"/>
<text text-anchor="start" x="248.4316" y="-172.4195" font-family="Courier,monospace" font-size="11.00" fill="#000000"> &#160;&#160;&#160;&#160;&#160;&#160;&#160;&#160;&#160;&#160;&#160;&#160;&#160;&#160;&#160;&#160;&#160;&#160;&#160;&#160;&#160;&#160;&#160;&#160;&#160;&#160;&#160;&#160;&#160;&#160;&#160;&#160;&#160;&#160;&#160;&#160;&#160;&#160;&#160;&#160;DisplayUrl &#160;&#160;&#160;&#160;&#160;&#160;&#160;&#160;&#160;&#160;&#160;&#160;&#160;&#160;&#160;&#160;&#160;&#160;&#160;&#160;&#160;&#160;&#160;&#160;&#160;&#160;&#160;&#160;&#160;&#160;&#160;&#160;&#160;&#160;&#160;&#160;&#160;&#160;</text>
<polygon fill="none" stroke="#99ccff" points="917.4316,-167.2195 917.4316,-184.2195 1015.4316,-184.2195 1015.4316,-167.2195 917.4316,-167.2195"/>
<text text-anchor="start" x="936.7268" y="-172.4195" font-family="Courier,monospace" font-size="11.00" fill="#000000">url(1000)</text>
<polygon fill="none" stroke="#99ccff" points="245.4316,-150.2195 245.4316,-167.2195 917.4316,-167.2195 917.4316,-150.2195 245.4316,-150.2195"/>
<text text-anchor="start" x="248.0774" y="-155.4195" font-family="Courier,monospace" font-size="11.00" fill="#000000"> &#160;&#160;&#160;&#160;&#160;&#160;&#160;&#160;&#160;&#160;&#160;&#160;&#160;&#160;&#160;&#160;&#160;&#160;&#160;&#160;&#160;&#160;&#160;&#160;&#160;&#160;&#160;&#160;&#160;&#160;&#160;&#160;&#160;&#160;&#160;&#160;&#160;&#160;&#160;&#160;QuantityUnitOfMeasure &#160;&#160;&#160;&#160;&#160;&#160;&#160;&#160;&#160;&#160;&#160;&#160;&#160;&#160;&#160;&#160;&#160;&#160;&#160;&#160;&#160;&#160;&#160;&#160;&#160;&#160;&#160;&#160;&#160;&#160;&#160;&#160;&#160;&#160;&#160;&#160;&#160;&#160;</text>
<polygon fill="none" stroke="#99ccff" points="917.4316,-150.2195 917.4316,-167.2195 1015.4316,-167.2195 1015.4316,-150.2195 917.4316,-150.2195"/>
<text text-anchor="start" x="926.8252" y="-155.4195" font-family="Courier,monospace" font-size="11.00" fill="#000000">picklist(40)</text>
<polygon fill="none" stroke="#99ccff" points="245.4316,-133.2195 245.4316,-150.2195 917.4316,-150.2195 917.4316,-133.2195 245.4316,-133.2195"/>
<text text-anchor="start" x="248.4316" y="-138.4195" font-family="Courier,monospace" font-size="11.00" fill="#000000"> &#160;&#160;&#160;&#160;&#160;&#160;&#160;&#160;&#160;&#160;&#160;&#160;&#160;&#160;&#160;&#160;&#160;&#160;&#160;&#160;&#160;&#160;&#160;&#160;&#160;&#160;&#160;&#160;&#160;&#160;&#160;&#160;&#160;&#160;&#160;&#160;&#160;&#160;&#160;&#160;IsDeleted &#160;&#160;&#160;&#160;&#160;&#160;&#160;&#160;&#160;&#160;&#160;&#160;&#160;&#160;&#160;&#160;&#160;&#160;&#160;&#160;&#160;&#160;&#160;&#160;&#160;&#160;&#160;&#160;&#160;&#160;&#160;&#160;&#160;&#160;&#160;&#160;&#160;&#160;</text>
<polygon fill="none" stroke="#99ccff" points="917.4316,-133.2195 917.4316,-150.2195 1015.4316,-150.2195 1015.4316,-133.2195 917.4316,-133.2195"/>
<text text-anchor="start" x="943.3279" y="-138.4195" font-family="Courier,monospace" font-size="11.00" fill="#000000">boolean</text>
<polygon fill="none" stroke="#99ccff" points="245.4316,-116.2195 245.4316,-133.2195 917.4316,-133.2195 917.4316,-116.2195 245.4316,-116.2195"/>
<text text-anchor="start" x="248.4316" y="-121.4195" font-family="Courier,monospace" font-size="11.00" fill="#000000"> &#160;&#160;&#160;&#160;&#160;&#160;&#160;&#160;&#160;&#160;&#160;&#160;&#160;&#160;&#160;&#160;&#160;&#160;&#160;&#160;&#160;&#160;&#160;&#160;&#160;&#160;&#160;&#160;&#160;&#160;&#160;&#160;&#160;&#160;&#160;&#160;&#160;&#160;&#160;&#160;LastViewedDate &#160;&#160;&#160;&#160;&#160;&#160;&#160;&#160;&#160;&#160;&#160;&#160;&#160;&#160;&#160;&#160;&#160;&#160;&#160;&#160;&#160;&#160;&#160;&#160;&#160;&#160;&#160;&#160;&#160;&#160;&#160;&#160;&#160;&#160;&#160;&#160;&#160;&#160;</text>
<polygon fill="none" stroke="#99ccff" points="917.4316,-116.2195 917.4316,-133.2195 1015.4316,-133.2195 1015.4316,-116.2195 917.4316,-116.2195"/>
<text text-anchor="start" x="940.0273" y="-121.4195" font-family="Courier,monospace" font-size="11.00" fill="#000000">datetime</text>
<polygon fill="none" stroke="#99ccff" points="245.4316,-99.2195 245.4316,-116.2195 917.4316,-116.2195 917.4316,-99.2195 245.4316,-99.2195"/>
<text text-anchor="start" x="248.4316" y="-104.4195" font-family="Courier,monospace" font-size="11.00" fill="#000000"> &#160;&#160;&#160;&#160;&#160;&#160;&#160;&#160;&#160;&#160;&#160;&#160;&#160;&#160;&#160;&#160;&#160;&#160;&#160;&#160;&#160;&#160;&#160;&#160;&#160;&#160;&#160;&#160;&#160;&#160;&#160;&#160;&#160;&#160;&#160;&#160;&#160;&#160;&#160;&#160;LastReferencedDate &#160;&#160;&#160;&#160;&#160;&#160;&#160;&#160;&#160;&#160;&#160;&#160;&#160;&#160;&#160;&#160;&#160;&#160;&#160;&#160;&#160;&#160;&#160;&#160;&#160;&#160;&#160;&#160;&#160;&#160;&#160;&#160;&#160;&#160;&#160;&#160;&#160;&#160;</text>
<polygon fill="none" stroke="#99ccff" points="917.4316,-99.2195 917.4316,-116.2195 1015.4316,-116.2195 1015.4316,-99.2195 917.4316,-99.2195"/>
<text text-anchor="start" x="940.0273" y="-104.4195" font-family="Courier,monospace" font-size="11.00" fill="#000000">datetime</text>
<polygon fill="none" stroke="#99ccff" points="244.4316,-98.7195 244.4316,-355.7195 1016.4316,-355.7195 1016.4316,-98.7195 244.4316,-98.7195"/>
</a>
</g>
</g>
<!-- PricebookEntry&#45;&gt;Product2 -->
<g id="edge3" class="edge">
<title>PricebookEntry:w&#45;&gt;Product2:e</title>
<path fill="none" stroke="#ff99cc" d="M1090.924,-329.2195C1019.1216,-329.2195 995.9318,-329.2195 917.4316,-329.2195"/>
<polygon fill="#ff99cc" stroke="#ff99cc" points="1097.4404,-329.2196 1105.4405,-332.8195 1101.4404,-329.2196 1105.4404,-329.2195 1105.4404,-329.2195 1105.4404,-329.2195 1101.4404,-329.2196 1105.4404,-325.6195 1097.4404,-329.2196 1097.4404,-329.2196"/>
<ellipse fill="none" stroke="#ff99cc" cx="1094.2404" cy="-329.2196" rx="3.2" ry="3.2"/>
<text text-anchor="middle" x="1060.436" y="-334.021" font-family="Monaco" font-size="9.00" fill="#000000">Product2</text>
</g>
<!-- Product2&#45;&gt;User -->
<g id="edge5" class="edge">
<title>Product2:w&#45;&gt;User:e</title>
<path fill="none" stroke="#ff99cc" d="M230.8182,-244.2938C180.9165,-244.7849 126.2998,-247.6025 94.5406,-249.4892"/>
<polygon fill="#ff99cc" stroke="#ff99cc" points="237.4317,-244.2603 245.45,-247.8195 241.4317,-244.2399 245.4316,-244.2195 245.4316,-244.2195 245.4316,-244.2195 241.4317,-244.2399 245.4133,-240.6196 237.4317,-244.2603 237.4317,-244.2603"/>
<ellipse fill="none" stroke="#ff99cc" cx="234.2318" cy="-244.2765" rx="3.2" ry="3.2"/>
<text text-anchor="middle" x="189.6255" y="-251.021" font-family="Monaco" font-size="9.00" fill="#000000">LastModifiedBy</text>
</g>
<!-- ExternalDataSource -->
<g id="node5" class="node">
<title>ExternalDataSource</title>
<text text-anchor="middle" x="67.4097" y="-198.9195" font-family="Courier,monospace" font-size="11.00" fill="#000000">ExternalDataSource</text>
</g>
<!-- Product2&#45;&gt;ExternalDataSource -->
<g id="edge6" class="edge">
<title>Product2:w&#45;&gt;ExternalDataSource:e</title>
<path fill="none" stroke="#ff99cc" d="M230.6957,-209.144C198.2605,-208.8224 163.8436,-207.5193 135.0128,-206.1289"/>
<polygon fill="#ff99cc" stroke="#ff99cc" points="237.4317,-209.1785 245.4132,-212.8195 241.4317,-209.199 245.4316,-209.2195 245.4316,-209.2195 245.4316,-209.2195 241.4317,-209.199 245.4501,-205.6196 237.4317,-209.1785 237.4317,-209.1785"/>
<ellipse fill="none" stroke="#ff99cc" cx="234.2318" cy="-209.1621" rx="3.2" ry="3.2"/>
</g>
</g>
</svg>
