<?xml version="1.0" encoding="UTF-8" standalone="no"?>
<!DOCTYPE svg PUBLIC "-//W3C//DTD SVG 1.1//EN"
 "http://www.w3.org/Graphics/SVG/1.1/DTD/svg11.dtd">
<!-- Generated by graphviz version 2.40.1 (20161225.0304)
 -->
<!-- Title: Salesforce+ ERD Pages: 1 -->
<svg width="1018pt" height="299pt"
 viewBox="0.00 0.00 1017.82 299.00" xmlns="http://www.w3.org/2000/svg" xmlns:xlink="http://www.w3.org/1999/xlink">
<g id="graph0" class="graph" transform="scale(1 1) rotate(0) translate(4 295)">
<title>Salesforce+ ERD</title>
<polygon fill="#efeffd" stroke="transparent" points="-4,4 -4,-295 1013.8198,-295 1013.8198,4 -4,4"/>
<text text-anchor="middle" x="961.3132" y="-5.8" font-family="Courier,monospace" font-size="9.00" fill="#000000">Salesforce ERD </text>
<!-- AccountContactRelation -->
<g id="node1" class="node">
<title>AccountContactRelation</title>
<g id="a_node1"><a xlink:href="#" xlink:title=" AccountContactRelation ">
<polygon fill="#ffeeff" stroke="transparent" points="171.8198,-17 171.8198,-291 1009.8198,-291 1009.8198,-17 171.8198,-17"/>
<polygon fill="#add8e6" stroke="transparent" points="172.8198,-273 172.8198,-290 1008.8198,-290 1008.8198,-273 172.8198,-273"/>
<polygon fill="none" stroke="#99ccff" points="172.8198,-273 172.8198,-290 1008.8198,-290 1008.8198,-273 172.8198,-273"/>
<text text-anchor="start" x="518.208" y="-279.2" font-family="Courier,monospace" font-weight="bold" font-size="11.00" fill="#000000">AccountContactRelation</text>
<polygon fill="#99ccff" stroke="transparent" points="172.8198,-256 172.8198,-273 877.8198,-273 877.8198,-256 172.8198,-256"/>
<polygon fill="none" stroke="#99ccff" points="172.8198,-256 172.8198,-273 877.8198,-273 877.8198,-256 172.8198,-256"/>
<text text-anchor="start" x="175.8198" y="-262.2" font-family="Courier,monospace" font-size="11.00" fill="#000000"> &#160;&#160;&#160;&#160;&#160;&#160;&#160;&#160;&#160;&#160;&#160;&#160;&#160;&#160;&#160;&#160;&#160;&#160;&#160;&#160;&#160;&#160;&#160;&#160;&#160;&#160;&#160;&#160;&#160;&#160;&#160;&#160;&#160;&#160;&#160;&#160;&#160;&#160;&#160;&#160;&#160;&#160;</text>
<text text-anchor="start" x="459.666" y="-262.2" font-family="Courier,monospace" font-weight="bold" font-size="11.00" fill="#000000">Id</text>
<text text-anchor="start" x="472.8682" y="-262.2" font-family="Courier,monospace" font-size="11.00" fill="#000000"> &#160;&#160;&#160;&#160;&#160;&#160;&#160;&#160;&#160;&#160;&#160;&#160;&#160;&#160;&#160;&#160;&#160;&#160;&#160;&#160;&#160;&#160;&#160;&#160;&#160;&#160;&#160;&#160;&#160;&#160;&#160;&#160;&#160;&#160;&#160;&#160;&#160;&#160;&#160;</text>
<polygon fill="none" stroke="#99ccff" points="877.8198,-256 877.8198,-273 1008.8198,-273 1008.8198,-256 877.8198,-256"/>
<text text-anchor="start" x="923.5166" y="-261.2" font-family="Courier,monospace" font-size="11.00" fill="#000000">id(18)</text>
<polygon fill="none" stroke="#99ccff" points="172.8198,-239 172.8198,-256 877.8198,-256 877.8198,-239 172.8198,-239"/>
<text text-anchor="start" x="175.8198" y="-244.2" font-family="Courier,monospace" font-size="11.00" fill="#000000"> &#160;&#160;&#160;&#160;&#160;&#160;&#160;&#160;&#160;&#160;&#160;&#160;&#160;&#160;&#160;&#160;&#160;&#160;&#160;&#160;&#160;&#160;&#160;&#160;&#160;&#160;&#160;&#160;&#160;&#160;&#160;&#160;&#160;&#160;&#160;&#160;&#160;&#160;&#160;&#160;AccountId &#160;&#160;&#160;&#160;&#160;&#160;&#160;&#160;&#160;&#160;&#160;&#160;&#160;&#160;&#160;&#160;&#160;&#160;&#160;&#160;&#160;&#160;&#160;&#160;&#160;&#160;&#160;&#160;&#160;&#160;&#160;&#160;&#160;&#160;&#160;&#160;&#160;&#160;</text>
<polygon fill="none" stroke="#99ccff" points="877.8198,-239 877.8198,-256 1008.8198,-256 1008.8198,-239 877.8198,-239"/>
<text text-anchor="start" x="900.4128" y="-244.2" font-family="Courier,monospace" font-size="11.00" fill="#000000">reference(18)</text>
<polygon fill="none" stroke="#99ccff" points="172.8198,-222 172.8198,-239 877.8198,-239 877.8198,-222 172.8198,-222"/>
<text text-anchor="start" x="175.8198" y="-227.2" font-family="Courier,monospace" font-size="11.00" fill="#000000"> &#160;&#160;&#160;&#160;&#160;&#160;&#160;&#160;&#160;&#160;&#160;&#160;&#160;&#160;&#160;&#160;&#160;&#160;&#160;&#160;&#160;&#160;&#160;&#160;&#160;&#160;&#160;&#160;&#160;&#160;&#160;&#160;&#160;&#160;&#160;&#160;&#160;&#160;&#160;&#160;ContactId &#160;&#160;&#160;&#160;&#160;&#160;&#160;&#160;&#160;&#160;&#160;&#160;&#160;&#160;&#160;&#160;&#160;&#160;&#160;&#160;&#160;&#160;&#160;&#160;&#160;&#160;&#160;&#160;&#160;&#160;&#160;&#160;&#160;&#160;&#160;&#160;&#160;&#160;</text>
<polygon fill="none" stroke="#99ccff" points="877.8198,-222 877.8198,-239 1008.8198,-239 1008.8198,-222 877.8198,-222"/>
<text text-anchor="start" x="900.4128" y="-227.2" font-family="Courier,monospace" font-size="11.00" fill="#000000">reference(18)</text>
<polygon fill="none" stroke="#99ccff" points="172.8198,-205 172.8198,-222 877.8198,-222 877.8198,-205 172.8198,-205"/>
<text text-anchor="start" x="175.8198" y="-210.2" font-family="Courier,monospace" font-size="11.00" fill="#000000"> &#160;&#160;&#160;&#160;&#160;&#160;&#160;&#160;&#160;&#160;&#160;&#160;&#160;&#160;&#160;&#160;&#160;&#160;&#160;&#160;&#160;&#160;&#160;&#160;&#160;&#160;&#160;&#160;&#160;&#160;&#160;&#160;&#160;&#160;&#160;&#160;&#160;&#160;&#160;&#160;Roles &#160;&#160;&#160;&#160;&#160;&#160;&#160;&#160;&#160;&#160;&#160;&#160;&#160;&#160;&#160;&#160;&#160;&#160;&#160;&#160;&#160;&#160;&#160;&#160;&#160;&#160;&#160;&#160;&#160;&#160;&#160;&#160;&#160;&#160;&#160;&#160;&#160;&#160;</text>
<polygon fill="none" stroke="#99ccff" points="877.8198,-205 877.8198,-222 1008.8198,-222 1008.8198,-205 877.8198,-205"/>
<text text-anchor="start" x="880.6096" y="-210.2" font-family="Courier,monospace" font-size="11.00" fill="#000000">multipicklist(4099)</text>
<polygon fill="none" stroke="#99ccff" points="172.8198,-188 172.8198,-205 877.8198,-205 877.8198,-188 172.8198,-188"/>
<text text-anchor="start" x="175.8198" y="-193.2" font-family="Courier,monospace" font-size="11.00" fill="#000000"> &#160;&#160;&#160;&#160;&#160;&#160;&#160;&#160;&#160;&#160;&#160;&#160;&#160;&#160;&#160;&#160;&#160;&#160;&#160;&#160;&#160;&#160;&#160;&#160;&#160;&#160;&#160;&#160;&#160;&#160;&#160;&#160;&#160;&#160;&#160;&#160;&#160;&#160;&#160;&#160;IsDirect &#160;&#160;&#160;&#160;&#160;&#160;&#160;&#160;&#160;&#160;&#160;&#160;&#160;&#160;&#160;&#160;&#160;&#160;&#160;&#160;&#160;&#160;&#160;&#160;&#160;&#160;&#160;&#160;&#160;&#160;&#160;&#160;&#160;&#160;&#160;&#160;&#160;&#160;</text>
<polygon fill="none" stroke="#99ccff" points="877.8198,-188 877.8198,-205 1008.8198,-205 1008.8198,-188 877.8198,-188"/>
<text text-anchor="start" x="920.2161" y="-193.2" font-family="Courier,monospace" font-size="11.00" fill="#000000">boolean</text>
<polygon fill="none" stroke="#99ccff" points="172.8198,-171 172.8198,-188 877.8198,-188 877.8198,-171 172.8198,-171"/>
<text text-anchor="start" x="175.8198" y="-176.2" font-family="Courier,monospace" font-size="11.00" fill="#000000"> &#160;&#160;&#160;&#160;&#160;&#160;&#160;&#160;&#160;&#160;&#160;&#160;&#160;&#160;&#160;&#160;&#160;&#160;&#160;&#160;&#160;&#160;&#160;&#160;&#160;&#160;&#160;&#160;&#160;&#160;&#160;&#160;&#160;&#160;&#160;&#160;&#160;&#160;&#160;&#160;IsActive &#160;&#160;&#160;&#160;&#160;&#160;&#160;&#160;&#160;&#160;&#160;&#160;&#160;&#160;&#160;&#160;&#160;&#160;&#160;&#160;&#160;&#160;&#160;&#160;&#160;&#160;&#160;&#160;&#160;&#160;&#160;&#160;&#160;&#160;&#160;&#160;&#160;&#160;</text>
<polygon fill="none" stroke="#99ccff" points="877.8198,-171 877.8198,-188 1008.8198,-188 1008.8198,-171 877.8198,-171"/>
<text text-anchor="start" x="920.2161" y="-176.2" font-family="Courier,monospace" font-size="11.00" fill="#000000">boolean</text>
<polygon fill="none" stroke="#99ccff" points="172.8198,-154 172.8198,-171 877.8198,-171 877.8198,-154 172.8198,-154"/>
<text text-anchor="start" x="175.8198" y="-159.2" font-family="Courier,monospace" font-size="11.00" fill="#000000"> &#160;&#160;&#160;&#160;&#160;&#160;&#160;&#160;&#160;&#160;&#160;&#160;&#160;&#160;&#160;&#160;&#160;&#160;&#160;&#160;&#160;&#160;&#160;&#160;&#160;&#160;&#160;&#160;&#160;&#160;&#160;&#160;&#160;&#160;&#160;&#160;&#160;&#160;&#160;&#160;StartDate &#160;&#160;&#160;&#160;&#160;&#160;&#160;&#160;&#160;&#160;&#160;&#160;&#160;&#160;&#160;&#160;&#160;&#160;&#160;&#160;&#160;&#160;&#160;&#160;&#160;&#160;&#160;&#160;&#160;&#160;&#160;&#160;&#160;&#160;&#160;&#160;&#160;&#160;</text>
<polygon fill="none" stroke="#99ccff" points="877.8198,-154 877.8198,-171 1008.8198,-171 1008.8198,-154 877.8198,-154"/>
<text text-anchor="start" x="930.1177" y="-159.2" font-family="Courier,monospace" font-size="11.00" fill="#000000">date</text>
<polygon fill="none" stroke="#99ccff" points="172.8198,-137 172.8198,-154 877.8198,-154 877.8198,-137 172.8198,-137"/>
<text text-anchor="start" x="175.8198" y="-142.2" font-family="Courier,monospace" font-size="11.00" fill="#000000"> &#160;&#160;&#160;&#160;&#160;&#160;&#160;&#160;&#160;&#160;&#160;&#160;&#160;&#160;&#160;&#160;&#160;&#160;&#160;&#160;&#160;&#160;&#160;&#160;&#160;&#160;&#160;&#160;&#160;&#160;&#160;&#160;&#160;&#160;&#160;&#160;&#160;&#160;&#160;&#160;EndDate &#160;&#160;&#160;&#160;&#160;&#160;&#160;&#160;&#160;&#160;&#160;&#160;&#160;&#160;&#160;&#160;&#160;&#160;&#160;&#160;&#160;&#160;&#160;&#160;&#160;&#160;&#160;&#160;&#160;&#160;&#160;&#160;&#160;&#160;&#160;&#160;&#160;&#160;</text>
<polygon fill="none" stroke="#99ccff" points="877.8198,-137 877.8198,-154 1008.8198,-154 1008.8198,-137 877.8198,-137"/>
<text text-anchor="start" x="930.1177" y="-142.2" font-family="Courier,monospace" font-size="11.00" fill="#000000">date</text>
<polygon fill="none" stroke="#99ccff" points="172.8198,-120 172.8198,-137 877.8198,-137 877.8198,-120 172.8198,-120"/>
<text text-anchor="start" x="175.8198" y="-125.2" font-family="Courier,monospace" font-size="11.00" fill="#000000"> &#160;&#160;&#160;&#160;&#160;&#160;&#160;&#160;&#160;&#160;&#160;&#160;&#160;&#160;&#160;&#160;&#160;&#160;&#160;&#160;&#160;&#160;&#160;&#160;&#160;&#160;&#160;&#160;&#160;&#160;&#160;&#160;&#160;&#160;&#160;&#160;&#160;&#160;&#160;&#160;IsDeleted &#160;&#160;&#160;&#160;&#160;&#160;&#160;&#160;&#160;&#160;&#160;&#160;&#160;&#160;&#160;&#160;&#160;&#160;&#160;&#160;&#160;&#160;&#160;&#160;&#160;&#160;&#160;&#160;&#160;&#160;&#160;&#160;&#160;&#160;&#160;&#160;&#160;&#160;</text>
<polygon fill="none" stroke="#99ccff" points="877.8198,-120 877.8198,-137 1008.8198,-137 1008.8198,-120 877.8198,-120"/>
<text text-anchor="start" x="920.2161" y="-125.2" font-family="Courier,monospace" font-size="11.00" fill="#000000">boolean</text>
<polygon fill="none" stroke="#99ccff" points="172.8198,-103 172.8198,-120 877.8198,-120 877.8198,-103 172.8198,-103"/>
<text text-anchor="start" x="175.8198" y="-108.2" font-family="Courier,monospace" font-size="11.00" fill="#000000"> &#160;&#160;&#160;&#160;&#160;&#160;&#160;&#160;&#160;&#160;&#160;&#160;&#160;&#160;&#160;&#160;&#160;&#160;&#160;&#160;&#160;&#160;&#160;&#160;&#160;&#160;&#160;&#160;&#160;&#160;&#160;&#160;&#160;&#160;&#160;&#160;&#160;&#160;&#160;&#160;LastModifiedById &#160;&#160;&#160;&#160;&#160;&#160;&#160;&#160;&#160;&#160;&#160;&#160;&#160;&#160;&#160;&#160;&#160;&#160;&#160;&#160;&#160;&#160;&#160;&#160;&#160;&#160;&#160;&#160;&#160;&#160;&#160;&#160;&#160;&#160;&#160;&#160;&#160;&#160;</text>
<polygon fill="none" stroke="#99ccff" points="877.8198,-103 877.8198,-120 1008.8198,-120 1008.8198,-103 877.8198,-103"/>
<text text-anchor="start" x="900.4128" y="-108.2" font-family="Courier,monospace" font-size="11.00" fill="#000000">reference(18)</text>
<polygon fill="none" stroke="#99ccff" points="172.8198,-86 172.8198,-103 877.8198,-103 877.8198,-86 172.8198,-86"/>
<text text-anchor="start" x="175.8198" y="-91.2" font-family="Courier,monospace" font-size="11.00" fill="#000000"> &#160;&#160;&#160;&#160;&#160;&#160;&#160;&#160;&#160;&#160;&#160;&#160;&#160;&#160;&#160;&#160;&#160;&#160;&#160;&#160;&#160;&#160;&#160;&#160;&#160;&#160;&#160;&#160;&#160;&#160;&#160;&#160;&#160;&#160;&#160;&#160;&#160;&#160;&#160;&#160;FinServ__Primary__c &#160;&#160;&#160;&#160;&#160;&#160;&#160;&#160;&#160;&#160;&#160;&#160;&#160;&#160;&#160;&#160;&#160;&#160;&#160;&#160;&#160;&#160;&#160;&#160;&#160;&#160;&#160;&#160;&#160;&#160;&#160;&#160;&#160;&#160;&#160;&#160;&#160;&#160;</text>
<polygon fill="none" stroke="#99ccff" points="877.8198,-86 877.8198,-103 1008.8198,-103 1008.8198,-86 877.8198,-86"/>
<text text-anchor="start" x="920.2161" y="-91.2" font-family="Courier,monospace" font-size="11.00" fill="#000000">boolean</text>
<polygon fill="none" stroke="#99ccff" points="172.8198,-69 172.8198,-86 877.8198,-86 877.8198,-69 172.8198,-69"/>
<text text-anchor="start" x="175.8198" y="-74.2" font-family="Courier,monospace" font-size="11.00" fill="#000000"> &#160;&#160;&#160;&#160;&#160;&#160;&#160;&#160;&#160;&#160;&#160;&#160;&#160;&#160;&#160;&#160;&#160;&#160;&#160;&#160;&#160;&#160;&#160;&#160;&#160;&#160;&#160;&#160;&#160;&#160;&#160;&#160;&#160;&#160;&#160;&#160;&#160;&#160;&#160;&#160;FinServ__Rollups__c &#160;&#160;&#160;&#160;&#160;&#160;&#160;&#160;&#160;&#160;&#160;&#160;&#160;&#160;&#160;&#160;&#160;&#160;&#160;&#160;&#160;&#160;&#160;&#160;&#160;&#160;&#160;&#160;&#160;&#160;&#160;&#160;&#160;&#160;&#160;&#160;&#160;&#160;</text>
<polygon fill="none" stroke="#99ccff" points="877.8198,-69 877.8198,-86 1008.8198,-86 1008.8198,-69 877.8198,-69"/>
<text text-anchor="start" x="880.6096" y="-74.2" font-family="Courier,monospace" font-size="11.00" fill="#000000">multipicklist(4099)</text>
<polygon fill="none" stroke="#99ccff" points="172.8198,-52 172.8198,-69 877.8198,-69 877.8198,-52 172.8198,-52"/>
<text text-anchor="start" x="175.4629" y="-57.2" font-family="Courier,monospace" font-size="11.00" fill="#000000"> &#160;&#160;&#160;&#160;&#160;&#160;&#160;&#160;&#160;&#160;&#160;&#160;&#160;&#160;&#160;&#160;&#160;&#160;&#160;&#160;&#160;&#160;&#160;&#160;&#160;&#160;&#160;&#160;&#160;&#160;&#160;&#160;&#160;&#160;&#160;&#160;&#160;&#160;&#160;&#160;FinServ__SourceSystemId__c &#160;&#160;&#160;&#160;&#160;&#160;&#160;&#160;&#160;&#160;&#160;&#160;&#160;&#160;&#160;&#160;&#160;&#160;&#160;&#160;&#160;&#160;&#160;&#160;&#160;&#160;&#160;&#160;&#160;&#160;&#160;&#160;&#160;&#160;&#160;&#160;&#160;&#160;</text>
<polygon fill="none" stroke="#99ccff" points="877.8198,-52 877.8198,-69 1008.8198,-69 1008.8198,-52 877.8198,-52"/>
<text text-anchor="start" x="907.0139" y="-57.2" font-family="Courier,monospace" font-size="11.00" fill="#000000">string(100)</text>
<polygon fill="none" stroke="#99ccff" points="172.8198,-35 172.8198,-52 877.8198,-52 877.8198,-35 172.8198,-35"/>
<text text-anchor="start" x="175.4629" y="-40.2" font-family="Courier,monospace" font-size="11.00" fill="#000000"> &#160;&#160;&#160;&#160;&#160;&#160;&#160;&#160;&#160;&#160;&#160;&#160;&#160;&#160;&#160;&#160;&#160;&#160;&#160;&#160;&#160;&#160;&#160;&#160;&#160;&#160;&#160;&#160;&#160;&#160;&#160;&#160;&#160;&#160;&#160;&#160;&#160;&#160;&#160;&#160;FinServ__IncludeInGroup__c &#160;&#160;&#160;&#160;&#160;&#160;&#160;&#160;&#160;&#160;&#160;&#160;&#160;&#160;&#160;&#160;&#160;&#160;&#160;&#160;&#160;&#160;&#160;&#160;&#160;&#160;&#160;&#160;&#160;&#160;&#160;&#160;&#160;&#160;&#160;&#160;&#160;&#160;</text>
<polygon fill="none" stroke="#99ccff" points="877.8198,-35 877.8198,-52 1008.8198,-52 1008.8198,-35 877.8198,-35"/>
<text text-anchor="start" x="920.2161" y="-40.2" font-family="Courier,monospace" font-size="11.00" fill="#000000">boolean</text>
<polygon fill="none" stroke="#99ccff" points="172.8198,-18 172.8198,-35 877.8198,-35 877.8198,-18 172.8198,-18"/>
<text text-anchor="start" x="175.8198" y="-23.2" font-family="Courier,monospace" font-size="11.00" fill="#000000"> &#160;&#160;&#160;&#160;&#160;&#160;&#160;&#160;&#160;&#160;&#160;&#160;&#160;&#160;&#160;&#160;&#160;&#160;&#160;&#160;&#160;&#160;&#160;&#160;&#160;&#160;&#160;&#160;&#160;&#160;&#160;&#160;&#160;&#160;&#160;&#160;&#160;&#160;&#160;&#160;FinServ__PrimaryGroup__c &#160;&#160;&#160;&#160;&#160;&#160;&#160;&#160;&#160;&#160;&#160;&#160;&#160;&#160;&#160;&#160;&#160;&#160;&#160;&#160;&#160;&#160;&#160;&#160;&#160;&#160;&#160;&#160;&#160;&#160;&#160;&#160;&#160;&#160;&#160;&#160;&#160;&#160;</text>
<polygon fill="none" stroke="#99ccff" points="877.8198,-18 877.8198,-35 1008.8198,-35 1008.8198,-18 877.8198,-18"/>
<text text-anchor="start" x="920.2161" y="-23.2" font-family="Courier,monospace" font-size="11.00" fill="#000000">boolean</text>
<polygon fill="none" stroke="#99ccff" points="171.8198,-17 171.8198,-291 1009.8198,-291 1009.8198,-17 171.8198,-17"/>
</a>
</g>
</g>
<!-- Account -->
<g id="node2" class="node">
<title>Account</title>
<text text-anchor="middle" x="31.1038" y="-260.7" font-family="Courier,monospace" font-size="11.00" fill="#000000">Account</text>
</g>
<!-- AccountContactRelation&#45;&gt;Account -->
<g id="edge1" class="edge">
<title>AccountContactRelation:w&#45;&gt;Account:e</title>
<path fill="none" stroke="#ff99cc" d="M158.2595,-248.2594C123.8768,-249.4381 87.2886,-254.4053 62.2309,-258.4489"/>
<polygon fill="#ff99cc" stroke="#ff99cc" points="164.8211,-248.1426 172.884,-251.5994 168.8205,-248.0713 172.8198,-248 172.8198,-248 172.8198,-248 168.8205,-248.0713 172.7557,-244.4006 164.8211,-248.1426 164.8211,-248.1426"/>
<ellipse fill="none" stroke="#ff99cc" cx="161.6216" cy="-248.1996" rx="3.2" ry="3.2"/>
<text text-anchor="middle" x="117.0137" y="-259.8015" font-family="Monaco" font-size="9.00" fill="#000000">Account</text>
</g>
<!-- Contact -->
<g id="node3" class="node">
<title>Contact</title>
<text text-anchor="middle" x="31.1038" y="-211.7" font-family="Courier,monospace" font-size="11.00" fill="#000000">Contact</text>
</g>
<!-- AccountContactRelation&#45;&gt;Contact -->
<g id="edge2" class="edge">
<title>AccountContactRelation:w&#45;&gt;Contact:e</title>
<path fill="none" stroke="#ff99cc" d="M158.2595,-230.7406C123.8768,-229.5619 87.2886,-224.5947 62.2309,-220.5511"/>
<polygon fill="#ff99cc" stroke="#ff99cc" points="164.8211,-230.8574 172.7557,-234.5994 168.8205,-230.9287 172.8198,-231 172.8198,-231 172.8198,-231 168.8205,-230.9287 172.884,-227.4006 164.8211,-230.8574 164.8211,-230.8574"/>
<ellipse fill="none" stroke="#ff99cc" cx="161.6216" cy="-230.8004" rx="3.2" ry="3.2"/>
<text text-anchor="middle" x="117.0137" y="-234.8015" font-family="Monaco" font-size="9.00" fill="#000000">Contact</text>
</g>
<!-- User -->
<g id="node4" class="node">
<title>User</title>
<text text-anchor="middle" x="31.1038" y="-107.7" font-family="Courier,monospace" font-size="11.00" fill="#000000">User</text>
</g>
<!-- AccountContactRelation&#45;&gt;User -->
<g id="edge3" class="edge">
<title>AccountContactRelation:w&#45;&gt;User:e</title>
<path fill="none" stroke="#ff99cc" d="M158.1054,-111C122.0406,-111 83.3445,-111 58.2717,-111"/>
<polygon fill="#ff99cc" stroke="#ff99cc" points="164.8198,-111.0001 172.8198,-114.6 168.8198,-111 172.8198,-111 172.8198,-111 172.8198,-111 168.8198,-111 172.8198,-107.4 164.8198,-111.0001 164.8198,-111.0001"/>
<ellipse fill="none" stroke="#ff99cc" cx="161.6198" cy="-111.0001" rx="3.2" ry="3.2"/>
<text text-anchor="middle" x="117.0137" y="-115.8015" font-family="Monaco" font-size="9.00" fill="#000000">LastModifiedBy</text>
</g>
</g>
</svg>
