<?xml version="1.0" encoding="UTF-8" standalone="no"?>
<!DOCTYPE svg PUBLIC "-//W3C//DTD SVG 1.1//EN"
 "http://www.w3.org/Graphics/SVG/1.1/DTD/svg11.dtd">
<!-- Generated by graphviz version 2.40.1 (20161225.0304)
 -->
<!-- Title: Salesforce+ ERD Pages: 1 -->
<svg width="952pt" height="215pt"
 viewBox="0.00 0.00 951.82 214.50" xmlns="http://www.w3.org/2000/svg" xmlns:xlink="http://www.w3.org/1999/xlink">
<g id="graph0" class="graph" transform="scale(1 1) rotate(0) translate(4 210.5)">
<title>Salesforce+ ERD</title>
<polygon fill="#efeffd" stroke="transparent" points="-4,4 -4,-210.5 947.8198,-210.5 947.8198,4 -4,4"/>
<text text-anchor="middle" x="895.3132" y="-5.8" font-family="Courier,monospace" font-size="9.00" fill="#000000">Salesforce ERD </text>
<!-- AccountShare -->
<g id="node1" class="node">
<title>AccountShare</title>
<g id="a_node1"><a xlink:href="#" xlink:title=" AccountShare ">
<polygon fill="#ffeeff" stroke="transparent" points="171.8198,-17 171.8198,-206 943.8198,-206 943.8198,-17 171.8198,-17"/>
<polygon fill="#add8e6" stroke="transparent" points="172.8198,-187.5 172.8198,-204.5 942.8198,-204.5 942.8198,-187.5 172.8198,-187.5"/>
<polygon fill="none" stroke="#99ccff" points="172.8198,-187.5 172.8198,-204.5 942.8198,-204.5 942.8198,-187.5 172.8198,-187.5"/>
<text text-anchor="start" x="518.2134" y="-193.7" font-family="Courier,monospace" font-weight="bold" font-size="11.00" fill="#000000">AccountShare</text>
<polygon fill="#99ccff" stroke="transparent" points="172.8198,-170.5 172.8198,-187.5 851.8198,-187.5 851.8198,-170.5 172.8198,-170.5"/>
<polygon fill="none" stroke="#99ccff" points="172.8198,-170.5 172.8198,-187.5 851.8198,-187.5 851.8198,-170.5 172.8198,-170.5"/>
<text text-anchor="start" x="175.8198" y="-176.7" font-family="Courier,monospace" font-size="11.00" fill="#000000"> &#160;&#160;&#160;&#160;&#160;&#160;&#160;&#160;&#160;&#160;&#160;&#160;&#160;&#160;&#160;&#160;&#160;&#160;&#160;&#160;&#160;&#160;&#160;&#160;&#160;&#160;&#160;&#160;&#160;&#160;&#160;&#160;&#160;&#160;&#160;&#160;&#160;&#160;&#160;&#160;&#160;&#160;</text>
<text text-anchor="start" x="459.666" y="-176.7" font-family="Courier,monospace" font-weight="bold" font-size="11.00" fill="#000000">Id</text>
<text text-anchor="start" x="472.8682" y="-176.7" font-family="Courier,monospace" font-size="11.00" fill="#000000"> &#160;&#160;&#160;&#160;&#160;&#160;&#160;&#160;&#160;&#160;&#160;&#160;&#160;&#160;&#160;&#160;&#160;&#160;&#160;&#160;&#160;&#160;&#160;&#160;&#160;&#160;&#160;&#160;&#160;&#160;&#160;&#160;&#160;&#160;&#160;&#160;&#160;&#160;&#160;</text>
<polygon fill="none" stroke="#99ccff" points="851.8198,-170.5 851.8198,-187.5 942.8198,-187.5 942.8198,-170.5 851.8198,-170.5"/>
<text text-anchor="start" x="877.5166" y="-175.7" font-family="Courier,monospace" font-size="11.00" fill="#000000">id(18)</text>
<polygon fill="none" stroke="#99ccff" points="172.8198,-153.5 172.8198,-170.5 851.8198,-170.5 851.8198,-153.5 172.8198,-153.5"/>
<text text-anchor="start" x="175.8198" y="-158.7" font-family="Courier,monospace" font-size="11.00" fill="#000000"> &#160;&#160;&#160;&#160;&#160;&#160;&#160;&#160;&#160;&#160;&#160;&#160;&#160;&#160;&#160;&#160;&#160;&#160;&#160;&#160;&#160;&#160;&#160;&#160;&#160;&#160;&#160;&#160;&#160;&#160;&#160;&#160;&#160;&#160;&#160;&#160;&#160;&#160;&#160;&#160;AccountId &#160;&#160;&#160;&#160;&#160;&#160;&#160;&#160;&#160;&#160;&#160;&#160;&#160;&#160;&#160;&#160;&#160;&#160;&#160;&#160;&#160;&#160;&#160;&#160;&#160;&#160;&#160;&#160;&#160;&#160;&#160;&#160;&#160;&#160;&#160;&#160;&#160;&#160;</text>
<polygon fill="none" stroke="#99ccff" points="851.8198,-153.5 851.8198,-170.5 942.8198,-170.5 942.8198,-153.5 851.8198,-153.5"/>
<text text-anchor="start" x="854.4128" y="-158.7" font-family="Courier,monospace" font-size="11.00" fill="#000000">reference(18)</text>
<polygon fill="none" stroke="#99ccff" points="172.8198,-136.5 172.8198,-153.5 851.8198,-153.5 851.8198,-136.5 172.8198,-136.5"/>
<text text-anchor="start" x="175.8198" y="-141.7" font-family="Courier,monospace" font-size="11.00" fill="#000000"> &#160;&#160;&#160;&#160;&#160;&#160;&#160;&#160;&#160;&#160;&#160;&#160;&#160;&#160;&#160;&#160;&#160;&#160;&#160;&#160;&#160;&#160;&#160;&#160;&#160;&#160;&#160;&#160;&#160;&#160;&#160;&#160;&#160;&#160;&#160;&#160;&#160;&#160;&#160;&#160;UserOrGroupId &#160;&#160;&#160;&#160;&#160;&#160;&#160;&#160;&#160;&#160;&#160;&#160;&#160;&#160;&#160;&#160;&#160;&#160;&#160;&#160;&#160;&#160;&#160;&#160;&#160;&#160;&#160;&#160;&#160;&#160;&#160;&#160;&#160;&#160;&#160;&#160;&#160;&#160;</text>
<polygon fill="none" stroke="#99ccff" points="851.8198,-136.5 851.8198,-153.5 942.8198,-153.5 942.8198,-136.5 851.8198,-136.5"/>
<text text-anchor="start" x="854.4128" y="-141.7" font-family="Courier,monospace" font-size="11.00" fill="#000000">reference(18)</text>
<polygon fill="none" stroke="#99ccff" points="172.8198,-119.5 172.8198,-136.5 851.8198,-136.5 851.8198,-119.5 172.8198,-119.5"/>
<text text-anchor="start" x="175.8198" y="-124.7" font-family="Courier,monospace" font-size="11.00" fill="#000000"> &#160;&#160;&#160;&#160;&#160;&#160;&#160;&#160;&#160;&#160;&#160;&#160;&#160;&#160;&#160;&#160;&#160;&#160;&#160;&#160;&#160;&#160;&#160;&#160;&#160;&#160;&#160;&#160;&#160;&#160;&#160;&#160;&#160;&#160;&#160;&#160;&#160;&#160;&#160;&#160;AccountAccessLevel &#160;&#160;&#160;&#160;&#160;&#160;&#160;&#160;&#160;&#160;&#160;&#160;&#160;&#160;&#160;&#160;&#160;&#160;&#160;&#160;&#160;&#160;&#160;&#160;&#160;&#160;&#160;&#160;&#160;&#160;&#160;&#160;&#160;&#160;&#160;&#160;&#160;&#160;</text>
<polygon fill="none" stroke="#99ccff" points="851.8198,-119.5 851.8198,-136.5 942.8198,-136.5 942.8198,-119.5 851.8198,-119.5"/>
<text text-anchor="start" x="857.7134" y="-124.7" font-family="Courier,monospace" font-size="11.00" fill="#000000">picklist(40)</text>
<polygon fill="none" stroke="#99ccff" points="172.8198,-102.5 172.8198,-119.5 851.8198,-119.5 851.8198,-102.5 172.8198,-102.5"/>
<text text-anchor="start" x="175.665" y="-107.7" font-family="Courier,monospace" font-size="11.00" fill="#000000"> &#160;&#160;&#160;&#160;&#160;&#160;&#160;&#160;&#160;&#160;&#160;&#160;&#160;&#160;&#160;&#160;&#160;&#160;&#160;&#160;&#160;&#160;&#160;&#160;&#160;&#160;&#160;&#160;&#160;&#160;&#160;&#160;&#160;&#160;&#160;&#160;&#160;&#160;&#160;&#160;OpportunityAccessLevel &#160;&#160;&#160;&#160;&#160;&#160;&#160;&#160;&#160;&#160;&#160;&#160;&#160;&#160;&#160;&#160;&#160;&#160;&#160;&#160;&#160;&#160;&#160;&#160;&#160;&#160;&#160;&#160;&#160;&#160;&#160;&#160;&#160;&#160;&#160;&#160;&#160;&#160;</text>
<polygon fill="none" stroke="#99ccff" points="851.8198,-102.5 851.8198,-119.5 942.8198,-119.5 942.8198,-102.5 851.8198,-102.5"/>
<text text-anchor="start" x="857.7134" y="-107.7" font-family="Courier,monospace" font-size="11.00" fill="#000000">picklist(40)</text>
<polygon fill="none" stroke="#99ccff" points="172.8198,-85.5 172.8198,-102.5 851.8198,-102.5 851.8198,-85.5 172.8198,-85.5"/>
<text text-anchor="start" x="175.8198" y="-90.7" font-family="Courier,monospace" font-size="11.00" fill="#000000"> &#160;&#160;&#160;&#160;&#160;&#160;&#160;&#160;&#160;&#160;&#160;&#160;&#160;&#160;&#160;&#160;&#160;&#160;&#160;&#160;&#160;&#160;&#160;&#160;&#160;&#160;&#160;&#160;&#160;&#160;&#160;&#160;&#160;&#160;&#160;&#160;&#160;&#160;&#160;&#160;CaseAccessLevel &#160;&#160;&#160;&#160;&#160;&#160;&#160;&#160;&#160;&#160;&#160;&#160;&#160;&#160;&#160;&#160;&#160;&#160;&#160;&#160;&#160;&#160;&#160;&#160;&#160;&#160;&#160;&#160;&#160;&#160;&#160;&#160;&#160;&#160;&#160;&#160;&#160;&#160;</text>
<polygon fill="none" stroke="#99ccff" points="851.8198,-85.5 851.8198,-102.5 942.8198,-102.5 942.8198,-85.5 851.8198,-85.5"/>
<text text-anchor="start" x="857.7134" y="-90.7" font-family="Courier,monospace" font-size="11.00" fill="#000000">picklist(40)</text>
<polygon fill="none" stroke="#99ccff" points="172.8198,-68.5 172.8198,-85.5 851.8198,-85.5 851.8198,-68.5 172.8198,-68.5"/>
<text text-anchor="start" x="175.8198" y="-73.7" font-family="Courier,monospace" font-size="11.00" fill="#000000"> &#160;&#160;&#160;&#160;&#160;&#160;&#160;&#160;&#160;&#160;&#160;&#160;&#160;&#160;&#160;&#160;&#160;&#160;&#160;&#160;&#160;&#160;&#160;&#160;&#160;&#160;&#160;&#160;&#160;&#160;&#160;&#160;&#160;&#160;&#160;&#160;&#160;&#160;&#160;&#160;ContactAccessLevel &#160;&#160;&#160;&#160;&#160;&#160;&#160;&#160;&#160;&#160;&#160;&#160;&#160;&#160;&#160;&#160;&#160;&#160;&#160;&#160;&#160;&#160;&#160;&#160;&#160;&#160;&#160;&#160;&#160;&#160;&#160;&#160;&#160;&#160;&#160;&#160;&#160;&#160;</text>
<polygon fill="none" stroke="#99ccff" points="851.8198,-68.5 851.8198,-85.5 942.8198,-85.5 942.8198,-68.5 851.8198,-68.5"/>
<text text-anchor="start" x="857.7134" y="-73.7" font-family="Courier,monospace" font-size="11.00" fill="#000000">picklist(40)</text>
<polygon fill="none" stroke="#99ccff" points="172.8198,-51.5 172.8198,-68.5 851.8198,-68.5 851.8198,-51.5 172.8198,-51.5"/>
<text text-anchor="start" x="175.8198" y="-56.7" font-family="Courier,monospace" font-size="11.00" fill="#000000"> &#160;&#160;&#160;&#160;&#160;&#160;&#160;&#160;&#160;&#160;&#160;&#160;&#160;&#160;&#160;&#160;&#160;&#160;&#160;&#160;&#160;&#160;&#160;&#160;&#160;&#160;&#160;&#160;&#160;&#160;&#160;&#160;&#160;&#160;&#160;&#160;&#160;&#160;&#160;&#160;RowCause &#160;&#160;&#160;&#160;&#160;&#160;&#160;&#160;&#160;&#160;&#160;&#160;&#160;&#160;&#160;&#160;&#160;&#160;&#160;&#160;&#160;&#160;&#160;&#160;&#160;&#160;&#160;&#160;&#160;&#160;&#160;&#160;&#160;&#160;&#160;&#160;&#160;&#160;</text>
<polygon fill="none" stroke="#99ccff" points="851.8198,-51.5 851.8198,-68.5 942.8198,-68.5 942.8198,-51.5 851.8198,-51.5"/>
<text text-anchor="start" x="857.7134" y="-56.7" font-family="Courier,monospace" font-size="11.00" fill="#000000">picklist(40)</text>
<polygon fill="none" stroke="#99ccff" points="172.8198,-34.5 172.8198,-51.5 851.8198,-51.5 851.8198,-34.5 172.8198,-34.5"/>
<text text-anchor="start" x="175.8198" y="-39.7" font-family="Courier,monospace" font-size="11.00" fill="#000000"> &#160;&#160;&#160;&#160;&#160;&#160;&#160;&#160;&#160;&#160;&#160;&#160;&#160;&#160;&#160;&#160;&#160;&#160;&#160;&#160;&#160;&#160;&#160;&#160;&#160;&#160;&#160;&#160;&#160;&#160;&#160;&#160;&#160;&#160;&#160;&#160;&#160;&#160;&#160;&#160;LastModifiedById &#160;&#160;&#160;&#160;&#160;&#160;&#160;&#160;&#160;&#160;&#160;&#160;&#160;&#160;&#160;&#160;&#160;&#160;&#160;&#160;&#160;&#160;&#160;&#160;&#160;&#160;&#160;&#160;&#160;&#160;&#160;&#160;&#160;&#160;&#160;&#160;&#160;&#160;</text>
<polygon fill="none" stroke="#99ccff" points="851.8198,-34.5 851.8198,-51.5 942.8198,-51.5 942.8198,-34.5 851.8198,-34.5"/>
<text text-anchor="start" x="854.4128" y="-39.7" font-family="Courier,monospace" font-size="11.00" fill="#000000">reference(18)</text>
<polygon fill="none" stroke="#99ccff" points="172.8198,-17.5 172.8198,-34.5 851.8198,-34.5 851.8198,-17.5 172.8198,-17.5"/>
<text text-anchor="start" x="175.8198" y="-22.7" font-family="Courier,monospace" font-size="11.00" fill="#000000"> &#160;&#160;&#160;&#160;&#160;&#160;&#160;&#160;&#160;&#160;&#160;&#160;&#160;&#160;&#160;&#160;&#160;&#160;&#160;&#160;&#160;&#160;&#160;&#160;&#160;&#160;&#160;&#160;&#160;&#160;&#160;&#160;&#160;&#160;&#160;&#160;&#160;&#160;&#160;&#160;IsDeleted &#160;&#160;&#160;&#160;&#160;&#160;&#160;&#160;&#160;&#160;&#160;&#160;&#160;&#160;&#160;&#160;&#160;&#160;&#160;&#160;&#160;&#160;&#160;&#160;&#160;&#160;&#160;&#160;&#160;&#160;&#160;&#160;&#160;&#160;&#160;&#160;&#160;&#160;</text>
<polygon fill="none" stroke="#99ccff" points="851.8198,-17.5 851.8198,-34.5 942.8198,-34.5 942.8198,-17.5 851.8198,-17.5"/>
<text text-anchor="start" x="874.2161" y="-22.7" font-family="Courier,monospace" font-size="11.00" fill="#000000">boolean</text>
<polygon fill="none" stroke="#99ccff" points="171.8198,-17 171.8198,-206 943.8198,-206 943.8198,-17 171.8198,-17"/>
</a>
</g>
</g>
<!-- Account -->
<g id="node2" class="node">
<title>Account</title>
<text text-anchor="middle" x="31.1038" y="-185.2" font-family="Courier,monospace" font-size="11.00" fill="#000000">Account</text>
</g>
<!-- AccountShare&#45;&gt;Account -->
<g id="edge1" class="edge">
<title>AccountShare:w&#45;&gt;Account:e</title>
<path fill="none" stroke="#ff99cc" d="M158.1816,-162.9189C123.6668,-164.8223 87.2744,-172.846 62.3229,-179.4065"/>
<polygon fill="#ff99cc" stroke="#ff99cc" points="164.8231,-162.7289 172.9228,-166.0985 168.8215,-162.6145 172.8198,-162.5 172.8198,-162.5 172.8198,-162.5 168.8215,-162.6145 172.7168,-158.9015 164.8231,-162.7289 164.8231,-162.7289"/>
<ellipse fill="none" stroke="#ff99cc" cx="161.6244" cy="-162.8205" rx="3.2" ry="3.2"/>
<text text-anchor="middle" x="117.0137" y="-179.3015" font-family="Monaco" font-size="9.00" fill="#000000">Account</text>
</g>
<!-- Group -->
<g id="node3" class="node">
<title>Group</title>
<text text-anchor="middle" x="31.1038" y="-136.2" font-family="Courier,monospace" font-size="11.00" fill="#000000">Group</text>
</g>
<!-- AccountShare&#45;&gt;Group -->
<g id="edge2" class="edge">
<title>AccountShare:w&#45;&gt;Group:e</title>
<path fill="none" stroke="#ff99cc" d="M158.0944,-145.3997C122.0073,-144.9275 83.3197,-142.8836 58.2572,-141.3328"/>
<polygon fill="#ff99cc" stroke="#ff99cc" points="164.82,-145.4455 172.7953,-149.0999 168.8199,-145.4727 172.8198,-145.5 172.8198,-145.5 172.8198,-145.5 168.8199,-145.4727 172.8444,-141.9001 164.82,-145.4455 164.82,-145.4455"/>
<ellipse fill="none" stroke="#ff99cc" cx="161.6201" cy="-145.4236" rx="3.2" ry="3.2"/>
<text text-anchor="middle" x="117.0137" y="-149.3015" font-family="Monaco" font-size="9.00" fill="#000000">UserOrGroup</text>
</g>
<!-- User -->
<g id="node4" class="node">
<title>User</title>
<text text-anchor="middle" x="31.1038" y="-67.2" font-family="Courier,monospace" font-size="11.00" fill="#000000">User</text>
</g>
<!-- AccountShare&#45;&gt;User -->
<g id="edge3" class="edge">
<title>AccountShare:w&#45;&gt;User:e</title>
<path fill="none" stroke="#ff99cc" d="M161.6113,-136.0369C160.1113,-133.0621 158.3009,-129.9242 154.8198,-127.4985 124.1638,-106.137 84.2229,-89.4317 58.1355,-79.7721"/>
<polygon fill="#ff99cc" stroke="#ff99cc" points="166.7071,-140.3391 170.4974,-148.2507 169.7634,-142.9196 172.8198,-145.5 172.8198,-145.5 172.8198,-145.5 169.7634,-142.9196 175.1422,-142.7493 166.7071,-140.3391 166.7071,-140.3391"/>
<ellipse fill="none" stroke="#ff99cc" cx="164.262" cy="-138.2748" rx="3.2" ry="3.2"/>
<text text-anchor="middle" x="117.0137" y="-131.3015" font-family="Monaco" font-size="9.00" fill="#000000">UserOrGroup</text>
</g>
<!-- AccountShare&#45;&gt;User -->
<g id="edge4" class="edge">
<title>AccountShare:w&#45;&gt;User:e</title>
<path fill="none" stroke="#ff99cc" d="M158.399,-42.9365C121.823,-45.0717 83.201,-54.6076 58.2223,-61.8706"/>
<polygon fill="#ff99cc" stroke="#ff99cc" points="164.8235,-42.7421 172.9288,-46.0984 168.8217,-42.621 172.8198,-42.5 172.8198,-42.5 172.8198,-42.5 168.8217,-42.621 172.7109,-38.9016 164.8235,-42.7421 164.8235,-42.7421"/>
<ellipse fill="none" stroke="#ff99cc" cx="161.625" cy="-42.8389" rx="3.2" ry="3.2"/>
<text text-anchor="middle" x="117.0137" y="-60.3015" font-family="Monaco" font-size="9.00" fill="#000000">LastModifiedBy</text>
</g>
</g>
</svg>
