<?xml version="1.0" encoding="UTF-8" standalone="no"?>
<!DOCTYPE svg PUBLIC "-//W3C//DTD SVG 1.1//EN"
 "http://www.w3.org/Graphics/SVG/1.1/DTD/svg11.dtd">
<!-- Generated by graphviz version 2.40.1 (20161225.0304)
 -->
<!-- Title: Salesforce+ ERD Pages: 1 -->
<svg width="958pt" height="565pt"
 viewBox="0.00 0.00 957.82 565.00" xmlns="http://www.w3.org/2000/svg" xmlns:xlink="http://www.w3.org/1999/xlink">
<g id="graph0" class="graph" transform="scale(1 1) rotate(0) translate(4 561)">
<title>Salesforce+ ERD</title>
<polygon fill="#efeffd" stroke="transparent" points="-4,4 -4,-561 953.8218,-561 953.8218,4 -4,4"/>
<text text-anchor="middle" x="901.3152" y="-5.8" font-family="Courier,monospace" font-size="9.00" fill="#000000">Salesforce ERD </text>
<!-- Asset -->
<g id="node1" class="node">
<title>Asset</title>
<g id="a_node1"><a xlink:href="#" xlink:title=" Asset ">
<polygon fill="#ffeeff" stroke="transparent" points="183.8218,-17 183.8218,-495 949.8218,-495 949.8218,-17 183.8218,-17"/>
<polygon fill="#add8e6" stroke="transparent" points="184.8218,-477 184.8218,-494 948.8218,-494 948.8218,-477 184.8218,-477"/>
<polygon fill="none" stroke="#99ccff" points="184.8218,-477 184.8218,-494 948.8218,-494 948.8218,-477 184.8218,-477"/>
<text text-anchor="start" x="550.3191" y="-483.2" font-family="Courier,monospace" font-weight="bold" font-size="11.00" fill="#000000">Asset</text>
<polygon fill="#99ccff" stroke="transparent" points="184.8218,-460 184.8218,-477 843.8218,-477 843.8218,-460 184.8218,-460"/>
<polygon fill="none" stroke="#99ccff" points="184.8218,-460 184.8218,-477 843.8218,-477 843.8218,-460 184.8218,-460"/>
<text text-anchor="start" x="187.8218" y="-466.2" font-family="Courier,monospace" font-size="11.00" fill="#000000"> &#160;&#160;&#160;&#160;&#160;&#160;&#160;&#160;&#160;&#160;&#160;&#160;&#160;&#160;&#160;&#160;&#160;&#160;&#160;&#160;&#160;&#160;&#160;&#160;&#160;&#160;&#160;&#160;&#160;&#160;&#160;&#160;&#160;&#160;&#160;&#160;&#160;&#160;&#160;&#160;&#160;&#160;</text>
<text text-anchor="start" x="471.668" y="-466.2" font-family="Courier,monospace" font-weight="bold" font-size="11.00" fill="#000000">Id</text>
<text text-anchor="start" x="484.8701" y="-466.2" font-family="Courier,monospace" font-size="11.00" fill="#000000"> &#160;&#160;&#160;&#160;&#160;&#160;&#160;&#160;&#160;&#160;&#160;&#160;&#160;&#160;&#160;&#160;&#160;&#160;&#160;&#160;&#160;&#160;&#160;&#160;&#160;&#160;&#160;&#160;&#160;&#160;&#160;&#160;&#160;&#160;&#160;&#160;&#160;&#160;&#160;</text>
<polygon fill="none" stroke="#99ccff" points="843.8218,-460 843.8218,-477 948.8218,-477 948.8218,-460 843.8218,-460"/>
<text text-anchor="start" x="876.5186" y="-465.2" font-family="Courier,monospace" font-size="11.00" fill="#000000">id(18)</text>
<polygon fill="none" stroke="#99ccff" points="184.8218,-443 184.8218,-460 843.8218,-460 843.8218,-443 184.8218,-443"/>
<text text-anchor="start" x="187.8218" y="-448.2" font-family="Courier,monospace" font-size="11.00" fill="#000000"> &#160;&#160;&#160;&#160;&#160;&#160;&#160;&#160;&#160;&#160;&#160;&#160;&#160;&#160;&#160;&#160;&#160;&#160;&#160;&#160;&#160;&#160;&#160;&#160;&#160;&#160;&#160;&#160;&#160;&#160;&#160;&#160;&#160;&#160;&#160;&#160;&#160;&#160;&#160;&#160;ContactId &#160;&#160;&#160;&#160;&#160;&#160;&#160;&#160;&#160;&#160;&#160;&#160;&#160;&#160;&#160;&#160;&#160;&#160;&#160;&#160;&#160;&#160;&#160;&#160;&#160;&#160;&#160;&#160;&#160;&#160;&#160;&#160;&#160;&#160;&#160;&#160;&#160;&#160;</text>
<polygon fill="none" stroke="#99ccff" points="843.8218,-443 843.8218,-460 948.8218,-460 948.8218,-443 843.8218,-443"/>
<text text-anchor="start" x="853.4148" y="-448.2" font-family="Courier,monospace" font-size="11.00" fill="#000000">reference(18)</text>
<polygon fill="none" stroke="#99ccff" points="184.8218,-426 184.8218,-443 843.8218,-443 843.8218,-426 184.8218,-426"/>
<text text-anchor="start" x="187.8218" y="-431.2" font-family="Courier,monospace" font-size="11.00" fill="#000000"> &#160;&#160;&#160;&#160;&#160;&#160;&#160;&#160;&#160;&#160;&#160;&#160;&#160;&#160;&#160;&#160;&#160;&#160;&#160;&#160;&#160;&#160;&#160;&#160;&#160;&#160;&#160;&#160;&#160;&#160;&#160;&#160;&#160;&#160;&#160;&#160;&#160;&#160;&#160;&#160;AccountId &#160;&#160;&#160;&#160;&#160;&#160;&#160;&#160;&#160;&#160;&#160;&#160;&#160;&#160;&#160;&#160;&#160;&#160;&#160;&#160;&#160;&#160;&#160;&#160;&#160;&#160;&#160;&#160;&#160;&#160;&#160;&#160;&#160;&#160;&#160;&#160;&#160;&#160;</text>
<polygon fill="none" stroke="#99ccff" points="843.8218,-426 843.8218,-443 948.8218,-443 948.8218,-426 843.8218,-426"/>
<text text-anchor="start" x="853.4148" y="-431.2" font-family="Courier,monospace" font-size="11.00" fill="#000000">reference(18)</text>
<polygon fill="none" stroke="#99ccff" points="184.8218,-409 184.8218,-426 843.8218,-426 843.8218,-409 184.8218,-409"/>
<text text-anchor="start" x="187.8218" y="-414.2" font-family="Courier,monospace" font-size="11.00" fill="#000000"> &#160;&#160;&#160;&#160;&#160;&#160;&#160;&#160;&#160;&#160;&#160;&#160;&#160;&#160;&#160;&#160;&#160;&#160;&#160;&#160;&#160;&#160;&#160;&#160;&#160;&#160;&#160;&#160;&#160;&#160;&#160;&#160;&#160;&#160;&#160;&#160;&#160;&#160;&#160;&#160;ParentId &#160;&#160;&#160;&#160;&#160;&#160;&#160;&#160;&#160;&#160;&#160;&#160;&#160;&#160;&#160;&#160;&#160;&#160;&#160;&#160;&#160;&#160;&#160;&#160;&#160;&#160;&#160;&#160;&#160;&#160;&#160;&#160;&#160;&#160;&#160;&#160;&#160;&#160;</text>
<polygon fill="none" stroke="#99ccff" points="843.8218,-409 843.8218,-426 948.8218,-426 948.8218,-409 843.8218,-409"/>
<text text-anchor="start" x="853.4148" y="-414.2" font-family="Courier,monospace" font-size="11.00" fill="#000000">reference(18)</text>
<polygon fill="none" stroke="#99ccff" points="184.8218,-392 184.8218,-409 843.8218,-409 843.8218,-392 184.8218,-392"/>
<text text-anchor="start" x="187.8218" y="-397.2" font-family="Courier,monospace" font-size="11.00" fill="#000000"> &#160;&#160;&#160;&#160;&#160;&#160;&#160;&#160;&#160;&#160;&#160;&#160;&#160;&#160;&#160;&#160;&#160;&#160;&#160;&#160;&#160;&#160;&#160;&#160;&#160;&#160;&#160;&#160;&#160;&#160;&#160;&#160;&#160;&#160;&#160;&#160;&#160;&#160;&#160;&#160;RootAssetId &#160;&#160;&#160;&#160;&#160;&#160;&#160;&#160;&#160;&#160;&#160;&#160;&#160;&#160;&#160;&#160;&#160;&#160;&#160;&#160;&#160;&#160;&#160;&#160;&#160;&#160;&#160;&#160;&#160;&#160;&#160;&#160;&#160;&#160;&#160;&#160;&#160;&#160;</text>
<polygon fill="none" stroke="#99ccff" points="843.8218,-392 843.8218,-409 948.8218,-409 948.8218,-392 843.8218,-392"/>
<text text-anchor="start" x="853.4148" y="-397.2" font-family="Courier,monospace" font-size="11.00" fill="#000000">reference(18)</text>
<polygon fill="none" stroke="#99ccff" points="184.8218,-375 184.8218,-392 843.8218,-392 843.8218,-375 184.8218,-375"/>
<text text-anchor="start" x="187.8218" y="-380.2" font-family="Courier,monospace" font-size="11.00" fill="#000000"> &#160;&#160;&#160;&#160;&#160;&#160;&#160;&#160;&#160;&#160;&#160;&#160;&#160;&#160;&#160;&#160;&#160;&#160;&#160;&#160;&#160;&#160;&#160;&#160;&#160;&#160;&#160;&#160;&#160;&#160;&#160;&#160;&#160;&#160;&#160;&#160;&#160;&#160;&#160;&#160;Product2Id &#160;&#160;&#160;&#160;&#160;&#160;&#160;&#160;&#160;&#160;&#160;&#160;&#160;&#160;&#160;&#160;&#160;&#160;&#160;&#160;&#160;&#160;&#160;&#160;&#160;&#160;&#160;&#160;&#160;&#160;&#160;&#160;&#160;&#160;&#160;&#160;&#160;&#160;</text>
<polygon fill="none" stroke="#99ccff" points="843.8218,-375 843.8218,-392 948.8218,-392 948.8218,-375 843.8218,-375"/>
<text text-anchor="start" x="853.4148" y="-380.2" font-family="Courier,monospace" font-size="11.00" fill="#000000">reference(18)</text>
<polygon fill="none" stroke="#99ccff" points="184.8218,-358 184.8218,-375 843.8218,-375 843.8218,-358 184.8218,-358"/>
<text text-anchor="start" x="187.8218" y="-363.2" font-family="Courier,monospace" font-size="11.00" fill="#000000"> &#160;&#160;&#160;&#160;&#160;&#160;&#160;&#160;&#160;&#160;&#160;&#160;&#160;&#160;&#160;&#160;&#160;&#160;&#160;&#160;&#160;&#160;&#160;&#160;&#160;&#160;&#160;&#160;&#160;&#160;&#160;&#160;&#160;&#160;&#160;&#160;&#160;&#160;&#160;&#160;ProductCode &#160;&#160;&#160;&#160;&#160;&#160;&#160;&#160;&#160;&#160;&#160;&#160;&#160;&#160;&#160;&#160;&#160;&#160;&#160;&#160;&#160;&#160;&#160;&#160;&#160;&#160;&#160;&#160;&#160;&#160;&#160;&#160;&#160;&#160;&#160;&#160;&#160;&#160;</text>
<polygon fill="none" stroke="#99ccff" points="843.8218,-358 843.8218,-375 948.8218,-375 948.8218,-358 843.8218,-358"/>
<text text-anchor="start" x="860.0159" y="-363.2" font-family="Courier,monospace" font-size="11.00" fill="#000000">string(255)</text>
<polygon fill="none" stroke="#99ccff" points="184.8218,-341 184.8218,-358 843.8218,-358 843.8218,-341 184.8218,-341"/>
<text text-anchor="start" x="187.5686" y="-346.2" font-family="Courier,monospace" font-size="11.00" fill="#000000"> &#160;&#160;&#160;&#160;&#160;&#160;&#160;&#160;&#160;&#160;&#160;&#160;&#160;&#160;&#160;&#160;&#160;&#160;&#160;&#160;&#160;&#160;&#160;&#160;&#160;&#160;&#160;&#160;&#160;&#160;&#160;&#160;&#160;&#160;&#160;&#160;&#160;&#160;&#160;&#160;IsCompetitorProduct &#160;&#160;&#160;&#160;&#160;&#160;&#160;&#160;&#160;&#160;&#160;&#160;&#160;&#160;&#160;&#160;&#160;&#160;&#160;&#160;&#160;&#160;&#160;&#160;&#160;&#160;&#160;&#160;&#160;&#160;&#160;&#160;&#160;&#160;&#160;&#160;&#160;&#160;</text>
<polygon fill="none" stroke="#99ccff" points="843.8218,-341 843.8218,-358 948.8218,-358 948.8218,-341 843.8218,-341"/>
<text text-anchor="start" x="873.218" y="-346.2" font-family="Courier,monospace" font-size="11.00" fill="#000000">boolean</text>
<polygon fill="none" stroke="#99ccff" points="184.8218,-324 184.8218,-341 843.8218,-341 843.8218,-324 184.8218,-324"/>
<text text-anchor="start" x="187.8218" y="-329.2" font-family="Courier,monospace" font-size="11.00" fill="#000000"> &#160;&#160;&#160;&#160;&#160;&#160;&#160;&#160;&#160;&#160;&#160;&#160;&#160;&#160;&#160;&#160;&#160;&#160;&#160;&#160;&#160;&#160;&#160;&#160;&#160;&#160;&#160;&#160;&#160;&#160;&#160;&#160;&#160;&#160;&#160;&#160;&#160;&#160;&#160;&#160;LastModifiedById &#160;&#160;&#160;&#160;&#160;&#160;&#160;&#160;&#160;&#160;&#160;&#160;&#160;&#160;&#160;&#160;&#160;&#160;&#160;&#160;&#160;&#160;&#160;&#160;&#160;&#160;&#160;&#160;&#160;&#160;&#160;&#160;&#160;&#160;&#160;&#160;&#160;&#160;</text>
<polygon fill="none" stroke="#99ccff" points="843.8218,-324 843.8218,-341 948.8218,-341 948.8218,-324 843.8218,-324"/>
<text text-anchor="start" x="853.4148" y="-329.2" font-family="Courier,monospace" font-size="11.00" fill="#000000">reference(18)</text>
<polygon fill="none" stroke="#99ccff" points="184.8218,-307 184.8218,-324 843.8218,-324 843.8218,-307 184.8218,-307"/>
<text text-anchor="start" x="187.8218" y="-312.2" font-family="Courier,monospace" font-size="11.00" fill="#000000"> &#160;&#160;&#160;&#160;&#160;&#160;&#160;&#160;&#160;&#160;&#160;&#160;&#160;&#160;&#160;&#160;&#160;&#160;&#160;&#160;&#160;&#160;&#160;&#160;&#160;&#160;&#160;&#160;&#160;&#160;&#160;&#160;&#160;&#160;&#160;&#160;&#160;&#160;&#160;&#160;IsDeleted &#160;&#160;&#160;&#160;&#160;&#160;&#160;&#160;&#160;&#160;&#160;&#160;&#160;&#160;&#160;&#160;&#160;&#160;&#160;&#160;&#160;&#160;&#160;&#160;&#160;&#160;&#160;&#160;&#160;&#160;&#160;&#160;&#160;&#160;&#160;&#160;&#160;&#160;</text>
<polygon fill="none" stroke="#99ccff" points="843.8218,-307 843.8218,-324 948.8218,-324 948.8218,-307 843.8218,-307"/>
<text text-anchor="start" x="873.218" y="-312.2" font-family="Courier,monospace" font-size="11.00" fill="#000000">boolean</text>
<polygon fill="none" stroke="#99ccff" points="184.8218,-290 184.8218,-307 843.8218,-307 843.8218,-290 184.8218,-290"/>
<text text-anchor="start" x="187.8218" y="-295.2" font-family="Courier,monospace" font-size="11.00" fill="#000000"> &#160;&#160;&#160;&#160;&#160;&#160;&#160;&#160;&#160;&#160;&#160;&#160;&#160;&#160;&#160;&#160;&#160;&#160;&#160;&#160;&#160;&#160;&#160;&#160;&#160;&#160;&#160;&#160;&#160;&#160;&#160;&#160;&#160;&#160;&#160;&#160;&#160;&#160;&#160;&#160;Name &#160;&#160;&#160;&#160;&#160;&#160;&#160;&#160;&#160;&#160;&#160;&#160;&#160;&#160;&#160;&#160;&#160;&#160;&#160;&#160;&#160;&#160;&#160;&#160;&#160;&#160;&#160;&#160;&#160;&#160;&#160;&#160;&#160;&#160;&#160;&#160;&#160;&#160;</text>
<polygon fill="none" stroke="#99ccff" points="843.8218,-290 843.8218,-307 948.8218,-307 948.8218,-290 843.8218,-290"/>
<text text-anchor="start" x="860.0159" y="-295.2" font-family="Courier,monospace" font-size="11.00" fill="#000000">string(255)</text>
<polygon fill="none" stroke="#99ccff" points="184.8218,-273 184.8218,-290 843.8218,-290 843.8218,-273 184.8218,-273"/>
<text text-anchor="start" x="187.8218" y="-278.2" font-family="Courier,monospace" font-size="11.00" fill="#000000"> &#160;&#160;&#160;&#160;&#160;&#160;&#160;&#160;&#160;&#160;&#160;&#160;&#160;&#160;&#160;&#160;&#160;&#160;&#160;&#160;&#160;&#160;&#160;&#160;&#160;&#160;&#160;&#160;&#160;&#160;&#160;&#160;&#160;&#160;&#160;&#160;&#160;&#160;&#160;&#160;SerialNumber &#160;&#160;&#160;&#160;&#160;&#160;&#160;&#160;&#160;&#160;&#160;&#160;&#160;&#160;&#160;&#160;&#160;&#160;&#160;&#160;&#160;&#160;&#160;&#160;&#160;&#160;&#160;&#160;&#160;&#160;&#160;&#160;&#160;&#160;&#160;&#160;&#160;&#160;</text>
<polygon fill="none" stroke="#99ccff" points="843.8218,-273 843.8218,-290 948.8218,-290 948.8218,-273 843.8218,-273"/>
<text text-anchor="start" x="863.3164" y="-278.2" font-family="Courier,monospace" font-size="11.00" fill="#000000">string(80)</text>
<polygon fill="none" stroke="#99ccff" points="184.8218,-256 184.8218,-273 843.8218,-273 843.8218,-256 184.8218,-256"/>
<text text-anchor="start" x="187.8218" y="-261.2" font-family="Courier,monospace" font-size="11.00" fill="#000000"> &#160;&#160;&#160;&#160;&#160;&#160;&#160;&#160;&#160;&#160;&#160;&#160;&#160;&#160;&#160;&#160;&#160;&#160;&#160;&#160;&#160;&#160;&#160;&#160;&#160;&#160;&#160;&#160;&#160;&#160;&#160;&#160;&#160;&#160;&#160;&#160;&#160;&#160;&#160;&#160;InstallDate &#160;&#160;&#160;&#160;&#160;&#160;&#160;&#160;&#160;&#160;&#160;&#160;&#160;&#160;&#160;&#160;&#160;&#160;&#160;&#160;&#160;&#160;&#160;&#160;&#160;&#160;&#160;&#160;&#160;&#160;&#160;&#160;&#160;&#160;&#160;&#160;&#160;&#160;</text>
<polygon fill="none" stroke="#99ccff" points="843.8218,-256 843.8218,-273 948.8218,-273 948.8218,-256 843.8218,-256"/>
<text text-anchor="start" x="883.1196" y="-261.2" font-family="Courier,monospace" font-size="11.00" fill="#000000">date</text>
<polygon fill="none" stroke="#99ccff" points="184.8218,-239 184.8218,-256 843.8218,-256 843.8218,-239 184.8218,-239"/>
<text text-anchor="start" x="187.8218" y="-244.2" font-family="Courier,monospace" font-size="11.00" fill="#000000"> &#160;&#160;&#160;&#160;&#160;&#160;&#160;&#160;&#160;&#160;&#160;&#160;&#160;&#160;&#160;&#160;&#160;&#160;&#160;&#160;&#160;&#160;&#160;&#160;&#160;&#160;&#160;&#160;&#160;&#160;&#160;&#160;&#160;&#160;&#160;&#160;&#160;&#160;&#160;&#160;PurchaseDate &#160;&#160;&#160;&#160;&#160;&#160;&#160;&#160;&#160;&#160;&#160;&#160;&#160;&#160;&#160;&#160;&#160;&#160;&#160;&#160;&#160;&#160;&#160;&#160;&#160;&#160;&#160;&#160;&#160;&#160;&#160;&#160;&#160;&#160;&#160;&#160;&#160;&#160;</text>
<polygon fill="none" stroke="#99ccff" points="843.8218,-239 843.8218,-256 948.8218,-256 948.8218,-239 843.8218,-239"/>
<text text-anchor="start" x="883.1196" y="-244.2" font-family="Courier,monospace" font-size="11.00" fill="#000000">date</text>
<polygon fill="none" stroke="#99ccff" points="184.8218,-222 184.8218,-239 843.8218,-239 843.8218,-222 184.8218,-222"/>
<text text-anchor="start" x="187.8218" y="-227.2" font-family="Courier,monospace" font-size="11.00" fill="#000000"> &#160;&#160;&#160;&#160;&#160;&#160;&#160;&#160;&#160;&#160;&#160;&#160;&#160;&#160;&#160;&#160;&#160;&#160;&#160;&#160;&#160;&#160;&#160;&#160;&#160;&#160;&#160;&#160;&#160;&#160;&#160;&#160;&#160;&#160;&#160;&#160;&#160;&#160;&#160;&#160;UsageEndDate &#160;&#160;&#160;&#160;&#160;&#160;&#160;&#160;&#160;&#160;&#160;&#160;&#160;&#160;&#160;&#160;&#160;&#160;&#160;&#160;&#160;&#160;&#160;&#160;&#160;&#160;&#160;&#160;&#160;&#160;&#160;&#160;&#160;&#160;&#160;&#160;&#160;&#160;</text>
<polygon fill="none" stroke="#99ccff" points="843.8218,-222 843.8218,-239 948.8218,-239 948.8218,-222 843.8218,-222"/>
<text text-anchor="start" x="883.1196" y="-227.2" font-family="Courier,monospace" font-size="11.00" fill="#000000">date</text>
<polygon fill="none" stroke="#99ccff" points="184.8218,-205 184.8218,-222 843.8218,-222 843.8218,-205 184.8218,-205"/>
<text text-anchor="start" x="187.8218" y="-210.2" font-family="Courier,monospace" font-size="11.00" fill="#000000"> &#160;&#160;&#160;&#160;&#160;&#160;&#160;&#160;&#160;&#160;&#160;&#160;&#160;&#160;&#160;&#160;&#160;&#160;&#160;&#160;&#160;&#160;&#160;&#160;&#160;&#160;&#160;&#160;&#160;&#160;&#160;&#160;&#160;&#160;&#160;&#160;&#160;&#160;&#160;&#160;Status &#160;&#160;&#160;&#160;&#160;&#160;&#160;&#160;&#160;&#160;&#160;&#160;&#160;&#160;&#160;&#160;&#160;&#160;&#160;&#160;&#160;&#160;&#160;&#160;&#160;&#160;&#160;&#160;&#160;&#160;&#160;&#160;&#160;&#160;&#160;&#160;&#160;&#160;</text>
<polygon fill="none" stroke="#99ccff" points="843.8218,-205 843.8218,-222 948.8218,-222 948.8218,-205 843.8218,-205"/>
<text text-anchor="start" x="856.7153" y="-210.2" font-family="Courier,monospace" font-size="11.00" fill="#000000">picklist(40)</text>
<polygon fill="none" stroke="#99ccff" points="184.8218,-188 184.8218,-205 843.8218,-205 843.8218,-188 184.8218,-188"/>
<text text-anchor="start" x="187.8218" y="-193.2" font-family="Courier,monospace" font-size="11.00" fill="#000000"> &#160;&#160;&#160;&#160;&#160;&#160;&#160;&#160;&#160;&#160;&#160;&#160;&#160;&#160;&#160;&#160;&#160;&#160;&#160;&#160;&#160;&#160;&#160;&#160;&#160;&#160;&#160;&#160;&#160;&#160;&#160;&#160;&#160;&#160;&#160;&#160;&#160;&#160;&#160;&#160;Price &#160;&#160;&#160;&#160;&#160;&#160;&#160;&#160;&#160;&#160;&#160;&#160;&#160;&#160;&#160;&#160;&#160;&#160;&#160;&#160;&#160;&#160;&#160;&#160;&#160;&#160;&#160;&#160;&#160;&#160;&#160;&#160;&#160;&#160;&#160;&#160;&#160;&#160;</text>
<polygon fill="none" stroke="#99ccff" points="843.8218,-188 843.8218,-205 948.8218,-205 948.8218,-188 843.8218,-188"/>
<text text-anchor="start" x="869.9175" y="-193.2" font-family="Courier,monospace" font-size="11.00" fill="#000000">currency</text>
<polygon fill="none" stroke="#99ccff" points="184.8218,-171 184.8218,-188 843.8218,-188 843.8218,-171 184.8218,-171"/>
<text text-anchor="start" x="187.8218" y="-176.2" font-family="Courier,monospace" font-size="11.00" fill="#000000"> &#160;&#160;&#160;&#160;&#160;&#160;&#160;&#160;&#160;&#160;&#160;&#160;&#160;&#160;&#160;&#160;&#160;&#160;&#160;&#160;&#160;&#160;&#160;&#160;&#160;&#160;&#160;&#160;&#160;&#160;&#160;&#160;&#160;&#160;&#160;&#160;&#160;&#160;&#160;&#160;Quantity &#160;&#160;&#160;&#160;&#160;&#160;&#160;&#160;&#160;&#160;&#160;&#160;&#160;&#160;&#160;&#160;&#160;&#160;&#160;&#160;&#160;&#160;&#160;&#160;&#160;&#160;&#160;&#160;&#160;&#160;&#160;&#160;&#160;&#160;&#160;&#160;&#160;&#160;</text>
<polygon fill="none" stroke="#99ccff" points="843.8218,-171 843.8218,-188 948.8218,-188 948.8218,-171 843.8218,-171"/>
<text text-anchor="start" x="876.5186" y="-176.2" font-family="Courier,monospace" font-size="11.00" fill="#000000">double</text>
<polygon fill="none" stroke="#99ccff" points="184.8218,-154 184.8218,-171 843.8218,-171 843.8218,-154 184.8218,-154"/>
<text text-anchor="start" x="187.8218" y="-159.2" font-family="Courier,monospace" font-size="11.00" fill="#000000"> &#160;&#160;&#160;&#160;&#160;&#160;&#160;&#160;&#160;&#160;&#160;&#160;&#160;&#160;&#160;&#160;&#160;&#160;&#160;&#160;&#160;&#160;&#160;&#160;&#160;&#160;&#160;&#160;&#160;&#160;&#160;&#160;&#160;&#160;&#160;&#160;&#160;&#160;&#160;&#160;Description &#160;&#160;&#160;&#160;&#160;&#160;&#160;&#160;&#160;&#160;&#160;&#160;&#160;&#160;&#160;&#160;&#160;&#160;&#160;&#160;&#160;&#160;&#160;&#160;&#160;&#160;&#160;&#160;&#160;&#160;&#160;&#160;&#160;&#160;&#160;&#160;&#160;&#160;</text>
<polygon fill="none" stroke="#99ccff" points="843.8218,-154 843.8218,-171 948.8218,-171 948.8218,-154 843.8218,-154"/>
<text text-anchor="start" x="846.8137" y="-159.2" font-family="Courier,monospace" font-size="11.00" fill="#000000">textarea(32000)</text>
<polygon fill="none" stroke="#99ccff" points="184.8218,-137 184.8218,-154 843.8218,-154 843.8218,-137 184.8218,-137"/>
<text text-anchor="start" x="187.8218" y="-142.2" font-family="Courier,monospace" font-size="11.00" fill="#000000"> &#160;&#160;&#160;&#160;&#160;&#160;&#160;&#160;&#160;&#160;&#160;&#160;&#160;&#160;&#160;&#160;&#160;&#160;&#160;&#160;&#160;&#160;&#160;&#160;&#160;&#160;&#160;&#160;&#160;&#160;&#160;&#160;&#160;&#160;&#160;&#160;&#160;&#160;&#160;&#160;OwnerId &#160;&#160;&#160;&#160;&#160;&#160;&#160;&#160;&#160;&#160;&#160;&#160;&#160;&#160;&#160;&#160;&#160;&#160;&#160;&#160;&#160;&#160;&#160;&#160;&#160;&#160;&#160;&#160;&#160;&#160;&#160;&#160;&#160;&#160;&#160;&#160;&#160;&#160;</text>
<polygon fill="none" stroke="#99ccff" points="843.8218,-137 843.8218,-154 948.8218,-154 948.8218,-137 843.8218,-137"/>
<text text-anchor="start" x="853.4148" y="-142.2" font-family="Courier,monospace" font-size="11.00" fill="#000000">reference(18)</text>
<polygon fill="none" stroke="#99ccff" points="184.8218,-120 184.8218,-137 843.8218,-137 843.8218,-120 184.8218,-120"/>
<text text-anchor="start" x="187.8218" y="-125.2" font-family="Courier,monospace" font-size="11.00" fill="#000000"> &#160;&#160;&#160;&#160;&#160;&#160;&#160;&#160;&#160;&#160;&#160;&#160;&#160;&#160;&#160;&#160;&#160;&#160;&#160;&#160;&#160;&#160;&#160;&#160;&#160;&#160;&#160;&#160;&#160;&#160;&#160;&#160;&#160;&#160;&#160;&#160;&#160;&#160;&#160;&#160;AssetProvidedById &#160;&#160;&#160;&#160;&#160;&#160;&#160;&#160;&#160;&#160;&#160;&#160;&#160;&#160;&#160;&#160;&#160;&#160;&#160;&#160;&#160;&#160;&#160;&#160;&#160;&#160;&#160;&#160;&#160;&#160;&#160;&#160;&#160;&#160;&#160;&#160;&#160;&#160;</text>
<polygon fill="none" stroke="#99ccff" points="843.8218,-120 843.8218,-137 948.8218,-137 948.8218,-120 843.8218,-120"/>
<text text-anchor="start" x="853.4148" y="-125.2" font-family="Courier,monospace" font-size="11.00" fill="#000000">reference(18)</text>
<polygon fill="none" stroke="#99ccff" points="184.8218,-103 184.8218,-120 843.8218,-120 843.8218,-103 184.8218,-103"/>
<text text-anchor="start" x="187.8218" y="-108.2" font-family="Courier,monospace" font-size="11.00" fill="#000000"> &#160;&#160;&#160;&#160;&#160;&#160;&#160;&#160;&#160;&#160;&#160;&#160;&#160;&#160;&#160;&#160;&#160;&#160;&#160;&#160;&#160;&#160;&#160;&#160;&#160;&#160;&#160;&#160;&#160;&#160;&#160;&#160;&#160;&#160;&#160;&#160;&#160;&#160;&#160;&#160;AssetServicedById &#160;&#160;&#160;&#160;&#160;&#160;&#160;&#160;&#160;&#160;&#160;&#160;&#160;&#160;&#160;&#160;&#160;&#160;&#160;&#160;&#160;&#160;&#160;&#160;&#160;&#160;&#160;&#160;&#160;&#160;&#160;&#160;&#160;&#160;&#160;&#160;&#160;&#160;</text>
<polygon fill="none" stroke="#99ccff" points="843.8218,-103 843.8218,-120 948.8218,-120 948.8218,-103 843.8218,-103"/>
<text text-anchor="start" x="853.4148" y="-108.2" font-family="Courier,monospace" font-size="11.00" fill="#000000">reference(18)</text>
<polygon fill="none" stroke="#99ccff" points="184.8218,-86 184.8218,-103 843.8218,-103 843.8218,-86 184.8218,-86"/>
<text text-anchor="start" x="187.8218" y="-91.2" font-family="Courier,monospace" font-size="11.00" fill="#000000"> &#160;&#160;&#160;&#160;&#160;&#160;&#160;&#160;&#160;&#160;&#160;&#160;&#160;&#160;&#160;&#160;&#160;&#160;&#160;&#160;&#160;&#160;&#160;&#160;&#160;&#160;&#160;&#160;&#160;&#160;&#160;&#160;&#160;&#160;&#160;&#160;&#160;&#160;&#160;&#160;IsInternal &#160;&#160;&#160;&#160;&#160;&#160;&#160;&#160;&#160;&#160;&#160;&#160;&#160;&#160;&#160;&#160;&#160;&#160;&#160;&#160;&#160;&#160;&#160;&#160;&#160;&#160;&#160;&#160;&#160;&#160;&#160;&#160;&#160;&#160;&#160;&#160;&#160;&#160;</text>
<polygon fill="none" stroke="#99ccff" points="843.8218,-86 843.8218,-103 948.8218,-103 948.8218,-86 843.8218,-86"/>
<text text-anchor="start" x="873.218" y="-91.2" font-family="Courier,monospace" font-size="11.00" fill="#000000">boolean</text>
<polygon fill="none" stroke="#99ccff" points="184.8218,-69 184.8218,-86 843.8218,-86 843.8218,-69 184.8218,-69"/>
<text text-anchor="start" x="187.8218" y="-74.2" font-family="Courier,monospace" font-size="11.00" fill="#000000"> &#160;&#160;&#160;&#160;&#160;&#160;&#160;&#160;&#160;&#160;&#160;&#160;&#160;&#160;&#160;&#160;&#160;&#160;&#160;&#160;&#160;&#160;&#160;&#160;&#160;&#160;&#160;&#160;&#160;&#160;&#160;&#160;&#160;&#160;&#160;&#160;&#160;&#160;&#160;&#160;AssetLevel &#160;&#160;&#160;&#160;&#160;&#160;&#160;&#160;&#160;&#160;&#160;&#160;&#160;&#160;&#160;&#160;&#160;&#160;&#160;&#160;&#160;&#160;&#160;&#160;&#160;&#160;&#160;&#160;&#160;&#160;&#160;&#160;&#160;&#160;&#160;&#160;&#160;&#160;</text>
<polygon fill="none" stroke="#99ccff" points="843.8218,-69 843.8218,-86 948.8218,-86 948.8218,-69 843.8218,-69"/>
<text text-anchor="start" x="886.4202" y="-74.2" font-family="Courier,monospace" font-size="11.00" fill="#000000">int</text>
<polygon fill="none" stroke="#99ccff" points="184.8218,-52 184.8218,-69 843.8218,-69 843.8218,-52 184.8218,-52"/>
<text text-anchor="start" x="187.8218" y="-57.2" font-family="Courier,monospace" font-size="11.00" fill="#000000"> &#160;&#160;&#160;&#160;&#160;&#160;&#160;&#160;&#160;&#160;&#160;&#160;&#160;&#160;&#160;&#160;&#160;&#160;&#160;&#160;&#160;&#160;&#160;&#160;&#160;&#160;&#160;&#160;&#160;&#160;&#160;&#160;&#160;&#160;&#160;&#160;&#160;&#160;&#160;&#160;StockKeepingUnit &#160;&#160;&#160;&#160;&#160;&#160;&#160;&#160;&#160;&#160;&#160;&#160;&#160;&#160;&#160;&#160;&#160;&#160;&#160;&#160;&#160;&#160;&#160;&#160;&#160;&#160;&#160;&#160;&#160;&#160;&#160;&#160;&#160;&#160;&#160;&#160;&#160;&#160;</text>
<polygon fill="none" stroke="#99ccff" points="843.8218,-52 843.8218,-69 948.8218,-69 948.8218,-52 843.8218,-52"/>
<text text-anchor="start" x="860.0159" y="-57.2" font-family="Courier,monospace" font-size="11.00" fill="#000000">string(180)</text>
<polygon fill="none" stroke="#99ccff" points="184.8218,-35 184.8218,-52 843.8218,-52 843.8218,-35 184.8218,-35"/>
<text text-anchor="start" x="187.8218" y="-40.2" font-family="Courier,monospace" font-size="11.00" fill="#000000"> &#160;&#160;&#160;&#160;&#160;&#160;&#160;&#160;&#160;&#160;&#160;&#160;&#160;&#160;&#160;&#160;&#160;&#160;&#160;&#160;&#160;&#160;&#160;&#160;&#160;&#160;&#160;&#160;&#160;&#160;&#160;&#160;&#160;&#160;&#160;&#160;&#160;&#160;&#160;&#160;LastViewedDate &#160;&#160;&#160;&#160;&#160;&#160;&#160;&#160;&#160;&#160;&#160;&#160;&#160;&#160;&#160;&#160;&#160;&#160;&#160;&#160;&#160;&#160;&#160;&#160;&#160;&#160;&#160;&#160;&#160;&#160;&#160;&#160;&#160;&#160;&#160;&#160;&#160;&#160;</text>
<polygon fill="none" stroke="#99ccff" points="843.8218,-35 843.8218,-52 948.8218,-52 948.8218,-35 843.8218,-35"/>
<text text-anchor="start" x="869.9175" y="-40.2" font-family="Courier,monospace" font-size="11.00" fill="#000000">datetime</text>
<polygon fill="none" stroke="#99ccff" points="184.8218,-18 184.8218,-35 843.8218,-35 843.8218,-18 184.8218,-18"/>
<text text-anchor="start" x="187.8218" y="-23.2" font-family="Courier,monospace" font-size="11.00" fill="#000000"> &#160;&#160;&#160;&#160;&#160;&#160;&#160;&#160;&#160;&#160;&#160;&#160;&#160;&#160;&#160;&#160;&#160;&#160;&#160;&#160;&#160;&#160;&#160;&#160;&#160;&#160;&#160;&#160;&#160;&#160;&#160;&#160;&#160;&#160;&#160;&#160;&#160;&#160;&#160;&#160;LastReferencedDate &#160;&#160;&#160;&#160;&#160;&#160;&#160;&#160;&#160;&#160;&#160;&#160;&#160;&#160;&#160;&#160;&#160;&#160;&#160;&#160;&#160;&#160;&#160;&#160;&#160;&#160;&#160;&#160;&#160;&#160;&#160;&#160;&#160;&#160;&#160;&#160;&#160;&#160;</text>
<polygon fill="none" stroke="#99ccff" points="843.8218,-18 843.8218,-35 948.8218,-35 948.8218,-18 843.8218,-18"/>
<text text-anchor="start" x="869.9175" y="-23.2" font-family="Courier,monospace" font-size="11.00" fill="#000000">datetime</text>
<polygon fill="none" stroke="#99ccff" points="183.8218,-17 183.8218,-495 949.8218,-495 949.8218,-17 183.8218,-17"/>
</a>
</g>
</g>
<!-- Asset&#45;&gt;Asset -->
<g id="edge3" class="edge">
<title>Asset:w&#45;&gt;Asset:e</title>
<path fill="none" stroke="#3e7ab7" d="M173.047,-426.7577C75.427,-499.9646 91.1313,-508 514.3218,-508 953.8218,-508 953.8218,-499.3333 843.8218,-469"/>
<polygon fill="#3e7ab7" stroke="#3e7ab7" points="178.4026,-422.7744 186.9703,-420.8886 181.6122,-420.3872 184.8218,-418 184.8218,-418 184.8218,-418 181.6122,-420.3872 182.6733,-415.1114 178.4026,-422.7744 178.4026,-422.7744"/>
<ellipse fill="none" stroke="#3e7ab7" cx="175.835" cy="-424.6841" rx="3.2" ry="3.2"/>
<text text-anchor="middle" x="566.8218" y="-512.1988" font-family="Arial" font-size="12.00" fill="#000000">Parent</text>
</g>
<!-- Asset&#45;&gt;Asset -->
<g id="edge4" class="edge">
<title>Asset:w&#45;&gt;Asset:e</title>
<path fill="none" stroke="#3e7ab7" d="M173.3443,-409.8683C75.3956,-486.6321 90.7021,-508 514.3218,-508 953.8218,-508 953.8218,-499.3333 843.8218,-469"/>
<polygon fill="#3e7ab7" stroke="#3e7ab7" points="178.4913,-405.8914 187.0229,-403.8487 181.6566,-403.4457 184.8218,-401 184.8218,-401 184.8218,-401 181.6566,-403.4457 182.6206,-398.1513 178.4913,-405.8914 178.4913,-405.8914"/>
<ellipse fill="none" stroke="#3e7ab7" cx="175.9591" cy="-407.848" rx="3.2" ry="3.2"/>
<text text-anchor="middle" x="566.8218" y="-512.1988" font-family="Arial" font-size="12.00" fill="#000000">RootAsset</text>
</g>
<!-- Contact -->
<g id="node2" class="node">
<title>Contact</title>
<text text-anchor="middle" x="34.4043" y="-448.7" font-family="Courier,monospace" font-size="11.00" fill="#000000">Contact</text>
</g>
<!-- Asset&#45;&gt;Contact -->
<g id="edge1" class="edge">
<title>Asset:w&#45;&gt;Contact:e</title>
<path fill="none" stroke="#ff99cc" d="M170.0918,-452C132.6353,-452 92.3702,-452 65.5171,-452"/>
<polygon fill="#ff99cc" stroke="#ff99cc" points="176.8218,-452.0001 184.8218,-455.6 180.8218,-452 184.8218,-452 184.8218,-452 184.8218,-452 180.8218,-452 184.8218,-448.4 176.8218,-452.0001 176.8218,-452.0001"/>
<ellipse fill="none" stroke="#ff99cc" cx="173.6218" cy="-452.0001" rx="3.2" ry="3.2"/>
<text text-anchor="middle" x="126.3152" y="-456.8015" font-family="Monaco" font-size="9.00" fill="#000000">Contact</text>
</g>
<!-- Account -->
<g id="node3" class="node">
<title>Account</title>
<text text-anchor="middle" x="34.4043" y="-137.7" font-family="Courier,monospace" font-size="11.00" fill="#000000">Account</text>
</g>
<!-- Asset&#45;&gt;Account -->
<g id="edge2" class="edge">
<title>Asset:w&#45;&gt;Account:e</title>
<path fill="none" stroke="#ff99cc" d="M171.9211,-427.3447C170.5655,-426.1325 168.9582,-424.9628 166.8218,-423.9985 132.4767,-408.4977 109.9978,-427.892 85.8086,-399 65.9735,-375.3086 74.9742,-291.2771 68.8086,-261 61.327,-224.2603 48.2455,-182.375 40.5494,-159.077"/>
<polygon fill="#ff99cc" stroke="#ff99cc" points="177.9419,-430.9174 182.9846,-438.096 181.3818,-432.9587 184.8218,-435 184.8218,-435 184.8218,-435 181.3818,-432.9587 186.6589,-431.904 177.9419,-430.9174 177.9419,-430.9174"/>
<ellipse fill="none" stroke="#ff99cc" cx="175.1899" cy="-429.2844" rx="3.2" ry="3.2"/>
<text text-anchor="middle" x="126.3152" y="-427.8015" font-family="Monaco" font-size="9.00" fill="#000000">Account</text>
</g>
<!-- Asset&#45;&gt;Account -->
<g id="edge8" class="edge">
<title>Asset:w&#45;&gt;Account:e</title>
<path fill="none" stroke="#ff99cc" d="M170.0926,-128.193C132.6585,-129.1377 92.558,-133.3644 65.7383,-136.7073"/>
<polygon fill="#ff99cc" stroke="#ff99cc" points="176.8225,-128.1049 184.869,-131.5997 180.8221,-128.0524 184.8218,-128 184.8218,-128 184.8218,-128 180.8221,-128.0524 184.7746,-124.4003 176.8225,-128.1049 176.8225,-128.1049"/>
<ellipse fill="none" stroke="#ff99cc" cx="173.6227" cy="-128.1468" rx="3.2" ry="3.2"/>
<text text-anchor="middle" x="126.3152" y="-139.8015" font-family="Monaco" font-size="9.00" fill="#000000">AssetProvidedBy</text>
</g>
<!-- Asset&#45;&gt;Account -->
<g id="edge9" class="edge">
<title>Asset:w&#45;&gt;Account:e</title>
<path fill="none" stroke="#ff99cc" d="M170.1092,-110.6886C137.3485,-109.3005 123.2328,-104.1642 85.8086,-113.9985 78.2039,-115.9969 70.4612,-119.2842 63.3706,-122.8894"/>
<polygon fill="#ff99cc" stroke="#ff99cc" points="176.8236,-110.8307 184.7456,-114.5992 180.8227,-110.9153 184.8218,-111 184.8218,-111 184.8218,-111 180.8227,-110.9153 184.898,-107.4008 176.8236,-110.8307 176.8236,-110.8307"/>
<ellipse fill="none" stroke="#ff99cc" cx="173.6243" cy="-110.763" rx="3.2" ry="3.2"/>
<text text-anchor="middle" x="126.3152" y="-118.8015" font-family="Monaco" font-size="9.00" fill="#000000">AssetServicedBy</text>
</g>
<!-- Product2 -->
<g id="node4" class="node">
<title>Product2</title>
<text text-anchor="middle" x="34.4043" y="-380.7" font-family="Courier,monospace" font-size="11.00" fill="#000000">Product2</text>
</g>
<!-- Asset&#45;&gt;Product2 -->
<g id="edge5" class="edge">
<title>Asset:w&#45;&gt;Product2:e</title>
<path fill="none" stroke="#ff99cc" d="M170.1312,-384C134.1403,-384 95.5509,-384 68.7552,-384"/>
<polygon fill="#ff99cc" stroke="#ff99cc" points="176.8218,-384.0001 184.8218,-387.6 180.8218,-384 184.8218,-384 184.8218,-384 184.8218,-384 180.8218,-384 184.8218,-380.4 176.8218,-384.0001 176.8218,-384.0001"/>
<ellipse fill="none" stroke="#ff99cc" cx="173.6218" cy="-384.0001" rx="3.2" ry="3.2"/>
<text text-anchor="middle" x="126.3152" y="-388.8015" font-family="Monaco" font-size="9.00" fill="#000000">Product2</text>
</g>
<!-- User -->
<g id="node5" class="node">
<title>User</title>
<text text-anchor="middle" x="34.4043" y="-281.7" font-family="Courier,monospace" font-size="11.00" fill="#000000">User</text>
</g>
<!-- Asset&#45;&gt;User -->
<g id="edge6" class="edge">
<title>Asset:w&#45;&gt;User:e</title>
<path fill="none" stroke="#ff99cc" d="M170.2655,-332.3532C129.7166,-328.8562 87.9088,-311.9008 61.5732,-299.2716"/>
<polygon fill="#ff99cc" stroke="#ff99cc" points="176.8297,-332.6448 184.6619,-336.5965 180.8257,-332.8224 184.8218,-333 184.8218,-333 184.8218,-333 180.8257,-332.8224 184.9816,-329.4035 176.8297,-332.6448 176.8297,-332.6448"/>
<ellipse fill="none" stroke="#ff99cc" cx="173.6328" cy="-332.5028" rx="3.2" ry="3.2"/>
<text text-anchor="middle" x="126.3152" y="-335.8015" font-family="Monaco" font-size="9.00" fill="#000000">LastModifiedBy</text>
</g>
<!-- Asset&#45;&gt;User -->
<g id="edge7" class="edge">
<title>Asset:w&#45;&gt;User:e</title>
<path fill="none" stroke="#ff99cc" d="M172.5715,-153.0171C145.5573,-174.9347 83.2869,-236.262 52.4211,-266.9841"/>
<polygon fill="#ff99cc" stroke="#ff99cc" points="178.1278,-149.3808 186.7931,-148.0123 181.4748,-147.1904 184.8218,-145 184.8218,-145 184.8218,-145 181.4748,-147.1904 182.8504,-141.9877 178.1278,-149.3808 178.1278,-149.3808"/>
<ellipse fill="none" stroke="#ff99cc" cx="175.4503" cy="-151.1331" rx="3.2" ry="3.2"/>
<text text-anchor="middle" x="126.3152" y="-235.8015" font-family="Monaco" font-size="9.00" fill="#000000">Owner</text>
</g>
</g>
</svg>
