<?xml version="1.0" encoding="UTF-8" standalone="no"?>
<!DOCTYPE svg PUBLIC "-//W3C//DTD SVG 1.1//EN"
 "http://www.w3.org/Graphics/SVG/1.1/DTD/svg11.dtd">
<!-- Generated by graphviz version 2.40.1 (20161225.0304)
 -->
<!-- Title: Salesforce+ ERD Pages: 1 -->
<svg width="918pt" height="283pt"
 viewBox="0.00 0.00 918.02 283.00" xmlns="http://www.w3.org/2000/svg" xmlns:xlink="http://www.w3.org/1999/xlink">
<g id="graph0" class="graph" transform="scale(1 1) rotate(0) translate(4 279)">
<title>Salesforce+ ERD</title>
<polygon fill="#efeffd" stroke="transparent" points="-4,4 -4,-279 914.0176,-279 914.0176,4 -4,4"/>
<text text-anchor="middle" x="861.511" y="-5.8" font-family="Courier,monospace" font-size="9.00" fill="#000000">Salesforce ERD </text>
<!-- AsyncApexJob -->
<g id="node1" class="node">
<title>AsyncApexJob</title>
<g id="a_node1"><a xlink:href="#" xlink:title=" AsyncApexJob ">
<polygon fill="#ffeeff" stroke="transparent" points="158.0176,-17 158.0176,-257 910.0176,-257 910.0176,-17 158.0176,-17"/>
<polygon fill="#add8e6" stroke="transparent" points="159.0176,-239 159.0176,-256 909.0176,-256 909.0176,-239 159.0176,-239"/>
<polygon fill="none" stroke="#99ccff" points="159.0176,-239 159.0176,-256 909.0176,-256 909.0176,-239 159.0176,-239"/>
<text text-anchor="start" x="494.4111" y="-245.2" font-family="Courier,monospace" font-weight="bold" font-size="11.00" fill="#000000">AsyncApexJob</text>
<polygon fill="#99ccff" stroke="transparent" points="159.0176,-222 159.0176,-239 818.0176,-239 818.0176,-222 159.0176,-222"/>
<polygon fill="none" stroke="#99ccff" points="159.0176,-222 159.0176,-239 818.0176,-239 818.0176,-222 159.0176,-222"/>
<text text-anchor="start" x="162.0176" y="-228.2" font-family="Courier,monospace" font-size="11.00" fill="#000000"> &#160;&#160;&#160;&#160;&#160;&#160;&#160;&#160;&#160;&#160;&#160;&#160;&#160;&#160;&#160;&#160;&#160;&#160;&#160;&#160;&#160;&#160;&#160;&#160;&#160;&#160;&#160;&#160;&#160;&#160;&#160;&#160;&#160;&#160;&#160;&#160;&#160;&#160;&#160;&#160;&#160;&#160;</text>
<text text-anchor="start" x="445.8638" y="-228.2" font-family="Courier,monospace" font-weight="bold" font-size="11.00" fill="#000000">Id</text>
<text text-anchor="start" x="459.0659" y="-228.2" font-family="Courier,monospace" font-size="11.00" fill="#000000"> &#160;&#160;&#160;&#160;&#160;&#160;&#160;&#160;&#160;&#160;&#160;&#160;&#160;&#160;&#160;&#160;&#160;&#160;&#160;&#160;&#160;&#160;&#160;&#160;&#160;&#160;&#160;&#160;&#160;&#160;&#160;&#160;&#160;&#160;&#160;&#160;&#160;&#160;&#160;</text>
<polygon fill="none" stroke="#99ccff" points="818.0176,-222 818.0176,-239 909.0176,-239 909.0176,-222 818.0176,-222"/>
<text text-anchor="start" x="843.7144" y="-227.2" font-family="Courier,monospace" font-size="11.00" fill="#000000">id(18)</text>
<polygon fill="none" stroke="#99ccff" points="159.0176,-205 159.0176,-222 818.0176,-222 818.0176,-205 159.0176,-205"/>
<text text-anchor="start" x="162.0176" y="-210.2" font-family="Courier,monospace" font-size="11.00" fill="#000000"> &#160;&#160;&#160;&#160;&#160;&#160;&#160;&#160;&#160;&#160;&#160;&#160;&#160;&#160;&#160;&#160;&#160;&#160;&#160;&#160;&#160;&#160;&#160;&#160;&#160;&#160;&#160;&#160;&#160;&#160;&#160;&#160;&#160;&#160;&#160;&#160;&#160;&#160;&#160;&#160;JobType &#160;&#160;&#160;&#160;&#160;&#160;&#160;&#160;&#160;&#160;&#160;&#160;&#160;&#160;&#160;&#160;&#160;&#160;&#160;&#160;&#160;&#160;&#160;&#160;&#160;&#160;&#160;&#160;&#160;&#160;&#160;&#160;&#160;&#160;&#160;&#160;&#160;&#160;</text>
<polygon fill="none" stroke="#99ccff" points="818.0176,-205 818.0176,-222 909.0176,-222 909.0176,-205 818.0176,-205"/>
<text text-anchor="start" x="823.9111" y="-210.2" font-family="Courier,monospace" font-size="11.00" fill="#000000">picklist(40)</text>
<polygon fill="none" stroke="#99ccff" points="159.0176,-188 159.0176,-205 818.0176,-205 818.0176,-188 159.0176,-188"/>
<text text-anchor="start" x="162.0176" y="-193.2" font-family="Courier,monospace" font-size="11.00" fill="#000000"> &#160;&#160;&#160;&#160;&#160;&#160;&#160;&#160;&#160;&#160;&#160;&#160;&#160;&#160;&#160;&#160;&#160;&#160;&#160;&#160;&#160;&#160;&#160;&#160;&#160;&#160;&#160;&#160;&#160;&#160;&#160;&#160;&#160;&#160;&#160;&#160;&#160;&#160;&#160;&#160;ApexClassId &#160;&#160;&#160;&#160;&#160;&#160;&#160;&#160;&#160;&#160;&#160;&#160;&#160;&#160;&#160;&#160;&#160;&#160;&#160;&#160;&#160;&#160;&#160;&#160;&#160;&#160;&#160;&#160;&#160;&#160;&#160;&#160;&#160;&#160;&#160;&#160;&#160;&#160;</text>
<polygon fill="none" stroke="#99ccff" points="818.0176,-188 818.0176,-205 909.0176,-205 909.0176,-188 818.0176,-188"/>
<text text-anchor="start" x="820.6106" y="-193.2" font-family="Courier,monospace" font-size="11.00" fill="#000000">reference(18)</text>
<polygon fill="none" stroke="#99ccff" points="159.0176,-171 159.0176,-188 818.0176,-188 818.0176,-171 159.0176,-171"/>
<text text-anchor="start" x="162.0176" y="-176.2" font-family="Courier,monospace" font-size="11.00" fill="#000000"> &#160;&#160;&#160;&#160;&#160;&#160;&#160;&#160;&#160;&#160;&#160;&#160;&#160;&#160;&#160;&#160;&#160;&#160;&#160;&#160;&#160;&#160;&#160;&#160;&#160;&#160;&#160;&#160;&#160;&#160;&#160;&#160;&#160;&#160;&#160;&#160;&#160;&#160;&#160;&#160;Status &#160;&#160;&#160;&#160;&#160;&#160;&#160;&#160;&#160;&#160;&#160;&#160;&#160;&#160;&#160;&#160;&#160;&#160;&#160;&#160;&#160;&#160;&#160;&#160;&#160;&#160;&#160;&#160;&#160;&#160;&#160;&#160;&#160;&#160;&#160;&#160;&#160;&#160;</text>
<polygon fill="none" stroke="#99ccff" points="818.0176,-171 818.0176,-188 909.0176,-188 909.0176,-171 818.0176,-171"/>
<text text-anchor="start" x="823.9111" y="-176.2" font-family="Courier,monospace" font-size="11.00" fill="#000000">picklist(40)</text>
<polygon fill="none" stroke="#99ccff" points="159.0176,-154 159.0176,-171 818.0176,-171 818.0176,-154 159.0176,-154"/>
<text text-anchor="start" x="162.0176" y="-159.2" font-family="Courier,monospace" font-size="11.00" fill="#000000"> &#160;&#160;&#160;&#160;&#160;&#160;&#160;&#160;&#160;&#160;&#160;&#160;&#160;&#160;&#160;&#160;&#160;&#160;&#160;&#160;&#160;&#160;&#160;&#160;&#160;&#160;&#160;&#160;&#160;&#160;&#160;&#160;&#160;&#160;&#160;&#160;&#160;&#160;&#160;&#160;JobItemsProcessed &#160;&#160;&#160;&#160;&#160;&#160;&#160;&#160;&#160;&#160;&#160;&#160;&#160;&#160;&#160;&#160;&#160;&#160;&#160;&#160;&#160;&#160;&#160;&#160;&#160;&#160;&#160;&#160;&#160;&#160;&#160;&#160;&#160;&#160;&#160;&#160;&#160;&#160;</text>
<polygon fill="none" stroke="#99ccff" points="818.0176,-154 818.0176,-171 909.0176,-171 909.0176,-154 818.0176,-154"/>
<text text-anchor="start" x="853.616" y="-159.2" font-family="Courier,monospace" font-size="11.00" fill="#000000">int</text>
<polygon fill="none" stroke="#99ccff" points="159.0176,-137 159.0176,-154 818.0176,-154 818.0176,-137 159.0176,-137"/>
<text text-anchor="start" x="162.0176" y="-142.2" font-family="Courier,monospace" font-size="11.00" fill="#000000"> &#160;&#160;&#160;&#160;&#160;&#160;&#160;&#160;&#160;&#160;&#160;&#160;&#160;&#160;&#160;&#160;&#160;&#160;&#160;&#160;&#160;&#160;&#160;&#160;&#160;&#160;&#160;&#160;&#160;&#160;&#160;&#160;&#160;&#160;&#160;&#160;&#160;&#160;&#160;&#160;TotalJobItems &#160;&#160;&#160;&#160;&#160;&#160;&#160;&#160;&#160;&#160;&#160;&#160;&#160;&#160;&#160;&#160;&#160;&#160;&#160;&#160;&#160;&#160;&#160;&#160;&#160;&#160;&#160;&#160;&#160;&#160;&#160;&#160;&#160;&#160;&#160;&#160;&#160;&#160;</text>
<polygon fill="none" stroke="#99ccff" points="818.0176,-137 818.0176,-154 909.0176,-154 909.0176,-137 818.0176,-137"/>
<text text-anchor="start" x="853.616" y="-142.2" font-family="Courier,monospace" font-size="11.00" fill="#000000">int</text>
<polygon fill="none" stroke="#99ccff" points="159.0176,-120 159.0176,-137 818.0176,-137 818.0176,-120 159.0176,-120"/>
<text text-anchor="start" x="162.0176" y="-125.2" font-family="Courier,monospace" font-size="11.00" fill="#000000"> &#160;&#160;&#160;&#160;&#160;&#160;&#160;&#160;&#160;&#160;&#160;&#160;&#160;&#160;&#160;&#160;&#160;&#160;&#160;&#160;&#160;&#160;&#160;&#160;&#160;&#160;&#160;&#160;&#160;&#160;&#160;&#160;&#160;&#160;&#160;&#160;&#160;&#160;&#160;&#160;NumberOfErrors &#160;&#160;&#160;&#160;&#160;&#160;&#160;&#160;&#160;&#160;&#160;&#160;&#160;&#160;&#160;&#160;&#160;&#160;&#160;&#160;&#160;&#160;&#160;&#160;&#160;&#160;&#160;&#160;&#160;&#160;&#160;&#160;&#160;&#160;&#160;&#160;&#160;&#160;</text>
<polygon fill="none" stroke="#99ccff" points="818.0176,-120 818.0176,-137 909.0176,-137 909.0176,-120 818.0176,-120"/>
<text text-anchor="start" x="853.616" y="-125.2" font-family="Courier,monospace" font-size="11.00" fill="#000000">int</text>
<polygon fill="none" stroke="#99ccff" points="159.0176,-103 159.0176,-120 818.0176,-120 818.0176,-103 159.0176,-103"/>
<text text-anchor="start" x="162.0176" y="-108.2" font-family="Courier,monospace" font-size="11.00" fill="#000000"> &#160;&#160;&#160;&#160;&#160;&#160;&#160;&#160;&#160;&#160;&#160;&#160;&#160;&#160;&#160;&#160;&#160;&#160;&#160;&#160;&#160;&#160;&#160;&#160;&#160;&#160;&#160;&#160;&#160;&#160;&#160;&#160;&#160;&#160;&#160;&#160;&#160;&#160;&#160;&#160;CompletedDate &#160;&#160;&#160;&#160;&#160;&#160;&#160;&#160;&#160;&#160;&#160;&#160;&#160;&#160;&#160;&#160;&#160;&#160;&#160;&#160;&#160;&#160;&#160;&#160;&#160;&#160;&#160;&#160;&#160;&#160;&#160;&#160;&#160;&#160;&#160;&#160;&#160;&#160;</text>
<polygon fill="none" stroke="#99ccff" points="818.0176,-103 818.0176,-120 909.0176,-120 909.0176,-103 818.0176,-103"/>
<text text-anchor="start" x="837.1133" y="-108.2" font-family="Courier,monospace" font-size="11.00" fill="#000000">datetime</text>
<polygon fill="none" stroke="#99ccff" points="159.0176,-86 159.0176,-103 818.0176,-103 818.0176,-86 159.0176,-86"/>
<text text-anchor="start" x="162.0176" y="-91.2" font-family="Courier,monospace" font-size="11.00" fill="#000000"> &#160;&#160;&#160;&#160;&#160;&#160;&#160;&#160;&#160;&#160;&#160;&#160;&#160;&#160;&#160;&#160;&#160;&#160;&#160;&#160;&#160;&#160;&#160;&#160;&#160;&#160;&#160;&#160;&#160;&#160;&#160;&#160;&#160;&#160;&#160;&#160;&#160;&#160;&#160;&#160;MethodName &#160;&#160;&#160;&#160;&#160;&#160;&#160;&#160;&#160;&#160;&#160;&#160;&#160;&#160;&#160;&#160;&#160;&#160;&#160;&#160;&#160;&#160;&#160;&#160;&#160;&#160;&#160;&#160;&#160;&#160;&#160;&#160;&#160;&#160;&#160;&#160;&#160;&#160;</text>
<polygon fill="none" stroke="#99ccff" points="818.0176,-86 818.0176,-103 909.0176,-103 909.0176,-86 818.0176,-86"/>
<text text-anchor="start" x="827.2117" y="-91.2" font-family="Courier,monospace" font-size="11.00" fill="#000000">string(255)</text>
<polygon fill="none" stroke="#99ccff" points="159.0176,-69 159.0176,-86 818.0176,-86 818.0176,-69 159.0176,-69"/>
<text text-anchor="start" x="162.0176" y="-74.2" font-family="Courier,monospace" font-size="11.00" fill="#000000"> &#160;&#160;&#160;&#160;&#160;&#160;&#160;&#160;&#160;&#160;&#160;&#160;&#160;&#160;&#160;&#160;&#160;&#160;&#160;&#160;&#160;&#160;&#160;&#160;&#160;&#160;&#160;&#160;&#160;&#160;&#160;&#160;&#160;&#160;&#160;&#160;&#160;&#160;&#160;&#160;ExtendedStatus &#160;&#160;&#160;&#160;&#160;&#160;&#160;&#160;&#160;&#160;&#160;&#160;&#160;&#160;&#160;&#160;&#160;&#160;&#160;&#160;&#160;&#160;&#160;&#160;&#160;&#160;&#160;&#160;&#160;&#160;&#160;&#160;&#160;&#160;&#160;&#160;&#160;&#160;</text>
<polygon fill="none" stroke="#99ccff" points="818.0176,-69 818.0176,-86 909.0176,-86 909.0176,-69 818.0176,-69"/>
<text text-anchor="start" x="827.2117" y="-74.2" font-family="Courier,monospace" font-size="11.00" fill="#000000">string(255)</text>
<polygon fill="none" stroke="#99ccff" points="159.0176,-52 159.0176,-69 818.0176,-69 818.0176,-52 159.0176,-52"/>
<text text-anchor="start" x="162.0176" y="-57.2" font-family="Courier,monospace" font-size="11.00" fill="#000000"> &#160;&#160;&#160;&#160;&#160;&#160;&#160;&#160;&#160;&#160;&#160;&#160;&#160;&#160;&#160;&#160;&#160;&#160;&#160;&#160;&#160;&#160;&#160;&#160;&#160;&#160;&#160;&#160;&#160;&#160;&#160;&#160;&#160;&#160;&#160;&#160;&#160;&#160;&#160;&#160;ParentJobId &#160;&#160;&#160;&#160;&#160;&#160;&#160;&#160;&#160;&#160;&#160;&#160;&#160;&#160;&#160;&#160;&#160;&#160;&#160;&#160;&#160;&#160;&#160;&#160;&#160;&#160;&#160;&#160;&#160;&#160;&#160;&#160;&#160;&#160;&#160;&#160;&#160;&#160;</text>
<polygon fill="none" stroke="#99ccff" points="818.0176,-52 818.0176,-69 909.0176,-69 909.0176,-52 818.0176,-52"/>
<text text-anchor="start" x="820.6106" y="-57.2" font-family="Courier,monospace" font-size="11.00" fill="#000000">reference(18)</text>
<polygon fill="none" stroke="#99ccff" points="159.0176,-35 159.0176,-52 818.0176,-52 818.0176,-35 159.0176,-35"/>
<text text-anchor="start" x="162.0176" y="-40.2" font-family="Courier,monospace" font-size="11.00" fill="#000000"> &#160;&#160;&#160;&#160;&#160;&#160;&#160;&#160;&#160;&#160;&#160;&#160;&#160;&#160;&#160;&#160;&#160;&#160;&#160;&#160;&#160;&#160;&#160;&#160;&#160;&#160;&#160;&#160;&#160;&#160;&#160;&#160;&#160;&#160;&#160;&#160;&#160;&#160;&#160;&#160;LastProcessed &#160;&#160;&#160;&#160;&#160;&#160;&#160;&#160;&#160;&#160;&#160;&#160;&#160;&#160;&#160;&#160;&#160;&#160;&#160;&#160;&#160;&#160;&#160;&#160;&#160;&#160;&#160;&#160;&#160;&#160;&#160;&#160;&#160;&#160;&#160;&#160;&#160;&#160;</text>
<polygon fill="none" stroke="#99ccff" points="818.0176,-35 818.0176,-52 909.0176,-52 909.0176,-35 818.0176,-35"/>
<text text-anchor="start" x="830.5122" y="-40.2" font-family="Courier,monospace" font-size="11.00" fill="#000000">string(15)</text>
<polygon fill="none" stroke="#99ccff" points="159.0176,-18 159.0176,-35 818.0176,-35 818.0176,-18 159.0176,-18"/>
<text text-anchor="start" x="161.7644" y="-23.2" font-family="Courier,monospace" font-size="11.00" fill="#000000"> &#160;&#160;&#160;&#160;&#160;&#160;&#160;&#160;&#160;&#160;&#160;&#160;&#160;&#160;&#160;&#160;&#160;&#160;&#160;&#160;&#160;&#160;&#160;&#160;&#160;&#160;&#160;&#160;&#160;&#160;&#160;&#160;&#160;&#160;&#160;&#160;&#160;&#160;&#160;&#160;LastProcessedOffset &#160;&#160;&#160;&#160;&#160;&#160;&#160;&#160;&#160;&#160;&#160;&#160;&#160;&#160;&#160;&#160;&#160;&#160;&#160;&#160;&#160;&#160;&#160;&#160;&#160;&#160;&#160;&#160;&#160;&#160;&#160;&#160;&#160;&#160;&#160;&#160;&#160;&#160;</text>
<polygon fill="none" stroke="#99ccff" points="818.0176,-18 818.0176,-35 909.0176,-35 909.0176,-18 818.0176,-18"/>
<text text-anchor="start" x="853.616" y="-23.2" font-family="Courier,monospace" font-size="11.00" fill="#000000">int</text>
<polygon fill="none" stroke="#99ccff" points="158.0176,-17 158.0176,-257 910.0176,-257 910.0176,-17 158.0176,-17"/>
</a>
</g>
</g>
<!-- AsyncApexJob&#45;&gt;AsyncApexJob -->
<g id="edge2" class="edge">
<title>AsyncApexJob:w&#45;&gt;AsyncApexJob:e</title>
<path fill="none" stroke="#3e7ab7" d="M145.9371,-66.5233C55.8547,-118.5739 74.0679,-270 488.5176,-270 922.0176,-270 922.0176,-261.3333 818.0176,-231"/>
<polygon fill="#3e7ab7" stroke="#3e7ab7" points="151.8585,-63.5703 160.6242,-63.2216 155.438,-61.7852 159.0176,-60 159.0176,-60 159.0176,-60 155.438,-61.7852 157.4109,-56.7784 151.8585,-63.5703 151.8585,-63.5703"/>
<ellipse fill="none" stroke="#3e7ab7" cx="148.9948" cy="-64.9985" rx="3.2" ry="3.2"/>
</g>
<!-- ApexClass -->
<g id="node2" class="node">
<title>ApexClass</title>
<text text-anchor="middle" x="37.7048" y="-193.7" font-family="Courier,monospace" font-size="11.00" fill="#000000">ApexClass</text>
</g>
<!-- AsyncApexJob&#45;&gt;ApexClass -->
<g id="edge1" class="edge">
<title>AsyncApexJob:w&#45;&gt;ApexClass:e</title>
<path fill="none" stroke="#ff99cc" d="M144.3654,-197C120.502,-197 95.4841,-197 75.68,-197"/>
<polygon fill="#ff99cc" stroke="#ff99cc" points="151.0176,-197.0001 159.0176,-200.6 155.0176,-197 159.0176,-197 159.0176,-197 159.0176,-197 155.0176,-197 159.0176,-193.4 151.0176,-197.0001 151.0176,-197.0001"/>
<ellipse fill="none" stroke="#ff99cc" cx="147.8176" cy="-197.0001" rx="3.2" ry="3.2"/>
<text text-anchor="middle" x="116.7136" y="-201.8015" font-family="Monaco" font-size="9.00" fill="#000000">ApexClass</text>
</g>
</g>
</svg>
