<?xml version="1.0" encoding="UTF-8" standalone="no"?>
<!DOCTYPE svg PUBLIC "-//W3C//DTD SVG 1.1//EN"
 "http://www.w3.org/Graphics/SVG/1.1/DTD/svg11.dtd">
<!-- Generated by graphviz version 2.40.1 (20161225.0304)
 -->
<!-- Title: Salesforce+ ERD Pages: 1 -->
<svg width="1219pt" height="660pt"
 viewBox="0.00 0.00 1219.05 659.50" xmlns="http://www.w3.org/2000/svg" xmlns:xlink="http://www.w3.org/1999/xlink">
<g id="graph0" class="graph" transform="scale(1 1) rotate(0) translate(4 655.5)">
<title>Salesforce+ ERD</title>
<polygon fill="#efeffd" stroke="transparent" points="-4,4 -4,-655.5 1215.0547,-655.5 1215.0547,4 -4,4"/>
<text text-anchor="middle" x="1162.5481" y="-5.8" font-family="Courier,monospace" font-size="9.00" fill="#000000">Salesforce ERD </text>
<!-- Case -->
<g id="node1" class="node">
<title>Case</title>
<g id="a_node1"><a xlink:href="#" xlink:title=" Case ">
<polygon fill="#ffeeff" stroke="transparent" points="386.0547,-26.5 386.0547,-589.5 1211.0547,-589.5 1211.0547,-26.5 386.0547,-26.5"/>
<polygon fill="#add8e6" stroke="transparent" points="387.5547,-571 387.5547,-588 1210.5547,-588 1210.5547,-571 387.5547,-571"/>
<polygon fill="none" stroke="#99ccff" points="387.5547,-571 387.5547,-588 1210.5547,-588 1210.5547,-571 387.5547,-571"/>
<text text-anchor="start" x="785.8525" y="-577.2" font-family="Courier,monospace" font-weight="bold" font-size="11.00" fill="#000000">Case</text>
<polygon fill="#99ccff" stroke="transparent" points="387.5547,-554 387.5547,-571 1105.5547,-571 1105.5547,-554 387.5547,-554"/>
<polygon fill="none" stroke="#99ccff" points="387.5547,-554 387.5547,-571 1105.5547,-571 1105.5547,-554 387.5547,-554"/>
<text text-anchor="start" x="390.5547" y="-560.2" font-family="Courier,monospace" font-size="11.00" fill="#000000"> &#160;&#160;&#160;&#160;&#160;&#160;&#160;&#160;&#160;&#160;&#160;&#160;&#160;&#160;&#160;&#160;&#160;&#160;&#160;&#160;&#160;&#160;&#160;&#160;&#160;&#160;&#160;&#160;&#160;&#160;&#160;&#160;&#160;&#160;&#160;&#160;&#160;&#160;&#160;&#160;&#160;&#160;</text>
<text text-anchor="start" x="674.4009" y="-560.2" font-family="Courier,monospace" font-weight="bold" font-size="11.00" fill="#000000">Id</text>
<text text-anchor="start" x="687.603" y="-560.2" font-family="Courier,monospace" font-size="11.00" fill="#000000"> &#160;&#160;&#160;&#160;&#160;&#160;&#160;&#160;&#160;&#160;&#160;&#160;&#160;&#160;&#160;&#160;&#160;&#160;&#160;&#160;&#160;&#160;&#160;&#160;&#160;&#160;&#160;&#160;&#160;&#160;&#160;&#160;&#160;&#160;&#160;&#160;&#160;&#160;&#160;</text>
<polygon fill="none" stroke="#99ccff" points="1105.5547,-554 1105.5547,-571 1210.5547,-571 1210.5547,-554 1105.5547,-554"/>
<text text-anchor="start" x="1138.2515" y="-559.2" font-family="Courier,monospace" font-size="11.00" fill="#000000">id(18)</text>
<polygon fill="none" stroke="#99ccff" points="387.5547,-537 387.5547,-554 1105.5547,-554 1105.5547,-537 387.5547,-537"/>
<text text-anchor="start" x="390.5547" y="-542.2" font-family="Courier,monospace" font-size="11.00" fill="#000000"> &#160;&#160;&#160;&#160;&#160;&#160;&#160;&#160;&#160;&#160;&#160;&#160;&#160;&#160;&#160;&#160;&#160;&#160;&#160;&#160;&#160;&#160;&#160;&#160;&#160;&#160;&#160;&#160;&#160;&#160;&#160;&#160;&#160;&#160;&#160;&#160;&#160;&#160;&#160;&#160;IsDeleted &#160;&#160;&#160;&#160;&#160;&#160;&#160;&#160;&#160;&#160;&#160;&#160;&#160;&#160;&#160;&#160;&#160;&#160;&#160;&#160;&#160;&#160;&#160;&#160;&#160;&#160;&#160;&#160;&#160;&#160;&#160;&#160;&#160;&#160;&#160;&#160;&#160;&#160;</text>
<polygon fill="none" stroke="#99ccff" points="1105.5547,-537 1105.5547,-554 1210.5547,-554 1210.5547,-537 1105.5547,-537"/>
<text text-anchor="start" x="1134.9509" y="-542.2" font-family="Courier,monospace" font-size="11.00" fill="#000000">boolean</text>
<polygon fill="none" stroke="#99ccff" points="387.5547,-520 387.5547,-537 1105.5547,-537 1105.5547,-520 387.5547,-520"/>
<text text-anchor="start" x="390.5547" y="-525.2" font-family="Courier,monospace" font-size="11.00" fill="#000000"> &#160;&#160;&#160;&#160;&#160;&#160;&#160;&#160;&#160;&#160;&#160;&#160;&#160;&#160;&#160;&#160;&#160;&#160;&#160;&#160;&#160;&#160;&#160;&#160;&#160;&#160;&#160;&#160;&#160;&#160;&#160;&#160;&#160;&#160;&#160;&#160;&#160;&#160;&#160;&#160;MasterRecordId &#160;&#160;&#160;&#160;&#160;&#160;&#160;&#160;&#160;&#160;&#160;&#160;&#160;&#160;&#160;&#160;&#160;&#160;&#160;&#160;&#160;&#160;&#160;&#160;&#160;&#160;&#160;&#160;&#160;&#160;&#160;&#160;&#160;&#160;&#160;&#160;&#160;&#160;</text>
<polygon fill="none" stroke="#99ccff" points="1105.5547,-520 1105.5547,-537 1210.5547,-537 1210.5547,-520 1105.5547,-520"/>
<text text-anchor="start" x="1115.1477" y="-525.2" font-family="Courier,monospace" font-size="11.00" fill="#000000">reference(18)</text>
<polygon fill="none" stroke="#99ccff" points="387.5547,-503 387.5547,-520 1105.5547,-520 1105.5547,-503 387.5547,-503"/>
<text text-anchor="start" x="390.5547" y="-508.2" font-family="Courier,monospace" font-size="11.00" fill="#000000"> &#160;&#160;&#160;&#160;&#160;&#160;&#160;&#160;&#160;&#160;&#160;&#160;&#160;&#160;&#160;&#160;&#160;&#160;&#160;&#160;&#160;&#160;&#160;&#160;&#160;&#160;&#160;&#160;&#160;&#160;&#160;&#160;&#160;&#160;&#160;&#160;&#160;&#160;&#160;&#160;CaseNumber &#160;&#160;&#160;&#160;&#160;&#160;&#160;&#160;&#160;&#160;&#160;&#160;&#160;&#160;&#160;&#160;&#160;&#160;&#160;&#160;&#160;&#160;&#160;&#160;&#160;&#160;&#160;&#160;&#160;&#160;&#160;&#160;&#160;&#160;&#160;&#160;&#160;&#160;</text>
<polygon fill="none" stroke="#99ccff" points="1105.5547,-503 1105.5547,-520 1210.5547,-520 1210.5547,-503 1105.5547,-503"/>
<text text-anchor="start" x="1125.0493" y="-508.2" font-family="Courier,monospace" font-size="11.00" fill="#000000">string(30)</text>
<polygon fill="none" stroke="#99ccff" points="387.5547,-486 387.5547,-503 1105.5547,-503 1105.5547,-486 387.5547,-486"/>
<text text-anchor="start" x="390.5547" y="-491.2" font-family="Courier,monospace" font-size="11.00" fill="#000000"> &#160;&#160;&#160;&#160;&#160;&#160;&#160;&#160;&#160;&#160;&#160;&#160;&#160;&#160;&#160;&#160;&#160;&#160;&#160;&#160;&#160;&#160;&#160;&#160;&#160;&#160;&#160;&#160;&#160;&#160;&#160;&#160;&#160;&#160;&#160;&#160;&#160;&#160;&#160;&#160;ContactId &#160;&#160;&#160;&#160;&#160;&#160;&#160;&#160;&#160;&#160;&#160;&#160;&#160;&#160;&#160;&#160;&#160;&#160;&#160;&#160;&#160;&#160;&#160;&#160;&#160;&#160;&#160;&#160;&#160;&#160;&#160;&#160;&#160;&#160;&#160;&#160;&#160;&#160;</text>
<polygon fill="none" stroke="#99ccff" points="1105.5547,-486 1105.5547,-503 1210.5547,-503 1210.5547,-486 1105.5547,-486"/>
<text text-anchor="start" x="1115.1477" y="-491.2" font-family="Courier,monospace" font-size="11.00" fill="#000000">reference(18)</text>
<polygon fill="none" stroke="#99ccff" points="387.5547,-469 387.5547,-486 1105.5547,-486 1105.5547,-469 387.5547,-469"/>
<text text-anchor="start" x="390.5547" y="-474.2" font-family="Courier,monospace" font-size="11.00" fill="#000000"> &#160;&#160;&#160;&#160;&#160;&#160;&#160;&#160;&#160;&#160;&#160;&#160;&#160;&#160;&#160;&#160;&#160;&#160;&#160;&#160;&#160;&#160;&#160;&#160;&#160;&#160;&#160;&#160;&#160;&#160;&#160;&#160;&#160;&#160;&#160;&#160;&#160;&#160;&#160;&#160;AccountId &#160;&#160;&#160;&#160;&#160;&#160;&#160;&#160;&#160;&#160;&#160;&#160;&#160;&#160;&#160;&#160;&#160;&#160;&#160;&#160;&#160;&#160;&#160;&#160;&#160;&#160;&#160;&#160;&#160;&#160;&#160;&#160;&#160;&#160;&#160;&#160;&#160;&#160;</text>
<polygon fill="none" stroke="#99ccff" points="1105.5547,-469 1105.5547,-486 1210.5547,-486 1210.5547,-469 1105.5547,-469"/>
<text text-anchor="start" x="1115.1477" y="-474.2" font-family="Courier,monospace" font-size="11.00" fill="#000000">reference(18)</text>
<polygon fill="none" stroke="#99ccff" points="387.5547,-452 387.5547,-469 1105.5547,-469 1105.5547,-452 387.5547,-452"/>
<text text-anchor="start" x="390.5547" y="-457.2" font-family="Courier,monospace" font-size="11.00" fill="#000000"> &#160;&#160;&#160;&#160;&#160;&#160;&#160;&#160;&#160;&#160;&#160;&#160;&#160;&#160;&#160;&#160;&#160;&#160;&#160;&#160;&#160;&#160;&#160;&#160;&#160;&#160;&#160;&#160;&#160;&#160;&#160;&#160;&#160;&#160;&#160;&#160;&#160;&#160;&#160;&#160;SourceId &#160;&#160;&#160;&#160;&#160;&#160;&#160;&#160;&#160;&#160;&#160;&#160;&#160;&#160;&#160;&#160;&#160;&#160;&#160;&#160;&#160;&#160;&#160;&#160;&#160;&#160;&#160;&#160;&#160;&#160;&#160;&#160;&#160;&#160;&#160;&#160;&#160;&#160;</text>
<polygon fill="none" stroke="#99ccff" points="1105.5547,-452 1105.5547,-469 1210.5547,-469 1210.5547,-452 1105.5547,-452"/>
<text text-anchor="start" x="1115.1477" y="-457.2" font-family="Courier,monospace" font-size="11.00" fill="#000000">reference(18)</text>
<polygon fill="none" stroke="#99ccff" points="387.5547,-435 387.5547,-452 1105.5547,-452 1105.5547,-435 387.5547,-435"/>
<text text-anchor="start" x="390.5547" y="-440.2" font-family="Courier,monospace" font-size="11.00" fill="#000000"> &#160;&#160;&#160;&#160;&#160;&#160;&#160;&#160;&#160;&#160;&#160;&#160;&#160;&#160;&#160;&#160;&#160;&#160;&#160;&#160;&#160;&#160;&#160;&#160;&#160;&#160;&#160;&#160;&#160;&#160;&#160;&#160;&#160;&#160;&#160;&#160;&#160;&#160;&#160;&#160;ParentId &#160;&#160;&#160;&#160;&#160;&#160;&#160;&#160;&#160;&#160;&#160;&#160;&#160;&#160;&#160;&#160;&#160;&#160;&#160;&#160;&#160;&#160;&#160;&#160;&#160;&#160;&#160;&#160;&#160;&#160;&#160;&#160;&#160;&#160;&#160;&#160;&#160;&#160;</text>
<polygon fill="none" stroke="#99ccff" points="1105.5547,-435 1105.5547,-452 1210.5547,-452 1210.5547,-435 1105.5547,-435"/>
<text text-anchor="start" x="1115.1477" y="-440.2" font-family="Courier,monospace" font-size="11.00" fill="#000000">reference(18)</text>
<polygon fill="none" stroke="#99ccff" points="387.5547,-418 387.5547,-435 1105.5547,-435 1105.5547,-418 387.5547,-418"/>
<text text-anchor="start" x="390.5547" y="-423.2" font-family="Courier,monospace" font-size="11.00" fill="#000000"> &#160;&#160;&#160;&#160;&#160;&#160;&#160;&#160;&#160;&#160;&#160;&#160;&#160;&#160;&#160;&#160;&#160;&#160;&#160;&#160;&#160;&#160;&#160;&#160;&#160;&#160;&#160;&#160;&#160;&#160;&#160;&#160;&#160;&#160;&#160;&#160;&#160;&#160;&#160;&#160;SuppliedName &#160;&#160;&#160;&#160;&#160;&#160;&#160;&#160;&#160;&#160;&#160;&#160;&#160;&#160;&#160;&#160;&#160;&#160;&#160;&#160;&#160;&#160;&#160;&#160;&#160;&#160;&#160;&#160;&#160;&#160;&#160;&#160;&#160;&#160;&#160;&#160;&#160;&#160;</text>
<polygon fill="none" stroke="#99ccff" points="1105.5547,-418 1105.5547,-435 1210.5547,-435 1210.5547,-418 1105.5547,-418"/>
<text text-anchor="start" x="1125.0493" y="-423.2" font-family="Courier,monospace" font-size="11.00" fill="#000000">string(80)</text>
<polygon fill="none" stroke="#99ccff" points="387.5547,-401 387.5547,-418 1105.5547,-418 1105.5547,-401 387.5547,-401"/>
<text text-anchor="start" x="390.5547" y="-406.2" font-family="Courier,monospace" font-size="11.00" fill="#000000"> &#160;&#160;&#160;&#160;&#160;&#160;&#160;&#160;&#160;&#160;&#160;&#160;&#160;&#160;&#160;&#160;&#160;&#160;&#160;&#160;&#160;&#160;&#160;&#160;&#160;&#160;&#160;&#160;&#160;&#160;&#160;&#160;&#160;&#160;&#160;&#160;&#160;&#160;&#160;&#160;SuppliedEmail &#160;&#160;&#160;&#160;&#160;&#160;&#160;&#160;&#160;&#160;&#160;&#160;&#160;&#160;&#160;&#160;&#160;&#160;&#160;&#160;&#160;&#160;&#160;&#160;&#160;&#160;&#160;&#160;&#160;&#160;&#160;&#160;&#160;&#160;&#160;&#160;&#160;&#160;</text>
<polygon fill="none" stroke="#99ccff" points="1105.5547,-401 1105.5547,-418 1210.5547,-418 1210.5547,-401 1105.5547,-401"/>
<text text-anchor="start" x="1128.3499" y="-406.2" font-family="Courier,monospace" font-size="11.00" fill="#000000">email(80)</text>
<polygon fill="none" stroke="#99ccff" points="387.5547,-384 387.5547,-401 1105.5547,-401 1105.5547,-384 387.5547,-384"/>
<text text-anchor="start" x="390.5547" y="-389.2" font-family="Courier,monospace" font-size="11.00" fill="#000000"> &#160;&#160;&#160;&#160;&#160;&#160;&#160;&#160;&#160;&#160;&#160;&#160;&#160;&#160;&#160;&#160;&#160;&#160;&#160;&#160;&#160;&#160;&#160;&#160;&#160;&#160;&#160;&#160;&#160;&#160;&#160;&#160;&#160;&#160;&#160;&#160;&#160;&#160;&#160;&#160;SuppliedPhone &#160;&#160;&#160;&#160;&#160;&#160;&#160;&#160;&#160;&#160;&#160;&#160;&#160;&#160;&#160;&#160;&#160;&#160;&#160;&#160;&#160;&#160;&#160;&#160;&#160;&#160;&#160;&#160;&#160;&#160;&#160;&#160;&#160;&#160;&#160;&#160;&#160;&#160;</text>
<polygon fill="none" stroke="#99ccff" points="1105.5547,-384 1105.5547,-401 1210.5547,-401 1210.5547,-384 1105.5547,-384"/>
<text text-anchor="start" x="1125.0493" y="-389.2" font-family="Courier,monospace" font-size="11.00" fill="#000000">string(40)</text>
<polygon fill="none" stroke="#99ccff" points="387.5547,-367 387.5547,-384 1105.5547,-384 1105.5547,-367 387.5547,-367"/>
<text text-anchor="start" x="390.5547" y="-372.2" font-family="Courier,monospace" font-size="11.00" fill="#000000"> &#160;&#160;&#160;&#160;&#160;&#160;&#160;&#160;&#160;&#160;&#160;&#160;&#160;&#160;&#160;&#160;&#160;&#160;&#160;&#160;&#160;&#160;&#160;&#160;&#160;&#160;&#160;&#160;&#160;&#160;&#160;&#160;&#160;&#160;&#160;&#160;&#160;&#160;&#160;&#160;SuppliedCompany &#160;&#160;&#160;&#160;&#160;&#160;&#160;&#160;&#160;&#160;&#160;&#160;&#160;&#160;&#160;&#160;&#160;&#160;&#160;&#160;&#160;&#160;&#160;&#160;&#160;&#160;&#160;&#160;&#160;&#160;&#160;&#160;&#160;&#160;&#160;&#160;&#160;&#160;</text>
<polygon fill="none" stroke="#99ccff" points="1105.5547,-367 1105.5547,-384 1210.5547,-384 1210.5547,-367 1105.5547,-367"/>
<text text-anchor="start" x="1125.0493" y="-372.2" font-family="Courier,monospace" font-size="11.00" fill="#000000">string(80)</text>
<polygon fill="none" stroke="#99ccff" points="387.5547,-350 387.5547,-367 1105.5547,-367 1105.5547,-350 387.5547,-350"/>
<text text-anchor="start" x="390.5547" y="-355.2" font-family="Courier,monospace" font-size="11.00" fill="#000000"> &#160;&#160;&#160;&#160;&#160;&#160;&#160;&#160;&#160;&#160;&#160;&#160;&#160;&#160;&#160;&#160;&#160;&#160;&#160;&#160;&#160;&#160;&#160;&#160;&#160;&#160;&#160;&#160;&#160;&#160;&#160;&#160;&#160;&#160;&#160;&#160;&#160;&#160;&#160;&#160;Type &#160;&#160;&#160;&#160;&#160;&#160;&#160;&#160;&#160;&#160;&#160;&#160;&#160;&#160;&#160;&#160;&#160;&#160;&#160;&#160;&#160;&#160;&#160;&#160;&#160;&#160;&#160;&#160;&#160;&#160;&#160;&#160;&#160;&#160;&#160;&#160;&#160;&#160;</text>
<polygon fill="none" stroke="#99ccff" points="1105.5547,-350 1105.5547,-367 1210.5547,-367 1210.5547,-350 1105.5547,-350"/>
<text text-anchor="start" x="1118.4482" y="-355.2" font-family="Courier,monospace" font-size="11.00" fill="#000000">picklist(40)</text>
<polygon fill="none" stroke="#99ccff" points="387.5547,-333 387.5547,-350 1105.5547,-350 1105.5547,-333 387.5547,-333"/>
<text text-anchor="start" x="390.5547" y="-338.2" font-family="Courier,monospace" font-size="11.00" fill="#000000"> &#160;&#160;&#160;&#160;&#160;&#160;&#160;&#160;&#160;&#160;&#160;&#160;&#160;&#160;&#160;&#160;&#160;&#160;&#160;&#160;&#160;&#160;&#160;&#160;&#160;&#160;&#160;&#160;&#160;&#160;&#160;&#160;&#160;&#160;&#160;&#160;&#160;&#160;&#160;&#160;Status &#160;&#160;&#160;&#160;&#160;&#160;&#160;&#160;&#160;&#160;&#160;&#160;&#160;&#160;&#160;&#160;&#160;&#160;&#160;&#160;&#160;&#160;&#160;&#160;&#160;&#160;&#160;&#160;&#160;&#160;&#160;&#160;&#160;&#160;&#160;&#160;&#160;&#160;</text>
<polygon fill="none" stroke="#99ccff" points="1105.5547,-333 1105.5547,-350 1210.5547,-350 1210.5547,-333 1105.5547,-333"/>
<text text-anchor="start" x="1118.4482" y="-338.2" font-family="Courier,monospace" font-size="11.00" fill="#000000">picklist(40)</text>
<polygon fill="none" stroke="#99ccff" points="387.5547,-316 387.5547,-333 1105.5547,-333 1105.5547,-316 387.5547,-316"/>
<text text-anchor="start" x="390.5547" y="-321.2" font-family="Courier,monospace" font-size="11.00" fill="#000000"> &#160;&#160;&#160;&#160;&#160;&#160;&#160;&#160;&#160;&#160;&#160;&#160;&#160;&#160;&#160;&#160;&#160;&#160;&#160;&#160;&#160;&#160;&#160;&#160;&#160;&#160;&#160;&#160;&#160;&#160;&#160;&#160;&#160;&#160;&#160;&#160;&#160;&#160;&#160;&#160;Reason &#160;&#160;&#160;&#160;&#160;&#160;&#160;&#160;&#160;&#160;&#160;&#160;&#160;&#160;&#160;&#160;&#160;&#160;&#160;&#160;&#160;&#160;&#160;&#160;&#160;&#160;&#160;&#160;&#160;&#160;&#160;&#160;&#160;&#160;&#160;&#160;&#160;&#160;</text>
<polygon fill="none" stroke="#99ccff" points="1105.5547,-316 1105.5547,-333 1210.5547,-333 1210.5547,-316 1105.5547,-316"/>
<text text-anchor="start" x="1118.4482" y="-321.2" font-family="Courier,monospace" font-size="11.00" fill="#000000">picklist(40)</text>
<polygon fill="none" stroke="#99ccff" points="387.5547,-299 387.5547,-316 1105.5547,-316 1105.5547,-299 387.5547,-299"/>
<text text-anchor="start" x="390.5547" y="-304.2" font-family="Courier,monospace" font-size="11.00" fill="#000000"> &#160;&#160;&#160;&#160;&#160;&#160;&#160;&#160;&#160;&#160;&#160;&#160;&#160;&#160;&#160;&#160;&#160;&#160;&#160;&#160;&#160;&#160;&#160;&#160;&#160;&#160;&#160;&#160;&#160;&#160;&#160;&#160;&#160;&#160;&#160;&#160;&#160;&#160;&#160;&#160;Origin &#160;&#160;&#160;&#160;&#160;&#160;&#160;&#160;&#160;&#160;&#160;&#160;&#160;&#160;&#160;&#160;&#160;&#160;&#160;&#160;&#160;&#160;&#160;&#160;&#160;&#160;&#160;&#160;&#160;&#160;&#160;&#160;&#160;&#160;&#160;&#160;&#160;&#160;</text>
<polygon fill="none" stroke="#99ccff" points="1105.5547,-299 1105.5547,-316 1210.5547,-316 1210.5547,-299 1105.5547,-299"/>
<text text-anchor="start" x="1118.4482" y="-304.2" font-family="Courier,monospace" font-size="11.00" fill="#000000">picklist(40)</text>
<polygon fill="none" stroke="#99ccff" points="387.5547,-282 387.5547,-299 1105.5547,-299 1105.5547,-282 387.5547,-282"/>
<text text-anchor="start" x="390.5547" y="-287.2" font-family="Courier,monospace" font-size="11.00" fill="#000000"> &#160;&#160;&#160;&#160;&#160;&#160;&#160;&#160;&#160;&#160;&#160;&#160;&#160;&#160;&#160;&#160;&#160;&#160;&#160;&#160;&#160;&#160;&#160;&#160;&#160;&#160;&#160;&#160;&#160;&#160;&#160;&#160;&#160;&#160;&#160;&#160;&#160;&#160;&#160;&#160;Subject &#160;&#160;&#160;&#160;&#160;&#160;&#160;&#160;&#160;&#160;&#160;&#160;&#160;&#160;&#160;&#160;&#160;&#160;&#160;&#160;&#160;&#160;&#160;&#160;&#160;&#160;&#160;&#160;&#160;&#160;&#160;&#160;&#160;&#160;&#160;&#160;&#160;&#160;</text>
<polygon fill="none" stroke="#99ccff" points="1105.5547,-282 1105.5547,-299 1210.5547,-299 1210.5547,-282 1105.5547,-282"/>
<text text-anchor="start" x="1121.7488" y="-287.2" font-family="Courier,monospace" font-size="11.00" fill="#000000">string(255)</text>
<polygon fill="none" stroke="#99ccff" points="387.5547,-265 387.5547,-282 1105.5547,-282 1105.5547,-265 387.5547,-265"/>
<text text-anchor="start" x="390.5547" y="-270.2" font-family="Courier,monospace" font-size="11.00" fill="#000000"> &#160;&#160;&#160;&#160;&#160;&#160;&#160;&#160;&#160;&#160;&#160;&#160;&#160;&#160;&#160;&#160;&#160;&#160;&#160;&#160;&#160;&#160;&#160;&#160;&#160;&#160;&#160;&#160;&#160;&#160;&#160;&#160;&#160;&#160;&#160;&#160;&#160;&#160;&#160;&#160;Priority &#160;&#160;&#160;&#160;&#160;&#160;&#160;&#160;&#160;&#160;&#160;&#160;&#160;&#160;&#160;&#160;&#160;&#160;&#160;&#160;&#160;&#160;&#160;&#160;&#160;&#160;&#160;&#160;&#160;&#160;&#160;&#160;&#160;&#160;&#160;&#160;&#160;&#160;</text>
<polygon fill="none" stroke="#99ccff" points="1105.5547,-265 1105.5547,-282 1210.5547,-282 1210.5547,-265 1105.5547,-265"/>
<text text-anchor="start" x="1118.4482" y="-270.2" font-family="Courier,monospace" font-size="11.00" fill="#000000">picklist(40)</text>
<polygon fill="none" stroke="#99ccff" points="387.5547,-248 387.5547,-265 1105.5547,-265 1105.5547,-248 387.5547,-248"/>
<text text-anchor="start" x="390.5547" y="-253.2" font-family="Courier,monospace" font-size="11.00" fill="#000000"> &#160;&#160;&#160;&#160;&#160;&#160;&#160;&#160;&#160;&#160;&#160;&#160;&#160;&#160;&#160;&#160;&#160;&#160;&#160;&#160;&#160;&#160;&#160;&#160;&#160;&#160;&#160;&#160;&#160;&#160;&#160;&#160;&#160;&#160;&#160;&#160;&#160;&#160;&#160;&#160;Description &#160;&#160;&#160;&#160;&#160;&#160;&#160;&#160;&#160;&#160;&#160;&#160;&#160;&#160;&#160;&#160;&#160;&#160;&#160;&#160;&#160;&#160;&#160;&#160;&#160;&#160;&#160;&#160;&#160;&#160;&#160;&#160;&#160;&#160;&#160;&#160;&#160;&#160;</text>
<polygon fill="none" stroke="#99ccff" points="1105.5547,-248 1105.5547,-265 1210.5547,-265 1210.5547,-248 1105.5547,-248"/>
<text text-anchor="start" x="1108.5466" y="-253.2" font-family="Courier,monospace" font-size="11.00" fill="#000000">textarea(32000)</text>
<polygon fill="none" stroke="#99ccff" points="387.5547,-231 387.5547,-248 1105.5547,-248 1105.5547,-231 387.5547,-231"/>
<text text-anchor="start" x="390.5547" y="-236.2" font-family="Courier,monospace" font-size="11.00" fill="#000000"> &#160;&#160;&#160;&#160;&#160;&#160;&#160;&#160;&#160;&#160;&#160;&#160;&#160;&#160;&#160;&#160;&#160;&#160;&#160;&#160;&#160;&#160;&#160;&#160;&#160;&#160;&#160;&#160;&#160;&#160;&#160;&#160;&#160;&#160;&#160;&#160;&#160;&#160;&#160;&#160;IsClosed &#160;&#160;&#160;&#160;&#160;&#160;&#160;&#160;&#160;&#160;&#160;&#160;&#160;&#160;&#160;&#160;&#160;&#160;&#160;&#160;&#160;&#160;&#160;&#160;&#160;&#160;&#160;&#160;&#160;&#160;&#160;&#160;&#160;&#160;&#160;&#160;&#160;&#160;</text>
<polygon fill="none" stroke="#99ccff" points="1105.5547,-231 1105.5547,-248 1210.5547,-248 1210.5547,-231 1105.5547,-231"/>
<text text-anchor="start" x="1134.9509" y="-236.2" font-family="Courier,monospace" font-size="11.00" fill="#000000">boolean</text>
<polygon fill="none" stroke="#99ccff" points="387.5547,-214 387.5547,-231 1105.5547,-231 1105.5547,-214 387.5547,-214"/>
<text text-anchor="start" x="390.5547" y="-219.2" font-family="Courier,monospace" font-size="11.00" fill="#000000"> &#160;&#160;&#160;&#160;&#160;&#160;&#160;&#160;&#160;&#160;&#160;&#160;&#160;&#160;&#160;&#160;&#160;&#160;&#160;&#160;&#160;&#160;&#160;&#160;&#160;&#160;&#160;&#160;&#160;&#160;&#160;&#160;&#160;&#160;&#160;&#160;&#160;&#160;&#160;&#160;ClosedDate &#160;&#160;&#160;&#160;&#160;&#160;&#160;&#160;&#160;&#160;&#160;&#160;&#160;&#160;&#160;&#160;&#160;&#160;&#160;&#160;&#160;&#160;&#160;&#160;&#160;&#160;&#160;&#160;&#160;&#160;&#160;&#160;&#160;&#160;&#160;&#160;&#160;&#160;</text>
<polygon fill="none" stroke="#99ccff" points="1105.5547,-214 1105.5547,-231 1210.5547,-231 1210.5547,-214 1105.5547,-214"/>
<text text-anchor="start" x="1131.6504" y="-219.2" font-family="Courier,monospace" font-size="11.00" fill="#000000">datetime</text>
<polygon fill="none" stroke="#99ccff" points="387.5547,-197 387.5547,-214 1105.5547,-214 1105.5547,-197 387.5547,-197"/>
<text text-anchor="start" x="390.5547" y="-202.2" font-family="Courier,monospace" font-size="11.00" fill="#000000"> &#160;&#160;&#160;&#160;&#160;&#160;&#160;&#160;&#160;&#160;&#160;&#160;&#160;&#160;&#160;&#160;&#160;&#160;&#160;&#160;&#160;&#160;&#160;&#160;&#160;&#160;&#160;&#160;&#160;&#160;&#160;&#160;&#160;&#160;&#160;&#160;&#160;&#160;&#160;&#160;IsEscalated &#160;&#160;&#160;&#160;&#160;&#160;&#160;&#160;&#160;&#160;&#160;&#160;&#160;&#160;&#160;&#160;&#160;&#160;&#160;&#160;&#160;&#160;&#160;&#160;&#160;&#160;&#160;&#160;&#160;&#160;&#160;&#160;&#160;&#160;&#160;&#160;&#160;&#160;</text>
<polygon fill="none" stroke="#99ccff" points="1105.5547,-197 1105.5547,-214 1210.5547,-214 1210.5547,-197 1105.5547,-197"/>
<text text-anchor="start" x="1134.9509" y="-202.2" font-family="Courier,monospace" font-size="11.00" fill="#000000">boolean</text>
<polygon fill="none" stroke="#99ccff" points="387.5547,-180 387.5547,-197 1105.5547,-197 1105.5547,-180 387.5547,-180"/>
<text text-anchor="start" x="390.5547" y="-185.2" font-family="Courier,monospace" font-size="11.00" fill="#000000"> &#160;&#160;&#160;&#160;&#160;&#160;&#160;&#160;&#160;&#160;&#160;&#160;&#160;&#160;&#160;&#160;&#160;&#160;&#160;&#160;&#160;&#160;&#160;&#160;&#160;&#160;&#160;&#160;&#160;&#160;&#160;&#160;&#160;&#160;&#160;&#160;&#160;&#160;&#160;&#160;OwnerId &#160;&#160;&#160;&#160;&#160;&#160;&#160;&#160;&#160;&#160;&#160;&#160;&#160;&#160;&#160;&#160;&#160;&#160;&#160;&#160;&#160;&#160;&#160;&#160;&#160;&#160;&#160;&#160;&#160;&#160;&#160;&#160;&#160;&#160;&#160;&#160;&#160;&#160;</text>
<polygon fill="none" stroke="#99ccff" points="1105.5547,-180 1105.5547,-197 1210.5547,-197 1210.5547,-180 1105.5547,-180"/>
<text text-anchor="start" x="1115.1477" y="-185.2" font-family="Courier,monospace" font-size="11.00" fill="#000000">reference(18)</text>
<polygon fill="none" stroke="#99ccff" points="387.5547,-163 387.5547,-180 1105.5547,-180 1105.5547,-163 387.5547,-163"/>
<text text-anchor="start" x="390.5547" y="-168.2" font-family="Courier,monospace" font-size="11.00" fill="#000000"> &#160;&#160;&#160;&#160;&#160;&#160;&#160;&#160;&#160;&#160;&#160;&#160;&#160;&#160;&#160;&#160;&#160;&#160;&#160;&#160;&#160;&#160;&#160;&#160;&#160;&#160;&#160;&#160;&#160;&#160;&#160;&#160;&#160;&#160;&#160;&#160;&#160;&#160;&#160;&#160;LastModifiedById &#160;&#160;&#160;&#160;&#160;&#160;&#160;&#160;&#160;&#160;&#160;&#160;&#160;&#160;&#160;&#160;&#160;&#160;&#160;&#160;&#160;&#160;&#160;&#160;&#160;&#160;&#160;&#160;&#160;&#160;&#160;&#160;&#160;&#160;&#160;&#160;&#160;&#160;</text>
<polygon fill="none" stroke="#99ccff" points="1105.5547,-163 1105.5547,-180 1210.5547,-180 1210.5547,-163 1105.5547,-163"/>
<text text-anchor="start" x="1115.1477" y="-168.2" font-family="Courier,monospace" font-size="11.00" fill="#000000">reference(18)</text>
<polygon fill="none" stroke="#99ccff" points="387.5547,-146 387.5547,-163 1105.5547,-163 1105.5547,-146 387.5547,-146"/>
<text text-anchor="start" x="390.5547" y="-151.2" font-family="Courier,monospace" font-size="11.00" fill="#000000"> &#160;&#160;&#160;&#160;&#160;&#160;&#160;&#160;&#160;&#160;&#160;&#160;&#160;&#160;&#160;&#160;&#160;&#160;&#160;&#160;&#160;&#160;&#160;&#160;&#160;&#160;&#160;&#160;&#160;&#160;&#160;&#160;&#160;&#160;&#160;&#160;&#160;&#160;&#160;&#160;ContactPhone &#160;&#160;&#160;&#160;&#160;&#160;&#160;&#160;&#160;&#160;&#160;&#160;&#160;&#160;&#160;&#160;&#160;&#160;&#160;&#160;&#160;&#160;&#160;&#160;&#160;&#160;&#160;&#160;&#160;&#160;&#160;&#160;&#160;&#160;&#160;&#160;&#160;&#160;</text>
<polygon fill="none" stroke="#99ccff" points="1105.5547,-146 1105.5547,-163 1210.5547,-163 1210.5547,-146 1105.5547,-146"/>
<text text-anchor="start" x="1128.3499" y="-151.2" font-family="Courier,monospace" font-size="11.00" fill="#000000">phone(40)</text>
<polygon fill="none" stroke="#99ccff" points="387.5547,-129 387.5547,-146 1105.5547,-146 1105.5547,-129 387.5547,-129"/>
<text text-anchor="start" x="390.5547" y="-134.2" font-family="Courier,monospace" font-size="11.00" fill="#000000"> &#160;&#160;&#160;&#160;&#160;&#160;&#160;&#160;&#160;&#160;&#160;&#160;&#160;&#160;&#160;&#160;&#160;&#160;&#160;&#160;&#160;&#160;&#160;&#160;&#160;&#160;&#160;&#160;&#160;&#160;&#160;&#160;&#160;&#160;&#160;&#160;&#160;&#160;&#160;&#160;ContactMobile &#160;&#160;&#160;&#160;&#160;&#160;&#160;&#160;&#160;&#160;&#160;&#160;&#160;&#160;&#160;&#160;&#160;&#160;&#160;&#160;&#160;&#160;&#160;&#160;&#160;&#160;&#160;&#160;&#160;&#160;&#160;&#160;&#160;&#160;&#160;&#160;&#160;&#160;</text>
<polygon fill="none" stroke="#99ccff" points="1105.5547,-129 1105.5547,-146 1210.5547,-146 1210.5547,-129 1105.5547,-129"/>
<text text-anchor="start" x="1128.3499" y="-134.2" font-family="Courier,monospace" font-size="11.00" fill="#000000">phone(40)</text>
<polygon fill="none" stroke="#99ccff" points="387.5547,-112 387.5547,-129 1105.5547,-129 1105.5547,-112 387.5547,-112"/>
<text text-anchor="start" x="390.5547" y="-117.2" font-family="Courier,monospace" font-size="11.00" fill="#000000"> &#160;&#160;&#160;&#160;&#160;&#160;&#160;&#160;&#160;&#160;&#160;&#160;&#160;&#160;&#160;&#160;&#160;&#160;&#160;&#160;&#160;&#160;&#160;&#160;&#160;&#160;&#160;&#160;&#160;&#160;&#160;&#160;&#160;&#160;&#160;&#160;&#160;&#160;&#160;&#160;ContactEmail &#160;&#160;&#160;&#160;&#160;&#160;&#160;&#160;&#160;&#160;&#160;&#160;&#160;&#160;&#160;&#160;&#160;&#160;&#160;&#160;&#160;&#160;&#160;&#160;&#160;&#160;&#160;&#160;&#160;&#160;&#160;&#160;&#160;&#160;&#160;&#160;&#160;&#160;</text>
<polygon fill="none" stroke="#99ccff" points="1105.5547,-112 1105.5547,-129 1210.5547,-129 1210.5547,-112 1105.5547,-112"/>
<text text-anchor="start" x="1128.3499" y="-117.2" font-family="Courier,monospace" font-size="11.00" fill="#000000">email(80)</text>
<polygon fill="none" stroke="#99ccff" points="387.5547,-95 387.5547,-112 1105.5547,-112 1105.5547,-95 387.5547,-95"/>
<text text-anchor="start" x="390.5547" y="-100.2" font-family="Courier,monospace" font-size="11.00" fill="#000000"> &#160;&#160;&#160;&#160;&#160;&#160;&#160;&#160;&#160;&#160;&#160;&#160;&#160;&#160;&#160;&#160;&#160;&#160;&#160;&#160;&#160;&#160;&#160;&#160;&#160;&#160;&#160;&#160;&#160;&#160;&#160;&#160;&#160;&#160;&#160;&#160;&#160;&#160;&#160;&#160;ContactFax &#160;&#160;&#160;&#160;&#160;&#160;&#160;&#160;&#160;&#160;&#160;&#160;&#160;&#160;&#160;&#160;&#160;&#160;&#160;&#160;&#160;&#160;&#160;&#160;&#160;&#160;&#160;&#160;&#160;&#160;&#160;&#160;&#160;&#160;&#160;&#160;&#160;&#160;</text>
<polygon fill="none" stroke="#99ccff" points="1105.5547,-95 1105.5547,-112 1210.5547,-112 1210.5547,-95 1105.5547,-95"/>
<text text-anchor="start" x="1128.3499" y="-100.2" font-family="Courier,monospace" font-size="11.00" fill="#000000">phone(40)</text>
<polygon fill="none" stroke="#99ccff" points="387.5547,-78 387.5547,-95 1105.5547,-95 1105.5547,-78 387.5547,-78"/>
<text text-anchor="start" x="390.5547" y="-83.2" font-family="Courier,monospace" font-size="11.00" fill="#000000"> &#160;&#160;&#160;&#160;&#160;&#160;&#160;&#160;&#160;&#160;&#160;&#160;&#160;&#160;&#160;&#160;&#160;&#160;&#160;&#160;&#160;&#160;&#160;&#160;&#160;&#160;&#160;&#160;&#160;&#160;&#160;&#160;&#160;&#160;&#160;&#160;&#160;&#160;&#160;&#160;Comments &#160;&#160;&#160;&#160;&#160;&#160;&#160;&#160;&#160;&#160;&#160;&#160;&#160;&#160;&#160;&#160;&#160;&#160;&#160;&#160;&#160;&#160;&#160;&#160;&#160;&#160;&#160;&#160;&#160;&#160;&#160;&#160;&#160;&#160;&#160;&#160;&#160;&#160;</text>
<polygon fill="none" stroke="#99ccff" points="1105.5547,-78 1105.5547,-95 1210.5547,-95 1210.5547,-78 1105.5547,-78"/>
<text text-anchor="start" x="1111.8472" y="-83.2" font-family="Courier,monospace" font-size="11.00" fill="#000000">textarea(4000)</text>
<polygon fill="none" stroke="#99ccff" points="387.5547,-61 387.5547,-78 1105.5547,-78 1105.5547,-61 387.5547,-61"/>
<text text-anchor="start" x="390.5547" y="-66.2" font-family="Courier,monospace" font-size="11.00" fill="#000000"> &#160;&#160;&#160;&#160;&#160;&#160;&#160;&#160;&#160;&#160;&#160;&#160;&#160;&#160;&#160;&#160;&#160;&#160;&#160;&#160;&#160;&#160;&#160;&#160;&#160;&#160;&#160;&#160;&#160;&#160;&#160;&#160;&#160;&#160;&#160;&#160;&#160;&#160;&#160;&#160;LastViewedDate &#160;&#160;&#160;&#160;&#160;&#160;&#160;&#160;&#160;&#160;&#160;&#160;&#160;&#160;&#160;&#160;&#160;&#160;&#160;&#160;&#160;&#160;&#160;&#160;&#160;&#160;&#160;&#160;&#160;&#160;&#160;&#160;&#160;&#160;&#160;&#160;&#160;&#160;</text>
<polygon fill="none" stroke="#99ccff" points="1105.5547,-61 1105.5547,-78 1210.5547,-78 1210.5547,-61 1105.5547,-61"/>
<text text-anchor="start" x="1131.6504" y="-66.2" font-family="Courier,monospace" font-size="11.00" fill="#000000">datetime</text>
<polygon fill="none" stroke="#99ccff" points="387.5547,-44 387.5547,-61 1105.5547,-61 1105.5547,-44 387.5547,-44"/>
<text text-anchor="start" x="390.5547" y="-49.2" font-family="Courier,monospace" font-size="11.00" fill="#000000"> &#160;&#160;&#160;&#160;&#160;&#160;&#160;&#160;&#160;&#160;&#160;&#160;&#160;&#160;&#160;&#160;&#160;&#160;&#160;&#160;&#160;&#160;&#160;&#160;&#160;&#160;&#160;&#160;&#160;&#160;&#160;&#160;&#160;&#160;&#160;&#160;&#160;&#160;&#160;&#160;LastReferencedDate &#160;&#160;&#160;&#160;&#160;&#160;&#160;&#160;&#160;&#160;&#160;&#160;&#160;&#160;&#160;&#160;&#160;&#160;&#160;&#160;&#160;&#160;&#160;&#160;&#160;&#160;&#160;&#160;&#160;&#160;&#160;&#160;&#160;&#160;&#160;&#160;&#160;&#160;</text>
<polygon fill="none" stroke="#99ccff" points="1105.5547,-44 1105.5547,-61 1210.5547,-61 1210.5547,-44 1105.5547,-44"/>
<text text-anchor="start" x="1131.6504" y="-49.2" font-family="Courier,monospace" font-size="11.00" fill="#000000">datetime</text>
<polygon fill="none" stroke="#99ccff" points="387.5547,-27 387.5547,-44 1105.5547,-44 1105.5547,-27 387.5547,-27"/>
<text text-anchor="start" x="390.0967" y="-32.2" font-family="Courier,monospace" font-size="11.00" fill="#000000"> &#160;&#160;&#160;&#160;&#160;&#160;&#160;&#160;&#160;&#160;&#160;&#160;&#160;&#160;&#160;&#160;&#160;&#160;&#160;&#160;&#160;&#160;&#160;&#160;&#160;&#160;&#160;&#160;&#160;&#160;&#160;&#160;&#160;&#160;&#160;&#160;&#160;&#160;&#160;&#160;FinServ__FinancialAccount__c &#160;&#160;&#160;&#160;&#160;&#160;&#160;&#160;&#160;&#160;&#160;&#160;&#160;&#160;&#160;&#160;&#160;&#160;&#160;&#160;&#160;&#160;&#160;&#160;&#160;&#160;&#160;&#160;&#160;&#160;&#160;&#160;&#160;&#160;&#160;&#160;&#160;&#160;</text>
<polygon fill="none" stroke="#99ccff" points="1105.5547,-27 1105.5547,-44 1210.5547,-44 1210.5547,-27 1105.5547,-27"/>
<text text-anchor="start" x="1115.1477" y="-32.2" font-family="Courier,monospace" font-size="11.00" fill="#000000">reference(18)</text>
<polygon fill="none" stroke="#99ccff" points="386.0547,-26.5 386.0547,-589.5 1211.0547,-589.5 1211.0547,-26.5 386.0547,-26.5"/>
</a>
</g>
</g>
<!-- Case&#45;&gt;Case -->
<g id="edge1" class="edge">
<title>Case:w&#45;&gt;Case:e</title>
<path fill="none" stroke="#3e7ab7" d="M374.7484,-535.6317C262.1541,-594.432 278.6055,-602.5 746.5547,-602.5 1231.5547,-602.5 1231.5547,-593.8333 1105.5547,-563"/>
<polygon fill="#3e7ab7" stroke="#3e7ab7" points="380.4507,-532.6788 389.2102,-532.1968 384.0027,-530.8394 387.5547,-529 387.5547,-529 387.5547,-529 384.0027,-530.8394 385.8992,-525.8032 380.4507,-532.6788 380.4507,-532.6788"/>
<ellipse fill="none" stroke="#3e7ab7" cx="377.6091" cy="-534.1503" rx="3.2" ry="3.2"/>
<text text-anchor="middle" x="798.5547" y="-606.6988" font-family="Arial" font-size="12.00" fill="#000000">_</text>
</g>
<!-- Case&#45;&gt;Case -->
<g id="edge8" class="edge">
<title>Case:w&#45;&gt;Case:e</title>
<path fill="none" stroke="#3e7ab7" d="M376.1223,-453.0916C262.0283,-545.8786 276.7109,-602.5 746.5547,-602.5 1231.5547,-602.5 1231.5547,-593.8333 1105.5547,-563"/>
<polygon fill="#3e7ab7" stroke="#3e7ab7" points="381.2932,-448.9794 389.7954,-446.8177 384.424,-446.4897 387.5547,-444 387.5547,-444 387.5547,-444 384.424,-446.4897 385.3139,-441.1823 381.2932,-448.9794 381.2932,-448.9794"/>
<ellipse fill="none" stroke="#3e7ab7" cx="378.7887" cy="-450.9712" rx="3.2" ry="3.2"/>
<text text-anchor="middle" x="798.5547" y="-606.6988" font-family="Arial" font-size="12.00" fill="#000000">Parent</text>
</g>
<!-- Contact -->
<g id="node2" class="node">
<title>Contact</title>
<text text-anchor="middle" x="100.415" y="-580.7" font-family="Courier,monospace" font-size="11.00" fill="#000000">Contact</text>
</g>
<!-- Case&#45;&gt;Contact -->
<g id="edge2" class="edge">
<title>Case:w&#45;&gt;Contact:e</title>
<path fill="none" stroke="#ff99cc" d="M375.6269,-503.3955C372.9905,-516.4561 384.2999,-541.4411 369.0547,-554 300.5968,-610.3949 186.7968,-599.871 131.9187,-590.4995"/>
<polygon fill="#ff99cc" stroke="#ff99cc" points="381.0127,-499.6047 389.6268,-497.9439 384.2837,-497.3023 387.5547,-495 387.5547,-495 387.5547,-495 384.2837,-497.3023 385.4826,-492.0561 381.0127,-499.6047 381.0127,-499.6047"/>
<ellipse fill="none" stroke="#ff99cc" cx="378.3959" cy="-501.4465" rx="3.2" ry="3.2"/>
<text text-anchor="middle" x="293.4424" y="-601.8015" font-family="Monaco" font-size="9.00" fill="#000000">Contact</text>
</g>
<!-- Account -->
<g id="node3" class="node">
<title>Account</title>
<text text-anchor="middle" x="100.415" y="-531.7" font-family="Courier,monospace" font-size="11.00" fill="#000000">Account</text>
</g>
<!-- Case&#45;&gt;Account -->
<g id="edge3" class="edge">
<title>Case:w&#45;&gt;Account:e</title>
<path fill="none" stroke="#ff99cc" d="M377.3658,-488.4762C375.9875,-493.4044 374.539,-498.8732 369.0547,-502 292.7191,-545.5207 184.5631,-543.0687 131.8058,-538.5852"/>
<polygon fill="#ff99cc" stroke="#ff99cc" points="381.977,-483.735 390.1354,-480.51 384.7658,-480.8675 387.5547,-478 387.5547,-478 387.5547,-478 384.7658,-480.8675 384.974,-475.49 381.977,-483.735 381.977,-483.735"/>
<ellipse fill="none" stroke="#ff99cc" cx="379.7459" cy="-486.0289" rx="3.2" ry="3.2"/>
<text text-anchor="middle" x="293.4424" y="-543.8015" font-family="Monaco" font-size="9.00" fill="#000000">Account</text>
</g>
<!-- BusinessMilestone -->
<g id="node4" class="node">
<title>BusinessMilestone</title>
<text text-anchor="middle" x="100.415" y="-482.7" font-family="Courier,monospace" font-size="11.00" fill="#000000">BusinessMilestone</text>
</g>
<!-- Case&#45;&gt;BusinessMilestone -->
<g id="edge4" class="edge">
<title>Case:w&#45;&gt;BusinessMilestone:e</title>
<path fill="none" stroke="#ff99cc" d="M374.3603,-466.8676C372.9175,-467.7156 371.2323,-468.4771 369.0547,-469 300.5534,-485.4496 219.5737,-488.4209 164.5657,-488.0837"/>
<polygon fill="#ff99cc" stroke="#ff99cc" points="380.2449,-464.2507 389.0175,-464.2894 383.8998,-462.6254 387.5547,-461 387.5547,-461 387.5547,-461 383.8998,-462.6254 386.0919,-457.7106 380.2449,-464.2507 380.2449,-464.2507"/>
<ellipse fill="none" stroke="#ff99cc" cx="377.321" cy="-465.551" rx="3.2" ry="3.2"/>
<text text-anchor="middle" x="293.4424" y="-491.8015" font-family="Monaco" font-size="9.00" fill="#000000">Source</text>
</g>
<!-- EmailMessage -->
<g id="node5" class="node">
<title>EmailMessage</title>
<text text-anchor="middle" x="100.415" y="-433.7" font-family="Courier,monospace" font-size="11.00" fill="#000000">EmailMessage</text>
</g>
<!-- Case&#45;&gt;EmailMessage -->
<g id="edge5" class="edge">
<title>Case:w&#45;&gt;EmailMessage:e</title>
<path fill="none" stroke="#ff99cc" d="M373.1193,-458.644C371.9321,-458.4064 370.6054,-458.1846 369.0547,-457.9985 291.9512,-448.7465 201.8861,-442.6639 148.0887,-439.5306"/>
<polygon fill="#ff99cc" stroke="#ff99cc" points="379.6592,-459.7113 386.9748,-464.553 383.6069,-460.3557 387.5547,-461 387.5547,-461 387.5547,-461 383.6069,-460.3557 388.1346,-457.447 379.6592,-459.7113 379.6592,-459.7113"/>
<ellipse fill="none" stroke="#ff99cc" cx="376.5009" cy="-459.1959" rx="3.2" ry="3.2"/>
<text text-anchor="middle" x="293.4424" y="-461.8015" font-family="Monaco" font-size="9.00" fill="#000000">Source</text>
</g>
<!-- InsurancePolicy -->
<g id="node6" class="node">
<title>InsurancePolicy</title>
<text text-anchor="middle" x="100.415" y="-384.7" font-family="Courier,monospace" font-size="11.00" fill="#000000">InsurancePolicy</text>
</g>
<!-- Case&#45;&gt;InsurancePolicy -->
<g id="edge6" class="edge">
<title>Case:w&#45;&gt;InsurancePolicy:e</title>
<path fill="none" stroke="#ff99cc" d="M376.3168,-451.943C374.573,-439.9857 382.4447,-419.2519 369.0547,-408.9985 337.1588,-384.5743 227.1447,-383.4709 158.1877,-385.39"/>
<polygon fill="#ff99cc" stroke="#ff99cc" points="381.3258,-455.9799 385.2957,-463.803 384.4402,-458.49 387.5547,-461 387.5547,-461 387.5547,-461 384.4402,-458.49 389.8137,-458.197 381.3258,-455.9799 381.3258,-455.9799"/>
<ellipse fill="none" stroke="#ff99cc" cx="378.8342" cy="-453.9719" rx="3.2" ry="3.2"/>
<text text-anchor="middle" x="293.4424" y="-412.8015" font-family="Monaco" font-size="9.00" fill="#000000">Source</text>
</g>
<!-- PersonLifeEvent -->
<g id="node7" class="node">
<title>PersonLifeEvent</title>
<text text-anchor="middle" x="100.415" y="-335.7" font-family="Courier,monospace" font-size="11.00" fill="#000000">PersonLifeEvent</text>
</g>
<!-- Case&#45;&gt;PersonLifeEvent -->
<g id="edge7" class="edge">
<title>Case:w&#45;&gt;PersonLifeEvent:e</title>
<path fill="none" stroke="#ff99cc" d="M373.6235,-456.7048C357.9443,-440.9673 397.9145,-386.0251 369.0547,-359.9985 312.2539,-308.7741 218.4287,-314.4155 158.0411,-325.1801"/>
<polygon fill="#ff99cc" stroke="#ff99cc" points="379.9098,-458.6429 386.494,-464.4402 383.7322,-459.8214 387.5547,-461 387.5547,-461 387.5547,-461 383.7322,-459.8214 388.6154,-457.5598 379.9098,-458.6429 379.9098,-458.6429"/>
<ellipse fill="none" stroke="#ff99cc" cx="376.8518" cy="-457.7001" rx="3.2" ry="3.2"/>
<text text-anchor="middle" x="293.4424" y="-363.8015" font-family="Monaco" font-size="9.00" fill="#000000">Source</text>
</g>
<!-- Group -->
<g id="node8" class="node">
<title>Group</title>
<text text-anchor="middle" x="100.415" y="-214.7" font-family="Courier,monospace" font-size="11.00" fill="#000000">Group</text>
</g>
<!-- Case&#45;&gt;Group -->
<g id="edge9" class="edge">
<title>Case:w&#45;&gt;Group:e</title>
<path fill="none" stroke="#ff99cc" d="M375.5226,-196.5088C373.9539,-198.2991 372.0175,-199.959 369.0547,-201 285.0631,-230.5095 177.3167,-225.5143 127.6793,-221.0263"/>
<polygon fill="#ff99cc" stroke="#ff99cc" points="381.0229,-192.6191 389.6333,-190.9393 384.2888,-190.3096 387.5547,-188 387.5547,-188 387.5547,-188 384.2888,-190.3096 385.4761,-185.0607 381.0229,-192.6191 381.0229,-192.6191"/>
<ellipse fill="none" stroke="#ff99cc" cx="378.4102" cy="-194.4668" rx="3.2" ry="3.2"/>
<text text-anchor="middle" x="293.4424" y="-228.8015" font-family="Monaco" font-size="9.00" fill="#000000">Owner</text>
</g>
<!-- User -->
<g id="node9" class="node">
<title>User</title>
<text text-anchor="middle" x="100.415" y="-160.7" font-family="Courier,monospace" font-size="11.00" fill="#000000">User</text>
</g>
<!-- Case&#45;&gt;User -->
<g id="edge10" class="edge">
<title>Case:w&#45;&gt;User:e</title>
<path fill="none" stroke="#ff99cc" d="M373.1105,-186.4737C371.9229,-186.3073 370.5984,-186.1452 369.0547,-185.9985 280.7759,-177.6101 175.9908,-169.5865 127.5086,-165.984"/>
<polygon fill="#ff99cc" stroke="#ff99cc" points="379.599,-187.1593 387.1764,-191.5801 383.5768,-187.5797 387.5547,-188 387.5547,-188 387.5547,-188 383.5768,-187.5797 387.933,-184.4199 379.599,-187.1593 379.599,-187.1593"/>
<ellipse fill="none" stroke="#ff99cc" cx="376.4167" cy="-186.823" rx="3.2" ry="3.2"/>
<text text-anchor="middle" x="293.4424" y="-189.8015" font-family="Monaco" font-size="9.00" fill="#000000">Owner</text>
</g>
<!-- Case&#45;&gt;User -->
<g id="edge11" class="edge">
<title>Case:w&#45;&gt;User:e</title>
<path fill="none" stroke="#ff99cc" d="M375.7999,-162.6259C374.1893,-160.7344 372.1987,-158.9928 369.0547,-157.9985 304.9719,-137.7325 285.0191,-156.2825 217.8301,-157.9985 186.8152,-158.7907 151.2371,-160.7579 127.4486,-162.2255"/>
<polygon fill="#ff99cc" stroke="#ff99cc" points="381.039,-166.3582 385.4659,-173.9321 384.2968,-168.6791 387.5547,-171 387.5547,-171 387.5547,-171 384.2968,-168.6791 389.6435,-168.0679 381.039,-166.3582 381.039,-166.3582"/>
<ellipse fill="none" stroke="#ff99cc" cx="378.4327" cy="-164.5015" rx="3.2" ry="3.2"/>
<text text-anchor="middle" x="293.4424" y="-161.8015" font-family="Monaco" font-size="9.00" fill="#000000">LastModifiedBy</text>
</g>
<!-- FinServ__FinancialAccount__c -->
<g id="node10" class="node">
<title>FinServ__FinancialAccount__c</title>
<text text-anchor="middle" x="100.415" y="-31.7" font-family="Courier,monospace" font-size="11.00" fill="#000000">FinServ__FinancialAccount__c</text>
</g>
<!-- Case&#45;&gt;FinServ__FinancialAccount__c -->
<g id="edge12" class="edge">
<title>Case:w&#45;&gt;FinServ__FinancialAccount__c:e</title>
<path fill="none" stroke="#ff99cc" d="M372.9105,-35C314.8506,-35 251.8568,-35 201.0759,-35"/>
<polygon fill="#ff99cc" stroke="#ff99cc" points="379.5547,-35.0001 387.5547,-38.6 383.5547,-35 387.5547,-35 387.5547,-35 387.5547,-35 383.5547,-35 387.5547,-31.4 379.5547,-35.0001 379.5547,-35.0001"/>
<ellipse fill="none" stroke="#ff99cc" cx="376.3547" cy="-35.0001" rx="3.2" ry="3.2"/>
<text text-anchor="middle" x="293.4424" y="-39.8015" font-family="Monaco" font-size="9.00" fill="#000000">FinServ__FinancialAccount__r</text>
</g>
</g>
</svg>
