<?xml version="1.0" encoding="UTF-8" standalone="no"?>
<!DOCTYPE svg PUBLIC "-//W3C//DTD SVG 1.1//EN"
 "http://www.w3.org/Graphics/SVG/1.1/DTD/svg11.dtd">
<!-- Generated by graphviz version 2.40.1 (20161225.0304)
 -->
<!-- Title: Salesforce+ ERD Pages: 1 -->
<svg width="1013pt" height="265pt"
 viewBox="0.00 0.00 1013.42 265.00" xmlns="http://www.w3.org/2000/svg" xmlns:xlink="http://www.w3.org/1999/xlink">
<g id="graph0" class="graph" transform="scale(1 1) rotate(0) translate(4 261)">
<title>Salesforce+ ERD</title>
<polygon fill="#efeffd" stroke="transparent" points="-4,4 -4,-261 1009.4233,-261 1009.4233,4 -4,4"/>
<text text-anchor="middle" x="956.9167" y="-5.8" font-family="Courier,monospace" font-size="9.00" fill="#000000">Salesforce ERD </text>
<!-- ClaimParticipant -->
<g id="node1" class="node">
<title>ClaimParticipant</title>
<g id="a_node1"><a xlink:href="#" xlink:title=" ClaimParticipant ">
<polygon fill="#ffeeff" stroke="transparent" points="193.4233,-17 193.4233,-257 1005.4233,-257 1005.4233,-17 193.4233,-17"/>
<polygon fill="#add8e6" stroke="transparent" points="194.4233,-239 194.4233,-256 1004.4233,-256 1004.4233,-239 194.4233,-239"/>
<polygon fill="none" stroke="#99ccff" points="194.4233,-239 194.4233,-256 1004.4233,-256 1004.4233,-239 194.4233,-239"/>
<text text-anchor="start" x="546.6147" y="-245.2" font-family="Courier,monospace" font-weight="bold" font-size="11.00" fill="#000000">ClaimParticipant</text>
<polygon fill="#99ccff" stroke="transparent" points="194.4233,-222 194.4233,-239 873.4233,-239 873.4233,-222 194.4233,-222"/>
<polygon fill="none" stroke="#99ccff" points="194.4233,-222 194.4233,-239 873.4233,-239 873.4233,-222 194.4233,-222"/>
<text text-anchor="start" x="197.4233" y="-228.2" font-family="Courier,monospace" font-size="11.00" fill="#000000"> &#160;&#160;&#160;&#160;&#160;&#160;&#160;&#160;&#160;&#160;&#160;&#160;&#160;&#160;&#160;&#160;&#160;&#160;&#160;&#160;&#160;&#160;&#160;&#160;&#160;&#160;&#160;&#160;&#160;&#160;&#160;&#160;&#160;&#160;&#160;&#160;&#160;&#160;&#160;&#160;&#160;&#160;</text>
<text text-anchor="start" x="481.2695" y="-228.2" font-family="Courier,monospace" font-weight="bold" font-size="11.00" fill="#000000">Id</text>
<text text-anchor="start" x="494.4717" y="-228.2" font-family="Courier,monospace" font-size="11.00" fill="#000000"> &#160;&#160;&#160;&#160;&#160;&#160;&#160;&#160;&#160;&#160;&#160;&#160;&#160;&#160;&#160;&#160;&#160;&#160;&#160;&#160;&#160;&#160;&#160;&#160;&#160;&#160;&#160;&#160;&#160;&#160;&#160;&#160;&#160;&#160;&#160;&#160;&#160;&#160;&#160;</text>
<polygon fill="none" stroke="#99ccff" points="873.4233,-222 873.4233,-239 1004.4233,-239 1004.4233,-222 873.4233,-222"/>
<text text-anchor="start" x="919.1201" y="-227.2" font-family="Courier,monospace" font-size="11.00" fill="#000000">id(18)</text>
<polygon fill="none" stroke="#99ccff" points="194.4233,-205 194.4233,-222 873.4233,-222 873.4233,-205 194.4233,-205"/>
<text text-anchor="start" x="197.4233" y="-210.2" font-family="Courier,monospace" font-size="11.00" fill="#000000"> &#160;&#160;&#160;&#160;&#160;&#160;&#160;&#160;&#160;&#160;&#160;&#160;&#160;&#160;&#160;&#160;&#160;&#160;&#160;&#160;&#160;&#160;&#160;&#160;&#160;&#160;&#160;&#160;&#160;&#160;&#160;&#160;&#160;&#160;&#160;&#160;&#160;&#160;&#160;&#160;IsDeleted &#160;&#160;&#160;&#160;&#160;&#160;&#160;&#160;&#160;&#160;&#160;&#160;&#160;&#160;&#160;&#160;&#160;&#160;&#160;&#160;&#160;&#160;&#160;&#160;&#160;&#160;&#160;&#160;&#160;&#160;&#160;&#160;&#160;&#160;&#160;&#160;&#160;&#160;</text>
<polygon fill="none" stroke="#99ccff" points="873.4233,-205 873.4233,-222 1004.4233,-222 1004.4233,-205 873.4233,-205"/>
<text text-anchor="start" x="915.8196" y="-210.2" font-family="Courier,monospace" font-size="11.00" fill="#000000">boolean</text>
<polygon fill="none" stroke="#99ccff" points="194.4233,-188 194.4233,-205 873.4233,-205 873.4233,-188 194.4233,-188"/>
<text text-anchor="start" x="197.4233" y="-193.2" font-family="Courier,monospace" font-size="11.00" fill="#000000"> &#160;&#160;&#160;&#160;&#160;&#160;&#160;&#160;&#160;&#160;&#160;&#160;&#160;&#160;&#160;&#160;&#160;&#160;&#160;&#160;&#160;&#160;&#160;&#160;&#160;&#160;&#160;&#160;&#160;&#160;&#160;&#160;&#160;&#160;&#160;&#160;&#160;&#160;&#160;&#160;Name &#160;&#160;&#160;&#160;&#160;&#160;&#160;&#160;&#160;&#160;&#160;&#160;&#160;&#160;&#160;&#160;&#160;&#160;&#160;&#160;&#160;&#160;&#160;&#160;&#160;&#160;&#160;&#160;&#160;&#160;&#160;&#160;&#160;&#160;&#160;&#160;&#160;&#160;</text>
<polygon fill="none" stroke="#99ccff" points="873.4233,-188 873.4233,-205 1004.4233,-205 1004.4233,-188 873.4233,-188"/>
<text text-anchor="start" x="902.6174" y="-193.2" font-family="Courier,monospace" font-size="11.00" fill="#000000">string(255)</text>
<polygon fill="none" stroke="#99ccff" points="194.4233,-171 194.4233,-188 873.4233,-188 873.4233,-171 194.4233,-171"/>
<text text-anchor="start" x="197.4233" y="-176.2" font-family="Courier,monospace" font-size="11.00" fill="#000000"> &#160;&#160;&#160;&#160;&#160;&#160;&#160;&#160;&#160;&#160;&#160;&#160;&#160;&#160;&#160;&#160;&#160;&#160;&#160;&#160;&#160;&#160;&#160;&#160;&#160;&#160;&#160;&#160;&#160;&#160;&#160;&#160;&#160;&#160;&#160;&#160;&#160;&#160;&#160;&#160;LastModifiedById &#160;&#160;&#160;&#160;&#160;&#160;&#160;&#160;&#160;&#160;&#160;&#160;&#160;&#160;&#160;&#160;&#160;&#160;&#160;&#160;&#160;&#160;&#160;&#160;&#160;&#160;&#160;&#160;&#160;&#160;&#160;&#160;&#160;&#160;&#160;&#160;&#160;&#160;</text>
<polygon fill="none" stroke="#99ccff" points="873.4233,-171 873.4233,-188 1004.4233,-188 1004.4233,-171 873.4233,-171"/>
<text text-anchor="start" x="896.0164" y="-176.2" font-family="Courier,monospace" font-size="11.00" fill="#000000">reference(18)</text>
<polygon fill="none" stroke="#99ccff" points="194.4233,-154 194.4233,-171 873.4233,-171 873.4233,-154 194.4233,-154"/>
<text text-anchor="start" x="197.4233" y="-159.2" font-family="Courier,monospace" font-size="11.00" fill="#000000"> &#160;&#160;&#160;&#160;&#160;&#160;&#160;&#160;&#160;&#160;&#160;&#160;&#160;&#160;&#160;&#160;&#160;&#160;&#160;&#160;&#160;&#160;&#160;&#160;&#160;&#160;&#160;&#160;&#160;&#160;&#160;&#160;&#160;&#160;&#160;&#160;&#160;&#160;&#160;&#160;LastViewedDate &#160;&#160;&#160;&#160;&#160;&#160;&#160;&#160;&#160;&#160;&#160;&#160;&#160;&#160;&#160;&#160;&#160;&#160;&#160;&#160;&#160;&#160;&#160;&#160;&#160;&#160;&#160;&#160;&#160;&#160;&#160;&#160;&#160;&#160;&#160;&#160;&#160;&#160;</text>
<polygon fill="none" stroke="#99ccff" points="873.4233,-154 873.4233,-171 1004.4233,-171 1004.4233,-154 873.4233,-154"/>
<text text-anchor="start" x="912.519" y="-159.2" font-family="Courier,monospace" font-size="11.00" fill="#000000">datetime</text>
<polygon fill="none" stroke="#99ccff" points="194.4233,-137 194.4233,-154 873.4233,-154 873.4233,-137 194.4233,-137"/>
<text text-anchor="start" x="197.4233" y="-142.2" font-family="Courier,monospace" font-size="11.00" fill="#000000"> &#160;&#160;&#160;&#160;&#160;&#160;&#160;&#160;&#160;&#160;&#160;&#160;&#160;&#160;&#160;&#160;&#160;&#160;&#160;&#160;&#160;&#160;&#160;&#160;&#160;&#160;&#160;&#160;&#160;&#160;&#160;&#160;&#160;&#160;&#160;&#160;&#160;&#160;&#160;&#160;LastReferencedDate &#160;&#160;&#160;&#160;&#160;&#160;&#160;&#160;&#160;&#160;&#160;&#160;&#160;&#160;&#160;&#160;&#160;&#160;&#160;&#160;&#160;&#160;&#160;&#160;&#160;&#160;&#160;&#160;&#160;&#160;&#160;&#160;&#160;&#160;&#160;&#160;&#160;&#160;</text>
<polygon fill="none" stroke="#99ccff" points="873.4233,-137 873.4233,-154 1004.4233,-154 1004.4233,-137 873.4233,-137"/>
<text text-anchor="start" x="912.519" y="-142.2" font-family="Courier,monospace" font-size="11.00" fill="#000000">datetime</text>
<polygon fill="none" stroke="#99ccff" points="194.4233,-120 194.4233,-137 873.4233,-137 873.4233,-120 194.4233,-120"/>
<text text-anchor="start" x="197.4233" y="-125.2" font-family="Courier,monospace" font-size="11.00" fill="#000000"> &#160;&#160;&#160;&#160;&#160;&#160;&#160;&#160;&#160;&#160;&#160;&#160;&#160;&#160;&#160;&#160;&#160;&#160;&#160;&#160;&#160;&#160;&#160;&#160;&#160;&#160;&#160;&#160;&#160;&#160;&#160;&#160;&#160;&#160;&#160;&#160;&#160;&#160;&#160;&#160;ClaimId &#160;&#160;&#160;&#160;&#160;&#160;&#160;&#160;&#160;&#160;&#160;&#160;&#160;&#160;&#160;&#160;&#160;&#160;&#160;&#160;&#160;&#160;&#160;&#160;&#160;&#160;&#160;&#160;&#160;&#160;&#160;&#160;&#160;&#160;&#160;&#160;&#160;&#160;</text>
<polygon fill="none" stroke="#99ccff" points="873.4233,-120 873.4233,-137 1004.4233,-137 1004.4233,-120 873.4233,-120"/>
<text text-anchor="start" x="896.0164" y="-125.2" font-family="Courier,monospace" font-size="11.00" fill="#000000">reference(18)</text>
<polygon fill="none" stroke="#99ccff" points="194.4233,-103 194.4233,-120 873.4233,-120 873.4233,-103 194.4233,-103"/>
<text text-anchor="start" x="197.4233" y="-108.2" font-family="Courier,monospace" font-size="11.00" fill="#000000"> &#160;&#160;&#160;&#160;&#160;&#160;&#160;&#160;&#160;&#160;&#160;&#160;&#160;&#160;&#160;&#160;&#160;&#160;&#160;&#160;&#160;&#160;&#160;&#160;&#160;&#160;&#160;&#160;&#160;&#160;&#160;&#160;&#160;&#160;&#160;&#160;&#160;&#160;&#160;&#160;ParticipantAccountId &#160;&#160;&#160;&#160;&#160;&#160;&#160;&#160;&#160;&#160;&#160;&#160;&#160;&#160;&#160;&#160;&#160;&#160;&#160;&#160;&#160;&#160;&#160;&#160;&#160;&#160;&#160;&#160;&#160;&#160;&#160;&#160;&#160;&#160;&#160;&#160;&#160;&#160;</text>
<polygon fill="none" stroke="#99ccff" points="873.4233,-103 873.4233,-120 1004.4233,-120 1004.4233,-103 873.4233,-103"/>
<text text-anchor="start" x="896.0164" y="-108.2" font-family="Courier,monospace" font-size="11.00" fill="#000000">reference(18)</text>
<polygon fill="none" stroke="#99ccff" points="194.4233,-86 194.4233,-103 873.4233,-103 873.4233,-86 194.4233,-86"/>
<text text-anchor="start" x="197.4233" y="-91.2" font-family="Courier,monospace" font-size="11.00" fill="#000000"> &#160;&#160;&#160;&#160;&#160;&#160;&#160;&#160;&#160;&#160;&#160;&#160;&#160;&#160;&#160;&#160;&#160;&#160;&#160;&#160;&#160;&#160;&#160;&#160;&#160;&#160;&#160;&#160;&#160;&#160;&#160;&#160;&#160;&#160;&#160;&#160;&#160;&#160;&#160;&#160;ParticipantContactId &#160;&#160;&#160;&#160;&#160;&#160;&#160;&#160;&#160;&#160;&#160;&#160;&#160;&#160;&#160;&#160;&#160;&#160;&#160;&#160;&#160;&#160;&#160;&#160;&#160;&#160;&#160;&#160;&#160;&#160;&#160;&#160;&#160;&#160;&#160;&#160;&#160;&#160;</text>
<polygon fill="none" stroke="#99ccff" points="873.4233,-86 873.4233,-103 1004.4233,-103 1004.4233,-86 873.4233,-86"/>
<text text-anchor="start" x="896.0164" y="-91.2" font-family="Courier,monospace" font-size="11.00" fill="#000000">reference(18)</text>
<polygon fill="none" stroke="#99ccff" points="194.4233,-69 194.4233,-86 873.4233,-86 873.4233,-69 194.4233,-69"/>
<text text-anchor="start" x="197.4233" y="-74.2" font-family="Courier,monospace" font-size="11.00" fill="#000000"> &#160;&#160;&#160;&#160;&#160;&#160;&#160;&#160;&#160;&#160;&#160;&#160;&#160;&#160;&#160;&#160;&#160;&#160;&#160;&#160;&#160;&#160;&#160;&#160;&#160;&#160;&#160;&#160;&#160;&#160;&#160;&#160;&#160;&#160;&#160;&#160;&#160;&#160;&#160;&#160;Roles &#160;&#160;&#160;&#160;&#160;&#160;&#160;&#160;&#160;&#160;&#160;&#160;&#160;&#160;&#160;&#160;&#160;&#160;&#160;&#160;&#160;&#160;&#160;&#160;&#160;&#160;&#160;&#160;&#160;&#160;&#160;&#160;&#160;&#160;&#160;&#160;&#160;&#160;</text>
<polygon fill="none" stroke="#99ccff" points="873.4233,-69 873.4233,-86 1004.4233,-86 1004.4233,-69 873.4233,-69"/>
<text text-anchor="start" x="876.2131" y="-74.2" font-family="Courier,monospace" font-size="11.00" fill="#000000">multipicklist(4099)</text>
<polygon fill="none" stroke="#99ccff" points="194.4233,-52 194.4233,-69 873.4233,-69 873.4233,-52 194.4233,-52"/>
<text text-anchor="start" x="197.2686" y="-57.2" font-family="Courier,monospace" font-size="11.00" fill="#000000"> &#160;&#160;&#160;&#160;&#160;&#160;&#160;&#160;&#160;&#160;&#160;&#160;&#160;&#160;&#160;&#160;&#160;&#160;&#160;&#160;&#160;&#160;&#160;&#160;&#160;&#160;&#160;&#160;&#160;&#160;&#160;&#160;&#160;&#160;&#160;&#160;&#160;&#160;&#160;&#160;SourceSystemIdentifier &#160;&#160;&#160;&#160;&#160;&#160;&#160;&#160;&#160;&#160;&#160;&#160;&#160;&#160;&#160;&#160;&#160;&#160;&#160;&#160;&#160;&#160;&#160;&#160;&#160;&#160;&#160;&#160;&#160;&#160;&#160;&#160;&#160;&#160;&#160;&#160;&#160;&#160;</text>
<polygon fill="none" stroke="#99ccff" points="873.4233,-52 873.4233,-69 1004.4233,-69 1004.4233,-52 873.4233,-52"/>
<text text-anchor="start" x="902.6174" y="-57.2" font-family="Courier,monospace" font-size="11.00" fill="#000000">string(255)</text>
<polygon fill="none" stroke="#99ccff" points="194.4233,-35 194.4233,-52 873.4233,-52 873.4233,-35 194.4233,-35"/>
<text text-anchor="start" x="197.4233" y="-40.2" font-family="Courier,monospace" font-size="11.00" fill="#000000"> &#160;&#160;&#160;&#160;&#160;&#160;&#160;&#160;&#160;&#160;&#160;&#160;&#160;&#160;&#160;&#160;&#160;&#160;&#160;&#160;&#160;&#160;&#160;&#160;&#160;&#160;&#160;&#160;&#160;&#160;&#160;&#160;&#160;&#160;&#160;&#160;&#160;&#160;&#160;&#160;SourceSystem &#160;&#160;&#160;&#160;&#160;&#160;&#160;&#160;&#160;&#160;&#160;&#160;&#160;&#160;&#160;&#160;&#160;&#160;&#160;&#160;&#160;&#160;&#160;&#160;&#160;&#160;&#160;&#160;&#160;&#160;&#160;&#160;&#160;&#160;&#160;&#160;&#160;&#160;</text>
<polygon fill="none" stroke="#99ccff" points="873.4233,-35 873.4233,-52 1004.4233,-52 1004.4233,-35 873.4233,-35"/>
<text text-anchor="start" x="902.6174" y="-40.2" font-family="Courier,monospace" font-size="11.00" fill="#000000">string(255)</text>
<polygon fill="none" stroke="#99ccff" points="194.4233,-18 194.4233,-35 873.4233,-35 873.4233,-18 194.4233,-18"/>
<text text-anchor="start" x="197.4233" y="-23.2" font-family="Courier,monospace" font-size="11.00" fill="#000000"> &#160;&#160;&#160;&#160;&#160;&#160;&#160;&#160;&#160;&#160;&#160;&#160;&#160;&#160;&#160;&#160;&#160;&#160;&#160;&#160;&#160;&#160;&#160;&#160;&#160;&#160;&#160;&#160;&#160;&#160;&#160;&#160;&#160;&#160;&#160;&#160;&#160;&#160;&#160;&#160;IsInjured &#160;&#160;&#160;&#160;&#160;&#160;&#160;&#160;&#160;&#160;&#160;&#160;&#160;&#160;&#160;&#160;&#160;&#160;&#160;&#160;&#160;&#160;&#160;&#160;&#160;&#160;&#160;&#160;&#160;&#160;&#160;&#160;&#160;&#160;&#160;&#160;&#160;&#160;</text>
<polygon fill="none" stroke="#99ccff" points="873.4233,-18 873.4233,-35 1004.4233,-35 1004.4233,-18 873.4233,-18"/>
<text text-anchor="start" x="915.8196" y="-23.2" font-family="Courier,monospace" font-size="11.00" fill="#000000">boolean</text>
<polygon fill="none" stroke="#99ccff" points="193.4233,-17 193.4233,-257 1005.4233,-257 1005.4233,-17 193.4233,-17"/>
</a>
</g>
</g>
<!-- User -->
<g id="node2" class="node">
<title>User</title>
<text text-anchor="middle" x="31.1038" y="-191.7" font-family="Courier,monospace" font-size="11.00" fill="#000000">User</text>
</g>
<!-- ClaimParticipant&#45;&gt;User -->
<g id="edge1" class="edge">
<title>ClaimParticipant:w&#45;&gt;User:e</title>
<path fill="none" stroke="#ff99cc" d="M179.8469,-180.1861C135.4267,-181.2815 87.3193,-186.9797 58.1977,-190.9803"/>
<polygon fill="#ff99cc" stroke="#ff99cc" points="186.424,-180.1022 194.4693,-183.5997 190.4237,-180.0511 194.4233,-180 194.4233,-180 194.4233,-180 190.4237,-180.0511 194.3774,-176.4003 186.424,-180.1022 186.424,-180.1022"/>
<ellipse fill="none" stroke="#ff99cc" cx="183.2243" cy="-180.143" rx="3.2" ry="3.2"/>
<text text-anchor="middle" x="127.8154" y="-191.8015" font-family="Monaco" font-size="9.00" fill="#000000">LastModifiedBy</text>
</g>
<!-- Claim -->
<g id="node3" class="node">
<title>Claim</title>
<text text-anchor="middle" x="31.1038" y="-142.7" font-family="Courier,monospace" font-size="11.00" fill="#000000">Claim</text>
</g>
<!-- ClaimParticipant&#45;&gt;Claim -->
<g id="edge2" class="edge">
<title>ClaimParticipant:w&#45;&gt;Claim:e</title>
<path fill="none" stroke="#ff99cc" d="M179.8238,-128.2233C135.3439,-129.5378 87.2621,-136.3756 58.167,-141.1763"/>
<polygon fill="#ff99cc" stroke="#ff99cc" points="186.4243,-128.1224 194.4784,-131.5996 190.4238,-128.0612 194.4233,-128 194.4233,-128 194.4233,-128 190.4238,-128.0612 194.3683,-124.4004 186.4243,-128.1224 186.4243,-128.1224"/>
<ellipse fill="none" stroke="#ff99cc" cx="183.2246" cy="-128.1713" rx="3.2" ry="3.2"/>
<text text-anchor="middle" x="127.8154" y="-141.8015" font-family="Monaco" font-size="9.00" fill="#000000">Claim</text>
</g>
<!-- Account -->
<g id="node4" class="node">
<title>Account</title>
<text text-anchor="middle" x="31.1038" y="-93.7" font-family="Courier,monospace" font-size="11.00" fill="#000000">Account</text>
</g>
<!-- ClaimParticipant&#45;&gt;Account -->
<g id="edge3" class="edge">
<title>ClaimParticipant:w&#45;&gt;Account:e</title>
<path fill="none" stroke="#ff99cc" d="M179.9101,-110.8276C137.5343,-109.8553 91.7681,-104.9675 62.3451,-101.2765"/>
<polygon fill="#ff99cc" stroke="#ff99cc" points="186.4239,-110.9049 194.3806,-114.5997 190.4236,-110.9525 194.4233,-111 194.4233,-111 194.4233,-111 190.4236,-110.9525 194.4661,-107.4003 186.4239,-110.9049 186.4239,-110.9049"/>
<ellipse fill="none" stroke="#ff99cc" cx="183.2241" cy="-110.8669" rx="3.2" ry="3.2"/>
<text text-anchor="middle" x="127.8154" y="-114.8015" font-family="Monaco" font-size="9.00" fill="#000000">ParticipantAccount</text>
</g>
<!-- Contact -->
<g id="node5" class="node">
<title>Contact</title>
<text text-anchor="middle" x="31.1038" y="-44.7" font-family="Courier,monospace" font-size="11.00" fill="#000000">Contact</text>
</g>
<!-- ClaimParticipant&#45;&gt;Contact -->
<g id="edge4" class="edge">
<title>ClaimParticipant:w&#45;&gt;Contact:e</title>
<path fill="none" stroke="#ff99cc" d="M180.6399,-89.5902C179.43,-89.0404 178.0622,-88.4969 176.4233,-87.9985 137.3682,-76.1221 91.9488,-63.8671 62.4243,-56.1051"/>
<polygon fill="#ff99cc" stroke="#ff99cc" points="186.8038,-91.5622 193.3263,-97.4288 190.6136,-92.7811 194.4233,-94 194.4233,-94 194.4233,-94 190.6136,-92.7811 195.5203,-90.5712 186.8038,-91.5622 186.8038,-91.5622"/>
<ellipse fill="none" stroke="#ff99cc" cx="183.756" cy="-90.5871" rx="3.2" ry="3.2"/>
<text text-anchor="middle" x="127.8154" y="-92.8015" font-family="Monaco" font-size="9.00" fill="#000000">ParticipantContact</text>
</g>
</g>
</svg>
