<?xml version="1.0" encoding="UTF-8" standalone="no"?>
<!DOCTYPE svg PUBLIC "-//W3C//DTD SVG 1.1//EN"
 "http://www.w3.org/Graphics/SVG/1.1/DTD/svg11.dtd">
<!-- Generated by graphviz version 2.40.1 (20161225.0304)
 -->
<!-- Title: Salesforce+ ERD Pages: 1 -->
<svg width="919pt" height="172pt"
 viewBox="0.00 0.00 918.82 172.00" xmlns="http://www.w3.org/2000/svg" xmlns:xlink="http://www.w3.org/1999/xlink">
<g id="graph0" class="graph" transform="scale(1 1) rotate(0) translate(4 168)">
<title>Salesforce+ ERD</title>
<polygon fill="#efeffd" stroke="transparent" points="-4,4 -4,-168 914.8198,-168 914.8198,4 -4,4"/>
<text text-anchor="middle" x="862.3132" y="-5.8" font-family="Courier,monospace" font-size="9.00" fill="#000000">Salesforce ERD </text>
<!-- Community -->
<g id="node1" class="node">
<title>Community</title>
<g id="a_node1"><a xlink:href="#" xlink:title=" Community ">
<polygon fill="#ffeeff" stroke="transparent" points="171.8198,-26 171.8198,-164 910.8198,-164 910.8198,-26 171.8198,-26"/>
<polygon fill="#add8e6" stroke="transparent" points="173.3198,-146 173.3198,-163 910.3198,-163 910.3198,-146 173.3198,-146"/>
<polygon fill="none" stroke="#99ccff" points="173.3198,-146 173.3198,-163 910.3198,-163 910.3198,-146 173.3198,-146"/>
<text text-anchor="start" x="512.115" y="-152.2" font-family="Courier,monospace" font-weight="bold" font-size="11.00" fill="#000000">Community</text>
<polygon fill="#99ccff" stroke="transparent" points="173.3198,-129 173.3198,-146 812.3198,-146 812.3198,-129 173.3198,-129"/>
<polygon fill="none" stroke="#99ccff" points="173.3198,-129 173.3198,-146 812.3198,-146 812.3198,-129 173.3198,-129"/>
<text text-anchor="start" x="176.3198" y="-135.2" font-family="Courier,monospace" font-size="11.00" fill="#000000"> &#160;&#160;&#160;&#160;&#160;&#160;&#160;&#160;&#160;&#160;&#160;&#160;&#160;&#160;&#160;&#160;&#160;&#160;&#160;&#160;&#160;&#160;&#160;&#160;&#160;&#160;&#160;&#160;&#160;&#160;&#160;&#160;&#160;&#160;&#160;&#160;&#160;&#160;&#160;&#160;&#160;&#160;</text>
<text text-anchor="start" x="460.166" y="-135.2" font-family="Courier,monospace" font-weight="bold" font-size="11.00" fill="#000000">Id</text>
<text text-anchor="start" x="473.3682" y="-135.2" font-family="Courier,monospace" font-size="11.00" fill="#000000"> &#160;&#160;&#160;&#160;&#160;&#160;&#160;&#160;&#160;&#160;&#160;&#160;&#160;&#160;&#160;&#160;&#160;&#160;&#160;&#160;&#160;&#160;&#160;&#160;&#160;&#160;&#160;&#160;&#160;&#160;&#160;&#160;&#160;&#160;&#160;&#160;&#160;&#160;&#160;</text>
<polygon fill="none" stroke="#99ccff" points="812.3198,-129 812.3198,-146 910.3198,-146 910.3198,-129 812.3198,-129"/>
<text text-anchor="start" x="841.5166" y="-134.2" font-family="Courier,monospace" font-size="11.00" fill="#000000">id(18)</text>
<polygon fill="none" stroke="#99ccff" points="173.3198,-112 173.3198,-129 812.3198,-129 812.3198,-112 173.3198,-112"/>
<text text-anchor="start" x="175.9683" y="-117.2" font-family="Courier,monospace" font-size="11.00" fill="#000000"> &#160;&#160;&#160;&#160;&#160;&#160;&#160;&#160;&#160;&#160;&#160;&#160;&#160;&#160;&#160;&#160;&#160;&#160;&#160;&#160;&#160;&#160;&#160;&#160;&#160;&#160;&#160;&#160;&#160;&#160;&#160;&#160;&#160;&#160;&#160;&#160;&#160;&#160;&#160;&#160;LastModifiedById &#160;&#160;&#160;&#160;&#160;&#160;&#160;&#160;&#160;&#160;&#160;&#160;&#160;&#160;&#160;&#160;&#160;&#160;&#160;&#160;&#160;&#160;&#160;&#160;&#160;&#160;&#160;&#160;&#160;&#160;&#160;&#160;&#160;&#160;&#160;&#160;&#160;&#160;</text>
<polygon fill="none" stroke="#99ccff" points="812.3198,-112 812.3198,-129 910.3198,-129 910.3198,-112 812.3198,-112"/>
<text text-anchor="start" x="818.4128" y="-117.2" font-family="Courier,monospace" font-size="11.00" fill="#000000">reference(18)</text>
<polygon fill="none" stroke="#99ccff" points="173.3198,-95 173.3198,-112 812.3198,-112 812.3198,-95 173.3198,-95"/>
<text text-anchor="start" x="176.3198" y="-100.2" font-family="Courier,monospace" font-size="11.00" fill="#000000"> &#160;&#160;&#160;&#160;&#160;&#160;&#160;&#160;&#160;&#160;&#160;&#160;&#160;&#160;&#160;&#160;&#160;&#160;&#160;&#160;&#160;&#160;&#160;&#160;&#160;&#160;&#160;&#160;&#160;&#160;&#160;&#160;&#160;&#160;&#160;&#160;&#160;&#160;&#160;&#160;Name &#160;&#160;&#160;&#160;&#160;&#160;&#160;&#160;&#160;&#160;&#160;&#160;&#160;&#160;&#160;&#160;&#160;&#160;&#160;&#160;&#160;&#160;&#160;&#160;&#160;&#160;&#160;&#160;&#160;&#160;&#160;&#160;&#160;&#160;&#160;&#160;&#160;&#160;</text>
<polygon fill="none" stroke="#99ccff" points="812.3198,-95 812.3198,-112 910.3198,-112 910.3198,-95 812.3198,-95"/>
<text text-anchor="start" x="828.3145" y="-100.2" font-family="Courier,monospace" font-size="11.00" fill="#000000">string(80)</text>
<polygon fill="none" stroke="#99ccff" points="173.3198,-78 173.3198,-95 812.3198,-95 812.3198,-78 173.3198,-78"/>
<text text-anchor="start" x="176.3198" y="-83.2" font-family="Courier,monospace" font-size="11.00" fill="#000000"> &#160;&#160;&#160;&#160;&#160;&#160;&#160;&#160;&#160;&#160;&#160;&#160;&#160;&#160;&#160;&#160;&#160;&#160;&#160;&#160;&#160;&#160;&#160;&#160;&#160;&#160;&#160;&#160;&#160;&#160;&#160;&#160;&#160;&#160;&#160;&#160;&#160;&#160;&#160;&#160;Description &#160;&#160;&#160;&#160;&#160;&#160;&#160;&#160;&#160;&#160;&#160;&#160;&#160;&#160;&#160;&#160;&#160;&#160;&#160;&#160;&#160;&#160;&#160;&#160;&#160;&#160;&#160;&#160;&#160;&#160;&#160;&#160;&#160;&#160;&#160;&#160;&#160;&#160;</text>
<polygon fill="none" stroke="#99ccff" points="812.3198,-78 812.3198,-95 910.3198,-95 910.3198,-78 812.3198,-78"/>
<text text-anchor="start" x="815.1123" y="-83.2" font-family="Courier,monospace" font-size="11.00" fill="#000000">textarea(1000)</text>
<polygon fill="none" stroke="#99ccff" points="173.3198,-61 173.3198,-78 812.3198,-78 812.3198,-61 173.3198,-61"/>
<text text-anchor="start" x="176.3198" y="-66.2" font-family="Courier,monospace" font-size="11.00" fill="#000000"> &#160;&#160;&#160;&#160;&#160;&#160;&#160;&#160;&#160;&#160;&#160;&#160;&#160;&#160;&#160;&#160;&#160;&#160;&#160;&#160;&#160;&#160;&#160;&#160;&#160;&#160;&#160;&#160;&#160;&#160;&#160;&#160;&#160;&#160;&#160;&#160;&#160;&#160;&#160;&#160;IsActive &#160;&#160;&#160;&#160;&#160;&#160;&#160;&#160;&#160;&#160;&#160;&#160;&#160;&#160;&#160;&#160;&#160;&#160;&#160;&#160;&#160;&#160;&#160;&#160;&#160;&#160;&#160;&#160;&#160;&#160;&#160;&#160;&#160;&#160;&#160;&#160;&#160;&#160;</text>
<polygon fill="none" stroke="#99ccff" points="812.3198,-61 812.3198,-78 910.3198,-78 910.3198,-61 812.3198,-61"/>
<text text-anchor="start" x="838.2161" y="-66.2" font-family="Courier,monospace" font-size="11.00" fill="#000000">boolean</text>
<polygon fill="none" stroke="#99ccff" points="173.3198,-44 173.3198,-61 812.3198,-61 812.3198,-44 173.3198,-44"/>
<text text-anchor="start" x="176.3198" y="-49.2" font-family="Courier,monospace" font-size="11.00" fill="#000000"> &#160;&#160;&#160;&#160;&#160;&#160;&#160;&#160;&#160;&#160;&#160;&#160;&#160;&#160;&#160;&#160;&#160;&#160;&#160;&#160;&#160;&#160;&#160;&#160;&#160;&#160;&#160;&#160;&#160;&#160;&#160;&#160;&#160;&#160;&#160;&#160;&#160;&#160;&#160;&#160;IsPublished &#160;&#160;&#160;&#160;&#160;&#160;&#160;&#160;&#160;&#160;&#160;&#160;&#160;&#160;&#160;&#160;&#160;&#160;&#160;&#160;&#160;&#160;&#160;&#160;&#160;&#160;&#160;&#160;&#160;&#160;&#160;&#160;&#160;&#160;&#160;&#160;&#160;&#160;</text>
<polygon fill="none" stroke="#99ccff" points="812.3198,-44 812.3198,-61 910.3198,-61 910.3198,-44 812.3198,-44"/>
<text text-anchor="start" x="838.2161" y="-49.2" font-family="Courier,monospace" font-size="11.00" fill="#000000">boolean</text>
<polygon fill="none" stroke="#99ccff" points="173.3198,-27 173.3198,-44 812.3198,-44 812.3198,-27 173.3198,-27"/>
<text text-anchor="start" x="176.3198" y="-32.2" font-family="Courier,monospace" font-size="11.00" fill="#000000"> &#160;&#160;&#160;&#160;&#160;&#160;&#160;&#160;&#160;&#160;&#160;&#160;&#160;&#160;&#160;&#160;&#160;&#160;&#160;&#160;&#160;&#160;&#160;&#160;&#160;&#160;&#160;&#160;&#160;&#160;&#160;&#160;&#160;&#160;&#160;&#160;&#160;&#160;&#160;&#160;NetworkId &#160;&#160;&#160;&#160;&#160;&#160;&#160;&#160;&#160;&#160;&#160;&#160;&#160;&#160;&#160;&#160;&#160;&#160;&#160;&#160;&#160;&#160;&#160;&#160;&#160;&#160;&#160;&#160;&#160;&#160;&#160;&#160;&#160;&#160;&#160;&#160;&#160;&#160;</text>
<polygon fill="none" stroke="#99ccff" points="812.3198,-27 812.3198,-44 910.3198,-44 910.3198,-27 812.3198,-27"/>
<text text-anchor="start" x="818.4128" y="-32.2" font-family="Courier,monospace" font-size="11.00" fill="#000000">reference(18)</text>
<polygon fill="none" stroke="#99ccff" points="171.8198,-26 171.8198,-164 910.8198,-164 910.8198,-26 171.8198,-26"/>
</a>
</g>
</g>
<!-- User -->
<g id="node2" class="node">
<title>User</title>
<text text-anchor="middle" x="31.1038" y="-117.7" font-family="Courier,monospace" font-size="11.00" fill="#000000">User</text>
</g>
<!-- Community&#45;&gt;User -->
<g id="edge1" class="edge">
<title>Community:w&#45;&gt;User:e</title>
<path fill="none" stroke="#ff99cc" d="M158.5535,-121C122.3615,-121 83.5288,-121 58.3675,-121"/>
<polygon fill="#ff99cc" stroke="#ff99cc" points="165.3198,-121.0001 173.3198,-124.6 169.3198,-121 173.3198,-121 173.3198,-121 173.3198,-121 169.3198,-121 173.3198,-117.4 165.3198,-121.0001 165.3198,-121.0001"/>
<ellipse fill="none" stroke="#ff99cc" cx="162.1198" cy="-121.0001" rx="3.2" ry="3.2"/>
<text text-anchor="middle" x="117.0137" y="-125.8015" font-family="Monaco" font-size="9.00" fill="#000000">LastModifiedBy</text>
</g>
<!-- Network -->
<g id="node3" class="node">
<title>Network</title>
<text text-anchor="middle" x="31.1038" y="-31.7" font-family="Courier,monospace" font-size="11.00" fill="#000000">Network</text>
</g>
<!-- Community&#45;&gt;Network -->
<g id="edge2" class="edge">
<title>Community:w&#45;&gt;Network:e</title>
<path fill="none" stroke="#ff99cc" d="M158.7858,-35C124.4335,-35 87.6693,-35 62.455,-35"/>
<polygon fill="#ff99cc" stroke="#ff99cc" points="165.3198,-35.0001 173.3198,-38.6 169.3198,-35 173.3198,-35 173.3198,-35 173.3198,-35 169.3198,-35 173.3198,-31.4 165.3198,-35.0001 165.3198,-35.0001"/>
<ellipse fill="none" stroke="#ff99cc" cx="162.1198" cy="-35.0001" rx="3.2" ry="3.2"/>
<text text-anchor="middle" x="117.0137" y="-40.8015" font-family="Monaco" font-size="9.00" fill="#000000">Network</text>
</g>
</g>
</svg>
