<?xml version="1.0" encoding="UTF-8" standalone="no"?>
<!DOCTYPE svg PUBLIC "-//W3C//DTD SVG 1.1//EN"
 "http://www.w3.org/Graphics/SVG/1.1/DTD/svg11.dtd">
<!-- Generated by graphviz version 2.40.1 (20161225.0304)
 -->
<!-- Title: Salesforce+ ERD Pages: 1 -->
<svg width="924pt" height="231pt"
 viewBox="0.00 0.00 923.61 231.00" xmlns="http://www.w3.org/2000/svg" xmlns:xlink="http://www.w3.org/1999/xlink">
<g id="graph0" class="graph" transform="scale(1 1) rotate(0) translate(4 227)">
<title>Salesforce+ ERD</title>
<polygon fill="#efeffd" stroke="transparent" points="-4,4 -4,-227 919.6123,-227 919.6123,4 -4,4"/>
<text text-anchor="middle" x="867.1057" y="-5.8" font-family="Courier,monospace" font-size="9.00" fill="#000000">Salesforce ERD </text>
<!-- CustomNotificationType -->
<g id="node1" class="node">
<title>CustomNotificationType</title>
<g id="a_node1"><a xlink:href="#" xlink:title=" CustomNotificationType ">
<polygon fill="#ffeeff" stroke="transparent" points="163.6123,-17 163.6123,-223 915.6123,-223 915.6123,-17 163.6123,-17"/>
<polygon fill="#add8e6" stroke="transparent" points="164.6123,-205 164.6123,-222 914.6123,-222 914.6123,-205 164.6123,-205"/>
<polygon fill="none" stroke="#99ccff" points="164.6123,-205 164.6123,-222 914.6123,-222 914.6123,-205 164.6123,-205"/>
<text text-anchor="start" x="467.0005" y="-211.2" font-family="Courier,monospace" font-weight="bold" font-size="11.00" fill="#000000">CustomNotificationType</text>
<polygon fill="#99ccff" stroke="transparent" points="164.6123,-188 164.6123,-205 823.6123,-205 823.6123,-188 164.6123,-188"/>
<polygon fill="none" stroke="#99ccff" points="164.6123,-188 164.6123,-205 823.6123,-205 823.6123,-188 164.6123,-188"/>
<text text-anchor="start" x="167.6123" y="-194.2" font-family="Courier,monospace" font-size="11.00" fill="#000000"> &#160;&#160;&#160;&#160;&#160;&#160;&#160;&#160;&#160;&#160;&#160;&#160;&#160;&#160;&#160;&#160;&#160;&#160;&#160;&#160;&#160;&#160;&#160;&#160;&#160;&#160;&#160;&#160;&#160;&#160;&#160;&#160;&#160;&#160;&#160;&#160;&#160;&#160;&#160;&#160;&#160;&#160;</text>
<text text-anchor="start" x="451.4585" y="-194.2" font-family="Courier,monospace" font-weight="bold" font-size="11.00" fill="#000000">Id</text>
<text text-anchor="start" x="464.6606" y="-194.2" font-family="Courier,monospace" font-size="11.00" fill="#000000"> &#160;&#160;&#160;&#160;&#160;&#160;&#160;&#160;&#160;&#160;&#160;&#160;&#160;&#160;&#160;&#160;&#160;&#160;&#160;&#160;&#160;&#160;&#160;&#160;&#160;&#160;&#160;&#160;&#160;&#160;&#160;&#160;&#160;&#160;&#160;&#160;&#160;&#160;&#160;</text>
<polygon fill="none" stroke="#99ccff" points="823.6123,-188 823.6123,-205 914.6123,-205 914.6123,-188 823.6123,-188"/>
<text text-anchor="start" x="849.3091" y="-193.2" font-family="Courier,monospace" font-size="11.00" fill="#000000">id(18)</text>
<polygon fill="none" stroke="#99ccff" points="164.6123,-171 164.6123,-188 823.6123,-188 823.6123,-171 164.6123,-171"/>
<text text-anchor="start" x="167.6123" y="-176.2" font-family="Courier,monospace" font-size="11.00" fill="#000000"> &#160;&#160;&#160;&#160;&#160;&#160;&#160;&#160;&#160;&#160;&#160;&#160;&#160;&#160;&#160;&#160;&#160;&#160;&#160;&#160;&#160;&#160;&#160;&#160;&#160;&#160;&#160;&#160;&#160;&#160;&#160;&#160;&#160;&#160;&#160;&#160;&#160;&#160;&#160;&#160;IsDeleted &#160;&#160;&#160;&#160;&#160;&#160;&#160;&#160;&#160;&#160;&#160;&#160;&#160;&#160;&#160;&#160;&#160;&#160;&#160;&#160;&#160;&#160;&#160;&#160;&#160;&#160;&#160;&#160;&#160;&#160;&#160;&#160;&#160;&#160;&#160;&#160;&#160;&#160;</text>
<polygon fill="none" stroke="#99ccff" points="823.6123,-171 823.6123,-188 914.6123,-188 914.6123,-171 823.6123,-171"/>
<text text-anchor="start" x="846.0085" y="-176.2" font-family="Courier,monospace" font-size="11.00" fill="#000000">boolean</text>
<polygon fill="none" stroke="#99ccff" points="164.6123,-154 164.6123,-171 823.6123,-171 823.6123,-154 164.6123,-154"/>
<text text-anchor="start" x="167.6123" y="-159.2" font-family="Courier,monospace" font-size="11.00" fill="#000000"> &#160;&#160;&#160;&#160;&#160;&#160;&#160;&#160;&#160;&#160;&#160;&#160;&#160;&#160;&#160;&#160;&#160;&#160;&#160;&#160;&#160;&#160;&#160;&#160;&#160;&#160;&#160;&#160;&#160;&#160;&#160;&#160;&#160;&#160;&#160;&#160;&#160;&#160;&#160;&#160;DeveloperName &#160;&#160;&#160;&#160;&#160;&#160;&#160;&#160;&#160;&#160;&#160;&#160;&#160;&#160;&#160;&#160;&#160;&#160;&#160;&#160;&#160;&#160;&#160;&#160;&#160;&#160;&#160;&#160;&#160;&#160;&#160;&#160;&#160;&#160;&#160;&#160;&#160;&#160;</text>
<polygon fill="none" stroke="#99ccff" points="823.6123,-154 823.6123,-171 914.6123,-171 914.6123,-154 823.6123,-154"/>
<text text-anchor="start" x="836.1069" y="-159.2" font-family="Courier,monospace" font-size="11.00" fill="#000000">string(80)</text>
<polygon fill="none" stroke="#99ccff" points="164.6123,-137 164.6123,-154 823.6123,-154 823.6123,-137 164.6123,-137"/>
<text text-anchor="start" x="167.6123" y="-142.2" font-family="Courier,monospace" font-size="11.00" fill="#000000"> &#160;&#160;&#160;&#160;&#160;&#160;&#160;&#160;&#160;&#160;&#160;&#160;&#160;&#160;&#160;&#160;&#160;&#160;&#160;&#160;&#160;&#160;&#160;&#160;&#160;&#160;&#160;&#160;&#160;&#160;&#160;&#160;&#160;&#160;&#160;&#160;&#160;&#160;&#160;&#160;Language &#160;&#160;&#160;&#160;&#160;&#160;&#160;&#160;&#160;&#160;&#160;&#160;&#160;&#160;&#160;&#160;&#160;&#160;&#160;&#160;&#160;&#160;&#160;&#160;&#160;&#160;&#160;&#160;&#160;&#160;&#160;&#160;&#160;&#160;&#160;&#160;&#160;&#160;</text>
<polygon fill="none" stroke="#99ccff" points="823.6123,-137 823.6123,-154 914.6123,-154 914.6123,-137 823.6123,-137"/>
<text text-anchor="start" x="829.5059" y="-142.2" font-family="Courier,monospace" font-size="11.00" fill="#000000">picklist(40)</text>
<polygon fill="none" stroke="#99ccff" points="164.6123,-120 164.6123,-137 823.6123,-137 823.6123,-120 164.6123,-120"/>
<text text-anchor="start" x="167.6123" y="-125.2" font-family="Courier,monospace" font-size="11.00" fill="#000000"> &#160;&#160;&#160;&#160;&#160;&#160;&#160;&#160;&#160;&#160;&#160;&#160;&#160;&#160;&#160;&#160;&#160;&#160;&#160;&#160;&#160;&#160;&#160;&#160;&#160;&#160;&#160;&#160;&#160;&#160;&#160;&#160;&#160;&#160;&#160;&#160;&#160;&#160;&#160;&#160;MasterLabel &#160;&#160;&#160;&#160;&#160;&#160;&#160;&#160;&#160;&#160;&#160;&#160;&#160;&#160;&#160;&#160;&#160;&#160;&#160;&#160;&#160;&#160;&#160;&#160;&#160;&#160;&#160;&#160;&#160;&#160;&#160;&#160;&#160;&#160;&#160;&#160;&#160;&#160;</text>
<polygon fill="none" stroke="#99ccff" points="823.6123,-120 823.6123,-137 914.6123,-137 914.6123,-120 823.6123,-120"/>
<text text-anchor="start" x="836.1069" y="-125.2" font-family="Courier,monospace" font-size="11.00" fill="#000000">string(80)</text>
<polygon fill="none" stroke="#99ccff" points="164.6123,-103 164.6123,-120 823.6123,-120 823.6123,-103 164.6123,-103"/>
<text text-anchor="start" x="167.6123" y="-108.2" font-family="Courier,monospace" font-size="11.00" fill="#000000"> &#160;&#160;&#160;&#160;&#160;&#160;&#160;&#160;&#160;&#160;&#160;&#160;&#160;&#160;&#160;&#160;&#160;&#160;&#160;&#160;&#160;&#160;&#160;&#160;&#160;&#160;&#160;&#160;&#160;&#160;&#160;&#160;&#160;&#160;&#160;&#160;&#160;&#160;&#160;&#160;NamespacePrefix &#160;&#160;&#160;&#160;&#160;&#160;&#160;&#160;&#160;&#160;&#160;&#160;&#160;&#160;&#160;&#160;&#160;&#160;&#160;&#160;&#160;&#160;&#160;&#160;&#160;&#160;&#160;&#160;&#160;&#160;&#160;&#160;&#160;&#160;&#160;&#160;&#160;&#160;</text>
<polygon fill="none" stroke="#99ccff" points="823.6123,-103 823.6123,-120 914.6123,-120 914.6123,-103 823.6123,-103"/>
<text text-anchor="start" x="836.1069" y="-108.2" font-family="Courier,monospace" font-size="11.00" fill="#000000">string(15)</text>
<polygon fill="none" stroke="#99ccff" points="164.6123,-86 164.6123,-103 823.6123,-103 823.6123,-86 164.6123,-86"/>
<text text-anchor="start" x="167.6123" y="-91.2" font-family="Courier,monospace" font-size="11.00" fill="#000000"> &#160;&#160;&#160;&#160;&#160;&#160;&#160;&#160;&#160;&#160;&#160;&#160;&#160;&#160;&#160;&#160;&#160;&#160;&#160;&#160;&#160;&#160;&#160;&#160;&#160;&#160;&#160;&#160;&#160;&#160;&#160;&#160;&#160;&#160;&#160;&#160;&#160;&#160;&#160;&#160;LastModifiedById &#160;&#160;&#160;&#160;&#160;&#160;&#160;&#160;&#160;&#160;&#160;&#160;&#160;&#160;&#160;&#160;&#160;&#160;&#160;&#160;&#160;&#160;&#160;&#160;&#160;&#160;&#160;&#160;&#160;&#160;&#160;&#160;&#160;&#160;&#160;&#160;&#160;&#160;</text>
<polygon fill="none" stroke="#99ccff" points="823.6123,-86 823.6123,-103 914.6123,-103 914.6123,-86 823.6123,-86"/>
<text text-anchor="start" x="826.2053" y="-91.2" font-family="Courier,monospace" font-size="11.00" fill="#000000">reference(18)</text>
<polygon fill="none" stroke="#99ccff" points="164.6123,-69 164.6123,-86 823.6123,-86 823.6123,-69 164.6123,-69"/>
<text text-anchor="start" x="167.3591" y="-74.2" font-family="Courier,monospace" font-size="11.00" fill="#000000"> &#160;&#160;&#160;&#160;&#160;&#160;&#160;&#160;&#160;&#160;&#160;&#160;&#160;&#160;&#160;&#160;&#160;&#160;&#160;&#160;&#160;&#160;&#160;&#160;&#160;&#160;&#160;&#160;&#160;&#160;&#160;&#160;&#160;&#160;&#160;&#160;&#160;&#160;&#160;&#160;CustomNotifTypeName &#160;&#160;&#160;&#160;&#160;&#160;&#160;&#160;&#160;&#160;&#160;&#160;&#160;&#160;&#160;&#160;&#160;&#160;&#160;&#160;&#160;&#160;&#160;&#160;&#160;&#160;&#160;&#160;&#160;&#160;&#160;&#160;&#160;&#160;&#160;&#160;&#160;&#160;</text>
<polygon fill="none" stroke="#99ccff" points="823.6123,-69 823.6123,-86 914.6123,-86 914.6123,-69 823.6123,-69"/>
<text text-anchor="start" x="836.1069" y="-74.2" font-family="Courier,monospace" font-size="11.00" fill="#000000">string(80)</text>
<polygon fill="none" stroke="#99ccff" points="164.6123,-52 164.6123,-69 823.6123,-69 823.6123,-52 164.6123,-52"/>
<text text-anchor="start" x="167.6123" y="-57.2" font-family="Courier,monospace" font-size="11.00" fill="#000000"> &#160;&#160;&#160;&#160;&#160;&#160;&#160;&#160;&#160;&#160;&#160;&#160;&#160;&#160;&#160;&#160;&#160;&#160;&#160;&#160;&#160;&#160;&#160;&#160;&#160;&#160;&#160;&#160;&#160;&#160;&#160;&#160;&#160;&#160;&#160;&#160;&#160;&#160;&#160;&#160;Description &#160;&#160;&#160;&#160;&#160;&#160;&#160;&#160;&#160;&#160;&#160;&#160;&#160;&#160;&#160;&#160;&#160;&#160;&#160;&#160;&#160;&#160;&#160;&#160;&#160;&#160;&#160;&#160;&#160;&#160;&#160;&#160;&#160;&#160;&#160;&#160;&#160;&#160;</text>
<polygon fill="none" stroke="#99ccff" points="823.6123,-52 823.6123,-69 914.6123,-69 914.6123,-52 823.6123,-52"/>
<text text-anchor="start" x="826.2053" y="-57.2" font-family="Courier,monospace" font-size="11.00" fill="#000000">textarea(255)</text>
<polygon fill="none" stroke="#99ccff" points="164.6123,-35 164.6123,-52 823.6123,-52 823.6123,-35 164.6123,-35"/>
<text text-anchor="start" x="167.6123" y="-40.2" font-family="Courier,monospace" font-size="11.00" fill="#000000"> &#160;&#160;&#160;&#160;&#160;&#160;&#160;&#160;&#160;&#160;&#160;&#160;&#160;&#160;&#160;&#160;&#160;&#160;&#160;&#160;&#160;&#160;&#160;&#160;&#160;&#160;&#160;&#160;&#160;&#160;&#160;&#160;&#160;&#160;&#160;&#160;&#160;&#160;&#160;&#160;Desktop &#160;&#160;&#160;&#160;&#160;&#160;&#160;&#160;&#160;&#160;&#160;&#160;&#160;&#160;&#160;&#160;&#160;&#160;&#160;&#160;&#160;&#160;&#160;&#160;&#160;&#160;&#160;&#160;&#160;&#160;&#160;&#160;&#160;&#160;&#160;&#160;&#160;&#160;</text>
<polygon fill="none" stroke="#99ccff" points="823.6123,-35 823.6123,-52 914.6123,-52 914.6123,-35 823.6123,-35"/>
<text text-anchor="start" x="846.0085" y="-40.2" font-family="Courier,monospace" font-size="11.00" fill="#000000">boolean</text>
<polygon fill="none" stroke="#99ccff" points="164.6123,-18 164.6123,-35 823.6123,-35 823.6123,-18 164.6123,-18"/>
<text text-anchor="start" x="167.6123" y="-23.2" font-family="Courier,monospace" font-size="11.00" fill="#000000"> &#160;&#160;&#160;&#160;&#160;&#160;&#160;&#160;&#160;&#160;&#160;&#160;&#160;&#160;&#160;&#160;&#160;&#160;&#160;&#160;&#160;&#160;&#160;&#160;&#160;&#160;&#160;&#160;&#160;&#160;&#160;&#160;&#160;&#160;&#160;&#160;&#160;&#160;&#160;&#160;Mobile &#160;&#160;&#160;&#160;&#160;&#160;&#160;&#160;&#160;&#160;&#160;&#160;&#160;&#160;&#160;&#160;&#160;&#160;&#160;&#160;&#160;&#160;&#160;&#160;&#160;&#160;&#160;&#160;&#160;&#160;&#160;&#160;&#160;&#160;&#160;&#160;&#160;&#160;</text>
<polygon fill="none" stroke="#99ccff" points="823.6123,-18 823.6123,-35 914.6123,-35 914.6123,-18 823.6123,-18"/>
<text text-anchor="start" x="846.0085" y="-23.2" font-family="Courier,monospace" font-size="11.00" fill="#000000">boolean</text>
<polygon fill="none" stroke="#99ccff" points="163.6123,-17 163.6123,-223 915.6123,-223 915.6123,-17 163.6123,-17"/>
</a>
</g>
</g>
<!-- User -->
<g id="node2" class="node">
<title>User</title>
<text text-anchor="middle" x="27" y="-90.7" font-family="Courier,monospace" font-size="11.00" fill="#000000">User</text>
</g>
<!-- CustomNotificationType&#45;&gt;User -->
<g id="edge1" class="edge">
<title>CustomNotificationType:w&#45;&gt;User:e</title>
<path fill="none" stroke="#ff99cc" d="M149.9953,-94C115.4377,-94 78.4424,-94 54.1551,-94"/>
<polygon fill="#ff99cc" stroke="#ff99cc" points="156.6123,-94.0001 164.6123,-97.6 160.6123,-94 164.6123,-94 164.6123,-94 164.6123,-94 160.6123,-94 164.6123,-90.4 156.6123,-94.0001 156.6123,-94.0001"/>
<ellipse fill="none" stroke="#ff99cc" cx="153.4123" cy="-94.0001" rx="3.2" ry="3.2"/>
<text text-anchor="middle" x="108.8062" y="-98.8015" font-family="Monaco" font-size="9.00" fill="#000000">LastModifiedBy</text>
</g>
</g>
</svg>
