<?xml version="1.0" encoding="UTF-8" standalone="no"?>
<!DOCTYPE svg PUBLIC "-//W3C//DTD SVG 1.1//EN"
 "http://www.w3.org/Graphics/SVG/1.1/DTD/svg11.dtd">
<!-- Generated by graphviz version 2.40.1 (20161225.0304)
 -->
<!-- Title: Salesforce+ ERD Pages: 1 -->
<svg width="1004pt" height="197pt"
 viewBox="0.00 0.00 1004.43 197.00" xmlns="http://www.w3.org/2000/svg" xmlns:xlink="http://www.w3.org/1999/xlink">
<g id="graph0" class="graph" transform="scale(1 1) rotate(0) translate(4 193)">
<title>Salesforce+ ERD</title>
<polygon fill="#efeffd" stroke="transparent" points="-4,4 -4,-193 1000.4263,-193 1000.4263,4 -4,4"/>
<text text-anchor="middle" x="947.9197" y="-5.8" font-family="Courier,monospace" font-size="9.00" fill="#000000">Salesforce ERD </text>
<!-- DatasetExportPart -->
<g id="node1" class="node">
<title>DatasetExportPart</title>
<g id="a_node1"><a xlink:href="#" xlink:title=" DatasetExportPart ">
<polygon fill="#ffeeff" stroke="transparent" points="211.4263,-17 211.4263,-189 996.4263,-189 996.4263,-17 211.4263,-17"/>
<polygon fill="#add8e6" stroke="transparent" points="212.9263,-171 212.9263,-188 995.9263,-188 995.9263,-171 212.9263,-171"/>
<polygon fill="none" stroke="#99ccff" points="212.9263,-171 212.9263,-188 995.9263,-188 995.9263,-171 212.9263,-171"/>
<text text-anchor="start" x="548.3171" y="-177.2" font-family="Courier,monospace" font-weight="bold" font-size="11.00" fill="#000000">DatasetExportPart</text>
<polygon fill="#99ccff" stroke="transparent" points="212.9263,-154 212.9263,-171 904.9263,-171 904.9263,-154 212.9263,-154"/>
<polygon fill="none" stroke="#99ccff" points="212.9263,-154 212.9263,-171 904.9263,-171 904.9263,-154 212.9263,-154"/>
<text text-anchor="start" x="215.9263" y="-160.2" font-family="Courier,monospace" font-size="11.00" fill="#000000"> &#160;&#160;&#160;&#160;&#160;&#160;&#160;&#160;&#160;&#160;&#160;&#160;&#160;&#160;&#160;&#160;&#160;&#160;&#160;&#160;&#160;&#160;&#160;&#160;&#160;&#160;&#160;&#160;&#160;&#160;&#160;&#160;&#160;&#160;&#160;&#160;&#160;&#160;&#160;&#160;&#160;&#160;</text>
<text text-anchor="start" x="499.7725" y="-160.2" font-family="Courier,monospace" font-weight="bold" font-size="11.00" fill="#000000">Id</text>
<text text-anchor="start" x="512.9746" y="-160.2" font-family="Courier,monospace" font-size="11.00" fill="#000000"> &#160;&#160;&#160;&#160;&#160;&#160;&#160;&#160;&#160;&#160;&#160;&#160;&#160;&#160;&#160;&#160;&#160;&#160;&#160;&#160;&#160;&#160;&#160;&#160;&#160;&#160;&#160;&#160;&#160;&#160;&#160;&#160;&#160;&#160;&#160;&#160;&#160;&#160;&#160;</text>
<polygon fill="none" stroke="#99ccff" points="904.9263,-154 904.9263,-171 995.9263,-171 995.9263,-154 904.9263,-154"/>
<text text-anchor="start" x="930.623" y="-159.2" font-family="Courier,monospace" font-size="11.00" fill="#000000">id(18)</text>
<polygon fill="none" stroke="#99ccff" points="212.9263,-137 212.9263,-154 904.9263,-154 904.9263,-137 212.9263,-137"/>
<text text-anchor="start" x="215.9263" y="-142.2" font-family="Courier,monospace" font-size="11.00" fill="#000000"> &#160;&#160;&#160;&#160;&#160;&#160;&#160;&#160;&#160;&#160;&#160;&#160;&#160;&#160;&#160;&#160;&#160;&#160;&#160;&#160;&#160;&#160;&#160;&#160;&#160;&#160;&#160;&#160;&#160;&#160;&#160;&#160;&#160;&#160;&#160;&#160;&#160;&#160;&#160;&#160;IsDeleted &#160;&#160;&#160;&#160;&#160;&#160;&#160;&#160;&#160;&#160;&#160;&#160;&#160;&#160;&#160;&#160;&#160;&#160;&#160;&#160;&#160;&#160;&#160;&#160;&#160;&#160;&#160;&#160;&#160;&#160;&#160;&#160;&#160;&#160;&#160;&#160;&#160;&#160;</text>
<polygon fill="none" stroke="#99ccff" points="904.9263,-137 904.9263,-154 995.9263,-154 995.9263,-137 904.9263,-137"/>
<text text-anchor="start" x="927.3225" y="-142.2" font-family="Courier,monospace" font-size="11.00" fill="#000000">boolean</text>
<polygon fill="none" stroke="#99ccff" points="212.9263,-120 212.9263,-137 904.9263,-137 904.9263,-120 212.9263,-120"/>
<text text-anchor="start" x="215.9263" y="-125.2" font-family="Courier,monospace" font-size="11.00" fill="#000000"> &#160;&#160;&#160;&#160;&#160;&#160;&#160;&#160;&#160;&#160;&#160;&#160;&#160;&#160;&#160;&#160;&#160;&#160;&#160;&#160;&#160;&#160;&#160;&#160;&#160;&#160;&#160;&#160;&#160;&#160;&#160;&#160;&#160;&#160;&#160;&#160;&#160;&#160;&#160;&#160;LastModifiedById &#160;&#160;&#160;&#160;&#160;&#160;&#160;&#160;&#160;&#160;&#160;&#160;&#160;&#160;&#160;&#160;&#160;&#160;&#160;&#160;&#160;&#160;&#160;&#160;&#160;&#160;&#160;&#160;&#160;&#160;&#160;&#160;&#160;&#160;&#160;&#160;&#160;&#160;</text>
<polygon fill="none" stroke="#99ccff" points="904.9263,-120 904.9263,-137 995.9263,-137 995.9263,-120 904.9263,-120"/>
<text text-anchor="start" x="907.5193" y="-125.2" font-family="Courier,monospace" font-size="11.00" fill="#000000">reference(18)</text>
<polygon fill="none" stroke="#99ccff" points="212.9263,-103 212.9263,-120 904.9263,-120 904.9263,-103 212.9263,-103"/>
<text text-anchor="start" x="215.9263" y="-108.2" font-family="Courier,monospace" font-size="11.00" fill="#000000"> &#160;&#160;&#160;&#160;&#160;&#160;&#160;&#160;&#160;&#160;&#160;&#160;&#160;&#160;&#160;&#160;&#160;&#160;&#160;&#160;&#160;&#160;&#160;&#160;&#160;&#160;&#160;&#160;&#160;&#160;&#160;&#160;&#160;&#160;&#160;&#160;&#160;&#160;&#160;&#160;DatasetExportId &#160;&#160;&#160;&#160;&#160;&#160;&#160;&#160;&#160;&#160;&#160;&#160;&#160;&#160;&#160;&#160;&#160;&#160;&#160;&#160;&#160;&#160;&#160;&#160;&#160;&#160;&#160;&#160;&#160;&#160;&#160;&#160;&#160;&#160;&#160;&#160;&#160;&#160;</text>
<polygon fill="none" stroke="#99ccff" points="904.9263,-103 904.9263,-120 995.9263,-120 995.9263,-103 904.9263,-103"/>
<text text-anchor="start" x="907.5193" y="-108.2" font-family="Courier,monospace" font-size="11.00" fill="#000000">reference(18)</text>
<polygon fill="none" stroke="#99ccff" points="212.9263,-86 212.9263,-103 904.9263,-103 904.9263,-86 212.9263,-86"/>
<text text-anchor="start" x="215.9263" y="-91.2" font-family="Courier,monospace" font-size="11.00" fill="#000000"> &#160;&#160;&#160;&#160;&#160;&#160;&#160;&#160;&#160;&#160;&#160;&#160;&#160;&#160;&#160;&#160;&#160;&#160;&#160;&#160;&#160;&#160;&#160;&#160;&#160;&#160;&#160;&#160;&#160;&#160;&#160;&#160;&#160;&#160;&#160;&#160;&#160;&#160;&#160;&#160;DataFileLength &#160;&#160;&#160;&#160;&#160;&#160;&#160;&#160;&#160;&#160;&#160;&#160;&#160;&#160;&#160;&#160;&#160;&#160;&#160;&#160;&#160;&#160;&#160;&#160;&#160;&#160;&#160;&#160;&#160;&#160;&#160;&#160;&#160;&#160;&#160;&#160;&#160;&#160;</text>
<polygon fill="none" stroke="#99ccff" points="904.9263,-86 904.9263,-103 995.9263,-103 995.9263,-86 904.9263,-86"/>
<text text-anchor="start" x="940.5247" y="-91.2" font-family="Courier,monospace" font-size="11.00" fill="#000000">int</text>
<polygon fill="none" stroke="#99ccff" points="212.9263,-69 212.9263,-86 904.9263,-86 904.9263,-69 212.9263,-69"/>
<text text-anchor="start" x="215.6704" y="-74.2" font-family="Courier,monospace" font-size="11.00" fill="#000000"> &#160;&#160;&#160;&#160;&#160;&#160;&#160;&#160;&#160;&#160;&#160;&#160;&#160;&#160;&#160;&#160;&#160;&#160;&#160;&#160;&#160;&#160;&#160;&#160;&#160;&#160;&#160;&#160;&#160;&#160;&#160;&#160;&#160;&#160;&#160;&#160;&#160;&#160;&#160;&#160;CompressedDataFileLength &#160;&#160;&#160;&#160;&#160;&#160;&#160;&#160;&#160;&#160;&#160;&#160;&#160;&#160;&#160;&#160;&#160;&#160;&#160;&#160;&#160;&#160;&#160;&#160;&#160;&#160;&#160;&#160;&#160;&#160;&#160;&#160;&#160;&#160;&#160;&#160;&#160;&#160;</text>
<polygon fill="none" stroke="#99ccff" points="904.9263,-69 904.9263,-86 995.9263,-86 995.9263,-69 904.9263,-69"/>
<text text-anchor="start" x="940.5247" y="-74.2" font-family="Courier,monospace" font-size="11.00" fill="#000000">int</text>
<polygon fill="none" stroke="#99ccff" points="212.9263,-52 212.9263,-69 904.9263,-69 904.9263,-52 212.9263,-52"/>
<text text-anchor="start" x="215.9263" y="-57.2" font-family="Courier,monospace" font-size="11.00" fill="#000000"> &#160;&#160;&#160;&#160;&#160;&#160;&#160;&#160;&#160;&#160;&#160;&#160;&#160;&#160;&#160;&#160;&#160;&#160;&#160;&#160;&#160;&#160;&#160;&#160;&#160;&#160;&#160;&#160;&#160;&#160;&#160;&#160;&#160;&#160;&#160;&#160;&#160;&#160;&#160;&#160;PartNumber &#160;&#160;&#160;&#160;&#160;&#160;&#160;&#160;&#160;&#160;&#160;&#160;&#160;&#160;&#160;&#160;&#160;&#160;&#160;&#160;&#160;&#160;&#160;&#160;&#160;&#160;&#160;&#160;&#160;&#160;&#160;&#160;&#160;&#160;&#160;&#160;&#160;&#160;</text>
<polygon fill="none" stroke="#99ccff" points="904.9263,-52 904.9263,-69 995.9263,-69 995.9263,-52 904.9263,-52"/>
<text text-anchor="start" x="940.5247" y="-57.2" font-family="Courier,monospace" font-size="11.00" fill="#000000">int</text>
<polygon fill="none" stroke="#99ccff" points="212.9263,-35 212.9263,-52 904.9263,-52 904.9263,-35 212.9263,-35"/>
<text text-anchor="start" x="215.9263" y="-40.2" font-family="Courier,monospace" font-size="11.00" fill="#000000"> &#160;&#160;&#160;&#160;&#160;&#160;&#160;&#160;&#160;&#160;&#160;&#160;&#160;&#160;&#160;&#160;&#160;&#160;&#160;&#160;&#160;&#160;&#160;&#160;&#160;&#160;&#160;&#160;&#160;&#160;&#160;&#160;&#160;&#160;&#160;&#160;&#160;&#160;&#160;&#160;Owner &#160;&#160;&#160;&#160;&#160;&#160;&#160;&#160;&#160;&#160;&#160;&#160;&#160;&#160;&#160;&#160;&#160;&#160;&#160;&#160;&#160;&#160;&#160;&#160;&#160;&#160;&#160;&#160;&#160;&#160;&#160;&#160;&#160;&#160;&#160;&#160;&#160;&#160;</text>
<polygon fill="none" stroke="#99ccff" points="904.9263,-35 904.9263,-52 995.9263,-52 995.9263,-35 904.9263,-35"/>
<text text-anchor="start" x="917.4209" y="-40.2" font-family="Courier,monospace" font-size="11.00" fill="#000000">string(18)</text>
<polygon fill="none" stroke="#99ccff" points="212.9263,-18 212.9263,-35 904.9263,-35 904.9263,-18 212.9263,-18"/>
<text text-anchor="start" x="215.9263" y="-23.2" font-family="Courier,monospace" font-size="11.00" fill="#000000"> &#160;&#160;&#160;&#160;&#160;&#160;&#160;&#160;&#160;&#160;&#160;&#160;&#160;&#160;&#160;&#160;&#160;&#160;&#160;&#160;&#160;&#160;&#160;&#160;&#160;&#160;&#160;&#160;&#160;&#160;&#160;&#160;&#160;&#160;&#160;&#160;&#160;&#160;&#160;&#160;DataFile &#160;&#160;&#160;&#160;&#160;&#160;&#160;&#160;&#160;&#160;&#160;&#160;&#160;&#160;&#160;&#160;&#160;&#160;&#160;&#160;&#160;&#160;&#160;&#160;&#160;&#160;&#160;&#160;&#160;&#160;&#160;&#160;&#160;&#160;&#160;&#160;&#160;&#160;</text>
<polygon fill="none" stroke="#99ccff" points="904.9263,-18 904.9263,-35 995.9263,-35 995.9263,-18 904.9263,-18"/>
<text text-anchor="start" x="930.623" y="-23.2" font-family="Courier,monospace" font-size="11.00" fill="#000000">base64</text>
<polygon fill="none" stroke="#99ccff" points="211.4263,-17 211.4263,-189 996.4263,-189 996.4263,-17 211.4263,-17"/>
</a>
</g>
</g>
<!-- User -->
<g id="node2" class="node">
<title>User</title>
<text text-anchor="middle" x="50.907" y="-141.7" font-family="Courier,monospace" font-size="11.00" fill="#000000">User</text>
</g>
<!-- DatasetExportPart&#45;&gt;User -->
<g id="edge1" class="edge">
<title>DatasetExportPart:w&#45;&gt;User:e</title>
<path fill="none" stroke="#ff99cc" d="M198.5011,-129.1973C154.5463,-130.3592 106.9779,-136.4037 78.0597,-140.6702"/>
<polygon fill="#ff99cc" stroke="#ff99cc" points="204.927,-129.1095 212.9755,-132.5997 208.9266,-129.0547 212.9263,-129 212.9263,-129 212.9263,-129 208.9266,-129.0547 212.877,-125.4003 204.927,-129.1095 204.927,-129.1095"/>
<ellipse fill="none" stroke="#ff99cc" cx="201.7273" cy="-129.1533" rx="3.2" ry="3.2"/>
<text text-anchor="middle" x="156.6201" y="-139.8015" font-family="Monaco" font-size="9.00" fill="#000000">LastModifiedBy</text>
</g>
<!-- DatasetExport -->
<g id="node3" class="node">
<title>DatasetExport</title>
<text text-anchor="middle" x="50.907" y="-92.7" font-family="Courier,monospace" font-size="11.00" fill="#000000">DatasetExport</text>
</g>
<!-- DatasetExportPart&#45;&gt;DatasetExport -->
<g id="edge2" class="edge">
<title>DatasetExportPart:w&#45;&gt;DatasetExport:e</title>
<path fill="none" stroke="#ff99cc" d="M198.2999,-111.7973C164.9785,-110.9055 129.601,-107.2149 101.8596,-103.6251"/>
<polygon fill="#ff99cc" stroke="#ff99cc" points="204.927,-111.8891 212.8764,-115.5997 208.9267,-111.9446 212.9263,-112 212.9263,-112 212.9263,-112 208.9267,-111.9446 212.9762,-108.4003 204.927,-111.8891 204.927,-111.8891"/>
<ellipse fill="none" stroke="#ff99cc" cx="201.7273" cy="-111.8448" rx="3.2" ry="3.2"/>
<text text-anchor="middle" x="156.6201" y="-115.8015" font-family="Monaco" font-size="9.00" fill="#000000">DatasetExport</text>
</g>
</g>
</svg>
