<?xml version="1.0" encoding="UTF-8" standalone="no"?>
<!DOCTYPE svg PUBLIC "-//W3C//DTD SVG 1.1//EN"
 "http://www.w3.org/Graphics/SVG/1.1/DTD/svg11.dtd">
<!-- Generated by graphviz version 2.40.1 (20161225.0304)
 -->
<!-- Title: Salesforce+ ERD Pages: 1 -->
<svg width="957pt" height="214pt"
 viewBox="0.00 0.00 956.61 214.00" xmlns="http://www.w3.org/2000/svg" xmlns:xlink="http://www.w3.org/1999/xlink">
<g id="graph0" class="graph" transform="scale(1 1) rotate(0) translate(4 210)">
<title>Salesforce+ ERD</title>
<polygon fill="#efeffd" stroke="transparent" points="-4,4 -4,-210 952.6123,-210 952.6123,4 -4,4"/>
<text text-anchor="middle" x="900.1057" y="-5.8" font-family="Courier,monospace" font-size="9.00" fill="#000000">Salesforce ERD </text>
<!-- DatasetExport -->
<g id="node1" class="node">
<title>DatasetExport</title>
<g id="a_node1"><a xlink:href="#" xlink:title=" DatasetExport ">
<polygon fill="#ffeeff" stroke="transparent" points="163.6123,-17 163.6123,-206 948.6123,-206 948.6123,-17 163.6123,-17"/>
<polygon fill="#add8e6" stroke="transparent" points="165.1123,-187.5 165.1123,-204.5 948.1123,-204.5 948.1123,-187.5 165.1123,-187.5"/>
<polygon fill="none" stroke="#99ccff" points="165.1123,-187.5 165.1123,-204.5 948.1123,-204.5 948.1123,-187.5 165.1123,-187.5"/>
<text text-anchor="start" x="513.7053" y="-193.7" font-family="Courier,monospace" font-weight="bold" font-size="11.00" fill="#000000">DatasetExport</text>
<polygon fill="#99ccff" stroke="transparent" points="165.1123,-170.5 165.1123,-187.5 857.1123,-187.5 857.1123,-170.5 165.1123,-170.5"/>
<polygon fill="none" stroke="#99ccff" points="165.1123,-170.5 165.1123,-187.5 857.1123,-187.5 857.1123,-170.5 165.1123,-170.5"/>
<text text-anchor="start" x="168.1123" y="-176.7" font-family="Courier,monospace" font-size="11.00" fill="#000000"> &#160;&#160;&#160;&#160;&#160;&#160;&#160;&#160;&#160;&#160;&#160;&#160;&#160;&#160;&#160;&#160;&#160;&#160;&#160;&#160;&#160;&#160;&#160;&#160;&#160;&#160;&#160;&#160;&#160;&#160;&#160;&#160;&#160;&#160;&#160;&#160;&#160;&#160;&#160;&#160;&#160;&#160;</text>
<text text-anchor="start" x="451.9585" y="-176.7" font-family="Courier,monospace" font-weight="bold" font-size="11.00" fill="#000000">Id</text>
<text text-anchor="start" x="465.1606" y="-176.7" font-family="Courier,monospace" font-size="11.00" fill="#000000"> &#160;&#160;&#160;&#160;&#160;&#160;&#160;&#160;&#160;&#160;&#160;&#160;&#160;&#160;&#160;&#160;&#160;&#160;&#160;&#160;&#160;&#160;&#160;&#160;&#160;&#160;&#160;&#160;&#160;&#160;&#160;&#160;&#160;&#160;&#160;&#160;&#160;&#160;&#160;</text>
<polygon fill="none" stroke="#99ccff" points="857.1123,-170.5 857.1123,-187.5 948.1123,-187.5 948.1123,-170.5 857.1123,-170.5"/>
<text text-anchor="start" x="882.8091" y="-175.7" font-family="Courier,monospace" font-size="11.00" fill="#000000">id(18)</text>
<polygon fill="none" stroke="#99ccff" points="165.1123,-153.5 165.1123,-170.5 857.1123,-170.5 857.1123,-153.5 165.1123,-153.5"/>
<text text-anchor="start" x="168.1123" y="-158.7" font-family="Courier,monospace" font-size="11.00" fill="#000000"> &#160;&#160;&#160;&#160;&#160;&#160;&#160;&#160;&#160;&#160;&#160;&#160;&#160;&#160;&#160;&#160;&#160;&#160;&#160;&#160;&#160;&#160;&#160;&#160;&#160;&#160;&#160;&#160;&#160;&#160;&#160;&#160;&#160;&#160;&#160;&#160;&#160;&#160;&#160;&#160;IsDeleted &#160;&#160;&#160;&#160;&#160;&#160;&#160;&#160;&#160;&#160;&#160;&#160;&#160;&#160;&#160;&#160;&#160;&#160;&#160;&#160;&#160;&#160;&#160;&#160;&#160;&#160;&#160;&#160;&#160;&#160;&#160;&#160;&#160;&#160;&#160;&#160;&#160;&#160;</text>
<polygon fill="none" stroke="#99ccff" points="857.1123,-153.5 857.1123,-170.5 948.1123,-170.5 948.1123,-153.5 857.1123,-153.5"/>
<text text-anchor="start" x="879.5085" y="-158.7" font-family="Courier,monospace" font-size="11.00" fill="#000000">boolean</text>
<polygon fill="none" stroke="#99ccff" points="165.1123,-136.5 165.1123,-153.5 857.1123,-153.5 857.1123,-136.5 165.1123,-136.5"/>
<text text-anchor="start" x="168.1123" y="-141.7" font-family="Courier,monospace" font-size="11.00" fill="#000000"> &#160;&#160;&#160;&#160;&#160;&#160;&#160;&#160;&#160;&#160;&#160;&#160;&#160;&#160;&#160;&#160;&#160;&#160;&#160;&#160;&#160;&#160;&#160;&#160;&#160;&#160;&#160;&#160;&#160;&#160;&#160;&#160;&#160;&#160;&#160;&#160;&#160;&#160;&#160;&#160;LastModifiedById &#160;&#160;&#160;&#160;&#160;&#160;&#160;&#160;&#160;&#160;&#160;&#160;&#160;&#160;&#160;&#160;&#160;&#160;&#160;&#160;&#160;&#160;&#160;&#160;&#160;&#160;&#160;&#160;&#160;&#160;&#160;&#160;&#160;&#160;&#160;&#160;&#160;&#160;</text>
<polygon fill="none" stroke="#99ccff" points="857.1123,-136.5 857.1123,-153.5 948.1123,-153.5 948.1123,-136.5 857.1123,-136.5"/>
<text text-anchor="start" x="859.7053" y="-141.7" font-family="Courier,monospace" font-size="11.00" fill="#000000">reference(18)</text>
<polygon fill="none" stroke="#99ccff" points="165.1123,-119.5 165.1123,-136.5 857.1123,-136.5 857.1123,-119.5 165.1123,-119.5"/>
<text text-anchor="start" x="168.1123" y="-124.7" font-family="Courier,monospace" font-size="11.00" fill="#000000"> &#160;&#160;&#160;&#160;&#160;&#160;&#160;&#160;&#160;&#160;&#160;&#160;&#160;&#160;&#160;&#160;&#160;&#160;&#160;&#160;&#160;&#160;&#160;&#160;&#160;&#160;&#160;&#160;&#160;&#160;&#160;&#160;&#160;&#160;&#160;&#160;&#160;&#160;&#160;&#160;PublisherType &#160;&#160;&#160;&#160;&#160;&#160;&#160;&#160;&#160;&#160;&#160;&#160;&#160;&#160;&#160;&#160;&#160;&#160;&#160;&#160;&#160;&#160;&#160;&#160;&#160;&#160;&#160;&#160;&#160;&#160;&#160;&#160;&#160;&#160;&#160;&#160;&#160;&#160;</text>
<polygon fill="none" stroke="#99ccff" points="857.1123,-119.5 857.1123,-136.5 948.1123,-136.5 948.1123,-119.5 857.1123,-119.5"/>
<text text-anchor="start" x="859.7053" y="-124.7" font-family="Courier,monospace" font-size="11.00" fill="#000000">picklist(255)</text>
<polygon fill="none" stroke="#99ccff" points="165.1123,-102.5 165.1123,-119.5 857.1123,-119.5 857.1123,-102.5 165.1123,-102.5"/>
<text text-anchor="start" x="168.1123" y="-107.7" font-family="Courier,monospace" font-size="11.00" fill="#000000"> &#160;&#160;&#160;&#160;&#160;&#160;&#160;&#160;&#160;&#160;&#160;&#160;&#160;&#160;&#160;&#160;&#160;&#160;&#160;&#160;&#160;&#160;&#160;&#160;&#160;&#160;&#160;&#160;&#160;&#160;&#160;&#160;&#160;&#160;&#160;&#160;&#160;&#160;&#160;&#160;MetadataLength &#160;&#160;&#160;&#160;&#160;&#160;&#160;&#160;&#160;&#160;&#160;&#160;&#160;&#160;&#160;&#160;&#160;&#160;&#160;&#160;&#160;&#160;&#160;&#160;&#160;&#160;&#160;&#160;&#160;&#160;&#160;&#160;&#160;&#160;&#160;&#160;&#160;&#160;</text>
<polygon fill="none" stroke="#99ccff" points="857.1123,-102.5 857.1123,-119.5 948.1123,-119.5 948.1123,-102.5 857.1123,-102.5"/>
<text text-anchor="start" x="892.7107" y="-107.7" font-family="Courier,monospace" font-size="11.00" fill="#000000">int</text>
<polygon fill="none" stroke="#99ccff" points="165.1123,-85.5 165.1123,-102.5 857.1123,-102.5 857.1123,-85.5 165.1123,-85.5"/>
<text text-anchor="start" x="167.8564" y="-90.7" font-family="Courier,monospace" font-size="11.00" fill="#000000"> &#160;&#160;&#160;&#160;&#160;&#160;&#160;&#160;&#160;&#160;&#160;&#160;&#160;&#160;&#160;&#160;&#160;&#160;&#160;&#160;&#160;&#160;&#160;&#160;&#160;&#160;&#160;&#160;&#160;&#160;&#160;&#160;&#160;&#160;&#160;&#160;&#160;&#160;&#160;&#160;CompressedMetadataLength &#160;&#160;&#160;&#160;&#160;&#160;&#160;&#160;&#160;&#160;&#160;&#160;&#160;&#160;&#160;&#160;&#160;&#160;&#160;&#160;&#160;&#160;&#160;&#160;&#160;&#160;&#160;&#160;&#160;&#160;&#160;&#160;&#160;&#160;&#160;&#160;&#160;&#160;</text>
<polygon fill="none" stroke="#99ccff" points="857.1123,-85.5 857.1123,-102.5 948.1123,-102.5 948.1123,-85.5 857.1123,-85.5"/>
<text text-anchor="start" x="892.7107" y="-90.7" font-family="Courier,monospace" font-size="11.00" fill="#000000">int</text>
<polygon fill="none" stroke="#99ccff" points="165.1123,-68.5 165.1123,-85.5 857.1123,-85.5 857.1123,-68.5 165.1123,-68.5"/>
<text text-anchor="start" x="168.1123" y="-73.7" font-family="Courier,monospace" font-size="11.00" fill="#000000"> &#160;&#160;&#160;&#160;&#160;&#160;&#160;&#160;&#160;&#160;&#160;&#160;&#160;&#160;&#160;&#160;&#160;&#160;&#160;&#160;&#160;&#160;&#160;&#160;&#160;&#160;&#160;&#160;&#160;&#160;&#160;&#160;&#160;&#160;&#160;&#160;&#160;&#160;&#160;&#160;Status &#160;&#160;&#160;&#160;&#160;&#160;&#160;&#160;&#160;&#160;&#160;&#160;&#160;&#160;&#160;&#160;&#160;&#160;&#160;&#160;&#160;&#160;&#160;&#160;&#160;&#160;&#160;&#160;&#160;&#160;&#160;&#160;&#160;&#160;&#160;&#160;&#160;&#160;</text>
<polygon fill="none" stroke="#99ccff" points="857.1123,-68.5 857.1123,-85.5 948.1123,-85.5 948.1123,-68.5 857.1123,-68.5"/>
<text text-anchor="start" x="859.7053" y="-73.7" font-family="Courier,monospace" font-size="11.00" fill="#000000">picklist(255)</text>
<polygon fill="none" stroke="#99ccff" points="165.1123,-51.5 165.1123,-68.5 857.1123,-68.5 857.1123,-51.5 165.1123,-51.5"/>
<text text-anchor="start" x="168.1123" y="-56.7" font-family="Courier,monospace" font-size="11.00" fill="#000000"> &#160;&#160;&#160;&#160;&#160;&#160;&#160;&#160;&#160;&#160;&#160;&#160;&#160;&#160;&#160;&#160;&#160;&#160;&#160;&#160;&#160;&#160;&#160;&#160;&#160;&#160;&#160;&#160;&#160;&#160;&#160;&#160;&#160;&#160;&#160;&#160;&#160;&#160;&#160;&#160;Owner &#160;&#160;&#160;&#160;&#160;&#160;&#160;&#160;&#160;&#160;&#160;&#160;&#160;&#160;&#160;&#160;&#160;&#160;&#160;&#160;&#160;&#160;&#160;&#160;&#160;&#160;&#160;&#160;&#160;&#160;&#160;&#160;&#160;&#160;&#160;&#160;&#160;&#160;</text>
<polygon fill="none" stroke="#99ccff" points="857.1123,-51.5 857.1123,-68.5 948.1123,-68.5 948.1123,-51.5 857.1123,-51.5"/>
<text text-anchor="start" x="869.6069" y="-56.7" font-family="Courier,monospace" font-size="11.00" fill="#000000">string(18)</text>
<polygon fill="none" stroke="#99ccff" points="165.1123,-34.5 165.1123,-51.5 857.1123,-51.5 857.1123,-34.5 165.1123,-34.5"/>
<text text-anchor="start" x="168.1123" y="-39.7" font-family="Courier,monospace" font-size="11.00" fill="#000000"> &#160;&#160;&#160;&#160;&#160;&#160;&#160;&#160;&#160;&#160;&#160;&#160;&#160;&#160;&#160;&#160;&#160;&#160;&#160;&#160;&#160;&#160;&#160;&#160;&#160;&#160;&#160;&#160;&#160;&#160;&#160;&#160;&#160;&#160;&#160;&#160;&#160;&#160;&#160;&#160;PublisherInfo &#160;&#160;&#160;&#160;&#160;&#160;&#160;&#160;&#160;&#160;&#160;&#160;&#160;&#160;&#160;&#160;&#160;&#160;&#160;&#160;&#160;&#160;&#160;&#160;&#160;&#160;&#160;&#160;&#160;&#160;&#160;&#160;&#160;&#160;&#160;&#160;&#160;&#160;</text>
<polygon fill="none" stroke="#99ccff" points="857.1123,-34.5 857.1123,-51.5 948.1123,-51.5 948.1123,-34.5 857.1123,-34.5"/>
<text text-anchor="start" x="863.0059" y="-39.7" font-family="Courier,monospace" font-size="11.00" fill="#000000">string(1000)</text>
<polygon fill="none" stroke="#99ccff" points="165.1123,-17.5 165.1123,-34.5 857.1123,-34.5 857.1123,-17.5 165.1123,-17.5"/>
<text text-anchor="start" x="168.1123" y="-22.7" font-family="Courier,monospace" font-size="11.00" fill="#000000"> &#160;&#160;&#160;&#160;&#160;&#160;&#160;&#160;&#160;&#160;&#160;&#160;&#160;&#160;&#160;&#160;&#160;&#160;&#160;&#160;&#160;&#160;&#160;&#160;&#160;&#160;&#160;&#160;&#160;&#160;&#160;&#160;&#160;&#160;&#160;&#160;&#160;&#160;&#160;&#160;Metadata &#160;&#160;&#160;&#160;&#160;&#160;&#160;&#160;&#160;&#160;&#160;&#160;&#160;&#160;&#160;&#160;&#160;&#160;&#160;&#160;&#160;&#160;&#160;&#160;&#160;&#160;&#160;&#160;&#160;&#160;&#160;&#160;&#160;&#160;&#160;&#160;&#160;&#160;</text>
<polygon fill="none" stroke="#99ccff" points="857.1123,-17.5 857.1123,-34.5 948.1123,-34.5 948.1123,-17.5 857.1123,-17.5"/>
<text text-anchor="start" x="882.8091" y="-22.7" font-family="Courier,monospace" font-size="11.00" fill="#000000">base64</text>
<polygon fill="none" stroke="#99ccff" points="163.6123,-17 163.6123,-206 948.6123,-206 948.6123,-17 163.6123,-17"/>
</a>
</g>
</g>
<!-- User -->
<g id="node2" class="node">
<title>User</title>
<text text-anchor="middle" x="27" y="-142.2" font-family="Courier,monospace" font-size="11.00" fill="#000000">User</text>
</g>
<!-- DatasetExport&#45;&gt;User -->
<g id="edge1" class="edge">
<title>DatasetExport:w&#45;&gt;User:e</title>
<path fill="none" stroke="#ff99cc" d="M150.4422,-145.5C115.7591,-145.5 78.6293,-145.5 54.2537,-145.5"/>
<polygon fill="#ff99cc" stroke="#ff99cc" points="157.1123,-145.5001 165.1123,-149.1 161.1123,-145.5 165.1123,-145.5 165.1123,-145.5 165.1123,-145.5 161.1123,-145.5 165.1123,-141.9 157.1123,-145.5001 157.1123,-145.5001"/>
<ellipse fill="none" stroke="#ff99cc" cx="153.9123" cy="-145.5001" rx="3.2" ry="3.2"/>
<text text-anchor="middle" x="108.8062" y="-150.3015" font-family="Monaco" font-size="9.00" fill="#000000">LastModifiedBy</text>
</g>
</g>
</svg>
