<?xml version="1.0" encoding="UTF-8" standalone="no"?>
<!DOCTYPE svg PUBLIC "-//W3C//DTD SVG 1.1//EN"
 "http://www.w3.org/Graphics/SVG/1.1/DTD/svg11.dtd">
<!-- Generated by graphviz version 2.40.1 (20161225.0304)
 -->
<!-- Title: Salesforce+ ERD Pages: 1 -->
<svg width="902pt" height="146pt"
 viewBox="0.00 0.00 902.22 146.00" xmlns="http://www.w3.org/2000/svg" xmlns:xlink="http://www.w3.org/1999/xlink">
<g id="graph0" class="graph" transform="scale(1 1) rotate(0) translate(4 142)">
<title>Salesforce+ ERD</title>
<polygon fill="#efeffd" stroke="transparent" points="-4,4 -4,-142 898.2192,-142 898.2192,4 -4,4"/>
<text text-anchor="middle" x="845.7126" y="-5.8" font-family="Courier,monospace" font-size="9.00" fill="#000000">Salesforce ERD </text>
<!-- FieldPermissions -->
<g id="node1" class="node">
<title>FieldPermissions</title>
<g id="a_node1"><a xlink:href="#" xlink:title=" FieldPermissions ">
<polygon fill="#ffeeff" stroke="transparent" points="168.2192,-17 168.2192,-138 894.2192,-138 894.2192,-17 168.2192,-17"/>
<polygon fill="#add8e6" stroke="transparent" points="169.2192,-119.5 169.2192,-136.5 893.2192,-136.5 893.2192,-119.5 169.2192,-119.5"/>
<polygon fill="none" stroke="#99ccff" points="169.2192,-119.5 169.2192,-136.5 893.2192,-136.5 893.2192,-119.5 169.2192,-119.5"/>
<text text-anchor="start" x="478.4106" y="-125.7" font-family="Courier,monospace" font-weight="bold" font-size="11.00" fill="#000000">FieldPermissions</text>
<polygon fill="#99ccff" stroke="transparent" points="169.2192,-102.5 169.2192,-119.5 802.2192,-119.5 802.2192,-102.5 169.2192,-102.5"/>
<polygon fill="none" stroke="#99ccff" points="169.2192,-102.5 169.2192,-119.5 802.2192,-119.5 802.2192,-102.5 169.2192,-102.5"/>
<text text-anchor="start" x="172.2192" y="-108.7" font-family="Courier,monospace" font-size="11.00" fill="#000000"> &#160;&#160;&#160;&#160;&#160;&#160;&#160;&#160;&#160;&#160;&#160;&#160;&#160;&#160;&#160;&#160;&#160;&#160;&#160;&#160;&#160;&#160;&#160;&#160;&#160;&#160;&#160;&#160;&#160;&#160;&#160;&#160;&#160;&#160;&#160;&#160;&#160;&#160;&#160;&#160;&#160;&#160;</text>
<text text-anchor="start" x="456.0654" y="-108.7" font-family="Courier,monospace" font-weight="bold" font-size="11.00" fill="#000000">Id</text>
<text text-anchor="start" x="469.2676" y="-108.7" font-family="Courier,monospace" font-size="11.00" fill="#000000"> &#160;&#160;&#160;&#160;&#160;&#160;&#160;&#160;&#160;&#160;&#160;&#160;&#160;&#160;&#160;&#160;&#160;&#160;&#160;&#160;&#160;&#160;&#160;&#160;&#160;&#160;&#160;&#160;&#160;&#160;&#160;&#160;&#160;&#160;&#160;&#160;&#160;&#160;&#160;</text>
<polygon fill="none" stroke="#99ccff" points="802.2192,-102.5 802.2192,-119.5 893.2192,-119.5 893.2192,-102.5 802.2192,-102.5"/>
<text text-anchor="start" x="827.916" y="-107.7" font-family="Courier,monospace" font-size="11.00" fill="#000000">id(18)</text>
<polygon fill="none" stroke="#99ccff" points="169.2192,-85.5 169.2192,-102.5 802.2192,-102.5 802.2192,-85.5 169.2192,-85.5"/>
<text text-anchor="start" x="172.2192" y="-90.7" font-family="Courier,monospace" font-size="11.00" fill="#000000"> &#160;&#160;&#160;&#160;&#160;&#160;&#160;&#160;&#160;&#160;&#160;&#160;&#160;&#160;&#160;&#160;&#160;&#160;&#160;&#160;&#160;&#160;&#160;&#160;&#160;&#160;&#160;&#160;&#160;&#160;&#160;&#160;&#160;&#160;&#160;&#160;&#160;&#160;&#160;&#160;ParentId &#160;&#160;&#160;&#160;&#160;&#160;&#160;&#160;&#160;&#160;&#160;&#160;&#160;&#160;&#160;&#160;&#160;&#160;&#160;&#160;&#160;&#160;&#160;&#160;&#160;&#160;&#160;&#160;&#160;&#160;&#160;&#160;&#160;&#160;&#160;&#160;&#160;&#160;</text>
<polygon fill="none" stroke="#99ccff" points="802.2192,-85.5 802.2192,-102.5 893.2192,-102.5 893.2192,-85.5 802.2192,-85.5"/>
<text text-anchor="start" x="804.8123" y="-90.7" font-family="Courier,monospace" font-size="11.00" fill="#000000">reference(18)</text>
<polygon fill="none" stroke="#99ccff" points="169.2192,-68.5 169.2192,-85.5 802.2192,-85.5 802.2192,-68.5 169.2192,-68.5"/>
<text text-anchor="start" x="172.2192" y="-73.7" font-family="Courier,monospace" font-size="11.00" fill="#000000"> &#160;&#160;&#160;&#160;&#160;&#160;&#160;&#160;&#160;&#160;&#160;&#160;&#160;&#160;&#160;&#160;&#160;&#160;&#160;&#160;&#160;&#160;&#160;&#160;&#160;&#160;&#160;&#160;&#160;&#160;&#160;&#160;&#160;&#160;&#160;&#160;&#160;&#160;&#160;&#160;SobjectType &#160;&#160;&#160;&#160;&#160;&#160;&#160;&#160;&#160;&#160;&#160;&#160;&#160;&#160;&#160;&#160;&#160;&#160;&#160;&#160;&#160;&#160;&#160;&#160;&#160;&#160;&#160;&#160;&#160;&#160;&#160;&#160;&#160;&#160;&#160;&#160;&#160;&#160;</text>
<polygon fill="none" stroke="#99ccff" points="802.2192,-68.5 802.2192,-85.5 893.2192,-85.5 893.2192,-68.5 802.2192,-68.5"/>
<text text-anchor="start" x="808.1128" y="-73.7" font-family="Courier,monospace" font-size="11.00" fill="#000000">picklist(40)</text>
<polygon fill="none" stroke="#99ccff" points="169.2192,-51.5 169.2192,-68.5 802.2192,-68.5 802.2192,-51.5 169.2192,-51.5"/>
<text text-anchor="start" x="172.2192" y="-56.7" font-family="Courier,monospace" font-size="11.00" fill="#000000"> &#160;&#160;&#160;&#160;&#160;&#160;&#160;&#160;&#160;&#160;&#160;&#160;&#160;&#160;&#160;&#160;&#160;&#160;&#160;&#160;&#160;&#160;&#160;&#160;&#160;&#160;&#160;&#160;&#160;&#160;&#160;&#160;&#160;&#160;&#160;&#160;&#160;&#160;&#160;&#160;Field &#160;&#160;&#160;&#160;&#160;&#160;&#160;&#160;&#160;&#160;&#160;&#160;&#160;&#160;&#160;&#160;&#160;&#160;&#160;&#160;&#160;&#160;&#160;&#160;&#160;&#160;&#160;&#160;&#160;&#160;&#160;&#160;&#160;&#160;&#160;&#160;&#160;&#160;</text>
<polygon fill="none" stroke="#99ccff" points="802.2192,-51.5 802.2192,-68.5 893.2192,-68.5 893.2192,-51.5 802.2192,-51.5"/>
<text text-anchor="start" x="808.1128" y="-56.7" font-family="Courier,monospace" font-size="11.00" fill="#000000">picklist(40)</text>
<polygon fill="none" stroke="#99ccff" points="169.2192,-34.5 169.2192,-51.5 802.2192,-51.5 802.2192,-34.5 169.2192,-34.5"/>
<text text-anchor="start" x="172.1682" y="-39.7" font-family="Courier,monospace" font-size="11.00" fill="#000000"> &#160;&#160;&#160;&#160;&#160;&#160;&#160;&#160;&#160;&#160;&#160;&#160;&#160;&#160;&#160;&#160;&#160;&#160;&#160;&#160;&#160;&#160;&#160;&#160;&#160;&#160;&#160;&#160;&#160;&#160;&#160;&#160;&#160;&#160;&#160;&#160;&#160;&#160;&#160;&#160;PermissionsEdit &#160;&#160;&#160;&#160;&#160;&#160;&#160;&#160;&#160;&#160;&#160;&#160;&#160;&#160;&#160;&#160;&#160;&#160;&#160;&#160;&#160;&#160;&#160;&#160;&#160;&#160;&#160;&#160;&#160;&#160;&#160;&#160;&#160;&#160;&#160;&#160;&#160;&#160;</text>
<polygon fill="none" stroke="#99ccff" points="802.2192,-34.5 802.2192,-51.5 893.2192,-51.5 893.2192,-34.5 802.2192,-34.5"/>
<text text-anchor="start" x="824.6155" y="-39.7" font-family="Courier,monospace" font-size="11.00" fill="#000000">boolean</text>
<polygon fill="none" stroke="#99ccff" points="169.2192,-17.5 169.2192,-34.5 802.2192,-34.5 802.2192,-17.5 169.2192,-17.5"/>
<text text-anchor="start" x="172.1682" y="-22.7" font-family="Courier,monospace" font-size="11.00" fill="#000000"> &#160;&#160;&#160;&#160;&#160;&#160;&#160;&#160;&#160;&#160;&#160;&#160;&#160;&#160;&#160;&#160;&#160;&#160;&#160;&#160;&#160;&#160;&#160;&#160;&#160;&#160;&#160;&#160;&#160;&#160;&#160;&#160;&#160;&#160;&#160;&#160;&#160;&#160;&#160;&#160;PermissionsRead &#160;&#160;&#160;&#160;&#160;&#160;&#160;&#160;&#160;&#160;&#160;&#160;&#160;&#160;&#160;&#160;&#160;&#160;&#160;&#160;&#160;&#160;&#160;&#160;&#160;&#160;&#160;&#160;&#160;&#160;&#160;&#160;&#160;&#160;&#160;&#160;&#160;&#160;</text>
<polygon fill="none" stroke="#99ccff" points="802.2192,-17.5 802.2192,-34.5 893.2192,-34.5 893.2192,-17.5 802.2192,-17.5"/>
<text text-anchor="start" x="824.6155" y="-22.7" font-family="Courier,monospace" font-size="11.00" fill="#000000">boolean</text>
<polygon fill="none" stroke="#99ccff" points="168.2192,-17 168.2192,-138 894.2192,-138 894.2192,-17 168.2192,-17"/>
</a>
</g>
</g>
<!-- PermissionSet -->
<g id="node2" class="node">
<title>PermissionSet</title>
<text text-anchor="middle" x="50.907" y="-91.2" font-family="Courier,monospace" font-size="11.00" fill="#000000">PermissionSet</text>
</g>
<!-- FieldPermissions&#45;&gt;PermissionSet -->
<g id="edge1" class="edge">
<title>FieldPermissions:w&#45;&gt;PermissionSet:e</title>
<path fill="none" stroke="#ff99cc" d="M154.7244,-94.5C136.8171,-94.5 118.2543,-94.5 101.8629,-94.5"/>
<polygon fill="#ff99cc" stroke="#ff99cc" points="161.2192,-94.5001 169.2193,-98.1 165.2192,-94.5 169.2192,-94.5 169.2192,-94.5 169.2192,-94.5 165.2192,-94.5 169.2192,-90.9 161.2192,-94.5001 161.2192,-94.5001"/>
<ellipse fill="none" stroke="#ff99cc" cx="158.0192" cy="-94.5001" rx="3.2" ry="3.2"/>
<text text-anchor="middle" x="135.0166" y="-99.3015" font-family="Monaco" font-size="9.00" fill="#000000">Parent</text>
</g>
</g>
</svg>
