<?xml version="1.0" encoding="UTF-8" standalone="no"?>
<!DOCTYPE svg PUBLIC "-//W3C//DTD SVG 1.1//EN"
 "http://www.w3.org/Graphics/SVG/1.1/DTD/svg11.dtd">
<!-- Generated by graphviz version 2.40.1 (20161225.0304)
 -->
<!-- Title: Salesforce+ ERD Pages: 1 -->
<svg width="1243pt" height="469pt"
 viewBox="0.00 0.00 1243.46 469.00" xmlns="http://www.w3.org/2000/svg" xmlns:xlink="http://www.w3.org/1999/xlink">
<g id="graph0" class="graph" transform="scale(1 1) rotate(0) translate(4 465)">
<title>Salesforce+ ERD</title>
<polygon fill="#efeffd" stroke="transparent" points="-4,4 -4,-465 1239.4556,-465 1239.4556,4 -4,4"/>
<text text-anchor="middle" x="1186.949" y="-5.8" font-family="Courier,monospace" font-size="9.00" fill="#000000">Salesforce ERD </text>
<!-- FinServ__FinancialAccountTransaction__c -->
<g id="node1" class="node">
<title>FinServ__FinancialAccountTransaction__c</title>
<g id="a_node1"><a xlink:href="#" xlink:title=" FinServ__FinancialAccountTransaction__c ">
<polygon fill="#ffeeff" stroke="transparent" points="391.4556,-17 391.4556,-461 1235.4556,-461 1235.4556,-17 391.4556,-17"/>
<polygon fill="#add8e6" stroke="transparent" points="392.4556,-443 392.4556,-460 1234.4556,-460 1234.4556,-443 392.4556,-443"/>
<polygon fill="none" stroke="#99ccff" points="392.4556,-443 392.4556,-460 1234.4556,-460 1234.4556,-443 392.4556,-443"/>
<text text-anchor="start" x="684.7346" y="-449.2" font-family="Courier,monospace" font-weight="bold" font-size="11.00" fill="#000000">FinServ__FinancialAccountTransaction__c</text>
<polygon fill="#99ccff" stroke="transparent" points="392.4556,-426 392.4556,-443 1143.4556,-443 1143.4556,-426 392.4556,-426"/>
<polygon fill="none" stroke="#99ccff" points="392.4556,-426 392.4556,-443 1143.4556,-443 1143.4556,-426 392.4556,-426"/>
<text text-anchor="start" x="395.4556" y="-432.2" font-family="Courier,monospace" font-size="11.00" fill="#000000"> &#160;&#160;&#160;&#160;&#160;&#160;&#160;&#160;&#160;&#160;&#160;&#160;&#160;&#160;&#160;&#160;&#160;&#160;&#160;&#160;&#160;&#160;&#160;&#160;&#160;&#160;&#160;&#160;&#160;&#160;&#160;&#160;&#160;&#160;&#160;&#160;&#160;&#160;&#160;&#160;&#160;&#160;</text>
<text text-anchor="start" x="679.3018" y="-432.2" font-family="Courier,monospace" font-weight="bold" font-size="11.00" fill="#000000">Id</text>
<text text-anchor="start" x="692.5039" y="-432.2" font-family="Courier,monospace" font-size="11.00" fill="#000000"> &#160;&#160;&#160;&#160;&#160;&#160;&#160;&#160;&#160;&#160;&#160;&#160;&#160;&#160;&#160;&#160;&#160;&#160;&#160;&#160;&#160;&#160;&#160;&#160;&#160;&#160;&#160;&#160;&#160;&#160;&#160;&#160;&#160;&#160;&#160;&#160;&#160;&#160;&#160;</text>
<polygon fill="none" stroke="#99ccff" points="1143.4556,-426 1143.4556,-443 1234.4556,-443 1234.4556,-426 1143.4556,-426"/>
<text text-anchor="start" x="1169.1523" y="-431.2" font-family="Courier,monospace" font-size="11.00" fill="#000000">id(18)</text>
<polygon fill="none" stroke="#99ccff" points="392.4556,-409 392.4556,-426 1143.4556,-426 1143.4556,-409 392.4556,-409"/>
<text text-anchor="start" x="395.4556" y="-414.2" font-family="Courier,monospace" font-size="11.00" fill="#000000"> &#160;&#160;&#160;&#160;&#160;&#160;&#160;&#160;&#160;&#160;&#160;&#160;&#160;&#160;&#160;&#160;&#160;&#160;&#160;&#160;&#160;&#160;&#160;&#160;&#160;&#160;&#160;&#160;&#160;&#160;&#160;&#160;&#160;&#160;&#160;&#160;&#160;&#160;&#160;&#160;OwnerId &#160;&#160;&#160;&#160;&#160;&#160;&#160;&#160;&#160;&#160;&#160;&#160;&#160;&#160;&#160;&#160;&#160;&#160;&#160;&#160;&#160;&#160;&#160;&#160;&#160;&#160;&#160;&#160;&#160;&#160;&#160;&#160;&#160;&#160;&#160;&#160;&#160;&#160;</text>
<polygon fill="none" stroke="#99ccff" points="1143.4556,-409 1143.4556,-426 1234.4556,-426 1234.4556,-409 1143.4556,-409"/>
<text text-anchor="start" x="1146.0486" y="-414.2" font-family="Courier,monospace" font-size="11.00" fill="#000000">reference(18)</text>
<polygon fill="none" stroke="#99ccff" points="392.4556,-392 392.4556,-409 1143.4556,-409 1143.4556,-392 392.4556,-392"/>
<text text-anchor="start" x="395.4556" y="-397.2" font-family="Courier,monospace" font-size="11.00" fill="#000000"> &#160;&#160;&#160;&#160;&#160;&#160;&#160;&#160;&#160;&#160;&#160;&#160;&#160;&#160;&#160;&#160;&#160;&#160;&#160;&#160;&#160;&#160;&#160;&#160;&#160;&#160;&#160;&#160;&#160;&#160;&#160;&#160;&#160;&#160;&#160;&#160;&#160;&#160;&#160;&#160;IsDeleted &#160;&#160;&#160;&#160;&#160;&#160;&#160;&#160;&#160;&#160;&#160;&#160;&#160;&#160;&#160;&#160;&#160;&#160;&#160;&#160;&#160;&#160;&#160;&#160;&#160;&#160;&#160;&#160;&#160;&#160;&#160;&#160;&#160;&#160;&#160;&#160;&#160;&#160;</text>
<polygon fill="none" stroke="#99ccff" points="1143.4556,-392 1143.4556,-409 1234.4556,-409 1234.4556,-392 1143.4556,-392"/>
<text text-anchor="start" x="1165.8518" y="-397.2" font-family="Courier,monospace" font-size="11.00" fill="#000000">boolean</text>
<polygon fill="none" stroke="#99ccff" points="392.4556,-375 392.4556,-392 1143.4556,-392 1143.4556,-375 392.4556,-375"/>
<text text-anchor="start" x="395.4556" y="-380.2" font-family="Courier,monospace" font-size="11.00" fill="#000000"> &#160;&#160;&#160;&#160;&#160;&#160;&#160;&#160;&#160;&#160;&#160;&#160;&#160;&#160;&#160;&#160;&#160;&#160;&#160;&#160;&#160;&#160;&#160;&#160;&#160;&#160;&#160;&#160;&#160;&#160;&#160;&#160;&#160;&#160;&#160;&#160;&#160;&#160;&#160;&#160;Name &#160;&#160;&#160;&#160;&#160;&#160;&#160;&#160;&#160;&#160;&#160;&#160;&#160;&#160;&#160;&#160;&#160;&#160;&#160;&#160;&#160;&#160;&#160;&#160;&#160;&#160;&#160;&#160;&#160;&#160;&#160;&#160;&#160;&#160;&#160;&#160;&#160;&#160;</text>
<polygon fill="none" stroke="#99ccff" points="1143.4556,-375 1143.4556,-392 1234.4556,-392 1234.4556,-375 1143.4556,-375"/>
<text text-anchor="start" x="1155.9502" y="-380.2" font-family="Courier,monospace" font-size="11.00" fill="#000000">string(80)</text>
<polygon fill="none" stroke="#99ccff" points="392.4556,-358 392.4556,-375 1143.4556,-375 1143.4556,-358 392.4556,-358"/>
<text text-anchor="start" x="395.4556" y="-363.2" font-family="Courier,monospace" font-size="11.00" fill="#000000"> &#160;&#160;&#160;&#160;&#160;&#160;&#160;&#160;&#160;&#160;&#160;&#160;&#160;&#160;&#160;&#160;&#160;&#160;&#160;&#160;&#160;&#160;&#160;&#160;&#160;&#160;&#160;&#160;&#160;&#160;&#160;&#160;&#160;&#160;&#160;&#160;&#160;&#160;&#160;&#160;LastModifiedById &#160;&#160;&#160;&#160;&#160;&#160;&#160;&#160;&#160;&#160;&#160;&#160;&#160;&#160;&#160;&#160;&#160;&#160;&#160;&#160;&#160;&#160;&#160;&#160;&#160;&#160;&#160;&#160;&#160;&#160;&#160;&#160;&#160;&#160;&#160;&#160;&#160;&#160;</text>
<polygon fill="none" stroke="#99ccff" points="1143.4556,-358 1143.4556,-375 1234.4556,-375 1234.4556,-358 1143.4556,-358"/>
<text text-anchor="start" x="1146.0486" y="-363.2" font-family="Courier,monospace" font-size="11.00" fill="#000000">reference(18)</text>
<polygon fill="none" stroke="#99ccff" points="392.4556,-341 392.4556,-358 1143.4556,-358 1143.4556,-341 392.4556,-341"/>
<text text-anchor="start" x="395.4556" y="-346.2" font-family="Courier,monospace" font-size="11.00" fill="#000000"> &#160;&#160;&#160;&#160;&#160;&#160;&#160;&#160;&#160;&#160;&#160;&#160;&#160;&#160;&#160;&#160;&#160;&#160;&#160;&#160;&#160;&#160;&#160;&#160;&#160;&#160;&#160;&#160;&#160;&#160;&#160;&#160;&#160;&#160;&#160;&#160;&#160;&#160;&#160;&#160;LastViewedDate &#160;&#160;&#160;&#160;&#160;&#160;&#160;&#160;&#160;&#160;&#160;&#160;&#160;&#160;&#160;&#160;&#160;&#160;&#160;&#160;&#160;&#160;&#160;&#160;&#160;&#160;&#160;&#160;&#160;&#160;&#160;&#160;&#160;&#160;&#160;&#160;&#160;&#160;</text>
<polygon fill="none" stroke="#99ccff" points="1143.4556,-341 1143.4556,-358 1234.4556,-358 1234.4556,-341 1143.4556,-341"/>
<text text-anchor="start" x="1162.5513" y="-346.2" font-family="Courier,monospace" font-size="11.00" fill="#000000">datetime</text>
<polygon fill="none" stroke="#99ccff" points="392.4556,-324 392.4556,-341 1143.4556,-341 1143.4556,-324 392.4556,-324"/>
<text text-anchor="start" x="395.4556" y="-329.2" font-family="Courier,monospace" font-size="11.00" fill="#000000"> &#160;&#160;&#160;&#160;&#160;&#160;&#160;&#160;&#160;&#160;&#160;&#160;&#160;&#160;&#160;&#160;&#160;&#160;&#160;&#160;&#160;&#160;&#160;&#160;&#160;&#160;&#160;&#160;&#160;&#160;&#160;&#160;&#160;&#160;&#160;&#160;&#160;&#160;&#160;&#160;LastReferencedDate &#160;&#160;&#160;&#160;&#160;&#160;&#160;&#160;&#160;&#160;&#160;&#160;&#160;&#160;&#160;&#160;&#160;&#160;&#160;&#160;&#160;&#160;&#160;&#160;&#160;&#160;&#160;&#160;&#160;&#160;&#160;&#160;&#160;&#160;&#160;&#160;&#160;&#160;</text>
<polygon fill="none" stroke="#99ccff" points="1143.4556,-324 1143.4556,-341 1234.4556,-341 1234.4556,-324 1143.4556,-324"/>
<text text-anchor="start" x="1162.5513" y="-329.2" font-family="Courier,monospace" font-size="11.00" fill="#000000">datetime</text>
<polygon fill="none" stroke="#99ccff" points="392.4556,-307 392.4556,-324 1143.4556,-324 1143.4556,-307 392.4556,-307"/>
<text text-anchor="start" x="395.4556" y="-312.2" font-family="Courier,monospace" font-size="11.00" fill="#000000"> &#160;&#160;&#160;&#160;&#160;&#160;&#160;&#160;&#160;&#160;&#160;&#160;&#160;&#160;&#160;&#160;&#160;&#160;&#160;&#160;&#160;&#160;&#160;&#160;&#160;&#160;&#160;&#160;&#160;&#160;&#160;&#160;&#160;&#160;&#160;&#160;&#160;&#160;&#160;&#160;FinServ__Amount__c &#160;&#160;&#160;&#160;&#160;&#160;&#160;&#160;&#160;&#160;&#160;&#160;&#160;&#160;&#160;&#160;&#160;&#160;&#160;&#160;&#160;&#160;&#160;&#160;&#160;&#160;&#160;&#160;&#160;&#160;&#160;&#160;&#160;&#160;&#160;&#160;&#160;&#160;</text>
<polygon fill="none" stroke="#99ccff" points="1143.4556,-307 1143.4556,-324 1234.4556,-324 1234.4556,-307 1143.4556,-307"/>
<text text-anchor="start" x="1162.5513" y="-312.2" font-family="Courier,monospace" font-size="11.00" fill="#000000">currency</text>
<polygon fill="none" stroke="#99ccff" points="392.4556,-290 392.4556,-307 1143.4556,-307 1143.4556,-290 392.4556,-290"/>
<text text-anchor="start" x="395.4556" y="-295.2" font-family="Courier,monospace" font-size="11.00" fill="#000000"> &#160;&#160;&#160;&#160;&#160;&#160;&#160;&#160;&#160;&#160;&#160;&#160;&#160;&#160;&#160;&#160;&#160;&#160;&#160;&#160;&#160;&#160;&#160;&#160;&#160;&#160;&#160;&#160;&#160;&#160;&#160;&#160;&#160;&#160;&#160;&#160;&#160;&#160;&#160;&#160;FinServ__BillingStatements__c &#160;&#160;&#160;&#160;&#160;&#160;&#160;&#160;&#160;&#160;&#160;&#160;&#160;&#160;&#160;&#160;&#160;&#160;&#160;&#160;&#160;&#160;&#160;&#160;&#160;&#160;&#160;&#160;&#160;&#160;&#160;&#160;&#160;&#160;&#160;&#160;&#160;&#160;</text>
<polygon fill="none" stroke="#99ccff" points="1143.4556,-290 1143.4556,-307 1234.4556,-307 1234.4556,-290 1143.4556,-290"/>
<text text-anchor="start" x="1146.0486" y="-295.2" font-family="Courier,monospace" font-size="11.00" fill="#000000">reference(18)</text>
<polygon fill="none" stroke="#99ccff" points="392.4556,-273 392.4556,-290 1143.4556,-290 1143.4556,-273 392.4556,-273"/>
<text text-anchor="start" x="395.4556" y="-278.2" font-family="Courier,monospace" font-size="11.00" fill="#000000"> &#160;&#160;&#160;&#160;&#160;&#160;&#160;&#160;&#160;&#160;&#160;&#160;&#160;&#160;&#160;&#160;&#160;&#160;&#160;&#160;&#160;&#160;&#160;&#160;&#160;&#160;&#160;&#160;&#160;&#160;&#160;&#160;&#160;&#160;&#160;&#160;&#160;&#160;&#160;&#160;FinServ__CardAccountID__c &#160;&#160;&#160;&#160;&#160;&#160;&#160;&#160;&#160;&#160;&#160;&#160;&#160;&#160;&#160;&#160;&#160;&#160;&#160;&#160;&#160;&#160;&#160;&#160;&#160;&#160;&#160;&#160;&#160;&#160;&#160;&#160;&#160;&#160;&#160;&#160;&#160;&#160;</text>
<polygon fill="none" stroke="#99ccff" points="1143.4556,-273 1143.4556,-290 1234.4556,-290 1234.4556,-273 1143.4556,-273"/>
<text text-anchor="start" x="1155.9502" y="-278.2" font-family="Courier,monospace" font-size="11.00" fill="#000000">string(40)</text>
<polygon fill="none" stroke="#99ccff" points="392.4556,-256 392.4556,-273 1143.4556,-273 1143.4556,-256 392.4556,-256"/>
<text text-anchor="start" x="395.4556" y="-261.2" font-family="Courier,monospace" font-size="11.00" fill="#000000"> &#160;&#160;&#160;&#160;&#160;&#160;&#160;&#160;&#160;&#160;&#160;&#160;&#160;&#160;&#160;&#160;&#160;&#160;&#160;&#160;&#160;&#160;&#160;&#160;&#160;&#160;&#160;&#160;&#160;&#160;&#160;&#160;&#160;&#160;&#160;&#160;&#160;&#160;&#160;&#160;FinServ__Description__c &#160;&#160;&#160;&#160;&#160;&#160;&#160;&#160;&#160;&#160;&#160;&#160;&#160;&#160;&#160;&#160;&#160;&#160;&#160;&#160;&#160;&#160;&#160;&#160;&#160;&#160;&#160;&#160;&#160;&#160;&#160;&#160;&#160;&#160;&#160;&#160;&#160;&#160;</text>
<polygon fill="none" stroke="#99ccff" points="1143.4556,-256 1143.4556,-273 1234.4556,-273 1234.4556,-256 1143.4556,-256"/>
<text text-anchor="start" x="1152.6497" y="-261.2" font-family="Courier,monospace" font-size="11.00" fill="#000000">string(255)</text>
<polygon fill="none" stroke="#99ccff" points="392.4556,-239 392.4556,-256 1143.4556,-256 1143.4556,-239 392.4556,-239"/>
<text text-anchor="start" x="395.4556" y="-244.2" font-family="Courier,monospace" font-size="11.00" fill="#000000"> &#160;&#160;&#160;&#160;&#160;&#160;&#160;&#160;&#160;&#160;&#160;&#160;&#160;&#160;&#160;&#160;&#160;&#160;&#160;&#160;&#160;&#160;&#160;&#160;&#160;&#160;&#160;&#160;&#160;&#160;&#160;&#160;&#160;&#160;&#160;&#160;&#160;&#160;&#160;&#160;FinServ__FinancialAccount__c &#160;&#160;&#160;&#160;&#160;&#160;&#160;&#160;&#160;&#160;&#160;&#160;&#160;&#160;&#160;&#160;&#160;&#160;&#160;&#160;&#160;&#160;&#160;&#160;&#160;&#160;&#160;&#160;&#160;&#160;&#160;&#160;&#160;&#160;&#160;&#160;&#160;&#160;</text>
<polygon fill="none" stroke="#99ccff" points="1143.4556,-239 1143.4556,-256 1234.4556,-256 1234.4556,-239 1143.4556,-239"/>
<text text-anchor="start" x="1146.0486" y="-244.2" font-family="Courier,monospace" font-size="11.00" fill="#000000">reference(18)</text>
<polygon fill="none" stroke="#99ccff" points="392.4556,-222 392.4556,-239 1143.4556,-239 1143.4556,-222 392.4556,-222"/>
<text text-anchor="start" x="395.4556" y="-227.2" font-family="Courier,monospace" font-size="11.00" fill="#000000"> &#160;&#160;&#160;&#160;&#160;&#160;&#160;&#160;&#160;&#160;&#160;&#160;&#160;&#160;&#160;&#160;&#160;&#160;&#160;&#160;&#160;&#160;&#160;&#160;&#160;&#160;&#160;&#160;&#160;&#160;&#160;&#160;&#160;&#160;&#160;&#160;&#160;&#160;&#160;&#160;FinServ__MerchantCategoryCode__c &#160;&#160;&#160;&#160;&#160;&#160;&#160;&#160;&#160;&#160;&#160;&#160;&#160;&#160;&#160;&#160;&#160;&#160;&#160;&#160;&#160;&#160;&#160;&#160;&#160;&#160;&#160;&#160;&#160;&#160;&#160;&#160;&#160;&#160;&#160;&#160;&#160;&#160;</text>
<polygon fill="none" stroke="#99ccff" points="1143.4556,-222 1143.4556,-239 1234.4556,-239 1234.4556,-222 1143.4556,-222"/>
<text text-anchor="start" x="1155.9502" y="-227.2" font-family="Courier,monospace" font-size="11.00" fill="#000000">string(10)</text>
<polygon fill="none" stroke="#99ccff" points="392.4556,-205 392.4556,-222 1143.4556,-222 1143.4556,-205 392.4556,-205"/>
<text text-anchor="start" x="395.4556" y="-210.2" font-family="Courier,monospace" font-size="11.00" fill="#000000"> &#160;&#160;&#160;&#160;&#160;&#160;&#160;&#160;&#160;&#160;&#160;&#160;&#160;&#160;&#160;&#160;&#160;&#160;&#160;&#160;&#160;&#160;&#160;&#160;&#160;&#160;&#160;&#160;&#160;&#160;&#160;&#160;&#160;&#160;&#160;&#160;&#160;&#160;&#160;&#160;FinServ__PostDate__c &#160;&#160;&#160;&#160;&#160;&#160;&#160;&#160;&#160;&#160;&#160;&#160;&#160;&#160;&#160;&#160;&#160;&#160;&#160;&#160;&#160;&#160;&#160;&#160;&#160;&#160;&#160;&#160;&#160;&#160;&#160;&#160;&#160;&#160;&#160;&#160;&#160;&#160;</text>
<polygon fill="none" stroke="#99ccff" points="1143.4556,-205 1143.4556,-222 1234.4556,-222 1234.4556,-205 1143.4556,-205"/>
<text text-anchor="start" x="1162.5513" y="-210.2" font-family="Courier,monospace" font-size="11.00" fill="#000000">datetime</text>
<polygon fill="none" stroke="#99ccff" points="392.4556,-188 392.4556,-205 1143.4556,-205 1143.4556,-188 392.4556,-188"/>
<text text-anchor="start" x="395.4556" y="-193.2" font-family="Courier,monospace" font-size="11.00" fill="#000000"> &#160;&#160;&#160;&#160;&#160;&#160;&#160;&#160;&#160;&#160;&#160;&#160;&#160;&#160;&#160;&#160;&#160;&#160;&#160;&#160;&#160;&#160;&#160;&#160;&#160;&#160;&#160;&#160;&#160;&#160;&#160;&#160;&#160;&#160;&#160;&#160;&#160;&#160;&#160;&#160;FinServ__RunningBalance__c &#160;&#160;&#160;&#160;&#160;&#160;&#160;&#160;&#160;&#160;&#160;&#160;&#160;&#160;&#160;&#160;&#160;&#160;&#160;&#160;&#160;&#160;&#160;&#160;&#160;&#160;&#160;&#160;&#160;&#160;&#160;&#160;&#160;&#160;&#160;&#160;&#160;&#160;</text>
<polygon fill="none" stroke="#99ccff" points="1143.4556,-188 1143.4556,-205 1234.4556,-205 1234.4556,-188 1143.4556,-188"/>
<text text-anchor="start" x="1162.5513" y="-193.2" font-family="Courier,monospace" font-size="11.00" fill="#000000">currency</text>
<polygon fill="none" stroke="#99ccff" points="392.4556,-171 392.4556,-188 1143.4556,-188 1143.4556,-171 392.4556,-171"/>
<text text-anchor="start" x="395.4556" y="-176.2" font-family="Courier,monospace" font-size="11.00" fill="#000000"> &#160;&#160;&#160;&#160;&#160;&#160;&#160;&#160;&#160;&#160;&#160;&#160;&#160;&#160;&#160;&#160;&#160;&#160;&#160;&#160;&#160;&#160;&#160;&#160;&#160;&#160;&#160;&#160;&#160;&#160;&#160;&#160;&#160;&#160;&#160;&#160;&#160;&#160;&#160;&#160;FinServ__SourceSystemId__c &#160;&#160;&#160;&#160;&#160;&#160;&#160;&#160;&#160;&#160;&#160;&#160;&#160;&#160;&#160;&#160;&#160;&#160;&#160;&#160;&#160;&#160;&#160;&#160;&#160;&#160;&#160;&#160;&#160;&#160;&#160;&#160;&#160;&#160;&#160;&#160;&#160;&#160;</text>
<polygon fill="none" stroke="#99ccff" points="1143.4556,-171 1143.4556,-188 1234.4556,-188 1234.4556,-171 1143.4556,-171"/>
<text text-anchor="start" x="1152.6497" y="-176.2" font-family="Courier,monospace" font-size="11.00" fill="#000000">string(100)</text>
<polygon fill="none" stroke="#99ccff" points="392.4556,-154 392.4556,-171 1143.4556,-171 1143.4556,-154 392.4556,-154"/>
<text text-anchor="start" x="394.9949" y="-159.2" font-family="Courier,monospace" font-size="11.00" fill="#000000"> &#160;&#160;&#160;&#160;&#160;&#160;&#160;&#160;&#160;&#160;&#160;&#160;&#160;&#160;&#160;&#160;&#160;&#160;&#160;&#160;&#160;&#160;&#160;&#160;&#160;&#160;&#160;&#160;&#160;&#160;&#160;&#160;&#160;&#160;&#160;&#160;&#160;&#160;&#160;&#160;FinServ__SourceTransactionType__c &#160;&#160;&#160;&#160;&#160;&#160;&#160;&#160;&#160;&#160;&#160;&#160;&#160;&#160;&#160;&#160;&#160;&#160;&#160;&#160;&#160;&#160;&#160;&#160;&#160;&#160;&#160;&#160;&#160;&#160;&#160;&#160;&#160;&#160;&#160;&#160;&#160;&#160;</text>
<polygon fill="none" stroke="#99ccff" points="1143.4556,-154 1143.4556,-171 1234.4556,-171 1234.4556,-154 1143.4556,-154"/>
<text text-anchor="start" x="1155.9502" y="-159.2" font-family="Courier,monospace" font-size="11.00" fill="#000000">string(80)</text>
<polygon fill="none" stroke="#99ccff" points="392.4556,-137 392.4556,-154 1143.4556,-154 1143.4556,-137 392.4556,-137"/>
<text text-anchor="start" x="395.4556" y="-142.2" font-family="Courier,monospace" font-size="11.00" fill="#000000"> &#160;&#160;&#160;&#160;&#160;&#160;&#160;&#160;&#160;&#160;&#160;&#160;&#160;&#160;&#160;&#160;&#160;&#160;&#160;&#160;&#160;&#160;&#160;&#160;&#160;&#160;&#160;&#160;&#160;&#160;&#160;&#160;&#160;&#160;&#160;&#160;&#160;&#160;&#160;&#160;FinServ__TransactionDate__c &#160;&#160;&#160;&#160;&#160;&#160;&#160;&#160;&#160;&#160;&#160;&#160;&#160;&#160;&#160;&#160;&#160;&#160;&#160;&#160;&#160;&#160;&#160;&#160;&#160;&#160;&#160;&#160;&#160;&#160;&#160;&#160;&#160;&#160;&#160;&#160;&#160;&#160;</text>
<polygon fill="none" stroke="#99ccff" points="1143.4556,-137 1143.4556,-154 1234.4556,-154 1234.4556,-137 1143.4556,-137"/>
<text text-anchor="start" x="1162.5513" y="-142.2" font-family="Courier,monospace" font-size="11.00" fill="#000000">datetime</text>
<polygon fill="none" stroke="#99ccff" points="392.4556,-120 392.4556,-137 1143.4556,-137 1143.4556,-120 392.4556,-120"/>
<text text-anchor="start" x="395.4556" y="-125.2" font-family="Courier,monospace" font-size="11.00" fill="#000000"> &#160;&#160;&#160;&#160;&#160;&#160;&#160;&#160;&#160;&#160;&#160;&#160;&#160;&#160;&#160;&#160;&#160;&#160;&#160;&#160;&#160;&#160;&#160;&#160;&#160;&#160;&#160;&#160;&#160;&#160;&#160;&#160;&#160;&#160;&#160;&#160;&#160;&#160;&#160;&#160;FinServ__TransactionId__c &#160;&#160;&#160;&#160;&#160;&#160;&#160;&#160;&#160;&#160;&#160;&#160;&#160;&#160;&#160;&#160;&#160;&#160;&#160;&#160;&#160;&#160;&#160;&#160;&#160;&#160;&#160;&#160;&#160;&#160;&#160;&#160;&#160;&#160;&#160;&#160;&#160;&#160;</text>
<polygon fill="none" stroke="#99ccff" points="1143.4556,-120 1143.4556,-137 1234.4556,-137 1234.4556,-120 1143.4556,-120"/>
<text text-anchor="start" x="1155.9502" y="-125.2" font-family="Courier,monospace" font-size="11.00" fill="#000000">string(80)</text>
<polygon fill="none" stroke="#99ccff" points="392.4556,-103 392.4556,-120 1143.4556,-120 1143.4556,-103 392.4556,-103"/>
<text text-anchor="start" x="395.4556" y="-108.2" font-family="Courier,monospace" font-size="11.00" fill="#000000"> &#160;&#160;&#160;&#160;&#160;&#160;&#160;&#160;&#160;&#160;&#160;&#160;&#160;&#160;&#160;&#160;&#160;&#160;&#160;&#160;&#160;&#160;&#160;&#160;&#160;&#160;&#160;&#160;&#160;&#160;&#160;&#160;&#160;&#160;&#160;&#160;&#160;&#160;&#160;&#160;FinServ__TransactionStatus__c &#160;&#160;&#160;&#160;&#160;&#160;&#160;&#160;&#160;&#160;&#160;&#160;&#160;&#160;&#160;&#160;&#160;&#160;&#160;&#160;&#160;&#160;&#160;&#160;&#160;&#160;&#160;&#160;&#160;&#160;&#160;&#160;&#160;&#160;&#160;&#160;&#160;&#160;</text>
<polygon fill="none" stroke="#99ccff" points="1143.4556,-103 1143.4556,-120 1234.4556,-120 1234.4556,-103 1143.4556,-103"/>
<text text-anchor="start" x="1146.0486" y="-108.2" font-family="Courier,monospace" font-size="11.00" fill="#000000">picklist(255)</text>
<polygon fill="none" stroke="#99ccff" points="392.4556,-86 392.4556,-103 1143.4556,-103 1143.4556,-86 392.4556,-86"/>
<text text-anchor="start" x="395.4556" y="-91.2" font-family="Courier,monospace" font-size="11.00" fill="#000000"> &#160;&#160;&#160;&#160;&#160;&#160;&#160;&#160;&#160;&#160;&#160;&#160;&#160;&#160;&#160;&#160;&#160;&#160;&#160;&#160;&#160;&#160;&#160;&#160;&#160;&#160;&#160;&#160;&#160;&#160;&#160;&#160;&#160;&#160;&#160;&#160;&#160;&#160;&#160;&#160;FinServ__TransactionSubtype__c &#160;&#160;&#160;&#160;&#160;&#160;&#160;&#160;&#160;&#160;&#160;&#160;&#160;&#160;&#160;&#160;&#160;&#160;&#160;&#160;&#160;&#160;&#160;&#160;&#160;&#160;&#160;&#160;&#160;&#160;&#160;&#160;&#160;&#160;&#160;&#160;&#160;&#160;</text>
<polygon fill="none" stroke="#99ccff" points="1143.4556,-86 1143.4556,-103 1234.4556,-103 1234.4556,-86 1143.4556,-86"/>
<text text-anchor="start" x="1146.0486" y="-91.2" font-family="Courier,monospace" font-size="11.00" fill="#000000">picklist(255)</text>
<polygon fill="none" stroke="#99ccff" points="392.4556,-69 392.4556,-86 1143.4556,-86 1143.4556,-69 392.4556,-69"/>
<text text-anchor="start" x="395.4556" y="-74.2" font-family="Courier,monospace" font-size="11.00" fill="#000000"> &#160;&#160;&#160;&#160;&#160;&#160;&#160;&#160;&#160;&#160;&#160;&#160;&#160;&#160;&#160;&#160;&#160;&#160;&#160;&#160;&#160;&#160;&#160;&#160;&#160;&#160;&#160;&#160;&#160;&#160;&#160;&#160;&#160;&#160;&#160;&#160;&#160;&#160;&#160;&#160;FinServ__TransactionType__c &#160;&#160;&#160;&#160;&#160;&#160;&#160;&#160;&#160;&#160;&#160;&#160;&#160;&#160;&#160;&#160;&#160;&#160;&#160;&#160;&#160;&#160;&#160;&#160;&#160;&#160;&#160;&#160;&#160;&#160;&#160;&#160;&#160;&#160;&#160;&#160;&#160;&#160;</text>
<polygon fill="none" stroke="#99ccff" points="1143.4556,-69 1143.4556,-86 1234.4556,-86 1234.4556,-69 1143.4556,-69"/>
<text text-anchor="start" x="1146.0486" y="-74.2" font-family="Courier,monospace" font-size="11.00" fill="#000000">picklist(255)</text>
<polygon fill="none" stroke="#99ccff" points="392.4556,-52 392.4556,-69 1143.4556,-69 1143.4556,-52 392.4556,-52"/>
<text text-anchor="start" x="395.4556" y="-57.2" font-family="Courier,monospace" font-size="11.00" fill="#000000"> &#160;&#160;&#160;&#160;&#160;&#160;&#160;&#160;&#160;&#160;&#160;&#160;&#160;&#160;&#160;&#160;&#160;&#160;&#160;&#160;&#160;&#160;&#160;&#160;&#160;&#160;&#160;&#160;&#160;&#160;&#160;&#160;&#160;&#160;&#160;&#160;&#160;&#160;&#160;&#160;FinServ__DisputeReason__c &#160;&#160;&#160;&#160;&#160;&#160;&#160;&#160;&#160;&#160;&#160;&#160;&#160;&#160;&#160;&#160;&#160;&#160;&#160;&#160;&#160;&#160;&#160;&#160;&#160;&#160;&#160;&#160;&#160;&#160;&#160;&#160;&#160;&#160;&#160;&#160;&#160;&#160;</text>
<polygon fill="none" stroke="#99ccff" points="1143.4556,-52 1143.4556,-69 1234.4556,-69 1234.4556,-52 1143.4556,-52"/>
<text text-anchor="start" x="1146.0486" y="-57.2" font-family="Courier,monospace" font-size="11.00" fill="#000000">picklist(255)</text>
<polygon fill="none" stroke="#99ccff" points="392.4556,-35 392.4556,-52 1143.4556,-52 1143.4556,-35 392.4556,-35"/>
<text text-anchor="start" x="395.4556" y="-40.2" font-family="Courier,monospace" font-size="11.00" fill="#000000"> &#160;&#160;&#160;&#160;&#160;&#160;&#160;&#160;&#160;&#160;&#160;&#160;&#160;&#160;&#160;&#160;&#160;&#160;&#160;&#160;&#160;&#160;&#160;&#160;&#160;&#160;&#160;&#160;&#160;&#160;&#160;&#160;&#160;&#160;&#160;&#160;&#160;&#160;&#160;&#160;FinServ__IsDisputed__c &#160;&#160;&#160;&#160;&#160;&#160;&#160;&#160;&#160;&#160;&#160;&#160;&#160;&#160;&#160;&#160;&#160;&#160;&#160;&#160;&#160;&#160;&#160;&#160;&#160;&#160;&#160;&#160;&#160;&#160;&#160;&#160;&#160;&#160;&#160;&#160;&#160;&#160;</text>
<polygon fill="none" stroke="#99ccff" points="1143.4556,-35 1143.4556,-52 1234.4556,-52 1234.4556,-35 1143.4556,-35"/>
<text text-anchor="start" x="1165.8518" y="-40.2" font-family="Courier,monospace" font-size="11.00" fill="#000000">boolean</text>
<polygon fill="none" stroke="#99ccff" points="392.4556,-18 392.4556,-35 1143.4556,-35 1143.4556,-18 392.4556,-18"/>
<text text-anchor="start" x="395.4556" y="-23.2" font-family="Courier,monospace" font-size="11.00" fill="#000000"> &#160;&#160;&#160;&#160;&#160;&#160;&#160;&#160;&#160;&#160;&#160;&#160;&#160;&#160;&#160;&#160;&#160;&#160;&#160;&#160;&#160;&#160;&#160;&#160;&#160;&#160;&#160;&#160;&#160;&#160;&#160;&#160;&#160;&#160;&#160;&#160;&#160;&#160;&#160;&#160;FinServ__WaiverReason__c &#160;&#160;&#160;&#160;&#160;&#160;&#160;&#160;&#160;&#160;&#160;&#160;&#160;&#160;&#160;&#160;&#160;&#160;&#160;&#160;&#160;&#160;&#160;&#160;&#160;&#160;&#160;&#160;&#160;&#160;&#160;&#160;&#160;&#160;&#160;&#160;&#160;&#160;</text>
<polygon fill="none" stroke="#99ccff" points="1143.4556,-18 1143.4556,-35 1234.4556,-35 1234.4556,-18 1143.4556,-18"/>
<text text-anchor="start" x="1146.0486" y="-23.2" font-family="Courier,monospace" font-size="11.00" fill="#000000">picklist(255)</text>
<polygon fill="none" stroke="#99ccff" points="391.4556,-17 391.4556,-461 1235.4556,-461 1235.4556,-17 391.4556,-17"/>
</a>
</g>
</g>
<!-- Group -->
<g id="node2" class="node">
<title>Group</title>
<text text-anchor="middle" x="100.415" y="-423.7" font-family="Courier,monospace" font-size="11.00" fill="#000000">Group</text>
</g>
<!-- FinServ__FinancialAccountTransaction__c&#45;&gt;Group -->
<g id="edge1" class="edge">
<title>FinServ__FinancialAccountTransaction__c:w&#45;&gt;Group:e</title>
<path fill="none" stroke="#ff99cc" d="M377.7785,-418.0367C283.7085,-418.498 176.9113,-423.1886 127.7852,-425.5938"/>
<polygon fill="#ff99cc" stroke="#ff99cc" points="384.4556,-418.0201 392.4646,-421.6 388.4556,-418.01 392.4556,-418 392.4556,-418 392.4556,-418 388.4556,-418.01 392.4465,-414.4 384.4556,-418.0201 384.4556,-418.0201"/>
<ellipse fill="none" stroke="#ff99cc" cx="381.2556" cy="-418.0281" rx="3.2" ry="3.2"/>
<text text-anchor="middle" x="296.1428" y="-425.8015" font-family="Monaco" font-size="9.00" fill="#000000">Owner</text>
</g>
<!-- User -->
<g id="node3" class="node">
<title>User</title>
<text text-anchor="middle" x="100.415" y="-369.7" font-family="Courier,monospace" font-size="11.00" fill="#000000">User</text>
</g>
<!-- FinServ__FinancialAccountTransaction__c&#45;&gt;User -->
<g id="edge2" class="edge">
<title>FinServ__FinancialAccountTransaction__c:w&#45;&gt;User:e</title>
<path fill="none" stroke="#ff99cc" d="M382.0271,-408.0483C380.551,-404.5933 378.7036,-401.0691 374.4556,-398.9985 352.6002,-388.3461 192.325,-378.2009 127.5063,-374.4878"/>
<polygon fill="#ff99cc" stroke="#ff99cc" points="386.6679,-412.477 389.9702,-420.6044 389.5617,-415.2385 392.4556,-418 392.4556,-418 392.4556,-418 389.5617,-415.2385 394.9409,-415.3956 386.6679,-412.477 386.6679,-412.477"/>
<ellipse fill="none" stroke="#ff99cc" cx="384.3529" cy="-410.2678" rx="3.2" ry="3.2"/>
<text text-anchor="middle" x="296.1428" y="-402.8015" font-family="Monaco" font-size="9.00" fill="#000000">Owner</text>
</g>
<!-- FinServ__FinancialAccountTransaction__c&#45;&gt;User -->
<g id="edge3" class="edge">
<title>FinServ__FinancialAccountTransaction__c:w&#45;&gt;User:e</title>
<path fill="none" stroke="#ff99cc" d="M378.1192,-365.3131C377.0374,-365.1845 375.8369,-365.0751 374.4556,-364.9985 304.9509,-361.1462 287.4011,-362.6308 217.8301,-364.9985 186.7917,-366.0549 151.218,-368.6777 127.4369,-370.6343"/>
<polygon fill="#ff99cc" stroke="#ff99cc" points="384.5104,-366.0651 392.0349,-370.5753 388.483,-366.5325 392.4556,-367 392.4556,-367 392.4556,-367 388.483,-366.5325 392.8763,-363.4247 384.5104,-366.0651 384.5104,-366.0651"/>
<ellipse fill="none" stroke="#ff99cc" cx="381.3323" cy="-365.6911" rx="3.2" ry="3.2"/>
<text text-anchor="middle" x="296.1428" y="-368.8015" font-family="Monaco" font-size="9.00" fill="#000000">LastModifiedBy</text>
</g>
<!-- FinServ__BillingStatement__c -->
<g id="node4" class="node">
<title>FinServ__BillingStatement__c</title>
<text text-anchor="middle" x="100.415" y="-295.7" font-family="Courier,monospace" font-size="11.00" fill="#000000">FinServ__BillingStatement__c</text>
</g>
<!-- FinServ__FinancialAccountTransaction__c&#45;&gt;FinServ__BillingStatement__c -->
<g id="edge4" class="edge">
<title>FinServ__FinancialAccountTransaction__c:w&#45;&gt;FinServ__BillingStatement__c:e</title>
<path fill="none" stroke="#ff99cc" d="M377.76,-299C317.8811,-299 252.8202,-299 200.7713,-299"/>
<polygon fill="#ff99cc" stroke="#ff99cc" points="384.4556,-299.0001 392.4556,-302.6 388.4556,-299 392.4556,-299 392.4556,-299 392.4556,-299 388.4556,-299 392.4555,-295.4 384.4556,-299.0001 384.4556,-299.0001"/>
<ellipse fill="none" stroke="#ff99cc" cx="381.2556" cy="-299.0001" rx="3.2" ry="3.2"/>
<text text-anchor="middle" x="296.1428" y="-303.8015" font-family="Monaco" font-size="9.00" fill="#000000">FinServ__BillingStatements__r</text>
</g>
<!-- FinServ__FinancialAccount__c -->
<g id="node5" class="node">
<title>FinServ__FinancialAccount__c</title>
<text text-anchor="middle" x="100.415" y="-244.7" font-family="Courier,monospace" font-size="11.00" fill="#000000">FinServ__FinancialAccount__c</text>
</g>
<!-- FinServ__FinancialAccountTransaction__c&#45;&gt;FinServ__FinancialAccount__c -->
<g id="edge5" class="edge">
<title>FinServ__FinancialAccountTransaction__c:w&#45;&gt;FinServ__FinancialAccount__c:e</title>
<path fill="none" stroke="#ff99cc" d="M377.76,-248C317.8811,-248 252.8202,-248 200.7713,-248"/>
<polygon fill="#ff99cc" stroke="#ff99cc" points="384.4556,-248.0001 392.4556,-251.6 388.4556,-248 392.4556,-248 392.4556,-248 392.4556,-248 388.4556,-248 392.4555,-244.4 384.4556,-248.0001 384.4556,-248.0001"/>
<ellipse fill="none" stroke="#ff99cc" cx="381.2556" cy="-248.0001" rx="3.2" ry="3.2"/>
<text text-anchor="middle" x="296.1428" y="-252.8015" font-family="Monaco" font-size="9.00" fill="#000000">FinServ__FinancialAccount__r</text>
</g>
</g>
</svg>
