<?xml version="1.0" encoding="UTF-8" standalone="no"?>
<!DOCTYPE svg PUBLIC "-//W3C//DTD SVG 1.1//EN"
 "http://www.w3.org/Graphics/SVG/1.1/DTD/svg11.dtd">
<!-- Generated by graphviz version 2.40.1 (20161225.0304)
 -->
<!-- Title: Salesforce+ ERD Pages: 1 -->
<svg width="1090pt" height="174pt"
 viewBox="0.00 0.00 1090.05 174.00" xmlns="http://www.w3.org/2000/svg" xmlns:xlink="http://www.w3.org/1999/xlink">
<g id="graph0" class="graph" transform="scale(1 1) rotate(0) translate(4 170)">
<title>Salesforce+ ERD</title>
<polygon fill="#efeffd" stroke="transparent" points="-4,4 -4,-170 1086.0488,-170 1086.0488,4 -4,4"/>
<text text-anchor="middle" x="1033.5422" y="-5.8" font-family="Courier,monospace" font-size="9.00" fill="#000000">Salesforce ERD </text>
<!-- FinServ__AccountAccountRelation__Share -->
<g id="node1" class="node">
<title>FinServ__AccountAccountRelation__Share</title>
<g id="a_node1"><a xlink:href="#" xlink:title=" FinServ__AccountAccountRelation__Share ">
<polygon fill="#ffeeff" stroke="transparent" points="350.0488,-17 350.0488,-155 1082.0488,-155 1082.0488,-17 350.0488,-17"/>
<polygon fill="#add8e6" stroke="transparent" points="351.0488,-137 351.0488,-154 1081.0488,-154 1081.0488,-137 351.0488,-137"/>
<polygon fill="none" stroke="#99ccff" points="351.0488,-137 351.0488,-154 1081.0488,-154 1081.0488,-137 351.0488,-137"/>
<text text-anchor="start" x="590.6284" y="-143.2" font-family="Courier,monospace" font-weight="bold" font-size="11.00" fill="#000000">FinServ__AccountAccountRelation__Share</text>
<polygon fill="#99ccff" stroke="transparent" points="351.0488,-120 351.0488,-137 990.0488,-137 990.0488,-120 351.0488,-120"/>
<polygon fill="none" stroke="#99ccff" points="351.0488,-120 351.0488,-137 990.0488,-137 990.0488,-120 351.0488,-120"/>
<text text-anchor="start" x="354.0488" y="-126.2" font-family="Courier,monospace" font-size="11.00" fill="#000000"> &#160;&#160;&#160;&#160;&#160;&#160;&#160;&#160;&#160;&#160;&#160;&#160;&#160;&#160;&#160;&#160;&#160;&#160;&#160;&#160;&#160;&#160;&#160;&#160;&#160;&#160;&#160;&#160;&#160;&#160;&#160;&#160;&#160;&#160;&#160;&#160;&#160;&#160;&#160;&#160;&#160;&#160;</text>
<text text-anchor="start" x="637.895" y="-126.2" font-family="Courier,monospace" font-weight="bold" font-size="11.00" fill="#000000">Id</text>
<text text-anchor="start" x="651.0972" y="-126.2" font-family="Courier,monospace" font-size="11.00" fill="#000000"> &#160;&#160;&#160;&#160;&#160;&#160;&#160;&#160;&#160;&#160;&#160;&#160;&#160;&#160;&#160;&#160;&#160;&#160;&#160;&#160;&#160;&#160;&#160;&#160;&#160;&#160;&#160;&#160;&#160;&#160;&#160;&#160;&#160;&#160;&#160;&#160;&#160;&#160;&#160;</text>
<polygon fill="none" stroke="#99ccff" points="990.0488,-120 990.0488,-137 1081.0488,-137 1081.0488,-120 990.0488,-120"/>
<text text-anchor="start" x="1015.7456" y="-125.2" font-family="Courier,monospace" font-size="11.00" fill="#000000">id(18)</text>
<polygon fill="none" stroke="#99ccff" points="351.0488,-103 351.0488,-120 990.0488,-120 990.0488,-103 351.0488,-103"/>
<text text-anchor="start" x="354.0488" y="-108.2" font-family="Courier,monospace" font-size="11.00" fill="#000000"> &#160;&#160;&#160;&#160;&#160;&#160;&#160;&#160;&#160;&#160;&#160;&#160;&#160;&#160;&#160;&#160;&#160;&#160;&#160;&#160;&#160;&#160;&#160;&#160;&#160;&#160;&#160;&#160;&#160;&#160;&#160;&#160;&#160;&#160;&#160;&#160;&#160;&#160;&#160;&#160;ParentId &#160;&#160;&#160;&#160;&#160;&#160;&#160;&#160;&#160;&#160;&#160;&#160;&#160;&#160;&#160;&#160;&#160;&#160;&#160;&#160;&#160;&#160;&#160;&#160;&#160;&#160;&#160;&#160;&#160;&#160;&#160;&#160;&#160;&#160;&#160;&#160;&#160;&#160;</text>
<polygon fill="none" stroke="#99ccff" points="990.0488,-103 990.0488,-120 1081.0488,-120 1081.0488,-103 990.0488,-103"/>
<text text-anchor="start" x="992.6418" y="-108.2" font-family="Courier,monospace" font-size="11.00" fill="#000000">reference(18)</text>
<polygon fill="none" stroke="#99ccff" points="351.0488,-86 351.0488,-103 990.0488,-103 990.0488,-86 351.0488,-86"/>
<text text-anchor="start" x="354.0488" y="-91.2" font-family="Courier,monospace" font-size="11.00" fill="#000000"> &#160;&#160;&#160;&#160;&#160;&#160;&#160;&#160;&#160;&#160;&#160;&#160;&#160;&#160;&#160;&#160;&#160;&#160;&#160;&#160;&#160;&#160;&#160;&#160;&#160;&#160;&#160;&#160;&#160;&#160;&#160;&#160;&#160;&#160;&#160;&#160;&#160;&#160;&#160;&#160;UserOrGroupId &#160;&#160;&#160;&#160;&#160;&#160;&#160;&#160;&#160;&#160;&#160;&#160;&#160;&#160;&#160;&#160;&#160;&#160;&#160;&#160;&#160;&#160;&#160;&#160;&#160;&#160;&#160;&#160;&#160;&#160;&#160;&#160;&#160;&#160;&#160;&#160;&#160;&#160;</text>
<polygon fill="none" stroke="#99ccff" points="990.0488,-86 990.0488,-103 1081.0488,-103 1081.0488,-86 990.0488,-86"/>
<text text-anchor="start" x="992.6418" y="-91.2" font-family="Courier,monospace" font-size="11.00" fill="#000000">reference(18)</text>
<polygon fill="none" stroke="#99ccff" points="351.0488,-69 351.0488,-86 990.0488,-86 990.0488,-69 351.0488,-69"/>
<text text-anchor="start" x="354.0488" y="-74.2" font-family="Courier,monospace" font-size="11.00" fill="#000000"> &#160;&#160;&#160;&#160;&#160;&#160;&#160;&#160;&#160;&#160;&#160;&#160;&#160;&#160;&#160;&#160;&#160;&#160;&#160;&#160;&#160;&#160;&#160;&#160;&#160;&#160;&#160;&#160;&#160;&#160;&#160;&#160;&#160;&#160;&#160;&#160;&#160;&#160;&#160;&#160;AccessLevel &#160;&#160;&#160;&#160;&#160;&#160;&#160;&#160;&#160;&#160;&#160;&#160;&#160;&#160;&#160;&#160;&#160;&#160;&#160;&#160;&#160;&#160;&#160;&#160;&#160;&#160;&#160;&#160;&#160;&#160;&#160;&#160;&#160;&#160;&#160;&#160;&#160;&#160;</text>
<polygon fill="none" stroke="#99ccff" points="990.0488,-69 990.0488,-86 1081.0488,-86 1081.0488,-69 990.0488,-69"/>
<text text-anchor="start" x="995.9424" y="-74.2" font-family="Courier,monospace" font-size="11.00" fill="#000000">picklist(40)</text>
<polygon fill="none" stroke="#99ccff" points="351.0488,-52 351.0488,-69 990.0488,-69 990.0488,-52 351.0488,-52"/>
<text text-anchor="start" x="354.0488" y="-57.2" font-family="Courier,monospace" font-size="11.00" fill="#000000"> &#160;&#160;&#160;&#160;&#160;&#160;&#160;&#160;&#160;&#160;&#160;&#160;&#160;&#160;&#160;&#160;&#160;&#160;&#160;&#160;&#160;&#160;&#160;&#160;&#160;&#160;&#160;&#160;&#160;&#160;&#160;&#160;&#160;&#160;&#160;&#160;&#160;&#160;&#160;&#160;RowCause &#160;&#160;&#160;&#160;&#160;&#160;&#160;&#160;&#160;&#160;&#160;&#160;&#160;&#160;&#160;&#160;&#160;&#160;&#160;&#160;&#160;&#160;&#160;&#160;&#160;&#160;&#160;&#160;&#160;&#160;&#160;&#160;&#160;&#160;&#160;&#160;&#160;&#160;</text>
<polygon fill="none" stroke="#99ccff" points="990.0488,-52 990.0488,-69 1081.0488,-69 1081.0488,-52 990.0488,-52"/>
<text text-anchor="start" x="995.9424" y="-57.2" font-family="Courier,monospace" font-size="11.00" fill="#000000">picklist(40)</text>
<polygon fill="none" stroke="#99ccff" points="351.0488,-35 351.0488,-52 990.0488,-52 990.0488,-35 351.0488,-35"/>
<text text-anchor="start" x="353.6973" y="-40.2" font-family="Courier,monospace" font-size="11.00" fill="#000000"> &#160;&#160;&#160;&#160;&#160;&#160;&#160;&#160;&#160;&#160;&#160;&#160;&#160;&#160;&#160;&#160;&#160;&#160;&#160;&#160;&#160;&#160;&#160;&#160;&#160;&#160;&#160;&#160;&#160;&#160;&#160;&#160;&#160;&#160;&#160;&#160;&#160;&#160;&#160;&#160;LastModifiedById &#160;&#160;&#160;&#160;&#160;&#160;&#160;&#160;&#160;&#160;&#160;&#160;&#160;&#160;&#160;&#160;&#160;&#160;&#160;&#160;&#160;&#160;&#160;&#160;&#160;&#160;&#160;&#160;&#160;&#160;&#160;&#160;&#160;&#160;&#160;&#160;&#160;&#160;</text>
<polygon fill="none" stroke="#99ccff" points="990.0488,-35 990.0488,-52 1081.0488,-52 1081.0488,-35 990.0488,-35"/>
<text text-anchor="start" x="992.6418" y="-40.2" font-family="Courier,monospace" font-size="11.00" fill="#000000">reference(18)</text>
<polygon fill="none" stroke="#99ccff" points="351.0488,-18 351.0488,-35 990.0488,-35 990.0488,-18 351.0488,-18"/>
<text text-anchor="start" x="354.0488" y="-23.2" font-family="Courier,monospace" font-size="11.00" fill="#000000"> &#160;&#160;&#160;&#160;&#160;&#160;&#160;&#160;&#160;&#160;&#160;&#160;&#160;&#160;&#160;&#160;&#160;&#160;&#160;&#160;&#160;&#160;&#160;&#160;&#160;&#160;&#160;&#160;&#160;&#160;&#160;&#160;&#160;&#160;&#160;&#160;&#160;&#160;&#160;&#160;IsDeleted &#160;&#160;&#160;&#160;&#160;&#160;&#160;&#160;&#160;&#160;&#160;&#160;&#160;&#160;&#160;&#160;&#160;&#160;&#160;&#160;&#160;&#160;&#160;&#160;&#160;&#160;&#160;&#160;&#160;&#160;&#160;&#160;&#160;&#160;&#160;&#160;&#160;&#160;</text>
<polygon fill="none" stroke="#99ccff" points="990.0488,-18 990.0488,-35 1081.0488,-35 1081.0488,-18 990.0488,-18"/>
<text text-anchor="start" x="1012.4451" y="-23.2" font-family="Courier,monospace" font-size="11.00" fill="#000000">boolean</text>
<polygon fill="none" stroke="#99ccff" points="350.0488,-17 350.0488,-155 1082.0488,-155 1082.0488,-17 350.0488,-17"/>
</a>
</g>
</g>
<!-- FinServ__AccountAccountRelation__c -->
<g id="node2" class="node">
<title>FinServ__AccountAccountRelation__c</title>
<text text-anchor="middle" x="120.2183" y="-144.7" font-family="Courier,monospace" font-size="11.00" fill="#000000">FinServ__AccountAccountRelation__c</text>
</g>
<!-- FinServ__AccountAccountRelation__Share&#45;&gt;FinServ__AccountAccountRelation__c -->
<g id="edge1" class="edge">
<title>FinServ__AccountAccountRelation__Share:w&#45;&gt;FinServ__AccountAccountRelation__c:e</title>
<path fill="none" stroke="#ff99cc" d="M336.3238,-112.6531C306.877,-114.872 259.4177,-122.4035 216.4653,-129.9473"/>
<polygon fill="#ff99cc" stroke="#ff99cc" points="343.0567,-112.3545 351.2084,-115.5965 347.0528,-112.1773 351.0488,-112 351.0488,-112 351.0488,-112 347.0528,-112.1773 350.8893,-108.4035 343.0567,-112.3545 343.0567,-112.3545"/>
<ellipse fill="none" stroke="#ff99cc" cx="339.8598" cy="-112.4963" rx="3.2" ry="3.2"/>
<text text-anchor="middle" x="295.2427" y="-126.8015" font-family="Monaco" font-size="9.00" fill="#000000">Parent</text>
</g>
<!-- Group -->
<g id="node3" class="node">
<title>Group</title>
<text text-anchor="middle" x="120.2183" y="-95.7" font-family="Courier,monospace" font-size="11.00" fill="#000000">Group</text>
</g>
<!-- FinServ__AccountAccountRelation__Share&#45;&gt;Group -->
<g id="edge2" class="edge">
<title>FinServ__AccountAccountRelation__Share:w&#45;&gt;Group:e</title>
<path fill="none" stroke="#ff99cc" d="M336.6392,-95.025C266.27,-95.2626 187.5403,-97.1413 147.2238,-98.2288"/>
<polygon fill="#ff99cc" stroke="#ff99cc" points="343.0488,-95.0139 351.0551,-98.6 347.0488,-95.007 351.0488,-95 351.0488,-95 351.0488,-95 347.0488,-95.007 351.0426,-91.4 343.0488,-95.0139 343.0488,-95.0139"/>
<ellipse fill="none" stroke="#ff99cc" cx="339.8488" cy="-95.0195" rx="3.2" ry="3.2"/>
<text text-anchor="middle" x="295.2427" y="-99.8015" font-family="Monaco" font-size="9.00" fill="#000000">UserOrGroup</text>
</g>
<!-- User -->
<g id="node4" class="node">
<title>User</title>
<text text-anchor="middle" x="120.2183" y="-41.7" font-family="Courier,monospace" font-size="11.00" fill="#000000">User</text>
</g>
<!-- FinServ__AccountAccountRelation__Share&#45;&gt;User -->
<g id="edge3" class="edge">
<title>FinServ__AccountAccountRelation__Share:w&#45;&gt;User:e</title>
<path fill="none" stroke="#ff99cc" d="M339.7509,-86.0211C338.2182,-83.7251 336.3044,-81.4872 333.0488,-79.9985 270.8993,-51.5793 189.1982,-45.8929 147.4069,-44.9704"/>
<polygon fill="#ff99cc" stroke="#ff99cc" points="344.7858,-90.0225 348.809,-97.8184 347.9173,-92.5113 351.0488,-95 351.0488,-95 351.0488,-95 347.9173,-92.5113 353.2887,-92.1816 344.7858,-90.0225 344.7858,-90.0225"/>
<ellipse fill="none" stroke="#ff99cc" cx="342.2806" cy="-88.0316" rx="3.2" ry="3.2"/>
<text text-anchor="middle" x="295.2427" y="-83.8015" font-family="Monaco" font-size="9.00" fill="#000000">UserOrGroup</text>
</g>
<!-- FinServ__AccountAccountRelation__Share&#45;&gt;User -->
<g id="edge4" class="edge">
<title>FinServ__AccountAccountRelation__Share:w&#45;&gt;User:e</title>
<path fill="none" stroke="#ff99cc" d="M336.4052,-42.9987C335.4023,-42.9987 334.2988,-42.9986 333.0488,-42.9985 299.4434,-42.9972 291.0411,-42.7535 257.4365,-42.9985 219.1982,-43.2774 174.9707,-43.9933 147.2943,-44.4886"/>
<polygon fill="#ff99cc" stroke="#ff99cc" points="343.0488,-42.9993 351.0485,-46.6 347.0488,-42.9996 351.0488,-43 351.0488,-43 351.0488,-43 347.0488,-42.9996 351.0492,-39.4 343.0488,-42.9993 343.0488,-42.9993"/>
<ellipse fill="none" stroke="#ff99cc" cx="339.8488" cy="-42.999" rx="3.2" ry="3.2"/>
<text text-anchor="middle" x="295.2427" y="-47.8015" font-family="Monaco" font-size="9.00" fill="#000000">LastModifiedBy</text>
</g>
</g>
</svg>
