<?xml version="1.0" encoding="UTF-8" standalone="no"?>
<!DOCTYPE svg PUBLIC "-//W3C//DTD SVG 1.1//EN"
 "http://www.w3.org/Graphics/SVG/1.1/DTD/svg11.dtd">
<!-- Generated by graphviz version 2.40.1 (20161225.0304)
 -->
<!-- Title: Salesforce+ ERD Pages: 1 -->
<svg width="1156pt" height="248pt"
 viewBox="0.00 0.00 1156.05 248.00" xmlns="http://www.w3.org/2000/svg" xmlns:xlink="http://www.w3.org/1999/xlink">
<g id="graph0" class="graph" transform="scale(1 1) rotate(0) translate(4 244)">
<title>Salesforce+ ERD</title>
<polygon fill="#efeffd" stroke="transparent" points="-4,4 -4,-244 1152.0488,-244 1152.0488,4 -4,4"/>
<text text-anchor="middle" x="1099.5422" y="-5.8" font-family="Courier,monospace" font-size="9.00" fill="#000000">Salesforce ERD </text>
<!-- FinServ__LifeEvent__c -->
<g id="node1" class="node">
<title>FinServ__LifeEvent__c</title>
<g id="a_node1"><a xlink:href="#" xlink:title=" FinServ__LifeEvent__c ">
<polygon fill="#ffeeff" stroke="transparent" points="350.0488,-17 350.0488,-240 1148.0488,-240 1148.0488,-17 350.0488,-17"/>
<polygon fill="#add8e6" stroke="transparent" points="351.0488,-221.5 351.0488,-238.5 1147.0488,-238.5 1147.0488,-221.5 351.0488,-221.5"/>
<polygon fill="none" stroke="#99ccff" points="351.0488,-221.5 351.0488,-238.5 1147.0488,-238.5 1147.0488,-221.5 351.0488,-221.5"/>
<text text-anchor="start" x="679.7375" y="-227.7" font-family="Courier,monospace" font-weight="bold" font-size="11.00" fill="#000000">FinServ__LifeEvent__c</text>
<polygon fill="#99ccff" stroke="transparent" points="351.0488,-204.5 351.0488,-221.5 1056.0488,-221.5 1056.0488,-204.5 351.0488,-204.5"/>
<polygon fill="none" stroke="#99ccff" points="351.0488,-204.5 351.0488,-221.5 1056.0488,-221.5 1056.0488,-204.5 351.0488,-204.5"/>
<text text-anchor="start" x="354.0488" y="-210.7" font-family="Courier,monospace" font-size="11.00" fill="#000000"> &#160;&#160;&#160;&#160;&#160;&#160;&#160;&#160;&#160;&#160;&#160;&#160;&#160;&#160;&#160;&#160;&#160;&#160;&#160;&#160;&#160;&#160;&#160;&#160;&#160;&#160;&#160;&#160;&#160;&#160;&#160;&#160;&#160;&#160;&#160;&#160;&#160;&#160;&#160;&#160;&#160;&#160;</text>
<text text-anchor="start" x="637.895" y="-210.7" font-family="Courier,monospace" font-weight="bold" font-size="11.00" fill="#000000">Id</text>
<text text-anchor="start" x="651.0972" y="-210.7" font-family="Courier,monospace" font-size="11.00" fill="#000000"> &#160;&#160;&#160;&#160;&#160;&#160;&#160;&#160;&#160;&#160;&#160;&#160;&#160;&#160;&#160;&#160;&#160;&#160;&#160;&#160;&#160;&#160;&#160;&#160;&#160;&#160;&#160;&#160;&#160;&#160;&#160;&#160;&#160;&#160;&#160;&#160;&#160;&#160;&#160;</text>
<polygon fill="none" stroke="#99ccff" points="1056.0488,-204.5 1056.0488,-221.5 1147.0488,-221.5 1147.0488,-204.5 1056.0488,-204.5"/>
<text text-anchor="start" x="1081.7456" y="-209.7" font-family="Courier,monospace" font-size="11.00" fill="#000000">id(18)</text>
<polygon fill="none" stroke="#99ccff" points="351.0488,-187.5 351.0488,-204.5 1056.0488,-204.5 1056.0488,-187.5 351.0488,-187.5"/>
<text text-anchor="start" x="354.0488" y="-192.7" font-family="Courier,monospace" font-size="11.00" fill="#000000"> &#160;&#160;&#160;&#160;&#160;&#160;&#160;&#160;&#160;&#160;&#160;&#160;&#160;&#160;&#160;&#160;&#160;&#160;&#160;&#160;&#160;&#160;&#160;&#160;&#160;&#160;&#160;&#160;&#160;&#160;&#160;&#160;&#160;&#160;&#160;&#160;&#160;&#160;&#160;&#160;OwnerId &#160;&#160;&#160;&#160;&#160;&#160;&#160;&#160;&#160;&#160;&#160;&#160;&#160;&#160;&#160;&#160;&#160;&#160;&#160;&#160;&#160;&#160;&#160;&#160;&#160;&#160;&#160;&#160;&#160;&#160;&#160;&#160;&#160;&#160;&#160;&#160;&#160;&#160;</text>
<polygon fill="none" stroke="#99ccff" points="1056.0488,-187.5 1056.0488,-204.5 1147.0488,-204.5 1147.0488,-187.5 1056.0488,-187.5"/>
<text text-anchor="start" x="1058.6418" y="-192.7" font-family="Courier,monospace" font-size="11.00" fill="#000000">reference(18)</text>
<polygon fill="none" stroke="#99ccff" points="351.0488,-170.5 351.0488,-187.5 1056.0488,-187.5 1056.0488,-170.5 351.0488,-170.5"/>
<text text-anchor="start" x="354.0488" y="-175.7" font-family="Courier,monospace" font-size="11.00" fill="#000000"> &#160;&#160;&#160;&#160;&#160;&#160;&#160;&#160;&#160;&#160;&#160;&#160;&#160;&#160;&#160;&#160;&#160;&#160;&#160;&#160;&#160;&#160;&#160;&#160;&#160;&#160;&#160;&#160;&#160;&#160;&#160;&#160;&#160;&#160;&#160;&#160;&#160;&#160;&#160;&#160;IsDeleted &#160;&#160;&#160;&#160;&#160;&#160;&#160;&#160;&#160;&#160;&#160;&#160;&#160;&#160;&#160;&#160;&#160;&#160;&#160;&#160;&#160;&#160;&#160;&#160;&#160;&#160;&#160;&#160;&#160;&#160;&#160;&#160;&#160;&#160;&#160;&#160;&#160;&#160;</text>
<polygon fill="none" stroke="#99ccff" points="1056.0488,-170.5 1056.0488,-187.5 1147.0488,-187.5 1147.0488,-170.5 1056.0488,-170.5"/>
<text text-anchor="start" x="1078.4451" y="-175.7" font-family="Courier,monospace" font-size="11.00" fill="#000000">boolean</text>
<polygon fill="none" stroke="#99ccff" points="351.0488,-153.5 351.0488,-170.5 1056.0488,-170.5 1056.0488,-153.5 351.0488,-153.5"/>
<text text-anchor="start" x="354.0488" y="-158.7" font-family="Courier,monospace" font-size="11.00" fill="#000000"> &#160;&#160;&#160;&#160;&#160;&#160;&#160;&#160;&#160;&#160;&#160;&#160;&#160;&#160;&#160;&#160;&#160;&#160;&#160;&#160;&#160;&#160;&#160;&#160;&#160;&#160;&#160;&#160;&#160;&#160;&#160;&#160;&#160;&#160;&#160;&#160;&#160;&#160;&#160;&#160;Name &#160;&#160;&#160;&#160;&#160;&#160;&#160;&#160;&#160;&#160;&#160;&#160;&#160;&#160;&#160;&#160;&#160;&#160;&#160;&#160;&#160;&#160;&#160;&#160;&#160;&#160;&#160;&#160;&#160;&#160;&#160;&#160;&#160;&#160;&#160;&#160;&#160;&#160;</text>
<polygon fill="none" stroke="#99ccff" points="1056.0488,-153.5 1056.0488,-170.5 1147.0488,-170.5 1147.0488,-153.5 1056.0488,-153.5"/>
<text text-anchor="start" x="1068.5435" y="-158.7" font-family="Courier,monospace" font-size="11.00" fill="#000000">string(80)</text>
<polygon fill="none" stroke="#99ccff" points="351.0488,-136.5 351.0488,-153.5 1056.0488,-153.5 1056.0488,-136.5 351.0488,-136.5"/>
<text text-anchor="start" x="354.0488" y="-141.7" font-family="Courier,monospace" font-size="11.00" fill="#000000"> &#160;&#160;&#160;&#160;&#160;&#160;&#160;&#160;&#160;&#160;&#160;&#160;&#160;&#160;&#160;&#160;&#160;&#160;&#160;&#160;&#160;&#160;&#160;&#160;&#160;&#160;&#160;&#160;&#160;&#160;&#160;&#160;&#160;&#160;&#160;&#160;&#160;&#160;&#160;&#160;LastModifiedById &#160;&#160;&#160;&#160;&#160;&#160;&#160;&#160;&#160;&#160;&#160;&#160;&#160;&#160;&#160;&#160;&#160;&#160;&#160;&#160;&#160;&#160;&#160;&#160;&#160;&#160;&#160;&#160;&#160;&#160;&#160;&#160;&#160;&#160;&#160;&#160;&#160;&#160;</text>
<polygon fill="none" stroke="#99ccff" points="1056.0488,-136.5 1056.0488,-153.5 1147.0488,-153.5 1147.0488,-136.5 1056.0488,-136.5"/>
<text text-anchor="start" x="1058.6418" y="-141.7" font-family="Courier,monospace" font-size="11.00" fill="#000000">reference(18)</text>
<polygon fill="none" stroke="#99ccff" points="351.0488,-119.5 351.0488,-136.5 1056.0488,-136.5 1056.0488,-119.5 351.0488,-119.5"/>
<text text-anchor="start" x="354.0488" y="-124.7" font-family="Courier,monospace" font-size="11.00" fill="#000000"> &#160;&#160;&#160;&#160;&#160;&#160;&#160;&#160;&#160;&#160;&#160;&#160;&#160;&#160;&#160;&#160;&#160;&#160;&#160;&#160;&#160;&#160;&#160;&#160;&#160;&#160;&#160;&#160;&#160;&#160;&#160;&#160;&#160;&#160;&#160;&#160;&#160;&#160;&#160;&#160;FinServ__Client__c &#160;&#160;&#160;&#160;&#160;&#160;&#160;&#160;&#160;&#160;&#160;&#160;&#160;&#160;&#160;&#160;&#160;&#160;&#160;&#160;&#160;&#160;&#160;&#160;&#160;&#160;&#160;&#160;&#160;&#160;&#160;&#160;&#160;&#160;&#160;&#160;&#160;&#160;</text>
<polygon fill="none" stroke="#99ccff" points="1056.0488,-119.5 1056.0488,-136.5 1147.0488,-136.5 1147.0488,-119.5 1056.0488,-119.5"/>
<text text-anchor="start" x="1058.6418" y="-124.7" font-family="Courier,monospace" font-size="11.00" fill="#000000">reference(18)</text>
<polygon fill="none" stroke="#99ccff" points="351.0488,-102.5 351.0488,-119.5 1056.0488,-119.5 1056.0488,-102.5 351.0488,-102.5"/>
<text text-anchor="start" x="353.6919" y="-107.7" font-family="Courier,monospace" font-size="11.00" fill="#000000"> &#160;&#160;&#160;&#160;&#160;&#160;&#160;&#160;&#160;&#160;&#160;&#160;&#160;&#160;&#160;&#160;&#160;&#160;&#160;&#160;&#160;&#160;&#160;&#160;&#160;&#160;&#160;&#160;&#160;&#160;&#160;&#160;&#160;&#160;&#160;&#160;&#160;&#160;&#160;&#160;FinServ__DiscussionNote__c &#160;&#160;&#160;&#160;&#160;&#160;&#160;&#160;&#160;&#160;&#160;&#160;&#160;&#160;&#160;&#160;&#160;&#160;&#160;&#160;&#160;&#160;&#160;&#160;&#160;&#160;&#160;&#160;&#160;&#160;&#160;&#160;&#160;&#160;&#160;&#160;&#160;&#160;</text>
<polygon fill="none" stroke="#99ccff" points="1056.0488,-102.5 1056.0488,-119.5 1147.0488,-119.5 1147.0488,-102.5 1056.0488,-102.5"/>
<text text-anchor="start" x="1058.6418" y="-107.7" font-family="Courier,monospace" font-size="11.00" fill="#000000">textarea(255)</text>
<polygon fill="none" stroke="#99ccff" points="351.0488,-85.5 351.0488,-102.5 1056.0488,-102.5 1056.0488,-85.5 351.0488,-85.5"/>
<text text-anchor="start" x="354.0488" y="-90.7" font-family="Courier,monospace" font-size="11.00" fill="#000000"> &#160;&#160;&#160;&#160;&#160;&#160;&#160;&#160;&#160;&#160;&#160;&#160;&#160;&#160;&#160;&#160;&#160;&#160;&#160;&#160;&#160;&#160;&#160;&#160;&#160;&#160;&#160;&#160;&#160;&#160;&#160;&#160;&#160;&#160;&#160;&#160;&#160;&#160;&#160;&#160;FinServ__EventDate__c &#160;&#160;&#160;&#160;&#160;&#160;&#160;&#160;&#160;&#160;&#160;&#160;&#160;&#160;&#160;&#160;&#160;&#160;&#160;&#160;&#160;&#160;&#160;&#160;&#160;&#160;&#160;&#160;&#160;&#160;&#160;&#160;&#160;&#160;&#160;&#160;&#160;&#160;</text>
<polygon fill="none" stroke="#99ccff" points="1056.0488,-85.5 1056.0488,-102.5 1147.0488,-102.5 1147.0488,-85.5 1056.0488,-85.5"/>
<text text-anchor="start" x="1088.3467" y="-90.7" font-family="Courier,monospace" font-size="11.00" fill="#000000">date</text>
<polygon fill="none" stroke="#99ccff" points="351.0488,-68.5 351.0488,-85.5 1056.0488,-85.5 1056.0488,-68.5 351.0488,-68.5"/>
<text text-anchor="start" x="354.0488" y="-73.7" font-family="Courier,monospace" font-size="11.00" fill="#000000"> &#160;&#160;&#160;&#160;&#160;&#160;&#160;&#160;&#160;&#160;&#160;&#160;&#160;&#160;&#160;&#160;&#160;&#160;&#160;&#160;&#160;&#160;&#160;&#160;&#160;&#160;&#160;&#160;&#160;&#160;&#160;&#160;&#160;&#160;&#160;&#160;&#160;&#160;&#160;&#160;FinServ__EventType__c &#160;&#160;&#160;&#160;&#160;&#160;&#160;&#160;&#160;&#160;&#160;&#160;&#160;&#160;&#160;&#160;&#160;&#160;&#160;&#160;&#160;&#160;&#160;&#160;&#160;&#160;&#160;&#160;&#160;&#160;&#160;&#160;&#160;&#160;&#160;&#160;&#160;&#160;</text>
<polygon fill="none" stroke="#99ccff" points="1056.0488,-68.5 1056.0488,-85.5 1147.0488,-85.5 1147.0488,-68.5 1056.0488,-68.5"/>
<text text-anchor="start" x="1058.6418" y="-73.7" font-family="Courier,monospace" font-size="11.00" fill="#000000">picklist(255)</text>
<polygon fill="none" stroke="#99ccff" points="351.0488,-51.5 351.0488,-68.5 1056.0488,-68.5 1056.0488,-51.5 351.0488,-51.5"/>
<text text-anchor="start" x="354.0488" y="-56.7" font-family="Courier,monospace" font-size="11.00" fill="#000000"> &#160;&#160;&#160;&#160;&#160;&#160;&#160;&#160;&#160;&#160;&#160;&#160;&#160;&#160;&#160;&#160;&#160;&#160;&#160;&#160;&#160;&#160;&#160;&#160;&#160;&#160;&#160;&#160;&#160;&#160;&#160;&#160;&#160;&#160;&#160;&#160;&#160;&#160;&#160;&#160;FinServ__FinancialGoal__c &#160;&#160;&#160;&#160;&#160;&#160;&#160;&#160;&#160;&#160;&#160;&#160;&#160;&#160;&#160;&#160;&#160;&#160;&#160;&#160;&#160;&#160;&#160;&#160;&#160;&#160;&#160;&#160;&#160;&#160;&#160;&#160;&#160;&#160;&#160;&#160;&#160;&#160;</text>
<polygon fill="none" stroke="#99ccff" points="1056.0488,-51.5 1056.0488,-68.5 1147.0488,-68.5 1147.0488,-51.5 1056.0488,-51.5"/>
<text text-anchor="start" x="1058.6418" y="-56.7" font-family="Courier,monospace" font-size="11.00" fill="#000000">reference(18)</text>
<polygon fill="none" stroke="#99ccff" points="351.0488,-34.5 351.0488,-51.5 1056.0488,-51.5 1056.0488,-34.5 351.0488,-34.5"/>
<text text-anchor="start" x="354.0488" y="-39.7" font-family="Courier,monospace" font-size="11.00" fill="#000000"> &#160;&#160;&#160;&#160;&#160;&#160;&#160;&#160;&#160;&#160;&#160;&#160;&#160;&#160;&#160;&#160;&#160;&#160;&#160;&#160;&#160;&#160;&#160;&#160;&#160;&#160;&#160;&#160;&#160;&#160;&#160;&#160;&#160;&#160;&#160;&#160;&#160;&#160;&#160;&#160;FinServ__GoalType__c &#160;&#160;&#160;&#160;&#160;&#160;&#160;&#160;&#160;&#160;&#160;&#160;&#160;&#160;&#160;&#160;&#160;&#160;&#160;&#160;&#160;&#160;&#160;&#160;&#160;&#160;&#160;&#160;&#160;&#160;&#160;&#160;&#160;&#160;&#160;&#160;&#160;&#160;</text>
<polygon fill="none" stroke="#99ccff" points="1056.0488,-34.5 1056.0488,-51.5 1147.0488,-51.5 1147.0488,-34.5 1056.0488,-34.5"/>
<text text-anchor="start" x="1058.6418" y="-39.7" font-family="Courier,monospace" font-size="11.00" fill="#000000">picklist(255)</text>
<polygon fill="none" stroke="#99ccff" points="351.0488,-17.5 351.0488,-34.5 1056.0488,-34.5 1056.0488,-17.5 351.0488,-17.5"/>
<text text-anchor="start" x="353.6919" y="-22.7" font-family="Courier,monospace" font-size="11.00" fill="#000000"> &#160;&#160;&#160;&#160;&#160;&#160;&#160;&#160;&#160;&#160;&#160;&#160;&#160;&#160;&#160;&#160;&#160;&#160;&#160;&#160;&#160;&#160;&#160;&#160;&#160;&#160;&#160;&#160;&#160;&#160;&#160;&#160;&#160;&#160;&#160;&#160;&#160;&#160;&#160;&#160;FinServ__SourceSystemId__c &#160;&#160;&#160;&#160;&#160;&#160;&#160;&#160;&#160;&#160;&#160;&#160;&#160;&#160;&#160;&#160;&#160;&#160;&#160;&#160;&#160;&#160;&#160;&#160;&#160;&#160;&#160;&#160;&#160;&#160;&#160;&#160;&#160;&#160;&#160;&#160;&#160;&#160;</text>
<polygon fill="none" stroke="#99ccff" points="1056.0488,-17.5 1056.0488,-34.5 1147.0488,-34.5 1147.0488,-17.5 1056.0488,-17.5"/>
<text text-anchor="start" x="1065.2429" y="-22.7" font-family="Courier,monospace" font-size="11.00" fill="#000000">string(100)</text>
<polygon fill="none" stroke="#99ccff" points="350.0488,-17 350.0488,-240 1148.0488,-240 1148.0488,-17 350.0488,-17"/>
</a>
</g>
</g>
<!-- Group -->
<g id="node2" class="node">
<title>Group</title>
<text text-anchor="middle" x="90.5134" y="-215.2" font-family="Courier,monospace" font-size="11.00" fill="#000000">Group</text>
</g>
<!-- FinServ__LifeEvent__c&#45;&gt;Group -->
<g id="edge1" class="edge">
<title>FinServ__LifeEvent__c:w&#45;&gt;Group:e</title>
<path fill="none" stroke="#ff99cc" d="M337.037,-200.5155C335.8829,-200.8951 334.5831,-201.2359 333.0488,-201.5 255.6759,-214.8185 162.7027,-217.7577 117.6431,-218.3693"/>
<polygon fill="#ff99cc" stroke="#ff99cc" points="343.3584,-198.704 352.0406,-199.9607 347.2036,-197.602 351.0488,-196.5 351.0488,-196.5 351.0488,-196.5 347.2036,-197.602 350.057,-193.0393 343.3584,-198.704 343.3584,-198.704"/>
<ellipse fill="none" stroke="#ff99cc" cx="340.2822" cy="-199.5856" rx="3.2" ry="3.2"/>
<text text-anchor="middle" x="265.5378" y="-219.3015" font-family="Monaco" font-size="9.00" fill="#000000">Owner</text>
</g>
<!-- User -->
<g id="node3" class="node">
<title>User</title>
<text text-anchor="middle" x="90.5134" y="-166.2" font-family="Courier,monospace" font-size="11.00" fill="#000000">User</text>
</g>
<!-- FinServ__LifeEvent__c&#45;&gt;User -->
<g id="edge2" class="edge">
<title>FinServ__LifeEvent__c:w&#45;&gt;User:e</title>
<path fill="none" stroke="#ff99cc" d="M337.3388,-191.8022C336.1169,-191.2995 334.7262,-190.8457 333.0488,-190.4985 256.0687,-174.5655 162.9176,-170.7002 117.7312,-169.7776"/>
<polygon fill="#ff99cc" stroke="#ff99cc" points="343.4808,-193.9067 349.8819,-199.9056 347.2648,-195.2034 351.0488,-196.5 351.0488,-196.5 351.0488,-196.5 347.2648,-195.2034 352.2158,-193.0944 343.4808,-193.9067 343.4808,-193.9067"/>
<ellipse fill="none" stroke="#ff99cc" cx="340.4536" cy="-192.8694" rx="3.2" ry="3.2"/>
<text text-anchor="middle" x="265.5378" y="-194.3015" font-family="Monaco" font-size="9.00" fill="#000000">Owner</text>
</g>
<!-- FinServ__LifeEvent__c&#45;&gt;User -->
<g id="edge3" class="edge">
<title>FinServ__LifeEvent__c:w&#45;&gt;User:e</title>
<path fill="none" stroke="#ff99cc" d="M336.4054,-145.6211C254.441,-146.9468 162.4916,-158.8328 117.8195,-165.3195"/>
<polygon fill="#ff99cc" stroke="#ff99cc" points="343.0491,-145.5662 351.0786,-149.0999 347.049,-145.5331 351.0488,-145.5 351.0488,-145.5 351.0488,-145.5 347.049,-145.5331 351.019,-141.9001 343.0491,-145.5662 343.0491,-145.5662"/>
<ellipse fill="none" stroke="#ff99cc" cx="339.8492" cy="-145.5927" rx="3.2" ry="3.2"/>
<text text-anchor="middle" x="265.5378" y="-159.3015" font-family="Monaco" font-size="9.00" fill="#000000">LastModifiedBy</text>
</g>
<!-- Account -->
<g id="node4" class="node">
<title>Account</title>
<text text-anchor="middle" x="90.5134" y="-117.2" font-family="Courier,monospace" font-size="11.00" fill="#000000">Account</text>
</g>
<!-- FinServ__LifeEvent__c&#45;&gt;Account -->
<g id="edge4" class="edge">
<title>FinServ__LifeEvent__c:w&#45;&gt;Account:e</title>
<path fill="none" stroke="#ff99cc" d="M336.7221,-124.9943C335.6402,-124.7967 334.4371,-124.625 333.0488,-124.4985 257.5589,-117.6209 168.3209,-118.4381 121.9891,-119.5295"/>
<polygon fill="#ff99cc" stroke="#ff99cc" points="343.1684,-126.1217 350.4286,-131.0462 347.1086,-126.8108 351.0488,-127.5 351.0488,-127.5 351.0488,-127.5 347.1086,-126.8108 351.6691,-123.9538 343.1684,-126.1217 343.1684,-126.1217"/>
<ellipse fill="none" stroke="#ff99cc" cx="340.0163" cy="-125.5704" rx="3.2" ry="3.2"/>
<text text-anchor="middle" x="265.5378" y="-128.3015" font-family="Monaco" font-size="9.00" fill="#000000">FinServ__Client__r</text>
</g>
<!-- FinServ__FinancialGoal__c -->
<g id="node5" class="node">
<title>FinServ__FinancialGoal__c</title>
<text text-anchor="middle" x="90.5134" y="-56.2" font-family="Courier,monospace" font-size="11.00" fill="#000000">FinServ__FinancialGoal__c</text>
</g>
<!-- FinServ__LifeEvent__c&#45;&gt;FinServ__FinancialGoal__c -->
<g id="edge5" class="edge">
<title>FinServ__LifeEvent__c:w&#45;&gt;FinServ__FinancialGoal__c:e</title>
<path fill="none" stroke="#ff99cc" d="M336.3618,-59.5C283.8399,-59.5 227.0177,-59.5 181.245,-59.5"/>
<polygon fill="#ff99cc" stroke="#ff99cc" points="343.0488,-59.5001 351.0489,-63.1 347.0488,-59.5 351.0488,-59.5 351.0488,-59.5 351.0488,-59.5 347.0488,-59.5 351.0488,-55.9 343.0488,-59.5001 343.0488,-59.5001"/>
<ellipse fill="none" stroke="#ff99cc" cx="339.8488" cy="-59.5001" rx="3.2" ry="3.2"/>
<text text-anchor="middle" x="265.5378" y="-65.3015" font-family="Monaco" font-size="9.00" fill="#000000">FinServ__FinancialGoal__r</text>
</g>
</g>
</svg>
