<?xml version="1.0" encoding="UTF-8" standalone="no"?>
<!DOCTYPE svg PUBLIC "-//W3C//DTD SVG 1.1//EN"
 "http://www.w3.org/Graphics/SVG/1.1/DTD/svg11.dtd">
<!-- Generated by graphviz version 2.40.1 (20161225.0304)
 -->
<!-- Title: Salesforce+ ERD Pages: 1 -->
<svg width="977pt" height="367pt"
 viewBox="0.00 0.00 976.61 367.00" xmlns="http://www.w3.org/2000/svg" xmlns:xlink="http://www.w3.org/1999/xlink">
<g id="graph0" class="graph" transform="scale(1 1) rotate(0) translate(4 363)">
<title>Salesforce+ ERD</title>
<polygon fill="#efeffd" stroke="transparent" points="-4,4 -4,-363 972.6123,-363 972.6123,4 -4,4"/>
<text text-anchor="middle" x="920.1057" y="-5.8" font-family="Courier,monospace" font-size="9.00" fill="#000000">Salesforce ERD </text>
<!-- FinServ__RollupByLookupConfig__c -->
<g id="node1" class="node">
<title>FinServ__RollupByLookupConfig__c</title>
<g id="a_node1"><a xlink:href="#" xlink:title=" FinServ__RollupByLookupConfig__c ">
<polygon fill="#ffeeff" stroke="transparent" points="163.6123,-17 163.6123,-359 968.6123,-359 968.6123,-17 163.6123,-17"/>
<polygon fill="#add8e6" stroke="transparent" points="165.1123,-341 165.1123,-358 968.1123,-358 968.1123,-341 165.1123,-341"/>
<polygon fill="none" stroke="#99ccff" points="165.1123,-341 165.1123,-358 968.1123,-358 968.1123,-341 165.1123,-341"/>
<text text-anchor="start" x="460.9951" y="-347.2" font-family="Courier,monospace" font-weight="bold" font-size="11.00" fill="#000000">FinServ__RollupByLookupConfig__c</text>
<polygon fill="#99ccff" stroke="transparent" points="165.1123,-324 165.1123,-341 877.1123,-341 877.1123,-324 165.1123,-324"/>
<polygon fill="none" stroke="#99ccff" points="165.1123,-324 165.1123,-341 877.1123,-341 877.1123,-324 165.1123,-324"/>
<text text-anchor="start" x="168.1123" y="-330.2" font-family="Courier,monospace" font-size="11.00" fill="#000000"> &#160;&#160;&#160;&#160;&#160;&#160;&#160;&#160;&#160;&#160;&#160;&#160;&#160;&#160;&#160;&#160;&#160;&#160;&#160;&#160;&#160;&#160;&#160;&#160;&#160;&#160;&#160;&#160;&#160;&#160;&#160;&#160;&#160;&#160;&#160;&#160;&#160;&#160;&#160;&#160;&#160;&#160;</text>
<text text-anchor="start" x="451.9585" y="-330.2" font-family="Courier,monospace" font-weight="bold" font-size="11.00" fill="#000000">Id</text>
<text text-anchor="start" x="465.1606" y="-330.2" font-family="Courier,monospace" font-size="11.00" fill="#000000"> &#160;&#160;&#160;&#160;&#160;&#160;&#160;&#160;&#160;&#160;&#160;&#160;&#160;&#160;&#160;&#160;&#160;&#160;&#160;&#160;&#160;&#160;&#160;&#160;&#160;&#160;&#160;&#160;&#160;&#160;&#160;&#160;&#160;&#160;&#160;&#160;&#160;&#160;&#160;</text>
<polygon fill="none" stroke="#99ccff" points="877.1123,-324 877.1123,-341 968.1123,-341 968.1123,-324 877.1123,-324"/>
<text text-anchor="start" x="902.8091" y="-329.2" font-family="Courier,monospace" font-size="11.00" fill="#000000">id(18)</text>
<polygon fill="none" stroke="#99ccff" points="165.1123,-307 165.1123,-324 877.1123,-324 877.1123,-307 165.1123,-307"/>
<text text-anchor="start" x="168.1123" y="-312.2" font-family="Courier,monospace" font-size="11.00" fill="#000000"> &#160;&#160;&#160;&#160;&#160;&#160;&#160;&#160;&#160;&#160;&#160;&#160;&#160;&#160;&#160;&#160;&#160;&#160;&#160;&#160;&#160;&#160;&#160;&#160;&#160;&#160;&#160;&#160;&#160;&#160;&#160;&#160;&#160;&#160;&#160;&#160;&#160;&#160;&#160;&#160;OwnerId &#160;&#160;&#160;&#160;&#160;&#160;&#160;&#160;&#160;&#160;&#160;&#160;&#160;&#160;&#160;&#160;&#160;&#160;&#160;&#160;&#160;&#160;&#160;&#160;&#160;&#160;&#160;&#160;&#160;&#160;&#160;&#160;&#160;&#160;&#160;&#160;&#160;&#160;</text>
<polygon fill="none" stroke="#99ccff" points="877.1123,-307 877.1123,-324 968.1123,-324 968.1123,-307 877.1123,-307"/>
<text text-anchor="start" x="879.7053" y="-312.2" font-family="Courier,monospace" font-size="11.00" fill="#000000">reference(18)</text>
<polygon fill="none" stroke="#99ccff" points="165.1123,-290 165.1123,-307 877.1123,-307 877.1123,-290 165.1123,-290"/>
<text text-anchor="start" x="168.1123" y="-295.2" font-family="Courier,monospace" font-size="11.00" fill="#000000"> &#160;&#160;&#160;&#160;&#160;&#160;&#160;&#160;&#160;&#160;&#160;&#160;&#160;&#160;&#160;&#160;&#160;&#160;&#160;&#160;&#160;&#160;&#160;&#160;&#160;&#160;&#160;&#160;&#160;&#160;&#160;&#160;&#160;&#160;&#160;&#160;&#160;&#160;&#160;&#160;IsDeleted &#160;&#160;&#160;&#160;&#160;&#160;&#160;&#160;&#160;&#160;&#160;&#160;&#160;&#160;&#160;&#160;&#160;&#160;&#160;&#160;&#160;&#160;&#160;&#160;&#160;&#160;&#160;&#160;&#160;&#160;&#160;&#160;&#160;&#160;&#160;&#160;&#160;&#160;</text>
<polygon fill="none" stroke="#99ccff" points="877.1123,-290 877.1123,-307 968.1123,-307 968.1123,-290 877.1123,-290"/>
<text text-anchor="start" x="899.5085" y="-295.2" font-family="Courier,monospace" font-size="11.00" fill="#000000">boolean</text>
<polygon fill="none" stroke="#99ccff" points="165.1123,-273 165.1123,-290 877.1123,-290 877.1123,-273 165.1123,-273"/>
<text text-anchor="start" x="168.1123" y="-278.2" font-family="Courier,monospace" font-size="11.00" fill="#000000"> &#160;&#160;&#160;&#160;&#160;&#160;&#160;&#160;&#160;&#160;&#160;&#160;&#160;&#160;&#160;&#160;&#160;&#160;&#160;&#160;&#160;&#160;&#160;&#160;&#160;&#160;&#160;&#160;&#160;&#160;&#160;&#160;&#160;&#160;&#160;&#160;&#160;&#160;&#160;&#160;Name &#160;&#160;&#160;&#160;&#160;&#160;&#160;&#160;&#160;&#160;&#160;&#160;&#160;&#160;&#160;&#160;&#160;&#160;&#160;&#160;&#160;&#160;&#160;&#160;&#160;&#160;&#160;&#160;&#160;&#160;&#160;&#160;&#160;&#160;&#160;&#160;&#160;&#160;</text>
<polygon fill="none" stroke="#99ccff" points="877.1123,-273 877.1123,-290 968.1123,-290 968.1123,-273 877.1123,-273"/>
<text text-anchor="start" x="889.6069" y="-278.2" font-family="Courier,monospace" font-size="11.00" fill="#000000">string(80)</text>
<polygon fill="none" stroke="#99ccff" points="165.1123,-256 165.1123,-273 877.1123,-273 877.1123,-256 165.1123,-256"/>
<text text-anchor="start" x="168.1123" y="-261.2" font-family="Courier,monospace" font-size="11.00" fill="#000000"> &#160;&#160;&#160;&#160;&#160;&#160;&#160;&#160;&#160;&#160;&#160;&#160;&#160;&#160;&#160;&#160;&#160;&#160;&#160;&#160;&#160;&#160;&#160;&#160;&#160;&#160;&#160;&#160;&#160;&#160;&#160;&#160;&#160;&#160;&#160;&#160;&#160;&#160;&#160;&#160;LastModifiedById &#160;&#160;&#160;&#160;&#160;&#160;&#160;&#160;&#160;&#160;&#160;&#160;&#160;&#160;&#160;&#160;&#160;&#160;&#160;&#160;&#160;&#160;&#160;&#160;&#160;&#160;&#160;&#160;&#160;&#160;&#160;&#160;&#160;&#160;&#160;&#160;&#160;&#160;</text>
<polygon fill="none" stroke="#99ccff" points="877.1123,-256 877.1123,-273 968.1123,-273 968.1123,-256 877.1123,-256"/>
<text text-anchor="start" x="879.7053" y="-261.2" font-family="Courier,monospace" font-size="11.00" fill="#000000">reference(18)</text>
<polygon fill="none" stroke="#99ccff" points="165.1123,-239 165.1123,-256 877.1123,-256 877.1123,-239 165.1123,-239"/>
<text text-anchor="start" x="168.1123" y="-244.2" font-family="Courier,monospace" font-size="11.00" fill="#000000"> &#160;&#160;&#160;&#160;&#160;&#160;&#160;&#160;&#160;&#160;&#160;&#160;&#160;&#160;&#160;&#160;&#160;&#160;&#160;&#160;&#160;&#160;&#160;&#160;&#160;&#160;&#160;&#160;&#160;&#160;&#160;&#160;&#160;&#160;&#160;&#160;&#160;&#160;&#160;&#160;LastViewedDate &#160;&#160;&#160;&#160;&#160;&#160;&#160;&#160;&#160;&#160;&#160;&#160;&#160;&#160;&#160;&#160;&#160;&#160;&#160;&#160;&#160;&#160;&#160;&#160;&#160;&#160;&#160;&#160;&#160;&#160;&#160;&#160;&#160;&#160;&#160;&#160;&#160;&#160;</text>
<polygon fill="none" stroke="#99ccff" points="877.1123,-239 877.1123,-256 968.1123,-256 968.1123,-239 877.1123,-239"/>
<text text-anchor="start" x="896.208" y="-244.2" font-family="Courier,monospace" font-size="11.00" fill="#000000">datetime</text>
<polygon fill="none" stroke="#99ccff" points="165.1123,-222 165.1123,-239 877.1123,-239 877.1123,-222 165.1123,-222"/>
<text text-anchor="start" x="168.1123" y="-227.2" font-family="Courier,monospace" font-size="11.00" fill="#000000"> &#160;&#160;&#160;&#160;&#160;&#160;&#160;&#160;&#160;&#160;&#160;&#160;&#160;&#160;&#160;&#160;&#160;&#160;&#160;&#160;&#160;&#160;&#160;&#160;&#160;&#160;&#160;&#160;&#160;&#160;&#160;&#160;&#160;&#160;&#160;&#160;&#160;&#160;&#160;&#160;LastReferencedDate &#160;&#160;&#160;&#160;&#160;&#160;&#160;&#160;&#160;&#160;&#160;&#160;&#160;&#160;&#160;&#160;&#160;&#160;&#160;&#160;&#160;&#160;&#160;&#160;&#160;&#160;&#160;&#160;&#160;&#160;&#160;&#160;&#160;&#160;&#160;&#160;&#160;&#160;</text>
<polygon fill="none" stroke="#99ccff" points="877.1123,-222 877.1123,-239 968.1123,-239 968.1123,-222 877.1123,-222"/>
<text text-anchor="start" x="896.208" y="-227.2" font-family="Courier,monospace" font-size="11.00" fill="#000000">datetime</text>
<polygon fill="none" stroke="#99ccff" points="165.1123,-205 165.1123,-222 877.1123,-222 877.1123,-205 165.1123,-205"/>
<text text-anchor="start" x="168.1123" y="-210.2" font-family="Courier,monospace" font-size="11.00" fill="#000000"> &#160;&#160;&#160;&#160;&#160;&#160;&#160;&#160;&#160;&#160;&#160;&#160;&#160;&#160;&#160;&#160;&#160;&#160;&#160;&#160;&#160;&#160;&#160;&#160;&#160;&#160;&#160;&#160;&#160;&#160;&#160;&#160;&#160;&#160;&#160;&#160;&#160;&#160;&#160;&#160;FinServ__Active__c &#160;&#160;&#160;&#160;&#160;&#160;&#160;&#160;&#160;&#160;&#160;&#160;&#160;&#160;&#160;&#160;&#160;&#160;&#160;&#160;&#160;&#160;&#160;&#160;&#160;&#160;&#160;&#160;&#160;&#160;&#160;&#160;&#160;&#160;&#160;&#160;&#160;&#160;</text>
<polygon fill="none" stroke="#99ccff" points="877.1123,-205 877.1123,-222 968.1123,-222 968.1123,-205 877.1123,-205"/>
<text text-anchor="start" x="899.5085" y="-210.2" font-family="Courier,monospace" font-size="11.00" fill="#000000">boolean</text>
<polygon fill="none" stroke="#99ccff" points="165.1123,-188 165.1123,-205 877.1123,-205 877.1123,-188 165.1123,-188"/>
<text text-anchor="start" x="168.1123" y="-193.2" font-family="Courier,monospace" font-size="11.00" fill="#000000"> &#160;&#160;&#160;&#160;&#160;&#160;&#160;&#160;&#160;&#160;&#160;&#160;&#160;&#160;&#160;&#160;&#160;&#160;&#160;&#160;&#160;&#160;&#160;&#160;&#160;&#160;&#160;&#160;&#160;&#160;&#160;&#160;&#160;&#160;&#160;&#160;&#160;&#160;&#160;&#160;FinServ__FromField__c &#160;&#160;&#160;&#160;&#160;&#160;&#160;&#160;&#160;&#160;&#160;&#160;&#160;&#160;&#160;&#160;&#160;&#160;&#160;&#160;&#160;&#160;&#160;&#160;&#160;&#160;&#160;&#160;&#160;&#160;&#160;&#160;&#160;&#160;&#160;&#160;&#160;&#160;</text>
<polygon fill="none" stroke="#99ccff" points="877.1123,-188 877.1123,-205 968.1123,-205 968.1123,-188 877.1123,-188"/>
<text text-anchor="start" x="886.3064" y="-193.2" font-family="Courier,monospace" font-size="11.00" fill="#000000">string(100)</text>
<polygon fill="none" stroke="#99ccff" points="165.1123,-171 165.1123,-188 877.1123,-188 877.1123,-171 165.1123,-171"/>
<text text-anchor="start" x="168.1123" y="-176.2" font-family="Courier,monospace" font-size="11.00" fill="#000000"> &#160;&#160;&#160;&#160;&#160;&#160;&#160;&#160;&#160;&#160;&#160;&#160;&#160;&#160;&#160;&#160;&#160;&#160;&#160;&#160;&#160;&#160;&#160;&#160;&#160;&#160;&#160;&#160;&#160;&#160;&#160;&#160;&#160;&#160;&#160;&#160;&#160;&#160;&#160;&#160;FinServ__FromObject__c &#160;&#160;&#160;&#160;&#160;&#160;&#160;&#160;&#160;&#160;&#160;&#160;&#160;&#160;&#160;&#160;&#160;&#160;&#160;&#160;&#160;&#160;&#160;&#160;&#160;&#160;&#160;&#160;&#160;&#160;&#160;&#160;&#160;&#160;&#160;&#160;&#160;&#160;</text>
<polygon fill="none" stroke="#99ccff" points="877.1123,-171 877.1123,-188 968.1123,-188 968.1123,-171 877.1123,-171"/>
<text text-anchor="start" x="886.3064" y="-176.2" font-family="Courier,monospace" font-size="11.00" fill="#000000">string(100)</text>
<polygon fill="none" stroke="#99ccff" points="165.1123,-154 165.1123,-171 877.1123,-171 877.1123,-154 165.1123,-154"/>
<text text-anchor="start" x="168.1123" y="-159.2" font-family="Courier,monospace" font-size="11.00" fill="#000000"> &#160;&#160;&#160;&#160;&#160;&#160;&#160;&#160;&#160;&#160;&#160;&#160;&#160;&#160;&#160;&#160;&#160;&#160;&#160;&#160;&#160;&#160;&#160;&#160;&#160;&#160;&#160;&#160;&#160;&#160;&#160;&#160;&#160;&#160;&#160;&#160;&#160;&#160;&#160;&#160;FinServ__FromRecordType__c &#160;&#160;&#160;&#160;&#160;&#160;&#160;&#160;&#160;&#160;&#160;&#160;&#160;&#160;&#160;&#160;&#160;&#160;&#160;&#160;&#160;&#160;&#160;&#160;&#160;&#160;&#160;&#160;&#160;&#160;&#160;&#160;&#160;&#160;&#160;&#160;&#160;&#160;</text>
<polygon fill="none" stroke="#99ccff" points="877.1123,-154 877.1123,-171 968.1123,-171 968.1123,-154 877.1123,-154"/>
<text text-anchor="start" x="886.3064" y="-159.2" font-family="Courier,monospace" font-size="11.00" fill="#000000">string(100)</text>
<polygon fill="none" stroke="#99ccff" points="165.1123,-137 165.1123,-154 877.1123,-154 877.1123,-137 165.1123,-137"/>
<text text-anchor="start" x="168.1123" y="-142.2" font-family="Courier,monospace" font-size="11.00" fill="#000000"> &#160;&#160;&#160;&#160;&#160;&#160;&#160;&#160;&#160;&#160;&#160;&#160;&#160;&#160;&#160;&#160;&#160;&#160;&#160;&#160;&#160;&#160;&#160;&#160;&#160;&#160;&#160;&#160;&#160;&#160;&#160;&#160;&#160;&#160;&#160;&#160;&#160;&#160;&#160;&#160;FinServ__LookupField__c &#160;&#160;&#160;&#160;&#160;&#160;&#160;&#160;&#160;&#160;&#160;&#160;&#160;&#160;&#160;&#160;&#160;&#160;&#160;&#160;&#160;&#160;&#160;&#160;&#160;&#160;&#160;&#160;&#160;&#160;&#160;&#160;&#160;&#160;&#160;&#160;&#160;&#160;</text>
<polygon fill="none" stroke="#99ccff" points="877.1123,-137 877.1123,-154 968.1123,-154 968.1123,-137 877.1123,-137"/>
<text text-anchor="start" x="886.3064" y="-142.2" font-family="Courier,monospace" font-size="11.00" fill="#000000">string(100)</text>
<polygon fill="none" stroke="#99ccff" points="165.1123,-120 165.1123,-137 877.1123,-137 877.1123,-120 165.1123,-120"/>
<text text-anchor="start" x="168.1123" y="-125.2" font-family="Courier,monospace" font-size="11.00" fill="#000000"> &#160;&#160;&#160;&#160;&#160;&#160;&#160;&#160;&#160;&#160;&#160;&#160;&#160;&#160;&#160;&#160;&#160;&#160;&#160;&#160;&#160;&#160;&#160;&#160;&#160;&#160;&#160;&#160;&#160;&#160;&#160;&#160;&#160;&#160;&#160;&#160;&#160;&#160;&#160;&#160;FinServ__Namespace__c &#160;&#160;&#160;&#160;&#160;&#160;&#160;&#160;&#160;&#160;&#160;&#160;&#160;&#160;&#160;&#160;&#160;&#160;&#160;&#160;&#160;&#160;&#160;&#160;&#160;&#160;&#160;&#160;&#160;&#160;&#160;&#160;&#160;&#160;&#160;&#160;&#160;&#160;</text>
<polygon fill="none" stroke="#99ccff" points="877.1123,-120 877.1123,-137 968.1123,-137 968.1123,-120 877.1123,-120"/>
<text text-anchor="start" x="879.7053" y="-125.2" font-family="Courier,monospace" font-size="11.00" fill="#000000">picklist(255)</text>
<polygon fill="none" stroke="#99ccff" points="165.1123,-103 165.1123,-120 877.1123,-120 877.1123,-103 165.1123,-103"/>
<text text-anchor="start" x="168.1123" y="-108.2" font-family="Courier,monospace" font-size="11.00" fill="#000000"> &#160;&#160;&#160;&#160;&#160;&#160;&#160;&#160;&#160;&#160;&#160;&#160;&#160;&#160;&#160;&#160;&#160;&#160;&#160;&#160;&#160;&#160;&#160;&#160;&#160;&#160;&#160;&#160;&#160;&#160;&#160;&#160;&#160;&#160;&#160;&#160;&#160;&#160;&#160;&#160;FinServ__ProcessType__c &#160;&#160;&#160;&#160;&#160;&#160;&#160;&#160;&#160;&#160;&#160;&#160;&#160;&#160;&#160;&#160;&#160;&#160;&#160;&#160;&#160;&#160;&#160;&#160;&#160;&#160;&#160;&#160;&#160;&#160;&#160;&#160;&#160;&#160;&#160;&#160;&#160;&#160;</text>
<polygon fill="none" stroke="#99ccff" points="877.1123,-103 877.1123,-120 968.1123,-120 968.1123,-103 877.1123,-103"/>
<text text-anchor="start" x="879.7053" y="-108.2" font-family="Courier,monospace" font-size="11.00" fill="#000000">picklist(255)</text>
<polygon fill="none" stroke="#99ccff" points="165.1123,-86 165.1123,-103 877.1123,-103 877.1123,-86 165.1123,-86"/>
<text text-anchor="start" x="167.9548" y="-91.2" font-family="Courier,monospace" font-size="11.00" fill="#000000"> &#160;&#160;&#160;&#160;&#160;&#160;&#160;&#160;&#160;&#160;&#160;&#160;&#160;&#160;&#160;&#160;&#160;&#160;&#160;&#160;&#160;&#160;&#160;&#160;&#160;&#160;&#160;&#160;&#160;&#160;&#160;&#160;&#160;&#160;&#160;&#160;&#160;&#160;&#160;&#160;FinServ__RollupOperation__c &#160;&#160;&#160;&#160;&#160;&#160;&#160;&#160;&#160;&#160;&#160;&#160;&#160;&#160;&#160;&#160;&#160;&#160;&#160;&#160;&#160;&#160;&#160;&#160;&#160;&#160;&#160;&#160;&#160;&#160;&#160;&#160;&#160;&#160;&#160;&#160;&#160;&#160;</text>
<polygon fill="none" stroke="#99ccff" points="877.1123,-86 877.1123,-103 968.1123,-103 968.1123,-86 877.1123,-86"/>
<text text-anchor="start" x="879.7053" y="-91.2" font-family="Courier,monospace" font-size="11.00" fill="#000000">picklist(255)</text>
<polygon fill="none" stroke="#99ccff" points="165.1123,-69 165.1123,-86 877.1123,-86 877.1123,-69 165.1123,-69"/>
<text text-anchor="start" x="168.1123" y="-74.2" font-family="Courier,monospace" font-size="11.00" fill="#000000"> &#160;&#160;&#160;&#160;&#160;&#160;&#160;&#160;&#160;&#160;&#160;&#160;&#160;&#160;&#160;&#160;&#160;&#160;&#160;&#160;&#160;&#160;&#160;&#160;&#160;&#160;&#160;&#160;&#160;&#160;&#160;&#160;&#160;&#160;&#160;&#160;&#160;&#160;&#160;&#160;FinServ__ToField__c &#160;&#160;&#160;&#160;&#160;&#160;&#160;&#160;&#160;&#160;&#160;&#160;&#160;&#160;&#160;&#160;&#160;&#160;&#160;&#160;&#160;&#160;&#160;&#160;&#160;&#160;&#160;&#160;&#160;&#160;&#160;&#160;&#160;&#160;&#160;&#160;&#160;&#160;</text>
<polygon fill="none" stroke="#99ccff" points="877.1123,-69 877.1123,-86 968.1123,-86 968.1123,-69 877.1123,-69"/>
<text text-anchor="start" x="886.3064" y="-74.2" font-family="Courier,monospace" font-size="11.00" fill="#000000">string(100)</text>
<polygon fill="none" stroke="#99ccff" points="165.1123,-52 165.1123,-69 877.1123,-69 877.1123,-52 165.1123,-52"/>
<text text-anchor="start" x="168.1123" y="-57.2" font-family="Courier,monospace" font-size="11.00" fill="#000000"> &#160;&#160;&#160;&#160;&#160;&#160;&#160;&#160;&#160;&#160;&#160;&#160;&#160;&#160;&#160;&#160;&#160;&#160;&#160;&#160;&#160;&#160;&#160;&#160;&#160;&#160;&#160;&#160;&#160;&#160;&#160;&#160;&#160;&#160;&#160;&#160;&#160;&#160;&#160;&#160;FinServ__ToObject__c &#160;&#160;&#160;&#160;&#160;&#160;&#160;&#160;&#160;&#160;&#160;&#160;&#160;&#160;&#160;&#160;&#160;&#160;&#160;&#160;&#160;&#160;&#160;&#160;&#160;&#160;&#160;&#160;&#160;&#160;&#160;&#160;&#160;&#160;&#160;&#160;&#160;&#160;</text>
<polygon fill="none" stroke="#99ccff" points="877.1123,-52 877.1123,-69 968.1123,-69 968.1123,-52 877.1123,-52"/>
<text text-anchor="start" x="886.3064" y="-57.2" font-family="Courier,monospace" font-size="11.00" fill="#000000">string(100)</text>
<polygon fill="none" stroke="#99ccff" points="165.1123,-35 165.1123,-52 877.1123,-52 877.1123,-35 165.1123,-35"/>
<text text-anchor="start" x="168.1123" y="-40.2" font-family="Courier,monospace" font-size="11.00" fill="#000000"> &#160;&#160;&#160;&#160;&#160;&#160;&#160;&#160;&#160;&#160;&#160;&#160;&#160;&#160;&#160;&#160;&#160;&#160;&#160;&#160;&#160;&#160;&#160;&#160;&#160;&#160;&#160;&#160;&#160;&#160;&#160;&#160;&#160;&#160;&#160;&#160;&#160;&#160;&#160;&#160;FinServ__UpdateOnChange__c &#160;&#160;&#160;&#160;&#160;&#160;&#160;&#160;&#160;&#160;&#160;&#160;&#160;&#160;&#160;&#160;&#160;&#160;&#160;&#160;&#160;&#160;&#160;&#160;&#160;&#160;&#160;&#160;&#160;&#160;&#160;&#160;&#160;&#160;&#160;&#160;&#160;&#160;</text>
<polygon fill="none" stroke="#99ccff" points="877.1123,-35 877.1123,-52 968.1123,-52 968.1123,-35 877.1123,-35"/>
<text text-anchor="start" x="886.3064" y="-40.2" font-family="Courier,monospace" font-size="11.00" fill="#000000">string(255)</text>
<polygon fill="none" stroke="#99ccff" points="165.1123,-18 165.1123,-35 877.1123,-35 877.1123,-18 165.1123,-18"/>
<text text-anchor="start" x="168.1123" y="-23.2" font-family="Courier,monospace" font-size="11.00" fill="#000000"> &#160;&#160;&#160;&#160;&#160;&#160;&#160;&#160;&#160;&#160;&#160;&#160;&#160;&#160;&#160;&#160;&#160;&#160;&#160;&#160;&#160;&#160;&#160;&#160;&#160;&#160;&#160;&#160;&#160;&#160;&#160;&#160;&#160;&#160;&#160;&#160;&#160;&#160;&#160;&#160;FinServ__WhereClause__c &#160;&#160;&#160;&#160;&#160;&#160;&#160;&#160;&#160;&#160;&#160;&#160;&#160;&#160;&#160;&#160;&#160;&#160;&#160;&#160;&#160;&#160;&#160;&#160;&#160;&#160;&#160;&#160;&#160;&#160;&#160;&#160;&#160;&#160;&#160;&#160;&#160;&#160;</text>
<polygon fill="none" stroke="#99ccff" points="877.1123,-18 877.1123,-35 968.1123,-35 968.1123,-18 877.1123,-18"/>
<text text-anchor="start" x="879.7053" y="-23.2" font-family="Courier,monospace" font-size="11.00" fill="#000000">textarea(255)</text>
<polygon fill="none" stroke="#99ccff" points="163.6123,-17 163.6123,-359 968.6123,-359 968.6123,-17 163.6123,-17"/>
</a>
</g>
</g>
<!-- Group -->
<g id="node2" class="node">
<title>Group</title>
<text text-anchor="middle" x="27" y="-321.7" font-family="Courier,monospace" font-size="11.00" fill="#000000">Group</text>
</g>
<!-- FinServ__RollupByLookupConfig__c&#45;&gt;Group -->
<g id="edge1" class="edge">
<title>FinServ__RollupByLookupConfig__c:w&#45;&gt;Group:e</title>
<path fill="none" stroke="#ff99cc" d="M150.4162,-316.1572C115.6827,-316.8704 78.5717,-319.8676 54.2196,-322.177"/>
<polygon fill="#ff99cc" stroke="#ff99cc" points="157.1128,-316.0856 165.1508,-319.5998 161.1125,-316.0428 165.1123,-316 165.1123,-316 165.1123,-316 161.1125,-316.0428 165.0738,-312.4002 157.1128,-316.0856 157.1128,-316.0856"/>
<ellipse fill="none" stroke="#ff99cc" cx="153.9129" cy="-316.1198" rx="3.2" ry="3.2"/>
<text text-anchor="middle" x="108.8062" y="-324.8015" font-family="Monaco" font-size="9.00" fill="#000000">Owner</text>
</g>
<!-- User -->
<g id="node3" class="node">
<title>User</title>
<text text-anchor="middle" x="27" y="-267.7" font-family="Courier,monospace" font-size="11.00" fill="#000000">User</text>
</g>
<!-- FinServ__RollupByLookupConfig__c&#45;&gt;User -->
<g id="edge2" class="edge">
<title>FinServ__RollupByLookupConfig__c:w&#45;&gt;User:e</title>
<path fill="none" stroke="#ff99cc" d="M154.2549,-306.3148C152.6928,-302.8925 150.7997,-299.321 146.6123,-296.9985 138.5748,-292.5406 86.7759,-282.2348 54.0324,-276.0208"/>
<polygon fill="#ff99cc" stroke="#ff99cc" points="159.1424,-310.6746 162.7159,-318.6865 162.1273,-313.3373 165.1123,-316 165.1123,-316 165.1123,-316 162.1273,-313.3373 167.5087,-313.3135 159.1424,-310.6746 159.1424,-310.6746"/>
<ellipse fill="none" stroke="#ff99cc" cx="156.7544" cy="-308.5444" rx="3.2" ry="3.2"/>
<text text-anchor="middle" x="108.8062" y="-300.8015" font-family="Monaco" font-size="9.00" fill="#000000">Owner</text>
</g>
<!-- FinServ__RollupByLookupConfig__c&#45;&gt;User -->
<g id="edge3" class="edge">
<title>FinServ__RollupByLookupConfig__c:w&#45;&gt;User:e</title>
<path fill="none" stroke="#ff99cc" d="M150.6705,-264.1736C149.4812,-264.1016 148.1557,-264.0403 146.6123,-263.9985 113.0191,-263.0899 104.5009,-261.3498 71,-263.9985 65.6023,-264.4253 59.8667,-265.1422 54.3816,-265.9586"/>
<polygon fill="#ff99cc" stroke="#ff99cc" points="157.1254,-264.5429 164.9066,-268.5941 161.1188,-264.7715 165.1123,-265 165.1123,-265 165.1123,-265 161.1188,-264.7715 165.318,-261.4059 157.1254,-264.5429 157.1254,-264.5429"/>
<ellipse fill="none" stroke="#ff99cc" cx="153.9306" cy="-264.3601" rx="3.2" ry="3.2"/>
<text text-anchor="middle" x="108.8062" y="-267.8015" font-family="Monaco" font-size="9.00" fill="#000000">LastModifiedBy</text>
</g>
</g>
</svg>
