<?xml version="1.0" encoding="UTF-8" standalone="no"?>
<!DOCTYPE svg PUBLIC "-//W3C//DTD SVG 1.1//EN"
 "http://www.w3.org/Graphics/SVG/1.1/DTD/svg11.dtd">
<!-- Generated by graphviz version 2.40.1 (20161225.0304)
 -->
<!-- Title: Salesforce+ ERD Pages: 1 -->
<svg width="1280pt" height="180pt"
 viewBox="0.00 0.00 1280.06 180.00" xmlns="http://www.w3.org/2000/svg" xmlns:xlink="http://www.w3.org/1999/xlink">
<g id="graph0" class="graph" transform="scale(1 1) rotate(0) translate(4 176)">
<title>Salesforce+ ERD</title>
<polygon fill="#efeffd" stroke="transparent" points="-4,4 -4,-176 1276.0625,-176 1276.0625,4 -4,4"/>
<text text-anchor="middle" x="1223.5559" y="-5.8" font-family="Courier,monospace" font-size="9.00" fill="#000000">Salesforce ERD </text>
<!-- FinServ__RollupByLookupFilterCriteria__c -->
<g id="node1" class="node">
<title>FinServ__RollupByLookupFilterCriteria__c</title>
<g id="a_node1"><a xlink:href="#" xlink:title=" FinServ__RollupByLookupFilterCriteria__c ">
<polygon fill="#ffeeff" stroke="transparent" points="434.0625,-17 434.0625,-172 1272.0625,-172 1272.0625,-17 434.0625,-17"/>
<polygon fill="#add8e6" stroke="transparent" points="435.0625,-153.5 435.0625,-170.5 1271.0625,-170.5 1271.0625,-153.5 435.0625,-153.5"/>
<polygon fill="none" stroke="#99ccff" points="435.0625,-153.5 435.0625,-170.5 1271.0625,-170.5 1271.0625,-153.5 435.0625,-153.5"/>
<text text-anchor="start" x="721.041" y="-159.7" font-family="Courier,monospace" font-weight="bold" font-size="11.00" fill="#000000">FinServ__RollupByLookupFilterCriteria__c</text>
<polygon fill="#99ccff" stroke="transparent" points="435.0625,-136.5 435.0625,-153.5 1180.0625,-153.5 1180.0625,-136.5 435.0625,-136.5"/>
<polygon fill="none" stroke="#99ccff" points="435.0625,-136.5 435.0625,-153.5 1180.0625,-153.5 1180.0625,-136.5 435.0625,-136.5"/>
<text text-anchor="start" x="438.0625" y="-142.7" font-family="Courier,monospace" font-size="11.00" fill="#000000"> &#160;&#160;&#160;&#160;&#160;&#160;&#160;&#160;&#160;&#160;&#160;&#160;&#160;&#160;&#160;&#160;&#160;&#160;&#160;&#160;&#160;&#160;&#160;&#160;&#160;&#160;&#160;&#160;&#160;&#160;&#160;&#160;&#160;&#160;&#160;&#160;&#160;&#160;&#160;&#160;&#160;&#160;</text>
<text text-anchor="start" x="721.9087" y="-142.7" font-family="Courier,monospace" font-weight="bold" font-size="11.00" fill="#000000">Id</text>
<text text-anchor="start" x="735.1108" y="-142.7" font-family="Courier,monospace" font-size="11.00" fill="#000000"> &#160;&#160;&#160;&#160;&#160;&#160;&#160;&#160;&#160;&#160;&#160;&#160;&#160;&#160;&#160;&#160;&#160;&#160;&#160;&#160;&#160;&#160;&#160;&#160;&#160;&#160;&#160;&#160;&#160;&#160;&#160;&#160;&#160;&#160;&#160;&#160;&#160;&#160;&#160;</text>
<polygon fill="none" stroke="#99ccff" points="1180.0625,-136.5 1180.0625,-153.5 1271.0625,-153.5 1271.0625,-136.5 1180.0625,-136.5"/>
<text text-anchor="start" x="1205.7593" y="-141.7" font-family="Courier,monospace" font-size="11.00" fill="#000000">id(18)</text>
<polygon fill="none" stroke="#99ccff" points="435.0625,-119.5 435.0625,-136.5 1180.0625,-136.5 1180.0625,-119.5 435.0625,-119.5"/>
<text text-anchor="start" x="438.0625" y="-124.7" font-family="Courier,monospace" font-size="11.00" fill="#000000"> &#160;&#160;&#160;&#160;&#160;&#160;&#160;&#160;&#160;&#160;&#160;&#160;&#160;&#160;&#160;&#160;&#160;&#160;&#160;&#160;&#160;&#160;&#160;&#160;&#160;&#160;&#160;&#160;&#160;&#160;&#160;&#160;&#160;&#160;&#160;&#160;&#160;&#160;&#160;&#160;IsDeleted &#160;&#160;&#160;&#160;&#160;&#160;&#160;&#160;&#160;&#160;&#160;&#160;&#160;&#160;&#160;&#160;&#160;&#160;&#160;&#160;&#160;&#160;&#160;&#160;&#160;&#160;&#160;&#160;&#160;&#160;&#160;&#160;&#160;&#160;&#160;&#160;&#160;&#160;</text>
<polygon fill="none" stroke="#99ccff" points="1180.0625,-119.5 1180.0625,-136.5 1271.0625,-136.5 1271.0625,-119.5 1180.0625,-119.5"/>
<text text-anchor="start" x="1202.4587" y="-124.7" font-family="Courier,monospace" font-size="11.00" fill="#000000">boolean</text>
<polygon fill="none" stroke="#99ccff" points="435.0625,-102.5 435.0625,-119.5 1180.0625,-119.5 1180.0625,-102.5 435.0625,-102.5"/>
<text text-anchor="start" x="438.0625" y="-107.7" font-family="Courier,monospace" font-size="11.00" fill="#000000"> &#160;&#160;&#160;&#160;&#160;&#160;&#160;&#160;&#160;&#160;&#160;&#160;&#160;&#160;&#160;&#160;&#160;&#160;&#160;&#160;&#160;&#160;&#160;&#160;&#160;&#160;&#160;&#160;&#160;&#160;&#160;&#160;&#160;&#160;&#160;&#160;&#160;&#160;&#160;&#160;Name &#160;&#160;&#160;&#160;&#160;&#160;&#160;&#160;&#160;&#160;&#160;&#160;&#160;&#160;&#160;&#160;&#160;&#160;&#160;&#160;&#160;&#160;&#160;&#160;&#160;&#160;&#160;&#160;&#160;&#160;&#160;&#160;&#160;&#160;&#160;&#160;&#160;&#160;</text>
<polygon fill="none" stroke="#99ccff" points="1180.0625,-102.5 1180.0625,-119.5 1271.0625,-119.5 1271.0625,-102.5 1180.0625,-102.5"/>
<text text-anchor="start" x="1192.5571" y="-107.7" font-family="Courier,monospace" font-size="11.00" fill="#000000">string(80)</text>
<polygon fill="none" stroke="#99ccff" points="435.0625,-85.5 435.0625,-102.5 1180.0625,-102.5 1180.0625,-85.5 435.0625,-85.5"/>
<text text-anchor="start" x="438.0625" y="-90.7" font-family="Courier,monospace" font-size="11.00" fill="#000000"> &#160;&#160;&#160;&#160;&#160;&#160;&#160;&#160;&#160;&#160;&#160;&#160;&#160;&#160;&#160;&#160;&#160;&#160;&#160;&#160;&#160;&#160;&#160;&#160;&#160;&#160;&#160;&#160;&#160;&#160;&#160;&#160;&#160;&#160;&#160;&#160;&#160;&#160;&#160;&#160;LastModifiedById &#160;&#160;&#160;&#160;&#160;&#160;&#160;&#160;&#160;&#160;&#160;&#160;&#160;&#160;&#160;&#160;&#160;&#160;&#160;&#160;&#160;&#160;&#160;&#160;&#160;&#160;&#160;&#160;&#160;&#160;&#160;&#160;&#160;&#160;&#160;&#160;&#160;&#160;</text>
<polygon fill="none" stroke="#99ccff" points="1180.0625,-85.5 1180.0625,-102.5 1271.0625,-102.5 1271.0625,-85.5 1180.0625,-85.5"/>
<text text-anchor="start" x="1182.6555" y="-90.7" font-family="Courier,monospace" font-size="11.00" fill="#000000">reference(18)</text>
<polygon fill="none" stroke="#99ccff" points="435.0625,-68.5 435.0625,-85.5 1180.0625,-85.5 1180.0625,-68.5 435.0625,-68.5"/>
<text text-anchor="start" x="437.9023" y="-73.7" font-family="Courier,monospace" font-size="11.00" fill="#000000"> &#160;&#160;&#160;&#160;&#160;&#160;&#160;&#160;&#160;&#160;&#160;&#160;&#160;&#160;&#160;&#160;&#160;&#160;&#160;&#160;&#160;&#160;&#160;&#160;&#160;&#160;&#160;&#160;&#160;&#160;&#160;&#160;&#160;&#160;&#160;&#160;&#160;&#160;&#160;&#160;FinServ__RollupByLookupConfig__c &#160;&#160;&#160;&#160;&#160;&#160;&#160;&#160;&#160;&#160;&#160;&#160;&#160;&#160;&#160;&#160;&#160;&#160;&#160;&#160;&#160;&#160;&#160;&#160;&#160;&#160;&#160;&#160;&#160;&#160;&#160;&#160;&#160;&#160;&#160;&#160;&#160;&#160;</text>
<polygon fill="none" stroke="#99ccff" points="1180.0625,-68.5 1180.0625,-85.5 1271.0625,-85.5 1271.0625,-68.5 1180.0625,-68.5"/>
<text text-anchor="start" x="1182.6555" y="-73.7" font-family="Courier,monospace" font-size="11.00" fill="#000000">reference(18)</text>
<polygon fill="none" stroke="#99ccff" points="435.0625,-51.5 435.0625,-68.5 1180.0625,-68.5 1180.0625,-51.5 435.0625,-51.5"/>
<text text-anchor="start" x="438.0625" y="-56.7" font-family="Courier,monospace" font-size="11.00" fill="#000000"> &#160;&#160;&#160;&#160;&#160;&#160;&#160;&#160;&#160;&#160;&#160;&#160;&#160;&#160;&#160;&#160;&#160;&#160;&#160;&#160;&#160;&#160;&#160;&#160;&#160;&#160;&#160;&#160;&#160;&#160;&#160;&#160;&#160;&#160;&#160;&#160;&#160;&#160;&#160;&#160;FinServ__FieldName__c &#160;&#160;&#160;&#160;&#160;&#160;&#160;&#160;&#160;&#160;&#160;&#160;&#160;&#160;&#160;&#160;&#160;&#160;&#160;&#160;&#160;&#160;&#160;&#160;&#160;&#160;&#160;&#160;&#160;&#160;&#160;&#160;&#160;&#160;&#160;&#160;&#160;&#160;</text>
<polygon fill="none" stroke="#99ccff" points="1180.0625,-51.5 1180.0625,-68.5 1271.0625,-68.5 1271.0625,-51.5 1180.0625,-51.5"/>
<text text-anchor="start" x="1189.2566" y="-56.7" font-family="Courier,monospace" font-size="11.00" fill="#000000">string(255)</text>
<polygon fill="none" stroke="#99ccff" points="435.0625,-34.5 435.0625,-51.5 1180.0625,-51.5 1180.0625,-34.5 435.0625,-34.5"/>
<text text-anchor="start" x="438.0625" y="-39.7" font-family="Courier,monospace" font-size="11.00" fill="#000000"> &#160;&#160;&#160;&#160;&#160;&#160;&#160;&#160;&#160;&#160;&#160;&#160;&#160;&#160;&#160;&#160;&#160;&#160;&#160;&#160;&#160;&#160;&#160;&#160;&#160;&#160;&#160;&#160;&#160;&#160;&#160;&#160;&#160;&#160;&#160;&#160;&#160;&#160;&#160;&#160;FinServ__FieldValue__c &#160;&#160;&#160;&#160;&#160;&#160;&#160;&#160;&#160;&#160;&#160;&#160;&#160;&#160;&#160;&#160;&#160;&#160;&#160;&#160;&#160;&#160;&#160;&#160;&#160;&#160;&#160;&#160;&#160;&#160;&#160;&#160;&#160;&#160;&#160;&#160;&#160;&#160;</text>
<polygon fill="none" stroke="#99ccff" points="1180.0625,-34.5 1180.0625,-51.5 1271.0625,-51.5 1271.0625,-34.5 1180.0625,-34.5"/>
<text text-anchor="start" x="1189.2566" y="-39.7" font-family="Courier,monospace" font-size="11.00" fill="#000000">string(255)</text>
<polygon fill="none" stroke="#99ccff" points="435.0625,-17.5 435.0625,-34.5 1180.0625,-34.5 1180.0625,-17.5 435.0625,-17.5"/>
<text text-anchor="start" x="438.0625" y="-22.7" font-family="Courier,monospace" font-size="11.00" fill="#000000"> &#160;&#160;&#160;&#160;&#160;&#160;&#160;&#160;&#160;&#160;&#160;&#160;&#160;&#160;&#160;&#160;&#160;&#160;&#160;&#160;&#160;&#160;&#160;&#160;&#160;&#160;&#160;&#160;&#160;&#160;&#160;&#160;&#160;&#160;&#160;&#160;&#160;&#160;&#160;&#160;FinServ__Operator__c &#160;&#160;&#160;&#160;&#160;&#160;&#160;&#160;&#160;&#160;&#160;&#160;&#160;&#160;&#160;&#160;&#160;&#160;&#160;&#160;&#160;&#160;&#160;&#160;&#160;&#160;&#160;&#160;&#160;&#160;&#160;&#160;&#160;&#160;&#160;&#160;&#160;&#160;</text>
<polygon fill="none" stroke="#99ccff" points="1180.0625,-17.5 1180.0625,-34.5 1271.0625,-34.5 1271.0625,-17.5 1180.0625,-17.5"/>
<text text-anchor="start" x="1182.6555" y="-22.7" font-family="Courier,monospace" font-size="11.00" fill="#000000">picklist(255)</text>
<polygon fill="none" stroke="#99ccff" points="434.0625,-17 434.0625,-172 1272.0625,-172 1272.0625,-17 434.0625,-17"/>
</a>
</g>
</g>
<!-- User -->
<g id="node2" class="node">
<title>User</title>
<text text-anchor="middle" x="113.6172" y="-106.2" font-family="Courier,monospace" font-size="11.00" fill="#000000">User</text>
</g>
<!-- FinServ__RollupByLookupFilterCriteria__c&#45;&gt;User -->
<g id="edge1" class="edge">
<title>FinServ__RollupByLookupFilterCriteria__c:w&#45;&gt;User:e</title>
<path fill="none" stroke="#ff99cc" d="M420.5498,-93.5529C314.5563,-94.3106 193.5366,-103.0249 140.6877,-107.2415"/>
<polygon fill="#ff99cc" stroke="#ff99cc" points="427.0626,-93.5292 435.0756,-97.1 431.0625,-93.5146 435.0625,-93.5 435.0625,-93.5 435.0625,-93.5 431.0625,-93.5146 435.0494,-89.9 427.0626,-93.5292 427.0626,-93.5292"/>
<ellipse fill="none" stroke="#ff99cc" cx="423.8626" cy="-93.5409" rx="3.2" ry="3.2"/>
<text text-anchor="middle" x="330.6484" y="-104.3015" font-family="Monaco" font-size="9.00" fill="#000000">LastModifiedBy</text>
</g>
<!-- FinServ__RollupByLookupConfig__c -->
<g id="node3" class="node">
<title>FinServ__RollupByLookupConfig__c</title>
<text text-anchor="middle" x="113.6172" y="-57.2" font-family="Courier,monospace" font-size="11.00" fill="#000000">FinServ__RollupByLookupConfig__c</text>
</g>
<!-- FinServ__RollupByLookupFilterCriteria__c&#45;&gt;FinServ__RollupByLookupConfig__c -->
<g id="edge2" class="edge">
<title>FinServ__RollupByLookupFilterCriteria__c:w&#45;&gt;FinServ__RollupByLookupConfig__c:e</title>
<path fill="none" stroke="#ff99cc" d="M420.3928,-76.446C355.2728,-75.9757 284.4981,-72.5053 227.3542,-68.9217"/>
<polygon fill="#ff99cc" stroke="#ff99cc" points="427.0626,-76.4705 435.0492,-80.1 431.0625,-76.4853 435.0625,-76.5 435.0625,-76.5 435.0625,-76.5 431.0625,-76.4853 435.0758,-72.9 427.0626,-76.4705 427.0626,-76.4705"/>
<ellipse fill="none" stroke="#ff99cc" cx="423.8626" cy="-76.4587" rx="3.2" ry="3.2"/>
<text text-anchor="middle" x="330.6484" y="-81.3015" font-family="Monaco" font-size="9.00" fill="#000000">FinServ__RollupByLookupConfig__r</text>
</g>
</g>
</svg>
