<?xml version="1.0" encoding="UTF-8" standalone="no"?>
<!DOCTYPE svg PUBLIC "-//W3C//DTD SVG 1.1//EN"
 "http://www.w3.org/Graphics/SVG/1.1/DTD/svg11.dtd">
<!-- Generated by graphviz version 2.40.1 (20161225.0304)
 -->
<!-- Title: Salesforce+ ERD Pages: 1 -->
<svg width="1201pt" height="313pt"
 viewBox="0.00 0.00 1201.05 313.00" xmlns="http://www.w3.org/2000/svg" xmlns:xlink="http://www.w3.org/1999/xlink">
<g id="graph0" class="graph" transform="scale(1 1) rotate(0) translate(4 309)">
<title>Salesforce+ ERD</title>
<polygon fill="#efeffd" stroke="transparent" points="-4,4 -4,-309 1197.0508,-309 1197.0508,4 -4,4"/>
<text text-anchor="middle" x="1144.5442" y="-5.8" font-family="Courier,monospace" font-size="9.00" fill="#000000">Salesforce ERD </text>
<!-- FinServ__ContactContactRelation__c -->
<g id="node1" class="node">
<title>FinServ__ContactContactRelation__c</title>
<g id="a_node1"><a xlink:href="#" xlink:title=" FinServ__ContactContactRelation__c ">
<polygon fill="#ffeeff" stroke="transparent" points="362.0508,-17 362.0508,-274 1193.0508,-274 1193.0508,-17 362.0508,-17"/>
<polygon fill="#add8e6" stroke="transparent" points="363.5508,-255.5 363.5508,-272.5 1192.5508,-272.5 1192.5508,-255.5 363.5508,-255.5"/>
<polygon fill="none" stroke="#99ccff" points="363.5508,-255.5 363.5508,-272.5 1192.5508,-272.5 1192.5508,-255.5 363.5508,-255.5"/>
<text text-anchor="start" x="665.8325" y="-261.7" font-family="Courier,monospace" font-weight="bold" font-size="11.00" fill="#000000">FinServ__ContactContactRelation__c</text>
<polygon fill="#99ccff" stroke="transparent" points="363.5508,-238.5 363.5508,-255.5 1101.5508,-255.5 1101.5508,-238.5 363.5508,-238.5"/>
<polygon fill="none" stroke="#99ccff" points="363.5508,-238.5 363.5508,-255.5 1101.5508,-255.5 1101.5508,-238.5 363.5508,-238.5"/>
<text text-anchor="start" x="366.5508" y="-244.7" font-family="Courier,monospace" font-size="11.00" fill="#000000"> &#160;&#160;&#160;&#160;&#160;&#160;&#160;&#160;&#160;&#160;&#160;&#160;&#160;&#160;&#160;&#160;&#160;&#160;&#160;&#160;&#160;&#160;&#160;&#160;&#160;&#160;&#160;&#160;&#160;&#160;&#160;&#160;&#160;&#160;&#160;&#160;&#160;&#160;&#160;&#160;&#160;&#160;</text>
<text text-anchor="start" x="650.397" y="-244.7" font-family="Courier,monospace" font-weight="bold" font-size="11.00" fill="#000000">Id</text>
<text text-anchor="start" x="663.5991" y="-244.7" font-family="Courier,monospace" font-size="11.00" fill="#000000"> &#160;&#160;&#160;&#160;&#160;&#160;&#160;&#160;&#160;&#160;&#160;&#160;&#160;&#160;&#160;&#160;&#160;&#160;&#160;&#160;&#160;&#160;&#160;&#160;&#160;&#160;&#160;&#160;&#160;&#160;&#160;&#160;&#160;&#160;&#160;&#160;&#160;&#160;&#160;</text>
<polygon fill="none" stroke="#99ccff" points="1101.5508,-238.5 1101.5508,-255.5 1192.5508,-255.5 1192.5508,-238.5 1101.5508,-238.5"/>
<text text-anchor="start" x="1127.2476" y="-243.7" font-family="Courier,monospace" font-size="11.00" fill="#000000">id(18)</text>
<polygon fill="none" stroke="#99ccff" points="363.5508,-221.5 363.5508,-238.5 1101.5508,-238.5 1101.5508,-221.5 363.5508,-221.5"/>
<text text-anchor="start" x="366.5508" y="-226.7" font-family="Courier,monospace" font-size="11.00" fill="#000000"> &#160;&#160;&#160;&#160;&#160;&#160;&#160;&#160;&#160;&#160;&#160;&#160;&#160;&#160;&#160;&#160;&#160;&#160;&#160;&#160;&#160;&#160;&#160;&#160;&#160;&#160;&#160;&#160;&#160;&#160;&#160;&#160;&#160;&#160;&#160;&#160;&#160;&#160;&#160;&#160;OwnerId &#160;&#160;&#160;&#160;&#160;&#160;&#160;&#160;&#160;&#160;&#160;&#160;&#160;&#160;&#160;&#160;&#160;&#160;&#160;&#160;&#160;&#160;&#160;&#160;&#160;&#160;&#160;&#160;&#160;&#160;&#160;&#160;&#160;&#160;&#160;&#160;&#160;&#160;</text>
<polygon fill="none" stroke="#99ccff" points="1101.5508,-221.5 1101.5508,-238.5 1192.5508,-238.5 1192.5508,-221.5 1101.5508,-221.5"/>
<text text-anchor="start" x="1104.1438" y="-226.7" font-family="Courier,monospace" font-size="11.00" fill="#000000">reference(18)</text>
<polygon fill="none" stroke="#99ccff" points="363.5508,-204.5 363.5508,-221.5 1101.5508,-221.5 1101.5508,-204.5 363.5508,-204.5"/>
<text text-anchor="start" x="366.5508" y="-209.7" font-family="Courier,monospace" font-size="11.00" fill="#000000"> &#160;&#160;&#160;&#160;&#160;&#160;&#160;&#160;&#160;&#160;&#160;&#160;&#160;&#160;&#160;&#160;&#160;&#160;&#160;&#160;&#160;&#160;&#160;&#160;&#160;&#160;&#160;&#160;&#160;&#160;&#160;&#160;&#160;&#160;&#160;&#160;&#160;&#160;&#160;&#160;IsDeleted &#160;&#160;&#160;&#160;&#160;&#160;&#160;&#160;&#160;&#160;&#160;&#160;&#160;&#160;&#160;&#160;&#160;&#160;&#160;&#160;&#160;&#160;&#160;&#160;&#160;&#160;&#160;&#160;&#160;&#160;&#160;&#160;&#160;&#160;&#160;&#160;&#160;&#160;</text>
<polygon fill="none" stroke="#99ccff" points="1101.5508,-204.5 1101.5508,-221.5 1192.5508,-221.5 1192.5508,-204.5 1101.5508,-204.5"/>
<text text-anchor="start" x="1123.947" y="-209.7" font-family="Courier,monospace" font-size="11.00" fill="#000000">boolean</text>
<polygon fill="none" stroke="#99ccff" points="363.5508,-187.5 363.5508,-204.5 1101.5508,-204.5 1101.5508,-187.5 363.5508,-187.5"/>
<text text-anchor="start" x="366.5508" y="-192.7" font-family="Courier,monospace" font-size="11.00" fill="#000000"> &#160;&#160;&#160;&#160;&#160;&#160;&#160;&#160;&#160;&#160;&#160;&#160;&#160;&#160;&#160;&#160;&#160;&#160;&#160;&#160;&#160;&#160;&#160;&#160;&#160;&#160;&#160;&#160;&#160;&#160;&#160;&#160;&#160;&#160;&#160;&#160;&#160;&#160;&#160;&#160;Name &#160;&#160;&#160;&#160;&#160;&#160;&#160;&#160;&#160;&#160;&#160;&#160;&#160;&#160;&#160;&#160;&#160;&#160;&#160;&#160;&#160;&#160;&#160;&#160;&#160;&#160;&#160;&#160;&#160;&#160;&#160;&#160;&#160;&#160;&#160;&#160;&#160;&#160;</text>
<polygon fill="none" stroke="#99ccff" points="1101.5508,-187.5 1101.5508,-204.5 1192.5508,-204.5 1192.5508,-187.5 1101.5508,-187.5"/>
<text text-anchor="start" x="1114.0454" y="-192.7" font-family="Courier,monospace" font-size="11.00" fill="#000000">string(80)</text>
<polygon fill="none" stroke="#99ccff" points="363.5508,-170.5 363.5508,-187.5 1101.5508,-187.5 1101.5508,-170.5 363.5508,-170.5"/>
<text text-anchor="start" x="366.5508" y="-175.7" font-family="Courier,monospace" font-size="11.00" fill="#000000"> &#160;&#160;&#160;&#160;&#160;&#160;&#160;&#160;&#160;&#160;&#160;&#160;&#160;&#160;&#160;&#160;&#160;&#160;&#160;&#160;&#160;&#160;&#160;&#160;&#160;&#160;&#160;&#160;&#160;&#160;&#160;&#160;&#160;&#160;&#160;&#160;&#160;&#160;&#160;&#160;LastModifiedById &#160;&#160;&#160;&#160;&#160;&#160;&#160;&#160;&#160;&#160;&#160;&#160;&#160;&#160;&#160;&#160;&#160;&#160;&#160;&#160;&#160;&#160;&#160;&#160;&#160;&#160;&#160;&#160;&#160;&#160;&#160;&#160;&#160;&#160;&#160;&#160;&#160;&#160;</text>
<polygon fill="none" stroke="#99ccff" points="1101.5508,-170.5 1101.5508,-187.5 1192.5508,-187.5 1192.5508,-170.5 1101.5508,-170.5"/>
<text text-anchor="start" x="1104.1438" y="-175.7" font-family="Courier,monospace" font-size="11.00" fill="#000000">reference(18)</text>
<polygon fill="none" stroke="#99ccff" points="363.5508,-153.5 363.5508,-170.5 1101.5508,-170.5 1101.5508,-153.5 363.5508,-153.5"/>
<text text-anchor="start" x="366.5508" y="-158.7" font-family="Courier,monospace" font-size="11.00" fill="#000000"> &#160;&#160;&#160;&#160;&#160;&#160;&#160;&#160;&#160;&#160;&#160;&#160;&#160;&#160;&#160;&#160;&#160;&#160;&#160;&#160;&#160;&#160;&#160;&#160;&#160;&#160;&#160;&#160;&#160;&#160;&#160;&#160;&#160;&#160;&#160;&#160;&#160;&#160;&#160;&#160;FinServ__Active__c &#160;&#160;&#160;&#160;&#160;&#160;&#160;&#160;&#160;&#160;&#160;&#160;&#160;&#160;&#160;&#160;&#160;&#160;&#160;&#160;&#160;&#160;&#160;&#160;&#160;&#160;&#160;&#160;&#160;&#160;&#160;&#160;&#160;&#160;&#160;&#160;&#160;&#160;</text>
<polygon fill="none" stroke="#99ccff" points="1101.5508,-153.5 1101.5508,-170.5 1192.5508,-170.5 1192.5508,-153.5 1101.5508,-153.5"/>
<text text-anchor="start" x="1123.947" y="-158.7" font-family="Courier,monospace" font-size="11.00" fill="#000000">boolean</text>
<polygon fill="none" stroke="#99ccff" points="363.5508,-136.5 363.5508,-153.5 1101.5508,-153.5 1101.5508,-136.5 363.5508,-136.5"/>
<text text-anchor="start" x="366.5508" y="-141.7" font-family="Courier,monospace" font-size="11.00" fill="#000000"> &#160;&#160;&#160;&#160;&#160;&#160;&#160;&#160;&#160;&#160;&#160;&#160;&#160;&#160;&#160;&#160;&#160;&#160;&#160;&#160;&#160;&#160;&#160;&#160;&#160;&#160;&#160;&#160;&#160;&#160;&#160;&#160;&#160;&#160;&#160;&#160;&#160;&#160;&#160;&#160;FinServ__Contact__c &#160;&#160;&#160;&#160;&#160;&#160;&#160;&#160;&#160;&#160;&#160;&#160;&#160;&#160;&#160;&#160;&#160;&#160;&#160;&#160;&#160;&#160;&#160;&#160;&#160;&#160;&#160;&#160;&#160;&#160;&#160;&#160;&#160;&#160;&#160;&#160;&#160;&#160;</text>
<polygon fill="none" stroke="#99ccff" points="1101.5508,-136.5 1101.5508,-153.5 1192.5508,-153.5 1192.5508,-136.5 1101.5508,-136.5"/>
<text text-anchor="start" x="1104.1438" y="-141.7" font-family="Courier,monospace" font-size="11.00" fill="#000000">reference(18)</text>
<polygon fill="none" stroke="#99ccff" points="363.5508,-119.5 363.5508,-136.5 1101.5508,-136.5 1101.5508,-119.5 363.5508,-119.5"/>
<text text-anchor="start" x="366.5508" y="-124.7" font-family="Courier,monospace" font-size="11.00" fill="#000000"> &#160;&#160;&#160;&#160;&#160;&#160;&#160;&#160;&#160;&#160;&#160;&#160;&#160;&#160;&#160;&#160;&#160;&#160;&#160;&#160;&#160;&#160;&#160;&#160;&#160;&#160;&#160;&#160;&#160;&#160;&#160;&#160;&#160;&#160;&#160;&#160;&#160;&#160;&#160;&#160;FinServ__EndDate__c &#160;&#160;&#160;&#160;&#160;&#160;&#160;&#160;&#160;&#160;&#160;&#160;&#160;&#160;&#160;&#160;&#160;&#160;&#160;&#160;&#160;&#160;&#160;&#160;&#160;&#160;&#160;&#160;&#160;&#160;&#160;&#160;&#160;&#160;&#160;&#160;&#160;&#160;</text>
<polygon fill="none" stroke="#99ccff" points="1101.5508,-119.5 1101.5508,-136.5 1192.5508,-136.5 1192.5508,-119.5 1101.5508,-119.5"/>
<text text-anchor="start" x="1133.8486" y="-124.7" font-family="Courier,monospace" font-size="11.00" fill="#000000">date</text>
<polygon fill="none" stroke="#99ccff" points="363.5508,-102.5 363.5508,-119.5 1101.5508,-119.5 1101.5508,-102.5 363.5508,-102.5"/>
<text text-anchor="start" x="366.5508" y="-107.7" font-family="Courier,monospace" font-size="11.00" fill="#000000"> &#160;&#160;&#160;&#160;&#160;&#160;&#160;&#160;&#160;&#160;&#160;&#160;&#160;&#160;&#160;&#160;&#160;&#160;&#160;&#160;&#160;&#160;&#160;&#160;&#160;&#160;&#160;&#160;&#160;&#160;&#160;&#160;&#160;&#160;&#160;&#160;&#160;&#160;&#160;&#160;FinServ__ExternalId__c &#160;&#160;&#160;&#160;&#160;&#160;&#160;&#160;&#160;&#160;&#160;&#160;&#160;&#160;&#160;&#160;&#160;&#160;&#160;&#160;&#160;&#160;&#160;&#160;&#160;&#160;&#160;&#160;&#160;&#160;&#160;&#160;&#160;&#160;&#160;&#160;&#160;&#160;</text>
<polygon fill="none" stroke="#99ccff" points="1101.5508,-102.5 1101.5508,-119.5 1192.5508,-119.5 1192.5508,-102.5 1101.5508,-102.5"/>
<text text-anchor="start" x="1114.0454" y="-107.7" font-family="Courier,monospace" font-size="11.00" fill="#000000">string(64)</text>
<polygon fill="none" stroke="#99ccff" points="363.5508,-85.5 363.5508,-102.5 1101.5508,-102.5 1101.5508,-85.5 363.5508,-85.5"/>
<text text-anchor="start" x="366.1912" y="-90.7" font-family="Courier,monospace" font-size="11.00" fill="#000000"> &#160;&#160;&#160;&#160;&#160;&#160;&#160;&#160;&#160;&#160;&#160;&#160;&#160;&#160;&#160;&#160;&#160;&#160;&#160;&#160;&#160;&#160;&#160;&#160;&#160;&#160;&#160;&#160;&#160;&#160;&#160;&#160;&#160;&#160;&#160;&#160;&#160;&#160;&#160;&#160;FinServ__InverseRelationship__c &#160;&#160;&#160;&#160;&#160;&#160;&#160;&#160;&#160;&#160;&#160;&#160;&#160;&#160;&#160;&#160;&#160;&#160;&#160;&#160;&#160;&#160;&#160;&#160;&#160;&#160;&#160;&#160;&#160;&#160;&#160;&#160;&#160;&#160;&#160;&#160;&#160;&#160;</text>
<polygon fill="none" stroke="#99ccff" points="1101.5508,-85.5 1101.5508,-102.5 1192.5508,-102.5 1192.5508,-85.5 1101.5508,-85.5"/>
<text text-anchor="start" x="1104.1438" y="-90.7" font-family="Courier,monospace" font-size="11.00" fill="#000000">reference(18)</text>
<polygon fill="none" stroke="#99ccff" points="363.5508,-68.5 363.5508,-85.5 1101.5508,-85.5 1101.5508,-68.5 363.5508,-68.5"/>
<text text-anchor="start" x="366.5508" y="-73.7" font-family="Courier,monospace" font-size="11.00" fill="#000000"> &#160;&#160;&#160;&#160;&#160;&#160;&#160;&#160;&#160;&#160;&#160;&#160;&#160;&#160;&#160;&#160;&#160;&#160;&#160;&#160;&#160;&#160;&#160;&#160;&#160;&#160;&#160;&#160;&#160;&#160;&#160;&#160;&#160;&#160;&#160;&#160;&#160;&#160;&#160;&#160;FinServ__RelatedContact__c &#160;&#160;&#160;&#160;&#160;&#160;&#160;&#160;&#160;&#160;&#160;&#160;&#160;&#160;&#160;&#160;&#160;&#160;&#160;&#160;&#160;&#160;&#160;&#160;&#160;&#160;&#160;&#160;&#160;&#160;&#160;&#160;&#160;&#160;&#160;&#160;&#160;&#160;</text>
<polygon fill="none" stroke="#99ccff" points="1101.5508,-68.5 1101.5508,-85.5 1192.5508,-85.5 1192.5508,-68.5 1101.5508,-68.5"/>
<text text-anchor="start" x="1104.1438" y="-73.7" font-family="Courier,monospace" font-size="11.00" fill="#000000">reference(18)</text>
<polygon fill="none" stroke="#99ccff" points="363.5508,-51.5 363.5508,-68.5 1101.5508,-68.5 1101.5508,-51.5 363.5508,-51.5"/>
<text text-anchor="start" x="366.5508" y="-56.7" font-family="Courier,monospace" font-size="11.00" fill="#000000"> &#160;&#160;&#160;&#160;&#160;&#160;&#160;&#160;&#160;&#160;&#160;&#160;&#160;&#160;&#160;&#160;&#160;&#160;&#160;&#160;&#160;&#160;&#160;&#160;&#160;&#160;&#160;&#160;&#160;&#160;&#160;&#160;&#160;&#160;&#160;&#160;&#160;&#160;&#160;&#160;FinServ__Role__c &#160;&#160;&#160;&#160;&#160;&#160;&#160;&#160;&#160;&#160;&#160;&#160;&#160;&#160;&#160;&#160;&#160;&#160;&#160;&#160;&#160;&#160;&#160;&#160;&#160;&#160;&#160;&#160;&#160;&#160;&#160;&#160;&#160;&#160;&#160;&#160;&#160;&#160;</text>
<polygon fill="none" stroke="#99ccff" points="1101.5508,-51.5 1101.5508,-68.5 1192.5508,-68.5 1192.5508,-51.5 1101.5508,-51.5"/>
<text text-anchor="start" x="1104.1438" y="-56.7" font-family="Courier,monospace" font-size="11.00" fill="#000000">reference(18)</text>
<polygon fill="none" stroke="#99ccff" points="363.5508,-34.5 363.5508,-51.5 1101.5508,-51.5 1101.5508,-34.5 363.5508,-34.5"/>
<text text-anchor="start" x="366.5508" y="-39.7" font-family="Courier,monospace" font-size="11.00" fill="#000000"> &#160;&#160;&#160;&#160;&#160;&#160;&#160;&#160;&#160;&#160;&#160;&#160;&#160;&#160;&#160;&#160;&#160;&#160;&#160;&#160;&#160;&#160;&#160;&#160;&#160;&#160;&#160;&#160;&#160;&#160;&#160;&#160;&#160;&#160;&#160;&#160;&#160;&#160;&#160;&#160;FinServ__SourceSystemId__c &#160;&#160;&#160;&#160;&#160;&#160;&#160;&#160;&#160;&#160;&#160;&#160;&#160;&#160;&#160;&#160;&#160;&#160;&#160;&#160;&#160;&#160;&#160;&#160;&#160;&#160;&#160;&#160;&#160;&#160;&#160;&#160;&#160;&#160;&#160;&#160;&#160;&#160;</text>
<polygon fill="none" stroke="#99ccff" points="1101.5508,-34.5 1101.5508,-51.5 1192.5508,-51.5 1192.5508,-34.5 1101.5508,-34.5"/>
<text text-anchor="start" x="1110.7449" y="-39.7" font-family="Courier,monospace" font-size="11.00" fill="#000000">string(100)</text>
<polygon fill="none" stroke="#99ccff" points="363.5508,-17.5 363.5508,-34.5 1101.5508,-34.5 1101.5508,-17.5 363.5508,-17.5"/>
<text text-anchor="start" x="366.5508" y="-22.7" font-family="Courier,monospace" font-size="11.00" fill="#000000"> &#160;&#160;&#160;&#160;&#160;&#160;&#160;&#160;&#160;&#160;&#160;&#160;&#160;&#160;&#160;&#160;&#160;&#160;&#160;&#160;&#160;&#160;&#160;&#160;&#160;&#160;&#160;&#160;&#160;&#160;&#160;&#160;&#160;&#160;&#160;&#160;&#160;&#160;&#160;&#160;FinServ__StartDate__c &#160;&#160;&#160;&#160;&#160;&#160;&#160;&#160;&#160;&#160;&#160;&#160;&#160;&#160;&#160;&#160;&#160;&#160;&#160;&#160;&#160;&#160;&#160;&#160;&#160;&#160;&#160;&#160;&#160;&#160;&#160;&#160;&#160;&#160;&#160;&#160;&#160;&#160;</text>
<polygon fill="none" stroke="#99ccff" points="1101.5508,-17.5 1101.5508,-34.5 1192.5508,-34.5 1192.5508,-17.5 1101.5508,-17.5"/>
<text text-anchor="start" x="1133.8486" y="-22.7" font-family="Courier,monospace" font-size="11.00" fill="#000000">date</text>
<polygon fill="none" stroke="#99ccff" points="362.0508,-17 362.0508,-274 1193.0508,-274 1193.0508,-17 362.0508,-17"/>
</a>
</g>
</g>
<!-- FinServ__ContactContactRelation__c&#45;&gt;FinServ__ContactContactRelation__c -->
<g id="edge5" class="edge">
<title>FinServ__ContactContactRelation__c:w&#45;&gt;FinServ__ContactContactRelation__c:e</title>
<path fill="none" stroke="#3e7ab7" d="M350.1164,-99.1481C238.7318,-151.3258 256.4014,-287 732.5508,-287 1227.0508,-287 1227.0508,-278.3333 1101.5508,-247.5"/>
<polygon fill="#3e7ab7" stroke="#3e7ab7" points="356.176,-96.6006 364.946,-96.8186 359.8634,-95.0503 363.5508,-93.5 363.5508,-93.5 363.5508,-93.5 359.8634,-95.0503 362.1555,-90.1814 356.176,-96.6006 356.176,-96.6006"/>
<ellipse fill="none" stroke="#3e7ab7" cx="353.2261" cy="-97.8408" rx="3.2" ry="3.2"/>
<text text-anchor="middle" x="777.5508" y="-291.1988" font-family="Arial" font-size="12.00" fill="#000000">FinServ__InverseRelationship__r</text>
</g>
<!-- Group -->
<g id="node2" class="node">
<title>Group</title>
<text text-anchor="middle" x="93.814" y="-236.2" font-family="Courier,monospace" font-size="11.00" fill="#000000">Group</text>
</g>
<!-- FinServ__ContactContactRelation__c&#45;&gt;Group -->
<g id="edge1" class="edge">
<title>FinServ__ContactContactRelation__c:w&#45;&gt;Group:e</title>
<path fill="none" stroke="#ff99cc" d="M349.1134,-230.5415C263.6285,-231.0229 167.0076,-235.5691 120.9875,-237.9936"/>
<polygon fill="#ff99cc" stroke="#ff99cc" points="355.5508,-230.5231 363.5612,-234.1 359.5508,-230.5115 363.5508,-230.5 363.5508,-230.5 363.5508,-230.5 359.5508,-230.5115 363.5404,-226.9 355.5508,-230.5231 355.5508,-230.5231"/>
<ellipse fill="none" stroke="#ff99cc" cx="352.3508" cy="-230.5323" rx="3.2" ry="3.2"/>
<text text-anchor="middle" x="274.8394" y="-238.3015" font-family="Monaco" font-size="9.00" fill="#000000">Owner</text>
</g>
<!-- User -->
<g id="node3" class="node">
<title>User</title>
<text text-anchor="middle" x="93.814" y="-182.2" font-family="Courier,monospace" font-size="11.00" fill="#000000">User</text>
</g>
<!-- FinServ__ContactContactRelation__c&#45;&gt;User -->
<g id="edge2" class="edge">
<title>FinServ__ContactContactRelation__c:w&#45;&gt;User:e</title>
<path fill="none" stroke="#ff99cc" d="M352.8227,-220.5656C351.2765,-217.1126 349.3604,-213.5853 345.0508,-211.4985 325.2186,-201.8955 181.6491,-191.3449 120.8745,-187.2547"/>
<polygon fill="#ff99cc" stroke="#ff99cc" points="357.681,-225.0644 361.1048,-233.1414 360.6159,-227.7822 363.5508,-230.5 363.5508,-230.5 363.5508,-230.5 360.6159,-227.7822 365.9968,-227.8586 357.681,-225.0644 357.681,-225.0644"/>
<ellipse fill="none" stroke="#ff99cc" cx="355.333" cy="-222.8902" rx="3.2" ry="3.2"/>
<text text-anchor="middle" x="274.8394" y="-215.3015" font-family="Monaco" font-size="9.00" fill="#000000">Owner</text>
</g>
<!-- FinServ__ContactContactRelation__c&#45;&gt;User -->
<g id="edge3" class="edge">
<title>FinServ__ContactContactRelation__c:w&#45;&gt;User:e</title>
<path fill="none" stroke="#ff99cc" d="M349.109,-178.6736C347.9196,-178.6016 346.5941,-178.5403 345.0508,-178.4985 282.6634,-176.8112 267.007,-176.5299 204.6279,-178.4985 176.1123,-179.3985 143.5307,-181.598 121.1151,-183.2936"/>
<polygon fill="#ff99cc" stroke="#ff99cc" points="355.5638,-179.0429 363.3451,-183.0941 359.5573,-179.2715 363.5508,-179.5 363.5508,-179.5 363.5508,-179.5 359.5573,-179.2715 363.7565,-175.9059 355.5638,-179.0429 355.5638,-179.0429"/>
<ellipse fill="none" stroke="#ff99cc" cx="352.3691" cy="-178.8601" rx="3.2" ry="3.2"/>
<text text-anchor="middle" x="274.8394" y="-182.3015" font-family="Monaco" font-size="9.00" fill="#000000">LastModifiedBy</text>
</g>
<!-- Contact -->
<g id="node4" class="node">
<title>Contact</title>
<text text-anchor="middle" x="93.814" y="-117.2" font-family="Courier,monospace" font-size="11.00" fill="#000000">Contact</text>
</g>
<!-- FinServ__ContactContactRelation__c&#45;&gt;Contact -->
<g id="edge4" class="edge">
<title>FinServ__ContactContactRelation__c:w&#45;&gt;Contact:e</title>
<path fill="none" stroke="#ff99cc" d="M348.977,-144.3878C265.9034,-143.1365 172.7473,-131.7134 125.2936,-125.1274"/>
<polygon fill="#ff99cc" stroke="#ff99cc" points="355.551,-144.4384 363.523,-148.0999 359.5509,-144.4692 363.5508,-144.5 363.5508,-144.5 363.5508,-144.5 359.5509,-144.4692 363.5785,-140.9001 355.551,-144.4384 355.551,-144.4384"/>
<ellipse fill="none" stroke="#ff99cc" cx="352.3511" cy="-144.4137" rx="3.2" ry="3.2"/>
<text text-anchor="middle" x="274.8394" y="-148.3015" font-family="Monaco" font-size="9.00" fill="#000000">FinServ__Contact__r</text>
</g>
<!-- FinServ__ContactContactRelation__c&#45;&gt;Contact -->
<g id="edge6" class="edge">
<title>FinServ__ContactContactRelation__c:w&#45;&gt;Contact:e</title>
<path fill="none" stroke="#ff99cc" d="M349.1137,-76.6986C265.3356,-78.9564 172.3615,-99.9297 125.1041,-112.0164"/>
<polygon fill="#ff99cc" stroke="#ff99cc" points="355.5515,-76.6101 363.6003,-80.0997 359.5512,-76.555 363.5508,-76.5 363.5508,-76.5 363.5508,-76.5 359.5512,-76.555 363.5012,-72.9003 355.5515,-76.6101 355.5515,-76.6101"/>
<ellipse fill="none" stroke="#ff99cc" cx="352.3518" cy="-76.6541" rx="3.2" ry="3.2"/>
<text text-anchor="middle" x="274.8394" y="-98.3015" font-family="Monaco" font-size="9.00" fill="#000000">FinServ__RelatedContact__r</text>
</g>
<!-- FinServ__ReciprocalRole__c -->
<g id="node5" class="node">
<title>FinServ__ReciprocalRole__c</title>
<text text-anchor="middle" x="93.814" y="-56.2" font-family="Courier,monospace" font-size="11.00" fill="#000000">FinServ__ReciprocalRole__c</text>
</g>
<!-- FinServ__ContactContactRelation__c&#45;&gt;FinServ__ReciprocalRole__c -->
<g id="edge7" class="edge">
<title>FinServ__ContactContactRelation__c:w&#45;&gt;FinServ__ReciprocalRole__c:e</title>
<path fill="none" stroke="#ff99cc" d="M349.0419,-59.5C294.4713,-59.5 235.3417,-59.5 187.75,-59.5"/>
<polygon fill="#ff99cc" stroke="#ff99cc" points="355.5508,-59.5001 363.5508,-63.1 359.5508,-59.5 363.5508,-59.5 363.5508,-59.5 363.5508,-59.5 359.5508,-59.5 363.5508,-55.9 355.5508,-59.5001 355.5508,-59.5001"/>
<ellipse fill="none" stroke="#ff99cc" cx="352.3508" cy="-59.5001" rx="3.2" ry="3.2"/>
<text text-anchor="middle" x="274.8394" y="-64.3015" font-family="Monaco" font-size="9.00" fill="#000000">FinServ__Role__r</text>
</g>
</g>
</svg>
