<?xml version="1.0" encoding="UTF-8" standalone="no"?>
<!DOCTYPE svg PUBLIC "-//W3C//DTD SVG 1.1//EN"
 "http://www.w3.org/Graphics/SVG/1.1/DTD/svg11.dtd">
<!-- Generated by graphviz version 2.40.1 (20161225.0304)
 -->
<!-- Title: Salesforce+ ERD Pages: 1 -->
<svg width="1219pt" height="299pt"
 viewBox="0.00 0.00 1219.05 299.00" xmlns="http://www.w3.org/2000/svg" xmlns:xlink="http://www.w3.org/1999/xlink">
<g id="graph0" class="graph" transform="scale(1 1) rotate(0) translate(4 295)">
<title>Salesforce+ ERD</title>
<polygon fill="#efeffd" stroke="transparent" points="-4,4 -4,-295 1215.0547,-295 1215.0547,4 -4,4"/>
<text text-anchor="middle" x="1162.5481" y="-5.8" font-family="Courier,monospace" font-size="9.00" fill="#000000">Salesforce ERD </text>
<!-- FinServ__Alert__c -->
<g id="node1" class="node">
<title>FinServ__Alert__c</title>
<g id="a_node1"><a xlink:href="#" xlink:title=" FinServ__Alert__c ">
<polygon fill="#ffeeff" stroke="transparent" points="386.0547,-17 386.0547,-291 1211.0547,-291 1211.0547,-17 386.0547,-17"/>
<polygon fill="#add8e6" stroke="transparent" points="387.5547,-273 387.5547,-290 1210.5547,-290 1210.5547,-273 387.5547,-273"/>
<polygon fill="none" stroke="#99ccff" points="387.5547,-273 387.5547,-290 1210.5547,-290 1210.5547,-273 387.5547,-273"/>
<text text-anchor="start" x="742.9456" y="-279.2" font-family="Courier,monospace" font-weight="bold" font-size="11.00" fill="#000000">FinServ__Alert__c</text>
<polygon fill="#99ccff" stroke="transparent" points="387.5547,-256 387.5547,-273 1119.5547,-273 1119.5547,-256 387.5547,-256"/>
<polygon fill="none" stroke="#99ccff" points="387.5547,-256 387.5547,-273 1119.5547,-273 1119.5547,-256 387.5547,-256"/>
<text text-anchor="start" x="390.5547" y="-262.2" font-family="Courier,monospace" font-size="11.00" fill="#000000"> &#160;&#160;&#160;&#160;&#160;&#160;&#160;&#160;&#160;&#160;&#160;&#160;&#160;&#160;&#160;&#160;&#160;&#160;&#160;&#160;&#160;&#160;&#160;&#160;&#160;&#160;&#160;&#160;&#160;&#160;&#160;&#160;&#160;&#160;&#160;&#160;&#160;&#160;&#160;&#160;&#160;&#160;</text>
<text text-anchor="start" x="674.4009" y="-262.2" font-family="Courier,monospace" font-weight="bold" font-size="11.00" fill="#000000">Id</text>
<text text-anchor="start" x="687.603" y="-262.2" font-family="Courier,monospace" font-size="11.00" fill="#000000"> &#160;&#160;&#160;&#160;&#160;&#160;&#160;&#160;&#160;&#160;&#160;&#160;&#160;&#160;&#160;&#160;&#160;&#160;&#160;&#160;&#160;&#160;&#160;&#160;&#160;&#160;&#160;&#160;&#160;&#160;&#160;&#160;&#160;&#160;&#160;&#160;&#160;&#160;&#160;</text>
<polygon fill="none" stroke="#99ccff" points="1119.5547,-256 1119.5547,-273 1210.5547,-273 1210.5547,-256 1119.5547,-256"/>
<text text-anchor="start" x="1145.2515" y="-261.2" font-family="Courier,monospace" font-size="11.00" fill="#000000">id(18)</text>
<polygon fill="none" stroke="#99ccff" points="387.5547,-239 387.5547,-256 1119.5547,-256 1119.5547,-239 387.5547,-239"/>
<text text-anchor="start" x="390.5547" y="-244.2" font-family="Courier,monospace" font-size="11.00" fill="#000000"> &#160;&#160;&#160;&#160;&#160;&#160;&#160;&#160;&#160;&#160;&#160;&#160;&#160;&#160;&#160;&#160;&#160;&#160;&#160;&#160;&#160;&#160;&#160;&#160;&#160;&#160;&#160;&#160;&#160;&#160;&#160;&#160;&#160;&#160;&#160;&#160;&#160;&#160;&#160;&#160;OwnerId &#160;&#160;&#160;&#160;&#160;&#160;&#160;&#160;&#160;&#160;&#160;&#160;&#160;&#160;&#160;&#160;&#160;&#160;&#160;&#160;&#160;&#160;&#160;&#160;&#160;&#160;&#160;&#160;&#160;&#160;&#160;&#160;&#160;&#160;&#160;&#160;&#160;&#160;</text>
<polygon fill="none" stroke="#99ccff" points="1119.5547,-239 1119.5547,-256 1210.5547,-256 1210.5547,-239 1119.5547,-239"/>
<text text-anchor="start" x="1122.1477" y="-244.2" font-family="Courier,monospace" font-size="11.00" fill="#000000">reference(18)</text>
<polygon fill="none" stroke="#99ccff" points="387.5547,-222 387.5547,-239 1119.5547,-239 1119.5547,-222 387.5547,-222"/>
<text text-anchor="start" x="390.5547" y="-227.2" font-family="Courier,monospace" font-size="11.00" fill="#000000"> &#160;&#160;&#160;&#160;&#160;&#160;&#160;&#160;&#160;&#160;&#160;&#160;&#160;&#160;&#160;&#160;&#160;&#160;&#160;&#160;&#160;&#160;&#160;&#160;&#160;&#160;&#160;&#160;&#160;&#160;&#160;&#160;&#160;&#160;&#160;&#160;&#160;&#160;&#160;&#160;IsDeleted &#160;&#160;&#160;&#160;&#160;&#160;&#160;&#160;&#160;&#160;&#160;&#160;&#160;&#160;&#160;&#160;&#160;&#160;&#160;&#160;&#160;&#160;&#160;&#160;&#160;&#160;&#160;&#160;&#160;&#160;&#160;&#160;&#160;&#160;&#160;&#160;&#160;&#160;</text>
<polygon fill="none" stroke="#99ccff" points="1119.5547,-222 1119.5547,-239 1210.5547,-239 1210.5547,-222 1119.5547,-222"/>
<text text-anchor="start" x="1141.9509" y="-227.2" font-family="Courier,monospace" font-size="11.00" fill="#000000">boolean</text>
<polygon fill="none" stroke="#99ccff" points="387.5547,-205 387.5547,-222 1119.5547,-222 1119.5547,-205 387.5547,-205"/>
<text text-anchor="start" x="390.5547" y="-210.2" font-family="Courier,monospace" font-size="11.00" fill="#000000"> &#160;&#160;&#160;&#160;&#160;&#160;&#160;&#160;&#160;&#160;&#160;&#160;&#160;&#160;&#160;&#160;&#160;&#160;&#160;&#160;&#160;&#160;&#160;&#160;&#160;&#160;&#160;&#160;&#160;&#160;&#160;&#160;&#160;&#160;&#160;&#160;&#160;&#160;&#160;&#160;Name &#160;&#160;&#160;&#160;&#160;&#160;&#160;&#160;&#160;&#160;&#160;&#160;&#160;&#160;&#160;&#160;&#160;&#160;&#160;&#160;&#160;&#160;&#160;&#160;&#160;&#160;&#160;&#160;&#160;&#160;&#160;&#160;&#160;&#160;&#160;&#160;&#160;&#160;</text>
<polygon fill="none" stroke="#99ccff" points="1119.5547,-205 1119.5547,-222 1210.5547,-222 1210.5547,-205 1119.5547,-205"/>
<text text-anchor="start" x="1132.0493" y="-210.2" font-family="Courier,monospace" font-size="11.00" fill="#000000">string(80)</text>
<polygon fill="none" stroke="#99ccff" points="387.5547,-188 387.5547,-205 1119.5547,-205 1119.5547,-188 387.5547,-188"/>
<text text-anchor="start" x="390.5547" y="-193.2" font-family="Courier,monospace" font-size="11.00" fill="#000000"> &#160;&#160;&#160;&#160;&#160;&#160;&#160;&#160;&#160;&#160;&#160;&#160;&#160;&#160;&#160;&#160;&#160;&#160;&#160;&#160;&#160;&#160;&#160;&#160;&#160;&#160;&#160;&#160;&#160;&#160;&#160;&#160;&#160;&#160;&#160;&#160;&#160;&#160;&#160;&#160;LastModifiedById &#160;&#160;&#160;&#160;&#160;&#160;&#160;&#160;&#160;&#160;&#160;&#160;&#160;&#160;&#160;&#160;&#160;&#160;&#160;&#160;&#160;&#160;&#160;&#160;&#160;&#160;&#160;&#160;&#160;&#160;&#160;&#160;&#160;&#160;&#160;&#160;&#160;&#160;</text>
<polygon fill="none" stroke="#99ccff" points="1119.5547,-188 1119.5547,-205 1210.5547,-205 1210.5547,-188 1119.5547,-188"/>
<text text-anchor="start" x="1122.1477" y="-193.2" font-family="Courier,monospace" font-size="11.00" fill="#000000">reference(18)</text>
<polygon fill="none" stroke="#99ccff" points="387.5547,-171 387.5547,-188 1119.5547,-188 1119.5547,-171 387.5547,-171"/>
<text text-anchor="start" x="390.5547" y="-176.2" font-family="Courier,monospace" font-size="11.00" fill="#000000"> &#160;&#160;&#160;&#160;&#160;&#160;&#160;&#160;&#160;&#160;&#160;&#160;&#160;&#160;&#160;&#160;&#160;&#160;&#160;&#160;&#160;&#160;&#160;&#160;&#160;&#160;&#160;&#160;&#160;&#160;&#160;&#160;&#160;&#160;&#160;&#160;&#160;&#160;&#160;&#160;LastViewedDate &#160;&#160;&#160;&#160;&#160;&#160;&#160;&#160;&#160;&#160;&#160;&#160;&#160;&#160;&#160;&#160;&#160;&#160;&#160;&#160;&#160;&#160;&#160;&#160;&#160;&#160;&#160;&#160;&#160;&#160;&#160;&#160;&#160;&#160;&#160;&#160;&#160;&#160;</text>
<polygon fill="none" stroke="#99ccff" points="1119.5547,-171 1119.5547,-188 1210.5547,-188 1210.5547,-171 1119.5547,-171"/>
<text text-anchor="start" x="1138.6504" y="-176.2" font-family="Courier,monospace" font-size="11.00" fill="#000000">datetime</text>
<polygon fill="none" stroke="#99ccff" points="387.5547,-154 387.5547,-171 1119.5547,-171 1119.5547,-154 387.5547,-154"/>
<text text-anchor="start" x="390.5547" y="-159.2" font-family="Courier,monospace" font-size="11.00" fill="#000000"> &#160;&#160;&#160;&#160;&#160;&#160;&#160;&#160;&#160;&#160;&#160;&#160;&#160;&#160;&#160;&#160;&#160;&#160;&#160;&#160;&#160;&#160;&#160;&#160;&#160;&#160;&#160;&#160;&#160;&#160;&#160;&#160;&#160;&#160;&#160;&#160;&#160;&#160;&#160;&#160;LastReferencedDate &#160;&#160;&#160;&#160;&#160;&#160;&#160;&#160;&#160;&#160;&#160;&#160;&#160;&#160;&#160;&#160;&#160;&#160;&#160;&#160;&#160;&#160;&#160;&#160;&#160;&#160;&#160;&#160;&#160;&#160;&#160;&#160;&#160;&#160;&#160;&#160;&#160;&#160;</text>
<polygon fill="none" stroke="#99ccff" points="1119.5547,-154 1119.5547,-171 1210.5547,-171 1210.5547,-154 1119.5547,-154"/>
<text text-anchor="start" x="1138.6504" y="-159.2" font-family="Courier,monospace" font-size="11.00" fill="#000000">datetime</text>
<polygon fill="none" stroke="#99ccff" points="387.5547,-137 387.5547,-154 1119.5547,-154 1119.5547,-137 387.5547,-137"/>
<text text-anchor="start" x="390.5547" y="-142.2" font-family="Courier,monospace" font-size="11.00" fill="#000000"> &#160;&#160;&#160;&#160;&#160;&#160;&#160;&#160;&#160;&#160;&#160;&#160;&#160;&#160;&#160;&#160;&#160;&#160;&#160;&#160;&#160;&#160;&#160;&#160;&#160;&#160;&#160;&#160;&#160;&#160;&#160;&#160;&#160;&#160;&#160;&#160;&#160;&#160;&#160;&#160;FinServ__Account__c &#160;&#160;&#160;&#160;&#160;&#160;&#160;&#160;&#160;&#160;&#160;&#160;&#160;&#160;&#160;&#160;&#160;&#160;&#160;&#160;&#160;&#160;&#160;&#160;&#160;&#160;&#160;&#160;&#160;&#160;&#160;&#160;&#160;&#160;&#160;&#160;&#160;&#160;</text>
<polygon fill="none" stroke="#99ccff" points="1119.5547,-137 1119.5547,-154 1210.5547,-154 1210.5547,-137 1119.5547,-137"/>
<text text-anchor="start" x="1122.1477" y="-142.2" font-family="Courier,monospace" font-size="11.00" fill="#000000">reference(18)</text>
<polygon fill="none" stroke="#99ccff" points="387.5547,-120 387.5547,-137 1119.5547,-137 1119.5547,-120 387.5547,-120"/>
<text text-anchor="start" x="390.5547" y="-125.2" font-family="Courier,monospace" font-size="11.00" fill="#000000"> &#160;&#160;&#160;&#160;&#160;&#160;&#160;&#160;&#160;&#160;&#160;&#160;&#160;&#160;&#160;&#160;&#160;&#160;&#160;&#160;&#160;&#160;&#160;&#160;&#160;&#160;&#160;&#160;&#160;&#160;&#160;&#160;&#160;&#160;&#160;&#160;&#160;&#160;&#160;&#160;FinServ__Active__c &#160;&#160;&#160;&#160;&#160;&#160;&#160;&#160;&#160;&#160;&#160;&#160;&#160;&#160;&#160;&#160;&#160;&#160;&#160;&#160;&#160;&#160;&#160;&#160;&#160;&#160;&#160;&#160;&#160;&#160;&#160;&#160;&#160;&#160;&#160;&#160;&#160;&#160;</text>
<polygon fill="none" stroke="#99ccff" points="1119.5547,-120 1119.5547,-137 1210.5547,-137 1210.5547,-120 1119.5547,-120"/>
<text text-anchor="start" x="1141.9509" y="-125.2" font-family="Courier,monospace" font-size="11.00" fill="#000000">boolean</text>
<polygon fill="none" stroke="#99ccff" points="387.5547,-103 387.5547,-120 1119.5547,-120 1119.5547,-103 387.5547,-103"/>
<text text-anchor="start" x="390.5547" y="-108.2" font-family="Courier,monospace" font-size="11.00" fill="#000000"> &#160;&#160;&#160;&#160;&#160;&#160;&#160;&#160;&#160;&#160;&#160;&#160;&#160;&#160;&#160;&#160;&#160;&#160;&#160;&#160;&#160;&#160;&#160;&#160;&#160;&#160;&#160;&#160;&#160;&#160;&#160;&#160;&#160;&#160;&#160;&#160;&#160;&#160;&#160;&#160;FinServ__FinancialAccount__c &#160;&#160;&#160;&#160;&#160;&#160;&#160;&#160;&#160;&#160;&#160;&#160;&#160;&#160;&#160;&#160;&#160;&#160;&#160;&#160;&#160;&#160;&#160;&#160;&#160;&#160;&#160;&#160;&#160;&#160;&#160;&#160;&#160;&#160;&#160;&#160;&#160;&#160;</text>
<polygon fill="none" stroke="#99ccff" points="1119.5547,-103 1119.5547,-120 1210.5547,-120 1210.5547,-103 1119.5547,-103"/>
<text text-anchor="start" x="1122.1477" y="-108.2" font-family="Courier,monospace" font-size="11.00" fill="#000000">reference(18)</text>
<polygon fill="none" stroke="#99ccff" points="387.5547,-86 387.5547,-103 1119.5547,-103 1119.5547,-86 387.5547,-86"/>
<text text-anchor="start" x="390.4956" y="-91.2" font-family="Courier,monospace" font-size="11.00" fill="#000000"> &#160;&#160;&#160;&#160;&#160;&#160;&#160;&#160;&#160;&#160;&#160;&#160;&#160;&#160;&#160;&#160;&#160;&#160;&#160;&#160;&#160;&#160;&#160;&#160;&#160;&#160;&#160;&#160;&#160;&#160;&#160;&#160;&#160;&#160;&#160;&#160;&#160;&#160;&#160;&#160;FinServ__MessageDescription__c &#160;&#160;&#160;&#160;&#160;&#160;&#160;&#160;&#160;&#160;&#160;&#160;&#160;&#160;&#160;&#160;&#160;&#160;&#160;&#160;&#160;&#160;&#160;&#160;&#160;&#160;&#160;&#160;&#160;&#160;&#160;&#160;&#160;&#160;&#160;&#160;&#160;&#160;</text>
<polygon fill="none" stroke="#99ccff" points="1119.5547,-86 1119.5547,-103 1210.5547,-103 1210.5547,-86 1119.5547,-86"/>
<text text-anchor="start" x="1128.7488" y="-91.2" font-family="Courier,monospace" font-size="11.00" fill="#000000">string(255)</text>
<polygon fill="none" stroke="#99ccff" points="387.5547,-69 387.5547,-86 1119.5547,-86 1119.5547,-69 387.5547,-69"/>
<text text-anchor="start" x="390.5547" y="-74.2" font-family="Courier,monospace" font-size="11.00" fill="#000000"> &#160;&#160;&#160;&#160;&#160;&#160;&#160;&#160;&#160;&#160;&#160;&#160;&#160;&#160;&#160;&#160;&#160;&#160;&#160;&#160;&#160;&#160;&#160;&#160;&#160;&#160;&#160;&#160;&#160;&#160;&#160;&#160;&#160;&#160;&#160;&#160;&#160;&#160;&#160;&#160;FinServ__Message__c &#160;&#160;&#160;&#160;&#160;&#160;&#160;&#160;&#160;&#160;&#160;&#160;&#160;&#160;&#160;&#160;&#160;&#160;&#160;&#160;&#160;&#160;&#160;&#160;&#160;&#160;&#160;&#160;&#160;&#160;&#160;&#160;&#160;&#160;&#160;&#160;&#160;&#160;</text>
<polygon fill="none" stroke="#99ccff" points="1119.5547,-69 1119.5547,-86 1210.5547,-86 1210.5547,-69 1119.5547,-69"/>
<text text-anchor="start" x="1128.7488" y="-74.2" font-family="Courier,monospace" font-size="11.00" fill="#000000">string(255)</text>
<polygon fill="none" stroke="#99ccff" points="387.5547,-52 387.5547,-69 1119.5547,-69 1119.5547,-52 387.5547,-52"/>
<text text-anchor="start" x="390.5547" y="-57.2" font-family="Courier,monospace" font-size="11.00" fill="#000000"> &#160;&#160;&#160;&#160;&#160;&#160;&#160;&#160;&#160;&#160;&#160;&#160;&#160;&#160;&#160;&#160;&#160;&#160;&#160;&#160;&#160;&#160;&#160;&#160;&#160;&#160;&#160;&#160;&#160;&#160;&#160;&#160;&#160;&#160;&#160;&#160;&#160;&#160;&#160;&#160;FinServ__Priority__c &#160;&#160;&#160;&#160;&#160;&#160;&#160;&#160;&#160;&#160;&#160;&#160;&#160;&#160;&#160;&#160;&#160;&#160;&#160;&#160;&#160;&#160;&#160;&#160;&#160;&#160;&#160;&#160;&#160;&#160;&#160;&#160;&#160;&#160;&#160;&#160;&#160;&#160;</text>
<polygon fill="none" stroke="#99ccff" points="1119.5547,-52 1119.5547,-69 1210.5547,-69 1210.5547,-52 1119.5547,-52"/>
<text text-anchor="start" x="1122.1477" y="-57.2" font-family="Courier,monospace" font-size="11.00" fill="#000000">picklist(255)</text>
<polygon fill="none" stroke="#99ccff" points="387.5547,-35 387.5547,-52 1119.5547,-52 1119.5547,-35 387.5547,-35"/>
<text text-anchor="start" x="390.5547" y="-40.2" font-family="Courier,monospace" font-size="11.00" fill="#000000"> &#160;&#160;&#160;&#160;&#160;&#160;&#160;&#160;&#160;&#160;&#160;&#160;&#160;&#160;&#160;&#160;&#160;&#160;&#160;&#160;&#160;&#160;&#160;&#160;&#160;&#160;&#160;&#160;&#160;&#160;&#160;&#160;&#160;&#160;&#160;&#160;&#160;&#160;&#160;&#160;FinServ__Severity__c &#160;&#160;&#160;&#160;&#160;&#160;&#160;&#160;&#160;&#160;&#160;&#160;&#160;&#160;&#160;&#160;&#160;&#160;&#160;&#160;&#160;&#160;&#160;&#160;&#160;&#160;&#160;&#160;&#160;&#160;&#160;&#160;&#160;&#160;&#160;&#160;&#160;&#160;</text>
<polygon fill="none" stroke="#99ccff" points="1119.5547,-35 1119.5547,-52 1210.5547,-52 1210.5547,-35 1119.5547,-35"/>
<text text-anchor="start" x="1122.1477" y="-40.2" font-family="Courier,monospace" font-size="11.00" fill="#000000">picklist(255)</text>
<polygon fill="none" stroke="#99ccff" points="387.5547,-18 387.5547,-35 1119.5547,-35 1119.5547,-18 387.5547,-18"/>
<text text-anchor="start" x="390.5547" y="-23.2" font-family="Courier,monospace" font-size="11.00" fill="#000000"> &#160;&#160;&#160;&#160;&#160;&#160;&#160;&#160;&#160;&#160;&#160;&#160;&#160;&#160;&#160;&#160;&#160;&#160;&#160;&#160;&#160;&#160;&#160;&#160;&#160;&#160;&#160;&#160;&#160;&#160;&#160;&#160;&#160;&#160;&#160;&#160;&#160;&#160;&#160;&#160;FinServ__SourceSystemId__c &#160;&#160;&#160;&#160;&#160;&#160;&#160;&#160;&#160;&#160;&#160;&#160;&#160;&#160;&#160;&#160;&#160;&#160;&#160;&#160;&#160;&#160;&#160;&#160;&#160;&#160;&#160;&#160;&#160;&#160;&#160;&#160;&#160;&#160;&#160;&#160;&#160;&#160;</text>
<polygon fill="none" stroke="#99ccff" points="1119.5547,-18 1119.5547,-35 1210.5547,-35 1210.5547,-18 1119.5547,-18"/>
<text text-anchor="start" x="1128.7488" y="-23.2" font-family="Courier,monospace" font-size="11.00" fill="#000000">string(100)</text>
<polygon fill="none" stroke="#99ccff" points="386.0547,-17 386.0547,-291 1211.0547,-291 1211.0547,-17 386.0547,-17"/>
</a>
</g>
</g>
<!-- Group -->
<g id="node2" class="node">
<title>Group</title>
<text text-anchor="middle" x="100.415" y="-253.7" font-family="Courier,monospace" font-size="11.00" fill="#000000">Group</text>
</g>
<!-- FinServ__Alert__c&#45;&gt;Group -->
<g id="edge1" class="edge">
<title>FinServ__Alert__c:w&#45;&gt;Group:e</title>
<path fill="none" stroke="#ff99cc" d="M372.8771,-248.038C280.698,-248.505 176.1591,-253.165 127.724,-255.5739"/>
<polygon fill="#ff99cc" stroke="#ff99cc" points="379.5547,-248.0208 387.564,-251.6 383.5547,-248.0104 387.5547,-248 387.5547,-248 387.5547,-248 383.5547,-248.0104 387.5453,-244.4 379.5547,-248.0208 379.5547,-248.0208"/>
<ellipse fill="none" stroke="#ff99cc" cx="376.3547" cy="-248.0291" rx="3.2" ry="3.2"/>
<text text-anchor="middle" x="293.4424" y="-255.8015" font-family="Monaco" font-size="9.00" fill="#000000">Owner</text>
</g>
<!-- User -->
<g id="node3" class="node">
<title>User</title>
<text text-anchor="middle" x="100.415" y="-201.7" font-family="Courier,monospace" font-size="11.00" fill="#000000">User</text>
</g>
<!-- FinServ__Alert__c&#45;&gt;User -->
<g id="edge2" class="edge">
<title>FinServ__Alert__c:w&#45;&gt;User:e</title>
<path fill="none" stroke="#ff99cc" d="M376.842,-238.0335C375.2976,-234.5767 373.3789,-231.0551 369.0547,-228.9985 347.5946,-218.7923 191.2484,-209.6822 127.4311,-206.3476"/>
<polygon fill="#ff99cc" stroke="#ff99cc" points="381.6975,-242.5508 385.1026,-250.6357 384.6261,-245.2754 387.5547,-248 387.5547,-248 387.5547,-248 384.6261,-245.2754 390.0068,-245.3643 381.6975,-242.5508 381.6975,-242.5508"/>
<ellipse fill="none" stroke="#ff99cc" cx="379.3546" cy="-240.3712" rx="3.2" ry="3.2"/>
<text text-anchor="middle" x="293.4424" y="-232.8015" font-family="Monaco" font-size="9.00" fill="#000000">Owner</text>
</g>
<!-- FinServ__Alert__c&#45;&gt;User -->
<g id="edge3" class="edge">
<title>FinServ__Alert__c:w&#45;&gt;User:e</title>
<path fill="none" stroke="#ff99cc" d="M372.8414,-196.9665C309.2733,-196.673 288.066,-194.6081 217.8301,-196.9985 186.7917,-198.0549 151.218,-200.6777 127.4369,-202.6343"/>
<polygon fill="#ff99cc" stroke="#ff99cc" points="379.5547,-196.9817 387.5465,-200.6 383.5547,-196.9909 387.5547,-197 387.5547,-197 387.5547,-197 383.5547,-196.9909 387.5629,-193.4 379.5547,-196.9817 379.5547,-196.9817"/>
<ellipse fill="none" stroke="#ff99cc" cx="376.3547" cy="-196.9744" rx="3.2" ry="3.2"/>
<text text-anchor="middle" x="293.4424" y="-200.8015" font-family="Monaco" font-size="9.00" fill="#000000">LastModifiedBy</text>
</g>
<!-- Account -->
<g id="node4" class="node">
<title>Account</title>
<text text-anchor="middle" x="100.415" y="-145.7" font-family="Courier,monospace" font-size="11.00" fill="#000000">Account</text>
</g>
<!-- FinServ__Alert__c&#45;&gt;Account -->
<g id="edge4" class="edge">
<title>FinServ__Alert__c:w&#45;&gt;Account:e</title>
<path fill="none" stroke="#ff99cc" d="M372.9916,-145.0166C283.3508,-145.2172 181.9403,-147.1826 131.8548,-148.2756"/>
<polygon fill="#ff99cc" stroke="#ff99cc" points="379.5547,-145.0092 387.5588,-148.6 383.5547,-145.0046 387.5547,-145 387.5547,-145 387.5547,-145 383.5547,-145.0046 387.5506,-141.4 379.5547,-145.0092 379.5547,-145.0092"/>
<ellipse fill="none" stroke="#ff99cc" cx="376.3547" cy="-145.0129" rx="3.2" ry="3.2"/>
<text text-anchor="middle" x="293.4424" y="-150.8015" font-family="Monaco" font-size="9.00" fill="#000000">FinServ__Account__r</text>
</g>
<!-- FinServ__FinancialAccount__c -->
<g id="node5" class="node">
<title>FinServ__FinancialAccount__c</title>
<text text-anchor="middle" x="100.415" y="-96.7" font-family="Courier,monospace" font-size="11.00" fill="#000000">FinServ__FinancialAccount__c</text>
</g>
<!-- FinServ__Alert__c&#45;&gt;FinServ__FinancialAccount__c -->
<g id="edge5" class="edge">
<title>FinServ__Alert__c:w&#45;&gt;FinServ__FinancialAccount__c:e</title>
<path fill="none" stroke="#ff99cc" d="M372.9006,-110.9538C314.8051,-110.5947 251.8109,-108.2004 201.0398,-105.7416"/>
<polygon fill="#ff99cc" stroke="#ff99cc" points="379.5547,-110.9747 387.5433,-114.6 383.5547,-110.9873 387.5547,-111 387.5547,-111 387.5547,-111 383.5547,-110.9873 387.5661,-107.4 379.5547,-110.9747 379.5547,-110.9747"/>
<ellipse fill="none" stroke="#ff99cc" cx="376.3547" cy="-110.9646" rx="3.2" ry="3.2"/>
<text text-anchor="middle" x="293.4424" y="-114.8015" font-family="Monaco" font-size="9.00" fill="#000000">FinServ__FinancialAccount__r</text>
</g>
</g>
</svg>
