<?xml version="1.0" encoding="UTF-8" standalone="no"?>
<!DOCTYPE svg PUBLIC "-//W3C//DTD SVG 1.1//EN"
 "http://www.w3.org/Graphics/SVG/1.1/DTD/svg11.dtd">
<!-- Generated by graphviz version 2.40.1 (20161225.0304)
 -->
<!-- Title: Salesforce+ ERD Pages: 1 -->
<svg width="1201pt" height="330pt"
 viewBox="0.00 0.00 1201.05 330.00" xmlns="http://www.w3.org/2000/svg" xmlns:xlink="http://www.w3.org/1999/xlink">
<g id="graph0" class="graph" transform="scale(1 1) rotate(0) translate(4 326)">
<title>Salesforce+ ERD</title>
<polygon fill="#efeffd" stroke="transparent" points="-4,4 -4,-326 1197.0508,-326 1197.0508,4 -4,4"/>
<text text-anchor="middle" x="1144.5442" y="-5.8" font-family="Courier,monospace" font-size="9.00" fill="#000000">Salesforce ERD </text>
<!-- FinServ__AccountAccountRelation__c -->
<g id="node1" class="node">
<title>FinServ__AccountAccountRelation__c</title>
<g id="a_node1"><a xlink:href="#" xlink:title=" FinServ__AccountAccountRelation__c ">
<polygon fill="#ffeeff" stroke="transparent" points="362.0508,-17 362.0508,-291 1193.0508,-291 1193.0508,-17 362.0508,-17"/>
<polygon fill="#add8e6" stroke="transparent" points="363.5508,-273 363.5508,-290 1192.5508,-290 1192.5508,-273 363.5508,-273"/>
<polygon fill="none" stroke="#99ccff" points="363.5508,-273 363.5508,-290 1192.5508,-290 1192.5508,-273 363.5508,-273"/>
<text text-anchor="start" x="665.8325" y="-279.2" font-family="Courier,monospace" font-weight="bold" font-size="11.00" fill="#000000">FinServ__AccountAccountRelation__c</text>
<polygon fill="#99ccff" stroke="transparent" points="363.5508,-256 363.5508,-273 1101.5508,-273 1101.5508,-256 363.5508,-256"/>
<polygon fill="none" stroke="#99ccff" points="363.5508,-256 363.5508,-273 1101.5508,-273 1101.5508,-256 363.5508,-256"/>
<text text-anchor="start" x="366.5508" y="-262.2" font-family="Courier,monospace" font-size="11.00" fill="#000000"> &#160;&#160;&#160;&#160;&#160;&#160;&#160;&#160;&#160;&#160;&#160;&#160;&#160;&#160;&#160;&#160;&#160;&#160;&#160;&#160;&#160;&#160;&#160;&#160;&#160;&#160;&#160;&#160;&#160;&#160;&#160;&#160;&#160;&#160;&#160;&#160;&#160;&#160;&#160;&#160;&#160;&#160;</text>
<text text-anchor="start" x="650.397" y="-262.2" font-family="Courier,monospace" font-weight="bold" font-size="11.00" fill="#000000">Id</text>
<text text-anchor="start" x="663.5991" y="-262.2" font-family="Courier,monospace" font-size="11.00" fill="#000000"> &#160;&#160;&#160;&#160;&#160;&#160;&#160;&#160;&#160;&#160;&#160;&#160;&#160;&#160;&#160;&#160;&#160;&#160;&#160;&#160;&#160;&#160;&#160;&#160;&#160;&#160;&#160;&#160;&#160;&#160;&#160;&#160;&#160;&#160;&#160;&#160;&#160;&#160;&#160;</text>
<polygon fill="none" stroke="#99ccff" points="1101.5508,-256 1101.5508,-273 1192.5508,-273 1192.5508,-256 1101.5508,-256"/>
<text text-anchor="start" x="1127.2476" y="-261.2" font-family="Courier,monospace" font-size="11.00" fill="#000000">id(18)</text>
<polygon fill="none" stroke="#99ccff" points="363.5508,-239 363.5508,-256 1101.5508,-256 1101.5508,-239 363.5508,-239"/>
<text text-anchor="start" x="366.5508" y="-244.2" font-family="Courier,monospace" font-size="11.00" fill="#000000"> &#160;&#160;&#160;&#160;&#160;&#160;&#160;&#160;&#160;&#160;&#160;&#160;&#160;&#160;&#160;&#160;&#160;&#160;&#160;&#160;&#160;&#160;&#160;&#160;&#160;&#160;&#160;&#160;&#160;&#160;&#160;&#160;&#160;&#160;&#160;&#160;&#160;&#160;&#160;&#160;OwnerId &#160;&#160;&#160;&#160;&#160;&#160;&#160;&#160;&#160;&#160;&#160;&#160;&#160;&#160;&#160;&#160;&#160;&#160;&#160;&#160;&#160;&#160;&#160;&#160;&#160;&#160;&#160;&#160;&#160;&#160;&#160;&#160;&#160;&#160;&#160;&#160;&#160;&#160;</text>
<polygon fill="none" stroke="#99ccff" points="1101.5508,-239 1101.5508,-256 1192.5508,-256 1192.5508,-239 1101.5508,-239"/>
<text text-anchor="start" x="1104.1438" y="-244.2" font-family="Courier,monospace" font-size="11.00" fill="#000000">reference(18)</text>
<polygon fill="none" stroke="#99ccff" points="363.5508,-222 363.5508,-239 1101.5508,-239 1101.5508,-222 363.5508,-222"/>
<text text-anchor="start" x="366.5508" y="-227.2" font-family="Courier,monospace" font-size="11.00" fill="#000000"> &#160;&#160;&#160;&#160;&#160;&#160;&#160;&#160;&#160;&#160;&#160;&#160;&#160;&#160;&#160;&#160;&#160;&#160;&#160;&#160;&#160;&#160;&#160;&#160;&#160;&#160;&#160;&#160;&#160;&#160;&#160;&#160;&#160;&#160;&#160;&#160;&#160;&#160;&#160;&#160;IsDeleted &#160;&#160;&#160;&#160;&#160;&#160;&#160;&#160;&#160;&#160;&#160;&#160;&#160;&#160;&#160;&#160;&#160;&#160;&#160;&#160;&#160;&#160;&#160;&#160;&#160;&#160;&#160;&#160;&#160;&#160;&#160;&#160;&#160;&#160;&#160;&#160;&#160;&#160;</text>
<polygon fill="none" stroke="#99ccff" points="1101.5508,-222 1101.5508,-239 1192.5508,-239 1192.5508,-222 1101.5508,-222"/>
<text text-anchor="start" x="1123.947" y="-227.2" font-family="Courier,monospace" font-size="11.00" fill="#000000">boolean</text>
<polygon fill="none" stroke="#99ccff" points="363.5508,-205 363.5508,-222 1101.5508,-222 1101.5508,-205 363.5508,-205"/>
<text text-anchor="start" x="366.5508" y="-210.2" font-family="Courier,monospace" font-size="11.00" fill="#000000"> &#160;&#160;&#160;&#160;&#160;&#160;&#160;&#160;&#160;&#160;&#160;&#160;&#160;&#160;&#160;&#160;&#160;&#160;&#160;&#160;&#160;&#160;&#160;&#160;&#160;&#160;&#160;&#160;&#160;&#160;&#160;&#160;&#160;&#160;&#160;&#160;&#160;&#160;&#160;&#160;Name &#160;&#160;&#160;&#160;&#160;&#160;&#160;&#160;&#160;&#160;&#160;&#160;&#160;&#160;&#160;&#160;&#160;&#160;&#160;&#160;&#160;&#160;&#160;&#160;&#160;&#160;&#160;&#160;&#160;&#160;&#160;&#160;&#160;&#160;&#160;&#160;&#160;&#160;</text>
<polygon fill="none" stroke="#99ccff" points="1101.5508,-205 1101.5508,-222 1192.5508,-222 1192.5508,-205 1101.5508,-205"/>
<text text-anchor="start" x="1114.0454" y="-210.2" font-family="Courier,monospace" font-size="11.00" fill="#000000">string(80)</text>
<polygon fill="none" stroke="#99ccff" points="363.5508,-188 363.5508,-205 1101.5508,-205 1101.5508,-188 363.5508,-188"/>
<text text-anchor="start" x="366.5508" y="-193.2" font-family="Courier,monospace" font-size="11.00" fill="#000000"> &#160;&#160;&#160;&#160;&#160;&#160;&#160;&#160;&#160;&#160;&#160;&#160;&#160;&#160;&#160;&#160;&#160;&#160;&#160;&#160;&#160;&#160;&#160;&#160;&#160;&#160;&#160;&#160;&#160;&#160;&#160;&#160;&#160;&#160;&#160;&#160;&#160;&#160;&#160;&#160;LastModifiedById &#160;&#160;&#160;&#160;&#160;&#160;&#160;&#160;&#160;&#160;&#160;&#160;&#160;&#160;&#160;&#160;&#160;&#160;&#160;&#160;&#160;&#160;&#160;&#160;&#160;&#160;&#160;&#160;&#160;&#160;&#160;&#160;&#160;&#160;&#160;&#160;&#160;&#160;</text>
<polygon fill="none" stroke="#99ccff" points="1101.5508,-188 1101.5508,-205 1192.5508,-205 1192.5508,-188 1101.5508,-188"/>
<text text-anchor="start" x="1104.1438" y="-193.2" font-family="Courier,monospace" font-size="11.00" fill="#000000">reference(18)</text>
<polygon fill="none" stroke="#99ccff" points="363.5508,-171 363.5508,-188 1101.5508,-188 1101.5508,-171 363.5508,-171"/>
<text text-anchor="start" x="366.5508" y="-176.2" font-family="Courier,monospace" font-size="11.00" fill="#000000"> &#160;&#160;&#160;&#160;&#160;&#160;&#160;&#160;&#160;&#160;&#160;&#160;&#160;&#160;&#160;&#160;&#160;&#160;&#160;&#160;&#160;&#160;&#160;&#160;&#160;&#160;&#160;&#160;&#160;&#160;&#160;&#160;&#160;&#160;&#160;&#160;&#160;&#160;&#160;&#160;FinServ__Account__c &#160;&#160;&#160;&#160;&#160;&#160;&#160;&#160;&#160;&#160;&#160;&#160;&#160;&#160;&#160;&#160;&#160;&#160;&#160;&#160;&#160;&#160;&#160;&#160;&#160;&#160;&#160;&#160;&#160;&#160;&#160;&#160;&#160;&#160;&#160;&#160;&#160;&#160;</text>
<polygon fill="none" stroke="#99ccff" points="1101.5508,-171 1101.5508,-188 1192.5508,-188 1192.5508,-171 1101.5508,-171"/>
<text text-anchor="start" x="1104.1438" y="-176.2" font-family="Courier,monospace" font-size="11.00" fill="#000000">reference(18)</text>
<polygon fill="none" stroke="#99ccff" points="363.5508,-154 363.5508,-171 1101.5508,-171 1101.5508,-154 363.5508,-154"/>
<text text-anchor="start" x="366.5508" y="-159.2" font-family="Courier,monospace" font-size="11.00" fill="#000000"> &#160;&#160;&#160;&#160;&#160;&#160;&#160;&#160;&#160;&#160;&#160;&#160;&#160;&#160;&#160;&#160;&#160;&#160;&#160;&#160;&#160;&#160;&#160;&#160;&#160;&#160;&#160;&#160;&#160;&#160;&#160;&#160;&#160;&#160;&#160;&#160;&#160;&#160;&#160;&#160;FinServ__Active__c &#160;&#160;&#160;&#160;&#160;&#160;&#160;&#160;&#160;&#160;&#160;&#160;&#160;&#160;&#160;&#160;&#160;&#160;&#160;&#160;&#160;&#160;&#160;&#160;&#160;&#160;&#160;&#160;&#160;&#160;&#160;&#160;&#160;&#160;&#160;&#160;&#160;&#160;</text>
<polygon fill="none" stroke="#99ccff" points="1101.5508,-154 1101.5508,-171 1192.5508,-171 1192.5508,-154 1101.5508,-154"/>
<text text-anchor="start" x="1123.947" y="-159.2" font-family="Courier,monospace" font-size="11.00" fill="#000000">boolean</text>
<polygon fill="none" stroke="#99ccff" points="363.5508,-137 363.5508,-154 1101.5508,-154 1101.5508,-137 363.5508,-137"/>
<text text-anchor="start" x="366.5508" y="-142.2" font-family="Courier,monospace" font-size="11.00" fill="#000000"> &#160;&#160;&#160;&#160;&#160;&#160;&#160;&#160;&#160;&#160;&#160;&#160;&#160;&#160;&#160;&#160;&#160;&#160;&#160;&#160;&#160;&#160;&#160;&#160;&#160;&#160;&#160;&#160;&#160;&#160;&#160;&#160;&#160;&#160;&#160;&#160;&#160;&#160;&#160;&#160;FinServ__EndDate__c &#160;&#160;&#160;&#160;&#160;&#160;&#160;&#160;&#160;&#160;&#160;&#160;&#160;&#160;&#160;&#160;&#160;&#160;&#160;&#160;&#160;&#160;&#160;&#160;&#160;&#160;&#160;&#160;&#160;&#160;&#160;&#160;&#160;&#160;&#160;&#160;&#160;&#160;</text>
<polygon fill="none" stroke="#99ccff" points="1101.5508,-137 1101.5508,-154 1192.5508,-154 1192.5508,-137 1101.5508,-137"/>
<text text-anchor="start" x="1133.8486" y="-142.2" font-family="Courier,monospace" font-size="11.00" fill="#000000">date</text>
<polygon fill="none" stroke="#99ccff" points="363.5508,-120 363.5508,-137 1101.5508,-137 1101.5508,-120 363.5508,-120"/>
<text text-anchor="start" x="366.5508" y="-125.2" font-family="Courier,monospace" font-size="11.00" fill="#000000"> &#160;&#160;&#160;&#160;&#160;&#160;&#160;&#160;&#160;&#160;&#160;&#160;&#160;&#160;&#160;&#160;&#160;&#160;&#160;&#160;&#160;&#160;&#160;&#160;&#160;&#160;&#160;&#160;&#160;&#160;&#160;&#160;&#160;&#160;&#160;&#160;&#160;&#160;&#160;&#160;FinServ__ExternalId__c &#160;&#160;&#160;&#160;&#160;&#160;&#160;&#160;&#160;&#160;&#160;&#160;&#160;&#160;&#160;&#160;&#160;&#160;&#160;&#160;&#160;&#160;&#160;&#160;&#160;&#160;&#160;&#160;&#160;&#160;&#160;&#160;&#160;&#160;&#160;&#160;&#160;&#160;</text>
<polygon fill="none" stroke="#99ccff" points="1101.5508,-120 1101.5508,-137 1192.5508,-137 1192.5508,-120 1101.5508,-120"/>
<text text-anchor="start" x="1114.0454" y="-125.2" font-family="Courier,monospace" font-size="11.00" fill="#000000">string(64)</text>
<polygon fill="none" stroke="#99ccff" points="363.5508,-103 363.5508,-120 1101.5508,-120 1101.5508,-103 363.5508,-103"/>
<text text-anchor="start" x="366.1912" y="-108.2" font-family="Courier,monospace" font-size="11.00" fill="#000000"> &#160;&#160;&#160;&#160;&#160;&#160;&#160;&#160;&#160;&#160;&#160;&#160;&#160;&#160;&#160;&#160;&#160;&#160;&#160;&#160;&#160;&#160;&#160;&#160;&#160;&#160;&#160;&#160;&#160;&#160;&#160;&#160;&#160;&#160;&#160;&#160;&#160;&#160;&#160;&#160;FinServ__InverseRelationship__c &#160;&#160;&#160;&#160;&#160;&#160;&#160;&#160;&#160;&#160;&#160;&#160;&#160;&#160;&#160;&#160;&#160;&#160;&#160;&#160;&#160;&#160;&#160;&#160;&#160;&#160;&#160;&#160;&#160;&#160;&#160;&#160;&#160;&#160;&#160;&#160;&#160;&#160;</text>
<polygon fill="none" stroke="#99ccff" points="1101.5508,-103 1101.5508,-120 1192.5508,-120 1192.5508,-103 1101.5508,-103"/>
<text text-anchor="start" x="1104.1438" y="-108.2" font-family="Courier,monospace" font-size="11.00" fill="#000000">reference(18)</text>
<polygon fill="none" stroke="#99ccff" points="363.5508,-86 363.5508,-103 1101.5508,-103 1101.5508,-86 363.5508,-86"/>
<text text-anchor="start" x="366.5508" y="-91.2" font-family="Courier,monospace" font-size="11.00" fill="#000000"> &#160;&#160;&#160;&#160;&#160;&#160;&#160;&#160;&#160;&#160;&#160;&#160;&#160;&#160;&#160;&#160;&#160;&#160;&#160;&#160;&#160;&#160;&#160;&#160;&#160;&#160;&#160;&#160;&#160;&#160;&#160;&#160;&#160;&#160;&#160;&#160;&#160;&#160;&#160;&#160;FinServ__RelatedAccount__c &#160;&#160;&#160;&#160;&#160;&#160;&#160;&#160;&#160;&#160;&#160;&#160;&#160;&#160;&#160;&#160;&#160;&#160;&#160;&#160;&#160;&#160;&#160;&#160;&#160;&#160;&#160;&#160;&#160;&#160;&#160;&#160;&#160;&#160;&#160;&#160;&#160;&#160;</text>
<polygon fill="none" stroke="#99ccff" points="1101.5508,-86 1101.5508,-103 1192.5508,-103 1192.5508,-86 1101.5508,-86"/>
<text text-anchor="start" x="1104.1438" y="-91.2" font-family="Courier,monospace" font-size="11.00" fill="#000000">reference(18)</text>
<polygon fill="none" stroke="#99ccff" points="363.5508,-69 363.5508,-86 1101.5508,-86 1101.5508,-69 363.5508,-69"/>
<text text-anchor="start" x="366.5508" y="-74.2" font-family="Courier,monospace" font-size="11.00" fill="#000000"> &#160;&#160;&#160;&#160;&#160;&#160;&#160;&#160;&#160;&#160;&#160;&#160;&#160;&#160;&#160;&#160;&#160;&#160;&#160;&#160;&#160;&#160;&#160;&#160;&#160;&#160;&#160;&#160;&#160;&#160;&#160;&#160;&#160;&#160;&#160;&#160;&#160;&#160;&#160;&#160;FinServ__Role__c &#160;&#160;&#160;&#160;&#160;&#160;&#160;&#160;&#160;&#160;&#160;&#160;&#160;&#160;&#160;&#160;&#160;&#160;&#160;&#160;&#160;&#160;&#160;&#160;&#160;&#160;&#160;&#160;&#160;&#160;&#160;&#160;&#160;&#160;&#160;&#160;&#160;&#160;</text>
<polygon fill="none" stroke="#99ccff" points="1101.5508,-69 1101.5508,-86 1192.5508,-86 1192.5508,-69 1101.5508,-69"/>
<text text-anchor="start" x="1104.1438" y="-74.2" font-family="Courier,monospace" font-size="11.00" fill="#000000">reference(18)</text>
<polygon fill="none" stroke="#99ccff" points="363.5508,-52 363.5508,-69 1101.5508,-69 1101.5508,-52 363.5508,-52"/>
<text text-anchor="start" x="366.5508" y="-57.2" font-family="Courier,monospace" font-size="11.00" fill="#000000"> &#160;&#160;&#160;&#160;&#160;&#160;&#160;&#160;&#160;&#160;&#160;&#160;&#160;&#160;&#160;&#160;&#160;&#160;&#160;&#160;&#160;&#160;&#160;&#160;&#160;&#160;&#160;&#160;&#160;&#160;&#160;&#160;&#160;&#160;&#160;&#160;&#160;&#160;&#160;&#160;FinServ__SourceSystemId__c &#160;&#160;&#160;&#160;&#160;&#160;&#160;&#160;&#160;&#160;&#160;&#160;&#160;&#160;&#160;&#160;&#160;&#160;&#160;&#160;&#160;&#160;&#160;&#160;&#160;&#160;&#160;&#160;&#160;&#160;&#160;&#160;&#160;&#160;&#160;&#160;&#160;&#160;</text>
<polygon fill="none" stroke="#99ccff" points="1101.5508,-52 1101.5508,-69 1192.5508,-69 1192.5508,-52 1101.5508,-52"/>
<text text-anchor="start" x="1110.7449" y="-57.2" font-family="Courier,monospace" font-size="11.00" fill="#000000">string(100)</text>
<polygon fill="none" stroke="#99ccff" points="363.5508,-35 363.5508,-52 1101.5508,-52 1101.5508,-35 363.5508,-35"/>
<text text-anchor="start" x="366.5508" y="-40.2" font-family="Courier,monospace" font-size="11.00" fill="#000000"> &#160;&#160;&#160;&#160;&#160;&#160;&#160;&#160;&#160;&#160;&#160;&#160;&#160;&#160;&#160;&#160;&#160;&#160;&#160;&#160;&#160;&#160;&#160;&#160;&#160;&#160;&#160;&#160;&#160;&#160;&#160;&#160;&#160;&#160;&#160;&#160;&#160;&#160;&#160;&#160;FinServ__StartDate__c &#160;&#160;&#160;&#160;&#160;&#160;&#160;&#160;&#160;&#160;&#160;&#160;&#160;&#160;&#160;&#160;&#160;&#160;&#160;&#160;&#160;&#160;&#160;&#160;&#160;&#160;&#160;&#160;&#160;&#160;&#160;&#160;&#160;&#160;&#160;&#160;&#160;&#160;</text>
<polygon fill="none" stroke="#99ccff" points="1101.5508,-35 1101.5508,-52 1192.5508,-52 1192.5508,-35 1101.5508,-35"/>
<text text-anchor="start" x="1133.8486" y="-40.2" font-family="Courier,monospace" font-size="11.00" fill="#000000">date</text>
<polygon fill="none" stroke="#99ccff" points="363.5508,-18 363.5508,-35 1101.5508,-35 1101.5508,-18 363.5508,-18"/>
<text text-anchor="start" x="366.5508" y="-23.2" font-family="Courier,monospace" font-size="11.00" fill="#000000"> &#160;&#160;&#160;&#160;&#160;&#160;&#160;&#160;&#160;&#160;&#160;&#160;&#160;&#160;&#160;&#160;&#160;&#160;&#160;&#160;&#160;&#160;&#160;&#160;&#160;&#160;&#160;&#160;&#160;&#160;&#160;&#160;&#160;&#160;&#160;&#160;&#160;&#160;&#160;&#160;FinServ__AssociationType__c &#160;&#160;&#160;&#160;&#160;&#160;&#160;&#160;&#160;&#160;&#160;&#160;&#160;&#160;&#160;&#160;&#160;&#160;&#160;&#160;&#160;&#160;&#160;&#160;&#160;&#160;&#160;&#160;&#160;&#160;&#160;&#160;&#160;&#160;&#160;&#160;&#160;&#160;</text>
<polygon fill="none" stroke="#99ccff" points="1101.5508,-18 1101.5508,-35 1192.5508,-35 1192.5508,-18 1101.5508,-18"/>
<text text-anchor="start" x="1104.1438" y="-23.2" font-family="Courier,monospace" font-size="11.00" fill="#000000">picklist(255)</text>
<polygon fill="none" stroke="#99ccff" points="362.0508,-17 362.0508,-291 1193.0508,-291 1193.0508,-17 362.0508,-17"/>
</a>
</g>
</g>
<!-- FinServ__AccountAccountRelation__c&#45;&gt;FinServ__AccountAccountRelation__c -->
<g id="edge5" class="edge">
<title>FinServ__AccountAccountRelation__c:w&#45;&gt;FinServ__AccountAccountRelation__c:e</title>
<path fill="none" stroke="#3e7ab7" d="M350.1164,-116.9386C238.7318,-171.4164 256.4014,-304 732.5508,-304 1227.0508,-304 1227.0508,-295.3333 1101.5508,-265"/>
<polygon fill="#3e7ab7" stroke="#3e7ab7" points="356.2338,-114.2345 365.0063,-114.2927 359.8923,-112.6172 363.5508,-111 363.5508,-111 363.5508,-111 359.8923,-112.6172 362.0953,-107.7073 356.2338,-114.2345 356.2338,-114.2345"/>
<ellipse fill="none" stroke="#3e7ab7" cx="353.307" cy="-115.5282" rx="3.2" ry="3.2"/>
<text text-anchor="middle" x="777.5508" y="-308.1988" font-family="Arial" font-size="12.00" fill="#000000">FinServ__InverseRelationship__r</text>
</g>
<!-- Group -->
<g id="node2" class="node">
<title>Group</title>
<text text-anchor="middle" x="93.814" y="-253.7" font-family="Courier,monospace" font-size="11.00" fill="#000000">Group</text>
</g>
<!-- FinServ__AccountAccountRelation__c&#45;&gt;Group -->
<g id="edge1" class="edge">
<title>FinServ__AccountAccountRelation__c:w&#45;&gt;Group:e</title>
<path fill="none" stroke="#ff99cc" d="M349.1134,-248.0415C263.6285,-248.5229 167.0076,-253.0691 120.9875,-255.4936"/>
<polygon fill="#ff99cc" stroke="#ff99cc" points="355.5508,-248.0231 363.5612,-251.6 359.5508,-248.0115 363.5508,-248 363.5508,-248 363.5508,-248 359.5508,-248.0115 363.5404,-244.4 355.5508,-248.0231 355.5508,-248.0231"/>
<ellipse fill="none" stroke="#ff99cc" cx="352.3508" cy="-248.0323" rx="3.2" ry="3.2"/>
<text text-anchor="middle" x="274.8394" y="-255.8015" font-family="Monaco" font-size="9.00" fill="#000000">Owner</text>
</g>
<!-- User -->
<g id="node3" class="node">
<title>User</title>
<text text-anchor="middle" x="93.814" y="-199.7" font-family="Courier,monospace" font-size="11.00" fill="#000000">User</text>
</g>
<!-- FinServ__AccountAccountRelation__c&#45;&gt;User -->
<g id="edge2" class="edge">
<title>FinServ__AccountAccountRelation__c:w&#45;&gt;User:e</title>
<path fill="none" stroke="#ff99cc" d="M352.8227,-238.0656C351.2765,-234.6126 349.3604,-231.0853 345.0508,-228.9985 325.2186,-219.3955 181.6491,-208.8449 120.8745,-204.7547"/>
<polygon fill="#ff99cc" stroke="#ff99cc" points="357.681,-242.5644 361.1048,-250.6414 360.6159,-245.2822 363.5508,-248 363.5508,-248 363.5508,-248 360.6159,-245.2822 365.9968,-245.3586 357.681,-242.5644 357.681,-242.5644"/>
<ellipse fill="none" stroke="#ff99cc" cx="355.333" cy="-240.3902" rx="3.2" ry="3.2"/>
<text text-anchor="middle" x="274.8394" y="-232.8015" font-family="Monaco" font-size="9.00" fill="#000000">Owner</text>
</g>
<!-- FinServ__AccountAccountRelation__c&#45;&gt;User -->
<g id="edge3" class="edge">
<title>FinServ__AccountAccountRelation__c:w&#45;&gt;User:e</title>
<path fill="none" stroke="#ff99cc" d="M349.109,-196.1736C347.9196,-196.1016 346.5941,-196.0403 345.0508,-195.9985 282.6634,-194.3112 267.007,-194.0299 204.6279,-195.9985 176.1123,-196.8985 143.5307,-199.098 121.1151,-200.7936"/>
<polygon fill="#ff99cc" stroke="#ff99cc" points="355.5638,-196.5429 363.3451,-200.5941 359.5573,-196.7715 363.5508,-197 363.5508,-197 363.5508,-197 359.5573,-196.7715 363.7565,-193.4059 355.5638,-196.5429 355.5638,-196.5429"/>
<ellipse fill="none" stroke="#ff99cc" cx="352.3691" cy="-196.3601" rx="3.2" ry="3.2"/>
<text text-anchor="middle" x="274.8394" y="-199.8015" font-family="Monaco" font-size="9.00" fill="#000000">LastModifiedBy</text>
</g>
<!-- Account -->
<g id="node4" class="node">
<title>Account</title>
<text text-anchor="middle" x="93.814" y="-134.7" font-family="Courier,monospace" font-size="11.00" fill="#000000">Account</text>
</g>
<!-- FinServ__AccountAccountRelation__c&#45;&gt;Account -->
<g id="edge4" class="edge">
<title>FinServ__AccountAccountRelation__c:w&#45;&gt;Account:e</title>
<path fill="none" stroke="#ff99cc" d="M350.9314,-172.4694C349.4168,-171.1207 347.5964,-169.8694 345.0508,-168.9985 269.1633,-143.0367 173.7929,-138.3369 125.285,-137.7783"/>
<polygon fill="#ff99cc" stroke="#ff99cc" points="356.681,-175.9005 361.706,-183.0914 360.1159,-177.9502 363.5508,-180 363.5508,-180 363.5508,-180 360.1159,-177.9502 365.3956,-176.9086 356.681,-175.9005 356.681,-175.9005"/>
<ellipse fill="none" stroke="#ff99cc" cx="353.9331" cy="-174.2606" rx="3.2" ry="3.2"/>
<text text-anchor="middle" x="274.8394" y="-172.8015" font-family="Monaco" font-size="9.00" fill="#000000">FinServ__Account__r</text>
</g>
<!-- FinServ__AccountAccountRelation__c&#45;&gt;Account -->
<g id="edge6" class="edge">
<title>FinServ__AccountAccountRelation__c:w&#45;&gt;Account:e</title>
<path fill="none" stroke="#ff99cc" d="M349.1137,-94.1986C265.3356,-96.4564 172.3615,-117.4297 125.1041,-129.5164"/>
<polygon fill="#ff99cc" stroke="#ff99cc" points="355.5515,-94.1101 363.6003,-97.5997 359.5512,-94.055 363.5508,-94 363.5508,-94 363.5508,-94 359.5512,-94.055 363.5012,-90.4003 355.5515,-94.1101 355.5515,-94.1101"/>
<ellipse fill="none" stroke="#ff99cc" cx="352.3518" cy="-94.1541" rx="3.2" ry="3.2"/>
<text text-anchor="middle" x="274.8394" y="-114.8015" font-family="Monaco" font-size="9.00" fill="#000000">FinServ__RelatedAccount__r</text>
</g>
<!-- FinServ__ReciprocalRole__c -->
<g id="node5" class="node">
<title>FinServ__ReciprocalRole__c</title>
<text text-anchor="middle" x="93.814" y="-73.7" font-family="Courier,monospace" font-size="11.00" fill="#000000">FinServ__ReciprocalRole__c</text>
</g>
<!-- FinServ__AccountAccountRelation__c&#45;&gt;FinServ__ReciprocalRole__c -->
<g id="edge7" class="edge">
<title>FinServ__AccountAccountRelation__c:w&#45;&gt;FinServ__ReciprocalRole__c:e</title>
<path fill="none" stroke="#ff99cc" d="M349.0419,-77C294.4713,-77 235.3417,-77 187.75,-77"/>
<polygon fill="#ff99cc" stroke="#ff99cc" points="355.5508,-77.0001 363.5508,-80.6 359.5508,-77 363.5508,-77 363.5508,-77 363.5508,-77 359.5508,-77 363.5508,-73.4 355.5508,-77.0001 355.5508,-77.0001"/>
<ellipse fill="none" stroke="#ff99cc" cx="352.3508" cy="-77.0001" rx="3.2" ry="3.2"/>
<text text-anchor="middle" x="274.8394" y="-82.8015" font-family="Monaco" font-size="9.00" fill="#000000">FinServ__Role__r</text>
</g>
</g>
</svg>
