<?xml version="1.0" encoding="UTF-8" standalone="no"?>
<!DOCTYPE svg PUBLIC "-//W3C//DTD SVG 1.1//EN"
 "http://www.w3.org/Graphics/SVG/1.1/DTD/svg11.dtd">
<!-- Generated by graphviz version 2.40.1 (20161225.0304)
 -->
<!-- Title: Salesforce+ ERD Pages: 1 -->
<svg width="835pt" height="128pt"
 viewBox="0.00 0.00 835.00 128.00" xmlns="http://www.w3.org/2000/svg" xmlns:xlink="http://www.w3.org/1999/xlink">
<g id="graph0" class="graph" transform="scale(1 1) rotate(0) translate(4 124)">
<title>Salesforce+ ERD</title>
<polygon fill="#efeffd" stroke="transparent" points="-4,4 -4,-124 831.0044,-124 831.0044,4 -4,4"/>
<text text-anchor="middle" x="778.4978" y="-5.8" font-family="Courier,monospace" font-size="9.00" fill="#000000">Salesforce ERD </text>
<!-- GroupMember -->
<g id="node1" class="node">
<title>GroupMember</title>
<g id="a_node1"><a xlink:href="#" xlink:title=" GroupMember ">
<polygon fill="#ffeeff" stroke="transparent" points="115.0044,-50 115.0044,-120 827.0044,-120 827.0044,-50 115.0044,-50"/>
<polygon fill="#add8e6" stroke="transparent" points="116.0044,-102 116.0044,-119 826.0044,-119 826.0044,-102 116.0044,-102"/>
<polygon fill="none" stroke="#99ccff" points="116.0044,-102 116.0044,-119 826.0044,-119 826.0044,-102 116.0044,-102"/>
<text text-anchor="start" x="434.6985" y="-108.2" font-family="Courier,monospace" font-weight="bold" font-size="11.00" fill="#000000">GroupMember</text>
<polygon fill="#99ccff" stroke="transparent" points="116.0044,-85 116.0044,-102 735.0044,-102 735.0044,-85 116.0044,-85"/>
<polygon fill="none" stroke="#99ccff" points="116.0044,-85 116.0044,-102 735.0044,-102 735.0044,-85 116.0044,-85"/>
<text text-anchor="start" x="119.0044" y="-91.2" font-family="Courier,monospace" font-size="11.00" fill="#000000"> &#160;&#160;&#160;&#160;&#160;&#160;&#160;&#160;&#160;&#160;&#160;&#160;&#160;&#160;&#160;&#160;&#160;&#160;&#160;&#160;&#160;&#160;&#160;&#160;&#160;&#160;&#160;&#160;&#160;&#160;&#160;&#160;&#160;&#160;&#160;&#160;&#160;&#160;&#160;&#160;&#160;&#160;</text>
<text text-anchor="start" x="402.8506" y="-91.2" font-family="Courier,monospace" font-weight="bold" font-size="11.00" fill="#000000">Id</text>
<text text-anchor="start" x="416.0527" y="-91.2" font-family="Courier,monospace" font-size="11.00" fill="#000000"> &#160;&#160;&#160;&#160;&#160;&#160;&#160;&#160;&#160;&#160;&#160;&#160;&#160;&#160;&#160;&#160;&#160;&#160;&#160;&#160;&#160;&#160;&#160;&#160;&#160;&#160;&#160;&#160;&#160;&#160;&#160;&#160;&#160;&#160;&#160;&#160;&#160;&#160;&#160;</text>
<polygon fill="none" stroke="#99ccff" points="735.0044,-85 735.0044,-102 826.0044,-102 826.0044,-85 735.0044,-85"/>
<text text-anchor="start" x="760.7012" y="-90.2" font-family="Courier,monospace" font-size="11.00" fill="#000000">id(18)</text>
<polygon fill="none" stroke="#99ccff" points="116.0044,-68 116.0044,-85 735.0044,-85 735.0044,-68 116.0044,-68"/>
<text text-anchor="start" x="119.0044" y="-73.2" font-family="Courier,monospace" font-size="11.00" fill="#000000"> &#160;&#160;&#160;&#160;&#160;&#160;&#160;&#160;&#160;&#160;&#160;&#160;&#160;&#160;&#160;&#160;&#160;&#160;&#160;&#160;&#160;&#160;&#160;&#160;&#160;&#160;&#160;&#160;&#160;&#160;&#160;&#160;&#160;&#160;&#160;&#160;&#160;&#160;&#160;&#160;GroupId &#160;&#160;&#160;&#160;&#160;&#160;&#160;&#160;&#160;&#160;&#160;&#160;&#160;&#160;&#160;&#160;&#160;&#160;&#160;&#160;&#160;&#160;&#160;&#160;&#160;&#160;&#160;&#160;&#160;&#160;&#160;&#160;&#160;&#160;&#160;&#160;&#160;&#160;</text>
<polygon fill="none" stroke="#99ccff" points="735.0044,-68 735.0044,-85 826.0044,-85 826.0044,-68 735.0044,-68"/>
<text text-anchor="start" x="737.5974" y="-73.2" font-family="Courier,monospace" font-size="11.00" fill="#000000">reference(18)</text>
<polygon fill="none" stroke="#99ccff" points="116.0044,-51 116.0044,-68 735.0044,-68 735.0044,-51 116.0044,-51"/>
<text text-anchor="start" x="118.5544" y="-56.2" font-family="Courier,monospace" font-size="11.00" fill="#000000"> &#160;&#160;&#160;&#160;&#160;&#160;&#160;&#160;&#160;&#160;&#160;&#160;&#160;&#160;&#160;&#160;&#160;&#160;&#160;&#160;&#160;&#160;&#160;&#160;&#160;&#160;&#160;&#160;&#160;&#160;&#160;&#160;&#160;&#160;&#160;&#160;&#160;&#160;&#160;&#160;UserOrGroupId &#160;&#160;&#160;&#160;&#160;&#160;&#160;&#160;&#160;&#160;&#160;&#160;&#160;&#160;&#160;&#160;&#160;&#160;&#160;&#160;&#160;&#160;&#160;&#160;&#160;&#160;&#160;&#160;&#160;&#160;&#160;&#160;&#160;&#160;&#160;&#160;&#160;&#160;</text>
<polygon fill="none" stroke="#99ccff" points="735.0044,-51 735.0044,-68 826.0044,-68 826.0044,-51 735.0044,-51"/>
<text text-anchor="start" x="737.5974" y="-56.2" font-family="Courier,monospace" font-size="11.00" fill="#000000">reference(18)</text>
<polygon fill="none" stroke="#99ccff" points="115.0044,-50 115.0044,-120 827.0044,-120 827.0044,-50 115.0044,-50"/>
</a>
</g>
</g>
<!-- Group -->
<g id="node2" class="node">
<title>Group</title>
<text text-anchor="middle" x="27" y="-80.7" font-family="Courier,monospace" font-size="11.00" fill="#000000">Group</text>
</g>
<!-- GroupMember&#45;&gt;Group -->
<g id="edge1" class="edge">
<title>GroupMember:w&#45;&gt;Group:e</title>
<path fill="none" stroke="#ff99cc" d="M101.5685,-76.3108C84.9054,-76.9879 67.8177,-78.6652 54.2109,-80.281"/>
<polygon fill="#ff99cc" stroke="#ff99cc" points="108.0062,-76.1723 116.0819,-79.5992 112.0053,-76.0861 116.0044,-76 116.0044,-76 116.0044,-76 112.0053,-76.0861 115.9269,-72.4008 108.0062,-76.1723 108.0062,-76.1723"/>
<ellipse fill="none" stroke="#ff99cc" cx="104.807" cy="-76.2412" rx="3.2" ry="3.2"/>
<text text-anchor="middle" x="84.5022" y="-82.8015" font-family="Monaco" font-size="9.00" fill="#000000">Group</text>
</g>
<!-- GroupMember&#45;&gt;Group -->
<g id="edge2" class="edge">
<title>GroupMember:w&#45;&gt;Group:e</title>
<path fill="none" stroke="#ff99cc" d="M101.5561,-59.9262C84.6203,-61.9918 67.6038,-67.1916 54.1123,-72.232"/>
<polygon fill="#ff99cc" stroke="#ff99cc" points="108.0208,-59.5118 116.2347,-62.5926 112.0126,-59.2559 116.0044,-59 116.0044,-59 116.0044,-59 112.0126,-59.2559 115.7741,-55.4074 108.0208,-59.5118 108.0208,-59.5118"/>
<ellipse fill="none" stroke="#ff99cc" cx="104.8273" cy="-59.7166" rx="3.2" ry="3.2"/>
</g>
<!-- User -->
<g id="node3" class="node">
<title>User</title>
<text text-anchor="middle" x="27" y="-31.7" font-family="Courier,monospace" font-size="11.00" fill="#000000">User</text>
</g>
<!-- GroupMember&#45;&gt;User -->
<g id="edge3" class="edge">
<title>GroupMember:w&#45;&gt;User:e</title>
<path fill="none" stroke="#ff99cc" d="M101.5881,-58.1109C84.6798,-56.1279 67.659,-51.1361 54.1548,-46.2972"/>
<polygon fill="#ff99cc" stroke="#ff99cc" points="108.0196,-58.5075 115.7828,-62.5932 112.012,-58.7537 116.0044,-59 116.0044,-59 116.0044,-59 112.012,-58.7537 116.226,-55.4068 108.0196,-58.5075 108.0196,-58.5075"/>
<ellipse fill="none" stroke="#ff99cc" cx="104.8256" cy="-58.3105" rx="3.2" ry="3.2"/>
</g>
</g>
</svg>
