<?xml version="1.0" encoding="UTF-8" standalone="no"?>
<!DOCTYPE svg PUBLIC "-//W3C//DTD SVG 1.1//EN"
 "http://www.w3.org/Graphics/SVG/1.1/DTD/svg11.dtd">
<!-- Generated by graphviz version 2.40.1 (20161225.0304)
 -->
<!-- Title: Salesforce+ ERD Pages: 1 -->
<svg width="1005pt" height="449pt"
 viewBox="0.00 0.00 1005.22 449.00" xmlns="http://www.w3.org/2000/svg" xmlns:xlink="http://www.w3.org/1999/xlink">
<g id="graph0" class="graph" transform="scale(1 1) rotate(0) translate(4 445)">
<title>Salesforce+ ERD</title>
<polygon fill="#efeffd" stroke="transparent" points="-4,4 -4,-445 1001.2241,-445 1001.2241,4 -4,4"/>
<text text-anchor="middle" x="948.7175" y="-5.8" font-family="Courier,monospace" font-size="9.00" fill="#000000">Salesforce ERD </text>
<!-- Idea -->
<g id="node1" class="node">
<title>Idea</title>
<g id="a_node1"><a xlink:href="#" xlink:title=" Idea ">
<polygon fill="#ffeeff" stroke="transparent" points="198.2241,-17 198.2241,-410 997.2241,-410 997.2241,-17 198.2241,-17"/>
<polygon fill="#add8e6" stroke="transparent" points="199.7241,-391.5 199.7241,-408.5 996.7241,-408.5 996.7241,-391.5 199.7241,-391.5"/>
<polygon fill="none" stroke="#99ccff" points="199.7241,-391.5 199.7241,-408.5 996.7241,-408.5 996.7241,-391.5 199.7241,-391.5"/>
<text text-anchor="start" x="585.022" y="-397.7" font-family="Courier,monospace" font-weight="bold" font-size="11.00" fill="#000000">Idea</text>
<polygon fill="#99ccff" stroke="transparent" points="199.7241,-374.5 199.7241,-391.5 865.7241,-391.5 865.7241,-374.5 199.7241,-374.5"/>
<polygon fill="none" stroke="#99ccff" points="199.7241,-374.5 199.7241,-391.5 865.7241,-391.5 865.7241,-374.5 199.7241,-374.5"/>
<text text-anchor="start" x="202.7241" y="-380.7" font-family="Courier,monospace" font-size="11.00" fill="#000000"> &#160;&#160;&#160;&#160;&#160;&#160;&#160;&#160;&#160;&#160;&#160;&#160;&#160;&#160;&#160;&#160;&#160;&#160;&#160;&#160;&#160;&#160;&#160;&#160;&#160;&#160;&#160;&#160;&#160;&#160;&#160;&#160;&#160;&#160;&#160;&#160;&#160;&#160;&#160;&#160;&#160;&#160;</text>
<text text-anchor="start" x="486.5703" y="-380.7" font-family="Courier,monospace" font-weight="bold" font-size="11.00" fill="#000000">Id</text>
<text text-anchor="start" x="499.7725" y="-380.7" font-family="Courier,monospace" font-size="11.00" fill="#000000"> &#160;&#160;&#160;&#160;&#160;&#160;&#160;&#160;&#160;&#160;&#160;&#160;&#160;&#160;&#160;&#160;&#160;&#160;&#160;&#160;&#160;&#160;&#160;&#160;&#160;&#160;&#160;&#160;&#160;&#160;&#160;&#160;&#160;&#160;&#160;&#160;&#160;&#160;&#160;</text>
<polygon fill="none" stroke="#99ccff" points="865.7241,-374.5 865.7241,-391.5 996.7241,-391.5 996.7241,-374.5 865.7241,-374.5"/>
<text text-anchor="start" x="911.4209" y="-379.7" font-family="Courier,monospace" font-size="11.00" fill="#000000">id(18)</text>
<polygon fill="none" stroke="#99ccff" points="199.7241,-357.5 199.7241,-374.5 865.7241,-374.5 865.7241,-357.5 199.7241,-357.5"/>
<text text-anchor="start" x="202.7241" y="-362.7" font-family="Courier,monospace" font-size="11.00" fill="#000000"> &#160;&#160;&#160;&#160;&#160;&#160;&#160;&#160;&#160;&#160;&#160;&#160;&#160;&#160;&#160;&#160;&#160;&#160;&#160;&#160;&#160;&#160;&#160;&#160;&#160;&#160;&#160;&#160;&#160;&#160;&#160;&#160;&#160;&#160;&#160;&#160;&#160;&#160;&#160;&#160;IsDeleted &#160;&#160;&#160;&#160;&#160;&#160;&#160;&#160;&#160;&#160;&#160;&#160;&#160;&#160;&#160;&#160;&#160;&#160;&#160;&#160;&#160;&#160;&#160;&#160;&#160;&#160;&#160;&#160;&#160;&#160;&#160;&#160;&#160;&#160;&#160;&#160;&#160;&#160;</text>
<polygon fill="none" stroke="#99ccff" points="865.7241,-357.5 865.7241,-374.5 996.7241,-374.5 996.7241,-357.5 865.7241,-357.5"/>
<text text-anchor="start" x="908.1204" y="-362.7" font-family="Courier,monospace" font-size="11.00" fill="#000000">boolean</text>
<polygon fill="none" stroke="#99ccff" points="199.7241,-340.5 199.7241,-357.5 865.7241,-357.5 865.7241,-340.5 199.7241,-340.5"/>
<text text-anchor="start" x="202.7241" y="-345.7" font-family="Courier,monospace" font-size="11.00" fill="#000000"> &#160;&#160;&#160;&#160;&#160;&#160;&#160;&#160;&#160;&#160;&#160;&#160;&#160;&#160;&#160;&#160;&#160;&#160;&#160;&#160;&#160;&#160;&#160;&#160;&#160;&#160;&#160;&#160;&#160;&#160;&#160;&#160;&#160;&#160;&#160;&#160;&#160;&#160;&#160;&#160;Title &#160;&#160;&#160;&#160;&#160;&#160;&#160;&#160;&#160;&#160;&#160;&#160;&#160;&#160;&#160;&#160;&#160;&#160;&#160;&#160;&#160;&#160;&#160;&#160;&#160;&#160;&#160;&#160;&#160;&#160;&#160;&#160;&#160;&#160;&#160;&#160;&#160;&#160;</text>
<polygon fill="none" stroke="#99ccff" points="865.7241,-340.5 865.7241,-357.5 996.7241,-357.5 996.7241,-340.5 865.7241,-340.5"/>
<text text-anchor="start" x="894.9182" y="-345.7" font-family="Courier,monospace" font-size="11.00" fill="#000000">string(255)</text>
<polygon fill="none" stroke="#99ccff" points="199.7241,-323.5 199.7241,-340.5 865.7241,-340.5 865.7241,-323.5 199.7241,-323.5"/>
<text text-anchor="start" x="202.7241" y="-328.7" font-family="Courier,monospace" font-size="11.00" fill="#000000"> &#160;&#160;&#160;&#160;&#160;&#160;&#160;&#160;&#160;&#160;&#160;&#160;&#160;&#160;&#160;&#160;&#160;&#160;&#160;&#160;&#160;&#160;&#160;&#160;&#160;&#160;&#160;&#160;&#160;&#160;&#160;&#160;&#160;&#160;&#160;&#160;&#160;&#160;&#160;&#160;RecordTypeId &#160;&#160;&#160;&#160;&#160;&#160;&#160;&#160;&#160;&#160;&#160;&#160;&#160;&#160;&#160;&#160;&#160;&#160;&#160;&#160;&#160;&#160;&#160;&#160;&#160;&#160;&#160;&#160;&#160;&#160;&#160;&#160;&#160;&#160;&#160;&#160;&#160;&#160;</text>
<polygon fill="none" stroke="#99ccff" points="865.7241,-323.5 865.7241,-340.5 996.7241,-340.5 996.7241,-323.5 865.7241,-323.5"/>
<text text-anchor="start" x="888.3171" y="-328.7" font-family="Courier,monospace" font-size="11.00" fill="#000000">reference(18)</text>
<polygon fill="none" stroke="#99ccff" points="199.7241,-306.5 199.7241,-323.5 865.7241,-323.5 865.7241,-306.5 199.7241,-306.5"/>
<text text-anchor="start" x="202.7241" y="-311.7" font-family="Courier,monospace" font-size="11.00" fill="#000000"> &#160;&#160;&#160;&#160;&#160;&#160;&#160;&#160;&#160;&#160;&#160;&#160;&#160;&#160;&#160;&#160;&#160;&#160;&#160;&#160;&#160;&#160;&#160;&#160;&#160;&#160;&#160;&#160;&#160;&#160;&#160;&#160;&#160;&#160;&#160;&#160;&#160;&#160;&#160;&#160;LastModifiedById &#160;&#160;&#160;&#160;&#160;&#160;&#160;&#160;&#160;&#160;&#160;&#160;&#160;&#160;&#160;&#160;&#160;&#160;&#160;&#160;&#160;&#160;&#160;&#160;&#160;&#160;&#160;&#160;&#160;&#160;&#160;&#160;&#160;&#160;&#160;&#160;&#160;&#160;</text>
<polygon fill="none" stroke="#99ccff" points="865.7241,-306.5 865.7241,-323.5 996.7241,-323.5 996.7241,-306.5 865.7241,-306.5"/>
<text text-anchor="start" x="888.3171" y="-311.7" font-family="Courier,monospace" font-size="11.00" fill="#000000">reference(18)</text>
<polygon fill="none" stroke="#99ccff" points="199.7241,-289.5 199.7241,-306.5 865.7241,-306.5 865.7241,-289.5 199.7241,-289.5"/>
<text text-anchor="start" x="202.7241" y="-294.7" font-family="Courier,monospace" font-size="11.00" fill="#000000"> &#160;&#160;&#160;&#160;&#160;&#160;&#160;&#160;&#160;&#160;&#160;&#160;&#160;&#160;&#160;&#160;&#160;&#160;&#160;&#160;&#160;&#160;&#160;&#160;&#160;&#160;&#160;&#160;&#160;&#160;&#160;&#160;&#160;&#160;&#160;&#160;&#160;&#160;&#160;&#160;LastViewedDate &#160;&#160;&#160;&#160;&#160;&#160;&#160;&#160;&#160;&#160;&#160;&#160;&#160;&#160;&#160;&#160;&#160;&#160;&#160;&#160;&#160;&#160;&#160;&#160;&#160;&#160;&#160;&#160;&#160;&#160;&#160;&#160;&#160;&#160;&#160;&#160;&#160;&#160;</text>
<polygon fill="none" stroke="#99ccff" points="865.7241,-289.5 865.7241,-306.5 996.7241,-306.5 996.7241,-289.5 865.7241,-289.5"/>
<text text-anchor="start" x="904.8198" y="-294.7" font-family="Courier,monospace" font-size="11.00" fill="#000000">datetime</text>
<polygon fill="none" stroke="#99ccff" points="199.7241,-272.5 199.7241,-289.5 865.7241,-289.5 865.7241,-272.5 199.7241,-272.5"/>
<text text-anchor="start" x="202.7241" y="-277.7" font-family="Courier,monospace" font-size="11.00" fill="#000000"> &#160;&#160;&#160;&#160;&#160;&#160;&#160;&#160;&#160;&#160;&#160;&#160;&#160;&#160;&#160;&#160;&#160;&#160;&#160;&#160;&#160;&#160;&#160;&#160;&#160;&#160;&#160;&#160;&#160;&#160;&#160;&#160;&#160;&#160;&#160;&#160;&#160;&#160;&#160;&#160;LastReferencedDate &#160;&#160;&#160;&#160;&#160;&#160;&#160;&#160;&#160;&#160;&#160;&#160;&#160;&#160;&#160;&#160;&#160;&#160;&#160;&#160;&#160;&#160;&#160;&#160;&#160;&#160;&#160;&#160;&#160;&#160;&#160;&#160;&#160;&#160;&#160;&#160;&#160;&#160;</text>
<polygon fill="none" stroke="#99ccff" points="865.7241,-272.5 865.7241,-289.5 996.7241,-289.5 996.7241,-272.5 865.7241,-272.5"/>
<text text-anchor="start" x="904.8198" y="-277.7" font-family="Courier,monospace" font-size="11.00" fill="#000000">datetime</text>
<polygon fill="none" stroke="#99ccff" points="199.7241,-255.5 199.7241,-272.5 865.7241,-272.5 865.7241,-255.5 199.7241,-255.5"/>
<text text-anchor="start" x="202.7241" y="-260.7" font-family="Courier,monospace" font-size="11.00" fill="#000000"> &#160;&#160;&#160;&#160;&#160;&#160;&#160;&#160;&#160;&#160;&#160;&#160;&#160;&#160;&#160;&#160;&#160;&#160;&#160;&#160;&#160;&#160;&#160;&#160;&#160;&#160;&#160;&#160;&#160;&#160;&#160;&#160;&#160;&#160;&#160;&#160;&#160;&#160;&#160;&#160;CommunityId &#160;&#160;&#160;&#160;&#160;&#160;&#160;&#160;&#160;&#160;&#160;&#160;&#160;&#160;&#160;&#160;&#160;&#160;&#160;&#160;&#160;&#160;&#160;&#160;&#160;&#160;&#160;&#160;&#160;&#160;&#160;&#160;&#160;&#160;&#160;&#160;&#160;&#160;</text>
<polygon fill="none" stroke="#99ccff" points="865.7241,-255.5 865.7241,-272.5 996.7241,-272.5 996.7241,-255.5 865.7241,-255.5"/>
<text text-anchor="start" x="888.3171" y="-260.7" font-family="Courier,monospace" font-size="11.00" fill="#000000">reference(18)</text>
<polygon fill="none" stroke="#99ccff" points="199.7241,-238.5 199.7241,-255.5 865.7241,-255.5 865.7241,-238.5 199.7241,-238.5"/>
<text text-anchor="start" x="202.7241" y="-243.7" font-family="Courier,monospace" font-size="11.00" fill="#000000"> &#160;&#160;&#160;&#160;&#160;&#160;&#160;&#160;&#160;&#160;&#160;&#160;&#160;&#160;&#160;&#160;&#160;&#160;&#160;&#160;&#160;&#160;&#160;&#160;&#160;&#160;&#160;&#160;&#160;&#160;&#160;&#160;&#160;&#160;&#160;&#160;&#160;&#160;&#160;&#160;Body &#160;&#160;&#160;&#160;&#160;&#160;&#160;&#160;&#160;&#160;&#160;&#160;&#160;&#160;&#160;&#160;&#160;&#160;&#160;&#160;&#160;&#160;&#160;&#160;&#160;&#160;&#160;&#160;&#160;&#160;&#160;&#160;&#160;&#160;&#160;&#160;&#160;&#160;</text>
<polygon fill="none" stroke="#99ccff" points="865.7241,-238.5 865.7241,-255.5 996.7241,-255.5 996.7241,-238.5 865.7241,-238.5"/>
<text text-anchor="start" x="881.7161" y="-243.7" font-family="Courier,monospace" font-size="11.00" fill="#000000">textarea(32000)</text>
<polygon fill="none" stroke="#99ccff" points="199.7241,-221.5 199.7241,-238.5 865.7241,-238.5 865.7241,-221.5 199.7241,-221.5"/>
<text text-anchor="start" x="202.7241" y="-226.7" font-family="Courier,monospace" font-size="11.00" fill="#000000"> &#160;&#160;&#160;&#160;&#160;&#160;&#160;&#160;&#160;&#160;&#160;&#160;&#160;&#160;&#160;&#160;&#160;&#160;&#160;&#160;&#160;&#160;&#160;&#160;&#160;&#160;&#160;&#160;&#160;&#160;&#160;&#160;&#160;&#160;&#160;&#160;&#160;&#160;&#160;&#160;NumComments &#160;&#160;&#160;&#160;&#160;&#160;&#160;&#160;&#160;&#160;&#160;&#160;&#160;&#160;&#160;&#160;&#160;&#160;&#160;&#160;&#160;&#160;&#160;&#160;&#160;&#160;&#160;&#160;&#160;&#160;&#160;&#160;&#160;&#160;&#160;&#160;&#160;&#160;</text>
<polygon fill="none" stroke="#99ccff" points="865.7241,-221.5 865.7241,-238.5 996.7241,-238.5 996.7241,-221.5 865.7241,-221.5"/>
<text text-anchor="start" x="921.3225" y="-226.7" font-family="Courier,monospace" font-size="11.00" fill="#000000">int</text>
<polygon fill="none" stroke="#99ccff" points="199.7241,-204.5 199.7241,-221.5 865.7241,-221.5 865.7241,-204.5 199.7241,-204.5"/>
<text text-anchor="start" x="202.7241" y="-209.7" font-family="Courier,monospace" font-size="11.00" fill="#000000"> &#160;&#160;&#160;&#160;&#160;&#160;&#160;&#160;&#160;&#160;&#160;&#160;&#160;&#160;&#160;&#160;&#160;&#160;&#160;&#160;&#160;&#160;&#160;&#160;&#160;&#160;&#160;&#160;&#160;&#160;&#160;&#160;&#160;&#160;&#160;&#160;&#160;&#160;&#160;&#160;VoteScore &#160;&#160;&#160;&#160;&#160;&#160;&#160;&#160;&#160;&#160;&#160;&#160;&#160;&#160;&#160;&#160;&#160;&#160;&#160;&#160;&#160;&#160;&#160;&#160;&#160;&#160;&#160;&#160;&#160;&#160;&#160;&#160;&#160;&#160;&#160;&#160;&#160;&#160;</text>
<polygon fill="none" stroke="#99ccff" points="865.7241,-204.5 865.7241,-221.5 996.7241,-221.5 996.7241,-204.5 865.7241,-204.5"/>
<text text-anchor="start" x="911.4209" y="-209.7" font-family="Courier,monospace" font-size="11.00" fill="#000000">double</text>
<polygon fill="none" stroke="#99ccff" points="199.7241,-187.5 199.7241,-204.5 865.7241,-204.5 865.7241,-187.5 199.7241,-187.5"/>
<text text-anchor="start" x="202.7241" y="-192.7" font-family="Courier,monospace" font-size="11.00" fill="#000000"> &#160;&#160;&#160;&#160;&#160;&#160;&#160;&#160;&#160;&#160;&#160;&#160;&#160;&#160;&#160;&#160;&#160;&#160;&#160;&#160;&#160;&#160;&#160;&#160;&#160;&#160;&#160;&#160;&#160;&#160;&#160;&#160;&#160;&#160;&#160;&#160;&#160;&#160;&#160;&#160;VoteTotal &#160;&#160;&#160;&#160;&#160;&#160;&#160;&#160;&#160;&#160;&#160;&#160;&#160;&#160;&#160;&#160;&#160;&#160;&#160;&#160;&#160;&#160;&#160;&#160;&#160;&#160;&#160;&#160;&#160;&#160;&#160;&#160;&#160;&#160;&#160;&#160;&#160;&#160;</text>
<polygon fill="none" stroke="#99ccff" points="865.7241,-187.5 865.7241,-204.5 996.7241,-204.5 996.7241,-187.5 865.7241,-187.5"/>
<text text-anchor="start" x="911.4209" y="-192.7" font-family="Courier,monospace" font-size="11.00" fill="#000000">double</text>
<polygon fill="none" stroke="#99ccff" points="199.7241,-170.5 199.7241,-187.5 865.7241,-187.5 865.7241,-170.5 199.7241,-170.5"/>
<text text-anchor="start" x="202.7241" y="-175.7" font-family="Courier,monospace" font-size="11.00" fill="#000000"> &#160;&#160;&#160;&#160;&#160;&#160;&#160;&#160;&#160;&#160;&#160;&#160;&#160;&#160;&#160;&#160;&#160;&#160;&#160;&#160;&#160;&#160;&#160;&#160;&#160;&#160;&#160;&#160;&#160;&#160;&#160;&#160;&#160;&#160;&#160;&#160;&#160;&#160;&#160;&#160;Categories &#160;&#160;&#160;&#160;&#160;&#160;&#160;&#160;&#160;&#160;&#160;&#160;&#160;&#160;&#160;&#160;&#160;&#160;&#160;&#160;&#160;&#160;&#160;&#160;&#160;&#160;&#160;&#160;&#160;&#160;&#160;&#160;&#160;&#160;&#160;&#160;&#160;&#160;</text>
<polygon fill="none" stroke="#99ccff" points="865.7241,-170.5 865.7241,-187.5 996.7241,-187.5 996.7241,-170.5 865.7241,-170.5"/>
<text text-anchor="start" x="868.5139" y="-175.7" font-family="Courier,monospace" font-size="11.00" fill="#000000">multipicklist(4099)</text>
<polygon fill="none" stroke="#99ccff" points="199.7241,-153.5 199.7241,-170.5 865.7241,-170.5 865.7241,-153.5 199.7241,-153.5"/>
<text text-anchor="start" x="202.7241" y="-158.7" font-family="Courier,monospace" font-size="11.00" fill="#000000"> &#160;&#160;&#160;&#160;&#160;&#160;&#160;&#160;&#160;&#160;&#160;&#160;&#160;&#160;&#160;&#160;&#160;&#160;&#160;&#160;&#160;&#160;&#160;&#160;&#160;&#160;&#160;&#160;&#160;&#160;&#160;&#160;&#160;&#160;&#160;&#160;&#160;&#160;&#160;&#160;Status &#160;&#160;&#160;&#160;&#160;&#160;&#160;&#160;&#160;&#160;&#160;&#160;&#160;&#160;&#160;&#160;&#160;&#160;&#160;&#160;&#160;&#160;&#160;&#160;&#160;&#160;&#160;&#160;&#160;&#160;&#160;&#160;&#160;&#160;&#160;&#160;&#160;&#160;</text>
<polygon fill="none" stroke="#99ccff" points="865.7241,-153.5 865.7241,-170.5 996.7241,-170.5 996.7241,-153.5 865.7241,-153.5"/>
<text text-anchor="start" x="891.6177" y="-158.7" font-family="Courier,monospace" font-size="11.00" fill="#000000">picklist(40)</text>
<polygon fill="none" stroke="#99ccff" points="199.7241,-136.5 199.7241,-153.5 865.7241,-153.5 865.7241,-136.5 199.7241,-136.5"/>
<text text-anchor="start" x="202.7241" y="-141.7" font-family="Courier,monospace" font-size="11.00" fill="#000000"> &#160;&#160;&#160;&#160;&#160;&#160;&#160;&#160;&#160;&#160;&#160;&#160;&#160;&#160;&#160;&#160;&#160;&#160;&#160;&#160;&#160;&#160;&#160;&#160;&#160;&#160;&#160;&#160;&#160;&#160;&#160;&#160;&#160;&#160;&#160;&#160;&#160;&#160;&#160;&#160;LastCommentDate &#160;&#160;&#160;&#160;&#160;&#160;&#160;&#160;&#160;&#160;&#160;&#160;&#160;&#160;&#160;&#160;&#160;&#160;&#160;&#160;&#160;&#160;&#160;&#160;&#160;&#160;&#160;&#160;&#160;&#160;&#160;&#160;&#160;&#160;&#160;&#160;&#160;&#160;</text>
<polygon fill="none" stroke="#99ccff" points="865.7241,-136.5 865.7241,-153.5 996.7241,-153.5 996.7241,-136.5 865.7241,-136.5"/>
<text text-anchor="start" x="904.8198" y="-141.7" font-family="Courier,monospace" font-size="11.00" fill="#000000">datetime</text>
<polygon fill="none" stroke="#99ccff" points="199.7241,-119.5 199.7241,-136.5 865.7241,-136.5 865.7241,-119.5 199.7241,-119.5"/>
<text text-anchor="start" x="202.7241" y="-124.7" font-family="Courier,monospace" font-size="11.00" fill="#000000"> &#160;&#160;&#160;&#160;&#160;&#160;&#160;&#160;&#160;&#160;&#160;&#160;&#160;&#160;&#160;&#160;&#160;&#160;&#160;&#160;&#160;&#160;&#160;&#160;&#160;&#160;&#160;&#160;&#160;&#160;&#160;&#160;&#160;&#160;&#160;&#160;&#160;&#160;&#160;&#160;LastCommentId &#160;&#160;&#160;&#160;&#160;&#160;&#160;&#160;&#160;&#160;&#160;&#160;&#160;&#160;&#160;&#160;&#160;&#160;&#160;&#160;&#160;&#160;&#160;&#160;&#160;&#160;&#160;&#160;&#160;&#160;&#160;&#160;&#160;&#160;&#160;&#160;&#160;&#160;</text>
<polygon fill="none" stroke="#99ccff" points="865.7241,-119.5 865.7241,-136.5 996.7241,-136.5 996.7241,-119.5 865.7241,-119.5"/>
<text text-anchor="start" x="888.3171" y="-124.7" font-family="Courier,monospace" font-size="11.00" fill="#000000">reference(18)</text>
<polygon fill="none" stroke="#99ccff" points="199.7241,-102.5 199.7241,-119.5 865.7241,-119.5 865.7241,-102.5 199.7241,-102.5"/>
<text text-anchor="start" x="202.7241" y="-107.7" font-family="Courier,monospace" font-size="11.00" fill="#000000"> &#160;&#160;&#160;&#160;&#160;&#160;&#160;&#160;&#160;&#160;&#160;&#160;&#160;&#160;&#160;&#160;&#160;&#160;&#160;&#160;&#160;&#160;&#160;&#160;&#160;&#160;&#160;&#160;&#160;&#160;&#160;&#160;&#160;&#160;&#160;&#160;&#160;&#160;&#160;&#160;ParentIdeaId &#160;&#160;&#160;&#160;&#160;&#160;&#160;&#160;&#160;&#160;&#160;&#160;&#160;&#160;&#160;&#160;&#160;&#160;&#160;&#160;&#160;&#160;&#160;&#160;&#160;&#160;&#160;&#160;&#160;&#160;&#160;&#160;&#160;&#160;&#160;&#160;&#160;&#160;</text>
<polygon fill="none" stroke="#99ccff" points="865.7241,-102.5 865.7241,-119.5 996.7241,-119.5 996.7241,-102.5 865.7241,-102.5"/>
<text text-anchor="start" x="888.3171" y="-107.7" font-family="Courier,monospace" font-size="11.00" fill="#000000">reference(18)</text>
<polygon fill="none" stroke="#99ccff" points="199.7241,-85.5 199.7241,-102.5 865.7241,-102.5 865.7241,-85.5 199.7241,-85.5"/>
<text text-anchor="start" x="202.7241" y="-90.7" font-family="Courier,monospace" font-size="11.00" fill="#000000"> &#160;&#160;&#160;&#160;&#160;&#160;&#160;&#160;&#160;&#160;&#160;&#160;&#160;&#160;&#160;&#160;&#160;&#160;&#160;&#160;&#160;&#160;&#160;&#160;&#160;&#160;&#160;&#160;&#160;&#160;&#160;&#160;&#160;&#160;&#160;&#160;&#160;&#160;&#160;&#160;IsHtml &#160;&#160;&#160;&#160;&#160;&#160;&#160;&#160;&#160;&#160;&#160;&#160;&#160;&#160;&#160;&#160;&#160;&#160;&#160;&#160;&#160;&#160;&#160;&#160;&#160;&#160;&#160;&#160;&#160;&#160;&#160;&#160;&#160;&#160;&#160;&#160;&#160;&#160;</text>
<polygon fill="none" stroke="#99ccff" points="865.7241,-85.5 865.7241,-102.5 996.7241,-102.5 996.7241,-85.5 865.7241,-85.5"/>
<text text-anchor="start" x="908.1204" y="-90.7" font-family="Courier,monospace" font-size="11.00" fill="#000000">boolean</text>
<polygon fill="none" stroke="#99ccff" points="199.7241,-68.5 199.7241,-85.5 865.7241,-85.5 865.7241,-68.5 199.7241,-68.5"/>
<text text-anchor="start" x="202.7241" y="-73.7" font-family="Courier,monospace" font-size="11.00" fill="#000000"> &#160;&#160;&#160;&#160;&#160;&#160;&#160;&#160;&#160;&#160;&#160;&#160;&#160;&#160;&#160;&#160;&#160;&#160;&#160;&#160;&#160;&#160;&#160;&#160;&#160;&#160;&#160;&#160;&#160;&#160;&#160;&#160;&#160;&#160;&#160;&#160;&#160;&#160;&#160;&#160;IsMerged &#160;&#160;&#160;&#160;&#160;&#160;&#160;&#160;&#160;&#160;&#160;&#160;&#160;&#160;&#160;&#160;&#160;&#160;&#160;&#160;&#160;&#160;&#160;&#160;&#160;&#160;&#160;&#160;&#160;&#160;&#160;&#160;&#160;&#160;&#160;&#160;&#160;&#160;</text>
<polygon fill="none" stroke="#99ccff" points="865.7241,-68.5 865.7241,-85.5 996.7241,-85.5 996.7241,-68.5 865.7241,-68.5"/>
<text text-anchor="start" x="908.1204" y="-73.7" font-family="Courier,monospace" font-size="11.00" fill="#000000">boolean</text>
<polygon fill="none" stroke="#99ccff" points="199.7241,-51.5 199.7241,-68.5 865.7241,-68.5 865.7241,-51.5 199.7241,-51.5"/>
<text text-anchor="start" x="202.7241" y="-56.7" font-family="Courier,monospace" font-size="11.00" fill="#000000"> &#160;&#160;&#160;&#160;&#160;&#160;&#160;&#160;&#160;&#160;&#160;&#160;&#160;&#160;&#160;&#160;&#160;&#160;&#160;&#160;&#160;&#160;&#160;&#160;&#160;&#160;&#160;&#160;&#160;&#160;&#160;&#160;&#160;&#160;&#160;&#160;&#160;&#160;&#160;&#160;CreatorFullPhotoUrl &#160;&#160;&#160;&#160;&#160;&#160;&#160;&#160;&#160;&#160;&#160;&#160;&#160;&#160;&#160;&#160;&#160;&#160;&#160;&#160;&#160;&#160;&#160;&#160;&#160;&#160;&#160;&#160;&#160;&#160;&#160;&#160;&#160;&#160;&#160;&#160;&#160;&#160;</text>
<polygon fill="none" stroke="#99ccff" points="865.7241,-51.5 865.7241,-68.5 996.7241,-68.5 996.7241,-51.5 865.7241,-51.5"/>
<text text-anchor="start" x="894.9182" y="-56.7" font-family="Courier,monospace" font-size="11.00" fill="#000000">string(255)</text>
<polygon fill="none" stroke="#99ccff" points="199.7241,-34.5 199.7241,-51.5 865.7241,-51.5 865.7241,-34.5 199.7241,-34.5"/>
<text text-anchor="start" x="202.6704" y="-39.7" font-family="Courier,monospace" font-size="11.00" fill="#000000"> &#160;&#160;&#160;&#160;&#160;&#160;&#160;&#160;&#160;&#160;&#160;&#160;&#160;&#160;&#160;&#160;&#160;&#160;&#160;&#160;&#160;&#160;&#160;&#160;&#160;&#160;&#160;&#160;&#160;&#160;&#160;&#160;&#160;&#160;&#160;&#160;&#160;&#160;&#160;&#160;CreatorSmallPhotoUrl &#160;&#160;&#160;&#160;&#160;&#160;&#160;&#160;&#160;&#160;&#160;&#160;&#160;&#160;&#160;&#160;&#160;&#160;&#160;&#160;&#160;&#160;&#160;&#160;&#160;&#160;&#160;&#160;&#160;&#160;&#160;&#160;&#160;&#160;&#160;&#160;&#160;&#160;</text>
<polygon fill="none" stroke="#99ccff" points="865.7241,-34.5 865.7241,-51.5 996.7241,-51.5 996.7241,-34.5 865.7241,-34.5"/>
<text text-anchor="start" x="894.9182" y="-39.7" font-family="Courier,monospace" font-size="11.00" fill="#000000">string(255)</text>
<polygon fill="none" stroke="#99ccff" points="199.7241,-17.5 199.7241,-34.5 865.7241,-34.5 865.7241,-17.5 199.7241,-17.5"/>
<text text-anchor="start" x="202.7241" y="-22.7" font-family="Courier,monospace" font-size="11.00" fill="#000000"> &#160;&#160;&#160;&#160;&#160;&#160;&#160;&#160;&#160;&#160;&#160;&#160;&#160;&#160;&#160;&#160;&#160;&#160;&#160;&#160;&#160;&#160;&#160;&#160;&#160;&#160;&#160;&#160;&#160;&#160;&#160;&#160;&#160;&#160;&#160;&#160;&#160;&#160;&#160;&#160;CreatorName &#160;&#160;&#160;&#160;&#160;&#160;&#160;&#160;&#160;&#160;&#160;&#160;&#160;&#160;&#160;&#160;&#160;&#160;&#160;&#160;&#160;&#160;&#160;&#160;&#160;&#160;&#160;&#160;&#160;&#160;&#160;&#160;&#160;&#160;&#160;&#160;&#160;&#160;</text>
<polygon fill="none" stroke="#99ccff" points="865.7241,-17.5 865.7241,-34.5 996.7241,-34.5 996.7241,-17.5 865.7241,-17.5"/>
<text text-anchor="start" x="894.9182" y="-22.7" font-family="Courier,monospace" font-size="11.00" fill="#000000">string(121)</text>
<polygon fill="none" stroke="#99ccff" points="198.2241,-17 198.2241,-410 997.2241,-410 997.2241,-17 198.2241,-17"/>
</a>
</g>
</g>
<!-- Idea&#45;&gt;Idea -->
<g id="edge5" class="edge">
<title>Idea:w&#45;&gt;Idea:e</title>
<path fill="none" stroke="#3e7ab7" d="M187.8812,-118.7272C86.8071,-197.553 102.3574,-423 532.7241,-423 979.2241,-423 979.2241,-414.3333 865.7241,-383.5"/>
<polygon fill="#3e7ab7" stroke="#3e7ab7" points="193.1539,-115.0643 201.778,-113.4566 196.439,-112.7821 199.7241,-110.5 199.7241,-110.5 199.7241,-110.5 196.439,-112.7821 197.6702,-107.5434 193.1539,-115.0643 193.1539,-115.0643"/>
<ellipse fill="none" stroke="#3e7ab7" cx="190.5258" cy="-116.89" rx="3.2" ry="3.2"/>
<text text-anchor="middle" x="597.7241" y="-427.1988" font-family="Arial" font-size="12.00" fill="#000000">ParentIdea</text>
</g>
<!-- RecordType -->
<g id="node2" class="node">
<title>RecordType</title>
<text text-anchor="middle" x="44.3059" y="-360.2" font-family="Courier,monospace" font-size="11.00" fill="#000000">RecordType</text>
</g>
<!-- Idea&#45;&gt;RecordType -->
<g id="edge1" class="edge">
<title>Idea:w&#45;&gt;RecordType:e</title>
<path fill="none" stroke="#ff99cc" d="M185.262,-332.9063C149.939,-334.826 112.7323,-343.2069 85.42,-350.7121"/>
<polygon fill="#ff99cc" stroke="#ff99cc" points="191.7273,-332.7247 199.8253,-336.0986 195.7257,-332.6124 199.7241,-332.5 199.7241,-332.5 199.7241,-332.5 195.7257,-332.6124 199.623,-328.9014 191.7273,-332.7247 191.7273,-332.7247"/>
<ellipse fill="none" stroke="#ff99cc" cx="188.5285" cy="-332.8146" rx="3.2" ry="3.2"/>
<text text-anchor="middle" x="143.418" y="-349.3015" font-family="Monaco" font-size="9.00" fill="#000000">RecordType</text>
</g>
<!-- User -->
<g id="node3" class="node">
<title>User</title>
<text text-anchor="middle" x="44.3059" y="-311.2" font-family="Courier,monospace" font-size="11.00" fill="#000000">User</text>
</g>
<!-- Idea&#45;&gt;User -->
<g id="edge2" class="edge">
<title>Idea:w&#45;&gt;User:e</title>
<path fill="none" stroke="#ff99cc" d="M185.2988,-315.4865C144.0162,-315.4122 99.2949,-315.0458 71.5385,-314.7812"/>
<polygon fill="#ff99cc" stroke="#ff99cc" points="191.7241,-315.4925 199.7207,-319.1 195.7241,-315.4962 199.7241,-315.5 199.7241,-315.5 199.7241,-315.5 195.7241,-315.4962 199.7275,-311.9 191.7241,-315.4925 191.7241,-315.4925"/>
<ellipse fill="none" stroke="#ff99cc" cx="188.5241" cy="-315.4895" rx="3.2" ry="3.2"/>
<text text-anchor="middle" x="143.418" y="-319.3015" font-family="Monaco" font-size="9.00" fill="#000000">LastModifiedBy</text>
</g>
<!-- Community -->
<g id="node4" class="node">
<title>Community</title>
<text text-anchor="middle" x="44.3059" y="-261.2" font-family="Courier,monospace" font-size="11.00" fill="#000000">Community</text>
</g>
<!-- Idea&#45;&gt;Community -->
<g id="edge3" class="edge">
<title>Idea:w&#45;&gt;Community:e</title>
<path fill="none" stroke="#ff99cc" d="M184.9482,-264.5C148.7553,-264.5 109.9655,-264.5 82.3097,-264.5"/>
<polygon fill="#ff99cc" stroke="#ff99cc" points="191.7241,-264.5001 199.7241,-268.1 195.7241,-264.5 199.7241,-264.5 199.7241,-264.5 199.7241,-264.5 195.7241,-264.5 199.7241,-260.9 191.7241,-264.5001 191.7241,-264.5001"/>
<ellipse fill="none" stroke="#ff99cc" cx="188.5241" cy="-264.5001" rx="3.2" ry="3.2"/>
<text text-anchor="middle" x="143.418" y="-269.3015" font-family="Monaco" font-size="9.00" fill="#000000">Community</text>
</g>
<!-- IdeaComment -->
<g id="node5" class="node">
<title>IdeaComment</title>
<text text-anchor="middle" x="44.3059" y="-124.2" font-family="Courier,monospace" font-size="11.00" fill="#000000">IdeaComment</text>
</g>
<!-- Idea&#45;&gt;IdeaComment -->
<g id="edge4" class="edge">
<title>Idea:w&#45;&gt;IdeaComment:e</title>
<path fill="none" stroke="#ff99cc" d="M185.0018,-127.5C151.4278,-127.5 115.613,-127.5 88.5204,-127.5"/>
<polygon fill="#ff99cc" stroke="#ff99cc" points="191.7241,-127.5001 199.7241,-131.1 195.7241,-127.5 199.7241,-127.5 199.7241,-127.5 199.7241,-127.5 195.7241,-127.5 199.7241,-123.9 191.7241,-127.5001 191.7241,-127.5001"/>
<ellipse fill="none" stroke="#ff99cc" cx="188.5241" cy="-127.5001" rx="3.2" ry="3.2"/>
<text text-anchor="middle" x="143.418" y="-132.3015" font-family="Monaco" font-size="9.00" fill="#000000">LastComment</text>
</g>
</g>
</svg>
