<?xml version="1.0" encoding="UTF-8" standalone="no"?>
<!DOCTYPE svg PUBLIC "-//W3C//DTD SVG 1.1//EN"
 "http://www.w3.org/Graphics/SVG/1.1/DTD/svg11.dtd">
<!-- Generated by graphviz version 2.40.1 (20161225.0304)
 -->
<!-- Title: Salesforce+ ERD Pages: 1 -->
<svg width="905pt" height="214pt"
 viewBox="0.00 0.00 905.01 214.00" xmlns="http://www.w3.org/2000/svg" xmlns:xlink="http://www.w3.org/1999/xlink">
<g id="graph0" class="graph" transform="scale(1 1) rotate(0) translate(4 210)">
<title>Salesforce+ ERD</title>
<polygon fill="#efeffd" stroke="transparent" points="-4,4 -4,-210 901.0132,-210 901.0132,4 -4,4"/>
<text text-anchor="middle" x="848.5066" y="-5.8" font-family="Courier,monospace" font-size="9.00" fill="#000000">Salesforce ERD </text>
<!-- IdeaComment -->
<g id="node1" class="node">
<title>IdeaComment</title>
<g id="a_node1"><a xlink:href="#" xlink:title=" IdeaComment ">
<polygon fill="#ffeeff" stroke="transparent" points="131.0132,-17 131.0132,-206 897.0132,-206 897.0132,-17 131.0132,-17"/>
<polygon fill="#add8e6" stroke="transparent" points="132.0132,-187.5 132.0132,-204.5 896.0132,-204.5 896.0132,-187.5 132.0132,-187.5"/>
<polygon fill="none" stroke="#99ccff" points="132.0132,-187.5 132.0132,-204.5 896.0132,-204.5 896.0132,-187.5 132.0132,-187.5"/>
<text text-anchor="start" x="477.7073" y="-193.7" font-family="Courier,monospace" font-weight="bold" font-size="11.00" fill="#000000">IdeaComment</text>
<polygon fill="#99ccff" stroke="transparent" points="132.0132,-170.5 132.0132,-187.5 798.0132,-187.5 798.0132,-170.5 132.0132,-170.5"/>
<polygon fill="none" stroke="#99ccff" points="132.0132,-170.5 132.0132,-187.5 798.0132,-187.5 798.0132,-170.5 132.0132,-170.5"/>
<text text-anchor="start" x="135.0132" y="-176.7" font-family="Courier,monospace" font-size="11.00" fill="#000000"> &#160;&#160;&#160;&#160;&#160;&#160;&#160;&#160;&#160;&#160;&#160;&#160;&#160;&#160;&#160;&#160;&#160;&#160;&#160;&#160;&#160;&#160;&#160;&#160;&#160;&#160;&#160;&#160;&#160;&#160;&#160;&#160;&#160;&#160;&#160;&#160;&#160;&#160;&#160;&#160;&#160;&#160;</text>
<text text-anchor="start" x="418.8594" y="-176.7" font-family="Courier,monospace" font-weight="bold" font-size="11.00" fill="#000000">Id</text>
<text text-anchor="start" x="432.0615" y="-176.7" font-family="Courier,monospace" font-size="11.00" fill="#000000"> &#160;&#160;&#160;&#160;&#160;&#160;&#160;&#160;&#160;&#160;&#160;&#160;&#160;&#160;&#160;&#160;&#160;&#160;&#160;&#160;&#160;&#160;&#160;&#160;&#160;&#160;&#160;&#160;&#160;&#160;&#160;&#160;&#160;&#160;&#160;&#160;&#160;&#160;&#160;</text>
<polygon fill="none" stroke="#99ccff" points="798.0132,-170.5 798.0132,-187.5 896.0132,-187.5 896.0132,-170.5 798.0132,-170.5"/>
<text text-anchor="start" x="827.21" y="-175.7" font-family="Courier,monospace" font-size="11.00" fill="#000000">id(18)</text>
<polygon fill="none" stroke="#99ccff" points="132.0132,-153.5 132.0132,-170.5 798.0132,-170.5 798.0132,-153.5 132.0132,-153.5"/>
<text text-anchor="start" x="135.0132" y="-158.7" font-family="Courier,monospace" font-size="11.00" fill="#000000"> &#160;&#160;&#160;&#160;&#160;&#160;&#160;&#160;&#160;&#160;&#160;&#160;&#160;&#160;&#160;&#160;&#160;&#160;&#160;&#160;&#160;&#160;&#160;&#160;&#160;&#160;&#160;&#160;&#160;&#160;&#160;&#160;&#160;&#160;&#160;&#160;&#160;&#160;&#160;&#160;IdeaId &#160;&#160;&#160;&#160;&#160;&#160;&#160;&#160;&#160;&#160;&#160;&#160;&#160;&#160;&#160;&#160;&#160;&#160;&#160;&#160;&#160;&#160;&#160;&#160;&#160;&#160;&#160;&#160;&#160;&#160;&#160;&#160;&#160;&#160;&#160;&#160;&#160;&#160;</text>
<polygon fill="none" stroke="#99ccff" points="798.0132,-153.5 798.0132,-170.5 896.0132,-170.5 896.0132,-153.5 798.0132,-153.5"/>
<text text-anchor="start" x="804.1062" y="-158.7" font-family="Courier,monospace" font-size="11.00" fill="#000000">reference(18)</text>
<polygon fill="none" stroke="#99ccff" points="132.0132,-136.5 132.0132,-153.5 798.0132,-153.5 798.0132,-136.5 132.0132,-136.5"/>
<text text-anchor="start" x="135.0132" y="-141.7" font-family="Courier,monospace" font-size="11.00" fill="#000000"> &#160;&#160;&#160;&#160;&#160;&#160;&#160;&#160;&#160;&#160;&#160;&#160;&#160;&#160;&#160;&#160;&#160;&#160;&#160;&#160;&#160;&#160;&#160;&#160;&#160;&#160;&#160;&#160;&#160;&#160;&#160;&#160;&#160;&#160;&#160;&#160;&#160;&#160;&#160;&#160;CommunityId &#160;&#160;&#160;&#160;&#160;&#160;&#160;&#160;&#160;&#160;&#160;&#160;&#160;&#160;&#160;&#160;&#160;&#160;&#160;&#160;&#160;&#160;&#160;&#160;&#160;&#160;&#160;&#160;&#160;&#160;&#160;&#160;&#160;&#160;&#160;&#160;&#160;&#160;</text>
<polygon fill="none" stroke="#99ccff" points="798.0132,-136.5 798.0132,-153.5 896.0132,-153.5 896.0132,-136.5 798.0132,-136.5"/>
<text text-anchor="start" x="804.1062" y="-141.7" font-family="Courier,monospace" font-size="11.00" fill="#000000">reference(18)</text>
<polygon fill="none" stroke="#99ccff" points="132.0132,-119.5 132.0132,-136.5 798.0132,-136.5 798.0132,-119.5 132.0132,-119.5"/>
<text text-anchor="start" x="135.0132" y="-124.7" font-family="Courier,monospace" font-size="11.00" fill="#000000"> &#160;&#160;&#160;&#160;&#160;&#160;&#160;&#160;&#160;&#160;&#160;&#160;&#160;&#160;&#160;&#160;&#160;&#160;&#160;&#160;&#160;&#160;&#160;&#160;&#160;&#160;&#160;&#160;&#160;&#160;&#160;&#160;&#160;&#160;&#160;&#160;&#160;&#160;&#160;&#160;CommentBody &#160;&#160;&#160;&#160;&#160;&#160;&#160;&#160;&#160;&#160;&#160;&#160;&#160;&#160;&#160;&#160;&#160;&#160;&#160;&#160;&#160;&#160;&#160;&#160;&#160;&#160;&#160;&#160;&#160;&#160;&#160;&#160;&#160;&#160;&#160;&#160;&#160;&#160;</text>
<polygon fill="none" stroke="#99ccff" points="798.0132,-119.5 798.0132,-136.5 896.0132,-136.5 896.0132,-119.5 798.0132,-119.5"/>
<text text-anchor="start" x="800.8057" y="-124.7" font-family="Courier,monospace" font-size="11.00" fill="#000000">textarea(4000)</text>
<polygon fill="none" stroke="#99ccff" points="132.0132,-102.5 132.0132,-119.5 798.0132,-119.5 798.0132,-102.5 132.0132,-102.5"/>
<text text-anchor="start" x="135.0132" y="-107.7" font-family="Courier,monospace" font-size="11.00" fill="#000000"> &#160;&#160;&#160;&#160;&#160;&#160;&#160;&#160;&#160;&#160;&#160;&#160;&#160;&#160;&#160;&#160;&#160;&#160;&#160;&#160;&#160;&#160;&#160;&#160;&#160;&#160;&#160;&#160;&#160;&#160;&#160;&#160;&#160;&#160;&#160;&#160;&#160;&#160;&#160;&#160;IsDeleted &#160;&#160;&#160;&#160;&#160;&#160;&#160;&#160;&#160;&#160;&#160;&#160;&#160;&#160;&#160;&#160;&#160;&#160;&#160;&#160;&#160;&#160;&#160;&#160;&#160;&#160;&#160;&#160;&#160;&#160;&#160;&#160;&#160;&#160;&#160;&#160;&#160;&#160;</text>
<polygon fill="none" stroke="#99ccff" points="798.0132,-102.5 798.0132,-119.5 896.0132,-119.5 896.0132,-102.5 798.0132,-102.5"/>
<text text-anchor="start" x="823.9094" y="-107.7" font-family="Courier,monospace" font-size="11.00" fill="#000000">boolean</text>
<polygon fill="none" stroke="#99ccff" points="132.0132,-85.5 132.0132,-102.5 798.0132,-102.5 798.0132,-85.5 132.0132,-85.5"/>
<text text-anchor="start" x="135.0132" y="-90.7" font-family="Courier,monospace" font-size="11.00" fill="#000000"> &#160;&#160;&#160;&#160;&#160;&#160;&#160;&#160;&#160;&#160;&#160;&#160;&#160;&#160;&#160;&#160;&#160;&#160;&#160;&#160;&#160;&#160;&#160;&#160;&#160;&#160;&#160;&#160;&#160;&#160;&#160;&#160;&#160;&#160;&#160;&#160;&#160;&#160;&#160;&#160;IsHtml &#160;&#160;&#160;&#160;&#160;&#160;&#160;&#160;&#160;&#160;&#160;&#160;&#160;&#160;&#160;&#160;&#160;&#160;&#160;&#160;&#160;&#160;&#160;&#160;&#160;&#160;&#160;&#160;&#160;&#160;&#160;&#160;&#160;&#160;&#160;&#160;&#160;&#160;</text>
<polygon fill="none" stroke="#99ccff" points="798.0132,-85.5 798.0132,-102.5 896.0132,-102.5 896.0132,-85.5 798.0132,-85.5"/>
<text text-anchor="start" x="823.9094" y="-90.7" font-family="Courier,monospace" font-size="11.00" fill="#000000">boolean</text>
<polygon fill="none" stroke="#99ccff" points="132.0132,-68.5 132.0132,-85.5 798.0132,-85.5 798.0132,-68.5 132.0132,-68.5"/>
<text text-anchor="start" x="135.0132" y="-73.7" font-family="Courier,monospace" font-size="11.00" fill="#000000"> &#160;&#160;&#160;&#160;&#160;&#160;&#160;&#160;&#160;&#160;&#160;&#160;&#160;&#160;&#160;&#160;&#160;&#160;&#160;&#160;&#160;&#160;&#160;&#160;&#160;&#160;&#160;&#160;&#160;&#160;&#160;&#160;&#160;&#160;&#160;&#160;&#160;&#160;&#160;&#160;CreatorFullPhotoUrl &#160;&#160;&#160;&#160;&#160;&#160;&#160;&#160;&#160;&#160;&#160;&#160;&#160;&#160;&#160;&#160;&#160;&#160;&#160;&#160;&#160;&#160;&#160;&#160;&#160;&#160;&#160;&#160;&#160;&#160;&#160;&#160;&#160;&#160;&#160;&#160;&#160;&#160;</text>
<polygon fill="none" stroke="#99ccff" points="798.0132,-68.5 798.0132,-85.5 896.0132,-85.5 896.0132,-68.5 798.0132,-68.5"/>
<text text-anchor="start" x="810.7073" y="-73.7" font-family="Courier,monospace" font-size="11.00" fill="#000000">string(255)</text>
<polygon fill="none" stroke="#99ccff" points="132.0132,-51.5 132.0132,-68.5 798.0132,-68.5 798.0132,-51.5 132.0132,-51.5"/>
<text text-anchor="start" x="134.9595" y="-56.7" font-family="Courier,monospace" font-size="11.00" fill="#000000"> &#160;&#160;&#160;&#160;&#160;&#160;&#160;&#160;&#160;&#160;&#160;&#160;&#160;&#160;&#160;&#160;&#160;&#160;&#160;&#160;&#160;&#160;&#160;&#160;&#160;&#160;&#160;&#160;&#160;&#160;&#160;&#160;&#160;&#160;&#160;&#160;&#160;&#160;&#160;&#160;CreatorSmallPhotoUrl &#160;&#160;&#160;&#160;&#160;&#160;&#160;&#160;&#160;&#160;&#160;&#160;&#160;&#160;&#160;&#160;&#160;&#160;&#160;&#160;&#160;&#160;&#160;&#160;&#160;&#160;&#160;&#160;&#160;&#160;&#160;&#160;&#160;&#160;&#160;&#160;&#160;&#160;</text>
<polygon fill="none" stroke="#99ccff" points="798.0132,-51.5 798.0132,-68.5 896.0132,-68.5 896.0132,-51.5 798.0132,-51.5"/>
<text text-anchor="start" x="810.7073" y="-56.7" font-family="Courier,monospace" font-size="11.00" fill="#000000">string(255)</text>
<polygon fill="none" stroke="#99ccff" points="132.0132,-34.5 132.0132,-51.5 798.0132,-51.5 798.0132,-34.5 132.0132,-34.5"/>
<text text-anchor="start" x="135.0132" y="-39.7" font-family="Courier,monospace" font-size="11.00" fill="#000000"> &#160;&#160;&#160;&#160;&#160;&#160;&#160;&#160;&#160;&#160;&#160;&#160;&#160;&#160;&#160;&#160;&#160;&#160;&#160;&#160;&#160;&#160;&#160;&#160;&#160;&#160;&#160;&#160;&#160;&#160;&#160;&#160;&#160;&#160;&#160;&#160;&#160;&#160;&#160;&#160;CreatorName &#160;&#160;&#160;&#160;&#160;&#160;&#160;&#160;&#160;&#160;&#160;&#160;&#160;&#160;&#160;&#160;&#160;&#160;&#160;&#160;&#160;&#160;&#160;&#160;&#160;&#160;&#160;&#160;&#160;&#160;&#160;&#160;&#160;&#160;&#160;&#160;&#160;&#160;</text>
<polygon fill="none" stroke="#99ccff" points="798.0132,-34.5 798.0132,-51.5 896.0132,-51.5 896.0132,-34.5 798.0132,-34.5"/>
<text text-anchor="start" x="810.7073" y="-39.7" font-family="Courier,monospace" font-size="11.00" fill="#000000">string(121)</text>
<polygon fill="none" stroke="#99ccff" points="132.0132,-17.5 132.0132,-34.5 798.0132,-34.5 798.0132,-17.5 132.0132,-17.5"/>
<text text-anchor="start" x="135.0132" y="-22.7" font-family="Courier,monospace" font-size="11.00" fill="#000000"> &#160;&#160;&#160;&#160;&#160;&#160;&#160;&#160;&#160;&#160;&#160;&#160;&#160;&#160;&#160;&#160;&#160;&#160;&#160;&#160;&#160;&#160;&#160;&#160;&#160;&#160;&#160;&#160;&#160;&#160;&#160;&#160;&#160;&#160;&#160;&#160;&#160;&#160;&#160;&#160;UpVotes &#160;&#160;&#160;&#160;&#160;&#160;&#160;&#160;&#160;&#160;&#160;&#160;&#160;&#160;&#160;&#160;&#160;&#160;&#160;&#160;&#160;&#160;&#160;&#160;&#160;&#160;&#160;&#160;&#160;&#160;&#160;&#160;&#160;&#160;&#160;&#160;&#160;&#160;</text>
<polygon fill="none" stroke="#99ccff" points="798.0132,-17.5 798.0132,-34.5 896.0132,-34.5 896.0132,-17.5 798.0132,-17.5"/>
<text text-anchor="start" x="837.1116" y="-22.7" font-family="Courier,monospace" font-size="11.00" fill="#000000">int</text>
<polygon fill="none" stroke="#99ccff" points="131.0132,-17 131.0132,-206 897.0132,-206 897.0132,-17 131.0132,-17"/>
</a>
</g>
</g>
<!-- Idea -->
<g id="node2" class="node">
<title>Idea</title>
<text text-anchor="middle" x="37.7048" y="-175.2" font-family="Courier,monospace" font-size="11.00" fill="#000000">Idea</text>
</g>
<!-- IdeaComment&#45;&gt;Idea -->
<g id="edge1" class="edge">
<title>IdeaComment:w&#45;&gt;Idea:e</title>
<path fill="none" stroke="#ff99cc" d="M117.5173,-163.0534C98.7841,-164.4096 79.6005,-168.0368 64.7369,-171.4356"/>
<polygon fill="#ff99cc" stroke="#ff99cc" points="124.019,-162.8052 132.1505,-166.0974 128.0161,-162.6526 132.0132,-162.5 132.0132,-162.5 132.0132,-162.5 128.0161,-162.6526 131.8758,-158.9026 124.019,-162.8052 124.019,-162.8052"/>
<ellipse fill="none" stroke="#ff99cc" cx="120.8213" cy="-162.9273" rx="3.2" ry="3.2"/>
<text text-anchor="middle" x="103.2114" y="-170.3015" font-family="Monaco" font-size="9.00" fill="#000000">Idea</text>
</g>
<!-- Community -->
<g id="node3" class="node">
<title>Community</title>
<text text-anchor="middle" x="37.7048" y="-126.2" font-family="Courier,monospace" font-size="11.00" fill="#000000">Community</text>
</g>
<!-- IdeaComment&#45;&gt;Community -->
<g id="edge2" class="edge">
<title>IdeaComment:w&#45;&gt;Community:e</title>
<path fill="none" stroke="#ff99cc" d="M117.2284,-144.9255C102.8678,-143.8683 88.257,-141.4847 75.5435,-138.8998"/>
<polygon fill="#ff99cc" stroke="#ff99cc" points="124.0192,-145.1893 131.8734,-149.0973 128.0162,-145.3447 132.0132,-145.5 132.0132,-145.5 132.0132,-145.5 128.0162,-145.3447 132.153,-141.9027 124.0192,-145.1893 124.0192,-145.1893"/>
<ellipse fill="none" stroke="#ff99cc" cx="120.8216" cy="-145.0651" rx="3.2" ry="3.2"/>
</g>
</g>
</svg>
