<?xml version="1.0" encoding="UTF-8" standalone="no"?>
<!DOCTYPE svg PUBLIC "-//W3C//DTD SVG 1.1//EN"
 "http://www.w3.org/Graphics/SVG/1.1/DTD/svg11.dtd">
<!-- Generated by graphviz version 2.40.1 (20161225.0304)
 -->
<!-- Title: Salesforce+ ERD Pages: 1 -->
<svg width="960pt" height="282pt"
 viewBox="0.00 0.00 960.42 282.00" xmlns="http://www.w3.org/2000/svg" xmlns:xlink="http://www.w3.org/1999/xlink">
<g id="graph0" class="graph" transform="scale(1 1) rotate(0) translate(4 278)">
<title>Salesforce+ ERD</title>
<polygon fill="#efeffd" stroke="transparent" points="-4,4 -4,-278 956.4233,-278 956.4233,4 -4,4"/>
<text text-anchor="middle" x="903.9167" y="-5.8" font-family="Courier,monospace" font-size="9.00" fill="#000000">Salesforce ERD </text>
<!-- IdentityDocument -->
<g id="node1" class="node">
<title>IdentityDocument</title>
<g id="a_node1"><a xlink:href="#" xlink:title=" IdentityDocument ">
<polygon fill="#ffeeff" stroke="transparent" points="193.4233,-17 193.4233,-274 952.4233,-274 952.4233,-17 193.4233,-17"/>
<polygon fill="#add8e6" stroke="transparent" points="194.9233,-255.5 194.9233,-272.5 951.9233,-272.5 951.9233,-255.5 194.9233,-255.5"/>
<polygon fill="none" stroke="#99ccff" points="194.9233,-255.5 194.9233,-272.5 951.9233,-272.5 951.9233,-255.5 194.9233,-255.5"/>
<text text-anchor="start" x="520.6147" y="-261.7" font-family="Courier,monospace" font-weight="bold" font-size="11.00" fill="#000000">IdentityDocument</text>
<polygon fill="#99ccff" stroke="transparent" points="194.9233,-238.5 194.9233,-255.5 860.9233,-255.5 860.9233,-238.5 194.9233,-238.5"/>
<polygon fill="none" stroke="#99ccff" points="194.9233,-238.5 194.9233,-255.5 860.9233,-255.5 860.9233,-238.5 194.9233,-238.5"/>
<text text-anchor="start" x="197.9233" y="-244.7" font-family="Courier,monospace" font-size="11.00" fill="#000000"> &#160;&#160;&#160;&#160;&#160;&#160;&#160;&#160;&#160;&#160;&#160;&#160;&#160;&#160;&#160;&#160;&#160;&#160;&#160;&#160;&#160;&#160;&#160;&#160;&#160;&#160;&#160;&#160;&#160;&#160;&#160;&#160;&#160;&#160;&#160;&#160;&#160;&#160;&#160;&#160;&#160;&#160;</text>
<text text-anchor="start" x="481.7695" y="-244.7" font-family="Courier,monospace" font-weight="bold" font-size="11.00" fill="#000000">Id</text>
<text text-anchor="start" x="494.9717" y="-244.7" font-family="Courier,monospace" font-size="11.00" fill="#000000"> &#160;&#160;&#160;&#160;&#160;&#160;&#160;&#160;&#160;&#160;&#160;&#160;&#160;&#160;&#160;&#160;&#160;&#160;&#160;&#160;&#160;&#160;&#160;&#160;&#160;&#160;&#160;&#160;&#160;&#160;&#160;&#160;&#160;&#160;&#160;&#160;&#160;&#160;&#160;</text>
<polygon fill="none" stroke="#99ccff" points="860.9233,-238.5 860.9233,-255.5 951.9233,-255.5 951.9233,-238.5 860.9233,-238.5"/>
<text text-anchor="start" x="886.6201" y="-243.7" font-family="Courier,monospace" font-size="11.00" fill="#000000">id(18)</text>
<polygon fill="none" stroke="#99ccff" points="194.9233,-221.5 194.9233,-238.5 860.9233,-238.5 860.9233,-221.5 194.9233,-221.5"/>
<text text-anchor="start" x="197.9233" y="-226.7" font-family="Courier,monospace" font-size="11.00" fill="#000000"> &#160;&#160;&#160;&#160;&#160;&#160;&#160;&#160;&#160;&#160;&#160;&#160;&#160;&#160;&#160;&#160;&#160;&#160;&#160;&#160;&#160;&#160;&#160;&#160;&#160;&#160;&#160;&#160;&#160;&#160;&#160;&#160;&#160;&#160;&#160;&#160;&#160;&#160;&#160;&#160;OwnerId &#160;&#160;&#160;&#160;&#160;&#160;&#160;&#160;&#160;&#160;&#160;&#160;&#160;&#160;&#160;&#160;&#160;&#160;&#160;&#160;&#160;&#160;&#160;&#160;&#160;&#160;&#160;&#160;&#160;&#160;&#160;&#160;&#160;&#160;&#160;&#160;&#160;&#160;</text>
<polygon fill="none" stroke="#99ccff" points="860.9233,-221.5 860.9233,-238.5 951.9233,-238.5 951.9233,-221.5 860.9233,-221.5"/>
<text text-anchor="start" x="863.5164" y="-226.7" font-family="Courier,monospace" font-size="11.00" fill="#000000">reference(18)</text>
<polygon fill="none" stroke="#99ccff" points="194.9233,-204.5 194.9233,-221.5 860.9233,-221.5 860.9233,-204.5 194.9233,-204.5"/>
<text text-anchor="start" x="197.9233" y="-209.7" font-family="Courier,monospace" font-size="11.00" fill="#000000"> &#160;&#160;&#160;&#160;&#160;&#160;&#160;&#160;&#160;&#160;&#160;&#160;&#160;&#160;&#160;&#160;&#160;&#160;&#160;&#160;&#160;&#160;&#160;&#160;&#160;&#160;&#160;&#160;&#160;&#160;&#160;&#160;&#160;&#160;&#160;&#160;&#160;&#160;&#160;&#160;IsDeleted &#160;&#160;&#160;&#160;&#160;&#160;&#160;&#160;&#160;&#160;&#160;&#160;&#160;&#160;&#160;&#160;&#160;&#160;&#160;&#160;&#160;&#160;&#160;&#160;&#160;&#160;&#160;&#160;&#160;&#160;&#160;&#160;&#160;&#160;&#160;&#160;&#160;&#160;</text>
<polygon fill="none" stroke="#99ccff" points="860.9233,-204.5 860.9233,-221.5 951.9233,-221.5 951.9233,-204.5 860.9233,-204.5"/>
<text text-anchor="start" x="883.3196" y="-209.7" font-family="Courier,monospace" font-size="11.00" fill="#000000">boolean</text>
<polygon fill="none" stroke="#99ccff" points="194.9233,-187.5 194.9233,-204.5 860.9233,-204.5 860.9233,-187.5 194.9233,-187.5"/>
<text text-anchor="start" x="197.9233" y="-192.7" font-family="Courier,monospace" font-size="11.00" fill="#000000"> &#160;&#160;&#160;&#160;&#160;&#160;&#160;&#160;&#160;&#160;&#160;&#160;&#160;&#160;&#160;&#160;&#160;&#160;&#160;&#160;&#160;&#160;&#160;&#160;&#160;&#160;&#160;&#160;&#160;&#160;&#160;&#160;&#160;&#160;&#160;&#160;&#160;&#160;&#160;&#160;Name &#160;&#160;&#160;&#160;&#160;&#160;&#160;&#160;&#160;&#160;&#160;&#160;&#160;&#160;&#160;&#160;&#160;&#160;&#160;&#160;&#160;&#160;&#160;&#160;&#160;&#160;&#160;&#160;&#160;&#160;&#160;&#160;&#160;&#160;&#160;&#160;&#160;&#160;</text>
<polygon fill="none" stroke="#99ccff" points="860.9233,-187.5 860.9233,-204.5 951.9233,-204.5 951.9233,-187.5 860.9233,-187.5"/>
<text text-anchor="start" x="870.1174" y="-192.7" font-family="Courier,monospace" font-size="11.00" fill="#000000">string(255)</text>
<polygon fill="none" stroke="#99ccff" points="194.9233,-170.5 194.9233,-187.5 860.9233,-187.5 860.9233,-170.5 194.9233,-170.5"/>
<text text-anchor="start" x="197.9233" y="-175.7" font-family="Courier,monospace" font-size="11.00" fill="#000000"> &#160;&#160;&#160;&#160;&#160;&#160;&#160;&#160;&#160;&#160;&#160;&#160;&#160;&#160;&#160;&#160;&#160;&#160;&#160;&#160;&#160;&#160;&#160;&#160;&#160;&#160;&#160;&#160;&#160;&#160;&#160;&#160;&#160;&#160;&#160;&#160;&#160;&#160;&#160;&#160;LastModifiedById &#160;&#160;&#160;&#160;&#160;&#160;&#160;&#160;&#160;&#160;&#160;&#160;&#160;&#160;&#160;&#160;&#160;&#160;&#160;&#160;&#160;&#160;&#160;&#160;&#160;&#160;&#160;&#160;&#160;&#160;&#160;&#160;&#160;&#160;&#160;&#160;&#160;&#160;</text>
<polygon fill="none" stroke="#99ccff" points="860.9233,-170.5 860.9233,-187.5 951.9233,-187.5 951.9233,-170.5 860.9233,-170.5"/>
<text text-anchor="start" x="863.5164" y="-175.7" font-family="Courier,monospace" font-size="11.00" fill="#000000">reference(18)</text>
<polygon fill="none" stroke="#99ccff" points="194.9233,-153.5 194.9233,-170.5 860.9233,-170.5 860.9233,-153.5 194.9233,-153.5"/>
<text text-anchor="start" x="197.9233" y="-158.7" font-family="Courier,monospace" font-size="11.00" fill="#000000"> &#160;&#160;&#160;&#160;&#160;&#160;&#160;&#160;&#160;&#160;&#160;&#160;&#160;&#160;&#160;&#160;&#160;&#160;&#160;&#160;&#160;&#160;&#160;&#160;&#160;&#160;&#160;&#160;&#160;&#160;&#160;&#160;&#160;&#160;&#160;&#160;&#160;&#160;&#160;&#160;LastViewedDate &#160;&#160;&#160;&#160;&#160;&#160;&#160;&#160;&#160;&#160;&#160;&#160;&#160;&#160;&#160;&#160;&#160;&#160;&#160;&#160;&#160;&#160;&#160;&#160;&#160;&#160;&#160;&#160;&#160;&#160;&#160;&#160;&#160;&#160;&#160;&#160;&#160;&#160;</text>
<polygon fill="none" stroke="#99ccff" points="860.9233,-153.5 860.9233,-170.5 951.9233,-170.5 951.9233,-153.5 860.9233,-153.5"/>
<text text-anchor="start" x="880.019" y="-158.7" font-family="Courier,monospace" font-size="11.00" fill="#000000">datetime</text>
<polygon fill="none" stroke="#99ccff" points="194.9233,-136.5 194.9233,-153.5 860.9233,-153.5 860.9233,-136.5 194.9233,-136.5"/>
<text text-anchor="start" x="197.9233" y="-141.7" font-family="Courier,monospace" font-size="11.00" fill="#000000"> &#160;&#160;&#160;&#160;&#160;&#160;&#160;&#160;&#160;&#160;&#160;&#160;&#160;&#160;&#160;&#160;&#160;&#160;&#160;&#160;&#160;&#160;&#160;&#160;&#160;&#160;&#160;&#160;&#160;&#160;&#160;&#160;&#160;&#160;&#160;&#160;&#160;&#160;&#160;&#160;LastReferencedDate &#160;&#160;&#160;&#160;&#160;&#160;&#160;&#160;&#160;&#160;&#160;&#160;&#160;&#160;&#160;&#160;&#160;&#160;&#160;&#160;&#160;&#160;&#160;&#160;&#160;&#160;&#160;&#160;&#160;&#160;&#160;&#160;&#160;&#160;&#160;&#160;&#160;&#160;</text>
<polygon fill="none" stroke="#99ccff" points="860.9233,-136.5 860.9233,-153.5 951.9233,-153.5 951.9233,-136.5 860.9233,-136.5"/>
<text text-anchor="start" x="880.019" y="-141.7" font-family="Courier,monospace" font-size="11.00" fill="#000000">datetime</text>
<polygon fill="none" stroke="#99ccff" points="194.9233,-119.5 194.9233,-136.5 860.9233,-136.5 860.9233,-119.5 194.9233,-119.5"/>
<text text-anchor="start" x="197.8696" y="-124.7" font-family="Courier,monospace" font-size="11.00" fill="#000000"> &#160;&#160;&#160;&#160;&#160;&#160;&#160;&#160;&#160;&#160;&#160;&#160;&#160;&#160;&#160;&#160;&#160;&#160;&#160;&#160;&#160;&#160;&#160;&#160;&#160;&#160;&#160;&#160;&#160;&#160;&#160;&#160;&#160;&#160;&#160;&#160;&#160;&#160;&#160;&#160;RelatedLegalEntityId &#160;&#160;&#160;&#160;&#160;&#160;&#160;&#160;&#160;&#160;&#160;&#160;&#160;&#160;&#160;&#160;&#160;&#160;&#160;&#160;&#160;&#160;&#160;&#160;&#160;&#160;&#160;&#160;&#160;&#160;&#160;&#160;&#160;&#160;&#160;&#160;&#160;&#160;</text>
<polygon fill="none" stroke="#99ccff" points="860.9233,-119.5 860.9233,-136.5 951.9233,-136.5 951.9233,-119.5 860.9233,-119.5"/>
<text text-anchor="start" x="863.5164" y="-124.7" font-family="Courier,monospace" font-size="11.00" fill="#000000">reference(18)</text>
<polygon fill="none" stroke="#99ccff" points="194.9233,-102.5 194.9233,-119.5 860.9233,-119.5 860.9233,-102.5 194.9233,-102.5"/>
<text text-anchor="start" x="197.9233" y="-107.7" font-family="Courier,monospace" font-size="11.00" fill="#000000"> &#160;&#160;&#160;&#160;&#160;&#160;&#160;&#160;&#160;&#160;&#160;&#160;&#160;&#160;&#160;&#160;&#160;&#160;&#160;&#160;&#160;&#160;&#160;&#160;&#160;&#160;&#160;&#160;&#160;&#160;&#160;&#160;&#160;&#160;&#160;&#160;&#160;&#160;&#160;&#160;IdDocumentType &#160;&#160;&#160;&#160;&#160;&#160;&#160;&#160;&#160;&#160;&#160;&#160;&#160;&#160;&#160;&#160;&#160;&#160;&#160;&#160;&#160;&#160;&#160;&#160;&#160;&#160;&#160;&#160;&#160;&#160;&#160;&#160;&#160;&#160;&#160;&#160;&#160;&#160;</text>
<polygon fill="none" stroke="#99ccff" points="860.9233,-102.5 860.9233,-119.5 951.9233,-119.5 951.9233,-102.5 860.9233,-102.5"/>
<text text-anchor="start" x="866.8169" y="-107.7" font-family="Courier,monospace" font-size="11.00" fill="#000000">picklist(40)</text>
<polygon fill="none" stroke="#99ccff" points="194.9233,-85.5 194.9233,-102.5 860.9233,-102.5 860.9233,-85.5 194.9233,-85.5"/>
<text text-anchor="start" x="197.9233" y="-90.7" font-family="Courier,monospace" font-size="11.00" fill="#000000"> &#160;&#160;&#160;&#160;&#160;&#160;&#160;&#160;&#160;&#160;&#160;&#160;&#160;&#160;&#160;&#160;&#160;&#160;&#160;&#160;&#160;&#160;&#160;&#160;&#160;&#160;&#160;&#160;&#160;&#160;&#160;&#160;&#160;&#160;&#160;&#160;&#160;&#160;&#160;&#160;IssueDate &#160;&#160;&#160;&#160;&#160;&#160;&#160;&#160;&#160;&#160;&#160;&#160;&#160;&#160;&#160;&#160;&#160;&#160;&#160;&#160;&#160;&#160;&#160;&#160;&#160;&#160;&#160;&#160;&#160;&#160;&#160;&#160;&#160;&#160;&#160;&#160;&#160;&#160;</text>
<polygon fill="none" stroke="#99ccff" points="860.9233,-85.5 860.9233,-102.5 951.9233,-102.5 951.9233,-85.5 860.9233,-85.5"/>
<text text-anchor="start" x="893.2212" y="-90.7" font-family="Courier,monospace" font-size="11.00" fill="#000000">date</text>
<polygon fill="none" stroke="#99ccff" points="194.9233,-68.5 194.9233,-85.5 860.9233,-85.5 860.9233,-68.5 194.9233,-68.5"/>
<text text-anchor="start" x="197.9233" y="-73.7" font-family="Courier,monospace" font-size="11.00" fill="#000000"> &#160;&#160;&#160;&#160;&#160;&#160;&#160;&#160;&#160;&#160;&#160;&#160;&#160;&#160;&#160;&#160;&#160;&#160;&#160;&#160;&#160;&#160;&#160;&#160;&#160;&#160;&#160;&#160;&#160;&#160;&#160;&#160;&#160;&#160;&#160;&#160;&#160;&#160;&#160;&#160;IssuingAuthority &#160;&#160;&#160;&#160;&#160;&#160;&#160;&#160;&#160;&#160;&#160;&#160;&#160;&#160;&#160;&#160;&#160;&#160;&#160;&#160;&#160;&#160;&#160;&#160;&#160;&#160;&#160;&#160;&#160;&#160;&#160;&#160;&#160;&#160;&#160;&#160;&#160;&#160;</text>
<polygon fill="none" stroke="#99ccff" points="860.9233,-68.5 860.9233,-85.5 951.9233,-85.5 951.9233,-68.5 860.9233,-68.5"/>
<text text-anchor="start" x="870.1174" y="-73.7" font-family="Courier,monospace" font-size="11.00" fill="#000000">string(255)</text>
<polygon fill="none" stroke="#99ccff" points="194.9233,-51.5 194.9233,-68.5 860.9233,-68.5 860.9233,-51.5 194.9233,-51.5"/>
<text text-anchor="start" x="197.9233" y="-56.7" font-family="Courier,monospace" font-size="11.00" fill="#000000"> &#160;&#160;&#160;&#160;&#160;&#160;&#160;&#160;&#160;&#160;&#160;&#160;&#160;&#160;&#160;&#160;&#160;&#160;&#160;&#160;&#160;&#160;&#160;&#160;&#160;&#160;&#160;&#160;&#160;&#160;&#160;&#160;&#160;&#160;&#160;&#160;&#160;&#160;&#160;&#160;ExpirationDate &#160;&#160;&#160;&#160;&#160;&#160;&#160;&#160;&#160;&#160;&#160;&#160;&#160;&#160;&#160;&#160;&#160;&#160;&#160;&#160;&#160;&#160;&#160;&#160;&#160;&#160;&#160;&#160;&#160;&#160;&#160;&#160;&#160;&#160;&#160;&#160;&#160;&#160;</text>
<polygon fill="none" stroke="#99ccff" points="860.9233,-51.5 860.9233,-68.5 951.9233,-68.5 951.9233,-51.5 860.9233,-51.5"/>
<text text-anchor="start" x="893.2212" y="-56.7" font-family="Courier,monospace" font-size="11.00" fill="#000000">date</text>
<polygon fill="none" stroke="#99ccff" points="194.9233,-34.5 194.9233,-51.5 860.9233,-51.5 860.9233,-34.5 194.9233,-34.5"/>
<text text-anchor="start" x="197.9233" y="-39.7" font-family="Courier,monospace" font-size="11.00" fill="#000000"> &#160;&#160;&#160;&#160;&#160;&#160;&#160;&#160;&#160;&#160;&#160;&#160;&#160;&#160;&#160;&#160;&#160;&#160;&#160;&#160;&#160;&#160;&#160;&#160;&#160;&#160;&#160;&#160;&#160;&#160;&#160;&#160;&#160;&#160;&#160;&#160;&#160;&#160;&#160;&#160;VerifiedById &#160;&#160;&#160;&#160;&#160;&#160;&#160;&#160;&#160;&#160;&#160;&#160;&#160;&#160;&#160;&#160;&#160;&#160;&#160;&#160;&#160;&#160;&#160;&#160;&#160;&#160;&#160;&#160;&#160;&#160;&#160;&#160;&#160;&#160;&#160;&#160;&#160;&#160;</text>
<polygon fill="none" stroke="#99ccff" points="860.9233,-34.5 860.9233,-51.5 951.9233,-51.5 951.9233,-34.5 860.9233,-34.5"/>
<text text-anchor="start" x="863.5164" y="-39.7" font-family="Courier,monospace" font-size="11.00" fill="#000000">reference(18)</text>
<polygon fill="none" stroke="#99ccff" points="194.9233,-17.5 194.9233,-34.5 860.9233,-34.5 860.9233,-17.5 194.9233,-17.5"/>
<text text-anchor="start" x="197.9233" y="-22.7" font-family="Courier,monospace" font-size="11.00" fill="#000000"> &#160;&#160;&#160;&#160;&#160;&#160;&#160;&#160;&#160;&#160;&#160;&#160;&#160;&#160;&#160;&#160;&#160;&#160;&#160;&#160;&#160;&#160;&#160;&#160;&#160;&#160;&#160;&#160;&#160;&#160;&#160;&#160;&#160;&#160;&#160;&#160;&#160;&#160;&#160;&#160;VerifiedOn &#160;&#160;&#160;&#160;&#160;&#160;&#160;&#160;&#160;&#160;&#160;&#160;&#160;&#160;&#160;&#160;&#160;&#160;&#160;&#160;&#160;&#160;&#160;&#160;&#160;&#160;&#160;&#160;&#160;&#160;&#160;&#160;&#160;&#160;&#160;&#160;&#160;&#160;</text>
<polygon fill="none" stroke="#99ccff" points="860.9233,-17.5 860.9233,-34.5 951.9233,-34.5 951.9233,-17.5 860.9233,-17.5"/>
<text text-anchor="start" x="880.019" y="-22.7" font-family="Courier,monospace" font-size="11.00" fill="#000000">datetime</text>
<polygon fill="none" stroke="#99ccff" points="193.4233,-17 193.4233,-274 952.4233,-274 952.4233,-17 193.4233,-17"/>
</a>
</g>
</g>
<!-- Group -->
<g id="node2" class="node">
<title>Group</title>
<text text-anchor="middle" x="31.1038" y="-235.2" font-family="Courier,monospace" font-size="11.00" fill="#000000">Group</text>
</g>
<!-- IdentityDocument&#45;&gt;Group -->
<g id="edge1" class="edge">
<title>IdentityDocument:w&#45;&gt;Group:e</title>
<path fill="none" stroke="#ff99cc" d="M180.3401,-230.5992C135.8819,-231.1835 87.5852,-234.2225 58.3309,-236.3561"/>
<polygon fill="#ff99cc" stroke="#ff99cc" points="186.9235,-230.5545 194.9479,-234.0999 190.9234,-230.5272 194.9233,-230.5 194.9233,-230.5 194.9233,-230.5 190.9234,-230.5272 194.8988,-226.9001 186.9235,-230.5545 186.9235,-230.5545"/>
<ellipse fill="none" stroke="#ff99cc" cx="183.7236" cy="-230.5763" rx="3.2" ry="3.2"/>
<text text-anchor="middle" x="127.8154" y="-239.3015" font-family="Monaco" font-size="9.00" fill="#000000">Owner</text>
</g>
<!-- User -->
<g id="node3" class="node">
<title>User</title>
<text text-anchor="middle" x="31.1038" y="-175.2" font-family="Courier,monospace" font-size="11.00" fill="#000000">User</text>
</g>
<!-- IdentityDocument&#45;&gt;User -->
<g id="edge2" class="edge">
<title>IdentityDocument:w&#45;&gt;User:e</title>
<path fill="none" stroke="#ff99cc" d="M184.2589,-220.6691C182.7196,-216.9351 180.885,-212.9865 176.4233,-210.4985 137.9731,-189.0574 122.0879,-201.4709 79.2075,-191.5 72.3823,-189.9129 65.0604,-188.0287 58.2394,-186.1943"/>
<polygon fill="#ff99cc" stroke="#ff99cc" points="189.0413,-225.0777 192.4833,-233.1469 191.9823,-227.7888 194.9233,-230.5 194.9233,-230.5 194.9233,-230.5 191.9823,-227.7888 197.3634,-227.8531 189.0413,-225.0777 189.0413,-225.0777"/>
<ellipse fill="none" stroke="#ff99cc" cx="186.6884" cy="-222.9088" rx="3.2" ry="3.2"/>
<text text-anchor="middle" x="127.8154" y="-214.3015" font-family="Monaco" font-size="9.00" fill="#000000">Owner</text>
</g>
<!-- IdentityDocument&#45;&gt;User -->
<g id="edge3" class="edge">
<title>IdentityDocument:w&#45;&gt;User:e</title>
<path fill="none" stroke="#ff99cc" d="M180.5,-177.024C179.3107,-176.8079 177.9801,-176.624 176.4233,-176.4985 133.356,-173.0276 122.4052,-175.6003 79.2075,-176.4985 72.4385,-176.6393 65.1372,-176.8914 58.3182,-177.1702"/>
<polygon fill="#ff99cc" stroke="#ff99cc" points="187.0387,-178.1464 194.3142,-183.0481 190.981,-178.8232 194.9233,-179.5 194.9233,-179.5 194.9233,-179.5 190.981,-178.8232 195.5324,-175.9519 187.0387,-178.1464 187.0387,-178.1464"/>
<ellipse fill="none" stroke="#ff99cc" cx="183.8848" cy="-177.605" rx="3.2" ry="3.2"/>
<text text-anchor="middle" x="127.8154" y="-180.3015" font-family="Monaco" font-size="9.00" fill="#000000">LastModifiedBy</text>
</g>
<!-- IdentityDocument&#45;&gt;User -->
<g id="edge6" class="edge">
<title>IdentityDocument:w&#45;&gt;User:e</title>
<path fill="none" stroke="#ff99cc" d="M184.293,-52.5232C183.1001,-61.3347 185.1129,-73.9052 176.4233,-81.5 142.277,-111.3444 112.599,-81.8119 79.2075,-112.4985 64.6824,-125.847 74.0423,-137.7172 62.2075,-153.5 60.3788,-155.9388 58.2598,-158.2779 56.0044,-160.4793"/>
<polygon fill="#ff99cc" stroke="#ff99cc" points="189.1027,-47.9882 197.393,-45.1193 192.013,-45.2441 194.9233,-42.5 194.9233,-42.5 194.9233,-42.5 192.013,-45.2441 192.4536,-39.8807 189.1027,-47.9882 189.1027,-47.9882"/>
<ellipse fill="none" stroke="#ff99cc" cx="186.7744" cy="-50.1835" rx="3.2" ry="3.2"/>
<text text-anchor="middle" x="127.8154" y="-116.3015" font-family="Monaco" font-size="9.00" fill="#000000">VerifiedBy</text>
</g>
<!-- Account -->
<g id="node4" class="node">
<title>Account</title>
<text text-anchor="middle" x="31.1038" y="-125.2" font-family="Courier,monospace" font-size="11.00" fill="#000000">Account</text>
</g>
<!-- IdentityDocument&#45;&gt;Account -->
<g id="edge4" class="edge">
<title>IdentityDocument:w&#45;&gt;Account:e</title>
<path fill="none" stroke="#ff99cc" d="M180.4113,-127.5123C138.0188,-127.5818 92.0715,-127.9309 62.5087,-128.1945"/>
<polygon fill="#ff99cc" stroke="#ff99cc" points="186.9233,-127.5068 194.9264,-131.1 190.9233,-127.5034 194.9233,-127.5 194.9233,-127.5 194.9233,-127.5 190.9233,-127.5034 194.9203,-123.9 186.9233,-127.5068 186.9233,-127.5068"/>
<ellipse fill="none" stroke="#ff99cc" cx="183.7233" cy="-127.5096" rx="3.2" ry="3.2"/>
<text text-anchor="middle" x="127.8154" y="-132.3015" font-family="Monaco" font-size="9.00" fill="#000000">RelatedLegalEntity</text>
</g>
<!-- Contact -->
<g id="node5" class="node">
<title>Contact</title>
<text text-anchor="middle" x="31.1038" y="-65.2" font-family="Courier,monospace" font-size="11.00" fill="#000000">Contact</text>
</g>
<!-- IdentityDocument&#45;&gt;Contact -->
<g id="edge5" class="edge">
<title>IdentityDocument:w&#45;&gt;Contact:e</title>
<path fill="none" stroke="#ff99cc" d="M182.9702,-119.062C180.2751,-105.4069 192.9564,-78.7612 176.4233,-66.4985 143.5931,-42.1482 94.1201,-49.4177 62.2149,-58.0394"/>
<polygon fill="#ff99cc" stroke="#ff99cc" points="188.3877,-122.8863 192.8472,-130.441 191.6555,-125.1932 194.9233,-127.5 194.9233,-127.5 194.9233,-127.5 191.6555,-125.1932 196.9995,-124.559 188.3877,-122.8863 188.3877,-122.8863"/>
<ellipse fill="none" stroke="#ff99cc" cx="185.7735" cy="-121.0409" rx="3.2" ry="3.2"/>
<text text-anchor="middle" x="127.8154" y="-71.3015" font-family="Monaco" font-size="9.00" fill="#000000">RelatedLegalEntity</text>
</g>
</g>
</svg>
