<?xml version="1.0" encoding="UTF-8" standalone="no"?>
<!DOCTYPE svg PUBLIC "-//W3C//DTD SVG 1.1//EN"
 "http://www.w3.org/Graphics/SVG/1.1/DTD/svg11.dtd">
<!-- Generated by graphviz version 2.40.1 (20161225.0304)
 -->
<!-- Title: Salesforce+ ERD Pages: 1 -->
<svg width="1070pt" height="180pt"
 viewBox="0.00 0.00 1070.04 180.00" xmlns="http://www.w3.org/2000/svg" xmlns:xlink="http://www.w3.org/1999/xlink">
<g id="graph0" class="graph" transform="scale(1 1) rotate(0) translate(4 176)">
<title>Salesforce+ ERD</title>
<polygon fill="#efeffd" stroke="transparent" points="-4,4 -4,-176 1066.0391,-176 1066.0391,4 -4,4"/>
<text text-anchor="middle" x="1013.5325" y="-5.8" font-family="Courier,monospace" font-size="9.00" fill="#000000">Salesforce ERD </text>
<!-- InsightsExternalDataPart -->
<g id="node1" class="node">
<title>InsightsExternalDataPart</title>
<g id="a_node1"><a xlink:href="#" xlink:title=" InsightsExternalDataPart ">
<polygon fill="#ffeeff" stroke="transparent" points="290.0391,-17 290.0391,-172 1062.0391,-172 1062.0391,-17 290.0391,-17"/>
<polygon fill="#add8e6" stroke="transparent" points="291.0391,-153.5 291.0391,-170.5 1061.0391,-170.5 1061.0391,-153.5 291.0391,-153.5"/>
<polygon fill="none" stroke="#99ccff" points="291.0391,-153.5 291.0391,-170.5 1061.0391,-170.5 1061.0391,-153.5 291.0391,-153.5"/>
<text text-anchor="start" x="596.8262" y="-159.7" font-family="Courier,monospace" font-weight="bold" font-size="11.00" fill="#000000">InsightsExternalDataPart</text>
<polygon fill="#99ccff" stroke="transparent" points="291.0391,-136.5 291.0391,-153.5 970.0391,-153.5 970.0391,-136.5 291.0391,-136.5"/>
<polygon fill="none" stroke="#99ccff" points="291.0391,-136.5 291.0391,-153.5 970.0391,-153.5 970.0391,-136.5 291.0391,-136.5"/>
<text text-anchor="start" x="294.0391" y="-142.7" font-family="Courier,monospace" font-size="11.00" fill="#000000"> &#160;&#160;&#160;&#160;&#160;&#160;&#160;&#160;&#160;&#160;&#160;&#160;&#160;&#160;&#160;&#160;&#160;&#160;&#160;&#160;&#160;&#160;&#160;&#160;&#160;&#160;&#160;&#160;&#160;&#160;&#160;&#160;&#160;&#160;&#160;&#160;&#160;&#160;&#160;&#160;&#160;&#160;</text>
<text text-anchor="start" x="577.8853" y="-142.7" font-family="Courier,monospace" font-weight="bold" font-size="11.00" fill="#000000">Id</text>
<text text-anchor="start" x="591.0874" y="-142.7" font-family="Courier,monospace" font-size="11.00" fill="#000000"> &#160;&#160;&#160;&#160;&#160;&#160;&#160;&#160;&#160;&#160;&#160;&#160;&#160;&#160;&#160;&#160;&#160;&#160;&#160;&#160;&#160;&#160;&#160;&#160;&#160;&#160;&#160;&#160;&#160;&#160;&#160;&#160;&#160;&#160;&#160;&#160;&#160;&#160;&#160;</text>
<polygon fill="none" stroke="#99ccff" points="970.0391,-136.5 970.0391,-153.5 1061.0391,-153.5 1061.0391,-136.5 970.0391,-136.5"/>
<text text-anchor="start" x="995.7358" y="-141.7" font-family="Courier,monospace" font-size="11.00" fill="#000000">id(18)</text>
<polygon fill="none" stroke="#99ccff" points="291.0391,-119.5 291.0391,-136.5 970.0391,-136.5 970.0391,-119.5 291.0391,-119.5"/>
<text text-anchor="start" x="294.0391" y="-124.7" font-family="Courier,monospace" font-size="11.00" fill="#000000"> &#160;&#160;&#160;&#160;&#160;&#160;&#160;&#160;&#160;&#160;&#160;&#160;&#160;&#160;&#160;&#160;&#160;&#160;&#160;&#160;&#160;&#160;&#160;&#160;&#160;&#160;&#160;&#160;&#160;&#160;&#160;&#160;&#160;&#160;&#160;&#160;&#160;&#160;&#160;&#160;IsDeleted &#160;&#160;&#160;&#160;&#160;&#160;&#160;&#160;&#160;&#160;&#160;&#160;&#160;&#160;&#160;&#160;&#160;&#160;&#160;&#160;&#160;&#160;&#160;&#160;&#160;&#160;&#160;&#160;&#160;&#160;&#160;&#160;&#160;&#160;&#160;&#160;&#160;&#160;</text>
<polygon fill="none" stroke="#99ccff" points="970.0391,-119.5 970.0391,-136.5 1061.0391,-136.5 1061.0391,-119.5 970.0391,-119.5"/>
<text text-anchor="start" x="992.4353" y="-124.7" font-family="Courier,monospace" font-size="11.00" fill="#000000">boolean</text>
<polygon fill="none" stroke="#99ccff" points="291.0391,-102.5 291.0391,-119.5 970.0391,-119.5 970.0391,-102.5 291.0391,-102.5"/>
<text text-anchor="start" x="294.0391" y="-107.7" font-family="Courier,monospace" font-size="11.00" fill="#000000"> &#160;&#160;&#160;&#160;&#160;&#160;&#160;&#160;&#160;&#160;&#160;&#160;&#160;&#160;&#160;&#160;&#160;&#160;&#160;&#160;&#160;&#160;&#160;&#160;&#160;&#160;&#160;&#160;&#160;&#160;&#160;&#160;&#160;&#160;&#160;&#160;&#160;&#160;&#160;&#160;LastModifiedById &#160;&#160;&#160;&#160;&#160;&#160;&#160;&#160;&#160;&#160;&#160;&#160;&#160;&#160;&#160;&#160;&#160;&#160;&#160;&#160;&#160;&#160;&#160;&#160;&#160;&#160;&#160;&#160;&#160;&#160;&#160;&#160;&#160;&#160;&#160;&#160;&#160;&#160;</text>
<polygon fill="none" stroke="#99ccff" points="970.0391,-102.5 970.0391,-119.5 1061.0391,-119.5 1061.0391,-102.5 970.0391,-102.5"/>
<text text-anchor="start" x="972.6321" y="-107.7" font-family="Courier,monospace" font-size="11.00" fill="#000000">reference(18)</text>
<polygon fill="none" stroke="#99ccff" points="291.0391,-85.5 291.0391,-102.5 970.0391,-102.5 970.0391,-85.5 291.0391,-85.5"/>
<text text-anchor="start" x="293.8843" y="-90.7" font-family="Courier,monospace" font-size="11.00" fill="#000000"> &#160;&#160;&#160;&#160;&#160;&#160;&#160;&#160;&#160;&#160;&#160;&#160;&#160;&#160;&#160;&#160;&#160;&#160;&#160;&#160;&#160;&#160;&#160;&#160;&#160;&#160;&#160;&#160;&#160;&#160;&#160;&#160;&#160;&#160;&#160;&#160;&#160;&#160;&#160;&#160;InsightsExternalDataId &#160;&#160;&#160;&#160;&#160;&#160;&#160;&#160;&#160;&#160;&#160;&#160;&#160;&#160;&#160;&#160;&#160;&#160;&#160;&#160;&#160;&#160;&#160;&#160;&#160;&#160;&#160;&#160;&#160;&#160;&#160;&#160;&#160;&#160;&#160;&#160;&#160;&#160;</text>
<polygon fill="none" stroke="#99ccff" points="970.0391,-85.5 970.0391,-102.5 1061.0391,-102.5 1061.0391,-85.5 970.0391,-85.5"/>
<text text-anchor="start" x="972.6321" y="-90.7" font-family="Courier,monospace" font-size="11.00" fill="#000000">reference(18)</text>
<polygon fill="none" stroke="#99ccff" points="291.0391,-68.5 291.0391,-85.5 970.0391,-85.5 970.0391,-68.5 291.0391,-68.5"/>
<text text-anchor="start" x="294.0391" y="-73.7" font-family="Courier,monospace" font-size="11.00" fill="#000000"> &#160;&#160;&#160;&#160;&#160;&#160;&#160;&#160;&#160;&#160;&#160;&#160;&#160;&#160;&#160;&#160;&#160;&#160;&#160;&#160;&#160;&#160;&#160;&#160;&#160;&#160;&#160;&#160;&#160;&#160;&#160;&#160;&#160;&#160;&#160;&#160;&#160;&#160;&#160;&#160;PartNumber &#160;&#160;&#160;&#160;&#160;&#160;&#160;&#160;&#160;&#160;&#160;&#160;&#160;&#160;&#160;&#160;&#160;&#160;&#160;&#160;&#160;&#160;&#160;&#160;&#160;&#160;&#160;&#160;&#160;&#160;&#160;&#160;&#160;&#160;&#160;&#160;&#160;&#160;</text>
<polygon fill="none" stroke="#99ccff" points="970.0391,-68.5 970.0391,-85.5 1061.0391,-85.5 1061.0391,-68.5 970.0391,-68.5"/>
<text text-anchor="start" x="1005.6375" y="-73.7" font-family="Courier,monospace" font-size="11.00" fill="#000000">int</text>
<polygon fill="none" stroke="#99ccff" points="291.0391,-51.5 291.0391,-68.5 970.0391,-68.5 970.0391,-51.5 291.0391,-51.5"/>
<text text-anchor="start" x="294.0391" y="-56.7" font-family="Courier,monospace" font-size="11.00" fill="#000000"> &#160;&#160;&#160;&#160;&#160;&#160;&#160;&#160;&#160;&#160;&#160;&#160;&#160;&#160;&#160;&#160;&#160;&#160;&#160;&#160;&#160;&#160;&#160;&#160;&#160;&#160;&#160;&#160;&#160;&#160;&#160;&#160;&#160;&#160;&#160;&#160;&#160;&#160;&#160;&#160;DataLength &#160;&#160;&#160;&#160;&#160;&#160;&#160;&#160;&#160;&#160;&#160;&#160;&#160;&#160;&#160;&#160;&#160;&#160;&#160;&#160;&#160;&#160;&#160;&#160;&#160;&#160;&#160;&#160;&#160;&#160;&#160;&#160;&#160;&#160;&#160;&#160;&#160;&#160;</text>
<polygon fill="none" stroke="#99ccff" points="970.0391,-51.5 970.0391,-68.5 1061.0391,-68.5 1061.0391,-51.5 970.0391,-51.5"/>
<text text-anchor="start" x="1005.6375" y="-56.7" font-family="Courier,monospace" font-size="11.00" fill="#000000">int</text>
<polygon fill="none" stroke="#99ccff" points="291.0391,-34.5 291.0391,-51.5 970.0391,-51.5 970.0391,-34.5 291.0391,-34.5"/>
<text text-anchor="start" x="294.0391" y="-39.7" font-family="Courier,monospace" font-size="11.00" fill="#000000"> &#160;&#160;&#160;&#160;&#160;&#160;&#160;&#160;&#160;&#160;&#160;&#160;&#160;&#160;&#160;&#160;&#160;&#160;&#160;&#160;&#160;&#160;&#160;&#160;&#160;&#160;&#160;&#160;&#160;&#160;&#160;&#160;&#160;&#160;&#160;&#160;&#160;&#160;&#160;&#160;CompressedDataLength &#160;&#160;&#160;&#160;&#160;&#160;&#160;&#160;&#160;&#160;&#160;&#160;&#160;&#160;&#160;&#160;&#160;&#160;&#160;&#160;&#160;&#160;&#160;&#160;&#160;&#160;&#160;&#160;&#160;&#160;&#160;&#160;&#160;&#160;&#160;&#160;&#160;&#160;</text>
<polygon fill="none" stroke="#99ccff" points="970.0391,-34.5 970.0391,-51.5 1061.0391,-51.5 1061.0391,-34.5 970.0391,-34.5"/>
<text text-anchor="start" x="1005.6375" y="-39.7" font-family="Courier,monospace" font-size="11.00" fill="#000000">int</text>
<polygon fill="none" stroke="#99ccff" points="291.0391,-17.5 291.0391,-34.5 970.0391,-34.5 970.0391,-17.5 291.0391,-17.5"/>
<text text-anchor="start" x="294.0391" y="-22.7" font-family="Courier,monospace" font-size="11.00" fill="#000000"> &#160;&#160;&#160;&#160;&#160;&#160;&#160;&#160;&#160;&#160;&#160;&#160;&#160;&#160;&#160;&#160;&#160;&#160;&#160;&#160;&#160;&#160;&#160;&#160;&#160;&#160;&#160;&#160;&#160;&#160;&#160;&#160;&#160;&#160;&#160;&#160;&#160;&#160;&#160;&#160;DataFile &#160;&#160;&#160;&#160;&#160;&#160;&#160;&#160;&#160;&#160;&#160;&#160;&#160;&#160;&#160;&#160;&#160;&#160;&#160;&#160;&#160;&#160;&#160;&#160;&#160;&#160;&#160;&#160;&#160;&#160;&#160;&#160;&#160;&#160;&#160;&#160;&#160;&#160;</text>
<polygon fill="none" stroke="#99ccff" points="970.0391,-17.5 970.0391,-34.5 1061.0391,-34.5 1061.0391,-17.5 970.0391,-17.5"/>
<text text-anchor="start" x="995.7358" y="-22.7" font-family="Courier,monospace" font-size="11.00" fill="#000000">base64</text>
<polygon fill="none" stroke="#99ccff" points="290.0391,-17 290.0391,-172 1062.0391,-172 1062.0391,-17 290.0391,-17"/>
</a>
</g>
</g>
<!-- User -->
<g id="node2" class="node">
<title>User</title>
<text text-anchor="middle" x="74.0107" y="-124.2" font-family="Courier,monospace" font-size="11.00" fill="#000000">User</text>
</g>
<!-- InsightsExternalDataPart&#45;&gt;User -->
<g id="edge1" class="edge">
<title>InsightsExternalDataPart:w&#45;&gt;User:e</title>
<path fill="none" stroke="#ff99cc" d="M276.4166,-111.6153C211.3514,-112.6144 139.1535,-119.8717 101.0312,-124.2236"/>
<polygon fill="#ff99cc" stroke="#ff99cc" points="283.0393,-111.5631 291.0675,-115.0999 287.0392,-111.5316 291.0391,-111.5 291.0391,-111.5 291.0391,-111.5 287.0392,-111.5316 291.0106,-107.9001 283.0393,-111.5631 283.0393,-111.5631"/>
<ellipse fill="none" stroke="#ff99cc" cx="279.8394" cy="-111.5884" rx="3.2" ry="3.2"/>
<text text-anchor="middle" x="219.0303" y="-122.3015" font-family="Monaco" font-size="9.00" fill="#000000">LastModifiedBy</text>
</g>
<!-- InsightsExternalData -->
<g id="node3" class="node">
<title>InsightsExternalData</title>
<text text-anchor="middle" x="74.0107" y="-75.2" font-family="Courier,monospace" font-size="11.00" fill="#000000">InsightsExternalData</text>
</g>
<!-- InsightsExternalDataPart&#45;&gt;InsightsExternalData -->
<g id="edge2" class="edge">
<title>InsightsExternalDataPart:w&#45;&gt;InsightsExternalData:e</title>
<path fill="none" stroke="#ff99cc" d="M276.3802,-93.3913C232.7386,-92.7613 185.8791,-89.4915 148.2528,-86.1758"/>
<polygon fill="#ff99cc" stroke="#ff99cc" points="283.0393,-93.4406 291.0123,-97.0999 287.0392,-93.4703 291.0391,-93.5 291.0391,-93.5 291.0391,-93.5 287.0392,-93.4703 291.0658,-89.9001 283.0393,-93.4406 283.0393,-93.4406"/>
<ellipse fill="none" stroke="#ff99cc" cx="279.8394" cy="-93.4169" rx="3.2" ry="3.2"/>
<text text-anchor="middle" x="219.0303" y="-97.3015" font-family="Monaco" font-size="9.00" fill="#000000">InsightsExternalData</text>
</g>
</g>
</svg>
