<?xml version="1.0" encoding="UTF-8" standalone="no"?>
<!DOCTYPE svg PUBLIC "-//W3C//DTD SVG 1.1//EN"
 "http://www.w3.org/Graphics/SVG/1.1/DTD/svg11.dtd">
<!-- Generated by graphviz version 2.40.1 (20161225.0304)
 -->
<!-- Title: Salesforce+ ERD Pages: 1 -->
<svg width="1022pt" height="234pt"
 viewBox="0.00 0.00 1022.03 234.00" xmlns="http://www.w3.org/2000/svg" xmlns:xlink="http://www.w3.org/1999/xlink">
<g id="graph0" class="graph" transform="scale(1 1) rotate(0) translate(4 230)">
<title>Salesforce+ ERD</title>
<polygon fill="#efeffd" stroke="transparent" points="-4,4 -4,-230 1018.0313,-230 1018.0313,4 -4,4"/>
<text text-anchor="middle" x="965.5247" y="-5.8" font-family="Courier,monospace" font-size="9.00" fill="#000000">Salesforce ERD </text>
<!-- InsurancePolicyAsset -->
<g id="node1" class="node">
<title>InsurancePolicyAsset</title>
<g id="a_node1"><a xlink:href="#" xlink:title=" InsurancePolicyAsset ">
<polygon fill="#ffeeff" stroke="transparent" points="242.0313,-20 242.0313,-226 1014.0313,-226 1014.0313,-20 242.0313,-20"/>
<polygon fill="#add8e6" stroke="transparent" points="243.0313,-208 243.0313,-225 1013.0313,-225 1013.0313,-208 243.0313,-208"/>
<polygon fill="none" stroke="#99ccff" points="243.0313,-208 243.0313,-225 1013.0313,-225 1013.0313,-208 243.0313,-208"/>
<text text-anchor="start" x="562.0205" y="-214.2" font-family="Courier,monospace" font-weight="bold" font-size="11.00" fill="#000000">InsurancePolicyAsset</text>
<polygon fill="#99ccff" stroke="transparent" points="243.0313,-191 243.0313,-208 922.0313,-208 922.0313,-191 243.0313,-191"/>
<polygon fill="none" stroke="#99ccff" points="243.0313,-191 243.0313,-208 922.0313,-208 922.0313,-191 243.0313,-191"/>
<text text-anchor="start" x="246.0313" y="-197.2" font-family="Courier,monospace" font-size="11.00" fill="#000000"> &#160;&#160;&#160;&#160;&#160;&#160;&#160;&#160;&#160;&#160;&#160;&#160;&#160;&#160;&#160;&#160;&#160;&#160;&#160;&#160;&#160;&#160;&#160;&#160;&#160;&#160;&#160;&#160;&#160;&#160;&#160;&#160;&#160;&#160;&#160;&#160;&#160;&#160;&#160;&#160;&#160;&#160;</text>
<text text-anchor="start" x="529.8774" y="-197.2" font-family="Courier,monospace" font-weight="bold" font-size="11.00" fill="#000000">Id</text>
<text text-anchor="start" x="543.0796" y="-197.2" font-family="Courier,monospace" font-size="11.00" fill="#000000"> &#160;&#160;&#160;&#160;&#160;&#160;&#160;&#160;&#160;&#160;&#160;&#160;&#160;&#160;&#160;&#160;&#160;&#160;&#160;&#160;&#160;&#160;&#160;&#160;&#160;&#160;&#160;&#160;&#160;&#160;&#160;&#160;&#160;&#160;&#160;&#160;&#160;&#160;&#160;</text>
<polygon fill="none" stroke="#99ccff" points="922.0313,-191 922.0313,-208 1013.0313,-208 1013.0313,-191 922.0313,-191"/>
<text text-anchor="start" x="947.728" y="-196.2" font-family="Courier,monospace" font-size="11.00" fill="#000000">id(18)</text>
<polygon fill="none" stroke="#99ccff" points="243.0313,-174 243.0313,-191 922.0313,-191 922.0313,-174 243.0313,-174"/>
<text text-anchor="start" x="246.0313" y="-179.2" font-family="Courier,monospace" font-size="11.00" fill="#000000"> &#160;&#160;&#160;&#160;&#160;&#160;&#160;&#160;&#160;&#160;&#160;&#160;&#160;&#160;&#160;&#160;&#160;&#160;&#160;&#160;&#160;&#160;&#160;&#160;&#160;&#160;&#160;&#160;&#160;&#160;&#160;&#160;&#160;&#160;&#160;&#160;&#160;&#160;&#160;&#160;OwnerId &#160;&#160;&#160;&#160;&#160;&#160;&#160;&#160;&#160;&#160;&#160;&#160;&#160;&#160;&#160;&#160;&#160;&#160;&#160;&#160;&#160;&#160;&#160;&#160;&#160;&#160;&#160;&#160;&#160;&#160;&#160;&#160;&#160;&#160;&#160;&#160;&#160;&#160;</text>
<polygon fill="none" stroke="#99ccff" points="922.0313,-174 922.0313,-191 1013.0313,-191 1013.0313,-174 922.0313,-174"/>
<text text-anchor="start" x="924.6243" y="-179.2" font-family="Courier,monospace" font-size="11.00" fill="#000000">reference(18)</text>
<polygon fill="none" stroke="#99ccff" points="243.0313,-157 243.0313,-174 922.0313,-174 922.0313,-157 243.0313,-157"/>
<text text-anchor="start" x="246.0313" y="-162.2" font-family="Courier,monospace" font-size="11.00" fill="#000000"> &#160;&#160;&#160;&#160;&#160;&#160;&#160;&#160;&#160;&#160;&#160;&#160;&#160;&#160;&#160;&#160;&#160;&#160;&#160;&#160;&#160;&#160;&#160;&#160;&#160;&#160;&#160;&#160;&#160;&#160;&#160;&#160;&#160;&#160;&#160;&#160;&#160;&#160;&#160;&#160;IsDeleted &#160;&#160;&#160;&#160;&#160;&#160;&#160;&#160;&#160;&#160;&#160;&#160;&#160;&#160;&#160;&#160;&#160;&#160;&#160;&#160;&#160;&#160;&#160;&#160;&#160;&#160;&#160;&#160;&#160;&#160;&#160;&#160;&#160;&#160;&#160;&#160;&#160;&#160;</text>
<polygon fill="none" stroke="#99ccff" points="922.0313,-157 922.0313,-174 1013.0313,-174 1013.0313,-157 922.0313,-157"/>
<text text-anchor="start" x="944.4275" y="-162.2" font-family="Courier,monospace" font-size="11.00" fill="#000000">boolean</text>
<polygon fill="none" stroke="#99ccff" points="243.0313,-140 243.0313,-157 922.0313,-157 922.0313,-140 243.0313,-140"/>
<text text-anchor="start" x="246.0313" y="-145.2" font-family="Courier,monospace" font-size="11.00" fill="#000000"> &#160;&#160;&#160;&#160;&#160;&#160;&#160;&#160;&#160;&#160;&#160;&#160;&#160;&#160;&#160;&#160;&#160;&#160;&#160;&#160;&#160;&#160;&#160;&#160;&#160;&#160;&#160;&#160;&#160;&#160;&#160;&#160;&#160;&#160;&#160;&#160;&#160;&#160;&#160;&#160;Name &#160;&#160;&#160;&#160;&#160;&#160;&#160;&#160;&#160;&#160;&#160;&#160;&#160;&#160;&#160;&#160;&#160;&#160;&#160;&#160;&#160;&#160;&#160;&#160;&#160;&#160;&#160;&#160;&#160;&#160;&#160;&#160;&#160;&#160;&#160;&#160;&#160;&#160;</text>
<polygon fill="none" stroke="#99ccff" points="922.0313,-140 922.0313,-157 1013.0313,-157 1013.0313,-140 922.0313,-140"/>
<text text-anchor="start" x="931.2253" y="-145.2" font-family="Courier,monospace" font-size="11.00" fill="#000000">string(255)</text>
<polygon fill="none" stroke="#99ccff" points="243.0313,-123 243.0313,-140 922.0313,-140 922.0313,-123 243.0313,-123"/>
<text text-anchor="start" x="246.0313" y="-128.2" font-family="Courier,monospace" font-size="11.00" fill="#000000"> &#160;&#160;&#160;&#160;&#160;&#160;&#160;&#160;&#160;&#160;&#160;&#160;&#160;&#160;&#160;&#160;&#160;&#160;&#160;&#160;&#160;&#160;&#160;&#160;&#160;&#160;&#160;&#160;&#160;&#160;&#160;&#160;&#160;&#160;&#160;&#160;&#160;&#160;&#160;&#160;LastModifiedById &#160;&#160;&#160;&#160;&#160;&#160;&#160;&#160;&#160;&#160;&#160;&#160;&#160;&#160;&#160;&#160;&#160;&#160;&#160;&#160;&#160;&#160;&#160;&#160;&#160;&#160;&#160;&#160;&#160;&#160;&#160;&#160;&#160;&#160;&#160;&#160;&#160;&#160;</text>
<polygon fill="none" stroke="#99ccff" points="922.0313,-123 922.0313,-140 1013.0313,-140 1013.0313,-123 922.0313,-123"/>
<text text-anchor="start" x="924.6243" y="-128.2" font-family="Courier,monospace" font-size="11.00" fill="#000000">reference(18)</text>
<polygon fill="none" stroke="#99ccff" points="243.0313,-106 243.0313,-123 922.0313,-123 922.0313,-106 243.0313,-106"/>
<text text-anchor="start" x="246.0313" y="-111.2" font-family="Courier,monospace" font-size="11.00" fill="#000000"> &#160;&#160;&#160;&#160;&#160;&#160;&#160;&#160;&#160;&#160;&#160;&#160;&#160;&#160;&#160;&#160;&#160;&#160;&#160;&#160;&#160;&#160;&#160;&#160;&#160;&#160;&#160;&#160;&#160;&#160;&#160;&#160;&#160;&#160;&#160;&#160;&#160;&#160;&#160;&#160;LastViewedDate &#160;&#160;&#160;&#160;&#160;&#160;&#160;&#160;&#160;&#160;&#160;&#160;&#160;&#160;&#160;&#160;&#160;&#160;&#160;&#160;&#160;&#160;&#160;&#160;&#160;&#160;&#160;&#160;&#160;&#160;&#160;&#160;&#160;&#160;&#160;&#160;&#160;&#160;</text>
<polygon fill="none" stroke="#99ccff" points="922.0313,-106 922.0313,-123 1013.0313,-123 1013.0313,-106 922.0313,-106"/>
<text text-anchor="start" x="941.127" y="-111.2" font-family="Courier,monospace" font-size="11.00" fill="#000000">datetime</text>
<polygon fill="none" stroke="#99ccff" points="243.0313,-89 243.0313,-106 922.0313,-106 922.0313,-89 243.0313,-89"/>
<text text-anchor="start" x="246.0313" y="-94.2" font-family="Courier,monospace" font-size="11.00" fill="#000000"> &#160;&#160;&#160;&#160;&#160;&#160;&#160;&#160;&#160;&#160;&#160;&#160;&#160;&#160;&#160;&#160;&#160;&#160;&#160;&#160;&#160;&#160;&#160;&#160;&#160;&#160;&#160;&#160;&#160;&#160;&#160;&#160;&#160;&#160;&#160;&#160;&#160;&#160;&#160;&#160;LastReferencedDate &#160;&#160;&#160;&#160;&#160;&#160;&#160;&#160;&#160;&#160;&#160;&#160;&#160;&#160;&#160;&#160;&#160;&#160;&#160;&#160;&#160;&#160;&#160;&#160;&#160;&#160;&#160;&#160;&#160;&#160;&#160;&#160;&#160;&#160;&#160;&#160;&#160;&#160;</text>
<polygon fill="none" stroke="#99ccff" points="922.0313,-89 922.0313,-106 1013.0313,-106 1013.0313,-89 922.0313,-89"/>
<text text-anchor="start" x="941.127" y="-94.2" font-family="Courier,monospace" font-size="11.00" fill="#000000">datetime</text>
<polygon fill="none" stroke="#99ccff" points="243.0313,-72 243.0313,-89 922.0313,-89 922.0313,-72 243.0313,-72"/>
<text text-anchor="start" x="246.0313" y="-77.2" font-family="Courier,monospace" font-size="11.00" fill="#000000"> &#160;&#160;&#160;&#160;&#160;&#160;&#160;&#160;&#160;&#160;&#160;&#160;&#160;&#160;&#160;&#160;&#160;&#160;&#160;&#160;&#160;&#160;&#160;&#160;&#160;&#160;&#160;&#160;&#160;&#160;&#160;&#160;&#160;&#160;&#160;&#160;&#160;&#160;&#160;&#160;InsurancePolicyId &#160;&#160;&#160;&#160;&#160;&#160;&#160;&#160;&#160;&#160;&#160;&#160;&#160;&#160;&#160;&#160;&#160;&#160;&#160;&#160;&#160;&#160;&#160;&#160;&#160;&#160;&#160;&#160;&#160;&#160;&#160;&#160;&#160;&#160;&#160;&#160;&#160;&#160;</text>
<polygon fill="none" stroke="#99ccff" points="922.0313,-72 922.0313,-89 1013.0313,-89 1013.0313,-72 922.0313,-72"/>
<text text-anchor="start" x="924.6243" y="-77.2" font-family="Courier,monospace" font-size="11.00" fill="#000000">reference(18)</text>
<polygon fill="none" stroke="#99ccff" points="243.0313,-55 243.0313,-72 922.0313,-72 922.0313,-55 243.0313,-55"/>
<text text-anchor="start" x="246.0313" y="-60.2" font-family="Courier,monospace" font-size="11.00" fill="#000000"> &#160;&#160;&#160;&#160;&#160;&#160;&#160;&#160;&#160;&#160;&#160;&#160;&#160;&#160;&#160;&#160;&#160;&#160;&#160;&#160;&#160;&#160;&#160;&#160;&#160;&#160;&#160;&#160;&#160;&#160;&#160;&#160;&#160;&#160;&#160;&#160;&#160;&#160;&#160;&#160;CustomerPropertyId &#160;&#160;&#160;&#160;&#160;&#160;&#160;&#160;&#160;&#160;&#160;&#160;&#160;&#160;&#160;&#160;&#160;&#160;&#160;&#160;&#160;&#160;&#160;&#160;&#160;&#160;&#160;&#160;&#160;&#160;&#160;&#160;&#160;&#160;&#160;&#160;&#160;&#160;</text>
<polygon fill="none" stroke="#99ccff" points="922.0313,-55 922.0313,-72 1013.0313,-72 1013.0313,-55 922.0313,-55"/>
<text text-anchor="start" x="924.6243" y="-60.2" font-family="Courier,monospace" font-size="11.00" fill="#000000">reference(18)</text>
<polygon fill="none" stroke="#99ccff" points="243.0313,-38 243.0313,-55 922.0313,-55 922.0313,-38 243.0313,-38"/>
<text text-anchor="start" x="245.8765" y="-43.2" font-family="Courier,monospace" font-size="11.00" fill="#000000"> &#160;&#160;&#160;&#160;&#160;&#160;&#160;&#160;&#160;&#160;&#160;&#160;&#160;&#160;&#160;&#160;&#160;&#160;&#160;&#160;&#160;&#160;&#160;&#160;&#160;&#160;&#160;&#160;&#160;&#160;&#160;&#160;&#160;&#160;&#160;&#160;&#160;&#160;&#160;&#160;SourceSystemIdentifier &#160;&#160;&#160;&#160;&#160;&#160;&#160;&#160;&#160;&#160;&#160;&#160;&#160;&#160;&#160;&#160;&#160;&#160;&#160;&#160;&#160;&#160;&#160;&#160;&#160;&#160;&#160;&#160;&#160;&#160;&#160;&#160;&#160;&#160;&#160;&#160;&#160;&#160;</text>
<polygon fill="none" stroke="#99ccff" points="922.0313,-38 922.0313,-55 1013.0313,-55 1013.0313,-38 922.0313,-38"/>
<text text-anchor="start" x="931.2253" y="-43.2" font-family="Courier,monospace" font-size="11.00" fill="#000000">string(255)</text>
<polygon fill="none" stroke="#99ccff" points="243.0313,-21 243.0313,-38 922.0313,-38 922.0313,-21 243.0313,-21"/>
<text text-anchor="start" x="246.0313" y="-26.2" font-family="Courier,monospace" font-size="11.00" fill="#000000"> &#160;&#160;&#160;&#160;&#160;&#160;&#160;&#160;&#160;&#160;&#160;&#160;&#160;&#160;&#160;&#160;&#160;&#160;&#160;&#160;&#160;&#160;&#160;&#160;&#160;&#160;&#160;&#160;&#160;&#160;&#160;&#160;&#160;&#160;&#160;&#160;&#160;&#160;&#160;&#160;SourceSystem &#160;&#160;&#160;&#160;&#160;&#160;&#160;&#160;&#160;&#160;&#160;&#160;&#160;&#160;&#160;&#160;&#160;&#160;&#160;&#160;&#160;&#160;&#160;&#160;&#160;&#160;&#160;&#160;&#160;&#160;&#160;&#160;&#160;&#160;&#160;&#160;&#160;&#160;</text>
<polygon fill="none" stroke="#99ccff" points="922.0313,-21 922.0313,-38 1013.0313,-38 1013.0313,-21 922.0313,-21"/>
<text text-anchor="start" x="931.2253" y="-26.2" font-family="Courier,monospace" font-size="11.00" fill="#000000">string(255)</text>
<polygon fill="none" stroke="#99ccff" points="242.0313,-20 242.0313,-226 1014.0313,-226 1014.0313,-20 242.0313,-20"/>
</a>
</g>
</g>
<!-- Group -->
<g id="node2" class="node">
<title>Group</title>
<text text-anchor="middle" x="60.8086" y="-188.7" font-family="Courier,monospace" font-size="11.00" fill="#000000">Group</text>
</g>
<!-- InsurancePolicyAsset&#45;&gt;Group -->
<g id="edge1" class="edge">
<title>InsurancePolicyAsset:w&#45;&gt;Group:e</title>
<path fill="none" stroke="#ff99cc" d="M228.3105,-183.0925C176.824,-183.7193 120.4141,-187.3919 87.9557,-189.8214"/>
<polygon fill="#ff99cc" stroke="#ff99cc" points="235.0314,-183.0503 243.0539,-186.5999 239.0313,-183.0252 243.0313,-183 243.0313,-183 243.0313,-183 239.0313,-183.0252 243.0086,-179.4001 235.0314,-183.0503 235.0314,-183.0503"/>
<ellipse fill="none" stroke="#ff99cc" cx="231.8315" cy="-183.0705" rx="3.2" ry="3.2"/>
<text text-anchor="middle" x="181.8242" y="-190.8015" font-family="Monaco" font-size="9.00" fill="#000000">Owner</text>
</g>
<!-- User -->
<g id="node3" class="node">
<title>User</title>
<text text-anchor="middle" x="60.8086" y="-136.7" font-family="Courier,monospace" font-size="11.00" fill="#000000">User</text>
</g>
<!-- InsurancePolicyAsset&#45;&gt;User -->
<g id="edge2" class="edge">
<title>InsurancePolicyAsset:w&#45;&gt;User:e</title>
<path fill="none" stroke="#ff99cc" d="M232.3732,-172.7637C230.9181,-169.4493 229.0643,-166.092 225.0313,-163.9985 201.6952,-151.8856 128.1711,-144.8467 87.8759,-141.8033"/>
<polygon fill="#ff99cc" stroke="#ff99cc" points="237.2614,-177.4584 240.5375,-185.5964 240.1463,-180.2292 243.0313,-183 243.0313,-183 243.0313,-183 240.1463,-180.2292 245.525,-180.4036 237.2614,-177.4584 237.2614,-177.4584"/>
<ellipse fill="none" stroke="#ff99cc" cx="234.9534" cy="-175.2418" rx="3.2" ry="3.2"/>
<text text-anchor="middle" x="181.8242" y="-167.8015" font-family="Monaco" font-size="9.00" fill="#000000">Owner</text>
</g>
<!-- InsurancePolicyAsset&#45;&gt;User -->
<g id="edge3" class="edge">
<title>InsurancePolicyAsset:w&#45;&gt;User:e</title>
<path fill="none" stroke="#ff99cc" d="M228.3899,-131.1385C227.3869,-131.0817 226.2827,-131.0333 225.0313,-130.9985 186.6398,-129.9314 176.9598,-128.788 138.6172,-130.9985 121.783,-131.9691 103.0015,-134.1113 88.1088,-136.0625"/>
<polygon fill="#ff99cc" stroke="#ff99cc" points="235.0451,-131.5301 242.8198,-135.5938 239.0382,-131.765 243.0313,-132 243.0313,-132 243.0313,-132 239.0382,-131.765 243.2427,-128.4062 235.0451,-131.5301 235.0451,-131.5301"/>
<ellipse fill="none" stroke="#ff99cc" cx="231.8506" cy="-131.3421" rx="3.2" ry="3.2"/>
<text text-anchor="middle" x="181.8242" y="-134.8015" font-family="Monaco" font-size="9.00" fill="#000000">LastModifiedBy</text>
</g>
<!-- InsurancePolicy -->
<g id="node4" class="node">
<title>InsurancePolicy</title>
<text text-anchor="middle" x="60.8086" y="-80.7" font-family="Courier,monospace" font-size="11.00" fill="#000000">InsurancePolicy</text>
</g>
<!-- InsurancePolicyAsset&#45;&gt;InsurancePolicy -->
<g id="edge4" class="edge">
<title>InsurancePolicyAsset:w&#45;&gt;InsurancePolicy:e</title>
<path fill="none" stroke="#ff99cc" d="M228.2091,-80.0417C190.5705,-80.247 150.2794,-81.1757 118.6588,-82.082"/>
<polygon fill="#ff99cc" stroke="#ff99cc" points="235.0313,-80.0226 243.0414,-83.6 239.0313,-80.0113 243.0313,-80 243.0313,-80 243.0313,-80 239.0313,-80.0113 243.0211,-76.4 235.0313,-80.0226 235.0313,-80.0226"/>
<ellipse fill="none" stroke="#ff99cc" cx="231.8313" cy="-80.0316" rx="3.2" ry="3.2"/>
<text text-anchor="middle" x="181.8242" y="-85.8015" font-family="Monaco" font-size="9.00" fill="#000000">InsurancePolicy</text>
</g>
<!-- CustomerProperty -->
<g id="node5" class="node">
<title>CustomerProperty</title>
<text text-anchor="middle" x="60.8086" y="-31.7" font-family="Courier,monospace" font-size="11.00" fill="#000000">CustomerProperty</text>
</g>
<!-- InsurancePolicyAsset&#45;&gt;CustomerProperty -->
<g id="edge5" class="edge">
<title>InsurancePolicyAsset:w&#45;&gt;CustomerProperty:e</title>
<path fill="none" stroke="#ff99cc" d="M228.5204,-62.725C191.7297,-61.3718 152.7308,-55.2375 121.6073,-49.082"/>
<polygon fill="#ff99cc" stroke="#ff99cc" points="235.0327,-62.8484 242.963,-66.5994 239.032,-62.9242 243.0313,-63 243.0313,-63 243.0313,-63 239.032,-62.9242 243.0995,-59.4006 235.0327,-62.8484 235.0327,-62.8484"/>
<ellipse fill="none" stroke="#ff99cc" cx="231.8333" cy="-62.7877" rx="3.2" ry="3.2"/>
<text text-anchor="middle" x="181.8242" y="-67.8015" font-family="Monaco" font-size="9.00" fill="#000000">CustomerProperty</text>
</g>
</g>
</svg>
