<?xml version="1.0" encoding="UTF-8" standalone="no"?>
<!DOCTYPE svg PUBLIC "-//W3C//DTD SVG 1.1//EN"
 "http://www.w3.org/Graphics/SVG/1.1/DTD/svg11.dtd">
<!-- Generated by graphviz version 2.40.1 (20161225.0304)
 -->
<!-- Title: Salesforce+ ERD Pages: 1 -->
<svg width="952pt" height="384pt"
 viewBox="0.00 0.00 951.82 384.00" xmlns="http://www.w3.org/2000/svg" xmlns:xlink="http://www.w3.org/1999/xlink">
<g id="graph0" class="graph" transform="scale(1 1) rotate(0) translate(4 380)">
<title>Salesforce+ ERD</title>
<polygon fill="#efeffd" stroke="transparent" points="-4,4 -4,-380 947.8198,-380 947.8198,4 -4,4"/>
<text text-anchor="middle" x="895.3132" y="-5.8" font-family="Courier,monospace" font-size="9.00" fill="#000000">Salesforce ERD </text>
<!-- InsuranceProfile -->
<g id="node1" class="node">
<title>InsuranceProfile</title>
<g id="a_node1"><a xlink:href="#" xlink:title=" InsuranceProfile ">
<polygon fill="#ffeeff" stroke="transparent" points="171.8198,-17 171.8198,-376 943.8198,-376 943.8198,-17 171.8198,-17"/>
<polygon fill="#add8e6" stroke="transparent" points="172.8198,-357.5 172.8198,-374.5 942.8198,-374.5 942.8198,-357.5 172.8198,-357.5"/>
<polygon fill="none" stroke="#99ccff" points="172.8198,-357.5 172.8198,-374.5 942.8198,-374.5 942.8198,-357.5 172.8198,-357.5"/>
<text text-anchor="start" x="505.0112" y="-363.7" font-family="Courier,monospace" font-weight="bold" font-size="11.00" fill="#000000">InsuranceProfile</text>
<polygon fill="#99ccff" stroke="transparent" points="172.8198,-340.5 172.8198,-357.5 851.8198,-357.5 851.8198,-340.5 172.8198,-340.5"/>
<polygon fill="none" stroke="#99ccff" points="172.8198,-340.5 172.8198,-357.5 851.8198,-357.5 851.8198,-340.5 172.8198,-340.5"/>
<text text-anchor="start" x="175.8198" y="-346.7" font-family="Courier,monospace" font-size="11.00" fill="#000000"> &#160;&#160;&#160;&#160;&#160;&#160;&#160;&#160;&#160;&#160;&#160;&#160;&#160;&#160;&#160;&#160;&#160;&#160;&#160;&#160;&#160;&#160;&#160;&#160;&#160;&#160;&#160;&#160;&#160;&#160;&#160;&#160;&#160;&#160;&#160;&#160;&#160;&#160;&#160;&#160;&#160;&#160;</text>
<text text-anchor="start" x="459.666" y="-346.7" font-family="Courier,monospace" font-weight="bold" font-size="11.00" fill="#000000">Id</text>
<text text-anchor="start" x="472.8682" y="-346.7" font-family="Courier,monospace" font-size="11.00" fill="#000000"> &#160;&#160;&#160;&#160;&#160;&#160;&#160;&#160;&#160;&#160;&#160;&#160;&#160;&#160;&#160;&#160;&#160;&#160;&#160;&#160;&#160;&#160;&#160;&#160;&#160;&#160;&#160;&#160;&#160;&#160;&#160;&#160;&#160;&#160;&#160;&#160;&#160;&#160;&#160;</text>
<polygon fill="none" stroke="#99ccff" points="851.8198,-340.5 851.8198,-357.5 942.8198,-357.5 942.8198,-340.5 851.8198,-340.5"/>
<text text-anchor="start" x="877.5166" y="-345.7" font-family="Courier,monospace" font-size="11.00" fill="#000000">id(18)</text>
<polygon fill="none" stroke="#99ccff" points="172.8198,-323.5 172.8198,-340.5 851.8198,-340.5 851.8198,-323.5 172.8198,-323.5"/>
<text text-anchor="start" x="175.8198" y="-328.7" font-family="Courier,monospace" font-size="11.00" fill="#000000"> &#160;&#160;&#160;&#160;&#160;&#160;&#160;&#160;&#160;&#160;&#160;&#160;&#160;&#160;&#160;&#160;&#160;&#160;&#160;&#160;&#160;&#160;&#160;&#160;&#160;&#160;&#160;&#160;&#160;&#160;&#160;&#160;&#160;&#160;&#160;&#160;&#160;&#160;&#160;&#160;IsDeleted &#160;&#160;&#160;&#160;&#160;&#160;&#160;&#160;&#160;&#160;&#160;&#160;&#160;&#160;&#160;&#160;&#160;&#160;&#160;&#160;&#160;&#160;&#160;&#160;&#160;&#160;&#160;&#160;&#160;&#160;&#160;&#160;&#160;&#160;&#160;&#160;&#160;&#160;</text>
<polygon fill="none" stroke="#99ccff" points="851.8198,-323.5 851.8198,-340.5 942.8198,-340.5 942.8198,-323.5 851.8198,-323.5"/>
<text text-anchor="start" x="874.2161" y="-328.7" font-family="Courier,monospace" font-size="11.00" fill="#000000">boolean</text>
<polygon fill="none" stroke="#99ccff" points="172.8198,-306.5 172.8198,-323.5 851.8198,-323.5 851.8198,-306.5 172.8198,-306.5"/>
<text text-anchor="start" x="175.8198" y="-311.7" font-family="Courier,monospace" font-size="11.00" fill="#000000"> &#160;&#160;&#160;&#160;&#160;&#160;&#160;&#160;&#160;&#160;&#160;&#160;&#160;&#160;&#160;&#160;&#160;&#160;&#160;&#160;&#160;&#160;&#160;&#160;&#160;&#160;&#160;&#160;&#160;&#160;&#160;&#160;&#160;&#160;&#160;&#160;&#160;&#160;&#160;&#160;Name &#160;&#160;&#160;&#160;&#160;&#160;&#160;&#160;&#160;&#160;&#160;&#160;&#160;&#160;&#160;&#160;&#160;&#160;&#160;&#160;&#160;&#160;&#160;&#160;&#160;&#160;&#160;&#160;&#160;&#160;&#160;&#160;&#160;&#160;&#160;&#160;&#160;&#160;</text>
<polygon fill="none" stroke="#99ccff" points="851.8198,-306.5 851.8198,-323.5 942.8198,-323.5 942.8198,-306.5 851.8198,-306.5"/>
<text text-anchor="start" x="861.0139" y="-311.7" font-family="Courier,monospace" font-size="11.00" fill="#000000">string(255)</text>
<polygon fill="none" stroke="#99ccff" points="172.8198,-289.5 172.8198,-306.5 851.8198,-306.5 851.8198,-289.5 172.8198,-289.5"/>
<text text-anchor="start" x="175.8198" y="-294.7" font-family="Courier,monospace" font-size="11.00" fill="#000000"> &#160;&#160;&#160;&#160;&#160;&#160;&#160;&#160;&#160;&#160;&#160;&#160;&#160;&#160;&#160;&#160;&#160;&#160;&#160;&#160;&#160;&#160;&#160;&#160;&#160;&#160;&#160;&#160;&#160;&#160;&#160;&#160;&#160;&#160;&#160;&#160;&#160;&#160;&#160;&#160;LastModifiedById &#160;&#160;&#160;&#160;&#160;&#160;&#160;&#160;&#160;&#160;&#160;&#160;&#160;&#160;&#160;&#160;&#160;&#160;&#160;&#160;&#160;&#160;&#160;&#160;&#160;&#160;&#160;&#160;&#160;&#160;&#160;&#160;&#160;&#160;&#160;&#160;&#160;&#160;</text>
<polygon fill="none" stroke="#99ccff" points="851.8198,-289.5 851.8198,-306.5 942.8198,-306.5 942.8198,-289.5 851.8198,-289.5"/>
<text text-anchor="start" x="854.4128" y="-294.7" font-family="Courier,monospace" font-size="11.00" fill="#000000">reference(18)</text>
<polygon fill="none" stroke="#99ccff" points="172.8198,-272.5 172.8198,-289.5 851.8198,-289.5 851.8198,-272.5 172.8198,-272.5"/>
<text text-anchor="start" x="175.8198" y="-277.7" font-family="Courier,monospace" font-size="11.00" fill="#000000"> &#160;&#160;&#160;&#160;&#160;&#160;&#160;&#160;&#160;&#160;&#160;&#160;&#160;&#160;&#160;&#160;&#160;&#160;&#160;&#160;&#160;&#160;&#160;&#160;&#160;&#160;&#160;&#160;&#160;&#160;&#160;&#160;&#160;&#160;&#160;&#160;&#160;&#160;&#160;&#160;LastViewedDate &#160;&#160;&#160;&#160;&#160;&#160;&#160;&#160;&#160;&#160;&#160;&#160;&#160;&#160;&#160;&#160;&#160;&#160;&#160;&#160;&#160;&#160;&#160;&#160;&#160;&#160;&#160;&#160;&#160;&#160;&#160;&#160;&#160;&#160;&#160;&#160;&#160;&#160;</text>
<polygon fill="none" stroke="#99ccff" points="851.8198,-272.5 851.8198,-289.5 942.8198,-289.5 942.8198,-272.5 851.8198,-272.5"/>
<text text-anchor="start" x="870.9155" y="-277.7" font-family="Courier,monospace" font-size="11.00" fill="#000000">datetime</text>
<polygon fill="none" stroke="#99ccff" points="172.8198,-255.5 172.8198,-272.5 851.8198,-272.5 851.8198,-255.5 172.8198,-255.5"/>
<text text-anchor="start" x="175.8198" y="-260.7" font-family="Courier,monospace" font-size="11.00" fill="#000000"> &#160;&#160;&#160;&#160;&#160;&#160;&#160;&#160;&#160;&#160;&#160;&#160;&#160;&#160;&#160;&#160;&#160;&#160;&#160;&#160;&#160;&#160;&#160;&#160;&#160;&#160;&#160;&#160;&#160;&#160;&#160;&#160;&#160;&#160;&#160;&#160;&#160;&#160;&#160;&#160;LastReferencedDate &#160;&#160;&#160;&#160;&#160;&#160;&#160;&#160;&#160;&#160;&#160;&#160;&#160;&#160;&#160;&#160;&#160;&#160;&#160;&#160;&#160;&#160;&#160;&#160;&#160;&#160;&#160;&#160;&#160;&#160;&#160;&#160;&#160;&#160;&#160;&#160;&#160;&#160;</text>
<polygon fill="none" stroke="#99ccff" points="851.8198,-255.5 851.8198,-272.5 942.8198,-272.5 942.8198,-255.5 851.8198,-255.5"/>
<text text-anchor="start" x="870.9155" y="-260.7" font-family="Courier,monospace" font-size="11.00" fill="#000000">datetime</text>
<polygon fill="none" stroke="#99ccff" points="172.8198,-238.5 172.8198,-255.5 851.8198,-255.5 851.8198,-238.5 172.8198,-238.5"/>
<text text-anchor="start" x="175.8198" y="-243.7" font-family="Courier,monospace" font-size="11.00" fill="#000000"> &#160;&#160;&#160;&#160;&#160;&#160;&#160;&#160;&#160;&#160;&#160;&#160;&#160;&#160;&#160;&#160;&#160;&#160;&#160;&#160;&#160;&#160;&#160;&#160;&#160;&#160;&#160;&#160;&#160;&#160;&#160;&#160;&#160;&#160;&#160;&#160;&#160;&#160;&#160;&#160;ContactId &#160;&#160;&#160;&#160;&#160;&#160;&#160;&#160;&#160;&#160;&#160;&#160;&#160;&#160;&#160;&#160;&#160;&#160;&#160;&#160;&#160;&#160;&#160;&#160;&#160;&#160;&#160;&#160;&#160;&#160;&#160;&#160;&#160;&#160;&#160;&#160;&#160;&#160;</text>
<polygon fill="none" stroke="#99ccff" points="851.8198,-238.5 851.8198,-255.5 942.8198,-255.5 942.8198,-238.5 851.8198,-238.5"/>
<text text-anchor="start" x="854.4128" y="-243.7" font-family="Courier,monospace" font-size="11.00" fill="#000000">reference(18)</text>
<polygon fill="none" stroke="#99ccff" points="172.8198,-221.5 172.8198,-238.5 851.8198,-238.5 851.8198,-221.5 172.8198,-221.5"/>
<text text-anchor="start" x="175.8198" y="-226.7" font-family="Courier,monospace" font-size="11.00" fill="#000000"> &#160;&#160;&#160;&#160;&#160;&#160;&#160;&#160;&#160;&#160;&#160;&#160;&#160;&#160;&#160;&#160;&#160;&#160;&#160;&#160;&#160;&#160;&#160;&#160;&#160;&#160;&#160;&#160;&#160;&#160;&#160;&#160;&#160;&#160;&#160;&#160;&#160;&#160;&#160;&#160;MajorCitationCount &#160;&#160;&#160;&#160;&#160;&#160;&#160;&#160;&#160;&#160;&#160;&#160;&#160;&#160;&#160;&#160;&#160;&#160;&#160;&#160;&#160;&#160;&#160;&#160;&#160;&#160;&#160;&#160;&#160;&#160;&#160;&#160;&#160;&#160;&#160;&#160;&#160;&#160;</text>
<polygon fill="none" stroke="#99ccff" points="851.8198,-221.5 851.8198,-238.5 942.8198,-238.5 942.8198,-221.5 851.8198,-221.5"/>
<text text-anchor="start" x="887.4182" y="-226.7" font-family="Courier,monospace" font-size="11.00" fill="#000000">int</text>
<polygon fill="none" stroke="#99ccff" points="172.8198,-204.5 172.8198,-221.5 851.8198,-221.5 851.8198,-204.5 172.8198,-204.5"/>
<text text-anchor="start" x="175.8198" y="-209.7" font-family="Courier,monospace" font-size="11.00" fill="#000000"> &#160;&#160;&#160;&#160;&#160;&#160;&#160;&#160;&#160;&#160;&#160;&#160;&#160;&#160;&#160;&#160;&#160;&#160;&#160;&#160;&#160;&#160;&#160;&#160;&#160;&#160;&#160;&#160;&#160;&#160;&#160;&#160;&#160;&#160;&#160;&#160;&#160;&#160;&#160;&#160;MinorCitationCount &#160;&#160;&#160;&#160;&#160;&#160;&#160;&#160;&#160;&#160;&#160;&#160;&#160;&#160;&#160;&#160;&#160;&#160;&#160;&#160;&#160;&#160;&#160;&#160;&#160;&#160;&#160;&#160;&#160;&#160;&#160;&#160;&#160;&#160;&#160;&#160;&#160;&#160;</text>
<polygon fill="none" stroke="#99ccff" points="851.8198,-204.5 851.8198,-221.5 942.8198,-221.5 942.8198,-204.5 851.8198,-204.5"/>
<text text-anchor="start" x="887.4182" y="-209.7" font-family="Courier,monospace" font-size="11.00" fill="#000000">int</text>
<polygon fill="none" stroke="#99ccff" points="172.8198,-187.5 172.8198,-204.5 851.8198,-204.5 851.8198,-187.5 172.8198,-187.5"/>
<text text-anchor="start" x="175.8198" y="-192.7" font-family="Courier,monospace" font-size="11.00" fill="#000000"> &#160;&#160;&#160;&#160;&#160;&#160;&#160;&#160;&#160;&#160;&#160;&#160;&#160;&#160;&#160;&#160;&#160;&#160;&#160;&#160;&#160;&#160;&#160;&#160;&#160;&#160;&#160;&#160;&#160;&#160;&#160;&#160;&#160;&#160;&#160;&#160;&#160;&#160;&#160;&#160;IsAlcoholAbuser &#160;&#160;&#160;&#160;&#160;&#160;&#160;&#160;&#160;&#160;&#160;&#160;&#160;&#160;&#160;&#160;&#160;&#160;&#160;&#160;&#160;&#160;&#160;&#160;&#160;&#160;&#160;&#160;&#160;&#160;&#160;&#160;&#160;&#160;&#160;&#160;&#160;&#160;</text>
<polygon fill="none" stroke="#99ccff" points="851.8198,-187.5 851.8198,-204.5 942.8198,-204.5 942.8198,-187.5 851.8198,-187.5"/>
<text text-anchor="start" x="874.2161" y="-192.7" font-family="Courier,monospace" font-size="11.00" fill="#000000">boolean</text>
<polygon fill="none" stroke="#99ccff" points="172.8198,-170.5 172.8198,-187.5 851.8198,-187.5 851.8198,-170.5 172.8198,-170.5"/>
<text text-anchor="start" x="175.8198" y="-175.7" font-family="Courier,monospace" font-size="11.00" fill="#000000"> &#160;&#160;&#160;&#160;&#160;&#160;&#160;&#160;&#160;&#160;&#160;&#160;&#160;&#160;&#160;&#160;&#160;&#160;&#160;&#160;&#160;&#160;&#160;&#160;&#160;&#160;&#160;&#160;&#160;&#160;&#160;&#160;&#160;&#160;&#160;&#160;&#160;&#160;&#160;&#160;IsDrugAbuser &#160;&#160;&#160;&#160;&#160;&#160;&#160;&#160;&#160;&#160;&#160;&#160;&#160;&#160;&#160;&#160;&#160;&#160;&#160;&#160;&#160;&#160;&#160;&#160;&#160;&#160;&#160;&#160;&#160;&#160;&#160;&#160;&#160;&#160;&#160;&#160;&#160;&#160;</text>
<polygon fill="none" stroke="#99ccff" points="851.8198,-170.5 851.8198,-187.5 942.8198,-187.5 942.8198,-170.5 851.8198,-170.5"/>
<text text-anchor="start" x="874.2161" y="-175.7" font-family="Courier,monospace" font-size="11.00" fill="#000000">boolean</text>
<polygon fill="none" stroke="#99ccff" points="172.8198,-153.5 172.8198,-170.5 851.8198,-170.5 851.8198,-153.5 172.8198,-153.5"/>
<text text-anchor="start" x="175.8198" y="-158.7" font-family="Courier,monospace" font-size="11.00" fill="#000000"> &#160;&#160;&#160;&#160;&#160;&#160;&#160;&#160;&#160;&#160;&#160;&#160;&#160;&#160;&#160;&#160;&#160;&#160;&#160;&#160;&#160;&#160;&#160;&#160;&#160;&#160;&#160;&#160;&#160;&#160;&#160;&#160;&#160;&#160;&#160;&#160;&#160;&#160;&#160;&#160;IsHighRiskOccupation &#160;&#160;&#160;&#160;&#160;&#160;&#160;&#160;&#160;&#160;&#160;&#160;&#160;&#160;&#160;&#160;&#160;&#160;&#160;&#160;&#160;&#160;&#160;&#160;&#160;&#160;&#160;&#160;&#160;&#160;&#160;&#160;&#160;&#160;&#160;&#160;&#160;&#160;</text>
<polygon fill="none" stroke="#99ccff" points="851.8198,-153.5 851.8198,-170.5 942.8198,-170.5 942.8198,-153.5 851.8198,-153.5"/>
<text text-anchor="start" x="874.2161" y="-158.7" font-family="Courier,monospace" font-size="11.00" fill="#000000">boolean</text>
<polygon fill="none" stroke="#99ccff" points="172.8198,-136.5 172.8198,-153.5 851.8198,-153.5 851.8198,-136.5 172.8198,-136.5"/>
<text text-anchor="start" x="175.8198" y="-141.7" font-family="Courier,monospace" font-size="11.00" fill="#000000"> &#160;&#160;&#160;&#160;&#160;&#160;&#160;&#160;&#160;&#160;&#160;&#160;&#160;&#160;&#160;&#160;&#160;&#160;&#160;&#160;&#160;&#160;&#160;&#160;&#160;&#160;&#160;&#160;&#160;&#160;&#160;&#160;&#160;&#160;&#160;&#160;&#160;&#160;&#160;&#160;IsGoodDriver &#160;&#160;&#160;&#160;&#160;&#160;&#160;&#160;&#160;&#160;&#160;&#160;&#160;&#160;&#160;&#160;&#160;&#160;&#160;&#160;&#160;&#160;&#160;&#160;&#160;&#160;&#160;&#160;&#160;&#160;&#160;&#160;&#160;&#160;&#160;&#160;&#160;&#160;</text>
<polygon fill="none" stroke="#99ccff" points="851.8198,-136.5 851.8198,-153.5 942.8198,-153.5 942.8198,-136.5 851.8198,-136.5"/>
<text text-anchor="start" x="874.2161" y="-141.7" font-family="Courier,monospace" font-size="11.00" fill="#000000">boolean</text>
<polygon fill="none" stroke="#99ccff" points="172.8198,-119.5 172.8198,-136.5 851.8198,-136.5 851.8198,-119.5 172.8198,-119.5"/>
<text text-anchor="start" x="175.8198" y="-124.7" font-family="Courier,monospace" font-size="11.00" fill="#000000"> &#160;&#160;&#160;&#160;&#160;&#160;&#160;&#160;&#160;&#160;&#160;&#160;&#160;&#160;&#160;&#160;&#160;&#160;&#160;&#160;&#160;&#160;&#160;&#160;&#160;&#160;&#160;&#160;&#160;&#160;&#160;&#160;&#160;&#160;&#160;&#160;&#160;&#160;&#160;&#160;IsGoodStudent &#160;&#160;&#160;&#160;&#160;&#160;&#160;&#160;&#160;&#160;&#160;&#160;&#160;&#160;&#160;&#160;&#160;&#160;&#160;&#160;&#160;&#160;&#160;&#160;&#160;&#160;&#160;&#160;&#160;&#160;&#160;&#160;&#160;&#160;&#160;&#160;&#160;&#160;</text>
<polygon fill="none" stroke="#99ccff" points="851.8198,-119.5 851.8198,-136.5 942.8198,-136.5 942.8198,-119.5 851.8198,-119.5"/>
<text text-anchor="start" x="874.2161" y="-124.7" font-family="Courier,monospace" font-size="11.00" fill="#000000">boolean</text>
<polygon fill="none" stroke="#99ccff" points="172.8198,-102.5 172.8198,-119.5 851.8198,-119.5 851.8198,-102.5 172.8198,-102.5"/>
<text text-anchor="start" x="175.8198" y="-107.7" font-family="Courier,monospace" font-size="11.00" fill="#000000"> &#160;&#160;&#160;&#160;&#160;&#160;&#160;&#160;&#160;&#160;&#160;&#160;&#160;&#160;&#160;&#160;&#160;&#160;&#160;&#160;&#160;&#160;&#160;&#160;&#160;&#160;&#160;&#160;&#160;&#160;&#160;&#160;&#160;&#160;&#160;&#160;&#160;&#160;&#160;&#160;IsAlcoholConsumer &#160;&#160;&#160;&#160;&#160;&#160;&#160;&#160;&#160;&#160;&#160;&#160;&#160;&#160;&#160;&#160;&#160;&#160;&#160;&#160;&#160;&#160;&#160;&#160;&#160;&#160;&#160;&#160;&#160;&#160;&#160;&#160;&#160;&#160;&#160;&#160;&#160;&#160;</text>
<polygon fill="none" stroke="#99ccff" points="851.8198,-102.5 851.8198,-119.5 942.8198,-119.5 942.8198,-102.5 851.8198,-102.5"/>
<text text-anchor="start" x="874.2161" y="-107.7" font-family="Courier,monospace" font-size="11.00" fill="#000000">boolean</text>
<polygon fill="none" stroke="#99ccff" points="172.8198,-85.5 172.8198,-102.5 851.8198,-102.5 851.8198,-85.5 172.8198,-85.5"/>
<text text-anchor="start" x="175.8198" y="-90.7" font-family="Courier,monospace" font-size="11.00" fill="#000000"> &#160;&#160;&#160;&#160;&#160;&#160;&#160;&#160;&#160;&#160;&#160;&#160;&#160;&#160;&#160;&#160;&#160;&#160;&#160;&#160;&#160;&#160;&#160;&#160;&#160;&#160;&#160;&#160;&#160;&#160;&#160;&#160;&#160;&#160;&#160;&#160;&#160;&#160;&#160;&#160;IsTobaccoConsumer &#160;&#160;&#160;&#160;&#160;&#160;&#160;&#160;&#160;&#160;&#160;&#160;&#160;&#160;&#160;&#160;&#160;&#160;&#160;&#160;&#160;&#160;&#160;&#160;&#160;&#160;&#160;&#160;&#160;&#160;&#160;&#160;&#160;&#160;&#160;&#160;&#160;&#160;</text>
<polygon fill="none" stroke="#99ccff" points="851.8198,-85.5 851.8198,-102.5 942.8198,-102.5 942.8198,-85.5 851.8198,-85.5"/>
<text text-anchor="start" x="874.2161" y="-90.7" font-family="Courier,monospace" font-size="11.00" fill="#000000">boolean</text>
<polygon fill="none" stroke="#99ccff" points="172.8198,-68.5 172.8198,-85.5 851.8198,-85.5 851.8198,-68.5 172.8198,-68.5"/>
<text text-anchor="start" x="175.8198" y="-73.7" font-family="Courier,monospace" font-size="11.00" fill="#000000"> &#160;&#160;&#160;&#160;&#160;&#160;&#160;&#160;&#160;&#160;&#160;&#160;&#160;&#160;&#160;&#160;&#160;&#160;&#160;&#160;&#160;&#160;&#160;&#160;&#160;&#160;&#160;&#160;&#160;&#160;&#160;&#160;&#160;&#160;&#160;&#160;&#160;&#160;&#160;&#160;NumberOfAccidents &#160;&#160;&#160;&#160;&#160;&#160;&#160;&#160;&#160;&#160;&#160;&#160;&#160;&#160;&#160;&#160;&#160;&#160;&#160;&#160;&#160;&#160;&#160;&#160;&#160;&#160;&#160;&#160;&#160;&#160;&#160;&#160;&#160;&#160;&#160;&#160;&#160;&#160;</text>
<polygon fill="none" stroke="#99ccff" points="851.8198,-68.5 851.8198,-85.5 942.8198,-85.5 942.8198,-68.5 851.8198,-68.5"/>
<text text-anchor="start" x="887.4182" y="-73.7" font-family="Courier,monospace" font-size="11.00" fill="#000000">int</text>
<polygon fill="none" stroke="#99ccff" points="172.8198,-51.5 172.8198,-68.5 851.8198,-68.5 851.8198,-51.5 172.8198,-51.5"/>
<text text-anchor="start" x="175.8198" y="-56.7" font-family="Courier,monospace" font-size="11.00" fill="#000000"> &#160;&#160;&#160;&#160;&#160;&#160;&#160;&#160;&#160;&#160;&#160;&#160;&#160;&#160;&#160;&#160;&#160;&#160;&#160;&#160;&#160;&#160;&#160;&#160;&#160;&#160;&#160;&#160;&#160;&#160;&#160;&#160;&#160;&#160;&#160;&#160;&#160;&#160;&#160;&#160;IsLicenseSuspended &#160;&#160;&#160;&#160;&#160;&#160;&#160;&#160;&#160;&#160;&#160;&#160;&#160;&#160;&#160;&#160;&#160;&#160;&#160;&#160;&#160;&#160;&#160;&#160;&#160;&#160;&#160;&#160;&#160;&#160;&#160;&#160;&#160;&#160;&#160;&#160;&#160;&#160;</text>
<polygon fill="none" stroke="#99ccff" points="851.8198,-51.5 851.8198,-68.5 942.8198,-68.5 942.8198,-51.5 851.8198,-51.5"/>
<text text-anchor="start" x="874.2161" y="-56.7" font-family="Courier,monospace" font-size="11.00" fill="#000000">boolean</text>
<polygon fill="none" stroke="#99ccff" points="172.8198,-34.5 172.8198,-51.5 851.8198,-51.5 851.8198,-34.5 172.8198,-34.5"/>
<text text-anchor="start" x="175.665" y="-39.7" font-family="Courier,monospace" font-size="11.00" fill="#000000"> &#160;&#160;&#160;&#160;&#160;&#160;&#160;&#160;&#160;&#160;&#160;&#160;&#160;&#160;&#160;&#160;&#160;&#160;&#160;&#160;&#160;&#160;&#160;&#160;&#160;&#160;&#160;&#160;&#160;&#160;&#160;&#160;&#160;&#160;&#160;&#160;&#160;&#160;&#160;&#160;SourceSystemIdentifier &#160;&#160;&#160;&#160;&#160;&#160;&#160;&#160;&#160;&#160;&#160;&#160;&#160;&#160;&#160;&#160;&#160;&#160;&#160;&#160;&#160;&#160;&#160;&#160;&#160;&#160;&#160;&#160;&#160;&#160;&#160;&#160;&#160;&#160;&#160;&#160;&#160;&#160;</text>
<polygon fill="none" stroke="#99ccff" points="851.8198,-34.5 851.8198,-51.5 942.8198,-51.5 942.8198,-34.5 851.8198,-34.5"/>
<text text-anchor="start" x="861.0139" y="-39.7" font-family="Courier,monospace" font-size="11.00" fill="#000000">string(255)</text>
<polygon fill="none" stroke="#99ccff" points="172.8198,-17.5 172.8198,-34.5 851.8198,-34.5 851.8198,-17.5 172.8198,-17.5"/>
<text text-anchor="start" x="175.8198" y="-22.7" font-family="Courier,monospace" font-size="11.00" fill="#000000"> &#160;&#160;&#160;&#160;&#160;&#160;&#160;&#160;&#160;&#160;&#160;&#160;&#160;&#160;&#160;&#160;&#160;&#160;&#160;&#160;&#160;&#160;&#160;&#160;&#160;&#160;&#160;&#160;&#160;&#160;&#160;&#160;&#160;&#160;&#160;&#160;&#160;&#160;&#160;&#160;SourceSystem &#160;&#160;&#160;&#160;&#160;&#160;&#160;&#160;&#160;&#160;&#160;&#160;&#160;&#160;&#160;&#160;&#160;&#160;&#160;&#160;&#160;&#160;&#160;&#160;&#160;&#160;&#160;&#160;&#160;&#160;&#160;&#160;&#160;&#160;&#160;&#160;&#160;&#160;</text>
<polygon fill="none" stroke="#99ccff" points="851.8198,-17.5 851.8198,-34.5 942.8198,-34.5 942.8198,-17.5 851.8198,-17.5"/>
<text text-anchor="start" x="861.0139" y="-22.7" font-family="Courier,monospace" font-size="11.00" fill="#000000">string(255)</text>
<polygon fill="none" stroke="#99ccff" points="171.8198,-17 171.8198,-376 943.8198,-376 943.8198,-17 171.8198,-17"/>
</a>
</g>
</g>
<!-- User -->
<g id="node2" class="node">
<title>User</title>
<text text-anchor="middle" x="31.1038" y="-295.2" font-family="Courier,monospace" font-size="11.00" fill="#000000">User</text>
</g>
<!-- InsuranceProfile&#45;&gt;User -->
<g id="edge1" class="edge">
<title>InsuranceProfile:w&#45;&gt;User:e</title>
<path fill="none" stroke="#ff99cc" d="M158.1054,-298.5C122.0406,-298.5 83.3445,-298.5 58.2717,-298.5"/>
<polygon fill="#ff99cc" stroke="#ff99cc" points="164.8198,-298.5001 172.8198,-302.1 168.8198,-298.5 172.8198,-298.5 172.8198,-298.5 172.8198,-298.5 168.8198,-298.5 172.8198,-294.9 164.8198,-298.5001 164.8198,-298.5001"/>
<ellipse fill="none" stroke="#ff99cc" cx="161.6198" cy="-298.5001" rx="3.2" ry="3.2"/>
<text text-anchor="middle" x="117.0137" y="-303.3015" font-family="Monaco" font-size="9.00" fill="#000000">LastModifiedBy</text>
</g>
<!-- Contact -->
<g id="node3" class="node">
<title>Contact</title>
<text text-anchor="middle" x="31.1038" y="-244.2" font-family="Courier,monospace" font-size="11.00" fill="#000000">Contact</text>
</g>
<!-- InsuranceProfile&#45;&gt;Contact -->
<g id="edge2" class="edge">
<title>InsuranceProfile:w&#45;&gt;Contact:e</title>
<path fill="none" stroke="#ff99cc" d="M158.3369,-247.5C124.1054,-247.5 87.4704,-247.5 62.3448,-247.5"/>
<polygon fill="#ff99cc" stroke="#ff99cc" points="164.8198,-247.5001 172.8198,-251.1 168.8198,-247.5 172.8198,-247.5 172.8198,-247.5 172.8198,-247.5 168.8198,-247.5 172.8198,-243.9 164.8198,-247.5001 164.8198,-247.5001"/>
<ellipse fill="none" stroke="#ff99cc" cx="161.6198" cy="-247.5001" rx="3.2" ry="3.2"/>
<text text-anchor="middle" x="117.0137" y="-252.3015" font-family="Monaco" font-size="9.00" fill="#000000">Contact</text>
</g>
</g>
</svg>
