<?xml version="1.0" encoding="UTF-8" standalone="no"?>
<!DOCTYPE svg PUBLIC "-//W3C//DTD SVG 1.1//EN"
 "http://www.w3.org/Graphics/SVG/1.1/DTD/svg11.dtd">
<!-- Generated by graphviz version 2.40.1 (20161225.0304)
 -->
<!-- Title: Salesforce+ ERD Pages: 1 -->
<svg width="1137pt" height="401pt"
 viewBox="0.00 0.00 1137.04 401.00" xmlns="http://www.w3.org/2000/svg" xmlns:xlink="http://www.w3.org/1999/xlink">
<g id="graph0" class="graph" transform="scale(1 1) rotate(0) translate(4 397)">
<title>Salesforce+ ERD</title>
<polygon fill="#efeffd" stroke="transparent" points="-4,4 -4,-397 1133.0381,-397 1133.0381,4 -4,4"/>
<text text-anchor="middle" x="1080.5315" y="-5.8" font-family="Courier,monospace" font-size="9.00" fill="#000000">Salesforce ERD </text>
<!-- InsurancePolicyParticipant -->
<g id="node1" class="node">
<title>InsurancePolicyParticipant</title>
<g id="a_node1"><a xlink:href="#" xlink:title=" InsurancePolicyParticipant ">
<polygon fill="#ffeeff" stroke="transparent" points="284.0381,-17 284.0381,-393 1129.0381,-393 1129.0381,-17 284.0381,-17"/>
<polygon fill="#add8e6" stroke="transparent" points="285.5381,-375 285.5381,-392 1128.5381,-392 1128.5381,-375 285.5381,-375"/>
<polygon fill="none" stroke="#99ccff" points="285.5381,-375 285.5381,-392 1128.5381,-392 1128.5381,-375 285.5381,-375"/>
<text text-anchor="start" x="621.2241" y="-381.2" font-family="Courier,monospace" font-weight="bold" font-size="11.00" fill="#000000">InsurancePolicyParticipant</text>
<polygon fill="#99ccff" stroke="transparent" points="285.5381,-358 285.5381,-375 997.5381,-375 997.5381,-358 285.5381,-358"/>
<polygon fill="none" stroke="#99ccff" points="285.5381,-358 285.5381,-375 997.5381,-375 997.5381,-358 285.5381,-358"/>
<text text-anchor="start" x="288.5381" y="-364.2" font-family="Courier,monospace" font-size="11.00" fill="#000000"> &#160;&#160;&#160;&#160;&#160;&#160;&#160;&#160;&#160;&#160;&#160;&#160;&#160;&#160;&#160;&#160;&#160;&#160;&#160;&#160;&#160;&#160;&#160;&#160;&#160;&#160;&#160;&#160;&#160;&#160;&#160;&#160;&#160;&#160;&#160;&#160;&#160;&#160;&#160;&#160;&#160;&#160;</text>
<text text-anchor="start" x="572.3843" y="-364.2" font-family="Courier,monospace" font-weight="bold" font-size="11.00" fill="#000000">Id</text>
<text text-anchor="start" x="585.5864" y="-364.2" font-family="Courier,monospace" font-size="11.00" fill="#000000"> &#160;&#160;&#160;&#160;&#160;&#160;&#160;&#160;&#160;&#160;&#160;&#160;&#160;&#160;&#160;&#160;&#160;&#160;&#160;&#160;&#160;&#160;&#160;&#160;&#160;&#160;&#160;&#160;&#160;&#160;&#160;&#160;&#160;&#160;&#160;&#160;&#160;&#160;&#160;</text>
<polygon fill="none" stroke="#99ccff" points="997.5381,-358 997.5381,-375 1128.5381,-375 1128.5381,-358 997.5381,-358"/>
<text text-anchor="start" x="1043.2349" y="-363.2" font-family="Courier,monospace" font-size="11.00" fill="#000000">id(18)</text>
<polygon fill="none" stroke="#99ccff" points="285.5381,-341 285.5381,-358 997.5381,-358 997.5381,-341 285.5381,-341"/>
<text text-anchor="start" x="288.5381" y="-346.2" font-family="Courier,monospace" font-size="11.00" fill="#000000"> &#160;&#160;&#160;&#160;&#160;&#160;&#160;&#160;&#160;&#160;&#160;&#160;&#160;&#160;&#160;&#160;&#160;&#160;&#160;&#160;&#160;&#160;&#160;&#160;&#160;&#160;&#160;&#160;&#160;&#160;&#160;&#160;&#160;&#160;&#160;&#160;&#160;&#160;&#160;&#160;IsDeleted &#160;&#160;&#160;&#160;&#160;&#160;&#160;&#160;&#160;&#160;&#160;&#160;&#160;&#160;&#160;&#160;&#160;&#160;&#160;&#160;&#160;&#160;&#160;&#160;&#160;&#160;&#160;&#160;&#160;&#160;&#160;&#160;&#160;&#160;&#160;&#160;&#160;&#160;</text>
<polygon fill="none" stroke="#99ccff" points="997.5381,-341 997.5381,-358 1128.5381,-358 1128.5381,-341 997.5381,-341"/>
<text text-anchor="start" x="1039.9343" y="-346.2" font-family="Courier,monospace" font-size="11.00" fill="#000000">boolean</text>
<polygon fill="none" stroke="#99ccff" points="285.5381,-324 285.5381,-341 997.5381,-341 997.5381,-324 285.5381,-324"/>
<text text-anchor="start" x="288.5381" y="-329.2" font-family="Courier,monospace" font-size="11.00" fill="#000000"> &#160;&#160;&#160;&#160;&#160;&#160;&#160;&#160;&#160;&#160;&#160;&#160;&#160;&#160;&#160;&#160;&#160;&#160;&#160;&#160;&#160;&#160;&#160;&#160;&#160;&#160;&#160;&#160;&#160;&#160;&#160;&#160;&#160;&#160;&#160;&#160;&#160;&#160;&#160;&#160;Name &#160;&#160;&#160;&#160;&#160;&#160;&#160;&#160;&#160;&#160;&#160;&#160;&#160;&#160;&#160;&#160;&#160;&#160;&#160;&#160;&#160;&#160;&#160;&#160;&#160;&#160;&#160;&#160;&#160;&#160;&#160;&#160;&#160;&#160;&#160;&#160;&#160;&#160;</text>
<polygon fill="none" stroke="#99ccff" points="997.5381,-324 997.5381,-341 1128.5381,-341 1128.5381,-324 997.5381,-324"/>
<text text-anchor="start" x="1026.7322" y="-329.2" font-family="Courier,monospace" font-size="11.00" fill="#000000">string(255)</text>
<polygon fill="none" stroke="#99ccff" points="285.5381,-307 285.5381,-324 997.5381,-324 997.5381,-307 285.5381,-307"/>
<text text-anchor="start" x="288.5381" y="-312.2" font-family="Courier,monospace" font-size="11.00" fill="#000000"> &#160;&#160;&#160;&#160;&#160;&#160;&#160;&#160;&#160;&#160;&#160;&#160;&#160;&#160;&#160;&#160;&#160;&#160;&#160;&#160;&#160;&#160;&#160;&#160;&#160;&#160;&#160;&#160;&#160;&#160;&#160;&#160;&#160;&#160;&#160;&#160;&#160;&#160;&#160;&#160;LastModifiedById &#160;&#160;&#160;&#160;&#160;&#160;&#160;&#160;&#160;&#160;&#160;&#160;&#160;&#160;&#160;&#160;&#160;&#160;&#160;&#160;&#160;&#160;&#160;&#160;&#160;&#160;&#160;&#160;&#160;&#160;&#160;&#160;&#160;&#160;&#160;&#160;&#160;&#160;</text>
<polygon fill="none" stroke="#99ccff" points="997.5381,-307 997.5381,-324 1128.5381,-324 1128.5381,-307 997.5381,-307"/>
<text text-anchor="start" x="1020.1311" y="-312.2" font-family="Courier,monospace" font-size="11.00" fill="#000000">reference(18)</text>
<polygon fill="none" stroke="#99ccff" points="285.5381,-290 285.5381,-307 997.5381,-307 997.5381,-290 285.5381,-290"/>
<text text-anchor="start" x="288.5381" y="-295.2" font-family="Courier,monospace" font-size="11.00" fill="#000000"> &#160;&#160;&#160;&#160;&#160;&#160;&#160;&#160;&#160;&#160;&#160;&#160;&#160;&#160;&#160;&#160;&#160;&#160;&#160;&#160;&#160;&#160;&#160;&#160;&#160;&#160;&#160;&#160;&#160;&#160;&#160;&#160;&#160;&#160;&#160;&#160;&#160;&#160;&#160;&#160;LastViewedDate &#160;&#160;&#160;&#160;&#160;&#160;&#160;&#160;&#160;&#160;&#160;&#160;&#160;&#160;&#160;&#160;&#160;&#160;&#160;&#160;&#160;&#160;&#160;&#160;&#160;&#160;&#160;&#160;&#160;&#160;&#160;&#160;&#160;&#160;&#160;&#160;&#160;&#160;</text>
<polygon fill="none" stroke="#99ccff" points="997.5381,-290 997.5381,-307 1128.5381,-307 1128.5381,-290 997.5381,-290"/>
<text text-anchor="start" x="1036.6338" y="-295.2" font-family="Courier,monospace" font-size="11.00" fill="#000000">datetime</text>
<polygon fill="none" stroke="#99ccff" points="285.5381,-273 285.5381,-290 997.5381,-290 997.5381,-273 285.5381,-273"/>
<text text-anchor="start" x="288.5381" y="-278.2" font-family="Courier,monospace" font-size="11.00" fill="#000000"> &#160;&#160;&#160;&#160;&#160;&#160;&#160;&#160;&#160;&#160;&#160;&#160;&#160;&#160;&#160;&#160;&#160;&#160;&#160;&#160;&#160;&#160;&#160;&#160;&#160;&#160;&#160;&#160;&#160;&#160;&#160;&#160;&#160;&#160;&#160;&#160;&#160;&#160;&#160;&#160;LastReferencedDate &#160;&#160;&#160;&#160;&#160;&#160;&#160;&#160;&#160;&#160;&#160;&#160;&#160;&#160;&#160;&#160;&#160;&#160;&#160;&#160;&#160;&#160;&#160;&#160;&#160;&#160;&#160;&#160;&#160;&#160;&#160;&#160;&#160;&#160;&#160;&#160;&#160;&#160;</text>
<polygon fill="none" stroke="#99ccff" points="997.5381,-273 997.5381,-290 1128.5381,-290 1128.5381,-273 997.5381,-273"/>
<text text-anchor="start" x="1036.6338" y="-278.2" font-family="Courier,monospace" font-size="11.00" fill="#000000">datetime</text>
<polygon fill="none" stroke="#99ccff" points="285.5381,-256 285.5381,-273 997.5381,-273 997.5381,-256 285.5381,-256"/>
<text text-anchor="start" x="288.5381" y="-261.2" font-family="Courier,monospace" font-size="11.00" fill="#000000"> &#160;&#160;&#160;&#160;&#160;&#160;&#160;&#160;&#160;&#160;&#160;&#160;&#160;&#160;&#160;&#160;&#160;&#160;&#160;&#160;&#160;&#160;&#160;&#160;&#160;&#160;&#160;&#160;&#160;&#160;&#160;&#160;&#160;&#160;&#160;&#160;&#160;&#160;&#160;&#160;InsurancePolicyId &#160;&#160;&#160;&#160;&#160;&#160;&#160;&#160;&#160;&#160;&#160;&#160;&#160;&#160;&#160;&#160;&#160;&#160;&#160;&#160;&#160;&#160;&#160;&#160;&#160;&#160;&#160;&#160;&#160;&#160;&#160;&#160;&#160;&#160;&#160;&#160;&#160;&#160;</text>
<polygon fill="none" stroke="#99ccff" points="997.5381,-256 997.5381,-273 1128.5381,-273 1128.5381,-256 997.5381,-256"/>
<text text-anchor="start" x="1020.1311" y="-261.2" font-family="Courier,monospace" font-size="11.00" fill="#000000">reference(18)</text>
<polygon fill="none" stroke="#99ccff" points="285.5381,-239 285.5381,-256 997.5381,-256 997.5381,-239 285.5381,-239"/>
<text text-anchor="start" x="288.5381" y="-244.2" font-family="Courier,monospace" font-size="11.00" fill="#000000"> &#160;&#160;&#160;&#160;&#160;&#160;&#160;&#160;&#160;&#160;&#160;&#160;&#160;&#160;&#160;&#160;&#160;&#160;&#160;&#160;&#160;&#160;&#160;&#160;&#160;&#160;&#160;&#160;&#160;&#160;&#160;&#160;&#160;&#160;&#160;&#160;&#160;&#160;&#160;&#160;SourceSystemIdentifier &#160;&#160;&#160;&#160;&#160;&#160;&#160;&#160;&#160;&#160;&#160;&#160;&#160;&#160;&#160;&#160;&#160;&#160;&#160;&#160;&#160;&#160;&#160;&#160;&#160;&#160;&#160;&#160;&#160;&#160;&#160;&#160;&#160;&#160;&#160;&#160;&#160;&#160;</text>
<polygon fill="none" stroke="#99ccff" points="997.5381,-239 997.5381,-256 1128.5381,-256 1128.5381,-239 997.5381,-239"/>
<text text-anchor="start" x="1026.7322" y="-244.2" font-family="Courier,monospace" font-size="11.00" fill="#000000">string(255)</text>
<polygon fill="none" stroke="#99ccff" points="285.5381,-222 285.5381,-239 997.5381,-239 997.5381,-222 285.5381,-222"/>
<text text-anchor="start" x="288.5381" y="-227.2" font-family="Courier,monospace" font-size="11.00" fill="#000000"> &#160;&#160;&#160;&#160;&#160;&#160;&#160;&#160;&#160;&#160;&#160;&#160;&#160;&#160;&#160;&#160;&#160;&#160;&#160;&#160;&#160;&#160;&#160;&#160;&#160;&#160;&#160;&#160;&#160;&#160;&#160;&#160;&#160;&#160;&#160;&#160;&#160;&#160;&#160;&#160;Role &#160;&#160;&#160;&#160;&#160;&#160;&#160;&#160;&#160;&#160;&#160;&#160;&#160;&#160;&#160;&#160;&#160;&#160;&#160;&#160;&#160;&#160;&#160;&#160;&#160;&#160;&#160;&#160;&#160;&#160;&#160;&#160;&#160;&#160;&#160;&#160;&#160;&#160;</text>
<polygon fill="none" stroke="#99ccff" points="997.5381,-222 997.5381,-239 1128.5381,-239 1128.5381,-222 997.5381,-222"/>
<text text-anchor="start" x="1000.3279" y="-227.2" font-family="Courier,monospace" font-size="11.00" fill="#000000">multipicklist(4099)</text>
<polygon fill="none" stroke="#99ccff" points="285.5381,-205 285.5381,-222 997.5381,-222 997.5381,-205 285.5381,-205"/>
<text text-anchor="start" x="288.3806" y="-210.2" font-family="Courier,monospace" font-size="11.00" fill="#000000"> &#160;&#160;&#160;&#160;&#160;&#160;&#160;&#160;&#160;&#160;&#160;&#160;&#160;&#160;&#160;&#160;&#160;&#160;&#160;&#160;&#160;&#160;&#160;&#160;&#160;&#160;&#160;&#160;&#160;&#160;&#160;&#160;&#160;&#160;&#160;&#160;&#160;&#160;&#160;&#160;PrimaryParticipantAccountId &#160;&#160;&#160;&#160;&#160;&#160;&#160;&#160;&#160;&#160;&#160;&#160;&#160;&#160;&#160;&#160;&#160;&#160;&#160;&#160;&#160;&#160;&#160;&#160;&#160;&#160;&#160;&#160;&#160;&#160;&#160;&#160;&#160;&#160;&#160;&#160;&#160;&#160;</text>
<polygon fill="none" stroke="#99ccff" points="997.5381,-205 997.5381,-222 1128.5381,-222 1128.5381,-205 997.5381,-205"/>
<text text-anchor="start" x="1020.1311" y="-210.2" font-family="Courier,monospace" font-size="11.00" fill="#000000">reference(18)</text>
<polygon fill="none" stroke="#99ccff" points="285.5381,-188 285.5381,-205 997.5381,-205 997.5381,-188 285.5381,-188"/>
<text text-anchor="start" x="288.3806" y="-193.2" font-family="Courier,monospace" font-size="11.00" fill="#000000"> &#160;&#160;&#160;&#160;&#160;&#160;&#160;&#160;&#160;&#160;&#160;&#160;&#160;&#160;&#160;&#160;&#160;&#160;&#160;&#160;&#160;&#160;&#160;&#160;&#160;&#160;&#160;&#160;&#160;&#160;&#160;&#160;&#160;&#160;&#160;&#160;&#160;&#160;&#160;&#160;PrimaryParticipantContactId &#160;&#160;&#160;&#160;&#160;&#160;&#160;&#160;&#160;&#160;&#160;&#160;&#160;&#160;&#160;&#160;&#160;&#160;&#160;&#160;&#160;&#160;&#160;&#160;&#160;&#160;&#160;&#160;&#160;&#160;&#160;&#160;&#160;&#160;&#160;&#160;&#160;&#160;</text>
<polygon fill="none" stroke="#99ccff" points="997.5381,-188 997.5381,-205 1128.5381,-205 1128.5381,-188 997.5381,-188"/>
<text text-anchor="start" x="1020.1311" y="-193.2" font-family="Courier,monospace" font-size="11.00" fill="#000000">reference(18)</text>
<polygon fill="none" stroke="#99ccff" points="285.5381,-171 285.5381,-188 997.5381,-188 997.5381,-171 285.5381,-171"/>
<text text-anchor="start" x="288.3806" y="-176.2" font-family="Courier,monospace" font-size="11.00" fill="#000000"> &#160;&#160;&#160;&#160;&#160;&#160;&#160;&#160;&#160;&#160;&#160;&#160;&#160;&#160;&#160;&#160;&#160;&#160;&#160;&#160;&#160;&#160;&#160;&#160;&#160;&#160;&#160;&#160;&#160;&#160;&#160;&#160;&#160;&#160;&#160;&#160;&#160;&#160;&#160;&#160;RelatedParticipantAccountId &#160;&#160;&#160;&#160;&#160;&#160;&#160;&#160;&#160;&#160;&#160;&#160;&#160;&#160;&#160;&#160;&#160;&#160;&#160;&#160;&#160;&#160;&#160;&#160;&#160;&#160;&#160;&#160;&#160;&#160;&#160;&#160;&#160;&#160;&#160;&#160;&#160;&#160;</text>
<polygon fill="none" stroke="#99ccff" points="997.5381,-171 997.5381,-188 1128.5381,-188 1128.5381,-171 997.5381,-171"/>
<text text-anchor="start" x="1020.1311" y="-176.2" font-family="Courier,monospace" font-size="11.00" fill="#000000">reference(18)</text>
<polygon fill="none" stroke="#99ccff" points="285.5381,-154 285.5381,-171 997.5381,-171 997.5381,-154 285.5381,-154"/>
<text text-anchor="start" x="288.3806" y="-159.2" font-family="Courier,monospace" font-size="11.00" fill="#000000"> &#160;&#160;&#160;&#160;&#160;&#160;&#160;&#160;&#160;&#160;&#160;&#160;&#160;&#160;&#160;&#160;&#160;&#160;&#160;&#160;&#160;&#160;&#160;&#160;&#160;&#160;&#160;&#160;&#160;&#160;&#160;&#160;&#160;&#160;&#160;&#160;&#160;&#160;&#160;&#160;RelatedParticipantContactId &#160;&#160;&#160;&#160;&#160;&#160;&#160;&#160;&#160;&#160;&#160;&#160;&#160;&#160;&#160;&#160;&#160;&#160;&#160;&#160;&#160;&#160;&#160;&#160;&#160;&#160;&#160;&#160;&#160;&#160;&#160;&#160;&#160;&#160;&#160;&#160;&#160;&#160;</text>
<polygon fill="none" stroke="#99ccff" points="997.5381,-154 997.5381,-171 1128.5381,-171 1128.5381,-154 997.5381,-154"/>
<text text-anchor="start" x="1020.1311" y="-159.2" font-family="Courier,monospace" font-size="11.00" fill="#000000">reference(18)</text>
<polygon fill="none" stroke="#99ccff" points="285.5381,-137 285.5381,-154 997.5381,-154 997.5381,-137 285.5381,-137"/>
<text text-anchor="start" x="288.5381" y="-142.2" font-family="Courier,monospace" font-size="11.00" fill="#000000"> &#160;&#160;&#160;&#160;&#160;&#160;&#160;&#160;&#160;&#160;&#160;&#160;&#160;&#160;&#160;&#160;&#160;&#160;&#160;&#160;&#160;&#160;&#160;&#160;&#160;&#160;&#160;&#160;&#160;&#160;&#160;&#160;&#160;&#160;&#160;&#160;&#160;&#160;&#160;&#160;BeneficiarySharePercentage &#160;&#160;&#160;&#160;&#160;&#160;&#160;&#160;&#160;&#160;&#160;&#160;&#160;&#160;&#160;&#160;&#160;&#160;&#160;&#160;&#160;&#160;&#160;&#160;&#160;&#160;&#160;&#160;&#160;&#160;&#160;&#160;&#160;&#160;&#160;&#160;&#160;&#160;</text>
<polygon fill="none" stroke="#99ccff" points="997.5381,-137 997.5381,-154 1128.5381,-154 1128.5381,-137 997.5381,-137"/>
<text text-anchor="start" x="1039.9343" y="-142.2" font-family="Courier,monospace" font-size="11.00" fill="#000000">percent</text>
<polygon fill="none" stroke="#99ccff" points="285.5381,-120 285.5381,-137 997.5381,-137 997.5381,-120 285.5381,-120"/>
<text text-anchor="start" x="288.5381" y="-125.2" font-family="Courier,monospace" font-size="11.00" fill="#000000"> &#160;&#160;&#160;&#160;&#160;&#160;&#160;&#160;&#160;&#160;&#160;&#160;&#160;&#160;&#160;&#160;&#160;&#160;&#160;&#160;&#160;&#160;&#160;&#160;&#160;&#160;&#160;&#160;&#160;&#160;&#160;&#160;&#160;&#160;&#160;&#160;&#160;&#160;&#160;&#160;RelationshipToInsured &#160;&#160;&#160;&#160;&#160;&#160;&#160;&#160;&#160;&#160;&#160;&#160;&#160;&#160;&#160;&#160;&#160;&#160;&#160;&#160;&#160;&#160;&#160;&#160;&#160;&#160;&#160;&#160;&#160;&#160;&#160;&#160;&#160;&#160;&#160;&#160;&#160;&#160;</text>
<polygon fill="none" stroke="#99ccff" points="997.5381,-120 997.5381,-137 1128.5381,-137 1128.5381,-120 997.5381,-120"/>
<text text-anchor="start" x="1023.4316" y="-125.2" font-family="Courier,monospace" font-size="11.00" fill="#000000">picklist(40)</text>
<polygon fill="none" stroke="#99ccff" points="285.5381,-103 285.5381,-120 997.5381,-120 997.5381,-103 285.5381,-103"/>
<text text-anchor="start" x="288.5381" y="-108.2" font-family="Courier,monospace" font-size="11.00" fill="#000000"> &#160;&#160;&#160;&#160;&#160;&#160;&#160;&#160;&#160;&#160;&#160;&#160;&#160;&#160;&#160;&#160;&#160;&#160;&#160;&#160;&#160;&#160;&#160;&#160;&#160;&#160;&#160;&#160;&#160;&#160;&#160;&#160;&#160;&#160;&#160;&#160;&#160;&#160;&#160;&#160;IsMinorBeneficiary &#160;&#160;&#160;&#160;&#160;&#160;&#160;&#160;&#160;&#160;&#160;&#160;&#160;&#160;&#160;&#160;&#160;&#160;&#160;&#160;&#160;&#160;&#160;&#160;&#160;&#160;&#160;&#160;&#160;&#160;&#160;&#160;&#160;&#160;&#160;&#160;&#160;&#160;</text>
<polygon fill="none" stroke="#99ccff" points="997.5381,-103 997.5381,-120 1128.5381,-120 1128.5381,-103 997.5381,-103"/>
<text text-anchor="start" x="1039.9343" y="-108.2" font-family="Courier,monospace" font-size="11.00" fill="#000000">boolean</text>
<polygon fill="none" stroke="#99ccff" points="285.5381,-86 285.5381,-103 997.5381,-103 997.5381,-86 285.5381,-86"/>
<text text-anchor="start" x="288.5381" y="-91.2" font-family="Courier,monospace" font-size="11.00" fill="#000000"> &#160;&#160;&#160;&#160;&#160;&#160;&#160;&#160;&#160;&#160;&#160;&#160;&#160;&#160;&#160;&#160;&#160;&#160;&#160;&#160;&#160;&#160;&#160;&#160;&#160;&#160;&#160;&#160;&#160;&#160;&#160;&#160;&#160;&#160;&#160;&#160;&#160;&#160;&#160;&#160;LegalGuardianId &#160;&#160;&#160;&#160;&#160;&#160;&#160;&#160;&#160;&#160;&#160;&#160;&#160;&#160;&#160;&#160;&#160;&#160;&#160;&#160;&#160;&#160;&#160;&#160;&#160;&#160;&#160;&#160;&#160;&#160;&#160;&#160;&#160;&#160;&#160;&#160;&#160;&#160;</text>
<polygon fill="none" stroke="#99ccff" points="997.5381,-86 997.5381,-103 1128.5381,-103 1128.5381,-86 997.5381,-86"/>
<text text-anchor="start" x="1020.1311" y="-91.2" font-family="Courier,monospace" font-size="11.00" fill="#000000">reference(18)</text>
<polygon fill="none" stroke="#99ccff" points="285.5381,-69 285.5381,-86 997.5381,-86 997.5381,-69 285.5381,-69"/>
<text text-anchor="start" x="288.5381" y="-74.2" font-family="Courier,monospace" font-size="11.00" fill="#000000"> &#160;&#160;&#160;&#160;&#160;&#160;&#160;&#160;&#160;&#160;&#160;&#160;&#160;&#160;&#160;&#160;&#160;&#160;&#160;&#160;&#160;&#160;&#160;&#160;&#160;&#160;&#160;&#160;&#160;&#160;&#160;&#160;&#160;&#160;&#160;&#160;&#160;&#160;&#160;&#160;EffectiveDate &#160;&#160;&#160;&#160;&#160;&#160;&#160;&#160;&#160;&#160;&#160;&#160;&#160;&#160;&#160;&#160;&#160;&#160;&#160;&#160;&#160;&#160;&#160;&#160;&#160;&#160;&#160;&#160;&#160;&#160;&#160;&#160;&#160;&#160;&#160;&#160;&#160;&#160;</text>
<polygon fill="none" stroke="#99ccff" points="997.5381,-69 997.5381,-86 1128.5381,-86 1128.5381,-69 997.5381,-69"/>
<text text-anchor="start" x="1036.6338" y="-74.2" font-family="Courier,monospace" font-size="11.00" fill="#000000">datetime</text>
<polygon fill="none" stroke="#99ccff" points="285.5381,-52 285.5381,-69 997.5381,-69 997.5381,-52 285.5381,-52"/>
<text text-anchor="start" x="288.5381" y="-57.2" font-family="Courier,monospace" font-size="11.00" fill="#000000"> &#160;&#160;&#160;&#160;&#160;&#160;&#160;&#160;&#160;&#160;&#160;&#160;&#160;&#160;&#160;&#160;&#160;&#160;&#160;&#160;&#160;&#160;&#160;&#160;&#160;&#160;&#160;&#160;&#160;&#160;&#160;&#160;&#160;&#160;&#160;&#160;&#160;&#160;&#160;&#160;ExpirationDate &#160;&#160;&#160;&#160;&#160;&#160;&#160;&#160;&#160;&#160;&#160;&#160;&#160;&#160;&#160;&#160;&#160;&#160;&#160;&#160;&#160;&#160;&#160;&#160;&#160;&#160;&#160;&#160;&#160;&#160;&#160;&#160;&#160;&#160;&#160;&#160;&#160;&#160;</text>
<polygon fill="none" stroke="#99ccff" points="997.5381,-52 997.5381,-69 1128.5381,-69 1128.5381,-52 997.5381,-52"/>
<text text-anchor="start" x="1036.6338" y="-57.2" font-family="Courier,monospace" font-size="11.00" fill="#000000">datetime</text>
<polygon fill="none" stroke="#99ccff" points="285.5381,-35 285.5381,-52 997.5381,-52 997.5381,-35 285.5381,-35"/>
<text text-anchor="start" x="288.5381" y="-40.2" font-family="Courier,monospace" font-size="11.00" fill="#000000"> &#160;&#160;&#160;&#160;&#160;&#160;&#160;&#160;&#160;&#160;&#160;&#160;&#160;&#160;&#160;&#160;&#160;&#160;&#160;&#160;&#160;&#160;&#160;&#160;&#160;&#160;&#160;&#160;&#160;&#160;&#160;&#160;&#160;&#160;&#160;&#160;&#160;&#160;&#160;&#160;IsActiveParticipant &#160;&#160;&#160;&#160;&#160;&#160;&#160;&#160;&#160;&#160;&#160;&#160;&#160;&#160;&#160;&#160;&#160;&#160;&#160;&#160;&#160;&#160;&#160;&#160;&#160;&#160;&#160;&#160;&#160;&#160;&#160;&#160;&#160;&#160;&#160;&#160;&#160;&#160;</text>
<polygon fill="none" stroke="#99ccff" points="997.5381,-35 997.5381,-52 1128.5381,-52 1128.5381,-35 997.5381,-35"/>
<text text-anchor="start" x="1039.9343" y="-40.2" font-family="Courier,monospace" font-size="11.00" fill="#000000">boolean</text>
<polygon fill="none" stroke="#99ccff" points="285.5381,-18 285.5381,-35 997.5381,-35 997.5381,-18 285.5381,-18"/>
<text text-anchor="start" x="288.5381" y="-23.2" font-family="Courier,monospace" font-size="11.00" fill="#000000"> &#160;&#160;&#160;&#160;&#160;&#160;&#160;&#160;&#160;&#160;&#160;&#160;&#160;&#160;&#160;&#160;&#160;&#160;&#160;&#160;&#160;&#160;&#160;&#160;&#160;&#160;&#160;&#160;&#160;&#160;&#160;&#160;&#160;&#160;&#160;&#160;&#160;&#160;&#160;&#160;SourceSystem &#160;&#160;&#160;&#160;&#160;&#160;&#160;&#160;&#160;&#160;&#160;&#160;&#160;&#160;&#160;&#160;&#160;&#160;&#160;&#160;&#160;&#160;&#160;&#160;&#160;&#160;&#160;&#160;&#160;&#160;&#160;&#160;&#160;&#160;&#160;&#160;&#160;&#160;</text>
<polygon fill="none" stroke="#99ccff" points="997.5381,-18 997.5381,-35 1128.5381,-35 1128.5381,-18 997.5381,-18"/>
<text text-anchor="start" x="1026.7322" y="-23.2" font-family="Courier,monospace" font-size="11.00" fill="#000000">string(255)</text>
<polygon fill="none" stroke="#99ccff" points="284.0381,-17 284.0381,-393 1129.0381,-393 1129.0381,-17 284.0381,-17"/>
</a>
</g>
</g>
<!-- User -->
<g id="node2" class="node">
<title>User</title>
<text text-anchor="middle" x="57.5081" y="-312.7" font-family="Courier,monospace" font-size="11.00" fill="#000000">User</text>
</g>
<!-- InsurancePolicyParticipant&#45;&gt;User -->
<g id="edge1" class="edge">
<title>InsurancePolicyParticipant:w&#45;&gt;User:e</title>
<path fill="none" stroke="#ff99cc" d="M270.91,-316C201.7055,-316 124.3951,-316 84.5366,-316"/>
<polygon fill="#ff99cc" stroke="#ff99cc" points="277.5381,-316.0001 285.5381,-319.6 281.5381,-316 285.5381,-316 285.5381,-316 285.5381,-316 281.5381,-316 285.5381,-312.4 277.5381,-316.0001 277.5381,-316.0001"/>
<ellipse fill="none" stroke="#ff99cc" cx="274.3381" cy="-316.0001" rx="3.2" ry="3.2"/>
<text text-anchor="middle" x="199.5271" y="-320.8015" font-family="Monaco" font-size="9.00" fill="#000000">LastModifiedBy</text>
</g>
<!-- InsurancePolicy -->
<g id="node3" class="node">
<title>InsurancePolicy</title>
<text text-anchor="middle" x="57.5081" y="-261.7" font-family="Courier,monospace" font-size="11.00" fill="#000000">InsurancePolicy</text>
</g>
<!-- InsurancePolicyParticipant&#45;&gt;InsurancePolicy -->
<g id="edge2" class="edge">
<title>InsurancePolicyParticipant:w&#45;&gt;InsurancePolicy:e</title>
<path fill="none" stroke="#ff99cc" d="M271.1136,-265C216.8003,-265 157.4644,-265 115.1441,-265"/>
<polygon fill="#ff99cc" stroke="#ff99cc" points="277.5381,-265.0001 285.5381,-268.6 281.5381,-265 285.5381,-265 285.5381,-265 285.5381,-265 281.5381,-265 285.5381,-261.4 277.5381,-265.0001 277.5381,-265.0001"/>
<ellipse fill="none" stroke="#ff99cc" cx="274.3381" cy="-265.0001" rx="3.2" ry="3.2"/>
<text text-anchor="middle" x="199.5271" y="-269.8015" font-family="Monaco" font-size="9.00" fill="#000000">InsurancePolicy</text>
</g>
<!-- Account -->
<g id="node4" class="node">
<title>Account</title>
<text text-anchor="middle" x="57.5081" y="-162.7" font-family="Courier,monospace" font-size="11.00" fill="#000000">Account</text>
</g>
<!-- InsurancePolicyParticipant&#45;&gt;Account -->
<g id="edge3" class="edge">
<title>InsurancePolicyParticipant:w&#45;&gt;Account:e</title>
<path fill="none" stroke="#ff99cc" d="M271.1032,-214.2081C214.106,-215.8599 192.7911,-226.344 132.0161,-209 113.9204,-203.8358 95.5882,-193.3385 81.6359,-184.0088"/>
<polygon fill="#ff99cc" stroke="#ff99cc" points="277.5389,-214.1154 285.59,-217.5996 281.5385,-214.0577 285.5381,-214 285.5381,-214 285.5381,-214 281.5385,-214.0577 285.4862,-210.4004 277.5389,-214.1154 277.5389,-214.1154"/>
<ellipse fill="none" stroke="#ff99cc" cx="274.3392" cy="-214.1615" rx="3.2" ry="3.2"/>
<text text-anchor="middle" x="199.5271" y="-222.8015" font-family="Monaco" font-size="9.00" fill="#000000">PrimaryParticipantAccount</text>
</g>
<!-- InsurancePolicyParticipant&#45;&gt;Account -->
<g id="edge5" class="edge">
<title>InsurancePolicyParticipant:w&#45;&gt;Account:e</title>
<path fill="none" stroke="#ff99cc" d="M272.9887,-171.244C271.4691,-169.9116 269.6289,-168.724 267.0381,-167.9985 205.7338,-150.8329 130.3305,-156.202 88.7517,-161.3181"/>
<polygon fill="#ff99cc" stroke="#ff99cc" points="278.7329,-174.7941 283.6454,-182.0623 282.1355,-176.8971 285.5381,-179 285.5381,-179 285.5381,-179 282.1355,-176.8971 287.4307,-175.9377 278.7329,-174.7941 278.7329,-174.7941"/>
<ellipse fill="none" stroke="#ff99cc" cx="276.0108" cy="-173.1118" rx="3.2" ry="3.2"/>
<text text-anchor="middle" x="199.5271" y="-171.8015" font-family="Monaco" font-size="9.00" fill="#000000">RelatedParticipantAccount</text>
</g>
<!-- InsurancePolicyParticipant&#45;&gt;Account -->
<g id="edge7" class="edge">
<title>InsurancePolicyParticipant:w&#45;&gt;Account:e</title>
<path fill="none" stroke="#ff99cc" d="M275.3974,-104.3054C274.0304,-109.5397 272.7543,-115.5141 267.0381,-119 215.1281,-150.6563 191.0363,-126.3909 132.0161,-140.9985 117.5795,-144.5716 101.929,-149.6345 88.7156,-154.2708"/>
<polygon fill="#ff99cc" stroke="#ff99cc" points="279.9269,-99.7022 288.1041,-96.525 282.7325,-96.8511 285.5381,-94 285.5381,-94 285.5381,-94 282.7325,-96.8511 282.9721,-91.475 279.9269,-99.7022 279.9269,-99.7022"/>
<ellipse fill="none" stroke="#ff99cc" cx="277.6825" cy="-101.9831" rx="3.2" ry="3.2"/>
<text text-anchor="middle" x="199.5271" y="-145.8015" font-family="Monaco" font-size="9.00" fill="#000000">LegalGuardian</text>
</g>
<!-- Contact -->
<g id="node5" class="node">
<title>Contact</title>
<text text-anchor="middle" x="57.5081" y="-108.7" font-family="Courier,monospace" font-size="11.00" fill="#000000">Contact</text>
</g>
<!-- InsurancePolicyParticipant&#45;&gt;Contact -->
<g id="edge4" class="edge">
<title>InsurancePolicyParticipant:w&#45;&gt;Contact:e</title>
<path fill="none" stroke="#ff99cc" d="M271.0139,-194.4145C232.7683,-190.2173 132.1917,-179.1281 132.0161,-179 117.0683,-168.0966 127.7919,-154.3828 115.0161,-141 107.7583,-133.3974 98.0768,-127.4679 88.7301,-123.008"/>
<polygon fill="#ff99cc" stroke="#ff99cc" points="277.5853,-195.1318 285.1474,-199.5787 281.5617,-195.5659 285.5381,-196 285.5381,-196 285.5381,-196 281.5617,-195.5659 285.9288,-192.4213 277.5853,-195.1318 277.5853,-195.1318"/>
<ellipse fill="none" stroke="#ff99cc" cx="274.4042" cy="-194.7845" rx="3.2" ry="3.2"/>
<text text-anchor="middle" x="199.5271" y="-197.8015" font-family="Monaco" font-size="9.00" fill="#000000">PrimaryParticipantContact</text>
</g>
<!-- InsurancePolicyParticipant&#45;&gt;Contact -->
<g id="edge6" class="edge">
<title>InsurancePolicyParticipant:w&#45;&gt;Contact:e</title>
<path fill="none" stroke="#ff99cc" d="M273.8282,-153.1074C271.6921,-139.8754 282.5701,-115.3475 267.0381,-103.9985 214.4247,-65.5551 132.9472,-84.7844 88.6933,-99.8299"/>
<polygon fill="#ff99cc" stroke="#ff99cc" points="279.167,-157.1617 283.3609,-164.867 282.3525,-159.5809 285.5381,-162 285.5381,-162 285.5381,-162 282.3525,-159.5809 287.7153,-159.133 279.167,-157.1617 279.167,-157.1617"/>
<ellipse fill="none" stroke="#ff99cc" cx="276.6185" cy="-155.2264" rx="3.2" ry="3.2"/>
<text text-anchor="middle" x="199.5271" y="-108.8015" font-family="Monaco" font-size="9.00" fill="#000000">RelatedParticipantContact</text>
</g>
</g>
</svg>
