<?xml version="1.0" encoding="UTF-8" standalone="no"?>
<!DOCTYPE svg PUBLIC "-//W3C//DTD SVG 1.1//EN"
 "http://www.w3.org/Graphics/SVG/1.1/DTD/svg11.dtd">
<!-- Generated by graphviz version 2.40.1 (20161225.0304)
 -->
<!-- Title: Salesforce+ ERD Pages: 1 -->
<svg width="1090pt" height="520pt"
 viewBox="0.00 0.00 1090.04 520.00" xmlns="http://www.w3.org/2000/svg" xmlns:xlink="http://www.w3.org/1999/xlink">
<g id="graph0" class="graph" transform="scale(1 1) rotate(0) translate(4 516)">
<title>Salesforce+ ERD</title>
<polygon fill="#efeffd" stroke="transparent" points="-4,4 -4,-516 1086.0391,-516 1086.0391,4 -4,4"/>
<text text-anchor="middle" x="1033.5325" y="-5.8" font-family="Courier,monospace" font-size="9.00" fill="#000000">Salesforce ERD </text>
<!-- InsurancePolicyCoverage -->
<g id="node1" class="node">
<title>InsurancePolicyCoverage</title>
<g id="a_node1"><a xlink:href="#" xlink:title=" InsurancePolicyCoverage ">
<polygon fill="#ffeeff" stroke="transparent" points="290.0391,-17 290.0391,-512 1082.0391,-512 1082.0391,-17 290.0391,-17"/>
<polygon fill="#add8e6" stroke="transparent" points="291.0391,-493.5 291.0391,-510.5 1081.0391,-510.5 1081.0391,-493.5 291.0391,-493.5"/>
<polygon fill="none" stroke="#99ccff" points="291.0391,-493.5 291.0391,-510.5 1081.0391,-510.5 1081.0391,-493.5 291.0391,-493.5"/>
<text text-anchor="start" x="610.1267" y="-499.7" font-family="Courier,monospace" font-weight="bold" font-size="11.00" fill="#000000">InsurancePolicyCoverage</text>
<polygon fill="#99ccff" stroke="transparent" points="291.0391,-476.5 291.0391,-493.5 976.0391,-493.5 976.0391,-476.5 291.0391,-476.5"/>
<polygon fill="none" stroke="#99ccff" points="291.0391,-476.5 291.0391,-493.5 976.0391,-493.5 976.0391,-476.5 291.0391,-476.5"/>
<text text-anchor="start" x="294.0391" y="-482.7" font-family="Courier,monospace" font-size="11.00" fill="#000000"> &#160;&#160;&#160;&#160;&#160;&#160;&#160;&#160;&#160;&#160;&#160;&#160;&#160;&#160;&#160;&#160;&#160;&#160;&#160;&#160;&#160;&#160;&#160;&#160;&#160;&#160;&#160;&#160;&#160;&#160;&#160;&#160;&#160;&#160;&#160;&#160;&#160;&#160;&#160;&#160;&#160;&#160;</text>
<text text-anchor="start" x="577.8853" y="-482.7" font-family="Courier,monospace" font-weight="bold" font-size="11.00" fill="#000000">Id</text>
<text text-anchor="start" x="591.0874" y="-482.7" font-family="Courier,monospace" font-size="11.00" fill="#000000"> &#160;&#160;&#160;&#160;&#160;&#160;&#160;&#160;&#160;&#160;&#160;&#160;&#160;&#160;&#160;&#160;&#160;&#160;&#160;&#160;&#160;&#160;&#160;&#160;&#160;&#160;&#160;&#160;&#160;&#160;&#160;&#160;&#160;&#160;&#160;&#160;&#160;&#160;&#160;</text>
<polygon fill="none" stroke="#99ccff" points="976.0391,-476.5 976.0391,-493.5 1081.0391,-493.5 1081.0391,-476.5 976.0391,-476.5"/>
<text text-anchor="start" x="1008.7358" y="-481.7" font-family="Courier,monospace" font-size="11.00" fill="#000000">id(18)</text>
<polygon fill="none" stroke="#99ccff" points="291.0391,-459.5 291.0391,-476.5 976.0391,-476.5 976.0391,-459.5 291.0391,-459.5"/>
<text text-anchor="start" x="294.0391" y="-464.7" font-family="Courier,monospace" font-size="11.00" fill="#000000"> &#160;&#160;&#160;&#160;&#160;&#160;&#160;&#160;&#160;&#160;&#160;&#160;&#160;&#160;&#160;&#160;&#160;&#160;&#160;&#160;&#160;&#160;&#160;&#160;&#160;&#160;&#160;&#160;&#160;&#160;&#160;&#160;&#160;&#160;&#160;&#160;&#160;&#160;&#160;&#160;IsDeleted &#160;&#160;&#160;&#160;&#160;&#160;&#160;&#160;&#160;&#160;&#160;&#160;&#160;&#160;&#160;&#160;&#160;&#160;&#160;&#160;&#160;&#160;&#160;&#160;&#160;&#160;&#160;&#160;&#160;&#160;&#160;&#160;&#160;&#160;&#160;&#160;&#160;&#160;</text>
<polygon fill="none" stroke="#99ccff" points="976.0391,-459.5 976.0391,-476.5 1081.0391,-476.5 1081.0391,-459.5 976.0391,-459.5"/>
<text text-anchor="start" x="1005.4353" y="-464.7" font-family="Courier,monospace" font-size="11.00" fill="#000000">boolean</text>
<polygon fill="none" stroke="#99ccff" points="291.0391,-442.5 291.0391,-459.5 976.0391,-459.5 976.0391,-442.5 291.0391,-442.5"/>
<text text-anchor="start" x="294.0391" y="-447.7" font-family="Courier,monospace" font-size="11.00" fill="#000000"> &#160;&#160;&#160;&#160;&#160;&#160;&#160;&#160;&#160;&#160;&#160;&#160;&#160;&#160;&#160;&#160;&#160;&#160;&#160;&#160;&#160;&#160;&#160;&#160;&#160;&#160;&#160;&#160;&#160;&#160;&#160;&#160;&#160;&#160;&#160;&#160;&#160;&#160;&#160;&#160;Name &#160;&#160;&#160;&#160;&#160;&#160;&#160;&#160;&#160;&#160;&#160;&#160;&#160;&#160;&#160;&#160;&#160;&#160;&#160;&#160;&#160;&#160;&#160;&#160;&#160;&#160;&#160;&#160;&#160;&#160;&#160;&#160;&#160;&#160;&#160;&#160;&#160;&#160;</text>
<polygon fill="none" stroke="#99ccff" points="976.0391,-442.5 976.0391,-459.5 1081.0391,-459.5 1081.0391,-442.5 976.0391,-442.5"/>
<text text-anchor="start" x="992.2332" y="-447.7" font-family="Courier,monospace" font-size="11.00" fill="#000000">string(255)</text>
<polygon fill="none" stroke="#99ccff" points="291.0391,-425.5 291.0391,-442.5 976.0391,-442.5 976.0391,-425.5 291.0391,-425.5"/>
<text text-anchor="start" x="294.0391" y="-430.7" font-family="Courier,monospace" font-size="11.00" fill="#000000"> &#160;&#160;&#160;&#160;&#160;&#160;&#160;&#160;&#160;&#160;&#160;&#160;&#160;&#160;&#160;&#160;&#160;&#160;&#160;&#160;&#160;&#160;&#160;&#160;&#160;&#160;&#160;&#160;&#160;&#160;&#160;&#160;&#160;&#160;&#160;&#160;&#160;&#160;&#160;&#160;LastModifiedById &#160;&#160;&#160;&#160;&#160;&#160;&#160;&#160;&#160;&#160;&#160;&#160;&#160;&#160;&#160;&#160;&#160;&#160;&#160;&#160;&#160;&#160;&#160;&#160;&#160;&#160;&#160;&#160;&#160;&#160;&#160;&#160;&#160;&#160;&#160;&#160;&#160;&#160;</text>
<polygon fill="none" stroke="#99ccff" points="976.0391,-425.5 976.0391,-442.5 1081.0391,-442.5 1081.0391,-425.5 976.0391,-425.5"/>
<text text-anchor="start" x="985.6321" y="-430.7" font-family="Courier,monospace" font-size="11.00" fill="#000000">reference(18)</text>
<polygon fill="none" stroke="#99ccff" points="291.0391,-408.5 291.0391,-425.5 976.0391,-425.5 976.0391,-408.5 291.0391,-408.5"/>
<text text-anchor="start" x="294.0391" y="-413.7" font-family="Courier,monospace" font-size="11.00" fill="#000000"> &#160;&#160;&#160;&#160;&#160;&#160;&#160;&#160;&#160;&#160;&#160;&#160;&#160;&#160;&#160;&#160;&#160;&#160;&#160;&#160;&#160;&#160;&#160;&#160;&#160;&#160;&#160;&#160;&#160;&#160;&#160;&#160;&#160;&#160;&#160;&#160;&#160;&#160;&#160;&#160;LastViewedDate &#160;&#160;&#160;&#160;&#160;&#160;&#160;&#160;&#160;&#160;&#160;&#160;&#160;&#160;&#160;&#160;&#160;&#160;&#160;&#160;&#160;&#160;&#160;&#160;&#160;&#160;&#160;&#160;&#160;&#160;&#160;&#160;&#160;&#160;&#160;&#160;&#160;&#160;</text>
<polygon fill="none" stroke="#99ccff" points="976.0391,-408.5 976.0391,-425.5 1081.0391,-425.5 1081.0391,-408.5 976.0391,-408.5"/>
<text text-anchor="start" x="1002.1348" y="-413.7" font-family="Courier,monospace" font-size="11.00" fill="#000000">datetime</text>
<polygon fill="none" stroke="#99ccff" points="291.0391,-391.5 291.0391,-408.5 976.0391,-408.5 976.0391,-391.5 291.0391,-391.5"/>
<text text-anchor="start" x="294.0391" y="-396.7" font-family="Courier,monospace" font-size="11.00" fill="#000000"> &#160;&#160;&#160;&#160;&#160;&#160;&#160;&#160;&#160;&#160;&#160;&#160;&#160;&#160;&#160;&#160;&#160;&#160;&#160;&#160;&#160;&#160;&#160;&#160;&#160;&#160;&#160;&#160;&#160;&#160;&#160;&#160;&#160;&#160;&#160;&#160;&#160;&#160;&#160;&#160;LastReferencedDate &#160;&#160;&#160;&#160;&#160;&#160;&#160;&#160;&#160;&#160;&#160;&#160;&#160;&#160;&#160;&#160;&#160;&#160;&#160;&#160;&#160;&#160;&#160;&#160;&#160;&#160;&#160;&#160;&#160;&#160;&#160;&#160;&#160;&#160;&#160;&#160;&#160;&#160;</text>
<polygon fill="none" stroke="#99ccff" points="976.0391,-391.5 976.0391,-408.5 1081.0391,-408.5 1081.0391,-391.5 976.0391,-391.5"/>
<text text-anchor="start" x="1002.1348" y="-396.7" font-family="Courier,monospace" font-size="11.00" fill="#000000">datetime</text>
<polygon fill="none" stroke="#99ccff" points="291.0391,-374.5 291.0391,-391.5 976.0391,-391.5 976.0391,-374.5 291.0391,-374.5"/>
<text text-anchor="start" x="294.0391" y="-379.7" font-family="Courier,monospace" font-size="11.00" fill="#000000"> &#160;&#160;&#160;&#160;&#160;&#160;&#160;&#160;&#160;&#160;&#160;&#160;&#160;&#160;&#160;&#160;&#160;&#160;&#160;&#160;&#160;&#160;&#160;&#160;&#160;&#160;&#160;&#160;&#160;&#160;&#160;&#160;&#160;&#160;&#160;&#160;&#160;&#160;&#160;&#160;InsurancePolicyId &#160;&#160;&#160;&#160;&#160;&#160;&#160;&#160;&#160;&#160;&#160;&#160;&#160;&#160;&#160;&#160;&#160;&#160;&#160;&#160;&#160;&#160;&#160;&#160;&#160;&#160;&#160;&#160;&#160;&#160;&#160;&#160;&#160;&#160;&#160;&#160;&#160;&#160;</text>
<polygon fill="none" stroke="#99ccff" points="976.0391,-374.5 976.0391,-391.5 1081.0391,-391.5 1081.0391,-374.5 976.0391,-374.5"/>
<text text-anchor="start" x="985.6321" y="-379.7" font-family="Courier,monospace" font-size="11.00" fill="#000000">reference(18)</text>
<polygon fill="none" stroke="#99ccff" points="291.0391,-357.5 291.0391,-374.5 976.0391,-374.5 976.0391,-357.5 291.0391,-357.5"/>
<text text-anchor="start" x="294.0391" y="-362.7" font-family="Courier,monospace" font-size="11.00" fill="#000000"> &#160;&#160;&#160;&#160;&#160;&#160;&#160;&#160;&#160;&#160;&#160;&#160;&#160;&#160;&#160;&#160;&#160;&#160;&#160;&#160;&#160;&#160;&#160;&#160;&#160;&#160;&#160;&#160;&#160;&#160;&#160;&#160;&#160;&#160;&#160;&#160;&#160;&#160;&#160;&#160;CategoryCode &#160;&#160;&#160;&#160;&#160;&#160;&#160;&#160;&#160;&#160;&#160;&#160;&#160;&#160;&#160;&#160;&#160;&#160;&#160;&#160;&#160;&#160;&#160;&#160;&#160;&#160;&#160;&#160;&#160;&#160;&#160;&#160;&#160;&#160;&#160;&#160;&#160;&#160;</text>
<polygon fill="none" stroke="#99ccff" points="976.0391,-357.5 976.0391,-374.5 1081.0391,-374.5 1081.0391,-357.5 976.0391,-357.5"/>
<text text-anchor="start" x="992.2332" y="-362.7" font-family="Courier,monospace" font-size="11.00" fill="#000000">string(255)</text>
<polygon fill="none" stroke="#99ccff" points="291.0391,-340.5 291.0391,-357.5 976.0391,-357.5 976.0391,-340.5 291.0391,-340.5"/>
<text text-anchor="start" x="294.0391" y="-345.7" font-family="Courier,monospace" font-size="11.00" fill="#000000"> &#160;&#160;&#160;&#160;&#160;&#160;&#160;&#160;&#160;&#160;&#160;&#160;&#160;&#160;&#160;&#160;&#160;&#160;&#160;&#160;&#160;&#160;&#160;&#160;&#160;&#160;&#160;&#160;&#160;&#160;&#160;&#160;&#160;&#160;&#160;&#160;&#160;&#160;&#160;&#160;LimitRange &#160;&#160;&#160;&#160;&#160;&#160;&#160;&#160;&#160;&#160;&#160;&#160;&#160;&#160;&#160;&#160;&#160;&#160;&#160;&#160;&#160;&#160;&#160;&#160;&#160;&#160;&#160;&#160;&#160;&#160;&#160;&#160;&#160;&#160;&#160;&#160;&#160;&#160;</text>
<polygon fill="none" stroke="#99ccff" points="976.0391,-340.5 976.0391,-357.5 1081.0391,-357.5 1081.0391,-340.5 976.0391,-340.5"/>
<text text-anchor="start" x="988.9326" y="-345.7" font-family="Courier,monospace" font-size="11.00" fill="#000000">picklist(40)</text>
<polygon fill="none" stroke="#99ccff" points="291.0391,-323.5 291.0391,-340.5 976.0391,-340.5 976.0391,-323.5 291.0391,-323.5"/>
<text text-anchor="start" x="294.0391" y="-328.7" font-family="Courier,monospace" font-size="11.00" fill="#000000"> &#160;&#160;&#160;&#160;&#160;&#160;&#160;&#160;&#160;&#160;&#160;&#160;&#160;&#160;&#160;&#160;&#160;&#160;&#160;&#160;&#160;&#160;&#160;&#160;&#160;&#160;&#160;&#160;&#160;&#160;&#160;&#160;&#160;&#160;&#160;&#160;&#160;&#160;&#160;&#160;LimitAmount &#160;&#160;&#160;&#160;&#160;&#160;&#160;&#160;&#160;&#160;&#160;&#160;&#160;&#160;&#160;&#160;&#160;&#160;&#160;&#160;&#160;&#160;&#160;&#160;&#160;&#160;&#160;&#160;&#160;&#160;&#160;&#160;&#160;&#160;&#160;&#160;&#160;&#160;</text>
<polygon fill="none" stroke="#99ccff" points="976.0391,-323.5 976.0391,-340.5 1081.0391,-340.5 1081.0391,-323.5 976.0391,-323.5"/>
<text text-anchor="start" x="1002.1348" y="-328.7" font-family="Courier,monospace" font-size="11.00" fill="#000000">currency</text>
<polygon fill="none" stroke="#99ccff" points="291.0391,-306.5 291.0391,-323.5 976.0391,-323.5 976.0391,-306.5 291.0391,-306.5"/>
<text text-anchor="start" x="294.0391" y="-311.7" font-family="Courier,monospace" font-size="11.00" fill="#000000"> &#160;&#160;&#160;&#160;&#160;&#160;&#160;&#160;&#160;&#160;&#160;&#160;&#160;&#160;&#160;&#160;&#160;&#160;&#160;&#160;&#160;&#160;&#160;&#160;&#160;&#160;&#160;&#160;&#160;&#160;&#160;&#160;&#160;&#160;&#160;&#160;&#160;&#160;&#160;&#160;LimitDate &#160;&#160;&#160;&#160;&#160;&#160;&#160;&#160;&#160;&#160;&#160;&#160;&#160;&#160;&#160;&#160;&#160;&#160;&#160;&#160;&#160;&#160;&#160;&#160;&#160;&#160;&#160;&#160;&#160;&#160;&#160;&#160;&#160;&#160;&#160;&#160;&#160;&#160;</text>
<polygon fill="none" stroke="#99ccff" points="976.0391,-306.5 976.0391,-323.5 1081.0391,-323.5 1081.0391,-306.5 976.0391,-306.5"/>
<text text-anchor="start" x="1015.3369" y="-311.7" font-family="Courier,monospace" font-size="11.00" fill="#000000">date</text>
<polygon fill="none" stroke="#99ccff" points="291.0391,-289.5 291.0391,-306.5 976.0391,-306.5 976.0391,-289.5 291.0391,-289.5"/>
<text text-anchor="start" x="294.0391" y="-294.7" font-family="Courier,monospace" font-size="11.00" fill="#000000"> &#160;&#160;&#160;&#160;&#160;&#160;&#160;&#160;&#160;&#160;&#160;&#160;&#160;&#160;&#160;&#160;&#160;&#160;&#160;&#160;&#160;&#160;&#160;&#160;&#160;&#160;&#160;&#160;&#160;&#160;&#160;&#160;&#160;&#160;&#160;&#160;&#160;&#160;&#160;&#160;LimitPercentage &#160;&#160;&#160;&#160;&#160;&#160;&#160;&#160;&#160;&#160;&#160;&#160;&#160;&#160;&#160;&#160;&#160;&#160;&#160;&#160;&#160;&#160;&#160;&#160;&#160;&#160;&#160;&#160;&#160;&#160;&#160;&#160;&#160;&#160;&#160;&#160;&#160;&#160;</text>
<polygon fill="none" stroke="#99ccff" points="976.0391,-289.5 976.0391,-306.5 1081.0391,-306.5 1081.0391,-289.5 976.0391,-289.5"/>
<text text-anchor="start" x="1005.4353" y="-294.7" font-family="Courier,monospace" font-size="11.00" fill="#000000">percent</text>
<polygon fill="none" stroke="#99ccff" points="291.0391,-272.5 291.0391,-289.5 976.0391,-289.5 976.0391,-272.5 291.0391,-272.5"/>
<text text-anchor="start" x="294.0391" y="-277.7" font-family="Courier,monospace" font-size="11.00" fill="#000000"> &#160;&#160;&#160;&#160;&#160;&#160;&#160;&#160;&#160;&#160;&#160;&#160;&#160;&#160;&#160;&#160;&#160;&#160;&#160;&#160;&#160;&#160;&#160;&#160;&#160;&#160;&#160;&#160;&#160;&#160;&#160;&#160;&#160;&#160;&#160;&#160;&#160;&#160;&#160;&#160;PremiumAmount &#160;&#160;&#160;&#160;&#160;&#160;&#160;&#160;&#160;&#160;&#160;&#160;&#160;&#160;&#160;&#160;&#160;&#160;&#160;&#160;&#160;&#160;&#160;&#160;&#160;&#160;&#160;&#160;&#160;&#160;&#160;&#160;&#160;&#160;&#160;&#160;&#160;&#160;</text>
<polygon fill="none" stroke="#99ccff" points="976.0391,-272.5 976.0391,-289.5 1081.0391,-289.5 1081.0391,-272.5 976.0391,-272.5"/>
<text text-anchor="start" x="1002.1348" y="-277.7" font-family="Courier,monospace" font-size="11.00" fill="#000000">currency</text>
<polygon fill="none" stroke="#99ccff" points="291.0391,-255.5 291.0391,-272.5 976.0391,-272.5 976.0391,-255.5 291.0391,-255.5"/>
<text text-anchor="start" x="294.0391" y="-260.7" font-family="Courier,monospace" font-size="11.00" fill="#000000"> &#160;&#160;&#160;&#160;&#160;&#160;&#160;&#160;&#160;&#160;&#160;&#160;&#160;&#160;&#160;&#160;&#160;&#160;&#160;&#160;&#160;&#160;&#160;&#160;&#160;&#160;&#160;&#160;&#160;&#160;&#160;&#160;&#160;&#160;&#160;&#160;&#160;&#160;&#160;&#160;DeductibleAmount &#160;&#160;&#160;&#160;&#160;&#160;&#160;&#160;&#160;&#160;&#160;&#160;&#160;&#160;&#160;&#160;&#160;&#160;&#160;&#160;&#160;&#160;&#160;&#160;&#160;&#160;&#160;&#160;&#160;&#160;&#160;&#160;&#160;&#160;&#160;&#160;&#160;&#160;</text>
<polygon fill="none" stroke="#99ccff" points="976.0391,-255.5 976.0391,-272.5 1081.0391,-272.5 1081.0391,-255.5 976.0391,-255.5"/>
<text text-anchor="start" x="1002.1348" y="-260.7" font-family="Courier,monospace" font-size="11.00" fill="#000000">currency</text>
<polygon fill="none" stroke="#99ccff" points="291.0391,-238.5 291.0391,-255.5 976.0391,-255.5 976.0391,-238.5 291.0391,-238.5"/>
<text text-anchor="start" x="294.0391" y="-243.7" font-family="Courier,monospace" font-size="11.00" fill="#000000"> &#160;&#160;&#160;&#160;&#160;&#160;&#160;&#160;&#160;&#160;&#160;&#160;&#160;&#160;&#160;&#160;&#160;&#160;&#160;&#160;&#160;&#160;&#160;&#160;&#160;&#160;&#160;&#160;&#160;&#160;&#160;&#160;&#160;&#160;&#160;&#160;&#160;&#160;&#160;&#160;Category &#160;&#160;&#160;&#160;&#160;&#160;&#160;&#160;&#160;&#160;&#160;&#160;&#160;&#160;&#160;&#160;&#160;&#160;&#160;&#160;&#160;&#160;&#160;&#160;&#160;&#160;&#160;&#160;&#160;&#160;&#160;&#160;&#160;&#160;&#160;&#160;&#160;&#160;</text>
<polygon fill="none" stroke="#99ccff" points="976.0391,-238.5 976.0391,-255.5 1081.0391,-255.5 1081.0391,-238.5 976.0391,-238.5"/>
<text text-anchor="start" x="988.9326" y="-243.7" font-family="Courier,monospace" font-size="11.00" fill="#000000">picklist(40)</text>
<polygon fill="none" stroke="#99ccff" points="291.0391,-221.5 291.0391,-238.5 976.0391,-238.5 976.0391,-221.5 291.0391,-221.5"/>
<text text-anchor="start" x="294.0391" y="-226.7" font-family="Courier,monospace" font-size="11.00" fill="#000000"> &#160;&#160;&#160;&#160;&#160;&#160;&#160;&#160;&#160;&#160;&#160;&#160;&#160;&#160;&#160;&#160;&#160;&#160;&#160;&#160;&#160;&#160;&#160;&#160;&#160;&#160;&#160;&#160;&#160;&#160;&#160;&#160;&#160;&#160;&#160;&#160;&#160;&#160;&#160;&#160;CategoryGroup &#160;&#160;&#160;&#160;&#160;&#160;&#160;&#160;&#160;&#160;&#160;&#160;&#160;&#160;&#160;&#160;&#160;&#160;&#160;&#160;&#160;&#160;&#160;&#160;&#160;&#160;&#160;&#160;&#160;&#160;&#160;&#160;&#160;&#160;&#160;&#160;&#160;&#160;</text>
<polygon fill="none" stroke="#99ccff" points="976.0391,-221.5 976.0391,-238.5 1081.0391,-238.5 1081.0391,-221.5 976.0391,-221.5"/>
<text text-anchor="start" x="988.9326" y="-226.7" font-family="Courier,monospace" font-size="11.00" fill="#000000">picklist(40)</text>
<polygon fill="none" stroke="#99ccff" points="291.0391,-204.5 291.0391,-221.5 976.0391,-221.5 976.0391,-204.5 291.0391,-204.5"/>
<text text-anchor="start" x="294.0391" y="-209.7" font-family="Courier,monospace" font-size="11.00" fill="#000000"> &#160;&#160;&#160;&#160;&#160;&#160;&#160;&#160;&#160;&#160;&#160;&#160;&#160;&#160;&#160;&#160;&#160;&#160;&#160;&#160;&#160;&#160;&#160;&#160;&#160;&#160;&#160;&#160;&#160;&#160;&#160;&#160;&#160;&#160;&#160;&#160;&#160;&#160;&#160;&#160;CategoryGroupType &#160;&#160;&#160;&#160;&#160;&#160;&#160;&#160;&#160;&#160;&#160;&#160;&#160;&#160;&#160;&#160;&#160;&#160;&#160;&#160;&#160;&#160;&#160;&#160;&#160;&#160;&#160;&#160;&#160;&#160;&#160;&#160;&#160;&#160;&#160;&#160;&#160;&#160;</text>
<polygon fill="none" stroke="#99ccff" points="976.0391,-204.5 976.0391,-221.5 1081.0391,-221.5 1081.0391,-204.5 976.0391,-204.5"/>
<text text-anchor="start" x="988.9326" y="-209.7" font-family="Courier,monospace" font-size="11.00" fill="#000000">picklist(40)</text>
<polygon fill="none" stroke="#99ccff" points="291.0391,-187.5 291.0391,-204.5 976.0391,-204.5 976.0391,-187.5 291.0391,-187.5"/>
<text text-anchor="start" x="294.0391" y="-192.7" font-family="Courier,monospace" font-size="11.00" fill="#000000"> &#160;&#160;&#160;&#160;&#160;&#160;&#160;&#160;&#160;&#160;&#160;&#160;&#160;&#160;&#160;&#160;&#160;&#160;&#160;&#160;&#160;&#160;&#160;&#160;&#160;&#160;&#160;&#160;&#160;&#160;&#160;&#160;&#160;&#160;&#160;&#160;&#160;&#160;&#160;&#160;Discount &#160;&#160;&#160;&#160;&#160;&#160;&#160;&#160;&#160;&#160;&#160;&#160;&#160;&#160;&#160;&#160;&#160;&#160;&#160;&#160;&#160;&#160;&#160;&#160;&#160;&#160;&#160;&#160;&#160;&#160;&#160;&#160;&#160;&#160;&#160;&#160;&#160;&#160;</text>
<polygon fill="none" stroke="#99ccff" points="976.0391,-187.5 976.0391,-204.5 1081.0391,-204.5 1081.0391,-187.5 976.0391,-187.5"/>
<text text-anchor="start" x="1002.1348" y="-192.7" font-family="Courier,monospace" font-size="11.00" fill="#000000">currency</text>
<polygon fill="none" stroke="#99ccff" points="291.0391,-170.5 291.0391,-187.5 976.0391,-187.5 976.0391,-170.5 291.0391,-170.5"/>
<text text-anchor="start" x="293.5837" y="-175.7" font-family="Courier,monospace" font-size="11.00" fill="#000000"> &#160;&#160;&#160;&#160;&#160;&#160;&#160;&#160;&#160;&#160;&#160;&#160;&#160;&#160;&#160;&#160;&#160;&#160;&#160;&#160;&#160;&#160;&#160;&#160;&#160;&#160;&#160;&#160;&#160;&#160;&#160;&#160;&#160;&#160;&#160;&#160;&#160;&#160;&#160;&#160;BenefitPaymentFrequency &#160;&#160;&#160;&#160;&#160;&#160;&#160;&#160;&#160;&#160;&#160;&#160;&#160;&#160;&#160;&#160;&#160;&#160;&#160;&#160;&#160;&#160;&#160;&#160;&#160;&#160;&#160;&#160;&#160;&#160;&#160;&#160;&#160;&#160;&#160;&#160;&#160;&#160;</text>
<polygon fill="none" stroke="#99ccff" points="976.0391,-170.5 976.0391,-187.5 1081.0391,-187.5 1081.0391,-170.5 976.0391,-170.5"/>
<text text-anchor="start" x="988.9326" y="-175.7" font-family="Courier,monospace" font-size="11.00" fill="#000000">picklist(40)</text>
<polygon fill="none" stroke="#99ccff" points="291.0391,-153.5 291.0391,-170.5 976.0391,-170.5 976.0391,-153.5 291.0391,-153.5"/>
<text text-anchor="start" x="294.0391" y="-158.7" font-family="Courier,monospace" font-size="11.00" fill="#000000"> &#160;&#160;&#160;&#160;&#160;&#160;&#160;&#160;&#160;&#160;&#160;&#160;&#160;&#160;&#160;&#160;&#160;&#160;&#160;&#160;&#160;&#160;&#160;&#160;&#160;&#160;&#160;&#160;&#160;&#160;&#160;&#160;&#160;&#160;&#160;&#160;&#160;&#160;&#160;&#160;EffectiveDate &#160;&#160;&#160;&#160;&#160;&#160;&#160;&#160;&#160;&#160;&#160;&#160;&#160;&#160;&#160;&#160;&#160;&#160;&#160;&#160;&#160;&#160;&#160;&#160;&#160;&#160;&#160;&#160;&#160;&#160;&#160;&#160;&#160;&#160;&#160;&#160;&#160;&#160;</text>
<polygon fill="none" stroke="#99ccff" points="976.0391,-153.5 976.0391,-170.5 1081.0391,-170.5 1081.0391,-153.5 976.0391,-153.5"/>
<text text-anchor="start" x="1002.1348" y="-158.7" font-family="Courier,monospace" font-size="11.00" fill="#000000">datetime</text>
<polygon fill="none" stroke="#99ccff" points="291.0391,-136.5 291.0391,-153.5 976.0391,-153.5 976.0391,-136.5 291.0391,-136.5"/>
<text text-anchor="start" x="294.0391" y="-141.7" font-family="Courier,monospace" font-size="11.00" fill="#000000"> &#160;&#160;&#160;&#160;&#160;&#160;&#160;&#160;&#160;&#160;&#160;&#160;&#160;&#160;&#160;&#160;&#160;&#160;&#160;&#160;&#160;&#160;&#160;&#160;&#160;&#160;&#160;&#160;&#160;&#160;&#160;&#160;&#160;&#160;&#160;&#160;&#160;&#160;&#160;&#160;ExpirationDate &#160;&#160;&#160;&#160;&#160;&#160;&#160;&#160;&#160;&#160;&#160;&#160;&#160;&#160;&#160;&#160;&#160;&#160;&#160;&#160;&#160;&#160;&#160;&#160;&#160;&#160;&#160;&#160;&#160;&#160;&#160;&#160;&#160;&#160;&#160;&#160;&#160;&#160;</text>
<polygon fill="none" stroke="#99ccff" points="976.0391,-136.5 976.0391,-153.5 1081.0391,-153.5 1081.0391,-136.5 976.0391,-136.5"/>
<text text-anchor="start" x="1002.1348" y="-141.7" font-family="Courier,monospace" font-size="11.00" fill="#000000">datetime</text>
<polygon fill="none" stroke="#99ccff" points="291.0391,-119.5 291.0391,-136.5 976.0391,-136.5 976.0391,-119.5 291.0391,-119.5"/>
<text text-anchor="start" x="294.0391" y="-124.7" font-family="Courier,monospace" font-size="11.00" fill="#000000"> &#160;&#160;&#160;&#160;&#160;&#160;&#160;&#160;&#160;&#160;&#160;&#160;&#160;&#160;&#160;&#160;&#160;&#160;&#160;&#160;&#160;&#160;&#160;&#160;&#160;&#160;&#160;&#160;&#160;&#160;&#160;&#160;&#160;&#160;&#160;&#160;&#160;&#160;&#160;&#160;IncomeOptionType &#160;&#160;&#160;&#160;&#160;&#160;&#160;&#160;&#160;&#160;&#160;&#160;&#160;&#160;&#160;&#160;&#160;&#160;&#160;&#160;&#160;&#160;&#160;&#160;&#160;&#160;&#160;&#160;&#160;&#160;&#160;&#160;&#160;&#160;&#160;&#160;&#160;&#160;</text>
<polygon fill="none" stroke="#99ccff" points="976.0391,-119.5 976.0391,-136.5 1081.0391,-136.5 1081.0391,-119.5 976.0391,-119.5"/>
<text text-anchor="start" x="988.9326" y="-124.7" font-family="Courier,monospace" font-size="11.00" fill="#000000">picklist(40)</text>
<polygon fill="none" stroke="#99ccff" points="291.0391,-102.5 291.0391,-119.5 976.0391,-119.5 976.0391,-102.5 291.0391,-102.5"/>
<text text-anchor="start" x="294.0391" y="-107.7" font-family="Courier,monospace" font-size="11.00" fill="#000000"> &#160;&#160;&#160;&#160;&#160;&#160;&#160;&#160;&#160;&#160;&#160;&#160;&#160;&#160;&#160;&#160;&#160;&#160;&#160;&#160;&#160;&#160;&#160;&#160;&#160;&#160;&#160;&#160;&#160;&#160;&#160;&#160;&#160;&#160;&#160;&#160;&#160;&#160;&#160;&#160;DeathBenefitOptionType &#160;&#160;&#160;&#160;&#160;&#160;&#160;&#160;&#160;&#160;&#160;&#160;&#160;&#160;&#160;&#160;&#160;&#160;&#160;&#160;&#160;&#160;&#160;&#160;&#160;&#160;&#160;&#160;&#160;&#160;&#160;&#160;&#160;&#160;&#160;&#160;&#160;&#160;</text>
<polygon fill="none" stroke="#99ccff" points="976.0391,-102.5 976.0391,-119.5 1081.0391,-119.5 1081.0391,-102.5 976.0391,-102.5"/>
<text text-anchor="start" x="988.9326" y="-107.7" font-family="Courier,monospace" font-size="11.00" fill="#000000">picklist(40)</text>
<polygon fill="none" stroke="#99ccff" points="291.0391,-85.5 291.0391,-102.5 976.0391,-102.5 976.0391,-85.5 291.0391,-85.5"/>
<text text-anchor="start" x="294.0391" y="-90.7" font-family="Courier,monospace" font-size="11.00" fill="#000000"> &#160;&#160;&#160;&#160;&#160;&#160;&#160;&#160;&#160;&#160;&#160;&#160;&#160;&#160;&#160;&#160;&#160;&#160;&#160;&#160;&#160;&#160;&#160;&#160;&#160;&#160;&#160;&#160;&#160;&#160;&#160;&#160;&#160;&#160;&#160;&#160;&#160;&#160;&#160;&#160;InsurancePolicyAssetId &#160;&#160;&#160;&#160;&#160;&#160;&#160;&#160;&#160;&#160;&#160;&#160;&#160;&#160;&#160;&#160;&#160;&#160;&#160;&#160;&#160;&#160;&#160;&#160;&#160;&#160;&#160;&#160;&#160;&#160;&#160;&#160;&#160;&#160;&#160;&#160;&#160;&#160;</text>
<polygon fill="none" stroke="#99ccff" points="976.0391,-85.5 976.0391,-102.5 1081.0391,-102.5 1081.0391,-85.5 976.0391,-85.5"/>
<text text-anchor="start" x="985.6321" y="-90.7" font-family="Courier,monospace" font-size="11.00" fill="#000000">reference(18)</text>
<polygon fill="none" stroke="#99ccff" points="291.0391,-68.5 291.0391,-85.5 976.0391,-85.5 976.0391,-68.5 291.0391,-68.5"/>
<text text-anchor="start" x="294.0391" y="-73.7" font-family="Courier,monospace" font-size="11.00" fill="#000000"> &#160;&#160;&#160;&#160;&#160;&#160;&#160;&#160;&#160;&#160;&#160;&#160;&#160;&#160;&#160;&#160;&#160;&#160;&#160;&#160;&#160;&#160;&#160;&#160;&#160;&#160;&#160;&#160;&#160;&#160;&#160;&#160;&#160;&#160;&#160;&#160;&#160;&#160;&#160;&#160;SourceSystemIdentifier &#160;&#160;&#160;&#160;&#160;&#160;&#160;&#160;&#160;&#160;&#160;&#160;&#160;&#160;&#160;&#160;&#160;&#160;&#160;&#160;&#160;&#160;&#160;&#160;&#160;&#160;&#160;&#160;&#160;&#160;&#160;&#160;&#160;&#160;&#160;&#160;&#160;&#160;</text>
<polygon fill="none" stroke="#99ccff" points="976.0391,-68.5 976.0391,-85.5 1081.0391,-85.5 1081.0391,-68.5 976.0391,-68.5"/>
<text text-anchor="start" x="992.2332" y="-73.7" font-family="Courier,monospace" font-size="11.00" fill="#000000">string(255)</text>
<polygon fill="none" stroke="#99ccff" points="291.0391,-51.5 291.0391,-68.5 976.0391,-68.5 976.0391,-51.5 291.0391,-51.5"/>
<text text-anchor="start" x="294.0391" y="-56.7" font-family="Courier,monospace" font-size="11.00" fill="#000000"> &#160;&#160;&#160;&#160;&#160;&#160;&#160;&#160;&#160;&#160;&#160;&#160;&#160;&#160;&#160;&#160;&#160;&#160;&#160;&#160;&#160;&#160;&#160;&#160;&#160;&#160;&#160;&#160;&#160;&#160;&#160;&#160;&#160;&#160;&#160;&#160;&#160;&#160;&#160;&#160;SourceSystem &#160;&#160;&#160;&#160;&#160;&#160;&#160;&#160;&#160;&#160;&#160;&#160;&#160;&#160;&#160;&#160;&#160;&#160;&#160;&#160;&#160;&#160;&#160;&#160;&#160;&#160;&#160;&#160;&#160;&#160;&#160;&#160;&#160;&#160;&#160;&#160;&#160;&#160;</text>
<polygon fill="none" stroke="#99ccff" points="976.0391,-51.5 976.0391,-68.5 1081.0391,-68.5 1081.0391,-51.5 976.0391,-51.5"/>
<text text-anchor="start" x="992.2332" y="-56.7" font-family="Courier,monospace" font-size="11.00" fill="#000000">string(255)</text>
<polygon fill="none" stroke="#99ccff" points="291.0391,-34.5 291.0391,-51.5 976.0391,-51.5 976.0391,-34.5 291.0391,-34.5"/>
<text text-anchor="start" x="294.0391" y="-39.7" font-family="Courier,monospace" font-size="11.00" fill="#000000"> &#160;&#160;&#160;&#160;&#160;&#160;&#160;&#160;&#160;&#160;&#160;&#160;&#160;&#160;&#160;&#160;&#160;&#160;&#160;&#160;&#160;&#160;&#160;&#160;&#160;&#160;&#160;&#160;&#160;&#160;&#160;&#160;&#160;&#160;&#160;&#160;&#160;&#160;&#160;&#160;CoverageName &#160;&#160;&#160;&#160;&#160;&#160;&#160;&#160;&#160;&#160;&#160;&#160;&#160;&#160;&#160;&#160;&#160;&#160;&#160;&#160;&#160;&#160;&#160;&#160;&#160;&#160;&#160;&#160;&#160;&#160;&#160;&#160;&#160;&#160;&#160;&#160;&#160;&#160;</text>
<polygon fill="none" stroke="#99ccff" points="976.0391,-34.5 976.0391,-51.5 1081.0391,-51.5 1081.0391,-34.5 976.0391,-34.5"/>
<text text-anchor="start" x="992.2332" y="-39.7" font-family="Courier,monospace" font-size="11.00" fill="#000000">string(255)</text>
<polygon fill="none" stroke="#99ccff" points="291.0391,-17.5 291.0391,-34.5 976.0391,-34.5 976.0391,-17.5 291.0391,-17.5"/>
<text text-anchor="start" x="294.0391" y="-22.7" font-family="Courier,monospace" font-size="11.00" fill="#000000"> &#160;&#160;&#160;&#160;&#160;&#160;&#160;&#160;&#160;&#160;&#160;&#160;&#160;&#160;&#160;&#160;&#160;&#160;&#160;&#160;&#160;&#160;&#160;&#160;&#160;&#160;&#160;&#160;&#160;&#160;&#160;&#160;&#160;&#160;&#160;&#160;&#160;&#160;&#160;&#160;Description &#160;&#160;&#160;&#160;&#160;&#160;&#160;&#160;&#160;&#160;&#160;&#160;&#160;&#160;&#160;&#160;&#160;&#160;&#160;&#160;&#160;&#160;&#160;&#160;&#160;&#160;&#160;&#160;&#160;&#160;&#160;&#160;&#160;&#160;&#160;&#160;&#160;&#160;</text>
<polygon fill="none" stroke="#99ccff" points="976.0391,-17.5 976.0391,-34.5 1081.0391,-34.5 1081.0391,-17.5 976.0391,-17.5"/>
<text text-anchor="start" x="979.031" y="-22.7" font-family="Courier,monospace" font-size="11.00" fill="#000000">textarea(32000)</text>
<polygon fill="none" stroke="#99ccff" points="290.0391,-17 290.0391,-512 1082.0391,-512 1082.0391,-17 290.0391,-17"/>
</a>
</g>
</g>
<!-- User -->
<g id="node2" class="node">
<title>User</title>
<text text-anchor="middle" x="74.0107" y="-431.2" font-family="Courier,monospace" font-size="11.00" fill="#000000">User</text>
</g>
<!-- InsurancePolicyCoverage&#45;&gt;User -->
<g id="edge1" class="edge">
<title>InsurancePolicyCoverage:w&#45;&gt;User:e</title>
<path fill="none" stroke="#ff99cc" d="M276.4519,-434.5C211.5261,-434.5 139.2573,-434.5 101.0784,-434.5"/>
<polygon fill="#ff99cc" stroke="#ff99cc" points="283.0391,-434.5001 291.0391,-438.1 287.0391,-434.5 291.0391,-434.5 291.0391,-434.5 291.0391,-434.5 287.0391,-434.5 291.039,-430.9 283.0391,-434.5001 283.0391,-434.5001"/>
<ellipse fill="none" stroke="#ff99cc" cx="279.8391" cy="-434.5001" rx="3.2" ry="3.2"/>
<text text-anchor="middle" x="219.0303" y="-439.3015" font-family="Monaco" font-size="9.00" fill="#000000">LastModifiedBy</text>
</g>
<!-- InsurancePolicy -->
<g id="node3" class="node">
<title>InsurancePolicy</title>
<text text-anchor="middle" x="74.0107" y="-380.2" font-family="Courier,monospace" font-size="11.00" fill="#000000">InsurancePolicy</text>
</g>
<!-- InsurancePolicyCoverage&#45;&gt;InsurancePolicy -->
<g id="edge2" class="edge">
<title>InsurancePolicyCoverage:w&#45;&gt;InsurancePolicy:e</title>
<path fill="none" stroke="#ff99cc" d="M276.6244,-383.5C226.2725,-383.5 171.4804,-383.5 131.5856,-383.5"/>
<polygon fill="#ff99cc" stroke="#ff99cc" points="283.0391,-383.5001 291.0391,-387.1 287.0391,-383.5 291.0391,-383.5 291.0391,-383.5 291.0391,-383.5 287.0391,-383.5 291.039,-379.9 283.0391,-383.5001 283.0391,-383.5001"/>
<ellipse fill="none" stroke="#ff99cc" cx="279.8391" cy="-383.5001" rx="3.2" ry="3.2"/>
<text text-anchor="middle" x="219.0303" y="-388.3015" font-family="Monaco" font-size="9.00" fill="#000000">InsurancePolicy</text>
</g>
<!-- InsurancePolicyAsset -->
<g id="node4" class="node">
<title>InsurancePolicyAsset</title>
<text text-anchor="middle" x="74.0107" y="-90.2" font-family="Courier,monospace" font-size="11.00" fill="#000000">InsurancePolicyAsset</text>
</g>
<!-- InsurancePolicyCoverage&#45;&gt;InsurancePolicyAsset -->
<g id="edge3" class="edge">
<title>InsurancePolicyCoverage:w&#45;&gt;InsurancePolicyAsset:e</title>
<path fill="none" stroke="#ff99cc" d="M276.4113,-93.5C232.8519,-93.5 185.9913,-93.5 148.3404,-93.5"/>
<polygon fill="#ff99cc" stroke="#ff99cc" points="283.0391,-93.5001 291.0391,-97.1 287.0391,-93.5 291.0391,-93.5 291.0391,-93.5 291.0391,-93.5 287.0391,-93.5 291.039,-89.9 283.0391,-93.5001 283.0391,-93.5001"/>
<ellipse fill="none" stroke="#ff99cc" cx="279.8391" cy="-93.5001" rx="3.2" ry="3.2"/>
<text text-anchor="middle" x="219.0303" y="-98.3015" font-family="Monaco" font-size="9.00" fill="#000000">InsurancePolicyAsset</text>
</g>
</g>
</svg>
