<?xml version="1.0" encoding="UTF-8" standalone="no"?>
<!DOCTYPE svg PUBLIC "-//W3C//DTD SVG 1.1//EN"
 "http://www.w3.org/Graphics/SVG/1.1/DTD/svg11.dtd">
<!-- Generated by graphviz version 2.40.1 (20161225.0304)
 -->
<!-- Title: Salesforce+ ERD Pages: 1 -->
<svg width="1070pt" height="219pt"
 viewBox="0.00 0.00 1070.04 219.00" xmlns="http://www.w3.org/2000/svg" xmlns:xlink="http://www.w3.org/1999/xlink">
<g id="graph0" class="graph" transform="scale(1 1) rotate(0) translate(4 215)">
<title>Salesforce+ ERD</title>
<polygon fill="#efeffd" stroke="transparent" points="-4,4 -4,-215 1066.0391,-215 1066.0391,4 -4,4"/>
<text text-anchor="middle" x="1013.5325" y="-5.8" font-family="Courier,monospace" font-size="9.00" fill="#000000">Salesforce ERD </text>
<!-- LoanApplicantAsset -->
<g id="node1" class="node">
<title>LoanApplicantAsset</title>
<g id="a_node1"><a xlink:href="#" xlink:title=" LoanApplicantAsset ">
<polygon fill="#ffeeff" stroke="transparent" points="290.0391,-39 290.0391,-211 1062.0391,-211 1062.0391,-39 290.0391,-39"/>
<polygon fill="#add8e6" stroke="transparent" points="291.0391,-193 291.0391,-210 1061.0391,-210 1061.0391,-193 291.0391,-193"/>
<polygon fill="none" stroke="#99ccff" points="291.0391,-193 291.0391,-210 1061.0391,-210 1061.0391,-193 291.0391,-193"/>
<text text-anchor="start" x="616.6294" y="-199.2" font-family="Courier,monospace" font-weight="bold" font-size="11.00" fill="#000000">LoanApplicantAsset</text>
<polygon fill="#99ccff" stroke="transparent" points="291.0391,-176 291.0391,-193 970.0391,-193 970.0391,-176 291.0391,-176"/>
<polygon fill="none" stroke="#99ccff" points="291.0391,-176 291.0391,-193 970.0391,-193 970.0391,-176 291.0391,-176"/>
<text text-anchor="start" x="294.0391" y="-182.2" font-family="Courier,monospace" font-size="11.00" fill="#000000"> &#160;&#160;&#160;&#160;&#160;&#160;&#160;&#160;&#160;&#160;&#160;&#160;&#160;&#160;&#160;&#160;&#160;&#160;&#160;&#160;&#160;&#160;&#160;&#160;&#160;&#160;&#160;&#160;&#160;&#160;&#160;&#160;&#160;&#160;&#160;&#160;&#160;&#160;&#160;&#160;&#160;&#160;</text>
<text text-anchor="start" x="577.8853" y="-182.2" font-family="Courier,monospace" font-weight="bold" font-size="11.00" fill="#000000">Id</text>
<text text-anchor="start" x="591.0874" y="-182.2" font-family="Courier,monospace" font-size="11.00" fill="#000000"> &#160;&#160;&#160;&#160;&#160;&#160;&#160;&#160;&#160;&#160;&#160;&#160;&#160;&#160;&#160;&#160;&#160;&#160;&#160;&#160;&#160;&#160;&#160;&#160;&#160;&#160;&#160;&#160;&#160;&#160;&#160;&#160;&#160;&#160;&#160;&#160;&#160;&#160;&#160;</text>
<polygon fill="none" stroke="#99ccff" points="970.0391,-176 970.0391,-193 1061.0391,-193 1061.0391,-176 970.0391,-176"/>
<text text-anchor="start" x="995.7358" y="-181.2" font-family="Courier,monospace" font-size="11.00" fill="#000000">id(18)</text>
<polygon fill="none" stroke="#99ccff" points="291.0391,-159 291.0391,-176 970.0391,-176 970.0391,-159 291.0391,-159"/>
<text text-anchor="start" x="294.0391" y="-164.2" font-family="Courier,monospace" font-size="11.00" fill="#000000"> &#160;&#160;&#160;&#160;&#160;&#160;&#160;&#160;&#160;&#160;&#160;&#160;&#160;&#160;&#160;&#160;&#160;&#160;&#160;&#160;&#160;&#160;&#160;&#160;&#160;&#160;&#160;&#160;&#160;&#160;&#160;&#160;&#160;&#160;&#160;&#160;&#160;&#160;&#160;&#160;IsDeleted &#160;&#160;&#160;&#160;&#160;&#160;&#160;&#160;&#160;&#160;&#160;&#160;&#160;&#160;&#160;&#160;&#160;&#160;&#160;&#160;&#160;&#160;&#160;&#160;&#160;&#160;&#160;&#160;&#160;&#160;&#160;&#160;&#160;&#160;&#160;&#160;&#160;&#160;</text>
<polygon fill="none" stroke="#99ccff" points="970.0391,-159 970.0391,-176 1061.0391,-176 1061.0391,-159 970.0391,-159"/>
<text text-anchor="start" x="992.4353" y="-164.2" font-family="Courier,monospace" font-size="11.00" fill="#000000">boolean</text>
<polygon fill="none" stroke="#99ccff" points="291.0391,-142 291.0391,-159 970.0391,-159 970.0391,-142 291.0391,-142"/>
<text text-anchor="start" x="294.0391" y="-147.2" font-family="Courier,monospace" font-size="11.00" fill="#000000"> &#160;&#160;&#160;&#160;&#160;&#160;&#160;&#160;&#160;&#160;&#160;&#160;&#160;&#160;&#160;&#160;&#160;&#160;&#160;&#160;&#160;&#160;&#160;&#160;&#160;&#160;&#160;&#160;&#160;&#160;&#160;&#160;&#160;&#160;&#160;&#160;&#160;&#160;&#160;&#160;Name &#160;&#160;&#160;&#160;&#160;&#160;&#160;&#160;&#160;&#160;&#160;&#160;&#160;&#160;&#160;&#160;&#160;&#160;&#160;&#160;&#160;&#160;&#160;&#160;&#160;&#160;&#160;&#160;&#160;&#160;&#160;&#160;&#160;&#160;&#160;&#160;&#160;&#160;</text>
<polygon fill="none" stroke="#99ccff" points="970.0391,-142 970.0391,-159 1061.0391,-159 1061.0391,-142 970.0391,-142"/>
<text text-anchor="start" x="979.2332" y="-147.2" font-family="Courier,monospace" font-size="11.00" fill="#000000">string(255)</text>
<polygon fill="none" stroke="#99ccff" points="291.0391,-125 291.0391,-142 970.0391,-142 970.0391,-125 291.0391,-125"/>
<text text-anchor="start" x="294.0391" y="-130.2" font-family="Courier,monospace" font-size="11.00" fill="#000000"> &#160;&#160;&#160;&#160;&#160;&#160;&#160;&#160;&#160;&#160;&#160;&#160;&#160;&#160;&#160;&#160;&#160;&#160;&#160;&#160;&#160;&#160;&#160;&#160;&#160;&#160;&#160;&#160;&#160;&#160;&#160;&#160;&#160;&#160;&#160;&#160;&#160;&#160;&#160;&#160;LastModifiedById &#160;&#160;&#160;&#160;&#160;&#160;&#160;&#160;&#160;&#160;&#160;&#160;&#160;&#160;&#160;&#160;&#160;&#160;&#160;&#160;&#160;&#160;&#160;&#160;&#160;&#160;&#160;&#160;&#160;&#160;&#160;&#160;&#160;&#160;&#160;&#160;&#160;&#160;</text>
<polygon fill="none" stroke="#99ccff" points="970.0391,-125 970.0391,-142 1061.0391,-142 1061.0391,-125 970.0391,-125"/>
<text text-anchor="start" x="972.6321" y="-130.2" font-family="Courier,monospace" font-size="11.00" fill="#000000">reference(18)</text>
<polygon fill="none" stroke="#99ccff" points="291.0391,-108 291.0391,-125 970.0391,-125 970.0391,-108 291.0391,-108"/>
<text text-anchor="start" x="294.0391" y="-113.2" font-family="Courier,monospace" font-size="11.00" fill="#000000"> &#160;&#160;&#160;&#160;&#160;&#160;&#160;&#160;&#160;&#160;&#160;&#160;&#160;&#160;&#160;&#160;&#160;&#160;&#160;&#160;&#160;&#160;&#160;&#160;&#160;&#160;&#160;&#160;&#160;&#160;&#160;&#160;&#160;&#160;&#160;&#160;&#160;&#160;&#160;&#160;LastViewedDate &#160;&#160;&#160;&#160;&#160;&#160;&#160;&#160;&#160;&#160;&#160;&#160;&#160;&#160;&#160;&#160;&#160;&#160;&#160;&#160;&#160;&#160;&#160;&#160;&#160;&#160;&#160;&#160;&#160;&#160;&#160;&#160;&#160;&#160;&#160;&#160;&#160;&#160;</text>
<polygon fill="none" stroke="#99ccff" points="970.0391,-108 970.0391,-125 1061.0391,-125 1061.0391,-108 970.0391,-108"/>
<text text-anchor="start" x="989.1348" y="-113.2" font-family="Courier,monospace" font-size="11.00" fill="#000000">datetime</text>
<polygon fill="none" stroke="#99ccff" points="291.0391,-91 291.0391,-108 970.0391,-108 970.0391,-91 291.0391,-91"/>
<text text-anchor="start" x="294.0391" y="-96.2" font-family="Courier,monospace" font-size="11.00" fill="#000000"> &#160;&#160;&#160;&#160;&#160;&#160;&#160;&#160;&#160;&#160;&#160;&#160;&#160;&#160;&#160;&#160;&#160;&#160;&#160;&#160;&#160;&#160;&#160;&#160;&#160;&#160;&#160;&#160;&#160;&#160;&#160;&#160;&#160;&#160;&#160;&#160;&#160;&#160;&#160;&#160;LastReferencedDate &#160;&#160;&#160;&#160;&#160;&#160;&#160;&#160;&#160;&#160;&#160;&#160;&#160;&#160;&#160;&#160;&#160;&#160;&#160;&#160;&#160;&#160;&#160;&#160;&#160;&#160;&#160;&#160;&#160;&#160;&#160;&#160;&#160;&#160;&#160;&#160;&#160;&#160;</text>
<polygon fill="none" stroke="#99ccff" points="970.0391,-91 970.0391,-108 1061.0391,-108 1061.0391,-91 970.0391,-91"/>
<text text-anchor="start" x="989.1348" y="-96.2" font-family="Courier,monospace" font-size="11.00" fill="#000000">datetime</text>
<polygon fill="none" stroke="#99ccff" points="291.0391,-74 291.0391,-91 970.0391,-91 970.0391,-74 291.0391,-74"/>
<text text-anchor="start" x="294.0391" y="-79.2" font-family="Courier,monospace" font-size="11.00" fill="#000000"> &#160;&#160;&#160;&#160;&#160;&#160;&#160;&#160;&#160;&#160;&#160;&#160;&#160;&#160;&#160;&#160;&#160;&#160;&#160;&#160;&#160;&#160;&#160;&#160;&#160;&#160;&#160;&#160;&#160;&#160;&#160;&#160;&#160;&#160;&#160;&#160;&#160;&#160;&#160;&#160;LoanApplicantId &#160;&#160;&#160;&#160;&#160;&#160;&#160;&#160;&#160;&#160;&#160;&#160;&#160;&#160;&#160;&#160;&#160;&#160;&#160;&#160;&#160;&#160;&#160;&#160;&#160;&#160;&#160;&#160;&#160;&#160;&#160;&#160;&#160;&#160;&#160;&#160;&#160;&#160;</text>
<polygon fill="none" stroke="#99ccff" points="970.0391,-74 970.0391,-91 1061.0391,-91 1061.0391,-74 970.0391,-74"/>
<text text-anchor="start" x="972.6321" y="-79.2" font-family="Courier,monospace" font-size="11.00" fill="#000000">reference(18)</text>
<polygon fill="none" stroke="#99ccff" points="291.0391,-57 291.0391,-74 970.0391,-74 970.0391,-57 291.0391,-57"/>
<text text-anchor="start" x="293.8843" y="-62.2" font-family="Courier,monospace" font-size="11.00" fill="#000000"> &#160;&#160;&#160;&#160;&#160;&#160;&#160;&#160;&#160;&#160;&#160;&#160;&#160;&#160;&#160;&#160;&#160;&#160;&#160;&#160;&#160;&#160;&#160;&#160;&#160;&#160;&#160;&#160;&#160;&#160;&#160;&#160;&#160;&#160;&#160;&#160;&#160;&#160;&#160;&#160;LoanApplicationAssetId &#160;&#160;&#160;&#160;&#160;&#160;&#160;&#160;&#160;&#160;&#160;&#160;&#160;&#160;&#160;&#160;&#160;&#160;&#160;&#160;&#160;&#160;&#160;&#160;&#160;&#160;&#160;&#160;&#160;&#160;&#160;&#160;&#160;&#160;&#160;&#160;&#160;&#160;</text>
<polygon fill="none" stroke="#99ccff" points="970.0391,-57 970.0391,-74 1061.0391,-74 1061.0391,-57 970.0391,-57"/>
<text text-anchor="start" x="972.6321" y="-62.2" font-family="Courier,monospace" font-size="11.00" fill="#000000">reference(18)</text>
<polygon fill="none" stroke="#99ccff" points="291.0391,-40 291.0391,-57 970.0391,-57 970.0391,-40 291.0391,-40"/>
<text text-anchor="start" x="294.0391" y="-45.2" font-family="Courier,monospace" font-size="11.00" fill="#000000"> &#160;&#160;&#160;&#160;&#160;&#160;&#160;&#160;&#160;&#160;&#160;&#160;&#160;&#160;&#160;&#160;&#160;&#160;&#160;&#160;&#160;&#160;&#160;&#160;&#160;&#160;&#160;&#160;&#160;&#160;&#160;&#160;&#160;&#160;&#160;&#160;&#160;&#160;&#160;&#160;Role &#160;&#160;&#160;&#160;&#160;&#160;&#160;&#160;&#160;&#160;&#160;&#160;&#160;&#160;&#160;&#160;&#160;&#160;&#160;&#160;&#160;&#160;&#160;&#160;&#160;&#160;&#160;&#160;&#160;&#160;&#160;&#160;&#160;&#160;&#160;&#160;&#160;&#160;</text>
<polygon fill="none" stroke="#99ccff" points="970.0391,-40 970.0391,-57 1061.0391,-57 1061.0391,-40 970.0391,-40"/>
<text text-anchor="start" x="975.9326" y="-45.2" font-family="Courier,monospace" font-size="11.00" fill="#000000">picklist(40)</text>
<polygon fill="none" stroke="#99ccff" points="290.0391,-39 290.0391,-211 1062.0391,-211 1062.0391,-39 290.0391,-39"/>
</a>
</g>
</g>
<!-- User -->
<g id="node2" class="node">
<title>User</title>
<text text-anchor="middle" x="74.0107" y="-130.7" font-family="Courier,monospace" font-size="11.00" fill="#000000">User</text>
</g>
<!-- LoanApplicantAsset&#45;&gt;User -->
<g id="edge1" class="edge">
<title>LoanApplicantAsset:w&#45;&gt;User:e</title>
<path fill="none" stroke="#ff99cc" d="M276.4519,-134C211.5261,-134 139.2573,-134 101.0784,-134"/>
<polygon fill="#ff99cc" stroke="#ff99cc" points="283.0391,-134.0001 291.0391,-137.6 287.0391,-134 291.0391,-134 291.0391,-134 291.0391,-134 287.0391,-134 291.039,-130.4 283.0391,-134.0001 283.0391,-134.0001"/>
<ellipse fill="none" stroke="#ff99cc" cx="279.8391" cy="-134.0001" rx="3.2" ry="3.2"/>
<text text-anchor="middle" x="219.0303" y="-138.8015" font-family="Monaco" font-size="9.00" fill="#000000">LastModifiedBy</text>
</g>
<!-- LoanApplicant -->
<g id="node3" class="node">
<title>LoanApplicant</title>
<text text-anchor="middle" x="74.0107" y="-80.7" font-family="Courier,monospace" font-size="11.00" fill="#000000">LoanApplicant</text>
</g>
<!-- LoanApplicantAsset&#45;&gt;LoanApplicant -->
<g id="edge2" class="edge">
<title>LoanApplicantAsset:w&#45;&gt;LoanApplicant:e</title>
<path fill="none" stroke="#ff99cc" d="M276.5438,-82.0142C223.3267,-82.116 165.1644,-82.7438 124.8767,-83.2666"/>
<polygon fill="#ff99cc" stroke="#ff99cc" points="283.0391,-82.0079 291.0426,-85.6 287.0391,-82.004 291.0391,-82 291.0391,-82 291.0391,-82 287.0391,-82.004 291.0355,-78.4 283.0391,-82.0079 283.0391,-82.0079"/>
<ellipse fill="none" stroke="#ff99cc" cx="279.8391" cy="-82.0111" rx="3.2" ry="3.2"/>
<text text-anchor="middle" x="219.0303" y="-87.8015" font-family="Monaco" font-size="9.00" fill="#000000">LoanApplicant</text>
</g>
<!-- LoanApplicationAsset -->
<g id="node4" class="node">
<title>LoanApplicationAsset</title>
<text text-anchor="middle" x="74.0107" y="-31.7" font-family="Courier,monospace" font-size="11.00" fill="#000000">LoanApplicationAsset</text>
</g>
<!-- LoanApplicantAsset&#45;&gt;LoanApplicationAsset -->
<g id="edge3" class="edge">
<title>LoanApplicantAsset:w&#45;&gt;LoanApplicationAsset:e</title>
<path fill="none" stroke="#ff99cc" d="M276.6313,-64.7924C232.839,-63.5623 186.0562,-57.0579 148.4893,-50.4394"/>
<polygon fill="#ff99cc" stroke="#ff99cc" points="283.0399,-64.8847 290.9872,-68.5996 287.0395,-64.9423 291.0391,-65 291.0391,-65 291.0391,-65 287.0395,-64.9423 291.091,-61.4004 283.0399,-64.8847 283.0399,-64.8847"/>
<ellipse fill="none" stroke="#ff99cc" cx="279.8402" cy="-64.8385" rx="3.2" ry="3.2"/>
<text text-anchor="middle" x="219.0303" y="-69.8015" font-family="Monaco" font-size="9.00" fill="#000000">LoanApplicationAsset</text>
</g>
</g>
</svg>
