<?xml version="1.0" encoding="UTF-8" standalone="no"?>
<!DOCTYPE svg PUBLIC "-//W3C//DTD SVG 1.1//EN"
 "http://www.w3.org/Graphics/SVG/1.1/DTD/svg11.dtd">
<!-- Generated by graphviz version 2.40.1 (20161225.0304)
 -->
<!-- Title: Salesforce+ ERD Pages: 1 -->
<svg width="1129pt" height="435pt"
 viewBox="0.00 0.00 1128.64 435.00" xmlns="http://www.w3.org/2000/svg" xmlns:xlink="http://www.w3.org/1999/xlink">
<g id="graph0" class="graph" transform="scale(1 1) rotate(0) translate(4 431)">
<title>Salesforce+ ERD</title>
<polygon fill="#efeffd" stroke="transparent" points="-4,4 -4,-431 1124.6411,-431 1124.6411,4 -4,4"/>
<text text-anchor="middle" x="1072.1345" y="-5.8" font-family="Courier,monospace" font-size="9.00" fill="#000000">Salesforce ERD </text>
<!-- LoanApplicantAddress -->
<g id="node1" class="node">
<title>LoanApplicantAddress</title>
<g id="a_node1"><a xlink:href="#" xlink:title=" LoanApplicantAddress ">
<polygon fill="#ffeeff" stroke="transparent" points="302.6411,-17 302.6411,-427 1120.6411,-427 1120.6411,-17 302.6411,-17"/>
<polygon fill="#add8e6" stroke="transparent" points="303.6411,-409 303.6411,-426 1119.6411,-426 1119.6411,-409 303.6411,-409"/>
<polygon fill="none" stroke="#99ccff" points="303.6411,-409 303.6411,-426 1119.6411,-426 1119.6411,-409 303.6411,-409"/>
<text text-anchor="start" x="645.6304" y="-415.2" font-family="Courier,monospace" font-weight="bold" font-size="11.00" fill="#000000">LoanApplicantAddress</text>
<polygon fill="#99ccff" stroke="transparent" points="303.6411,-392 303.6411,-409 1028.6411,-409 1028.6411,-392 303.6411,-392"/>
<polygon fill="none" stroke="#99ccff" points="303.6411,-392 303.6411,-409 1028.6411,-409 1028.6411,-392 303.6411,-392"/>
<text text-anchor="start" x="306.6411" y="-398.2" font-family="Courier,monospace" font-size="11.00" fill="#000000"> &#160;&#160;&#160;&#160;&#160;&#160;&#160;&#160;&#160;&#160;&#160;&#160;&#160;&#160;&#160;&#160;&#160;&#160;&#160;&#160;&#160;&#160;&#160;&#160;&#160;&#160;&#160;&#160;&#160;&#160;&#160;&#160;&#160;&#160;&#160;&#160;&#160;&#160;&#160;&#160;&#160;&#160;</text>
<text text-anchor="start" x="590.4873" y="-398.2" font-family="Courier,monospace" font-weight="bold" font-size="11.00" fill="#000000">Id</text>
<text text-anchor="start" x="603.6895" y="-398.2" font-family="Courier,monospace" font-size="11.00" fill="#000000"> &#160;&#160;&#160;&#160;&#160;&#160;&#160;&#160;&#160;&#160;&#160;&#160;&#160;&#160;&#160;&#160;&#160;&#160;&#160;&#160;&#160;&#160;&#160;&#160;&#160;&#160;&#160;&#160;&#160;&#160;&#160;&#160;&#160;&#160;&#160;&#160;&#160;&#160;&#160;</text>
<polygon fill="none" stroke="#99ccff" points="1028.6411,-392 1028.6411,-409 1119.6411,-409 1119.6411,-392 1028.6411,-392"/>
<text text-anchor="start" x="1054.3379" y="-397.2" font-family="Courier,monospace" font-size="11.00" fill="#000000">id(18)</text>
<polygon fill="none" stroke="#99ccff" points="303.6411,-375 303.6411,-392 1028.6411,-392 1028.6411,-375 303.6411,-375"/>
<text text-anchor="start" x="306.6411" y="-380.2" font-family="Courier,monospace" font-size="11.00" fill="#000000"> &#160;&#160;&#160;&#160;&#160;&#160;&#160;&#160;&#160;&#160;&#160;&#160;&#160;&#160;&#160;&#160;&#160;&#160;&#160;&#160;&#160;&#160;&#160;&#160;&#160;&#160;&#160;&#160;&#160;&#160;&#160;&#160;&#160;&#160;&#160;&#160;&#160;&#160;&#160;&#160;IsDeleted &#160;&#160;&#160;&#160;&#160;&#160;&#160;&#160;&#160;&#160;&#160;&#160;&#160;&#160;&#160;&#160;&#160;&#160;&#160;&#160;&#160;&#160;&#160;&#160;&#160;&#160;&#160;&#160;&#160;&#160;&#160;&#160;&#160;&#160;&#160;&#160;&#160;&#160;</text>
<polygon fill="none" stroke="#99ccff" points="1028.6411,-375 1028.6411,-392 1119.6411,-392 1119.6411,-375 1028.6411,-375"/>
<text text-anchor="start" x="1051.0374" y="-380.2" font-family="Courier,monospace" font-size="11.00" fill="#000000">boolean</text>
<polygon fill="none" stroke="#99ccff" points="303.6411,-358 303.6411,-375 1028.6411,-375 1028.6411,-358 303.6411,-358"/>
<text text-anchor="start" x="306.6411" y="-363.2" font-family="Courier,monospace" font-size="11.00" fill="#000000"> &#160;&#160;&#160;&#160;&#160;&#160;&#160;&#160;&#160;&#160;&#160;&#160;&#160;&#160;&#160;&#160;&#160;&#160;&#160;&#160;&#160;&#160;&#160;&#160;&#160;&#160;&#160;&#160;&#160;&#160;&#160;&#160;&#160;&#160;&#160;&#160;&#160;&#160;&#160;&#160;Name &#160;&#160;&#160;&#160;&#160;&#160;&#160;&#160;&#160;&#160;&#160;&#160;&#160;&#160;&#160;&#160;&#160;&#160;&#160;&#160;&#160;&#160;&#160;&#160;&#160;&#160;&#160;&#160;&#160;&#160;&#160;&#160;&#160;&#160;&#160;&#160;&#160;&#160;</text>
<polygon fill="none" stroke="#99ccff" points="1028.6411,-358 1028.6411,-375 1119.6411,-375 1119.6411,-358 1028.6411,-358"/>
<text text-anchor="start" x="1037.8352" y="-363.2" font-family="Courier,monospace" font-size="11.00" fill="#000000">string(255)</text>
<polygon fill="none" stroke="#99ccff" points="303.6411,-341 303.6411,-358 1028.6411,-358 1028.6411,-341 303.6411,-341"/>
<text text-anchor="start" x="306.6411" y="-346.2" font-family="Courier,monospace" font-size="11.00" fill="#000000"> &#160;&#160;&#160;&#160;&#160;&#160;&#160;&#160;&#160;&#160;&#160;&#160;&#160;&#160;&#160;&#160;&#160;&#160;&#160;&#160;&#160;&#160;&#160;&#160;&#160;&#160;&#160;&#160;&#160;&#160;&#160;&#160;&#160;&#160;&#160;&#160;&#160;&#160;&#160;&#160;LastModifiedById &#160;&#160;&#160;&#160;&#160;&#160;&#160;&#160;&#160;&#160;&#160;&#160;&#160;&#160;&#160;&#160;&#160;&#160;&#160;&#160;&#160;&#160;&#160;&#160;&#160;&#160;&#160;&#160;&#160;&#160;&#160;&#160;&#160;&#160;&#160;&#160;&#160;&#160;</text>
<polygon fill="none" stroke="#99ccff" points="1028.6411,-341 1028.6411,-358 1119.6411,-358 1119.6411,-341 1028.6411,-341"/>
<text text-anchor="start" x="1031.2341" y="-346.2" font-family="Courier,monospace" font-size="11.00" fill="#000000">reference(18)</text>
<polygon fill="none" stroke="#99ccff" points="303.6411,-324 303.6411,-341 1028.6411,-341 1028.6411,-324 303.6411,-324"/>
<text text-anchor="start" x="306.6411" y="-329.2" font-family="Courier,monospace" font-size="11.00" fill="#000000"> &#160;&#160;&#160;&#160;&#160;&#160;&#160;&#160;&#160;&#160;&#160;&#160;&#160;&#160;&#160;&#160;&#160;&#160;&#160;&#160;&#160;&#160;&#160;&#160;&#160;&#160;&#160;&#160;&#160;&#160;&#160;&#160;&#160;&#160;&#160;&#160;&#160;&#160;&#160;&#160;LastViewedDate &#160;&#160;&#160;&#160;&#160;&#160;&#160;&#160;&#160;&#160;&#160;&#160;&#160;&#160;&#160;&#160;&#160;&#160;&#160;&#160;&#160;&#160;&#160;&#160;&#160;&#160;&#160;&#160;&#160;&#160;&#160;&#160;&#160;&#160;&#160;&#160;&#160;&#160;</text>
<polygon fill="none" stroke="#99ccff" points="1028.6411,-324 1028.6411,-341 1119.6411,-341 1119.6411,-324 1028.6411,-324"/>
<text text-anchor="start" x="1047.7368" y="-329.2" font-family="Courier,monospace" font-size="11.00" fill="#000000">datetime</text>
<polygon fill="none" stroke="#99ccff" points="303.6411,-307 303.6411,-324 1028.6411,-324 1028.6411,-307 303.6411,-307"/>
<text text-anchor="start" x="306.6411" y="-312.2" font-family="Courier,monospace" font-size="11.00" fill="#000000"> &#160;&#160;&#160;&#160;&#160;&#160;&#160;&#160;&#160;&#160;&#160;&#160;&#160;&#160;&#160;&#160;&#160;&#160;&#160;&#160;&#160;&#160;&#160;&#160;&#160;&#160;&#160;&#160;&#160;&#160;&#160;&#160;&#160;&#160;&#160;&#160;&#160;&#160;&#160;&#160;LastReferencedDate &#160;&#160;&#160;&#160;&#160;&#160;&#160;&#160;&#160;&#160;&#160;&#160;&#160;&#160;&#160;&#160;&#160;&#160;&#160;&#160;&#160;&#160;&#160;&#160;&#160;&#160;&#160;&#160;&#160;&#160;&#160;&#160;&#160;&#160;&#160;&#160;&#160;&#160;</text>
<polygon fill="none" stroke="#99ccff" points="1028.6411,-307 1028.6411,-324 1119.6411,-324 1119.6411,-307 1028.6411,-307"/>
<text text-anchor="start" x="1047.7368" y="-312.2" font-family="Courier,monospace" font-size="11.00" fill="#000000">datetime</text>
<polygon fill="none" stroke="#99ccff" points="303.6411,-290 303.6411,-307 1028.6411,-307 1028.6411,-290 303.6411,-290"/>
<text text-anchor="start" x="306.6411" y="-295.2" font-family="Courier,monospace" font-size="11.00" fill="#000000"> &#160;&#160;&#160;&#160;&#160;&#160;&#160;&#160;&#160;&#160;&#160;&#160;&#160;&#160;&#160;&#160;&#160;&#160;&#160;&#160;&#160;&#160;&#160;&#160;&#160;&#160;&#160;&#160;&#160;&#160;&#160;&#160;&#160;&#160;&#160;&#160;&#160;&#160;&#160;&#160;LoanApplicationId &#160;&#160;&#160;&#160;&#160;&#160;&#160;&#160;&#160;&#160;&#160;&#160;&#160;&#160;&#160;&#160;&#160;&#160;&#160;&#160;&#160;&#160;&#160;&#160;&#160;&#160;&#160;&#160;&#160;&#160;&#160;&#160;&#160;&#160;&#160;&#160;&#160;&#160;</text>
<polygon fill="none" stroke="#99ccff" points="1028.6411,-290 1028.6411,-307 1119.6411,-307 1119.6411,-290 1028.6411,-290"/>
<text text-anchor="start" x="1031.2341" y="-295.2" font-family="Courier,monospace" font-size="11.00" fill="#000000">reference(18)</text>
<polygon fill="none" stroke="#99ccff" points="303.6411,-273 303.6411,-290 1028.6411,-290 1028.6411,-273 303.6411,-273"/>
<text text-anchor="start" x="306.6411" y="-278.2" font-family="Courier,monospace" font-size="11.00" fill="#000000"> &#160;&#160;&#160;&#160;&#160;&#160;&#160;&#160;&#160;&#160;&#160;&#160;&#160;&#160;&#160;&#160;&#160;&#160;&#160;&#160;&#160;&#160;&#160;&#160;&#160;&#160;&#160;&#160;&#160;&#160;&#160;&#160;&#160;&#160;&#160;&#160;&#160;&#160;&#160;&#160;LoanApplicantId &#160;&#160;&#160;&#160;&#160;&#160;&#160;&#160;&#160;&#160;&#160;&#160;&#160;&#160;&#160;&#160;&#160;&#160;&#160;&#160;&#160;&#160;&#160;&#160;&#160;&#160;&#160;&#160;&#160;&#160;&#160;&#160;&#160;&#160;&#160;&#160;&#160;&#160;</text>
<polygon fill="none" stroke="#99ccff" points="1028.6411,-273 1028.6411,-290 1119.6411,-290 1119.6411,-273 1028.6411,-273"/>
<text text-anchor="start" x="1031.2341" y="-278.2" font-family="Courier,monospace" font-size="11.00" fill="#000000">reference(18)</text>
<polygon fill="none" stroke="#99ccff" points="303.6411,-256 303.6411,-273 1028.6411,-273 1028.6411,-256 303.6411,-256"/>
<text text-anchor="start" x="306.6411" y="-261.2" font-family="Courier,monospace" font-size="11.00" fill="#000000"> &#160;&#160;&#160;&#160;&#160;&#160;&#160;&#160;&#160;&#160;&#160;&#160;&#160;&#160;&#160;&#160;&#160;&#160;&#160;&#160;&#160;&#160;&#160;&#160;&#160;&#160;&#160;&#160;&#160;&#160;&#160;&#160;&#160;&#160;&#160;&#160;&#160;&#160;&#160;&#160;ResidencyType &#160;&#160;&#160;&#160;&#160;&#160;&#160;&#160;&#160;&#160;&#160;&#160;&#160;&#160;&#160;&#160;&#160;&#160;&#160;&#160;&#160;&#160;&#160;&#160;&#160;&#160;&#160;&#160;&#160;&#160;&#160;&#160;&#160;&#160;&#160;&#160;&#160;&#160;</text>
<polygon fill="none" stroke="#99ccff" points="1028.6411,-256 1028.6411,-273 1119.6411,-273 1119.6411,-256 1028.6411,-256"/>
<text text-anchor="start" x="1034.5347" y="-261.2" font-family="Courier,monospace" font-size="11.00" fill="#000000">picklist(40)</text>
<polygon fill="none" stroke="#99ccff" points="303.6411,-239 303.6411,-256 1028.6411,-256 1028.6411,-239 303.6411,-239"/>
<text text-anchor="start" x="306.6411" y="-244.2" font-family="Courier,monospace" font-size="11.00" fill="#000000"> &#160;&#160;&#160;&#160;&#160;&#160;&#160;&#160;&#160;&#160;&#160;&#160;&#160;&#160;&#160;&#160;&#160;&#160;&#160;&#160;&#160;&#160;&#160;&#160;&#160;&#160;&#160;&#160;&#160;&#160;&#160;&#160;&#160;&#160;&#160;&#160;&#160;&#160;&#160;&#160;ResidenceStreet &#160;&#160;&#160;&#160;&#160;&#160;&#160;&#160;&#160;&#160;&#160;&#160;&#160;&#160;&#160;&#160;&#160;&#160;&#160;&#160;&#160;&#160;&#160;&#160;&#160;&#160;&#160;&#160;&#160;&#160;&#160;&#160;&#160;&#160;&#160;&#160;&#160;&#160;</text>
<polygon fill="none" stroke="#99ccff" points="1028.6411,-239 1028.6411,-256 1119.6411,-256 1119.6411,-239 1028.6411,-239"/>
<text text-anchor="start" x="1031.2341" y="-244.2" font-family="Courier,monospace" font-size="11.00" fill="#000000">textarea(255)</text>
<polygon fill="none" stroke="#99ccff" points="303.6411,-222 303.6411,-239 1028.6411,-239 1028.6411,-222 303.6411,-222"/>
<text text-anchor="start" x="306.6411" y="-227.2" font-family="Courier,monospace" font-size="11.00" fill="#000000"> &#160;&#160;&#160;&#160;&#160;&#160;&#160;&#160;&#160;&#160;&#160;&#160;&#160;&#160;&#160;&#160;&#160;&#160;&#160;&#160;&#160;&#160;&#160;&#160;&#160;&#160;&#160;&#160;&#160;&#160;&#160;&#160;&#160;&#160;&#160;&#160;&#160;&#160;&#160;&#160;ResidenceCity &#160;&#160;&#160;&#160;&#160;&#160;&#160;&#160;&#160;&#160;&#160;&#160;&#160;&#160;&#160;&#160;&#160;&#160;&#160;&#160;&#160;&#160;&#160;&#160;&#160;&#160;&#160;&#160;&#160;&#160;&#160;&#160;&#160;&#160;&#160;&#160;&#160;&#160;</text>
<polygon fill="none" stroke="#99ccff" points="1028.6411,-222 1028.6411,-239 1119.6411,-239 1119.6411,-222 1028.6411,-222"/>
<text text-anchor="start" x="1041.1357" y="-227.2" font-family="Courier,monospace" font-size="11.00" fill="#000000">string(40)</text>
<polygon fill="none" stroke="#99ccff" points="303.6411,-205 303.6411,-222 1028.6411,-222 1028.6411,-205 303.6411,-205"/>
<text text-anchor="start" x="306.6411" y="-210.2" font-family="Courier,monospace" font-size="11.00" fill="#000000"> &#160;&#160;&#160;&#160;&#160;&#160;&#160;&#160;&#160;&#160;&#160;&#160;&#160;&#160;&#160;&#160;&#160;&#160;&#160;&#160;&#160;&#160;&#160;&#160;&#160;&#160;&#160;&#160;&#160;&#160;&#160;&#160;&#160;&#160;&#160;&#160;&#160;&#160;&#160;&#160;ResidenceState &#160;&#160;&#160;&#160;&#160;&#160;&#160;&#160;&#160;&#160;&#160;&#160;&#160;&#160;&#160;&#160;&#160;&#160;&#160;&#160;&#160;&#160;&#160;&#160;&#160;&#160;&#160;&#160;&#160;&#160;&#160;&#160;&#160;&#160;&#160;&#160;&#160;&#160;</text>
<polygon fill="none" stroke="#99ccff" points="1028.6411,-205 1028.6411,-222 1119.6411,-222 1119.6411,-205 1028.6411,-205"/>
<text text-anchor="start" x="1041.1357" y="-210.2" font-family="Courier,monospace" font-size="11.00" fill="#000000">string(80)</text>
<polygon fill="none" stroke="#99ccff" points="303.6411,-188 303.6411,-205 1028.6411,-205 1028.6411,-188 303.6411,-188"/>
<text text-anchor="start" x="306.6411" y="-193.2" font-family="Courier,monospace" font-size="11.00" fill="#000000"> &#160;&#160;&#160;&#160;&#160;&#160;&#160;&#160;&#160;&#160;&#160;&#160;&#160;&#160;&#160;&#160;&#160;&#160;&#160;&#160;&#160;&#160;&#160;&#160;&#160;&#160;&#160;&#160;&#160;&#160;&#160;&#160;&#160;&#160;&#160;&#160;&#160;&#160;&#160;&#160;ResidencePostalCode &#160;&#160;&#160;&#160;&#160;&#160;&#160;&#160;&#160;&#160;&#160;&#160;&#160;&#160;&#160;&#160;&#160;&#160;&#160;&#160;&#160;&#160;&#160;&#160;&#160;&#160;&#160;&#160;&#160;&#160;&#160;&#160;&#160;&#160;&#160;&#160;&#160;&#160;</text>
<polygon fill="none" stroke="#99ccff" points="1028.6411,-188 1028.6411,-205 1119.6411,-205 1119.6411,-188 1028.6411,-188"/>
<text text-anchor="start" x="1041.1357" y="-193.2" font-family="Courier,monospace" font-size="11.00" fill="#000000">string(20)</text>
<polygon fill="none" stroke="#99ccff" points="303.6411,-171 303.6411,-188 1028.6411,-188 1028.6411,-171 303.6411,-171"/>
<text text-anchor="start" x="306.6411" y="-176.2" font-family="Courier,monospace" font-size="11.00" fill="#000000"> &#160;&#160;&#160;&#160;&#160;&#160;&#160;&#160;&#160;&#160;&#160;&#160;&#160;&#160;&#160;&#160;&#160;&#160;&#160;&#160;&#160;&#160;&#160;&#160;&#160;&#160;&#160;&#160;&#160;&#160;&#160;&#160;&#160;&#160;&#160;&#160;&#160;&#160;&#160;&#160;ResidenceCountry &#160;&#160;&#160;&#160;&#160;&#160;&#160;&#160;&#160;&#160;&#160;&#160;&#160;&#160;&#160;&#160;&#160;&#160;&#160;&#160;&#160;&#160;&#160;&#160;&#160;&#160;&#160;&#160;&#160;&#160;&#160;&#160;&#160;&#160;&#160;&#160;&#160;&#160;</text>
<polygon fill="none" stroke="#99ccff" points="1028.6411,-171 1028.6411,-188 1119.6411,-188 1119.6411,-171 1028.6411,-171"/>
<text text-anchor="start" x="1041.1357" y="-176.2" font-family="Courier,monospace" font-size="11.00" fill="#000000">string(80)</text>
<polygon fill="none" stroke="#99ccff" points="303.6411,-154 303.6411,-171 1028.6411,-171 1028.6411,-154 303.6411,-154"/>
<text text-anchor="start" x="306.6411" y="-159.2" font-family="Courier,monospace" font-size="11.00" fill="#000000"> &#160;&#160;&#160;&#160;&#160;&#160;&#160;&#160;&#160;&#160;&#160;&#160;&#160;&#160;&#160;&#160;&#160;&#160;&#160;&#160;&#160;&#160;&#160;&#160;&#160;&#160;&#160;&#160;&#160;&#160;&#160;&#160;&#160;&#160;&#160;&#160;&#160;&#160;&#160;&#160;ResidenceLatitude &#160;&#160;&#160;&#160;&#160;&#160;&#160;&#160;&#160;&#160;&#160;&#160;&#160;&#160;&#160;&#160;&#160;&#160;&#160;&#160;&#160;&#160;&#160;&#160;&#160;&#160;&#160;&#160;&#160;&#160;&#160;&#160;&#160;&#160;&#160;&#160;&#160;&#160;</text>
<polygon fill="none" stroke="#99ccff" points="1028.6411,-154 1028.6411,-171 1119.6411,-171 1119.6411,-154 1028.6411,-154"/>
<text text-anchor="start" x="1054.3379" y="-159.2" font-family="Courier,monospace" font-size="11.00" fill="#000000">double</text>
<polygon fill="none" stroke="#99ccff" points="303.6411,-137 303.6411,-154 1028.6411,-154 1028.6411,-137 303.6411,-137"/>
<text text-anchor="start" x="306.6411" y="-142.2" font-family="Courier,monospace" font-size="11.00" fill="#000000"> &#160;&#160;&#160;&#160;&#160;&#160;&#160;&#160;&#160;&#160;&#160;&#160;&#160;&#160;&#160;&#160;&#160;&#160;&#160;&#160;&#160;&#160;&#160;&#160;&#160;&#160;&#160;&#160;&#160;&#160;&#160;&#160;&#160;&#160;&#160;&#160;&#160;&#160;&#160;&#160;ResidenceLongitude &#160;&#160;&#160;&#160;&#160;&#160;&#160;&#160;&#160;&#160;&#160;&#160;&#160;&#160;&#160;&#160;&#160;&#160;&#160;&#160;&#160;&#160;&#160;&#160;&#160;&#160;&#160;&#160;&#160;&#160;&#160;&#160;&#160;&#160;&#160;&#160;&#160;&#160;</text>
<polygon fill="none" stroke="#99ccff" points="1028.6411,-137 1028.6411,-154 1119.6411,-154 1119.6411,-137 1028.6411,-137"/>
<text text-anchor="start" x="1054.3379" y="-142.2" font-family="Courier,monospace" font-size="11.00" fill="#000000">double</text>
<polygon fill="none" stroke="#99ccff" points="303.6411,-120 303.6411,-137 1028.6411,-137 1028.6411,-120 303.6411,-120"/>
<text text-anchor="start" x="306.6411" y="-125.2" font-family="Courier,monospace" font-size="11.00" fill="#000000"> &#160;&#160;&#160;&#160;&#160;&#160;&#160;&#160;&#160;&#160;&#160;&#160;&#160;&#160;&#160;&#160;&#160;&#160;&#160;&#160;&#160;&#160;&#160;&#160;&#160;&#160;&#160;&#160;&#160;&#160;&#160;&#160;&#160;&#160;&#160;&#160;&#160;&#160;&#160;&#160;ResidenceGeocodeAccuracy &#160;&#160;&#160;&#160;&#160;&#160;&#160;&#160;&#160;&#160;&#160;&#160;&#160;&#160;&#160;&#160;&#160;&#160;&#160;&#160;&#160;&#160;&#160;&#160;&#160;&#160;&#160;&#160;&#160;&#160;&#160;&#160;&#160;&#160;&#160;&#160;&#160;&#160;</text>
<polygon fill="none" stroke="#99ccff" points="1028.6411,-120 1028.6411,-137 1119.6411,-137 1119.6411,-120 1028.6411,-120"/>
<text text-anchor="start" x="1031.2341" y="-125.2" font-family="Courier,monospace" font-size="11.00" fill="#000000">picklist(255)</text>
<polygon fill="none" stroke="#99ccff" points="303.6411,-103 303.6411,-120 1028.6411,-120 1028.6411,-103 303.6411,-103"/>
<text text-anchor="start" x="306.6411" y="-108.2" font-family="Courier,monospace" font-size="11.00" fill="#000000"> &#160;&#160;&#160;&#160;&#160;&#160;&#160;&#160;&#160;&#160;&#160;&#160;&#160;&#160;&#160;&#160;&#160;&#160;&#160;&#160;&#160;&#160;&#160;&#160;&#160;&#160;&#160;&#160;&#160;&#160;&#160;&#160;&#160;&#160;&#160;&#160;&#160;&#160;&#160;&#160;ResidenceAddress &#160;&#160;&#160;&#160;&#160;&#160;&#160;&#160;&#160;&#160;&#160;&#160;&#160;&#160;&#160;&#160;&#160;&#160;&#160;&#160;&#160;&#160;&#160;&#160;&#160;&#160;&#160;&#160;&#160;&#160;&#160;&#160;&#160;&#160;&#160;&#160;&#160;&#160;</text>
<polygon fill="none" stroke="#99ccff" points="1028.6411,-103 1028.6411,-120 1119.6411,-120 1119.6411,-103 1028.6411,-103"/>
<text text-anchor="start" x="1051.0374" y="-108.2" font-family="Courier,monospace" font-size="11.00" fill="#000000">address</text>
<polygon fill="none" stroke="#99ccff" points="303.6411,-86 303.6411,-103 1028.6411,-103 1028.6411,-86 303.6411,-86"/>
<text text-anchor="start" x="306.6411" y="-91.2" font-family="Courier,monospace" font-size="11.00" fill="#000000"> &#160;&#160;&#160;&#160;&#160;&#160;&#160;&#160;&#160;&#160;&#160;&#160;&#160;&#160;&#160;&#160;&#160;&#160;&#160;&#160;&#160;&#160;&#160;&#160;&#160;&#160;&#160;&#160;&#160;&#160;&#160;&#160;&#160;&#160;&#160;&#160;&#160;&#160;&#160;&#160;AddressOwnership &#160;&#160;&#160;&#160;&#160;&#160;&#160;&#160;&#160;&#160;&#160;&#160;&#160;&#160;&#160;&#160;&#160;&#160;&#160;&#160;&#160;&#160;&#160;&#160;&#160;&#160;&#160;&#160;&#160;&#160;&#160;&#160;&#160;&#160;&#160;&#160;&#160;&#160;</text>
<polygon fill="none" stroke="#99ccff" points="1028.6411,-86 1028.6411,-103 1119.6411,-103 1119.6411,-86 1028.6411,-86"/>
<text text-anchor="start" x="1034.5347" y="-91.2" font-family="Courier,monospace" font-size="11.00" fill="#000000">picklist(40)</text>
<polygon fill="none" stroke="#99ccff" points="303.6411,-69 303.6411,-86 1028.6411,-86 1028.6411,-69 303.6411,-69"/>
<text text-anchor="start" x="306.6411" y="-74.2" font-family="Courier,monospace" font-size="11.00" fill="#000000"> &#160;&#160;&#160;&#160;&#160;&#160;&#160;&#160;&#160;&#160;&#160;&#160;&#160;&#160;&#160;&#160;&#160;&#160;&#160;&#160;&#160;&#160;&#160;&#160;&#160;&#160;&#160;&#160;&#160;&#160;&#160;&#160;&#160;&#160;&#160;&#160;&#160;&#160;&#160;&#160;ResidenceYearCount &#160;&#160;&#160;&#160;&#160;&#160;&#160;&#160;&#160;&#160;&#160;&#160;&#160;&#160;&#160;&#160;&#160;&#160;&#160;&#160;&#160;&#160;&#160;&#160;&#160;&#160;&#160;&#160;&#160;&#160;&#160;&#160;&#160;&#160;&#160;&#160;&#160;&#160;</text>
<polygon fill="none" stroke="#99ccff" points="1028.6411,-69 1028.6411,-86 1119.6411,-86 1119.6411,-69 1028.6411,-69"/>
<text text-anchor="start" x="1064.2395" y="-74.2" font-family="Courier,monospace" font-size="11.00" fill="#000000">int</text>
<polygon fill="none" stroke="#99ccff" points="303.6411,-52 303.6411,-69 1028.6411,-69 1028.6411,-52 303.6411,-52"/>
<text text-anchor="start" x="306.3826" y="-57.2" font-family="Courier,monospace" font-size="11.00" fill="#000000"> &#160;&#160;&#160;&#160;&#160;&#160;&#160;&#160;&#160;&#160;&#160;&#160;&#160;&#160;&#160;&#160;&#160;&#160;&#160;&#160;&#160;&#160;&#160;&#160;&#160;&#160;&#160;&#160;&#160;&#160;&#160;&#160;&#160;&#160;&#160;&#160;&#160;&#160;&#160;&#160;ResidenceAdditionalMonthCount &#160;&#160;&#160;&#160;&#160;&#160;&#160;&#160;&#160;&#160;&#160;&#160;&#160;&#160;&#160;&#160;&#160;&#160;&#160;&#160;&#160;&#160;&#160;&#160;&#160;&#160;&#160;&#160;&#160;&#160;&#160;&#160;&#160;&#160;&#160;&#160;&#160;&#160;</text>
<polygon fill="none" stroke="#99ccff" points="1028.6411,-52 1028.6411,-69 1119.6411,-69 1119.6411,-52 1028.6411,-52"/>
<text text-anchor="start" x="1064.2395" y="-57.2" font-family="Courier,monospace" font-size="11.00" fill="#000000">int</text>
<polygon fill="none" stroke="#99ccff" points="303.6411,-35 303.6411,-52 1028.6411,-52 1028.6411,-35 303.6411,-35"/>
<text text-anchor="start" x="306.6411" y="-40.2" font-family="Courier,monospace" font-size="11.00" fill="#000000"> &#160;&#160;&#160;&#160;&#160;&#160;&#160;&#160;&#160;&#160;&#160;&#160;&#160;&#160;&#160;&#160;&#160;&#160;&#160;&#160;&#160;&#160;&#160;&#160;&#160;&#160;&#160;&#160;&#160;&#160;&#160;&#160;&#160;&#160;&#160;&#160;&#160;&#160;&#160;&#160;MonthlyRentPayment &#160;&#160;&#160;&#160;&#160;&#160;&#160;&#160;&#160;&#160;&#160;&#160;&#160;&#160;&#160;&#160;&#160;&#160;&#160;&#160;&#160;&#160;&#160;&#160;&#160;&#160;&#160;&#160;&#160;&#160;&#160;&#160;&#160;&#160;&#160;&#160;&#160;&#160;</text>
<polygon fill="none" stroke="#99ccff" points="1028.6411,-35 1028.6411,-52 1119.6411,-52 1119.6411,-35 1028.6411,-35"/>
<text text-anchor="start" x="1047.7368" y="-40.2" font-family="Courier,monospace" font-size="11.00" fill="#000000">currency</text>
<polygon fill="none" stroke="#99ccff" points="303.6411,-18 303.6411,-35 1028.6411,-35 1028.6411,-18 303.6411,-18"/>
<text text-anchor="start" x="306.6411" y="-23.2" font-family="Courier,monospace" font-size="11.00" fill="#000000"> &#160;&#160;&#160;&#160;&#160;&#160;&#160;&#160;&#160;&#160;&#160;&#160;&#160;&#160;&#160;&#160;&#160;&#160;&#160;&#160;&#160;&#160;&#160;&#160;&#160;&#160;&#160;&#160;&#160;&#160;&#160;&#160;&#160;&#160;&#160;&#160;&#160;&#160;&#160;&#160;AddressExtIdentifier &#160;&#160;&#160;&#160;&#160;&#160;&#160;&#160;&#160;&#160;&#160;&#160;&#160;&#160;&#160;&#160;&#160;&#160;&#160;&#160;&#160;&#160;&#160;&#160;&#160;&#160;&#160;&#160;&#160;&#160;&#160;&#160;&#160;&#160;&#160;&#160;&#160;&#160;</text>
<polygon fill="none" stroke="#99ccff" points="1028.6411,-18 1028.6411,-35 1119.6411,-35 1119.6411,-18 1028.6411,-18"/>
<text text-anchor="start" x="1037.8352" y="-23.2" font-family="Courier,monospace" font-size="11.00" fill="#000000">string(255)</text>
<polygon fill="none" stroke="#99ccff" points="302.6411,-17 302.6411,-427 1120.6411,-427 1120.6411,-17 302.6411,-17"/>
</a>
</g>
</g>
<!-- User -->
<g id="node2" class="node">
<title>User</title>
<text text-anchor="middle" x="93.814" y="-346.7" font-family="Courier,monospace" font-size="11.00" fill="#000000">User</text>
</g>
<!-- LoanApplicantAddress&#45;&gt;User -->
<g id="edge1" class="edge">
<title>LoanApplicantAddress:w&#45;&gt;User:e</title>
<path fill="none" stroke="#ff99cc" d="M288.8707,-350C226.8304,-350 158.0044,-350 120.9757,-350"/>
<polygon fill="#ff99cc" stroke="#ff99cc" points="295.6411,-350.0001 303.6411,-353.6 299.6411,-350 303.6411,-350 303.6411,-350 303.6411,-350 299.6411,-350 303.6411,-346.4 295.6411,-350.0001 295.6411,-350.0001"/>
<ellipse fill="none" stroke="#ff99cc" cx="292.4411" cy="-350.0001" rx="3.2" ry="3.2"/>
<text text-anchor="middle" x="245.1345" y="-354.8015" font-family="Monaco" font-size="9.00" fill="#000000">LastModifiedBy</text>
</g>
<!-- ResidentialLoanApplication -->
<g id="node3" class="node">
<title>ResidentialLoanApplication</title>
<text text-anchor="middle" x="93.814" y="-296.7" font-family="Courier,monospace" font-size="11.00" fill="#000000">ResidentialLoanApplication</text>
</g>
<!-- LoanApplicantAddress&#45;&gt;ResidentialLoanApplication -->
<g id="edge2" class="edge">
<title>LoanApplicantAddress:w&#45;&gt;ResidentialLoanApplication:e</title>
<path fill="none" stroke="#ff99cc" d="M289.237,-299.0075C255.2906,-299.0419 219.2885,-299.1904 187.559,-299.3624"/>
<polygon fill="#ff99cc" stroke="#ff99cc" points="295.6411,-299.0042 303.643,-302.6 299.6411,-299.0021 303.6411,-299 303.6411,-299 303.6411,-299 299.6411,-299.0021 303.6392,-295.4 295.6411,-299.0042 295.6411,-299.0042"/>
<ellipse fill="none" stroke="#ff99cc" cx="292.4411" cy="-299.0059" rx="3.2" ry="3.2"/>
<text text-anchor="middle" x="245.1345" y="-303.8015" font-family="Monaco" font-size="9.00" fill="#000000">LoanApplication</text>
</g>
<!-- LoanApplicant -->
<g id="node4" class="node">
<title>LoanApplicant</title>
<text text-anchor="middle" x="93.814" y="-247.7" font-family="Courier,monospace" font-size="11.00" fill="#000000">LoanApplicant</text>
</g>
<!-- LoanApplicantAddress&#45;&gt;LoanApplicant -->
<g id="edge3" class="edge">
<title>LoanApplicantAddress:w&#45;&gt;LoanApplicant:e</title>
<path fill="none" stroke="#ff99cc" d="M290.8458,-274.7321C289.4645,-273.6644 287.8214,-272.6924 285.6411,-271.9985 239.5099,-257.3182 184.3389,-252.5203 145.031,-251.1258"/>
<polygon fill="#ff99cc" stroke="#ff99cc" points="296.685,-278.0488 301.8631,-285.1303 300.163,-280.0244 303.6411,-282 303.6411,-282 303.6411,-282 300.163,-280.0244 305.4192,-278.8697 296.685,-278.0488 296.685,-278.0488"/>
<ellipse fill="none" stroke="#ff99cc" cx="293.9025" cy="-276.4683" rx="3.2" ry="3.2"/>
<text text-anchor="middle" x="245.1345" y="-275.8015" font-family="Monaco" font-size="9.00" fill="#000000">LoanApplicant</text>
</g>
</g>
</svg>
