<?xml version="1.0" encoding="UTF-8" standalone="no"?>
<!DOCTYPE svg PUBLIC "-//W3C//DTD SVG 1.1//EN"
 "http://www.w3.org/Graphics/SVG/1.1/DTD/svg11.dtd">
<!-- Generated by graphviz version 2.40.1 (20161225.0304)
 -->
<!-- Title: Salesforce+ ERD Pages: 1 -->
<svg width="1103pt" height="554pt"
 viewBox="0.00 0.00 1102.64 554.00" xmlns="http://www.w3.org/2000/svg" xmlns:xlink="http://www.w3.org/1999/xlink">
<g id="graph0" class="graph" transform="scale(1 1) rotate(0) translate(4 550)">
<title>Salesforce+ ERD</title>
<polygon fill="#efeffd" stroke="transparent" points="-4,4 -4,-550 1098.6411,-550 1098.6411,4 -4,4"/>
<text text-anchor="middle" x="1046.1345" y="-5.8" font-family="Courier,monospace" font-size="9.00" fill="#000000">Salesforce ERD </text>
<!-- LoanApplicationAsset -->
<g id="node1" class="node">
<title>LoanApplicationAsset</title>
<g id="a_node1"><a xlink:href="#" xlink:title=" LoanApplicationAsset ">
<polygon fill="#ffeeff" stroke="transparent" points="302.6411,-17 302.6411,-546 1094.6411,-546 1094.6411,-17 302.6411,-17"/>
<polygon fill="#add8e6" stroke="transparent" points="303.6411,-527.5 303.6411,-544.5 1093.6411,-544.5 1093.6411,-527.5 303.6411,-527.5"/>
<polygon fill="none" stroke="#99ccff" points="303.6411,-527.5 303.6411,-544.5 1093.6411,-544.5 1093.6411,-527.5 303.6411,-527.5"/>
<text text-anchor="start" x="632.6304" y="-533.7" font-family="Courier,monospace" font-weight="bold" font-size="11.00" fill="#000000">LoanApplicationAsset</text>
<polygon fill="#99ccff" stroke="transparent" points="303.6411,-510.5 303.6411,-527.5 1002.6411,-527.5 1002.6411,-510.5 303.6411,-510.5"/>
<polygon fill="none" stroke="#99ccff" points="303.6411,-510.5 303.6411,-527.5 1002.6411,-527.5 1002.6411,-510.5 303.6411,-510.5"/>
<text text-anchor="start" x="306.6411" y="-516.7" font-family="Courier,monospace" font-size="11.00" fill="#000000"> &#160;&#160;&#160;&#160;&#160;&#160;&#160;&#160;&#160;&#160;&#160;&#160;&#160;&#160;&#160;&#160;&#160;&#160;&#160;&#160;&#160;&#160;&#160;&#160;&#160;&#160;&#160;&#160;&#160;&#160;&#160;&#160;&#160;&#160;&#160;&#160;&#160;&#160;&#160;&#160;&#160;&#160;</text>
<text text-anchor="start" x="590.4873" y="-516.7" font-family="Courier,monospace" font-weight="bold" font-size="11.00" fill="#000000">Id</text>
<text text-anchor="start" x="603.6895" y="-516.7" font-family="Courier,monospace" font-size="11.00" fill="#000000"> &#160;&#160;&#160;&#160;&#160;&#160;&#160;&#160;&#160;&#160;&#160;&#160;&#160;&#160;&#160;&#160;&#160;&#160;&#160;&#160;&#160;&#160;&#160;&#160;&#160;&#160;&#160;&#160;&#160;&#160;&#160;&#160;&#160;&#160;&#160;&#160;&#160;&#160;&#160;</text>
<polygon fill="none" stroke="#99ccff" points="1002.6411,-510.5 1002.6411,-527.5 1093.6411,-527.5 1093.6411,-510.5 1002.6411,-510.5"/>
<text text-anchor="start" x="1028.3379" y="-515.7" font-family="Courier,monospace" font-size="11.00" fill="#000000">id(18)</text>
<polygon fill="none" stroke="#99ccff" points="303.6411,-493.5 303.6411,-510.5 1002.6411,-510.5 1002.6411,-493.5 303.6411,-493.5"/>
<text text-anchor="start" x="306.6411" y="-498.7" font-family="Courier,monospace" font-size="11.00" fill="#000000"> &#160;&#160;&#160;&#160;&#160;&#160;&#160;&#160;&#160;&#160;&#160;&#160;&#160;&#160;&#160;&#160;&#160;&#160;&#160;&#160;&#160;&#160;&#160;&#160;&#160;&#160;&#160;&#160;&#160;&#160;&#160;&#160;&#160;&#160;&#160;&#160;&#160;&#160;&#160;&#160;OwnerId &#160;&#160;&#160;&#160;&#160;&#160;&#160;&#160;&#160;&#160;&#160;&#160;&#160;&#160;&#160;&#160;&#160;&#160;&#160;&#160;&#160;&#160;&#160;&#160;&#160;&#160;&#160;&#160;&#160;&#160;&#160;&#160;&#160;&#160;&#160;&#160;&#160;&#160;</text>
<polygon fill="none" stroke="#99ccff" points="1002.6411,-493.5 1002.6411,-510.5 1093.6411,-510.5 1093.6411,-493.5 1002.6411,-493.5"/>
<text text-anchor="start" x="1005.2341" y="-498.7" font-family="Courier,monospace" font-size="11.00" fill="#000000">reference(18)</text>
<polygon fill="none" stroke="#99ccff" points="303.6411,-476.5 303.6411,-493.5 1002.6411,-493.5 1002.6411,-476.5 303.6411,-476.5"/>
<text text-anchor="start" x="306.6411" y="-481.7" font-family="Courier,monospace" font-size="11.00" fill="#000000"> &#160;&#160;&#160;&#160;&#160;&#160;&#160;&#160;&#160;&#160;&#160;&#160;&#160;&#160;&#160;&#160;&#160;&#160;&#160;&#160;&#160;&#160;&#160;&#160;&#160;&#160;&#160;&#160;&#160;&#160;&#160;&#160;&#160;&#160;&#160;&#160;&#160;&#160;&#160;&#160;IsDeleted &#160;&#160;&#160;&#160;&#160;&#160;&#160;&#160;&#160;&#160;&#160;&#160;&#160;&#160;&#160;&#160;&#160;&#160;&#160;&#160;&#160;&#160;&#160;&#160;&#160;&#160;&#160;&#160;&#160;&#160;&#160;&#160;&#160;&#160;&#160;&#160;&#160;&#160;</text>
<polygon fill="none" stroke="#99ccff" points="1002.6411,-476.5 1002.6411,-493.5 1093.6411,-493.5 1093.6411,-476.5 1002.6411,-476.5"/>
<text text-anchor="start" x="1025.0374" y="-481.7" font-family="Courier,monospace" font-size="11.00" fill="#000000">boolean</text>
<polygon fill="none" stroke="#99ccff" points="303.6411,-459.5 303.6411,-476.5 1002.6411,-476.5 1002.6411,-459.5 303.6411,-459.5"/>
<text text-anchor="start" x="306.6411" y="-464.7" font-family="Courier,monospace" font-size="11.00" fill="#000000"> &#160;&#160;&#160;&#160;&#160;&#160;&#160;&#160;&#160;&#160;&#160;&#160;&#160;&#160;&#160;&#160;&#160;&#160;&#160;&#160;&#160;&#160;&#160;&#160;&#160;&#160;&#160;&#160;&#160;&#160;&#160;&#160;&#160;&#160;&#160;&#160;&#160;&#160;&#160;&#160;Name &#160;&#160;&#160;&#160;&#160;&#160;&#160;&#160;&#160;&#160;&#160;&#160;&#160;&#160;&#160;&#160;&#160;&#160;&#160;&#160;&#160;&#160;&#160;&#160;&#160;&#160;&#160;&#160;&#160;&#160;&#160;&#160;&#160;&#160;&#160;&#160;&#160;&#160;</text>
<polygon fill="none" stroke="#99ccff" points="1002.6411,-459.5 1002.6411,-476.5 1093.6411,-476.5 1093.6411,-459.5 1002.6411,-459.5"/>
<text text-anchor="start" x="1011.8352" y="-464.7" font-family="Courier,monospace" font-size="11.00" fill="#000000">string(255)</text>
<polygon fill="none" stroke="#99ccff" points="303.6411,-442.5 303.6411,-459.5 1002.6411,-459.5 1002.6411,-442.5 303.6411,-442.5"/>
<text text-anchor="start" x="306.6411" y="-447.7" font-family="Courier,monospace" font-size="11.00" fill="#000000"> &#160;&#160;&#160;&#160;&#160;&#160;&#160;&#160;&#160;&#160;&#160;&#160;&#160;&#160;&#160;&#160;&#160;&#160;&#160;&#160;&#160;&#160;&#160;&#160;&#160;&#160;&#160;&#160;&#160;&#160;&#160;&#160;&#160;&#160;&#160;&#160;&#160;&#160;&#160;&#160;LastModifiedById &#160;&#160;&#160;&#160;&#160;&#160;&#160;&#160;&#160;&#160;&#160;&#160;&#160;&#160;&#160;&#160;&#160;&#160;&#160;&#160;&#160;&#160;&#160;&#160;&#160;&#160;&#160;&#160;&#160;&#160;&#160;&#160;&#160;&#160;&#160;&#160;&#160;&#160;</text>
<polygon fill="none" stroke="#99ccff" points="1002.6411,-442.5 1002.6411,-459.5 1093.6411,-459.5 1093.6411,-442.5 1002.6411,-442.5"/>
<text text-anchor="start" x="1005.2341" y="-447.7" font-family="Courier,monospace" font-size="11.00" fill="#000000">reference(18)</text>
<polygon fill="none" stroke="#99ccff" points="303.6411,-425.5 303.6411,-442.5 1002.6411,-442.5 1002.6411,-425.5 303.6411,-425.5"/>
<text text-anchor="start" x="306.6411" y="-430.7" font-family="Courier,monospace" font-size="11.00" fill="#000000"> &#160;&#160;&#160;&#160;&#160;&#160;&#160;&#160;&#160;&#160;&#160;&#160;&#160;&#160;&#160;&#160;&#160;&#160;&#160;&#160;&#160;&#160;&#160;&#160;&#160;&#160;&#160;&#160;&#160;&#160;&#160;&#160;&#160;&#160;&#160;&#160;&#160;&#160;&#160;&#160;LastViewedDate &#160;&#160;&#160;&#160;&#160;&#160;&#160;&#160;&#160;&#160;&#160;&#160;&#160;&#160;&#160;&#160;&#160;&#160;&#160;&#160;&#160;&#160;&#160;&#160;&#160;&#160;&#160;&#160;&#160;&#160;&#160;&#160;&#160;&#160;&#160;&#160;&#160;&#160;</text>
<polygon fill="none" stroke="#99ccff" points="1002.6411,-425.5 1002.6411,-442.5 1093.6411,-442.5 1093.6411,-425.5 1002.6411,-425.5"/>
<text text-anchor="start" x="1021.7368" y="-430.7" font-family="Courier,monospace" font-size="11.00" fill="#000000">datetime</text>
<polygon fill="none" stroke="#99ccff" points="303.6411,-408.5 303.6411,-425.5 1002.6411,-425.5 1002.6411,-408.5 303.6411,-408.5"/>
<text text-anchor="start" x="306.6411" y="-413.7" font-family="Courier,monospace" font-size="11.00" fill="#000000"> &#160;&#160;&#160;&#160;&#160;&#160;&#160;&#160;&#160;&#160;&#160;&#160;&#160;&#160;&#160;&#160;&#160;&#160;&#160;&#160;&#160;&#160;&#160;&#160;&#160;&#160;&#160;&#160;&#160;&#160;&#160;&#160;&#160;&#160;&#160;&#160;&#160;&#160;&#160;&#160;LastReferencedDate &#160;&#160;&#160;&#160;&#160;&#160;&#160;&#160;&#160;&#160;&#160;&#160;&#160;&#160;&#160;&#160;&#160;&#160;&#160;&#160;&#160;&#160;&#160;&#160;&#160;&#160;&#160;&#160;&#160;&#160;&#160;&#160;&#160;&#160;&#160;&#160;&#160;&#160;</text>
<polygon fill="none" stroke="#99ccff" points="1002.6411,-408.5 1002.6411,-425.5 1093.6411,-425.5 1093.6411,-408.5 1002.6411,-408.5"/>
<text text-anchor="start" x="1021.7368" y="-413.7" font-family="Courier,monospace" font-size="11.00" fill="#000000">datetime</text>
<polygon fill="none" stroke="#99ccff" points="303.6411,-391.5 303.6411,-408.5 1002.6411,-408.5 1002.6411,-391.5 303.6411,-391.5"/>
<text text-anchor="start" x="306.6411" y="-396.7" font-family="Courier,monospace" font-size="11.00" fill="#000000"> &#160;&#160;&#160;&#160;&#160;&#160;&#160;&#160;&#160;&#160;&#160;&#160;&#160;&#160;&#160;&#160;&#160;&#160;&#160;&#160;&#160;&#160;&#160;&#160;&#160;&#160;&#160;&#160;&#160;&#160;&#160;&#160;&#160;&#160;&#160;&#160;&#160;&#160;&#160;&#160;LoanApplicationId &#160;&#160;&#160;&#160;&#160;&#160;&#160;&#160;&#160;&#160;&#160;&#160;&#160;&#160;&#160;&#160;&#160;&#160;&#160;&#160;&#160;&#160;&#160;&#160;&#160;&#160;&#160;&#160;&#160;&#160;&#160;&#160;&#160;&#160;&#160;&#160;&#160;&#160;</text>
<polygon fill="none" stroke="#99ccff" points="1002.6411,-391.5 1002.6411,-408.5 1093.6411,-408.5 1093.6411,-391.5 1002.6411,-391.5"/>
<text text-anchor="start" x="1005.2341" y="-396.7" font-family="Courier,monospace" font-size="11.00" fill="#000000">reference(18)</text>
<polygon fill="none" stroke="#99ccff" points="303.6411,-374.5 303.6411,-391.5 1002.6411,-391.5 1002.6411,-374.5 303.6411,-374.5"/>
<text text-anchor="start" x="306.6411" y="-379.7" font-family="Courier,monospace" font-size="11.00" fill="#000000"> &#160;&#160;&#160;&#160;&#160;&#160;&#160;&#160;&#160;&#160;&#160;&#160;&#160;&#160;&#160;&#160;&#160;&#160;&#160;&#160;&#160;&#160;&#160;&#160;&#160;&#160;&#160;&#160;&#160;&#160;&#160;&#160;&#160;&#160;&#160;&#160;&#160;&#160;&#160;&#160;AccountType &#160;&#160;&#160;&#160;&#160;&#160;&#160;&#160;&#160;&#160;&#160;&#160;&#160;&#160;&#160;&#160;&#160;&#160;&#160;&#160;&#160;&#160;&#160;&#160;&#160;&#160;&#160;&#160;&#160;&#160;&#160;&#160;&#160;&#160;&#160;&#160;&#160;&#160;</text>
<polygon fill="none" stroke="#99ccff" points="1002.6411,-374.5 1002.6411,-391.5 1093.6411,-391.5 1093.6411,-374.5 1002.6411,-374.5"/>
<text text-anchor="start" x="1008.5347" y="-379.7" font-family="Courier,monospace" font-size="11.00" fill="#000000">picklist(40)</text>
<polygon fill="none" stroke="#99ccff" points="303.6411,-357.5 303.6411,-374.5 1002.6411,-374.5 1002.6411,-357.5 303.6411,-357.5"/>
<text text-anchor="start" x="306.6411" y="-362.7" font-family="Courier,monospace" font-size="11.00" fill="#000000"> &#160;&#160;&#160;&#160;&#160;&#160;&#160;&#160;&#160;&#160;&#160;&#160;&#160;&#160;&#160;&#160;&#160;&#160;&#160;&#160;&#160;&#160;&#160;&#160;&#160;&#160;&#160;&#160;&#160;&#160;&#160;&#160;&#160;&#160;&#160;&#160;&#160;&#160;&#160;&#160;AssetType &#160;&#160;&#160;&#160;&#160;&#160;&#160;&#160;&#160;&#160;&#160;&#160;&#160;&#160;&#160;&#160;&#160;&#160;&#160;&#160;&#160;&#160;&#160;&#160;&#160;&#160;&#160;&#160;&#160;&#160;&#160;&#160;&#160;&#160;&#160;&#160;&#160;&#160;</text>
<polygon fill="none" stroke="#99ccff" points="1002.6411,-357.5 1002.6411,-374.5 1093.6411,-374.5 1093.6411,-357.5 1002.6411,-357.5"/>
<text text-anchor="start" x="1008.5347" y="-362.7" font-family="Courier,monospace" font-size="11.00" fill="#000000">picklist(40)</text>
<polygon fill="none" stroke="#99ccff" points="303.6411,-340.5 303.6411,-357.5 1002.6411,-357.5 1002.6411,-340.5 303.6411,-340.5"/>
<text text-anchor="start" x="306.6411" y="-345.7" font-family="Courier,monospace" font-size="11.00" fill="#000000"> &#160;&#160;&#160;&#160;&#160;&#160;&#160;&#160;&#160;&#160;&#160;&#160;&#160;&#160;&#160;&#160;&#160;&#160;&#160;&#160;&#160;&#160;&#160;&#160;&#160;&#160;&#160;&#160;&#160;&#160;&#160;&#160;&#160;&#160;&#160;&#160;&#160;&#160;&#160;&#160;AccountNumber &#160;&#160;&#160;&#160;&#160;&#160;&#160;&#160;&#160;&#160;&#160;&#160;&#160;&#160;&#160;&#160;&#160;&#160;&#160;&#160;&#160;&#160;&#160;&#160;&#160;&#160;&#160;&#160;&#160;&#160;&#160;&#160;&#160;&#160;&#160;&#160;&#160;&#160;</text>
<polygon fill="none" stroke="#99ccff" points="1002.6411,-340.5 1002.6411,-357.5 1093.6411,-357.5 1093.6411,-340.5 1002.6411,-340.5"/>
<text text-anchor="start" x="1011.8352" y="-345.7" font-family="Courier,monospace" font-size="11.00" fill="#000000">string(255)</text>
<polygon fill="none" stroke="#99ccff" points="303.6411,-323.5 303.6411,-340.5 1002.6411,-340.5 1002.6411,-323.5 303.6411,-323.5"/>
<text text-anchor="start" x="306.6411" y="-328.7" font-family="Courier,monospace" font-size="11.00" fill="#000000"> &#160;&#160;&#160;&#160;&#160;&#160;&#160;&#160;&#160;&#160;&#160;&#160;&#160;&#160;&#160;&#160;&#160;&#160;&#160;&#160;&#160;&#160;&#160;&#160;&#160;&#160;&#160;&#160;&#160;&#160;&#160;&#160;&#160;&#160;&#160;&#160;&#160;&#160;&#160;&#160;CashOrMarketValue &#160;&#160;&#160;&#160;&#160;&#160;&#160;&#160;&#160;&#160;&#160;&#160;&#160;&#160;&#160;&#160;&#160;&#160;&#160;&#160;&#160;&#160;&#160;&#160;&#160;&#160;&#160;&#160;&#160;&#160;&#160;&#160;&#160;&#160;&#160;&#160;&#160;&#160;</text>
<polygon fill="none" stroke="#99ccff" points="1002.6411,-323.5 1002.6411,-340.5 1093.6411,-340.5 1093.6411,-323.5 1002.6411,-323.5"/>
<text text-anchor="start" x="1021.7368" y="-328.7" font-family="Courier,monospace" font-size="11.00" fill="#000000">currency</text>
<polygon fill="none" stroke="#99ccff" points="303.6411,-306.5 303.6411,-323.5 1002.6411,-323.5 1002.6411,-306.5 303.6411,-306.5"/>
<text text-anchor="start" x="306.6411" y="-311.7" font-family="Courier,monospace" font-size="11.00" fill="#000000"> &#160;&#160;&#160;&#160;&#160;&#160;&#160;&#160;&#160;&#160;&#160;&#160;&#160;&#160;&#160;&#160;&#160;&#160;&#160;&#160;&#160;&#160;&#160;&#160;&#160;&#160;&#160;&#160;&#160;&#160;&#160;&#160;&#160;&#160;&#160;&#160;&#160;&#160;&#160;&#160;FinancialInstitutionName &#160;&#160;&#160;&#160;&#160;&#160;&#160;&#160;&#160;&#160;&#160;&#160;&#160;&#160;&#160;&#160;&#160;&#160;&#160;&#160;&#160;&#160;&#160;&#160;&#160;&#160;&#160;&#160;&#160;&#160;&#160;&#160;&#160;&#160;&#160;&#160;&#160;&#160;</text>
<polygon fill="none" stroke="#99ccff" points="1002.6411,-306.5 1002.6411,-323.5 1093.6411,-323.5 1093.6411,-306.5 1002.6411,-306.5"/>
<text text-anchor="start" x="1011.8352" y="-311.7" font-family="Courier,monospace" font-size="11.00" fill="#000000">string(255)</text>
<polygon fill="none" stroke="#99ccff" points="303.6411,-289.5 303.6411,-306.5 1002.6411,-306.5 1002.6411,-289.5 303.6411,-289.5"/>
<text text-anchor="start" x="306.6411" y="-294.7" font-family="Courier,monospace" font-size="11.00" fill="#000000"> &#160;&#160;&#160;&#160;&#160;&#160;&#160;&#160;&#160;&#160;&#160;&#160;&#160;&#160;&#160;&#160;&#160;&#160;&#160;&#160;&#160;&#160;&#160;&#160;&#160;&#160;&#160;&#160;&#160;&#160;&#160;&#160;&#160;&#160;&#160;&#160;&#160;&#160;&#160;&#160;GrossMonthlyRentalIncome &#160;&#160;&#160;&#160;&#160;&#160;&#160;&#160;&#160;&#160;&#160;&#160;&#160;&#160;&#160;&#160;&#160;&#160;&#160;&#160;&#160;&#160;&#160;&#160;&#160;&#160;&#160;&#160;&#160;&#160;&#160;&#160;&#160;&#160;&#160;&#160;&#160;&#160;</text>
<polygon fill="none" stroke="#99ccff" points="1002.6411,-289.5 1002.6411,-306.5 1093.6411,-306.5 1093.6411,-289.5 1002.6411,-289.5"/>
<text text-anchor="start" x="1021.7368" y="-294.7" font-family="Courier,monospace" font-size="11.00" fill="#000000">currency</text>
<polygon fill="none" stroke="#99ccff" points="303.6411,-272.5 303.6411,-289.5 1002.6411,-289.5 1002.6411,-272.5 303.6411,-272.5"/>
<text text-anchor="start" x="306.6411" y="-277.7" font-family="Courier,monospace" font-size="11.00" fill="#000000"> &#160;&#160;&#160;&#160;&#160;&#160;&#160;&#160;&#160;&#160;&#160;&#160;&#160;&#160;&#160;&#160;&#160;&#160;&#160;&#160;&#160;&#160;&#160;&#160;&#160;&#160;&#160;&#160;&#160;&#160;&#160;&#160;&#160;&#160;&#160;&#160;&#160;&#160;&#160;&#160;RealEstateStreet &#160;&#160;&#160;&#160;&#160;&#160;&#160;&#160;&#160;&#160;&#160;&#160;&#160;&#160;&#160;&#160;&#160;&#160;&#160;&#160;&#160;&#160;&#160;&#160;&#160;&#160;&#160;&#160;&#160;&#160;&#160;&#160;&#160;&#160;&#160;&#160;&#160;&#160;</text>
<polygon fill="none" stroke="#99ccff" points="1002.6411,-272.5 1002.6411,-289.5 1093.6411,-289.5 1093.6411,-272.5 1002.6411,-272.5"/>
<text text-anchor="start" x="1005.2341" y="-277.7" font-family="Courier,monospace" font-size="11.00" fill="#000000">textarea(255)</text>
<polygon fill="none" stroke="#99ccff" points="303.6411,-255.5 303.6411,-272.5 1002.6411,-272.5 1002.6411,-255.5 303.6411,-255.5"/>
<text text-anchor="start" x="306.6411" y="-260.7" font-family="Courier,monospace" font-size="11.00" fill="#000000"> &#160;&#160;&#160;&#160;&#160;&#160;&#160;&#160;&#160;&#160;&#160;&#160;&#160;&#160;&#160;&#160;&#160;&#160;&#160;&#160;&#160;&#160;&#160;&#160;&#160;&#160;&#160;&#160;&#160;&#160;&#160;&#160;&#160;&#160;&#160;&#160;&#160;&#160;&#160;&#160;RealEstateCity &#160;&#160;&#160;&#160;&#160;&#160;&#160;&#160;&#160;&#160;&#160;&#160;&#160;&#160;&#160;&#160;&#160;&#160;&#160;&#160;&#160;&#160;&#160;&#160;&#160;&#160;&#160;&#160;&#160;&#160;&#160;&#160;&#160;&#160;&#160;&#160;&#160;&#160;</text>
<polygon fill="none" stroke="#99ccff" points="1002.6411,-255.5 1002.6411,-272.5 1093.6411,-272.5 1093.6411,-255.5 1002.6411,-255.5"/>
<text text-anchor="start" x="1015.1357" y="-260.7" font-family="Courier,monospace" font-size="11.00" fill="#000000">string(40)</text>
<polygon fill="none" stroke="#99ccff" points="303.6411,-238.5 303.6411,-255.5 1002.6411,-255.5 1002.6411,-238.5 303.6411,-238.5"/>
<text text-anchor="start" x="306.6411" y="-243.7" font-family="Courier,monospace" font-size="11.00" fill="#000000"> &#160;&#160;&#160;&#160;&#160;&#160;&#160;&#160;&#160;&#160;&#160;&#160;&#160;&#160;&#160;&#160;&#160;&#160;&#160;&#160;&#160;&#160;&#160;&#160;&#160;&#160;&#160;&#160;&#160;&#160;&#160;&#160;&#160;&#160;&#160;&#160;&#160;&#160;&#160;&#160;RealEstateState &#160;&#160;&#160;&#160;&#160;&#160;&#160;&#160;&#160;&#160;&#160;&#160;&#160;&#160;&#160;&#160;&#160;&#160;&#160;&#160;&#160;&#160;&#160;&#160;&#160;&#160;&#160;&#160;&#160;&#160;&#160;&#160;&#160;&#160;&#160;&#160;&#160;&#160;</text>
<polygon fill="none" stroke="#99ccff" points="1002.6411,-238.5 1002.6411,-255.5 1093.6411,-255.5 1093.6411,-238.5 1002.6411,-238.5"/>
<text text-anchor="start" x="1015.1357" y="-243.7" font-family="Courier,monospace" font-size="11.00" fill="#000000">string(80)</text>
<polygon fill="none" stroke="#99ccff" points="303.6411,-221.5 303.6411,-238.5 1002.6411,-238.5 1002.6411,-221.5 303.6411,-221.5"/>
<text text-anchor="start" x="306.6411" y="-226.7" font-family="Courier,monospace" font-size="11.00" fill="#000000"> &#160;&#160;&#160;&#160;&#160;&#160;&#160;&#160;&#160;&#160;&#160;&#160;&#160;&#160;&#160;&#160;&#160;&#160;&#160;&#160;&#160;&#160;&#160;&#160;&#160;&#160;&#160;&#160;&#160;&#160;&#160;&#160;&#160;&#160;&#160;&#160;&#160;&#160;&#160;&#160;RealEstatePostalCode &#160;&#160;&#160;&#160;&#160;&#160;&#160;&#160;&#160;&#160;&#160;&#160;&#160;&#160;&#160;&#160;&#160;&#160;&#160;&#160;&#160;&#160;&#160;&#160;&#160;&#160;&#160;&#160;&#160;&#160;&#160;&#160;&#160;&#160;&#160;&#160;&#160;&#160;</text>
<polygon fill="none" stroke="#99ccff" points="1002.6411,-221.5 1002.6411,-238.5 1093.6411,-238.5 1093.6411,-221.5 1002.6411,-221.5"/>
<text text-anchor="start" x="1015.1357" y="-226.7" font-family="Courier,monospace" font-size="11.00" fill="#000000">string(20)</text>
<polygon fill="none" stroke="#99ccff" points="303.6411,-204.5 303.6411,-221.5 1002.6411,-221.5 1002.6411,-204.5 303.6411,-204.5"/>
<text text-anchor="start" x="306.6411" y="-209.7" font-family="Courier,monospace" font-size="11.00" fill="#000000"> &#160;&#160;&#160;&#160;&#160;&#160;&#160;&#160;&#160;&#160;&#160;&#160;&#160;&#160;&#160;&#160;&#160;&#160;&#160;&#160;&#160;&#160;&#160;&#160;&#160;&#160;&#160;&#160;&#160;&#160;&#160;&#160;&#160;&#160;&#160;&#160;&#160;&#160;&#160;&#160;RealEstateCountry &#160;&#160;&#160;&#160;&#160;&#160;&#160;&#160;&#160;&#160;&#160;&#160;&#160;&#160;&#160;&#160;&#160;&#160;&#160;&#160;&#160;&#160;&#160;&#160;&#160;&#160;&#160;&#160;&#160;&#160;&#160;&#160;&#160;&#160;&#160;&#160;&#160;&#160;</text>
<polygon fill="none" stroke="#99ccff" points="1002.6411,-204.5 1002.6411,-221.5 1093.6411,-221.5 1093.6411,-204.5 1002.6411,-204.5"/>
<text text-anchor="start" x="1015.1357" y="-209.7" font-family="Courier,monospace" font-size="11.00" fill="#000000">string(80)</text>
<polygon fill="none" stroke="#99ccff" points="303.6411,-187.5 303.6411,-204.5 1002.6411,-204.5 1002.6411,-187.5 303.6411,-187.5"/>
<text text-anchor="start" x="306.6411" y="-192.7" font-family="Courier,monospace" font-size="11.00" fill="#000000"> &#160;&#160;&#160;&#160;&#160;&#160;&#160;&#160;&#160;&#160;&#160;&#160;&#160;&#160;&#160;&#160;&#160;&#160;&#160;&#160;&#160;&#160;&#160;&#160;&#160;&#160;&#160;&#160;&#160;&#160;&#160;&#160;&#160;&#160;&#160;&#160;&#160;&#160;&#160;&#160;RealEstateLatitude &#160;&#160;&#160;&#160;&#160;&#160;&#160;&#160;&#160;&#160;&#160;&#160;&#160;&#160;&#160;&#160;&#160;&#160;&#160;&#160;&#160;&#160;&#160;&#160;&#160;&#160;&#160;&#160;&#160;&#160;&#160;&#160;&#160;&#160;&#160;&#160;&#160;&#160;</text>
<polygon fill="none" stroke="#99ccff" points="1002.6411,-187.5 1002.6411,-204.5 1093.6411,-204.5 1093.6411,-187.5 1002.6411,-187.5"/>
<text text-anchor="start" x="1028.3379" y="-192.7" font-family="Courier,monospace" font-size="11.00" fill="#000000">double</text>
<polygon fill="none" stroke="#99ccff" points="303.6411,-170.5 303.6411,-187.5 1002.6411,-187.5 1002.6411,-170.5 303.6411,-170.5"/>
<text text-anchor="start" x="306.6411" y="-175.7" font-family="Courier,monospace" font-size="11.00" fill="#000000"> &#160;&#160;&#160;&#160;&#160;&#160;&#160;&#160;&#160;&#160;&#160;&#160;&#160;&#160;&#160;&#160;&#160;&#160;&#160;&#160;&#160;&#160;&#160;&#160;&#160;&#160;&#160;&#160;&#160;&#160;&#160;&#160;&#160;&#160;&#160;&#160;&#160;&#160;&#160;&#160;RealEstateLongitude &#160;&#160;&#160;&#160;&#160;&#160;&#160;&#160;&#160;&#160;&#160;&#160;&#160;&#160;&#160;&#160;&#160;&#160;&#160;&#160;&#160;&#160;&#160;&#160;&#160;&#160;&#160;&#160;&#160;&#160;&#160;&#160;&#160;&#160;&#160;&#160;&#160;&#160;</text>
<polygon fill="none" stroke="#99ccff" points="1002.6411,-170.5 1002.6411,-187.5 1093.6411,-187.5 1093.6411,-170.5 1002.6411,-170.5"/>
<text text-anchor="start" x="1028.3379" y="-175.7" font-family="Courier,monospace" font-size="11.00" fill="#000000">double</text>
<polygon fill="none" stroke="#99ccff" points="303.6411,-153.5 303.6411,-170.5 1002.6411,-170.5 1002.6411,-153.5 303.6411,-153.5"/>
<text text-anchor="start" x="306.5847" y="-158.7" font-family="Courier,monospace" font-size="11.00" fill="#000000"> &#160;&#160;&#160;&#160;&#160;&#160;&#160;&#160;&#160;&#160;&#160;&#160;&#160;&#160;&#160;&#160;&#160;&#160;&#160;&#160;&#160;&#160;&#160;&#160;&#160;&#160;&#160;&#160;&#160;&#160;&#160;&#160;&#160;&#160;&#160;&#160;&#160;&#160;&#160;&#160;RealEstateGeocodeAccuracy &#160;&#160;&#160;&#160;&#160;&#160;&#160;&#160;&#160;&#160;&#160;&#160;&#160;&#160;&#160;&#160;&#160;&#160;&#160;&#160;&#160;&#160;&#160;&#160;&#160;&#160;&#160;&#160;&#160;&#160;&#160;&#160;&#160;&#160;&#160;&#160;&#160;&#160;</text>
<polygon fill="none" stroke="#99ccff" points="1002.6411,-153.5 1002.6411,-170.5 1093.6411,-170.5 1093.6411,-153.5 1002.6411,-153.5"/>
<text text-anchor="start" x="1005.2341" y="-158.7" font-family="Courier,monospace" font-size="11.00" fill="#000000">picklist(255)</text>
<polygon fill="none" stroke="#99ccff" points="303.6411,-136.5 303.6411,-153.5 1002.6411,-153.5 1002.6411,-136.5 303.6411,-136.5"/>
<text text-anchor="start" x="306.6411" y="-141.7" font-family="Courier,monospace" font-size="11.00" fill="#000000"> &#160;&#160;&#160;&#160;&#160;&#160;&#160;&#160;&#160;&#160;&#160;&#160;&#160;&#160;&#160;&#160;&#160;&#160;&#160;&#160;&#160;&#160;&#160;&#160;&#160;&#160;&#160;&#160;&#160;&#160;&#160;&#160;&#160;&#160;&#160;&#160;&#160;&#160;&#160;&#160;RealEstateAddress &#160;&#160;&#160;&#160;&#160;&#160;&#160;&#160;&#160;&#160;&#160;&#160;&#160;&#160;&#160;&#160;&#160;&#160;&#160;&#160;&#160;&#160;&#160;&#160;&#160;&#160;&#160;&#160;&#160;&#160;&#160;&#160;&#160;&#160;&#160;&#160;&#160;&#160;</text>
<polygon fill="none" stroke="#99ccff" points="1002.6411,-136.5 1002.6411,-153.5 1093.6411,-153.5 1093.6411,-136.5 1002.6411,-136.5"/>
<text text-anchor="start" x="1025.0374" y="-141.7" font-family="Courier,monospace" font-size="11.00" fill="#000000">address</text>
<polygon fill="none" stroke="#99ccff" points="303.6411,-119.5 303.6411,-136.5 1002.6411,-136.5 1002.6411,-119.5 303.6411,-119.5"/>
<text text-anchor="start" x="306.6411" y="-124.7" font-family="Courier,monospace" font-size="11.00" fill="#000000"> &#160;&#160;&#160;&#160;&#160;&#160;&#160;&#160;&#160;&#160;&#160;&#160;&#160;&#160;&#160;&#160;&#160;&#160;&#160;&#160;&#160;&#160;&#160;&#160;&#160;&#160;&#160;&#160;&#160;&#160;&#160;&#160;&#160;&#160;&#160;&#160;&#160;&#160;&#160;&#160;DispositionType &#160;&#160;&#160;&#160;&#160;&#160;&#160;&#160;&#160;&#160;&#160;&#160;&#160;&#160;&#160;&#160;&#160;&#160;&#160;&#160;&#160;&#160;&#160;&#160;&#160;&#160;&#160;&#160;&#160;&#160;&#160;&#160;&#160;&#160;&#160;&#160;&#160;&#160;</text>
<polygon fill="none" stroke="#99ccff" points="1002.6411,-119.5 1002.6411,-136.5 1093.6411,-136.5 1093.6411,-119.5 1002.6411,-119.5"/>
<text text-anchor="start" x="1008.5347" y="-124.7" font-family="Courier,monospace" font-size="11.00" fill="#000000">picklist(40)</text>
<polygon fill="none" stroke="#99ccff" points="303.6411,-102.5 303.6411,-119.5 1002.6411,-119.5 1002.6411,-102.5 303.6411,-102.5"/>
<text text-anchor="start" x="306.6411" y="-107.7" font-family="Courier,monospace" font-size="11.00" fill="#000000"> &#160;&#160;&#160;&#160;&#160;&#160;&#160;&#160;&#160;&#160;&#160;&#160;&#160;&#160;&#160;&#160;&#160;&#160;&#160;&#160;&#160;&#160;&#160;&#160;&#160;&#160;&#160;&#160;&#160;&#160;&#160;&#160;&#160;&#160;&#160;&#160;&#160;&#160;&#160;&#160;PresentMarketValue &#160;&#160;&#160;&#160;&#160;&#160;&#160;&#160;&#160;&#160;&#160;&#160;&#160;&#160;&#160;&#160;&#160;&#160;&#160;&#160;&#160;&#160;&#160;&#160;&#160;&#160;&#160;&#160;&#160;&#160;&#160;&#160;&#160;&#160;&#160;&#160;&#160;&#160;</text>
<polygon fill="none" stroke="#99ccff" points="1002.6411,-102.5 1002.6411,-119.5 1093.6411,-119.5 1093.6411,-102.5 1002.6411,-102.5"/>
<text text-anchor="start" x="1021.7368" y="-107.7" font-family="Courier,monospace" font-size="11.00" fill="#000000">currency</text>
<polygon fill="none" stroke="#99ccff" points="303.6411,-85.5 303.6411,-102.5 1002.6411,-102.5 1002.6411,-85.5 303.6411,-85.5"/>
<text text-anchor="start" x="306.6411" y="-90.7" font-family="Courier,monospace" font-size="11.00" fill="#000000"> &#160;&#160;&#160;&#160;&#160;&#160;&#160;&#160;&#160;&#160;&#160;&#160;&#160;&#160;&#160;&#160;&#160;&#160;&#160;&#160;&#160;&#160;&#160;&#160;&#160;&#160;&#160;&#160;&#160;&#160;&#160;&#160;&#160;&#160;&#160;&#160;&#160;&#160;&#160;&#160;NetMonthlyRentalIncome &#160;&#160;&#160;&#160;&#160;&#160;&#160;&#160;&#160;&#160;&#160;&#160;&#160;&#160;&#160;&#160;&#160;&#160;&#160;&#160;&#160;&#160;&#160;&#160;&#160;&#160;&#160;&#160;&#160;&#160;&#160;&#160;&#160;&#160;&#160;&#160;&#160;&#160;</text>
<polygon fill="none" stroke="#99ccff" points="1002.6411,-85.5 1002.6411,-102.5 1093.6411,-102.5 1093.6411,-85.5 1002.6411,-85.5"/>
<text text-anchor="start" x="1021.7368" y="-90.7" font-family="Courier,monospace" font-size="11.00" fill="#000000">currency</text>
<polygon fill="none" stroke="#99ccff" points="303.6411,-68.5 303.6411,-85.5 1002.6411,-85.5 1002.6411,-68.5 303.6411,-68.5"/>
<text text-anchor="start" x="306.6411" y="-73.7" font-family="Courier,monospace" font-size="11.00" fill="#000000"> &#160;&#160;&#160;&#160;&#160;&#160;&#160;&#160;&#160;&#160;&#160;&#160;&#160;&#160;&#160;&#160;&#160;&#160;&#160;&#160;&#160;&#160;&#160;&#160;&#160;&#160;&#160;&#160;&#160;&#160;&#160;&#160;&#160;&#160;&#160;&#160;&#160;&#160;&#160;&#160;RealEstateMonthlyExpense &#160;&#160;&#160;&#160;&#160;&#160;&#160;&#160;&#160;&#160;&#160;&#160;&#160;&#160;&#160;&#160;&#160;&#160;&#160;&#160;&#160;&#160;&#160;&#160;&#160;&#160;&#160;&#160;&#160;&#160;&#160;&#160;&#160;&#160;&#160;&#160;&#160;&#160;</text>
<polygon fill="none" stroke="#99ccff" points="1002.6411,-68.5 1002.6411,-85.5 1093.6411,-85.5 1093.6411,-68.5 1002.6411,-68.5"/>
<text text-anchor="start" x="1021.7368" y="-73.7" font-family="Courier,monospace" font-size="11.00" fill="#000000">currency</text>
<polygon fill="none" stroke="#99ccff" points="303.6411,-51.5 303.6411,-68.5 1002.6411,-68.5 1002.6411,-51.5 303.6411,-51.5"/>
<text text-anchor="start" x="306.6411" y="-56.7" font-family="Courier,monospace" font-size="11.00" fill="#000000"> &#160;&#160;&#160;&#160;&#160;&#160;&#160;&#160;&#160;&#160;&#160;&#160;&#160;&#160;&#160;&#160;&#160;&#160;&#160;&#160;&#160;&#160;&#160;&#160;&#160;&#160;&#160;&#160;&#160;&#160;&#160;&#160;&#160;&#160;&#160;&#160;&#160;&#160;&#160;&#160;IsJointAsset &#160;&#160;&#160;&#160;&#160;&#160;&#160;&#160;&#160;&#160;&#160;&#160;&#160;&#160;&#160;&#160;&#160;&#160;&#160;&#160;&#160;&#160;&#160;&#160;&#160;&#160;&#160;&#160;&#160;&#160;&#160;&#160;&#160;&#160;&#160;&#160;&#160;&#160;</text>
<polygon fill="none" stroke="#99ccff" points="1002.6411,-51.5 1002.6411,-68.5 1093.6411,-68.5 1093.6411,-51.5 1002.6411,-51.5"/>
<text text-anchor="start" x="1025.0374" y="-56.7" font-family="Courier,monospace" font-size="11.00" fill="#000000">boolean</text>
<polygon fill="none" stroke="#99ccff" points="303.6411,-34.5 303.6411,-51.5 1002.6411,-51.5 1002.6411,-34.5 303.6411,-34.5"/>
<text text-anchor="start" x="306.6411" y="-39.7" font-family="Courier,monospace" font-size="11.00" fill="#000000"> &#160;&#160;&#160;&#160;&#160;&#160;&#160;&#160;&#160;&#160;&#160;&#160;&#160;&#160;&#160;&#160;&#160;&#160;&#160;&#160;&#160;&#160;&#160;&#160;&#160;&#160;&#160;&#160;&#160;&#160;&#160;&#160;&#160;&#160;&#160;&#160;&#160;&#160;&#160;&#160;AssetClass &#160;&#160;&#160;&#160;&#160;&#160;&#160;&#160;&#160;&#160;&#160;&#160;&#160;&#160;&#160;&#160;&#160;&#160;&#160;&#160;&#160;&#160;&#160;&#160;&#160;&#160;&#160;&#160;&#160;&#160;&#160;&#160;&#160;&#160;&#160;&#160;&#160;&#160;</text>
<polygon fill="none" stroke="#99ccff" points="1002.6411,-34.5 1002.6411,-51.5 1093.6411,-51.5 1093.6411,-34.5 1002.6411,-34.5"/>
<text text-anchor="start" x="1008.5347" y="-39.7" font-family="Courier,monospace" font-size="11.00" fill="#000000">picklist(40)</text>
<polygon fill="none" stroke="#99ccff" points="303.6411,-17.5 303.6411,-34.5 1002.6411,-34.5 1002.6411,-17.5 303.6411,-17.5"/>
<text text-anchor="start" x="306.6411" y="-22.7" font-family="Courier,monospace" font-size="11.00" fill="#000000"> &#160;&#160;&#160;&#160;&#160;&#160;&#160;&#160;&#160;&#160;&#160;&#160;&#160;&#160;&#160;&#160;&#160;&#160;&#160;&#160;&#160;&#160;&#160;&#160;&#160;&#160;&#160;&#160;&#160;&#160;&#160;&#160;&#160;&#160;&#160;&#160;&#160;&#160;&#160;&#160;AssetExtIdentifier &#160;&#160;&#160;&#160;&#160;&#160;&#160;&#160;&#160;&#160;&#160;&#160;&#160;&#160;&#160;&#160;&#160;&#160;&#160;&#160;&#160;&#160;&#160;&#160;&#160;&#160;&#160;&#160;&#160;&#160;&#160;&#160;&#160;&#160;&#160;&#160;&#160;&#160;</text>
<polygon fill="none" stroke="#99ccff" points="1002.6411,-17.5 1002.6411,-34.5 1093.6411,-34.5 1093.6411,-17.5 1002.6411,-17.5"/>
<text text-anchor="start" x="1011.8352" y="-22.7" font-family="Courier,monospace" font-size="11.00" fill="#000000">string(255)</text>
<polygon fill="none" stroke="#99ccff" points="302.6411,-17 302.6411,-546 1094.6411,-546 1094.6411,-17 302.6411,-17"/>
</a>
</g>
</g>
<!-- Group -->
<g id="node2" class="node">
<title>Group</title>
<text text-anchor="middle" x="93.814" y="-508.2" font-family="Courier,monospace" font-size="11.00" fill="#000000">Group</text>
</g>
<!-- LoanApplicationAsset&#45;&gt;Group -->
<g id="edge1" class="edge">
<title>LoanApplicationAsset:w&#45;&gt;Group:e</title>
<path fill="none" stroke="#ff99cc" d="M288.8587,-502.571C226.7737,-503.1505 157.9701,-507.1455 120.9597,-509.5913"/>
<polygon fill="#ff99cc" stroke="#ff99cc" points="295.6412,-502.5385 303.6584,-506.1 299.6412,-502.5192 303.6411,-502.5 303.6411,-502.5 303.6411,-502.5 299.6412,-502.5192 303.6238,-498.9 295.6412,-502.5385 295.6412,-502.5385"/>
<ellipse fill="none" stroke="#ff99cc" cx="292.4412" cy="-502.5538" rx="3.2" ry="3.2"/>
<text text-anchor="middle" x="245.1345" y="-509.3015" font-family="Monaco" font-size="9.00" fill="#000000">Owner</text>
</g>
<!-- User -->
<g id="node3" class="node">
<title>User</title>
<text text-anchor="middle" x="93.814" y="-454.2" font-family="Courier,monospace" font-size="11.00" fill="#000000">User</text>
</g>
<!-- LoanApplicationAsset&#45;&gt;User -->
<g id="edge2" class="edge">
<title>LoanApplicationAsset:w&#45;&gt;User:e</title>
<path fill="none" stroke="#ff99cc" d="M292.9951,-492.2403C291.5412,-488.9237 289.685,-485.571 285.6411,-483.4985 257.452,-469.0521 166.7711,-461.7844 120.9109,-458.9562"/>
<polygon fill="#ff99cc" stroke="#ff99cc" points="297.8807,-496.9486 301.143,-505.0922 300.7609,-499.7243 303.6411,-502.5 303.6411,-502.5 303.6411,-502.5 300.7609,-499.7243 306.1392,-499.9078 297.8807,-496.9486 297.8807,-496.9486"/>
<ellipse fill="none" stroke="#ff99cc" cx="295.5765" cy="-494.728" rx="3.2" ry="3.2"/>
<text text-anchor="middle" x="245.1345" y="-487.3015" font-family="Monaco" font-size="9.00" fill="#000000">Owner</text>
</g>
<!-- LoanApplicationAsset&#45;&gt;User -->
<g id="edge3" class="edge">
<title>LoanApplicationAsset:w&#45;&gt;User:e</title>
<path fill="none" stroke="#ff99cc" d="M288.9998,-450.6385C287.9968,-450.5817 286.8926,-450.5333 285.6411,-450.4985 249.6492,-449.4981 240.6159,-449.3628 204.6279,-450.4985 176.1123,-451.3985 143.5307,-453.598 121.1151,-455.2936"/>
<polygon fill="#ff99cc" stroke="#ff99cc" points="295.6549,-451.0301 303.4296,-455.0938 299.648,-451.265 303.6411,-451.5 303.6411,-451.5 303.6411,-451.5 299.648,-451.265 303.8526,-447.9062 295.6549,-451.0301 295.6549,-451.0301"/>
<ellipse fill="none" stroke="#ff99cc" cx="292.4604" cy="-450.8421" rx="3.2" ry="3.2"/>
<text text-anchor="middle" x="245.1345" y="-454.3015" font-family="Monaco" font-size="9.00" fill="#000000">LastModifiedBy</text>
</g>
<!-- ResidentialLoanApplication -->
<g id="node4" class="node">
<title>ResidentialLoanApplication</title>
<text text-anchor="middle" x="93.814" y="-397.2" font-family="Courier,monospace" font-size="11.00" fill="#000000">ResidentialLoanApplication</text>
</g>
<!-- LoanApplicationAsset&#45;&gt;ResidentialLoanApplication -->
<g id="edge4" class="edge">
<title>LoanApplicationAsset:w&#45;&gt;ResidentialLoanApplication:e</title>
<path fill="none" stroke="#ff99cc" d="M289.2371,-400.5C255.2911,-400.5 219.289,-400.5 187.5594,-400.5"/>
<polygon fill="#ff99cc" stroke="#ff99cc" points="295.6411,-400.5001 303.6411,-404.1 299.6411,-400.5 303.6411,-400.5 303.6411,-400.5 303.6411,-400.5 299.6411,-400.5 303.6411,-396.9 295.6411,-400.5001 295.6411,-400.5001"/>
<ellipse fill="none" stroke="#ff99cc" cx="292.4411" cy="-400.5001" rx="3.2" ry="3.2"/>
<text text-anchor="middle" x="245.1345" y="-405.3015" font-family="Monaco" font-size="9.00" fill="#000000">LoanApplication</text>
</g>
</g>
</svg>
