<?xml version="1.0" encoding="UTF-8" standalone="no"?>
<!DOCTYPE svg PUBLIC "-//W3C//DTD SVG 1.1//EN"
 "http://www.w3.org/Graphics/SVG/1.1/DTD/svg11.dtd">
<!-- Generated by graphviz version 2.40.1 (20161225.0304)
 -->
<!-- Title: Salesforce+ ERD Pages: 1 -->
<svg width="1144pt" height="219pt"
 viewBox="0.00 0.00 1144.05 219.00" xmlns="http://www.w3.org/2000/svg" xmlns:xlink="http://www.w3.org/1999/xlink">
<g id="graph0" class="graph" transform="scale(1 1) rotate(0) translate(4 215)">
<title>Salesforce+ ERD</title>
<polygon fill="#efeffd" stroke="transparent" points="-4,4 -4,-215 1140.0469,-215 1140.0469,4 -4,4"/>
<text text-anchor="middle" x="1087.5403" y="-5.8" font-family="Courier,monospace" font-size="9.00" fill="#000000">Salesforce ERD </text>
<!-- LoanApplicantLiability -->
<g id="node1" class="node">
<title>LoanApplicantLiability</title>
<g id="a_node1"><a xlink:href="#" xlink:title=" LoanApplicantLiability ">
<polygon fill="#ffeeff" stroke="transparent" points="338.0469,-39 338.0469,-211 1136.0469,-211 1136.0469,-39 338.0469,-39"/>
<polygon fill="#add8e6" stroke="transparent" points="339.0469,-193 339.0469,-210 1135.0469,-210 1135.0469,-193 339.0469,-193"/>
<polygon fill="none" stroke="#99ccff" points="339.0469,-193 339.0469,-210 1135.0469,-210 1135.0469,-193 339.0469,-193"/>
<text text-anchor="start" x="664.4351" y="-199.2" font-family="Courier,monospace" font-weight="bold" font-size="11.00" fill="#000000">LoanApplicantLiability</text>
<polygon fill="#99ccff" stroke="transparent" points="339.0469,-176 339.0469,-193 1044.0469,-193 1044.0469,-176 339.0469,-176"/>
<polygon fill="none" stroke="#99ccff" points="339.0469,-176 339.0469,-193 1044.0469,-193 1044.0469,-176 339.0469,-176"/>
<text text-anchor="start" x="342.0469" y="-182.2" font-family="Courier,monospace" font-size="11.00" fill="#000000"> &#160;&#160;&#160;&#160;&#160;&#160;&#160;&#160;&#160;&#160;&#160;&#160;&#160;&#160;&#160;&#160;&#160;&#160;&#160;&#160;&#160;&#160;&#160;&#160;&#160;&#160;&#160;&#160;&#160;&#160;&#160;&#160;&#160;&#160;&#160;&#160;&#160;&#160;&#160;&#160;&#160;&#160;</text>
<text text-anchor="start" x="625.8931" y="-182.2" font-family="Courier,monospace" font-weight="bold" font-size="11.00" fill="#000000">Id</text>
<text text-anchor="start" x="639.0952" y="-182.2" font-family="Courier,monospace" font-size="11.00" fill="#000000"> &#160;&#160;&#160;&#160;&#160;&#160;&#160;&#160;&#160;&#160;&#160;&#160;&#160;&#160;&#160;&#160;&#160;&#160;&#160;&#160;&#160;&#160;&#160;&#160;&#160;&#160;&#160;&#160;&#160;&#160;&#160;&#160;&#160;&#160;&#160;&#160;&#160;&#160;&#160;</text>
<polygon fill="none" stroke="#99ccff" points="1044.0469,-176 1044.0469,-193 1135.0469,-193 1135.0469,-176 1044.0469,-176"/>
<text text-anchor="start" x="1069.7437" y="-181.2" font-family="Courier,monospace" font-size="11.00" fill="#000000">id(18)</text>
<polygon fill="none" stroke="#99ccff" points="339.0469,-159 339.0469,-176 1044.0469,-176 1044.0469,-159 339.0469,-159"/>
<text text-anchor="start" x="342.0469" y="-164.2" font-family="Courier,monospace" font-size="11.00" fill="#000000"> &#160;&#160;&#160;&#160;&#160;&#160;&#160;&#160;&#160;&#160;&#160;&#160;&#160;&#160;&#160;&#160;&#160;&#160;&#160;&#160;&#160;&#160;&#160;&#160;&#160;&#160;&#160;&#160;&#160;&#160;&#160;&#160;&#160;&#160;&#160;&#160;&#160;&#160;&#160;&#160;IsDeleted &#160;&#160;&#160;&#160;&#160;&#160;&#160;&#160;&#160;&#160;&#160;&#160;&#160;&#160;&#160;&#160;&#160;&#160;&#160;&#160;&#160;&#160;&#160;&#160;&#160;&#160;&#160;&#160;&#160;&#160;&#160;&#160;&#160;&#160;&#160;&#160;&#160;&#160;</text>
<polygon fill="none" stroke="#99ccff" points="1044.0469,-159 1044.0469,-176 1135.0469,-176 1135.0469,-159 1044.0469,-159"/>
<text text-anchor="start" x="1066.4431" y="-164.2" font-family="Courier,monospace" font-size="11.00" fill="#000000">boolean</text>
<polygon fill="none" stroke="#99ccff" points="339.0469,-142 339.0469,-159 1044.0469,-159 1044.0469,-142 339.0469,-142"/>
<text text-anchor="start" x="342.0469" y="-147.2" font-family="Courier,monospace" font-size="11.00" fill="#000000"> &#160;&#160;&#160;&#160;&#160;&#160;&#160;&#160;&#160;&#160;&#160;&#160;&#160;&#160;&#160;&#160;&#160;&#160;&#160;&#160;&#160;&#160;&#160;&#160;&#160;&#160;&#160;&#160;&#160;&#160;&#160;&#160;&#160;&#160;&#160;&#160;&#160;&#160;&#160;&#160;Name &#160;&#160;&#160;&#160;&#160;&#160;&#160;&#160;&#160;&#160;&#160;&#160;&#160;&#160;&#160;&#160;&#160;&#160;&#160;&#160;&#160;&#160;&#160;&#160;&#160;&#160;&#160;&#160;&#160;&#160;&#160;&#160;&#160;&#160;&#160;&#160;&#160;&#160;</text>
<polygon fill="none" stroke="#99ccff" points="1044.0469,-142 1044.0469,-159 1135.0469,-159 1135.0469,-142 1044.0469,-142"/>
<text text-anchor="start" x="1053.241" y="-147.2" font-family="Courier,monospace" font-size="11.00" fill="#000000">string(255)</text>
<polygon fill="none" stroke="#99ccff" points="339.0469,-125 339.0469,-142 1044.0469,-142 1044.0469,-125 339.0469,-125"/>
<text text-anchor="start" x="342.0469" y="-130.2" font-family="Courier,monospace" font-size="11.00" fill="#000000"> &#160;&#160;&#160;&#160;&#160;&#160;&#160;&#160;&#160;&#160;&#160;&#160;&#160;&#160;&#160;&#160;&#160;&#160;&#160;&#160;&#160;&#160;&#160;&#160;&#160;&#160;&#160;&#160;&#160;&#160;&#160;&#160;&#160;&#160;&#160;&#160;&#160;&#160;&#160;&#160;LastModifiedById &#160;&#160;&#160;&#160;&#160;&#160;&#160;&#160;&#160;&#160;&#160;&#160;&#160;&#160;&#160;&#160;&#160;&#160;&#160;&#160;&#160;&#160;&#160;&#160;&#160;&#160;&#160;&#160;&#160;&#160;&#160;&#160;&#160;&#160;&#160;&#160;&#160;&#160;</text>
<polygon fill="none" stroke="#99ccff" points="1044.0469,-125 1044.0469,-142 1135.0469,-142 1135.0469,-125 1044.0469,-125"/>
<text text-anchor="start" x="1046.6399" y="-130.2" font-family="Courier,monospace" font-size="11.00" fill="#000000">reference(18)</text>
<polygon fill="none" stroke="#99ccff" points="339.0469,-108 339.0469,-125 1044.0469,-125 1044.0469,-108 339.0469,-108"/>
<text text-anchor="start" x="342.0469" y="-113.2" font-family="Courier,monospace" font-size="11.00" fill="#000000"> &#160;&#160;&#160;&#160;&#160;&#160;&#160;&#160;&#160;&#160;&#160;&#160;&#160;&#160;&#160;&#160;&#160;&#160;&#160;&#160;&#160;&#160;&#160;&#160;&#160;&#160;&#160;&#160;&#160;&#160;&#160;&#160;&#160;&#160;&#160;&#160;&#160;&#160;&#160;&#160;LastViewedDate &#160;&#160;&#160;&#160;&#160;&#160;&#160;&#160;&#160;&#160;&#160;&#160;&#160;&#160;&#160;&#160;&#160;&#160;&#160;&#160;&#160;&#160;&#160;&#160;&#160;&#160;&#160;&#160;&#160;&#160;&#160;&#160;&#160;&#160;&#160;&#160;&#160;&#160;</text>
<polygon fill="none" stroke="#99ccff" points="1044.0469,-108 1044.0469,-125 1135.0469,-125 1135.0469,-108 1044.0469,-108"/>
<text text-anchor="start" x="1063.1426" y="-113.2" font-family="Courier,monospace" font-size="11.00" fill="#000000">datetime</text>
<polygon fill="none" stroke="#99ccff" points="339.0469,-91 339.0469,-108 1044.0469,-108 1044.0469,-91 339.0469,-91"/>
<text text-anchor="start" x="342.0469" y="-96.2" font-family="Courier,monospace" font-size="11.00" fill="#000000"> &#160;&#160;&#160;&#160;&#160;&#160;&#160;&#160;&#160;&#160;&#160;&#160;&#160;&#160;&#160;&#160;&#160;&#160;&#160;&#160;&#160;&#160;&#160;&#160;&#160;&#160;&#160;&#160;&#160;&#160;&#160;&#160;&#160;&#160;&#160;&#160;&#160;&#160;&#160;&#160;LastReferencedDate &#160;&#160;&#160;&#160;&#160;&#160;&#160;&#160;&#160;&#160;&#160;&#160;&#160;&#160;&#160;&#160;&#160;&#160;&#160;&#160;&#160;&#160;&#160;&#160;&#160;&#160;&#160;&#160;&#160;&#160;&#160;&#160;&#160;&#160;&#160;&#160;&#160;&#160;</text>
<polygon fill="none" stroke="#99ccff" points="1044.0469,-91 1044.0469,-108 1135.0469,-108 1135.0469,-91 1044.0469,-91"/>
<text text-anchor="start" x="1063.1426" y="-96.2" font-family="Courier,monospace" font-size="11.00" fill="#000000">datetime</text>
<polygon fill="none" stroke="#99ccff" points="339.0469,-74 339.0469,-91 1044.0469,-91 1044.0469,-74 339.0469,-74"/>
<text text-anchor="start" x="342.0469" y="-79.2" font-family="Courier,monospace" font-size="11.00" fill="#000000"> &#160;&#160;&#160;&#160;&#160;&#160;&#160;&#160;&#160;&#160;&#160;&#160;&#160;&#160;&#160;&#160;&#160;&#160;&#160;&#160;&#160;&#160;&#160;&#160;&#160;&#160;&#160;&#160;&#160;&#160;&#160;&#160;&#160;&#160;&#160;&#160;&#160;&#160;&#160;&#160;LoanApplicantId &#160;&#160;&#160;&#160;&#160;&#160;&#160;&#160;&#160;&#160;&#160;&#160;&#160;&#160;&#160;&#160;&#160;&#160;&#160;&#160;&#160;&#160;&#160;&#160;&#160;&#160;&#160;&#160;&#160;&#160;&#160;&#160;&#160;&#160;&#160;&#160;&#160;&#160;</text>
<polygon fill="none" stroke="#99ccff" points="1044.0469,-74 1044.0469,-91 1135.0469,-91 1135.0469,-74 1044.0469,-74"/>
<text text-anchor="start" x="1046.6399" y="-79.2" font-family="Courier,monospace" font-size="11.00" fill="#000000">reference(18)</text>
<polygon fill="none" stroke="#99ccff" points="339.0469,-57 339.0469,-74 1044.0469,-74 1044.0469,-57 339.0469,-57"/>
<text text-anchor="start" x="341.6899" y="-62.2" font-family="Courier,monospace" font-size="11.00" fill="#000000"> &#160;&#160;&#160;&#160;&#160;&#160;&#160;&#160;&#160;&#160;&#160;&#160;&#160;&#160;&#160;&#160;&#160;&#160;&#160;&#160;&#160;&#160;&#160;&#160;&#160;&#160;&#160;&#160;&#160;&#160;&#160;&#160;&#160;&#160;&#160;&#160;&#160;&#160;&#160;&#160;LoanApplicationLiabilityId &#160;&#160;&#160;&#160;&#160;&#160;&#160;&#160;&#160;&#160;&#160;&#160;&#160;&#160;&#160;&#160;&#160;&#160;&#160;&#160;&#160;&#160;&#160;&#160;&#160;&#160;&#160;&#160;&#160;&#160;&#160;&#160;&#160;&#160;&#160;&#160;&#160;&#160;</text>
<polygon fill="none" stroke="#99ccff" points="1044.0469,-57 1044.0469,-74 1135.0469,-74 1135.0469,-57 1044.0469,-57"/>
<text text-anchor="start" x="1046.6399" y="-62.2" font-family="Courier,monospace" font-size="11.00" fill="#000000">reference(18)</text>
<polygon fill="none" stroke="#99ccff" points="339.0469,-40 339.0469,-57 1044.0469,-57 1044.0469,-40 339.0469,-40"/>
<text text-anchor="start" x="342.0469" y="-45.2" font-family="Courier,monospace" font-size="11.00" fill="#000000"> &#160;&#160;&#160;&#160;&#160;&#160;&#160;&#160;&#160;&#160;&#160;&#160;&#160;&#160;&#160;&#160;&#160;&#160;&#160;&#160;&#160;&#160;&#160;&#160;&#160;&#160;&#160;&#160;&#160;&#160;&#160;&#160;&#160;&#160;&#160;&#160;&#160;&#160;&#160;&#160;Role &#160;&#160;&#160;&#160;&#160;&#160;&#160;&#160;&#160;&#160;&#160;&#160;&#160;&#160;&#160;&#160;&#160;&#160;&#160;&#160;&#160;&#160;&#160;&#160;&#160;&#160;&#160;&#160;&#160;&#160;&#160;&#160;&#160;&#160;&#160;&#160;&#160;&#160;</text>
<polygon fill="none" stroke="#99ccff" points="1044.0469,-40 1044.0469,-57 1135.0469,-57 1135.0469,-40 1044.0469,-40"/>
<text text-anchor="start" x="1049.9404" y="-45.2" font-family="Courier,monospace" font-size="11.00" fill="#000000">picklist(40)</text>
<polygon fill="none" stroke="#99ccff" points="338.0469,-39 338.0469,-211 1136.0469,-211 1136.0469,-39 338.0469,-39"/>
</a>
</g>
</g>
<!-- User -->
<g id="node2" class="node">
<title>User</title>
<text text-anchor="middle" x="87.2129" y="-130.7" font-family="Courier,monospace" font-size="11.00" fill="#000000">User</text>
</g>
<!-- LoanApplicantLiability&#45;&gt;User -->
<g id="edge1" class="edge">
<title>LoanApplicantLiability:w&#45;&gt;User:e</title>
<path fill="none" stroke="#ff99cc" d="M324.5346,-134C246.1309,-134 157.8932,-134 114.4172,-134"/>
<polygon fill="#ff99cc" stroke="#ff99cc" points="331.0469,-134.0001 339.0469,-137.6 335.0469,-134 339.0469,-134 339.0469,-134 339.0469,-134 335.0469,-134 339.0469,-130.4 331.0469,-134.0001 331.0469,-134.0001"/>
<ellipse fill="none" stroke="#ff99cc" cx="327.8469" cy="-134.0001" rx="3.2" ry="3.2"/>
<text text-anchor="middle" x="256.2363" y="-138.8015" font-family="Monaco" font-size="9.00" fill="#000000">LastModifiedBy</text>
</g>
<!-- LoanApplicant -->
<g id="node3" class="node">
<title>LoanApplicant</title>
<text text-anchor="middle" x="87.2129" y="-80.7" font-family="Courier,monospace" font-size="11.00" fill="#000000">LoanApplicant</text>
</g>
<!-- LoanApplicantLiability&#45;&gt;LoanApplicant -->
<g id="edge2" class="edge">
<title>LoanApplicantLiability:w&#45;&gt;LoanApplicant:e</title>
<path fill="none" stroke="#ff99cc" d="M324.2367,-82.0111C258.3799,-82.1076 185.6403,-82.8126 138.3385,-83.3562"/>
<polygon fill="#ff99cc" stroke="#ff99cc" points="331.0469,-82.0061 339.0496,-85.6 335.0469,-82.003 339.0469,-82 339.0469,-82 339.0469,-82 335.0469,-82.003 339.0442,-78.4 331.0469,-82.0061 331.0469,-82.0061"/>
<ellipse fill="none" stroke="#ff99cc" cx="327.8469" cy="-82.0085" rx="3.2" ry="3.2"/>
<text text-anchor="middle" x="256.2363" y="-87.8015" font-family="Monaco" font-size="9.00" fill="#000000">LoanApplicant</text>
</g>
<!-- LoanApplicationLiability -->
<g id="node4" class="node">
<title>LoanApplicationLiability</title>
<text text-anchor="middle" x="87.2129" y="-31.7" font-family="Courier,monospace" font-size="11.00" fill="#000000">LoanApplicationLiability</text>
</g>
<!-- LoanApplicantLiability&#45;&gt;LoanApplicationLiability -->
<g id="edge3" class="edge">
<title>LoanApplicantLiability:w&#45;&gt;LoanApplicationLiability:e</title>
<path fill="none" stroke="#ff99cc" d="M324.4317,-64.8396C273.4614,-63.7463 218.6762,-57.234 174.6101,-50.5712"/>
<polygon fill="#ff99cc" stroke="#ff99cc" points="331.0474,-64.9122 339.0073,-68.5998 335.0471,-64.9561 339.0469,-65 339.0469,-65 339.0469,-65 335.0471,-64.9561 339.0864,-61.4002 331.0474,-64.9122 331.0474,-64.9122"/>
<ellipse fill="none" stroke="#ff99cc" cx="327.8475" cy="-64.877" rx="3.2" ry="3.2"/>
<text text-anchor="middle" x="256.2363" y="-69.8015" font-family="Monaco" font-size="9.00" fill="#000000">LoanApplicationLiability</text>
</g>
</g>
</svg>
