<?xml version="1.0" encoding="UTF-8" standalone="no"?>
<!DOCTYPE svg PUBLIC "-//W3C//DTD SVG 1.1//EN"
 "http://www.w3.org/Graphics/SVG/1.1/DTD/svg11.dtd">
<!-- Generated by graphviz version 2.40.1 (20161225.0304)
 -->
<!-- Title: Salesforce+ ERD Pages: 1 -->
<svg width="1089pt" height="486pt"
 viewBox="0.00 0.00 1088.64 486.00" xmlns="http://www.w3.org/2000/svg" xmlns:xlink="http://www.w3.org/1999/xlink">
<g id="graph0" class="graph" transform="scale(1 1) rotate(0) translate(4 482)">
<title>Salesforce+ ERD</title>
<polygon fill="#efeffd" stroke="transparent" points="-4,4 -4,-482 1084.6411,-482 1084.6411,4 -4,4"/>
<text text-anchor="middle" x="1032.1345" y="-5.8" font-family="Courier,monospace" font-size="9.00" fill="#000000">Salesforce ERD </text>
<!-- LoanApplicationProperty -->
<g id="node1" class="node">
<title>LoanApplicationProperty</title>
<g id="a_node1"><a xlink:href="#" xlink:title=" LoanApplicationProperty ">
<polygon fill="#ffeeff" stroke="transparent" points="302.6411,-17 302.6411,-478 1080.6411,-478 1080.6411,-17 302.6411,-17"/>
<polygon fill="#add8e6" stroke="transparent" points="303.6411,-459.5 303.6411,-476.5 1079.6411,-476.5 1079.6411,-459.5 303.6411,-459.5"/>
<polygon fill="none" stroke="#99ccff" points="303.6411,-459.5 303.6411,-476.5 1079.6411,-476.5 1079.6411,-459.5 303.6411,-459.5"/>
<text text-anchor="start" x="615.7288" y="-465.7" font-family="Courier,monospace" font-weight="bold" font-size="11.00" fill="#000000">LoanApplicationProperty</text>
<polygon fill="#99ccff" stroke="transparent" points="303.6411,-442.5 303.6411,-459.5 988.6411,-459.5 988.6411,-442.5 303.6411,-442.5"/>
<polygon fill="none" stroke="#99ccff" points="303.6411,-442.5 303.6411,-459.5 988.6411,-459.5 988.6411,-442.5 303.6411,-442.5"/>
<text text-anchor="start" x="306.6411" y="-448.7" font-family="Courier,monospace" font-size="11.00" fill="#000000"> &#160;&#160;&#160;&#160;&#160;&#160;&#160;&#160;&#160;&#160;&#160;&#160;&#160;&#160;&#160;&#160;&#160;&#160;&#160;&#160;&#160;&#160;&#160;&#160;&#160;&#160;&#160;&#160;&#160;&#160;&#160;&#160;&#160;&#160;&#160;&#160;&#160;&#160;&#160;&#160;&#160;&#160;</text>
<text text-anchor="start" x="590.4873" y="-448.7" font-family="Courier,monospace" font-weight="bold" font-size="11.00" fill="#000000">Id</text>
<text text-anchor="start" x="603.6895" y="-448.7" font-family="Courier,monospace" font-size="11.00" fill="#000000"> &#160;&#160;&#160;&#160;&#160;&#160;&#160;&#160;&#160;&#160;&#160;&#160;&#160;&#160;&#160;&#160;&#160;&#160;&#160;&#160;&#160;&#160;&#160;&#160;&#160;&#160;&#160;&#160;&#160;&#160;&#160;&#160;&#160;&#160;&#160;&#160;&#160;&#160;&#160;</text>
<polygon fill="none" stroke="#99ccff" points="988.6411,-442.5 988.6411,-459.5 1079.6411,-459.5 1079.6411,-442.5 988.6411,-442.5"/>
<text text-anchor="start" x="1014.3379" y="-447.7" font-family="Courier,monospace" font-size="11.00" fill="#000000">id(18)</text>
<polygon fill="none" stroke="#99ccff" points="303.6411,-425.5 303.6411,-442.5 988.6411,-442.5 988.6411,-425.5 303.6411,-425.5"/>
<text text-anchor="start" x="306.6411" y="-430.7" font-family="Courier,monospace" font-size="11.00" fill="#000000"> &#160;&#160;&#160;&#160;&#160;&#160;&#160;&#160;&#160;&#160;&#160;&#160;&#160;&#160;&#160;&#160;&#160;&#160;&#160;&#160;&#160;&#160;&#160;&#160;&#160;&#160;&#160;&#160;&#160;&#160;&#160;&#160;&#160;&#160;&#160;&#160;&#160;&#160;&#160;&#160;IsDeleted &#160;&#160;&#160;&#160;&#160;&#160;&#160;&#160;&#160;&#160;&#160;&#160;&#160;&#160;&#160;&#160;&#160;&#160;&#160;&#160;&#160;&#160;&#160;&#160;&#160;&#160;&#160;&#160;&#160;&#160;&#160;&#160;&#160;&#160;&#160;&#160;&#160;&#160;</text>
<polygon fill="none" stroke="#99ccff" points="988.6411,-425.5 988.6411,-442.5 1079.6411,-442.5 1079.6411,-425.5 988.6411,-425.5"/>
<text text-anchor="start" x="1011.0374" y="-430.7" font-family="Courier,monospace" font-size="11.00" fill="#000000">boolean</text>
<polygon fill="none" stroke="#99ccff" points="303.6411,-408.5 303.6411,-425.5 988.6411,-425.5 988.6411,-408.5 303.6411,-408.5"/>
<text text-anchor="start" x="306.6411" y="-413.7" font-family="Courier,monospace" font-size="11.00" fill="#000000"> &#160;&#160;&#160;&#160;&#160;&#160;&#160;&#160;&#160;&#160;&#160;&#160;&#160;&#160;&#160;&#160;&#160;&#160;&#160;&#160;&#160;&#160;&#160;&#160;&#160;&#160;&#160;&#160;&#160;&#160;&#160;&#160;&#160;&#160;&#160;&#160;&#160;&#160;&#160;&#160;Name &#160;&#160;&#160;&#160;&#160;&#160;&#160;&#160;&#160;&#160;&#160;&#160;&#160;&#160;&#160;&#160;&#160;&#160;&#160;&#160;&#160;&#160;&#160;&#160;&#160;&#160;&#160;&#160;&#160;&#160;&#160;&#160;&#160;&#160;&#160;&#160;&#160;&#160;</text>
<polygon fill="none" stroke="#99ccff" points="988.6411,-408.5 988.6411,-425.5 1079.6411,-425.5 1079.6411,-408.5 988.6411,-408.5"/>
<text text-anchor="start" x="997.8352" y="-413.7" font-family="Courier,monospace" font-size="11.00" fill="#000000">string(255)</text>
<polygon fill="none" stroke="#99ccff" points="303.6411,-391.5 303.6411,-408.5 988.6411,-408.5 988.6411,-391.5 303.6411,-391.5"/>
<text text-anchor="start" x="306.6411" y="-396.7" font-family="Courier,monospace" font-size="11.00" fill="#000000"> &#160;&#160;&#160;&#160;&#160;&#160;&#160;&#160;&#160;&#160;&#160;&#160;&#160;&#160;&#160;&#160;&#160;&#160;&#160;&#160;&#160;&#160;&#160;&#160;&#160;&#160;&#160;&#160;&#160;&#160;&#160;&#160;&#160;&#160;&#160;&#160;&#160;&#160;&#160;&#160;LastModifiedById &#160;&#160;&#160;&#160;&#160;&#160;&#160;&#160;&#160;&#160;&#160;&#160;&#160;&#160;&#160;&#160;&#160;&#160;&#160;&#160;&#160;&#160;&#160;&#160;&#160;&#160;&#160;&#160;&#160;&#160;&#160;&#160;&#160;&#160;&#160;&#160;&#160;&#160;</text>
<polygon fill="none" stroke="#99ccff" points="988.6411,-391.5 988.6411,-408.5 1079.6411,-408.5 1079.6411,-391.5 988.6411,-391.5"/>
<text text-anchor="start" x="991.2341" y="-396.7" font-family="Courier,monospace" font-size="11.00" fill="#000000">reference(18)</text>
<polygon fill="none" stroke="#99ccff" points="303.6411,-374.5 303.6411,-391.5 988.6411,-391.5 988.6411,-374.5 303.6411,-374.5"/>
<text text-anchor="start" x="306.6411" y="-379.7" font-family="Courier,monospace" font-size="11.00" fill="#000000"> &#160;&#160;&#160;&#160;&#160;&#160;&#160;&#160;&#160;&#160;&#160;&#160;&#160;&#160;&#160;&#160;&#160;&#160;&#160;&#160;&#160;&#160;&#160;&#160;&#160;&#160;&#160;&#160;&#160;&#160;&#160;&#160;&#160;&#160;&#160;&#160;&#160;&#160;&#160;&#160;LastViewedDate &#160;&#160;&#160;&#160;&#160;&#160;&#160;&#160;&#160;&#160;&#160;&#160;&#160;&#160;&#160;&#160;&#160;&#160;&#160;&#160;&#160;&#160;&#160;&#160;&#160;&#160;&#160;&#160;&#160;&#160;&#160;&#160;&#160;&#160;&#160;&#160;&#160;&#160;</text>
<polygon fill="none" stroke="#99ccff" points="988.6411,-374.5 988.6411,-391.5 1079.6411,-391.5 1079.6411,-374.5 988.6411,-374.5"/>
<text text-anchor="start" x="1007.7368" y="-379.7" font-family="Courier,monospace" font-size="11.00" fill="#000000">datetime</text>
<polygon fill="none" stroke="#99ccff" points="303.6411,-357.5 303.6411,-374.5 988.6411,-374.5 988.6411,-357.5 303.6411,-357.5"/>
<text text-anchor="start" x="306.6411" y="-362.7" font-family="Courier,monospace" font-size="11.00" fill="#000000"> &#160;&#160;&#160;&#160;&#160;&#160;&#160;&#160;&#160;&#160;&#160;&#160;&#160;&#160;&#160;&#160;&#160;&#160;&#160;&#160;&#160;&#160;&#160;&#160;&#160;&#160;&#160;&#160;&#160;&#160;&#160;&#160;&#160;&#160;&#160;&#160;&#160;&#160;&#160;&#160;LastReferencedDate &#160;&#160;&#160;&#160;&#160;&#160;&#160;&#160;&#160;&#160;&#160;&#160;&#160;&#160;&#160;&#160;&#160;&#160;&#160;&#160;&#160;&#160;&#160;&#160;&#160;&#160;&#160;&#160;&#160;&#160;&#160;&#160;&#160;&#160;&#160;&#160;&#160;&#160;</text>
<polygon fill="none" stroke="#99ccff" points="988.6411,-357.5 988.6411,-374.5 1079.6411,-374.5 1079.6411,-357.5 988.6411,-357.5"/>
<text text-anchor="start" x="1007.7368" y="-362.7" font-family="Courier,monospace" font-size="11.00" fill="#000000">datetime</text>
<polygon fill="none" stroke="#99ccff" points="303.6411,-340.5 303.6411,-357.5 988.6411,-357.5 988.6411,-340.5 303.6411,-340.5"/>
<text text-anchor="start" x="306.6411" y="-345.7" font-family="Courier,monospace" font-size="11.00" fill="#000000"> &#160;&#160;&#160;&#160;&#160;&#160;&#160;&#160;&#160;&#160;&#160;&#160;&#160;&#160;&#160;&#160;&#160;&#160;&#160;&#160;&#160;&#160;&#160;&#160;&#160;&#160;&#160;&#160;&#160;&#160;&#160;&#160;&#160;&#160;&#160;&#160;&#160;&#160;&#160;&#160;LoanApplicationId &#160;&#160;&#160;&#160;&#160;&#160;&#160;&#160;&#160;&#160;&#160;&#160;&#160;&#160;&#160;&#160;&#160;&#160;&#160;&#160;&#160;&#160;&#160;&#160;&#160;&#160;&#160;&#160;&#160;&#160;&#160;&#160;&#160;&#160;&#160;&#160;&#160;&#160;</text>
<polygon fill="none" stroke="#99ccff" points="988.6411,-340.5 988.6411,-357.5 1079.6411,-357.5 1079.6411,-340.5 988.6411,-340.5"/>
<text text-anchor="start" x="991.2341" y="-345.7" font-family="Courier,monospace" font-size="11.00" fill="#000000">reference(18)</text>
<polygon fill="none" stroke="#99ccff" points="303.6411,-323.5 303.6411,-340.5 988.6411,-340.5 988.6411,-323.5 303.6411,-323.5"/>
<text text-anchor="start" x="306.6411" y="-328.7" font-family="Courier,monospace" font-size="11.00" fill="#000000"> &#160;&#160;&#160;&#160;&#160;&#160;&#160;&#160;&#160;&#160;&#160;&#160;&#160;&#160;&#160;&#160;&#160;&#160;&#160;&#160;&#160;&#160;&#160;&#160;&#160;&#160;&#160;&#160;&#160;&#160;&#160;&#160;&#160;&#160;&#160;&#160;&#160;&#160;&#160;&#160;UnitsFinancedCount &#160;&#160;&#160;&#160;&#160;&#160;&#160;&#160;&#160;&#160;&#160;&#160;&#160;&#160;&#160;&#160;&#160;&#160;&#160;&#160;&#160;&#160;&#160;&#160;&#160;&#160;&#160;&#160;&#160;&#160;&#160;&#160;&#160;&#160;&#160;&#160;&#160;&#160;</text>
<polygon fill="none" stroke="#99ccff" points="988.6411,-323.5 988.6411,-340.5 1079.6411,-340.5 1079.6411,-323.5 988.6411,-323.5"/>
<text text-anchor="start" x="1024.2395" y="-328.7" font-family="Courier,monospace" font-size="11.00" fill="#000000">int</text>
<polygon fill="none" stroke="#99ccff" points="303.6411,-306.5 303.6411,-323.5 988.6411,-323.5 988.6411,-306.5 303.6411,-306.5"/>
<text text-anchor="start" x="306.6411" y="-311.7" font-family="Courier,monospace" font-size="11.00" fill="#000000"> &#160;&#160;&#160;&#160;&#160;&#160;&#160;&#160;&#160;&#160;&#160;&#160;&#160;&#160;&#160;&#160;&#160;&#160;&#160;&#160;&#160;&#160;&#160;&#160;&#160;&#160;&#160;&#160;&#160;&#160;&#160;&#160;&#160;&#160;&#160;&#160;&#160;&#160;&#160;&#160;LoanPurposeType &#160;&#160;&#160;&#160;&#160;&#160;&#160;&#160;&#160;&#160;&#160;&#160;&#160;&#160;&#160;&#160;&#160;&#160;&#160;&#160;&#160;&#160;&#160;&#160;&#160;&#160;&#160;&#160;&#160;&#160;&#160;&#160;&#160;&#160;&#160;&#160;&#160;&#160;</text>
<polygon fill="none" stroke="#99ccff" points="988.6411,-306.5 988.6411,-323.5 1079.6411,-323.5 1079.6411,-306.5 988.6411,-306.5"/>
<text text-anchor="start" x="991.2341" y="-311.7" font-family="Courier,monospace" font-size="11.00" fill="#000000">picklist(255)</text>
<polygon fill="none" stroke="#99ccff" points="303.6411,-289.5 303.6411,-306.5 988.6411,-306.5 988.6411,-289.5 303.6411,-289.5"/>
<text text-anchor="start" x="306.6411" y="-294.7" font-family="Courier,monospace" font-size="11.00" fill="#000000"> &#160;&#160;&#160;&#160;&#160;&#160;&#160;&#160;&#160;&#160;&#160;&#160;&#160;&#160;&#160;&#160;&#160;&#160;&#160;&#160;&#160;&#160;&#160;&#160;&#160;&#160;&#160;&#160;&#160;&#160;&#160;&#160;&#160;&#160;&#160;&#160;&#160;&#160;&#160;&#160;PropertyUseType &#160;&#160;&#160;&#160;&#160;&#160;&#160;&#160;&#160;&#160;&#160;&#160;&#160;&#160;&#160;&#160;&#160;&#160;&#160;&#160;&#160;&#160;&#160;&#160;&#160;&#160;&#160;&#160;&#160;&#160;&#160;&#160;&#160;&#160;&#160;&#160;&#160;&#160;</text>
<polygon fill="none" stroke="#99ccff" points="988.6411,-289.5 988.6411,-306.5 1079.6411,-306.5 1079.6411,-289.5 988.6411,-289.5"/>
<text text-anchor="start" x="994.5347" y="-294.7" font-family="Courier,monospace" font-size="11.00" fill="#000000">picklist(40)</text>
<polygon fill="none" stroke="#99ccff" points="303.6411,-272.5 303.6411,-289.5 988.6411,-289.5 988.6411,-272.5 303.6411,-272.5"/>
<text text-anchor="start" x="306.6411" y="-277.7" font-family="Courier,monospace" font-size="11.00" fill="#000000"> &#160;&#160;&#160;&#160;&#160;&#160;&#160;&#160;&#160;&#160;&#160;&#160;&#160;&#160;&#160;&#160;&#160;&#160;&#160;&#160;&#160;&#160;&#160;&#160;&#160;&#160;&#160;&#160;&#160;&#160;&#160;&#160;&#160;&#160;&#160;&#160;&#160;&#160;&#160;&#160;PropertyStreet &#160;&#160;&#160;&#160;&#160;&#160;&#160;&#160;&#160;&#160;&#160;&#160;&#160;&#160;&#160;&#160;&#160;&#160;&#160;&#160;&#160;&#160;&#160;&#160;&#160;&#160;&#160;&#160;&#160;&#160;&#160;&#160;&#160;&#160;&#160;&#160;&#160;&#160;</text>
<polygon fill="none" stroke="#99ccff" points="988.6411,-272.5 988.6411,-289.5 1079.6411,-289.5 1079.6411,-272.5 988.6411,-272.5"/>
<text text-anchor="start" x="991.2341" y="-277.7" font-family="Courier,monospace" font-size="11.00" fill="#000000">textarea(255)</text>
<polygon fill="none" stroke="#99ccff" points="303.6411,-255.5 303.6411,-272.5 988.6411,-272.5 988.6411,-255.5 303.6411,-255.5"/>
<text text-anchor="start" x="306.6411" y="-260.7" font-family="Courier,monospace" font-size="11.00" fill="#000000"> &#160;&#160;&#160;&#160;&#160;&#160;&#160;&#160;&#160;&#160;&#160;&#160;&#160;&#160;&#160;&#160;&#160;&#160;&#160;&#160;&#160;&#160;&#160;&#160;&#160;&#160;&#160;&#160;&#160;&#160;&#160;&#160;&#160;&#160;&#160;&#160;&#160;&#160;&#160;&#160;PropertyCity &#160;&#160;&#160;&#160;&#160;&#160;&#160;&#160;&#160;&#160;&#160;&#160;&#160;&#160;&#160;&#160;&#160;&#160;&#160;&#160;&#160;&#160;&#160;&#160;&#160;&#160;&#160;&#160;&#160;&#160;&#160;&#160;&#160;&#160;&#160;&#160;&#160;&#160;</text>
<polygon fill="none" stroke="#99ccff" points="988.6411,-255.5 988.6411,-272.5 1079.6411,-272.5 1079.6411,-255.5 988.6411,-255.5"/>
<text text-anchor="start" x="1001.1357" y="-260.7" font-family="Courier,monospace" font-size="11.00" fill="#000000">string(40)</text>
<polygon fill="none" stroke="#99ccff" points="303.6411,-238.5 303.6411,-255.5 988.6411,-255.5 988.6411,-238.5 303.6411,-238.5"/>
<text text-anchor="start" x="306.6411" y="-243.7" font-family="Courier,monospace" font-size="11.00" fill="#000000"> &#160;&#160;&#160;&#160;&#160;&#160;&#160;&#160;&#160;&#160;&#160;&#160;&#160;&#160;&#160;&#160;&#160;&#160;&#160;&#160;&#160;&#160;&#160;&#160;&#160;&#160;&#160;&#160;&#160;&#160;&#160;&#160;&#160;&#160;&#160;&#160;&#160;&#160;&#160;&#160;PropertyState &#160;&#160;&#160;&#160;&#160;&#160;&#160;&#160;&#160;&#160;&#160;&#160;&#160;&#160;&#160;&#160;&#160;&#160;&#160;&#160;&#160;&#160;&#160;&#160;&#160;&#160;&#160;&#160;&#160;&#160;&#160;&#160;&#160;&#160;&#160;&#160;&#160;&#160;</text>
<polygon fill="none" stroke="#99ccff" points="988.6411,-238.5 988.6411,-255.5 1079.6411,-255.5 1079.6411,-238.5 988.6411,-238.5"/>
<text text-anchor="start" x="1001.1357" y="-243.7" font-family="Courier,monospace" font-size="11.00" fill="#000000">string(80)</text>
<polygon fill="none" stroke="#99ccff" points="303.6411,-221.5 303.6411,-238.5 988.6411,-238.5 988.6411,-221.5 303.6411,-221.5"/>
<text text-anchor="start" x="306.6411" y="-226.7" font-family="Courier,monospace" font-size="11.00" fill="#000000"> &#160;&#160;&#160;&#160;&#160;&#160;&#160;&#160;&#160;&#160;&#160;&#160;&#160;&#160;&#160;&#160;&#160;&#160;&#160;&#160;&#160;&#160;&#160;&#160;&#160;&#160;&#160;&#160;&#160;&#160;&#160;&#160;&#160;&#160;&#160;&#160;&#160;&#160;&#160;&#160;PropertyPostalCode &#160;&#160;&#160;&#160;&#160;&#160;&#160;&#160;&#160;&#160;&#160;&#160;&#160;&#160;&#160;&#160;&#160;&#160;&#160;&#160;&#160;&#160;&#160;&#160;&#160;&#160;&#160;&#160;&#160;&#160;&#160;&#160;&#160;&#160;&#160;&#160;&#160;&#160;</text>
<polygon fill="none" stroke="#99ccff" points="988.6411,-221.5 988.6411,-238.5 1079.6411,-238.5 1079.6411,-221.5 988.6411,-221.5"/>
<text text-anchor="start" x="1001.1357" y="-226.7" font-family="Courier,monospace" font-size="11.00" fill="#000000">string(20)</text>
<polygon fill="none" stroke="#99ccff" points="303.6411,-204.5 303.6411,-221.5 988.6411,-221.5 988.6411,-204.5 303.6411,-204.5"/>
<text text-anchor="start" x="306.6411" y="-209.7" font-family="Courier,monospace" font-size="11.00" fill="#000000"> &#160;&#160;&#160;&#160;&#160;&#160;&#160;&#160;&#160;&#160;&#160;&#160;&#160;&#160;&#160;&#160;&#160;&#160;&#160;&#160;&#160;&#160;&#160;&#160;&#160;&#160;&#160;&#160;&#160;&#160;&#160;&#160;&#160;&#160;&#160;&#160;&#160;&#160;&#160;&#160;PropertyCountry &#160;&#160;&#160;&#160;&#160;&#160;&#160;&#160;&#160;&#160;&#160;&#160;&#160;&#160;&#160;&#160;&#160;&#160;&#160;&#160;&#160;&#160;&#160;&#160;&#160;&#160;&#160;&#160;&#160;&#160;&#160;&#160;&#160;&#160;&#160;&#160;&#160;&#160;</text>
<polygon fill="none" stroke="#99ccff" points="988.6411,-204.5 988.6411,-221.5 1079.6411,-221.5 1079.6411,-204.5 988.6411,-204.5"/>
<text text-anchor="start" x="1001.1357" y="-209.7" font-family="Courier,monospace" font-size="11.00" fill="#000000">string(80)</text>
<polygon fill="none" stroke="#99ccff" points="303.6411,-187.5 303.6411,-204.5 988.6411,-204.5 988.6411,-187.5 303.6411,-187.5"/>
<text text-anchor="start" x="306.6411" y="-192.7" font-family="Courier,monospace" font-size="11.00" fill="#000000"> &#160;&#160;&#160;&#160;&#160;&#160;&#160;&#160;&#160;&#160;&#160;&#160;&#160;&#160;&#160;&#160;&#160;&#160;&#160;&#160;&#160;&#160;&#160;&#160;&#160;&#160;&#160;&#160;&#160;&#160;&#160;&#160;&#160;&#160;&#160;&#160;&#160;&#160;&#160;&#160;PropertyLatitude &#160;&#160;&#160;&#160;&#160;&#160;&#160;&#160;&#160;&#160;&#160;&#160;&#160;&#160;&#160;&#160;&#160;&#160;&#160;&#160;&#160;&#160;&#160;&#160;&#160;&#160;&#160;&#160;&#160;&#160;&#160;&#160;&#160;&#160;&#160;&#160;&#160;&#160;</text>
<polygon fill="none" stroke="#99ccff" points="988.6411,-187.5 988.6411,-204.5 1079.6411,-204.5 1079.6411,-187.5 988.6411,-187.5"/>
<text text-anchor="start" x="1014.3379" y="-192.7" font-family="Courier,monospace" font-size="11.00" fill="#000000">double</text>
<polygon fill="none" stroke="#99ccff" points="303.6411,-170.5 303.6411,-187.5 988.6411,-187.5 988.6411,-170.5 303.6411,-170.5"/>
<text text-anchor="start" x="306.6411" y="-175.7" font-family="Courier,monospace" font-size="11.00" fill="#000000"> &#160;&#160;&#160;&#160;&#160;&#160;&#160;&#160;&#160;&#160;&#160;&#160;&#160;&#160;&#160;&#160;&#160;&#160;&#160;&#160;&#160;&#160;&#160;&#160;&#160;&#160;&#160;&#160;&#160;&#160;&#160;&#160;&#160;&#160;&#160;&#160;&#160;&#160;&#160;&#160;PropertyLongitude &#160;&#160;&#160;&#160;&#160;&#160;&#160;&#160;&#160;&#160;&#160;&#160;&#160;&#160;&#160;&#160;&#160;&#160;&#160;&#160;&#160;&#160;&#160;&#160;&#160;&#160;&#160;&#160;&#160;&#160;&#160;&#160;&#160;&#160;&#160;&#160;&#160;&#160;</text>
<polygon fill="none" stroke="#99ccff" points="988.6411,-170.5 988.6411,-187.5 1079.6411,-187.5 1079.6411,-170.5 988.6411,-170.5"/>
<text text-anchor="start" x="1014.3379" y="-175.7" font-family="Courier,monospace" font-size="11.00" fill="#000000">double</text>
<polygon fill="none" stroke="#99ccff" points="303.6411,-153.5 303.6411,-170.5 988.6411,-170.5 988.6411,-153.5 303.6411,-153.5"/>
<text text-anchor="start" x="306.1858" y="-158.7" font-family="Courier,monospace" font-size="11.00" fill="#000000"> &#160;&#160;&#160;&#160;&#160;&#160;&#160;&#160;&#160;&#160;&#160;&#160;&#160;&#160;&#160;&#160;&#160;&#160;&#160;&#160;&#160;&#160;&#160;&#160;&#160;&#160;&#160;&#160;&#160;&#160;&#160;&#160;&#160;&#160;&#160;&#160;&#160;&#160;&#160;&#160;PropertyGeocodeAccuracy &#160;&#160;&#160;&#160;&#160;&#160;&#160;&#160;&#160;&#160;&#160;&#160;&#160;&#160;&#160;&#160;&#160;&#160;&#160;&#160;&#160;&#160;&#160;&#160;&#160;&#160;&#160;&#160;&#160;&#160;&#160;&#160;&#160;&#160;&#160;&#160;&#160;&#160;</text>
<polygon fill="none" stroke="#99ccff" points="988.6411,-153.5 988.6411,-170.5 1079.6411,-170.5 1079.6411,-153.5 988.6411,-153.5"/>
<text text-anchor="start" x="991.2341" y="-158.7" font-family="Courier,monospace" font-size="11.00" fill="#000000">picklist(255)</text>
<polygon fill="none" stroke="#99ccff" points="303.6411,-136.5 303.6411,-153.5 988.6411,-153.5 988.6411,-136.5 303.6411,-136.5"/>
<text text-anchor="start" x="306.6411" y="-141.7" font-family="Courier,monospace" font-size="11.00" fill="#000000"> &#160;&#160;&#160;&#160;&#160;&#160;&#160;&#160;&#160;&#160;&#160;&#160;&#160;&#160;&#160;&#160;&#160;&#160;&#160;&#160;&#160;&#160;&#160;&#160;&#160;&#160;&#160;&#160;&#160;&#160;&#160;&#160;&#160;&#160;&#160;&#160;&#160;&#160;&#160;&#160;PropertyAddress &#160;&#160;&#160;&#160;&#160;&#160;&#160;&#160;&#160;&#160;&#160;&#160;&#160;&#160;&#160;&#160;&#160;&#160;&#160;&#160;&#160;&#160;&#160;&#160;&#160;&#160;&#160;&#160;&#160;&#160;&#160;&#160;&#160;&#160;&#160;&#160;&#160;&#160;</text>
<polygon fill="none" stroke="#99ccff" points="988.6411,-136.5 988.6411,-153.5 1079.6411,-153.5 1079.6411,-136.5 988.6411,-136.5"/>
<text text-anchor="start" x="1011.0374" y="-141.7" font-family="Courier,monospace" font-size="11.00" fill="#000000">address</text>
<polygon fill="none" stroke="#99ccff" points="303.6411,-119.5 303.6411,-136.5 988.6411,-136.5 988.6411,-119.5 303.6411,-119.5"/>
<text text-anchor="start" x="306.6411" y="-124.7" font-family="Courier,monospace" font-size="11.00" fill="#000000"> &#160;&#160;&#160;&#160;&#160;&#160;&#160;&#160;&#160;&#160;&#160;&#160;&#160;&#160;&#160;&#160;&#160;&#160;&#160;&#160;&#160;&#160;&#160;&#160;&#160;&#160;&#160;&#160;&#160;&#160;&#160;&#160;&#160;&#160;&#160;&#160;&#160;&#160;&#160;&#160;RequestedLoanAmount &#160;&#160;&#160;&#160;&#160;&#160;&#160;&#160;&#160;&#160;&#160;&#160;&#160;&#160;&#160;&#160;&#160;&#160;&#160;&#160;&#160;&#160;&#160;&#160;&#160;&#160;&#160;&#160;&#160;&#160;&#160;&#160;&#160;&#160;&#160;&#160;&#160;&#160;</text>
<polygon fill="none" stroke="#99ccff" points="988.6411,-119.5 988.6411,-136.5 1079.6411,-136.5 1079.6411,-119.5 988.6411,-119.5"/>
<text text-anchor="start" x="1007.7368" y="-124.7" font-family="Courier,monospace" font-size="11.00" fill="#000000">currency</text>
<polygon fill="none" stroke="#99ccff" points="303.6411,-102.5 303.6411,-119.5 988.6411,-119.5 988.6411,-102.5 303.6411,-102.5"/>
<text text-anchor="start" x="306.6411" y="-107.7" font-family="Courier,monospace" font-size="11.00" fill="#000000"> &#160;&#160;&#160;&#160;&#160;&#160;&#160;&#160;&#160;&#160;&#160;&#160;&#160;&#160;&#160;&#160;&#160;&#160;&#160;&#160;&#160;&#160;&#160;&#160;&#160;&#160;&#160;&#160;&#160;&#160;&#160;&#160;&#160;&#160;&#160;&#160;&#160;&#160;&#160;&#160;PropertyValue &#160;&#160;&#160;&#160;&#160;&#160;&#160;&#160;&#160;&#160;&#160;&#160;&#160;&#160;&#160;&#160;&#160;&#160;&#160;&#160;&#160;&#160;&#160;&#160;&#160;&#160;&#160;&#160;&#160;&#160;&#160;&#160;&#160;&#160;&#160;&#160;&#160;&#160;</text>
<polygon fill="none" stroke="#99ccff" points="988.6411,-102.5 988.6411,-119.5 1079.6411,-119.5 1079.6411,-102.5 988.6411,-102.5"/>
<text text-anchor="start" x="1007.7368" y="-107.7" font-family="Courier,monospace" font-size="11.00" fill="#000000">currency</text>
<polygon fill="none" stroke="#99ccff" points="303.6411,-85.5 303.6411,-102.5 988.6411,-102.5 988.6411,-85.5 303.6411,-85.5"/>
<text text-anchor="start" x="306.6411" y="-90.7" font-family="Courier,monospace" font-size="11.00" fill="#000000"> &#160;&#160;&#160;&#160;&#160;&#160;&#160;&#160;&#160;&#160;&#160;&#160;&#160;&#160;&#160;&#160;&#160;&#160;&#160;&#160;&#160;&#160;&#160;&#160;&#160;&#160;&#160;&#160;&#160;&#160;&#160;&#160;&#160;&#160;&#160;&#160;&#160;&#160;&#160;&#160;IsMixedUseProperty &#160;&#160;&#160;&#160;&#160;&#160;&#160;&#160;&#160;&#160;&#160;&#160;&#160;&#160;&#160;&#160;&#160;&#160;&#160;&#160;&#160;&#160;&#160;&#160;&#160;&#160;&#160;&#160;&#160;&#160;&#160;&#160;&#160;&#160;&#160;&#160;&#160;&#160;</text>
<polygon fill="none" stroke="#99ccff" points="988.6411,-85.5 988.6411,-102.5 1079.6411,-102.5 1079.6411,-85.5 988.6411,-85.5"/>
<text text-anchor="start" x="1011.0374" y="-90.7" font-family="Courier,monospace" font-size="11.00" fill="#000000">boolean</text>
<polygon fill="none" stroke="#99ccff" points="303.6411,-68.5 303.6411,-85.5 988.6411,-85.5 988.6411,-68.5 303.6411,-68.5"/>
<text text-anchor="start" x="306.6411" y="-73.7" font-family="Courier,monospace" font-size="11.00" fill="#000000"> &#160;&#160;&#160;&#160;&#160;&#160;&#160;&#160;&#160;&#160;&#160;&#160;&#160;&#160;&#160;&#160;&#160;&#160;&#160;&#160;&#160;&#160;&#160;&#160;&#160;&#160;&#160;&#160;&#160;&#160;&#160;&#160;&#160;&#160;&#160;&#160;&#160;&#160;&#160;&#160;IsManufacturedHome &#160;&#160;&#160;&#160;&#160;&#160;&#160;&#160;&#160;&#160;&#160;&#160;&#160;&#160;&#160;&#160;&#160;&#160;&#160;&#160;&#160;&#160;&#160;&#160;&#160;&#160;&#160;&#160;&#160;&#160;&#160;&#160;&#160;&#160;&#160;&#160;&#160;&#160;</text>
<polygon fill="none" stroke="#99ccff" points="988.6411,-68.5 988.6411,-85.5 1079.6411,-85.5 1079.6411,-68.5 988.6411,-68.5"/>
<text text-anchor="start" x="1011.0374" y="-73.7" font-family="Courier,monospace" font-size="11.00" fill="#000000">boolean</text>
<polygon fill="none" stroke="#99ccff" points="303.6411,-51.5 303.6411,-68.5 988.6411,-68.5 988.6411,-51.5 303.6411,-51.5"/>
<text text-anchor="start" x="306.6411" y="-56.7" font-family="Courier,monospace" font-size="11.00" fill="#000000"> &#160;&#160;&#160;&#160;&#160;&#160;&#160;&#160;&#160;&#160;&#160;&#160;&#160;&#160;&#160;&#160;&#160;&#160;&#160;&#160;&#160;&#160;&#160;&#160;&#160;&#160;&#160;&#160;&#160;&#160;&#160;&#160;&#160;&#160;&#160;&#160;&#160;&#160;&#160;&#160;ExpMonthlyRentalIncome &#160;&#160;&#160;&#160;&#160;&#160;&#160;&#160;&#160;&#160;&#160;&#160;&#160;&#160;&#160;&#160;&#160;&#160;&#160;&#160;&#160;&#160;&#160;&#160;&#160;&#160;&#160;&#160;&#160;&#160;&#160;&#160;&#160;&#160;&#160;&#160;&#160;&#160;</text>
<polygon fill="none" stroke="#99ccff" points="988.6411,-51.5 988.6411,-68.5 1079.6411,-68.5 1079.6411,-51.5 988.6411,-51.5"/>
<text text-anchor="start" x="1007.7368" y="-56.7" font-family="Courier,monospace" font-size="11.00" fill="#000000">currency</text>
<polygon fill="none" stroke="#99ccff" points="303.6411,-34.5 303.6411,-51.5 988.6411,-51.5 988.6411,-34.5 303.6411,-34.5"/>
<text text-anchor="start" x="306.6411" y="-39.7" font-family="Courier,monospace" font-size="11.00" fill="#000000"> &#160;&#160;&#160;&#160;&#160;&#160;&#160;&#160;&#160;&#160;&#160;&#160;&#160;&#160;&#160;&#160;&#160;&#160;&#160;&#160;&#160;&#160;&#160;&#160;&#160;&#160;&#160;&#160;&#160;&#160;&#160;&#160;&#160;&#160;&#160;&#160;&#160;&#160;&#160;&#160;ExpNetMonthlyRentalInc &#160;&#160;&#160;&#160;&#160;&#160;&#160;&#160;&#160;&#160;&#160;&#160;&#160;&#160;&#160;&#160;&#160;&#160;&#160;&#160;&#160;&#160;&#160;&#160;&#160;&#160;&#160;&#160;&#160;&#160;&#160;&#160;&#160;&#160;&#160;&#160;&#160;&#160;</text>
<polygon fill="none" stroke="#99ccff" points="988.6411,-34.5 988.6411,-51.5 1079.6411,-51.5 1079.6411,-34.5 988.6411,-34.5"/>
<text text-anchor="start" x="1007.7368" y="-39.7" font-family="Courier,monospace" font-size="11.00" fill="#000000">currency</text>
<polygon fill="none" stroke="#99ccff" points="303.6411,-17.5 303.6411,-34.5 988.6411,-34.5 988.6411,-17.5 303.6411,-17.5"/>
<text text-anchor="start" x="306.6411" y="-22.7" font-family="Courier,monospace" font-size="11.00" fill="#000000"> &#160;&#160;&#160;&#160;&#160;&#160;&#160;&#160;&#160;&#160;&#160;&#160;&#160;&#160;&#160;&#160;&#160;&#160;&#160;&#160;&#160;&#160;&#160;&#160;&#160;&#160;&#160;&#160;&#160;&#160;&#160;&#160;&#160;&#160;&#160;&#160;&#160;&#160;&#160;&#160;PropertyExtIdentifier &#160;&#160;&#160;&#160;&#160;&#160;&#160;&#160;&#160;&#160;&#160;&#160;&#160;&#160;&#160;&#160;&#160;&#160;&#160;&#160;&#160;&#160;&#160;&#160;&#160;&#160;&#160;&#160;&#160;&#160;&#160;&#160;&#160;&#160;&#160;&#160;&#160;&#160;</text>
<polygon fill="none" stroke="#99ccff" points="988.6411,-17.5 988.6411,-34.5 1079.6411,-34.5 1079.6411,-17.5 988.6411,-17.5"/>
<text text-anchor="start" x="997.8352" y="-22.7" font-family="Courier,monospace" font-size="11.00" fill="#000000">string(255)</text>
<polygon fill="none" stroke="#99ccff" points="302.6411,-17 302.6411,-478 1080.6411,-478 1080.6411,-17 302.6411,-17"/>
</a>
</g>
</g>
<!-- User -->
<g id="node2" class="node">
<title>User</title>
<text text-anchor="middle" x="93.814" y="-397.2" font-family="Courier,monospace" font-size="11.00" fill="#000000">User</text>
</g>
<!-- LoanApplicationProperty&#45;&gt;User -->
<g id="edge1" class="edge">
<title>LoanApplicationProperty:w&#45;&gt;User:e</title>
<path fill="none" stroke="#ff99cc" d="M288.8707,-400.5C226.8304,-400.5 158.0044,-400.5 120.9757,-400.5"/>
<polygon fill="#ff99cc" stroke="#ff99cc" points="295.6411,-400.5001 303.6411,-404.1 299.6411,-400.5 303.6411,-400.5 303.6411,-400.5 303.6411,-400.5 299.6411,-400.5 303.6411,-396.9 295.6411,-400.5001 295.6411,-400.5001"/>
<ellipse fill="none" stroke="#ff99cc" cx="292.4411" cy="-400.5001" rx="3.2" ry="3.2"/>
<text text-anchor="middle" x="245.1345" y="-405.3015" font-family="Monaco" font-size="9.00" fill="#000000">LastModifiedBy</text>
</g>
<!-- ResidentialLoanApplication -->
<g id="node3" class="node">
<title>ResidentialLoanApplication</title>
<text text-anchor="middle" x="93.814" y="-346.2" font-family="Courier,monospace" font-size="11.00" fill="#000000">ResidentialLoanApplication</text>
</g>
<!-- LoanApplicationProperty&#45;&gt;ResidentialLoanApplication -->
<g id="edge2" class="edge">
<title>LoanApplicationProperty:w&#45;&gt;ResidentialLoanApplication:e</title>
<path fill="none" stroke="#ff99cc" d="M289.2371,-349.5C255.2911,-349.5 219.289,-349.5 187.5594,-349.5"/>
<polygon fill="#ff99cc" stroke="#ff99cc" points="295.6411,-349.5001 303.6411,-353.1 299.6411,-349.5 303.6411,-349.5 303.6411,-349.5 303.6411,-349.5 299.6411,-349.5 303.6411,-345.9 295.6411,-349.5001 295.6411,-349.5001"/>
<ellipse fill="none" stroke="#ff99cc" cx="292.4411" cy="-349.5001" rx="3.2" ry="3.2"/>
<text text-anchor="middle" x="245.1345" y="-354.3015" font-family="Monaco" font-size="9.00" fill="#000000">LoanApplication</text>
</g>
</g>
</svg>
