<?xml version="1.0" encoding="UTF-8" standalone="no"?>
<!DOCTYPE svg PUBLIC "-//W3C//DTD SVG 1.1//EN"
 "http://www.w3.org/Graphics/SVG/1.1/DTD/svg11.dtd">
<!-- Generated by graphviz version 2.40.1 (20161225.0304)
 -->
<!-- Title: Salesforce+ ERD Pages: 1 -->
<svg width="1156pt" height="622pt"
 viewBox="0.00 0.00 1155.64 622.00" xmlns="http://www.w3.org/2000/svg" xmlns:xlink="http://www.w3.org/1999/xlink">
<g id="graph0" class="graph" transform="scale(1 1) rotate(0) translate(4 618)">
<title>Salesforce+ ERD</title>
<polygon fill="#efeffd" stroke="transparent" points="-4,4 -4,-618 1151.6411,-618 1151.6411,4 -4,4"/>
<text text-anchor="middle" x="1099.1345" y="-5.8" font-family="Courier,monospace" font-size="9.00" fill="#000000">Salesforce ERD </text>
<!-- LoanApplicant -->
<g id="node1" class="node">
<title>LoanApplicant</title>
<g id="a_node1"><a xlink:href="#" xlink:title=" LoanApplicant ">
<polygon fill="#ffeeff" stroke="transparent" points="302.6411,-17 302.6411,-614 1147.6411,-614 1147.6411,-17 302.6411,-17"/>
<polygon fill="#add8e6" stroke="transparent" points="304.1411,-595.5 304.1411,-612.5 1147.1411,-612.5 1147.1411,-595.5 304.1411,-595.5"/>
<polygon fill="none" stroke="#99ccff" points="304.1411,-595.5 304.1411,-612.5 1147.1411,-612.5 1147.1411,-595.5 304.1411,-595.5"/>
<text text-anchor="start" x="682.7341" y="-601.7" font-family="Courier,monospace" font-weight="bold" font-size="11.00" fill="#000000">LoanApplicant</text>
<polygon fill="#99ccff" stroke="transparent" points="304.1411,-578.5 304.1411,-595.5 1016.1411,-595.5 1016.1411,-578.5 304.1411,-578.5"/>
<polygon fill="none" stroke="#99ccff" points="304.1411,-578.5 304.1411,-595.5 1016.1411,-595.5 1016.1411,-578.5 304.1411,-578.5"/>
<text text-anchor="start" x="307.1411" y="-584.7" font-family="Courier,monospace" font-size="11.00" fill="#000000"> &#160;&#160;&#160;&#160;&#160;&#160;&#160;&#160;&#160;&#160;&#160;&#160;&#160;&#160;&#160;&#160;&#160;&#160;&#160;&#160;&#160;&#160;&#160;&#160;&#160;&#160;&#160;&#160;&#160;&#160;&#160;&#160;&#160;&#160;&#160;&#160;&#160;&#160;&#160;&#160;&#160;&#160;</text>
<text text-anchor="start" x="590.9873" y="-584.7" font-family="Courier,monospace" font-weight="bold" font-size="11.00" fill="#000000">Id</text>
<text text-anchor="start" x="604.1895" y="-584.7" font-family="Courier,monospace" font-size="11.00" fill="#000000"> &#160;&#160;&#160;&#160;&#160;&#160;&#160;&#160;&#160;&#160;&#160;&#160;&#160;&#160;&#160;&#160;&#160;&#160;&#160;&#160;&#160;&#160;&#160;&#160;&#160;&#160;&#160;&#160;&#160;&#160;&#160;&#160;&#160;&#160;&#160;&#160;&#160;&#160;&#160;</text>
<polygon fill="none" stroke="#99ccff" points="1016.1411,-578.5 1016.1411,-595.5 1147.1411,-595.5 1147.1411,-578.5 1016.1411,-578.5"/>
<text text-anchor="start" x="1061.8379" y="-583.7" font-family="Courier,monospace" font-size="11.00" fill="#000000">id(18)</text>
<polygon fill="none" stroke="#99ccff" points="304.1411,-561.5 304.1411,-578.5 1016.1411,-578.5 1016.1411,-561.5 304.1411,-561.5"/>
<text text-anchor="start" x="307.1411" y="-566.7" font-family="Courier,monospace" font-size="11.00" fill="#000000"> &#160;&#160;&#160;&#160;&#160;&#160;&#160;&#160;&#160;&#160;&#160;&#160;&#160;&#160;&#160;&#160;&#160;&#160;&#160;&#160;&#160;&#160;&#160;&#160;&#160;&#160;&#160;&#160;&#160;&#160;&#160;&#160;&#160;&#160;&#160;&#160;&#160;&#160;&#160;&#160;OwnerId &#160;&#160;&#160;&#160;&#160;&#160;&#160;&#160;&#160;&#160;&#160;&#160;&#160;&#160;&#160;&#160;&#160;&#160;&#160;&#160;&#160;&#160;&#160;&#160;&#160;&#160;&#160;&#160;&#160;&#160;&#160;&#160;&#160;&#160;&#160;&#160;&#160;&#160;</text>
<polygon fill="none" stroke="#99ccff" points="1016.1411,-561.5 1016.1411,-578.5 1147.1411,-578.5 1147.1411,-561.5 1016.1411,-561.5"/>
<text text-anchor="start" x="1038.7341" y="-566.7" font-family="Courier,monospace" font-size="11.00" fill="#000000">reference(18)</text>
<polygon fill="none" stroke="#99ccff" points="304.1411,-544.5 304.1411,-561.5 1016.1411,-561.5 1016.1411,-544.5 304.1411,-544.5"/>
<text text-anchor="start" x="307.1411" y="-549.7" font-family="Courier,monospace" font-size="11.00" fill="#000000"> &#160;&#160;&#160;&#160;&#160;&#160;&#160;&#160;&#160;&#160;&#160;&#160;&#160;&#160;&#160;&#160;&#160;&#160;&#160;&#160;&#160;&#160;&#160;&#160;&#160;&#160;&#160;&#160;&#160;&#160;&#160;&#160;&#160;&#160;&#160;&#160;&#160;&#160;&#160;&#160;IsDeleted &#160;&#160;&#160;&#160;&#160;&#160;&#160;&#160;&#160;&#160;&#160;&#160;&#160;&#160;&#160;&#160;&#160;&#160;&#160;&#160;&#160;&#160;&#160;&#160;&#160;&#160;&#160;&#160;&#160;&#160;&#160;&#160;&#160;&#160;&#160;&#160;&#160;&#160;</text>
<polygon fill="none" stroke="#99ccff" points="1016.1411,-544.5 1016.1411,-561.5 1147.1411,-561.5 1147.1411,-544.5 1016.1411,-544.5"/>
<text text-anchor="start" x="1058.5374" y="-549.7" font-family="Courier,monospace" font-size="11.00" fill="#000000">boolean</text>
<polygon fill="none" stroke="#99ccff" points="304.1411,-527.5 304.1411,-544.5 1016.1411,-544.5 1016.1411,-527.5 304.1411,-527.5"/>
<text text-anchor="start" x="307.1411" y="-532.7" font-family="Courier,monospace" font-size="11.00" fill="#000000"> &#160;&#160;&#160;&#160;&#160;&#160;&#160;&#160;&#160;&#160;&#160;&#160;&#160;&#160;&#160;&#160;&#160;&#160;&#160;&#160;&#160;&#160;&#160;&#160;&#160;&#160;&#160;&#160;&#160;&#160;&#160;&#160;&#160;&#160;&#160;&#160;&#160;&#160;&#160;&#160;Name &#160;&#160;&#160;&#160;&#160;&#160;&#160;&#160;&#160;&#160;&#160;&#160;&#160;&#160;&#160;&#160;&#160;&#160;&#160;&#160;&#160;&#160;&#160;&#160;&#160;&#160;&#160;&#160;&#160;&#160;&#160;&#160;&#160;&#160;&#160;&#160;&#160;&#160;</text>
<polygon fill="none" stroke="#99ccff" points="1016.1411,-527.5 1016.1411,-544.5 1147.1411,-544.5 1147.1411,-527.5 1016.1411,-527.5"/>
<text text-anchor="start" x="1045.3352" y="-532.7" font-family="Courier,monospace" font-size="11.00" fill="#000000">string(255)</text>
<polygon fill="none" stroke="#99ccff" points="304.1411,-510.5 304.1411,-527.5 1016.1411,-527.5 1016.1411,-510.5 304.1411,-510.5"/>
<text text-anchor="start" x="307.1411" y="-515.7" font-family="Courier,monospace" font-size="11.00" fill="#000000"> &#160;&#160;&#160;&#160;&#160;&#160;&#160;&#160;&#160;&#160;&#160;&#160;&#160;&#160;&#160;&#160;&#160;&#160;&#160;&#160;&#160;&#160;&#160;&#160;&#160;&#160;&#160;&#160;&#160;&#160;&#160;&#160;&#160;&#160;&#160;&#160;&#160;&#160;&#160;&#160;LastModifiedById &#160;&#160;&#160;&#160;&#160;&#160;&#160;&#160;&#160;&#160;&#160;&#160;&#160;&#160;&#160;&#160;&#160;&#160;&#160;&#160;&#160;&#160;&#160;&#160;&#160;&#160;&#160;&#160;&#160;&#160;&#160;&#160;&#160;&#160;&#160;&#160;&#160;&#160;</text>
<polygon fill="none" stroke="#99ccff" points="1016.1411,-510.5 1016.1411,-527.5 1147.1411,-527.5 1147.1411,-510.5 1016.1411,-510.5"/>
<text text-anchor="start" x="1038.7341" y="-515.7" font-family="Courier,monospace" font-size="11.00" fill="#000000">reference(18)</text>
<polygon fill="none" stroke="#99ccff" points="304.1411,-493.5 304.1411,-510.5 1016.1411,-510.5 1016.1411,-493.5 304.1411,-493.5"/>
<text text-anchor="start" x="307.1411" y="-498.7" font-family="Courier,monospace" font-size="11.00" fill="#000000"> &#160;&#160;&#160;&#160;&#160;&#160;&#160;&#160;&#160;&#160;&#160;&#160;&#160;&#160;&#160;&#160;&#160;&#160;&#160;&#160;&#160;&#160;&#160;&#160;&#160;&#160;&#160;&#160;&#160;&#160;&#160;&#160;&#160;&#160;&#160;&#160;&#160;&#160;&#160;&#160;LastViewedDate &#160;&#160;&#160;&#160;&#160;&#160;&#160;&#160;&#160;&#160;&#160;&#160;&#160;&#160;&#160;&#160;&#160;&#160;&#160;&#160;&#160;&#160;&#160;&#160;&#160;&#160;&#160;&#160;&#160;&#160;&#160;&#160;&#160;&#160;&#160;&#160;&#160;&#160;</text>
<polygon fill="none" stroke="#99ccff" points="1016.1411,-493.5 1016.1411,-510.5 1147.1411,-510.5 1147.1411,-493.5 1016.1411,-493.5"/>
<text text-anchor="start" x="1055.2368" y="-498.7" font-family="Courier,monospace" font-size="11.00" fill="#000000">datetime</text>
<polygon fill="none" stroke="#99ccff" points="304.1411,-476.5 304.1411,-493.5 1016.1411,-493.5 1016.1411,-476.5 304.1411,-476.5"/>
<text text-anchor="start" x="307.1411" y="-481.7" font-family="Courier,monospace" font-size="11.00" fill="#000000"> &#160;&#160;&#160;&#160;&#160;&#160;&#160;&#160;&#160;&#160;&#160;&#160;&#160;&#160;&#160;&#160;&#160;&#160;&#160;&#160;&#160;&#160;&#160;&#160;&#160;&#160;&#160;&#160;&#160;&#160;&#160;&#160;&#160;&#160;&#160;&#160;&#160;&#160;&#160;&#160;LastReferencedDate &#160;&#160;&#160;&#160;&#160;&#160;&#160;&#160;&#160;&#160;&#160;&#160;&#160;&#160;&#160;&#160;&#160;&#160;&#160;&#160;&#160;&#160;&#160;&#160;&#160;&#160;&#160;&#160;&#160;&#160;&#160;&#160;&#160;&#160;&#160;&#160;&#160;&#160;</text>
<polygon fill="none" stroke="#99ccff" points="1016.1411,-476.5 1016.1411,-493.5 1147.1411,-493.5 1147.1411,-476.5 1016.1411,-476.5"/>
<text text-anchor="start" x="1055.2368" y="-481.7" font-family="Courier,monospace" font-size="11.00" fill="#000000">datetime</text>
<polygon fill="none" stroke="#99ccff" points="304.1411,-459.5 304.1411,-476.5 1016.1411,-476.5 1016.1411,-459.5 304.1411,-459.5"/>
<text text-anchor="start" x="307.1411" y="-464.7" font-family="Courier,monospace" font-size="11.00" fill="#000000"> &#160;&#160;&#160;&#160;&#160;&#160;&#160;&#160;&#160;&#160;&#160;&#160;&#160;&#160;&#160;&#160;&#160;&#160;&#160;&#160;&#160;&#160;&#160;&#160;&#160;&#160;&#160;&#160;&#160;&#160;&#160;&#160;&#160;&#160;&#160;&#160;&#160;&#160;&#160;&#160;LoanApplicationId &#160;&#160;&#160;&#160;&#160;&#160;&#160;&#160;&#160;&#160;&#160;&#160;&#160;&#160;&#160;&#160;&#160;&#160;&#160;&#160;&#160;&#160;&#160;&#160;&#160;&#160;&#160;&#160;&#160;&#160;&#160;&#160;&#160;&#160;&#160;&#160;&#160;&#160;</text>
<polygon fill="none" stroke="#99ccff" points="1016.1411,-459.5 1016.1411,-476.5 1147.1411,-476.5 1147.1411,-459.5 1016.1411,-459.5"/>
<text text-anchor="start" x="1038.7341" y="-464.7" font-family="Courier,monospace" font-size="11.00" fill="#000000">reference(18)</text>
<polygon fill="none" stroke="#99ccff" points="304.1411,-442.5 304.1411,-459.5 1016.1411,-459.5 1016.1411,-442.5 304.1411,-442.5"/>
<text text-anchor="start" x="307.1411" y="-447.7" font-family="Courier,monospace" font-size="11.00" fill="#000000"> &#160;&#160;&#160;&#160;&#160;&#160;&#160;&#160;&#160;&#160;&#160;&#160;&#160;&#160;&#160;&#160;&#160;&#160;&#160;&#160;&#160;&#160;&#160;&#160;&#160;&#160;&#160;&#160;&#160;&#160;&#160;&#160;&#160;&#160;&#160;&#160;&#160;&#160;&#160;&#160;ContactId &#160;&#160;&#160;&#160;&#160;&#160;&#160;&#160;&#160;&#160;&#160;&#160;&#160;&#160;&#160;&#160;&#160;&#160;&#160;&#160;&#160;&#160;&#160;&#160;&#160;&#160;&#160;&#160;&#160;&#160;&#160;&#160;&#160;&#160;&#160;&#160;&#160;&#160;</text>
<polygon fill="none" stroke="#99ccff" points="1016.1411,-442.5 1016.1411,-459.5 1147.1411,-459.5 1147.1411,-442.5 1016.1411,-442.5"/>
<text text-anchor="start" x="1038.7341" y="-447.7" font-family="Courier,monospace" font-size="11.00" fill="#000000">reference(18)</text>
<polygon fill="none" stroke="#99ccff" points="304.1411,-425.5 304.1411,-442.5 1016.1411,-442.5 1016.1411,-425.5 304.1411,-425.5"/>
<text text-anchor="start" x="307.1411" y="-430.7" font-family="Courier,monospace" font-size="11.00" fill="#000000"> &#160;&#160;&#160;&#160;&#160;&#160;&#160;&#160;&#160;&#160;&#160;&#160;&#160;&#160;&#160;&#160;&#160;&#160;&#160;&#160;&#160;&#160;&#160;&#160;&#160;&#160;&#160;&#160;&#160;&#160;&#160;&#160;&#160;&#160;&#160;&#160;&#160;&#160;&#160;&#160;BorrowerType &#160;&#160;&#160;&#160;&#160;&#160;&#160;&#160;&#160;&#160;&#160;&#160;&#160;&#160;&#160;&#160;&#160;&#160;&#160;&#160;&#160;&#160;&#160;&#160;&#160;&#160;&#160;&#160;&#160;&#160;&#160;&#160;&#160;&#160;&#160;&#160;&#160;&#160;</text>
<polygon fill="none" stroke="#99ccff" points="1016.1411,-425.5 1016.1411,-442.5 1147.1411,-442.5 1147.1411,-425.5 1016.1411,-425.5"/>
<text text-anchor="start" x="1038.7341" y="-430.7" font-family="Courier,monospace" font-size="11.00" fill="#000000">picklist(255)</text>
<polygon fill="none" stroke="#99ccff" points="304.1411,-408.5 304.1411,-425.5 1016.1411,-425.5 1016.1411,-408.5 304.1411,-408.5"/>
<text text-anchor="start" x="307.1411" y="-413.7" font-family="Courier,monospace" font-size="11.00" fill="#000000"> &#160;&#160;&#160;&#160;&#160;&#160;&#160;&#160;&#160;&#160;&#160;&#160;&#160;&#160;&#160;&#160;&#160;&#160;&#160;&#160;&#160;&#160;&#160;&#160;&#160;&#160;&#160;&#160;&#160;&#160;&#160;&#160;&#160;&#160;&#160;&#160;&#160;&#160;&#160;&#160;CitizenshipStatus &#160;&#160;&#160;&#160;&#160;&#160;&#160;&#160;&#160;&#160;&#160;&#160;&#160;&#160;&#160;&#160;&#160;&#160;&#160;&#160;&#160;&#160;&#160;&#160;&#160;&#160;&#160;&#160;&#160;&#160;&#160;&#160;&#160;&#160;&#160;&#160;&#160;&#160;</text>
<polygon fill="none" stroke="#99ccff" points="1016.1411,-408.5 1016.1411,-425.5 1147.1411,-425.5 1147.1411,-408.5 1016.1411,-408.5"/>
<text text-anchor="start" x="1042.0347" y="-413.7" font-family="Courier,monospace" font-size="11.00" fill="#000000">picklist(40)</text>
<polygon fill="none" stroke="#99ccff" points="304.1411,-391.5 304.1411,-408.5 1016.1411,-408.5 1016.1411,-391.5 304.1411,-391.5"/>
<text text-anchor="start" x="307.1411" y="-396.7" font-family="Courier,monospace" font-size="11.00" fill="#000000"> &#160;&#160;&#160;&#160;&#160;&#160;&#160;&#160;&#160;&#160;&#160;&#160;&#160;&#160;&#160;&#160;&#160;&#160;&#160;&#160;&#160;&#160;&#160;&#160;&#160;&#160;&#160;&#160;&#160;&#160;&#160;&#160;&#160;&#160;&#160;&#160;&#160;&#160;&#160;&#160;HasMilitaryService &#160;&#160;&#160;&#160;&#160;&#160;&#160;&#160;&#160;&#160;&#160;&#160;&#160;&#160;&#160;&#160;&#160;&#160;&#160;&#160;&#160;&#160;&#160;&#160;&#160;&#160;&#160;&#160;&#160;&#160;&#160;&#160;&#160;&#160;&#160;&#160;&#160;&#160;</text>
<polygon fill="none" stroke="#99ccff" points="1016.1411,-391.5 1016.1411,-408.5 1147.1411,-408.5 1147.1411,-391.5 1016.1411,-391.5"/>
<text text-anchor="start" x="1058.5374" y="-396.7" font-family="Courier,monospace" font-size="11.00" fill="#000000">boolean</text>
<polygon fill="none" stroke="#99ccff" points="304.1411,-374.5 304.1411,-391.5 1016.1411,-391.5 1016.1411,-374.5 304.1411,-374.5"/>
<text text-anchor="start" x="307.1411" y="-379.7" font-family="Courier,monospace" font-size="11.00" fill="#000000"> &#160;&#160;&#160;&#160;&#160;&#160;&#160;&#160;&#160;&#160;&#160;&#160;&#160;&#160;&#160;&#160;&#160;&#160;&#160;&#160;&#160;&#160;&#160;&#160;&#160;&#160;&#160;&#160;&#160;&#160;&#160;&#160;&#160;&#160;&#160;&#160;&#160;&#160;&#160;&#160;IsActiveMilitary &#160;&#160;&#160;&#160;&#160;&#160;&#160;&#160;&#160;&#160;&#160;&#160;&#160;&#160;&#160;&#160;&#160;&#160;&#160;&#160;&#160;&#160;&#160;&#160;&#160;&#160;&#160;&#160;&#160;&#160;&#160;&#160;&#160;&#160;&#160;&#160;&#160;&#160;</text>
<polygon fill="none" stroke="#99ccff" points="1016.1411,-374.5 1016.1411,-391.5 1147.1411,-391.5 1147.1411,-374.5 1016.1411,-374.5"/>
<text text-anchor="start" x="1058.5374" y="-379.7" font-family="Courier,monospace" font-size="11.00" fill="#000000">boolean</text>
<polygon fill="none" stroke="#99ccff" points="304.1411,-357.5 304.1411,-374.5 1016.1411,-374.5 1016.1411,-357.5 304.1411,-357.5"/>
<text text-anchor="start" x="307.1411" y="-362.7" font-family="Courier,monospace" font-size="11.00" fill="#000000"> &#160;&#160;&#160;&#160;&#160;&#160;&#160;&#160;&#160;&#160;&#160;&#160;&#160;&#160;&#160;&#160;&#160;&#160;&#160;&#160;&#160;&#160;&#160;&#160;&#160;&#160;&#160;&#160;&#160;&#160;&#160;&#160;&#160;&#160;&#160;&#160;&#160;&#160;&#160;&#160;MaritalStatus &#160;&#160;&#160;&#160;&#160;&#160;&#160;&#160;&#160;&#160;&#160;&#160;&#160;&#160;&#160;&#160;&#160;&#160;&#160;&#160;&#160;&#160;&#160;&#160;&#160;&#160;&#160;&#160;&#160;&#160;&#160;&#160;&#160;&#160;&#160;&#160;&#160;&#160;</text>
<polygon fill="none" stroke="#99ccff" points="1016.1411,-357.5 1016.1411,-374.5 1147.1411,-374.5 1147.1411,-357.5 1016.1411,-357.5"/>
<text text-anchor="start" x="1042.0347" y="-362.7" font-family="Courier,monospace" font-size="11.00" fill="#000000">picklist(40)</text>
<polygon fill="none" stroke="#99ccff" points="304.1411,-340.5 304.1411,-357.5 1016.1411,-357.5 1016.1411,-340.5 304.1411,-340.5"/>
<text text-anchor="start" x="307.1411" y="-345.7" font-family="Courier,monospace" font-size="11.00" fill="#000000"> &#160;&#160;&#160;&#160;&#160;&#160;&#160;&#160;&#160;&#160;&#160;&#160;&#160;&#160;&#160;&#160;&#160;&#160;&#160;&#160;&#160;&#160;&#160;&#160;&#160;&#160;&#160;&#160;&#160;&#160;&#160;&#160;&#160;&#160;&#160;&#160;&#160;&#160;&#160;&#160;DependentCount &#160;&#160;&#160;&#160;&#160;&#160;&#160;&#160;&#160;&#160;&#160;&#160;&#160;&#160;&#160;&#160;&#160;&#160;&#160;&#160;&#160;&#160;&#160;&#160;&#160;&#160;&#160;&#160;&#160;&#160;&#160;&#160;&#160;&#160;&#160;&#160;&#160;&#160;</text>
<polygon fill="none" stroke="#99ccff" points="1016.1411,-340.5 1016.1411,-357.5 1147.1411,-357.5 1147.1411,-340.5 1016.1411,-340.5"/>
<text text-anchor="start" x="1071.7395" y="-345.7" font-family="Courier,monospace" font-size="11.00" fill="#000000">int</text>
<polygon fill="none" stroke="#99ccff" points="304.1411,-323.5 304.1411,-340.5 1016.1411,-340.5 1016.1411,-323.5 304.1411,-323.5"/>
<text text-anchor="start" x="307.1411" y="-328.7" font-family="Courier,monospace" font-size="11.00" fill="#000000"> &#160;&#160;&#160;&#160;&#160;&#160;&#160;&#160;&#160;&#160;&#160;&#160;&#160;&#160;&#160;&#160;&#160;&#160;&#160;&#160;&#160;&#160;&#160;&#160;&#160;&#160;&#160;&#160;&#160;&#160;&#160;&#160;&#160;&#160;&#160;&#160;&#160;&#160;&#160;&#160;DependentsAge &#160;&#160;&#160;&#160;&#160;&#160;&#160;&#160;&#160;&#160;&#160;&#160;&#160;&#160;&#160;&#160;&#160;&#160;&#160;&#160;&#160;&#160;&#160;&#160;&#160;&#160;&#160;&#160;&#160;&#160;&#160;&#160;&#160;&#160;&#160;&#160;&#160;&#160;</text>
<polygon fill="none" stroke="#99ccff" points="1016.1411,-323.5 1016.1411,-340.5 1147.1411,-340.5 1147.1411,-323.5 1016.1411,-323.5"/>
<text text-anchor="start" x="1045.3352" y="-328.7" font-family="Courier,monospace" font-size="11.00" fill="#000000">string(255)</text>
<polygon fill="none" stroke="#99ccff" points="304.1411,-306.5 304.1411,-323.5 1016.1411,-323.5 1016.1411,-306.5 304.1411,-306.5"/>
<text text-anchor="start" x="307.1411" y="-311.7" font-family="Courier,monospace" font-size="11.00" fill="#000000"> &#160;&#160;&#160;&#160;&#160;&#160;&#160;&#160;&#160;&#160;&#160;&#160;&#160;&#160;&#160;&#160;&#160;&#160;&#160;&#160;&#160;&#160;&#160;&#160;&#160;&#160;&#160;&#160;&#160;&#160;&#160;&#160;&#160;&#160;&#160;&#160;&#160;&#160;&#160;&#160;IsJointCredit &#160;&#160;&#160;&#160;&#160;&#160;&#160;&#160;&#160;&#160;&#160;&#160;&#160;&#160;&#160;&#160;&#160;&#160;&#160;&#160;&#160;&#160;&#160;&#160;&#160;&#160;&#160;&#160;&#160;&#160;&#160;&#160;&#160;&#160;&#160;&#160;&#160;&#160;</text>
<polygon fill="none" stroke="#99ccff" points="1016.1411,-306.5 1016.1411,-323.5 1147.1411,-323.5 1147.1411,-306.5 1016.1411,-306.5"/>
<text text-anchor="start" x="1058.5374" y="-311.7" font-family="Courier,monospace" font-size="11.00" fill="#000000">boolean</text>
<polygon fill="none" stroke="#99ccff" points="304.1411,-289.5 304.1411,-306.5 1016.1411,-306.5 1016.1411,-289.5 304.1411,-289.5"/>
<text text-anchor="start" x="306.9836" y="-294.7" font-family="Courier,monospace" font-size="11.00" fill="#000000"> &#160;&#160;&#160;&#160;&#160;&#160;&#160;&#160;&#160;&#160;&#160;&#160;&#160;&#160;&#160;&#160;&#160;&#160;&#160;&#160;&#160;&#160;&#160;&#160;&#160;&#160;&#160;&#160;&#160;&#160;&#160;&#160;&#160;&#160;&#160;&#160;&#160;&#160;&#160;&#160;MilitaryTourExpirationMonth &#160;&#160;&#160;&#160;&#160;&#160;&#160;&#160;&#160;&#160;&#160;&#160;&#160;&#160;&#160;&#160;&#160;&#160;&#160;&#160;&#160;&#160;&#160;&#160;&#160;&#160;&#160;&#160;&#160;&#160;&#160;&#160;&#160;&#160;&#160;&#160;&#160;&#160;</text>
<polygon fill="none" stroke="#99ccff" points="1016.1411,-289.5 1016.1411,-306.5 1147.1411,-306.5 1147.1411,-289.5 1016.1411,-289.5"/>
<text text-anchor="start" x="1071.7395" y="-294.7" font-family="Courier,monospace" font-size="11.00" fill="#000000">int</text>
<polygon fill="none" stroke="#99ccff" points="304.1411,-272.5 304.1411,-289.5 1016.1411,-289.5 1016.1411,-272.5 304.1411,-272.5"/>
<text text-anchor="start" x="307.1411" y="-277.7" font-family="Courier,monospace" font-size="11.00" fill="#000000"> &#160;&#160;&#160;&#160;&#160;&#160;&#160;&#160;&#160;&#160;&#160;&#160;&#160;&#160;&#160;&#160;&#160;&#160;&#160;&#160;&#160;&#160;&#160;&#160;&#160;&#160;&#160;&#160;&#160;&#160;&#160;&#160;&#160;&#160;&#160;&#160;&#160;&#160;&#160;&#160;MilitaryTourExpirationYear &#160;&#160;&#160;&#160;&#160;&#160;&#160;&#160;&#160;&#160;&#160;&#160;&#160;&#160;&#160;&#160;&#160;&#160;&#160;&#160;&#160;&#160;&#160;&#160;&#160;&#160;&#160;&#160;&#160;&#160;&#160;&#160;&#160;&#160;&#160;&#160;&#160;&#160;</text>
<polygon fill="none" stroke="#99ccff" points="1016.1411,-272.5 1016.1411,-289.5 1147.1411,-289.5 1147.1411,-272.5 1016.1411,-272.5"/>
<text text-anchor="start" x="1071.7395" y="-277.7" font-family="Courier,monospace" font-size="11.00" fill="#000000">int</text>
<polygon fill="none" stroke="#99ccff" points="304.1411,-255.5 304.1411,-272.5 1016.1411,-272.5 1016.1411,-255.5 304.1411,-255.5"/>
<text text-anchor="start" x="307.1411" y="-260.7" font-family="Courier,monospace" font-size="11.00" fill="#000000"> &#160;&#160;&#160;&#160;&#160;&#160;&#160;&#160;&#160;&#160;&#160;&#160;&#160;&#160;&#160;&#160;&#160;&#160;&#160;&#160;&#160;&#160;&#160;&#160;&#160;&#160;&#160;&#160;&#160;&#160;&#160;&#160;&#160;&#160;&#160;&#160;&#160;&#160;&#160;&#160;WasActiveMilitary &#160;&#160;&#160;&#160;&#160;&#160;&#160;&#160;&#160;&#160;&#160;&#160;&#160;&#160;&#160;&#160;&#160;&#160;&#160;&#160;&#160;&#160;&#160;&#160;&#160;&#160;&#160;&#160;&#160;&#160;&#160;&#160;&#160;&#160;&#160;&#160;&#160;&#160;</text>
<polygon fill="none" stroke="#99ccff" points="1016.1411,-255.5 1016.1411,-272.5 1147.1411,-272.5 1147.1411,-255.5 1016.1411,-255.5"/>
<text text-anchor="start" x="1058.5374" y="-260.7" font-family="Courier,monospace" font-size="11.00" fill="#000000">boolean</text>
<polygon fill="none" stroke="#99ccff" points="304.1411,-238.5 304.1411,-255.5 1016.1411,-255.5 1016.1411,-238.5 304.1411,-238.5"/>
<text text-anchor="start" x="307.1411" y="-243.7" font-family="Courier,monospace" font-size="11.00" fill="#000000"> &#160;&#160;&#160;&#160;&#160;&#160;&#160;&#160;&#160;&#160;&#160;&#160;&#160;&#160;&#160;&#160;&#160;&#160;&#160;&#160;&#160;&#160;&#160;&#160;&#160;&#160;&#160;&#160;&#160;&#160;&#160;&#160;&#160;&#160;&#160;&#160;&#160;&#160;&#160;&#160;EthnicityType &#160;&#160;&#160;&#160;&#160;&#160;&#160;&#160;&#160;&#160;&#160;&#160;&#160;&#160;&#160;&#160;&#160;&#160;&#160;&#160;&#160;&#160;&#160;&#160;&#160;&#160;&#160;&#160;&#160;&#160;&#160;&#160;&#160;&#160;&#160;&#160;&#160;&#160;</text>
<polygon fill="none" stroke="#99ccff" points="1016.1411,-238.5 1016.1411,-255.5 1147.1411,-255.5 1147.1411,-238.5 1016.1411,-238.5"/>
<text text-anchor="start" x="1042.0347" y="-243.7" font-family="Courier,monospace" font-size="11.00" fill="#000000">picklist(40)</text>
<polygon fill="none" stroke="#99ccff" points="304.1411,-221.5 304.1411,-238.5 1016.1411,-238.5 1016.1411,-221.5 304.1411,-221.5"/>
<text text-anchor="start" x="307.1411" y="-226.7" font-family="Courier,monospace" font-size="11.00" fill="#000000"> &#160;&#160;&#160;&#160;&#160;&#160;&#160;&#160;&#160;&#160;&#160;&#160;&#160;&#160;&#160;&#160;&#160;&#160;&#160;&#160;&#160;&#160;&#160;&#160;&#160;&#160;&#160;&#160;&#160;&#160;&#160;&#160;&#160;&#160;&#160;&#160;&#160;&#160;&#160;&#160;RaceType &#160;&#160;&#160;&#160;&#160;&#160;&#160;&#160;&#160;&#160;&#160;&#160;&#160;&#160;&#160;&#160;&#160;&#160;&#160;&#160;&#160;&#160;&#160;&#160;&#160;&#160;&#160;&#160;&#160;&#160;&#160;&#160;&#160;&#160;&#160;&#160;&#160;&#160;</text>
<polygon fill="none" stroke="#99ccff" points="1016.1411,-221.5 1016.1411,-238.5 1147.1411,-238.5 1147.1411,-221.5 1016.1411,-221.5"/>
<text text-anchor="start" x="1018.9309" y="-226.7" font-family="Courier,monospace" font-size="11.00" fill="#000000">multipicklist(4099)</text>
<polygon fill="none" stroke="#99ccff" points="304.1411,-204.5 304.1411,-221.5 1016.1411,-221.5 1016.1411,-204.5 304.1411,-204.5"/>
<text text-anchor="start" x="307.1411" y="-209.7" font-family="Courier,monospace" font-size="11.00" fill="#000000"> &#160;&#160;&#160;&#160;&#160;&#160;&#160;&#160;&#160;&#160;&#160;&#160;&#160;&#160;&#160;&#160;&#160;&#160;&#160;&#160;&#160;&#160;&#160;&#160;&#160;&#160;&#160;&#160;&#160;&#160;&#160;&#160;&#160;&#160;&#160;&#160;&#160;&#160;&#160;&#160;GenderType &#160;&#160;&#160;&#160;&#160;&#160;&#160;&#160;&#160;&#160;&#160;&#160;&#160;&#160;&#160;&#160;&#160;&#160;&#160;&#160;&#160;&#160;&#160;&#160;&#160;&#160;&#160;&#160;&#160;&#160;&#160;&#160;&#160;&#160;&#160;&#160;&#160;&#160;</text>
<polygon fill="none" stroke="#99ccff" points="1016.1411,-204.5 1016.1411,-221.5 1147.1411,-221.5 1147.1411,-204.5 1016.1411,-204.5"/>
<text text-anchor="start" x="1042.0347" y="-209.7" font-family="Courier,monospace" font-size="11.00" fill="#000000">picklist(40)</text>
<polygon fill="none" stroke="#99ccff" points="304.1411,-187.5 304.1411,-204.5 1016.1411,-204.5 1016.1411,-187.5 304.1411,-187.5"/>
<text text-anchor="start" x="307.1411" y="-192.7" font-family="Courier,monospace" font-size="11.00" fill="#000000"> &#160;&#160;&#160;&#160;&#160;&#160;&#160;&#160;&#160;&#160;&#160;&#160;&#160;&#160;&#160;&#160;&#160;&#160;&#160;&#160;&#160;&#160;&#160;&#160;&#160;&#160;&#160;&#160;&#160;&#160;&#160;&#160;&#160;&#160;&#160;&#160;&#160;&#160;&#160;&#160;ApplicantExtIdentifier &#160;&#160;&#160;&#160;&#160;&#160;&#160;&#160;&#160;&#160;&#160;&#160;&#160;&#160;&#160;&#160;&#160;&#160;&#160;&#160;&#160;&#160;&#160;&#160;&#160;&#160;&#160;&#160;&#160;&#160;&#160;&#160;&#160;&#160;&#160;&#160;&#160;&#160;</text>
<polygon fill="none" stroke="#99ccff" points="1016.1411,-187.5 1016.1411,-204.5 1147.1411,-204.5 1147.1411,-187.5 1016.1411,-187.5"/>
<text text-anchor="start" x="1045.3352" y="-192.7" font-family="Courier,monospace" font-size="11.00" fill="#000000">string(255)</text>
<polygon fill="none" stroke="#99ccff" points="304.1411,-170.5 304.1411,-187.5 1016.1411,-187.5 1016.1411,-170.5 304.1411,-170.5"/>
<text text-anchor="start" x="307.1411" y="-175.7" font-family="Courier,monospace" font-size="11.00" fill="#000000"> &#160;&#160;&#160;&#160;&#160;&#160;&#160;&#160;&#160;&#160;&#160;&#160;&#160;&#160;&#160;&#160;&#160;&#160;&#160;&#160;&#160;&#160;&#160;&#160;&#160;&#160;&#160;&#160;&#160;&#160;&#160;&#160;&#160;&#160;&#160;&#160;&#160;&#160;&#160;&#160;WasNonActivatedService &#160;&#160;&#160;&#160;&#160;&#160;&#160;&#160;&#160;&#160;&#160;&#160;&#160;&#160;&#160;&#160;&#160;&#160;&#160;&#160;&#160;&#160;&#160;&#160;&#160;&#160;&#160;&#160;&#160;&#160;&#160;&#160;&#160;&#160;&#160;&#160;&#160;&#160;</text>
<polygon fill="none" stroke="#99ccff" points="1016.1411,-170.5 1016.1411,-187.5 1147.1411,-187.5 1147.1411,-170.5 1016.1411,-170.5"/>
<text text-anchor="start" x="1058.5374" y="-175.7" font-family="Courier,monospace" font-size="11.00" fill="#000000">boolean</text>
<polygon fill="none" stroke="#99ccff" points="304.1411,-153.5 304.1411,-170.5 1016.1411,-170.5 1016.1411,-153.5 304.1411,-153.5"/>
<text text-anchor="start" x="307.1411" y="-158.7" font-family="Courier,monospace" font-size="11.00" fill="#000000"> &#160;&#160;&#160;&#160;&#160;&#160;&#160;&#160;&#160;&#160;&#160;&#160;&#160;&#160;&#160;&#160;&#160;&#160;&#160;&#160;&#160;&#160;&#160;&#160;&#160;&#160;&#160;&#160;&#160;&#160;&#160;&#160;&#160;&#160;&#160;&#160;&#160;&#160;&#160;&#160;IsSurvivingMilitarySpouse &#160;&#160;&#160;&#160;&#160;&#160;&#160;&#160;&#160;&#160;&#160;&#160;&#160;&#160;&#160;&#160;&#160;&#160;&#160;&#160;&#160;&#160;&#160;&#160;&#160;&#160;&#160;&#160;&#160;&#160;&#160;&#160;&#160;&#160;&#160;&#160;&#160;&#160;</text>
<polygon fill="none" stroke="#99ccff" points="1016.1411,-153.5 1016.1411,-170.5 1147.1411,-170.5 1147.1411,-153.5 1016.1411,-153.5"/>
<text text-anchor="start" x="1058.5374" y="-158.7" font-family="Courier,monospace" font-size="11.00" fill="#000000">boolean</text>
<polygon fill="none" stroke="#99ccff" points="304.1411,-136.5 304.1411,-153.5 1016.1411,-153.5 1016.1411,-136.5 304.1411,-136.5"/>
<text text-anchor="start" x="307.1411" y="-141.7" font-family="Courier,monospace" font-size="11.00" fill="#000000"> &#160;&#160;&#160;&#160;&#160;&#160;&#160;&#160;&#160;&#160;&#160;&#160;&#160;&#160;&#160;&#160;&#160;&#160;&#160;&#160;&#160;&#160;&#160;&#160;&#160;&#160;&#160;&#160;&#160;&#160;&#160;&#160;&#160;&#160;&#160;&#160;&#160;&#160;&#160;&#160;PreferredLanguage &#160;&#160;&#160;&#160;&#160;&#160;&#160;&#160;&#160;&#160;&#160;&#160;&#160;&#160;&#160;&#160;&#160;&#160;&#160;&#160;&#160;&#160;&#160;&#160;&#160;&#160;&#160;&#160;&#160;&#160;&#160;&#160;&#160;&#160;&#160;&#160;&#160;&#160;</text>
<polygon fill="none" stroke="#99ccff" points="1016.1411,-136.5 1016.1411,-153.5 1147.1411,-153.5 1147.1411,-136.5 1016.1411,-136.5"/>
<text text-anchor="start" x="1042.0347" y="-141.7" font-family="Courier,monospace" font-size="11.00" fill="#000000">picklist(40)</text>
<polygon fill="none" stroke="#99ccff" points="304.1411,-119.5 304.1411,-136.5 1016.1411,-136.5 1016.1411,-119.5 304.1411,-119.5"/>
<text text-anchor="start" x="307.1411" y="-124.7" font-family="Courier,monospace" font-size="11.00" fill="#000000"> &#160;&#160;&#160;&#160;&#160;&#160;&#160;&#160;&#160;&#160;&#160;&#160;&#160;&#160;&#160;&#160;&#160;&#160;&#160;&#160;&#160;&#160;&#160;&#160;&#160;&#160;&#160;&#160;&#160;&#160;&#160;&#160;&#160;&#160;&#160;&#160;&#160;&#160;&#160;&#160;EthnicitySubType &#160;&#160;&#160;&#160;&#160;&#160;&#160;&#160;&#160;&#160;&#160;&#160;&#160;&#160;&#160;&#160;&#160;&#160;&#160;&#160;&#160;&#160;&#160;&#160;&#160;&#160;&#160;&#160;&#160;&#160;&#160;&#160;&#160;&#160;&#160;&#160;&#160;&#160;</text>
<polygon fill="none" stroke="#99ccff" points="1016.1411,-119.5 1016.1411,-136.5 1147.1411,-136.5 1147.1411,-119.5 1016.1411,-119.5"/>
<text text-anchor="start" x="1018.9309" y="-124.7" font-family="Courier,monospace" font-size="11.00" fill="#000000">multipicklist(4099)</text>
<polygon fill="none" stroke="#99ccff" points="304.1411,-102.5 304.1411,-119.5 1016.1411,-119.5 1016.1411,-102.5 304.1411,-102.5"/>
<text text-anchor="start" x="307.1411" y="-107.7" font-family="Courier,monospace" font-size="11.00" fill="#000000"> &#160;&#160;&#160;&#160;&#160;&#160;&#160;&#160;&#160;&#160;&#160;&#160;&#160;&#160;&#160;&#160;&#160;&#160;&#160;&#160;&#160;&#160;&#160;&#160;&#160;&#160;&#160;&#160;&#160;&#160;&#160;&#160;&#160;&#160;&#160;&#160;&#160;&#160;&#160;&#160;OtherEthnicitySubType &#160;&#160;&#160;&#160;&#160;&#160;&#160;&#160;&#160;&#160;&#160;&#160;&#160;&#160;&#160;&#160;&#160;&#160;&#160;&#160;&#160;&#160;&#160;&#160;&#160;&#160;&#160;&#160;&#160;&#160;&#160;&#160;&#160;&#160;&#160;&#160;&#160;&#160;</text>
<polygon fill="none" stroke="#99ccff" points="1016.1411,-102.5 1016.1411,-119.5 1147.1411,-119.5 1147.1411,-102.5 1016.1411,-102.5"/>
<text text-anchor="start" x="1045.3352" y="-107.7" font-family="Courier,monospace" font-size="11.00" fill="#000000">string(255)</text>
<polygon fill="none" stroke="#99ccff" points="304.1411,-85.5 304.1411,-102.5 1016.1411,-102.5 1016.1411,-85.5 304.1411,-85.5"/>
<text text-anchor="start" x="307.1411" y="-90.7" font-family="Courier,monospace" font-size="11.00" fill="#000000"> &#160;&#160;&#160;&#160;&#160;&#160;&#160;&#160;&#160;&#160;&#160;&#160;&#160;&#160;&#160;&#160;&#160;&#160;&#160;&#160;&#160;&#160;&#160;&#160;&#160;&#160;&#160;&#160;&#160;&#160;&#160;&#160;&#160;&#160;&#160;&#160;&#160;&#160;&#160;&#160;AsianRaceSubType &#160;&#160;&#160;&#160;&#160;&#160;&#160;&#160;&#160;&#160;&#160;&#160;&#160;&#160;&#160;&#160;&#160;&#160;&#160;&#160;&#160;&#160;&#160;&#160;&#160;&#160;&#160;&#160;&#160;&#160;&#160;&#160;&#160;&#160;&#160;&#160;&#160;&#160;</text>
<polygon fill="none" stroke="#99ccff" points="1016.1411,-85.5 1016.1411,-102.5 1147.1411,-102.5 1147.1411,-85.5 1016.1411,-85.5"/>
<text text-anchor="start" x="1018.9309" y="-90.7" font-family="Courier,monospace" font-size="11.00" fill="#000000">multipicklist(4099)</text>
<polygon fill="none" stroke="#99ccff" points="304.1411,-68.5 304.1411,-85.5 1016.1411,-85.5 1016.1411,-68.5 304.1411,-68.5"/>
<text text-anchor="start" x="307.1411" y="-73.7" font-family="Courier,monospace" font-size="11.00" fill="#000000"> &#160;&#160;&#160;&#160;&#160;&#160;&#160;&#160;&#160;&#160;&#160;&#160;&#160;&#160;&#160;&#160;&#160;&#160;&#160;&#160;&#160;&#160;&#160;&#160;&#160;&#160;&#160;&#160;&#160;&#160;&#160;&#160;&#160;&#160;&#160;&#160;&#160;&#160;&#160;&#160;OtherAsianRaceSubType &#160;&#160;&#160;&#160;&#160;&#160;&#160;&#160;&#160;&#160;&#160;&#160;&#160;&#160;&#160;&#160;&#160;&#160;&#160;&#160;&#160;&#160;&#160;&#160;&#160;&#160;&#160;&#160;&#160;&#160;&#160;&#160;&#160;&#160;&#160;&#160;&#160;&#160;</text>
<polygon fill="none" stroke="#99ccff" points="1016.1411,-68.5 1016.1411,-85.5 1147.1411,-85.5 1147.1411,-68.5 1016.1411,-68.5"/>
<text text-anchor="start" x="1045.3352" y="-73.7" font-family="Courier,monospace" font-size="11.00" fill="#000000">string(255)</text>
<polygon fill="none" stroke="#99ccff" points="304.1411,-51.5 304.1411,-68.5 1016.1411,-68.5 1016.1411,-51.5 304.1411,-51.5"/>
<text text-anchor="start" x="307.1411" y="-56.7" font-family="Courier,monospace" font-size="11.00" fill="#000000"> &#160;&#160;&#160;&#160;&#160;&#160;&#160;&#160;&#160;&#160;&#160;&#160;&#160;&#160;&#160;&#160;&#160;&#160;&#160;&#160;&#160;&#160;&#160;&#160;&#160;&#160;&#160;&#160;&#160;&#160;&#160;&#160;&#160;&#160;&#160;&#160;&#160;&#160;&#160;&#160;PacIslandSubType &#160;&#160;&#160;&#160;&#160;&#160;&#160;&#160;&#160;&#160;&#160;&#160;&#160;&#160;&#160;&#160;&#160;&#160;&#160;&#160;&#160;&#160;&#160;&#160;&#160;&#160;&#160;&#160;&#160;&#160;&#160;&#160;&#160;&#160;&#160;&#160;&#160;&#160;</text>
<polygon fill="none" stroke="#99ccff" points="1016.1411,-51.5 1016.1411,-68.5 1147.1411,-68.5 1147.1411,-51.5 1016.1411,-51.5"/>
<text text-anchor="start" x="1018.9309" y="-56.7" font-family="Courier,monospace" font-size="11.00" fill="#000000">multipicklist(4099)</text>
<polygon fill="none" stroke="#99ccff" points="304.1411,-34.5 304.1411,-51.5 1016.1411,-51.5 1016.1411,-34.5 304.1411,-34.5"/>
<text text-anchor="start" x="307.1411" y="-39.7" font-family="Courier,monospace" font-size="11.00" fill="#000000"> &#160;&#160;&#160;&#160;&#160;&#160;&#160;&#160;&#160;&#160;&#160;&#160;&#160;&#160;&#160;&#160;&#160;&#160;&#160;&#160;&#160;&#160;&#160;&#160;&#160;&#160;&#160;&#160;&#160;&#160;&#160;&#160;&#160;&#160;&#160;&#160;&#160;&#160;&#160;&#160;OtherPacIslandSubType &#160;&#160;&#160;&#160;&#160;&#160;&#160;&#160;&#160;&#160;&#160;&#160;&#160;&#160;&#160;&#160;&#160;&#160;&#160;&#160;&#160;&#160;&#160;&#160;&#160;&#160;&#160;&#160;&#160;&#160;&#160;&#160;&#160;&#160;&#160;&#160;&#160;&#160;</text>
<polygon fill="none" stroke="#99ccff" points="1016.1411,-34.5 1016.1411,-51.5 1147.1411,-51.5 1147.1411,-34.5 1016.1411,-34.5"/>
<text text-anchor="start" x="1045.3352" y="-39.7" font-family="Courier,monospace" font-size="11.00" fill="#000000">string(255)</text>
<polygon fill="none" stroke="#99ccff" points="304.1411,-17.5 304.1411,-34.5 1016.1411,-34.5 1016.1411,-17.5 304.1411,-17.5"/>
<text text-anchor="start" x="307.1411" y="-22.7" font-family="Courier,monospace" font-size="11.00" fill="#000000"> &#160;&#160;&#160;&#160;&#160;&#160;&#160;&#160;&#160;&#160;&#160;&#160;&#160;&#160;&#160;&#160;&#160;&#160;&#160;&#160;&#160;&#160;&#160;&#160;&#160;&#160;&#160;&#160;&#160;&#160;&#160;&#160;&#160;&#160;&#160;&#160;&#160;&#160;&#160;&#160;TribeName &#160;&#160;&#160;&#160;&#160;&#160;&#160;&#160;&#160;&#160;&#160;&#160;&#160;&#160;&#160;&#160;&#160;&#160;&#160;&#160;&#160;&#160;&#160;&#160;&#160;&#160;&#160;&#160;&#160;&#160;&#160;&#160;&#160;&#160;&#160;&#160;&#160;&#160;</text>
<polygon fill="none" stroke="#99ccff" points="1016.1411,-17.5 1016.1411,-34.5 1147.1411,-34.5 1147.1411,-17.5 1016.1411,-17.5"/>
<text text-anchor="start" x="1045.3352" y="-22.7" font-family="Courier,monospace" font-size="11.00" fill="#000000">string(255)</text>
<polygon fill="none" stroke="#99ccff" points="302.6411,-17 302.6411,-614 1147.6411,-614 1147.6411,-17 302.6411,-17"/>
</a>
</g>
</g>
<!-- Group -->
<g id="node2" class="node">
<title>Group</title>
<text text-anchor="middle" x="93.814" y="-576.2" font-family="Courier,monospace" font-size="11.00" fill="#000000">Group</text>
</g>
<!-- LoanApplicant&#45;&gt;Group -->
<g id="edge1" class="edge">
<title>LoanApplicant:w&#45;&gt;Group:e</title>
<path fill="none" stroke="#ff99cc" d="M289.7173,-570.5673C227.382,-571.1336 158.2014,-575.1404 121.0245,-577.5913"/>
<polygon fill="#ff99cc" stroke="#ff99cc" points="296.1412,-570.5374 304.1579,-574.1 300.1412,-570.5187 304.1411,-570.5 304.1411,-570.5 304.1411,-570.5 300.1412,-570.5187 304.1243,-566.9 296.1412,-570.5374 296.1412,-570.5374"/>
<ellipse fill="none" stroke="#ff99cc" cx="292.9412" cy="-570.5524" rx="3.2" ry="3.2"/>
<text text-anchor="middle" x="245.1345" y="-577.3015" font-family="Monaco" font-size="9.00" fill="#000000">Owner</text>
</g>
<!-- User -->
<g id="node3" class="node">
<title>User</title>
<text text-anchor="middle" x="93.814" y="-524.2" font-family="Courier,monospace" font-size="11.00" fill="#000000">User</text>
</g>
<!-- LoanApplicant&#45;&gt;User -->
<g id="edge2" class="edge">
<title>LoanApplicant:w&#45;&gt;User:e</title>
<path fill="none" stroke="#ff99cc" d="M293.3892,-560.6141C291.8401,-557.1671 289.9283,-553.6312 285.6411,-551.4985 257.3189,-537.4094 166.7009,-531.0572 120.8831,-528.6869"/>
<polygon fill="#ff99cc" stroke="#ff99cc" points="298.2521,-565.0853 301.7045,-573.1501 301.1966,-567.7926 304.1411,-570.5 304.1411,-570.5 304.1411,-570.5 301.1966,-567.7926 306.5777,-567.8499 298.2521,-565.0853 298.2521,-565.0853"/>
<ellipse fill="none" stroke="#ff99cc" cx="295.8964" cy="-562.9194" rx="3.2" ry="3.2"/>
<text text-anchor="middle" x="245.1345" y="-555.3015" font-family="Monaco" font-size="9.00" fill="#000000">Owner</text>
</g>
<!-- LoanApplicant&#45;&gt;User -->
<g id="edge3" class="edge">
<title>LoanApplicant:w&#45;&gt;User:e</title>
<path fill="none" stroke="#ff99cc" d="M289.697,-519.4988C288.5076,-519.4987 287.1828,-519.4986 285.6411,-519.4985 249.6353,-519.4971 240.6104,-518.2011 204.6279,-519.4985 176.0993,-520.5272 143.5197,-523.0408 121.1082,-524.9785"/>
<polygon fill="#ff99cc" stroke="#ff99cc" points="296.1411,-519.4993 304.1408,-523.1 300.1411,-519.4996 304.1411,-519.5 304.1411,-519.5 304.1411,-519.5 300.1411,-519.4996 304.1414,-515.9 296.1411,-519.4993 296.1411,-519.4993"/>
<ellipse fill="none" stroke="#ff99cc" cx="292.9411" cy="-519.499" rx="3.2" ry="3.2"/>
<text text-anchor="middle" x="245.1345" y="-523.3015" font-family="Monaco" font-size="9.00" fill="#000000">LastModifiedBy</text>
</g>
<!-- ResidentialLoanApplication -->
<g id="node4" class="node">
<title>ResidentialLoanApplication</title>
<text text-anchor="middle" x="93.814" y="-469.2" font-family="Courier,monospace" font-size="11.00" fill="#000000">ResidentialLoanApplication</text>
</g>
<!-- LoanApplicant&#45;&gt;ResidentialLoanApplication -->
<g id="edge4" class="edge">
<title>LoanApplicant:w&#45;&gt;ResidentialLoanApplication:e</title>
<path fill="none" stroke="#ff99cc" d="M289.6655,-468.5302C255.5507,-468.6685 219.3712,-469.2651 187.5141,-469.9554"/>
<polygon fill="#ff99cc" stroke="#ff99cc" points="296.1411,-468.5167 304.1486,-472.1 300.1411,-468.5084 304.1411,-468.5 304.1411,-468.5 304.1411,-468.5 300.1411,-468.5084 304.1336,-464.9 296.1411,-468.5167 296.1411,-468.5167"/>
<ellipse fill="none" stroke="#ff99cc" cx="292.9411" cy="-468.5234" rx="3.2" ry="3.2"/>
<text text-anchor="middle" x="245.1345" y="-474.3015" font-family="Monaco" font-size="9.00" fill="#000000">LoanApplication</text>
</g>
<!-- Contact -->
<g id="node5" class="node">
<title>Contact</title>
<text text-anchor="middle" x="93.814" y="-420.2" font-family="Courier,monospace" font-size="11.00" fill="#000000">Contact</text>
</g>
<!-- LoanApplicant&#45;&gt;Contact -->
<g id="edge5" class="edge">
<title>LoanApplicant:w&#45;&gt;Contact:e</title>
<path fill="none" stroke="#ff99cc" d="M290.6277,-446.3172C289.2425,-445.6191 287.6448,-444.9791 285.6411,-444.4985 230.0953,-431.1752 163.4482,-426.2845 125.1259,-424.5038"/>
<polygon fill="#ff99cc" stroke="#ff99cc" points="296.6716,-448.6352 302.852,-454.8613 300.4064,-450.0676 304.1411,-451.5 304.1411,-451.5 304.1411,-451.5 300.4064,-450.0676 305.4303,-448.1387 296.6716,-448.6352 296.6716,-448.6352"/>
<ellipse fill="none" stroke="#ff99cc" cx="293.6838" cy="-447.4893" rx="3.2" ry="3.2"/>
<text text-anchor="middle" x="245.1345" y="-448.3015" font-family="Monaco" font-size="9.00" fill="#000000">Contact</text>
</g>
</g>
</svg>
