<?xml version="1.0" encoding="UTF-8" standalone="no"?>
<!DOCTYPE svg PUBLIC "-//W3C//DTD SVG 1.1//EN"
 "http://www.w3.org/Graphics/SVG/1.1/DTD/svg11.dtd">
<!-- Generated by graphviz version 2.40.1 (20161225.0304)
 -->
<!-- Title: Salesforce+ ERD Pages: 1 -->
<svg width="1063pt" height="248pt"
 viewBox="0.00 0.00 1062.64 248.00" xmlns="http://www.w3.org/2000/svg" xmlns:xlink="http://www.w3.org/1999/xlink">
<g id="graph0" class="graph" transform="scale(1 1) rotate(0) translate(4 244)">
<title>Salesforce+ ERD</title>
<polygon fill="#efeffd" stroke="transparent" points="-4,4 -4,-244 1058.6411,-244 1058.6411,4 -4,4"/>
<text text-anchor="middle" x="1006.1345" y="-5.8" font-family="Courier,monospace" font-size="9.00" fill="#000000">Salesforce ERD </text>
<!-- LoanApplicantIncome -->
<g id="node1" class="node">
<title>LoanApplicantIncome</title>
<g id="a_node1"><a xlink:href="#" xlink:title=" LoanApplicantIncome ">
<polygon fill="#ffeeff" stroke="transparent" points="302.6411,-17 302.6411,-240 1054.6411,-240 1054.6411,-17 302.6411,-17"/>
<polygon fill="#add8e6" stroke="transparent" points="303.6411,-221.5 303.6411,-238.5 1053.6411,-238.5 1053.6411,-221.5 303.6411,-221.5"/>
<polygon fill="none" stroke="#99ccff" points="303.6411,-221.5 303.6411,-238.5 1053.6411,-238.5 1053.6411,-221.5 303.6411,-221.5"/>
<text text-anchor="start" x="615.9309" y="-227.7" font-family="Courier,monospace" font-weight="bold" font-size="11.00" fill="#000000">LoanApplicantIncome</text>
<polygon fill="#99ccff" stroke="transparent" points="303.6411,-204.5 303.6411,-221.5 962.6411,-221.5 962.6411,-204.5 303.6411,-204.5"/>
<polygon fill="none" stroke="#99ccff" points="303.6411,-204.5 303.6411,-221.5 962.6411,-221.5 962.6411,-204.5 303.6411,-204.5"/>
<text text-anchor="start" x="306.6411" y="-210.7" font-family="Courier,monospace" font-size="11.00" fill="#000000"> &#160;&#160;&#160;&#160;&#160;&#160;&#160;&#160;&#160;&#160;&#160;&#160;&#160;&#160;&#160;&#160;&#160;&#160;&#160;&#160;&#160;&#160;&#160;&#160;&#160;&#160;&#160;&#160;&#160;&#160;&#160;&#160;&#160;&#160;&#160;&#160;&#160;&#160;&#160;&#160;&#160;&#160;</text>
<text text-anchor="start" x="590.4873" y="-210.7" font-family="Courier,monospace" font-weight="bold" font-size="11.00" fill="#000000">Id</text>
<text text-anchor="start" x="603.6895" y="-210.7" font-family="Courier,monospace" font-size="11.00" fill="#000000"> &#160;&#160;&#160;&#160;&#160;&#160;&#160;&#160;&#160;&#160;&#160;&#160;&#160;&#160;&#160;&#160;&#160;&#160;&#160;&#160;&#160;&#160;&#160;&#160;&#160;&#160;&#160;&#160;&#160;&#160;&#160;&#160;&#160;&#160;&#160;&#160;&#160;&#160;&#160;</text>
<polygon fill="none" stroke="#99ccff" points="962.6411,-204.5 962.6411,-221.5 1053.6411,-221.5 1053.6411,-204.5 962.6411,-204.5"/>
<text text-anchor="start" x="988.3379" y="-209.7" font-family="Courier,monospace" font-size="11.00" fill="#000000">id(18)</text>
<polygon fill="none" stroke="#99ccff" points="303.6411,-187.5 303.6411,-204.5 962.6411,-204.5 962.6411,-187.5 303.6411,-187.5"/>
<text text-anchor="start" x="306.6411" y="-192.7" font-family="Courier,monospace" font-size="11.00" fill="#000000"> &#160;&#160;&#160;&#160;&#160;&#160;&#160;&#160;&#160;&#160;&#160;&#160;&#160;&#160;&#160;&#160;&#160;&#160;&#160;&#160;&#160;&#160;&#160;&#160;&#160;&#160;&#160;&#160;&#160;&#160;&#160;&#160;&#160;&#160;&#160;&#160;&#160;&#160;&#160;&#160;OwnerId &#160;&#160;&#160;&#160;&#160;&#160;&#160;&#160;&#160;&#160;&#160;&#160;&#160;&#160;&#160;&#160;&#160;&#160;&#160;&#160;&#160;&#160;&#160;&#160;&#160;&#160;&#160;&#160;&#160;&#160;&#160;&#160;&#160;&#160;&#160;&#160;&#160;&#160;</text>
<polygon fill="none" stroke="#99ccff" points="962.6411,-187.5 962.6411,-204.5 1053.6411,-204.5 1053.6411,-187.5 962.6411,-187.5"/>
<text text-anchor="start" x="965.2341" y="-192.7" font-family="Courier,monospace" font-size="11.00" fill="#000000">reference(18)</text>
<polygon fill="none" stroke="#99ccff" points="303.6411,-170.5 303.6411,-187.5 962.6411,-187.5 962.6411,-170.5 303.6411,-170.5"/>
<text text-anchor="start" x="306.6411" y="-175.7" font-family="Courier,monospace" font-size="11.00" fill="#000000"> &#160;&#160;&#160;&#160;&#160;&#160;&#160;&#160;&#160;&#160;&#160;&#160;&#160;&#160;&#160;&#160;&#160;&#160;&#160;&#160;&#160;&#160;&#160;&#160;&#160;&#160;&#160;&#160;&#160;&#160;&#160;&#160;&#160;&#160;&#160;&#160;&#160;&#160;&#160;&#160;IsDeleted &#160;&#160;&#160;&#160;&#160;&#160;&#160;&#160;&#160;&#160;&#160;&#160;&#160;&#160;&#160;&#160;&#160;&#160;&#160;&#160;&#160;&#160;&#160;&#160;&#160;&#160;&#160;&#160;&#160;&#160;&#160;&#160;&#160;&#160;&#160;&#160;&#160;&#160;</text>
<polygon fill="none" stroke="#99ccff" points="962.6411,-170.5 962.6411,-187.5 1053.6411,-187.5 1053.6411,-170.5 962.6411,-170.5"/>
<text text-anchor="start" x="985.0374" y="-175.7" font-family="Courier,monospace" font-size="11.00" fill="#000000">boolean</text>
<polygon fill="none" stroke="#99ccff" points="303.6411,-153.5 303.6411,-170.5 962.6411,-170.5 962.6411,-153.5 303.6411,-153.5"/>
<text text-anchor="start" x="306.6411" y="-158.7" font-family="Courier,monospace" font-size="11.00" fill="#000000"> &#160;&#160;&#160;&#160;&#160;&#160;&#160;&#160;&#160;&#160;&#160;&#160;&#160;&#160;&#160;&#160;&#160;&#160;&#160;&#160;&#160;&#160;&#160;&#160;&#160;&#160;&#160;&#160;&#160;&#160;&#160;&#160;&#160;&#160;&#160;&#160;&#160;&#160;&#160;&#160;Name &#160;&#160;&#160;&#160;&#160;&#160;&#160;&#160;&#160;&#160;&#160;&#160;&#160;&#160;&#160;&#160;&#160;&#160;&#160;&#160;&#160;&#160;&#160;&#160;&#160;&#160;&#160;&#160;&#160;&#160;&#160;&#160;&#160;&#160;&#160;&#160;&#160;&#160;</text>
<polygon fill="none" stroke="#99ccff" points="962.6411,-153.5 962.6411,-170.5 1053.6411,-170.5 1053.6411,-153.5 962.6411,-153.5"/>
<text text-anchor="start" x="971.8352" y="-158.7" font-family="Courier,monospace" font-size="11.00" fill="#000000">string(255)</text>
<polygon fill="none" stroke="#99ccff" points="303.6411,-136.5 303.6411,-153.5 962.6411,-153.5 962.6411,-136.5 303.6411,-136.5"/>
<text text-anchor="start" x="306.6411" y="-141.7" font-family="Courier,monospace" font-size="11.00" fill="#000000"> &#160;&#160;&#160;&#160;&#160;&#160;&#160;&#160;&#160;&#160;&#160;&#160;&#160;&#160;&#160;&#160;&#160;&#160;&#160;&#160;&#160;&#160;&#160;&#160;&#160;&#160;&#160;&#160;&#160;&#160;&#160;&#160;&#160;&#160;&#160;&#160;&#160;&#160;&#160;&#160;LastModifiedById &#160;&#160;&#160;&#160;&#160;&#160;&#160;&#160;&#160;&#160;&#160;&#160;&#160;&#160;&#160;&#160;&#160;&#160;&#160;&#160;&#160;&#160;&#160;&#160;&#160;&#160;&#160;&#160;&#160;&#160;&#160;&#160;&#160;&#160;&#160;&#160;&#160;&#160;</text>
<polygon fill="none" stroke="#99ccff" points="962.6411,-136.5 962.6411,-153.5 1053.6411,-153.5 1053.6411,-136.5 962.6411,-136.5"/>
<text text-anchor="start" x="965.2341" y="-141.7" font-family="Courier,monospace" font-size="11.00" fill="#000000">reference(18)</text>
<polygon fill="none" stroke="#99ccff" points="303.6411,-119.5 303.6411,-136.5 962.6411,-136.5 962.6411,-119.5 303.6411,-119.5"/>
<text text-anchor="start" x="306.6411" y="-124.7" font-family="Courier,monospace" font-size="11.00" fill="#000000"> &#160;&#160;&#160;&#160;&#160;&#160;&#160;&#160;&#160;&#160;&#160;&#160;&#160;&#160;&#160;&#160;&#160;&#160;&#160;&#160;&#160;&#160;&#160;&#160;&#160;&#160;&#160;&#160;&#160;&#160;&#160;&#160;&#160;&#160;&#160;&#160;&#160;&#160;&#160;&#160;LastViewedDate &#160;&#160;&#160;&#160;&#160;&#160;&#160;&#160;&#160;&#160;&#160;&#160;&#160;&#160;&#160;&#160;&#160;&#160;&#160;&#160;&#160;&#160;&#160;&#160;&#160;&#160;&#160;&#160;&#160;&#160;&#160;&#160;&#160;&#160;&#160;&#160;&#160;&#160;</text>
<polygon fill="none" stroke="#99ccff" points="962.6411,-119.5 962.6411,-136.5 1053.6411,-136.5 1053.6411,-119.5 962.6411,-119.5"/>
<text text-anchor="start" x="981.7368" y="-124.7" font-family="Courier,monospace" font-size="11.00" fill="#000000">datetime</text>
<polygon fill="none" stroke="#99ccff" points="303.6411,-102.5 303.6411,-119.5 962.6411,-119.5 962.6411,-102.5 303.6411,-102.5"/>
<text text-anchor="start" x="306.6411" y="-107.7" font-family="Courier,monospace" font-size="11.00" fill="#000000"> &#160;&#160;&#160;&#160;&#160;&#160;&#160;&#160;&#160;&#160;&#160;&#160;&#160;&#160;&#160;&#160;&#160;&#160;&#160;&#160;&#160;&#160;&#160;&#160;&#160;&#160;&#160;&#160;&#160;&#160;&#160;&#160;&#160;&#160;&#160;&#160;&#160;&#160;&#160;&#160;LastReferencedDate &#160;&#160;&#160;&#160;&#160;&#160;&#160;&#160;&#160;&#160;&#160;&#160;&#160;&#160;&#160;&#160;&#160;&#160;&#160;&#160;&#160;&#160;&#160;&#160;&#160;&#160;&#160;&#160;&#160;&#160;&#160;&#160;&#160;&#160;&#160;&#160;&#160;&#160;</text>
<polygon fill="none" stroke="#99ccff" points="962.6411,-102.5 962.6411,-119.5 1053.6411,-119.5 1053.6411,-102.5 962.6411,-102.5"/>
<text text-anchor="start" x="981.7368" y="-107.7" font-family="Courier,monospace" font-size="11.00" fill="#000000">datetime</text>
<polygon fill="none" stroke="#99ccff" points="303.6411,-85.5 303.6411,-102.5 962.6411,-102.5 962.6411,-85.5 303.6411,-85.5"/>
<text text-anchor="start" x="306.6411" y="-90.7" font-family="Courier,monospace" font-size="11.00" fill="#000000"> &#160;&#160;&#160;&#160;&#160;&#160;&#160;&#160;&#160;&#160;&#160;&#160;&#160;&#160;&#160;&#160;&#160;&#160;&#160;&#160;&#160;&#160;&#160;&#160;&#160;&#160;&#160;&#160;&#160;&#160;&#160;&#160;&#160;&#160;&#160;&#160;&#160;&#160;&#160;&#160;LoanApplicationId &#160;&#160;&#160;&#160;&#160;&#160;&#160;&#160;&#160;&#160;&#160;&#160;&#160;&#160;&#160;&#160;&#160;&#160;&#160;&#160;&#160;&#160;&#160;&#160;&#160;&#160;&#160;&#160;&#160;&#160;&#160;&#160;&#160;&#160;&#160;&#160;&#160;&#160;</text>
<polygon fill="none" stroke="#99ccff" points="962.6411,-85.5 962.6411,-102.5 1053.6411,-102.5 1053.6411,-85.5 962.6411,-85.5"/>
<text text-anchor="start" x="965.2341" y="-90.7" font-family="Courier,monospace" font-size="11.00" fill="#000000">reference(18)</text>
<polygon fill="none" stroke="#99ccff" points="303.6411,-68.5 303.6411,-85.5 962.6411,-85.5 962.6411,-68.5 303.6411,-68.5"/>
<text text-anchor="start" x="306.6411" y="-73.7" font-family="Courier,monospace" font-size="11.00" fill="#000000"> &#160;&#160;&#160;&#160;&#160;&#160;&#160;&#160;&#160;&#160;&#160;&#160;&#160;&#160;&#160;&#160;&#160;&#160;&#160;&#160;&#160;&#160;&#160;&#160;&#160;&#160;&#160;&#160;&#160;&#160;&#160;&#160;&#160;&#160;&#160;&#160;&#160;&#160;&#160;&#160;LoanApplicantId &#160;&#160;&#160;&#160;&#160;&#160;&#160;&#160;&#160;&#160;&#160;&#160;&#160;&#160;&#160;&#160;&#160;&#160;&#160;&#160;&#160;&#160;&#160;&#160;&#160;&#160;&#160;&#160;&#160;&#160;&#160;&#160;&#160;&#160;&#160;&#160;&#160;&#160;</text>
<polygon fill="none" stroke="#99ccff" points="962.6411,-68.5 962.6411,-85.5 1053.6411,-85.5 1053.6411,-68.5 962.6411,-68.5"/>
<text text-anchor="start" x="965.2341" y="-73.7" font-family="Courier,monospace" font-size="11.00" fill="#000000">reference(18)</text>
<polygon fill="none" stroke="#99ccff" points="303.6411,-51.5 303.6411,-68.5 962.6411,-68.5 962.6411,-51.5 303.6411,-51.5"/>
<text text-anchor="start" x="306.6411" y="-56.7" font-family="Courier,monospace" font-size="11.00" fill="#000000"> &#160;&#160;&#160;&#160;&#160;&#160;&#160;&#160;&#160;&#160;&#160;&#160;&#160;&#160;&#160;&#160;&#160;&#160;&#160;&#160;&#160;&#160;&#160;&#160;&#160;&#160;&#160;&#160;&#160;&#160;&#160;&#160;&#160;&#160;&#160;&#160;&#160;&#160;&#160;&#160;IncomeSourceType &#160;&#160;&#160;&#160;&#160;&#160;&#160;&#160;&#160;&#160;&#160;&#160;&#160;&#160;&#160;&#160;&#160;&#160;&#160;&#160;&#160;&#160;&#160;&#160;&#160;&#160;&#160;&#160;&#160;&#160;&#160;&#160;&#160;&#160;&#160;&#160;&#160;&#160;</text>
<polygon fill="none" stroke="#99ccff" points="962.6411,-51.5 962.6411,-68.5 1053.6411,-68.5 1053.6411,-51.5 962.6411,-51.5"/>
<text text-anchor="start" x="968.5347" y="-56.7" font-family="Courier,monospace" font-size="11.00" fill="#000000">picklist(40)</text>
<polygon fill="none" stroke="#99ccff" points="303.6411,-34.5 303.6411,-51.5 962.6411,-51.5 962.6411,-34.5 303.6411,-34.5"/>
<text text-anchor="start" x="306.3879" y="-39.7" font-family="Courier,monospace" font-size="11.00" fill="#000000"> &#160;&#160;&#160;&#160;&#160;&#160;&#160;&#160;&#160;&#160;&#160;&#160;&#160;&#160;&#160;&#160;&#160;&#160;&#160;&#160;&#160;&#160;&#160;&#160;&#160;&#160;&#160;&#160;&#160;&#160;&#160;&#160;&#160;&#160;&#160;&#160;&#160;&#160;&#160;&#160;MonthlyIncomeAmount &#160;&#160;&#160;&#160;&#160;&#160;&#160;&#160;&#160;&#160;&#160;&#160;&#160;&#160;&#160;&#160;&#160;&#160;&#160;&#160;&#160;&#160;&#160;&#160;&#160;&#160;&#160;&#160;&#160;&#160;&#160;&#160;&#160;&#160;&#160;&#160;&#160;&#160;</text>
<polygon fill="none" stroke="#99ccff" points="962.6411,-34.5 962.6411,-51.5 1053.6411,-51.5 1053.6411,-34.5 962.6411,-34.5"/>
<text text-anchor="start" x="981.7368" y="-39.7" font-family="Courier,monospace" font-size="11.00" fill="#000000">currency</text>
<polygon fill="none" stroke="#99ccff" points="303.6411,-17.5 303.6411,-34.5 962.6411,-34.5 962.6411,-17.5 303.6411,-17.5"/>
<text text-anchor="start" x="306.3879" y="-22.7" font-family="Courier,monospace" font-size="11.00" fill="#000000"> &#160;&#160;&#160;&#160;&#160;&#160;&#160;&#160;&#160;&#160;&#160;&#160;&#160;&#160;&#160;&#160;&#160;&#160;&#160;&#160;&#160;&#160;&#160;&#160;&#160;&#160;&#160;&#160;&#160;&#160;&#160;&#160;&#160;&#160;&#160;&#160;&#160;&#160;&#160;&#160;IncomeExtIdentifier &#160;&#160;&#160;&#160;&#160;&#160;&#160;&#160;&#160;&#160;&#160;&#160;&#160;&#160;&#160;&#160;&#160;&#160;&#160;&#160;&#160;&#160;&#160;&#160;&#160;&#160;&#160;&#160;&#160;&#160;&#160;&#160;&#160;&#160;&#160;&#160;&#160;&#160;</text>
<polygon fill="none" stroke="#99ccff" points="962.6411,-17.5 962.6411,-34.5 1053.6411,-34.5 1053.6411,-17.5 962.6411,-17.5"/>
<text text-anchor="start" x="971.8352" y="-22.7" font-family="Courier,monospace" font-size="11.00" fill="#000000">string(255)</text>
<polygon fill="none" stroke="#99ccff" points="302.6411,-17 302.6411,-240 1054.6411,-240 1054.6411,-17 302.6411,-17"/>
</a>
</g>
</g>
<!-- Group -->
<g id="node2" class="node">
<title>Group</title>
<text text-anchor="middle" x="93.814" y="-202.2" font-family="Courier,monospace" font-size="11.00" fill="#000000">Group</text>
</g>
<!-- LoanApplicantIncome&#45;&gt;Group -->
<g id="edge1" class="edge">
<title>LoanApplicantIncome:w&#45;&gt;Group:e</title>
<path fill="none" stroke="#ff99cc" d="M288.8587,-196.571C226.7737,-197.1505 157.9701,-201.1455 120.9597,-203.5913"/>
<polygon fill="#ff99cc" stroke="#ff99cc" points="295.6412,-196.5385 303.6584,-200.1 299.6412,-196.5192 303.6411,-196.5 303.6411,-196.5 303.6411,-196.5 299.6412,-196.5192 303.6238,-192.9 295.6412,-196.5385 295.6412,-196.5385"/>
<ellipse fill="none" stroke="#ff99cc" cx="292.4412" cy="-196.5538" rx="3.2" ry="3.2"/>
<text text-anchor="middle" x="245.1345" y="-203.3015" font-family="Monaco" font-size="9.00" fill="#000000">Owner</text>
</g>
<!-- User -->
<g id="node3" class="node">
<title>User</title>
<text text-anchor="middle" x="93.814" y="-150.2" font-family="Courier,monospace" font-size="11.00" fill="#000000">User</text>
</g>
<!-- LoanApplicantIncome&#45;&gt;User -->
<g id="edge2" class="edge">
<title>LoanApplicantIncome:w&#45;&gt;User:e</title>
<path fill="none" stroke="#ff99cc" d="M293.0069,-186.2172C291.5541,-182.8984 289.6956,-179.5502 285.6411,-177.4985 257.416,-163.2159 166.7521,-156.9552 120.9034,-154.6466"/>
<polygon fill="#ff99cc" stroke="#ff99cc" points="297.89,-190.9389 301.1386,-199.088 300.7656,-193.7195 303.6411,-196.5 303.6411,-196.5 303.6411,-196.5 300.7656,-193.7195 306.1436,-193.912 297.89,-190.9389 297.89,-190.9389"/>
<ellipse fill="none" stroke="#ff99cc" cx="295.5896" cy="-188.7145" rx="3.2" ry="3.2"/>
<text text-anchor="middle" x="245.1345" y="-181.3015" font-family="Monaco" font-size="9.00" fill="#000000">Owner</text>
</g>
<!-- LoanApplicantIncome&#45;&gt;User -->
<g id="edge3" class="edge">
<title>LoanApplicantIncome:w&#45;&gt;User:e</title>
<path fill="none" stroke="#ff99cc" d="M288.9974,-145.4987C287.9946,-145.4987 286.8911,-145.4986 285.6411,-145.4985 249.6353,-145.4971 240.6104,-144.2011 204.6279,-145.4985 176.0993,-146.5272 143.5197,-149.0408 121.1082,-150.9785"/>
<polygon fill="#ff99cc" stroke="#ff99cc" points="295.6411,-145.4993 303.6408,-149.1 299.6411,-145.4996 303.6411,-145.5 303.6411,-145.5 303.6411,-145.5 299.6411,-145.4996 303.6414,-141.9 295.6411,-145.4993 295.6411,-145.4993"/>
<ellipse fill="none" stroke="#ff99cc" cx="292.4411" cy="-145.499" rx="3.2" ry="3.2"/>
<text text-anchor="middle" x="245.1345" y="-149.3015" font-family="Monaco" font-size="9.00" fill="#000000">LastModifiedBy</text>
</g>
<!-- ResidentialLoanApplication -->
<g id="node4" class="node">
<title>ResidentialLoanApplication</title>
<text text-anchor="middle" x="93.814" y="-94.2" font-family="Courier,monospace" font-size="11.00" fill="#000000">ResidentialLoanApplication</text>
</g>
<!-- LoanApplicantIncome&#45;&gt;ResidentialLoanApplication -->
<g id="edge4" class="edge">
<title>LoanApplicantIncome:w&#45;&gt;ResidentialLoanApplication:e</title>
<path fill="none" stroke="#ff99cc" d="M289.2348,-93.53C255.2839,-93.6678 219.2809,-94.2616 187.5521,-94.9497"/>
<polygon fill="#ff99cc" stroke="#ff99cc" points="295.6411,-93.5167 303.6486,-97.1 299.6411,-93.5084 303.6411,-93.5 303.6411,-93.5 303.6411,-93.5 299.6411,-93.5084 303.6336,-89.9 295.6411,-93.5167 295.6411,-93.5167"/>
<ellipse fill="none" stroke="#ff99cc" cx="292.4411" cy="-93.5234" rx="3.2" ry="3.2"/>
<text text-anchor="middle" x="245.1345" y="-99.3015" font-family="Monaco" font-size="9.00" fill="#000000">LoanApplication</text>
</g>
<!-- LoanApplicant -->
<g id="node5" class="node">
<title>LoanApplicant</title>
<text text-anchor="middle" x="93.814" y="-45.2" font-family="Courier,monospace" font-size="11.00" fill="#000000">LoanApplicant</text>
</g>
<!-- LoanApplicantIncome&#45;&gt;LoanApplicant -->
<g id="edge5" class="edge">
<title>LoanApplicantIncome:w&#45;&gt;LoanApplicant:e</title>
<path fill="none" stroke="#ff99cc" d="M289.1004,-76.2891C238.3418,-74.8555 183.4806,-66.3828 144.8685,-59.1655"/>
<polygon fill="#ff99cc" stroke="#ff99cc" points="295.642,-76.3839 303.5889,-80.0996 299.6415,-76.442 303.6411,-76.5 303.6411,-76.5 303.6411,-76.5 299.6415,-76.442 303.6934,-72.9004 295.642,-76.3839 295.642,-76.3839"/>
<ellipse fill="none" stroke="#ff99cc" cx="292.4423" cy="-76.3375" rx="3.2" ry="3.2"/>
<text text-anchor="middle" x="245.1345" y="-80.3015" font-family="Monaco" font-size="9.00" fill="#000000">LoanApplicant</text>
</g>
</g>
</svg>
