<?xml version="1.0" encoding="UTF-8" standalone="no"?>
<!DOCTYPE svg PUBLIC "-//W3C//DTD SVG 1.1//EN"
 "http://www.w3.org/Graphics/SVG/1.1/DTD/svg11.dtd">
<!-- Generated by graphviz version 2.40.1 (20161225.0304)
 -->
<!-- Title: Salesforce+ ERD Pages: 1 -->
<svg width="1136pt" height="673pt"
 viewBox="0.00 0.00 1135.64 673.00" xmlns="http://www.w3.org/2000/svg" xmlns:xlink="http://www.w3.org/1999/xlink">
<g id="graph0" class="graph" transform="scale(1 1) rotate(0) translate(4 669)">
<title>Salesforce+ ERD</title>
<polygon fill="#efeffd" stroke="transparent" points="-4,4 -4,-669 1131.6411,-669 1131.6411,4 -4,4"/>
<text text-anchor="middle" x="1079.1345" y="-5.8" font-family="Courier,monospace" font-size="9.00" fill="#000000">Salesforce ERD </text>
<!-- LoanApplicantEmployment -->
<g id="node1" class="node">
<title>LoanApplicantEmployment</title>
<g id="a_node1"><a xlink:href="#" xlink:title=" LoanApplicantEmployment ">
<polygon fill="#ffeeff" stroke="transparent" points="302.6411,-17 302.6411,-665 1127.6411,-665 1127.6411,-17 302.6411,-17"/>
<polygon fill="#add8e6" stroke="transparent" points="304.1411,-647 304.1411,-664 1127.1411,-664 1127.1411,-647 304.1411,-647"/>
<polygon fill="none" stroke="#99ccff" points="304.1411,-647 304.1411,-664 1127.1411,-664 1127.1411,-647 304.1411,-647"/>
<text text-anchor="start" x="639.7288" y="-653.2" font-family="Courier,monospace" font-weight="bold" font-size="11.00" fill="#000000">LoanApplicantEmployment</text>
<polygon fill="#99ccff" stroke="transparent" points="304.1411,-630 304.1411,-647 1036.1411,-647 1036.1411,-630 304.1411,-630"/>
<polygon fill="none" stroke="#99ccff" points="304.1411,-630 304.1411,-647 1036.1411,-647 1036.1411,-630 304.1411,-630"/>
<text text-anchor="start" x="307.1411" y="-636.2" font-family="Courier,monospace" font-size="11.00" fill="#000000"> &#160;&#160;&#160;&#160;&#160;&#160;&#160;&#160;&#160;&#160;&#160;&#160;&#160;&#160;&#160;&#160;&#160;&#160;&#160;&#160;&#160;&#160;&#160;&#160;&#160;&#160;&#160;&#160;&#160;&#160;&#160;&#160;&#160;&#160;&#160;&#160;&#160;&#160;&#160;&#160;&#160;&#160;</text>
<text text-anchor="start" x="590.9873" y="-636.2" font-family="Courier,monospace" font-weight="bold" font-size="11.00" fill="#000000">Id</text>
<text text-anchor="start" x="604.1895" y="-636.2" font-family="Courier,monospace" font-size="11.00" fill="#000000"> &#160;&#160;&#160;&#160;&#160;&#160;&#160;&#160;&#160;&#160;&#160;&#160;&#160;&#160;&#160;&#160;&#160;&#160;&#160;&#160;&#160;&#160;&#160;&#160;&#160;&#160;&#160;&#160;&#160;&#160;&#160;&#160;&#160;&#160;&#160;&#160;&#160;&#160;&#160;</text>
<polygon fill="none" stroke="#99ccff" points="1036.1411,-630 1036.1411,-647 1127.1411,-647 1127.1411,-630 1036.1411,-630"/>
<text text-anchor="start" x="1061.8379" y="-635.2" font-family="Courier,monospace" font-size="11.00" fill="#000000">id(18)</text>
<polygon fill="none" stroke="#99ccff" points="304.1411,-613 304.1411,-630 1036.1411,-630 1036.1411,-613 304.1411,-613"/>
<text text-anchor="start" x="307.1411" y="-618.2" font-family="Courier,monospace" font-size="11.00" fill="#000000"> &#160;&#160;&#160;&#160;&#160;&#160;&#160;&#160;&#160;&#160;&#160;&#160;&#160;&#160;&#160;&#160;&#160;&#160;&#160;&#160;&#160;&#160;&#160;&#160;&#160;&#160;&#160;&#160;&#160;&#160;&#160;&#160;&#160;&#160;&#160;&#160;&#160;&#160;&#160;&#160;OwnerId &#160;&#160;&#160;&#160;&#160;&#160;&#160;&#160;&#160;&#160;&#160;&#160;&#160;&#160;&#160;&#160;&#160;&#160;&#160;&#160;&#160;&#160;&#160;&#160;&#160;&#160;&#160;&#160;&#160;&#160;&#160;&#160;&#160;&#160;&#160;&#160;&#160;&#160;</text>
<polygon fill="none" stroke="#99ccff" points="1036.1411,-613 1036.1411,-630 1127.1411,-630 1127.1411,-613 1036.1411,-613"/>
<text text-anchor="start" x="1038.7341" y="-618.2" font-family="Courier,monospace" font-size="11.00" fill="#000000">reference(18)</text>
<polygon fill="none" stroke="#99ccff" points="304.1411,-596 304.1411,-613 1036.1411,-613 1036.1411,-596 304.1411,-596"/>
<text text-anchor="start" x="307.1411" y="-601.2" font-family="Courier,monospace" font-size="11.00" fill="#000000"> &#160;&#160;&#160;&#160;&#160;&#160;&#160;&#160;&#160;&#160;&#160;&#160;&#160;&#160;&#160;&#160;&#160;&#160;&#160;&#160;&#160;&#160;&#160;&#160;&#160;&#160;&#160;&#160;&#160;&#160;&#160;&#160;&#160;&#160;&#160;&#160;&#160;&#160;&#160;&#160;IsDeleted &#160;&#160;&#160;&#160;&#160;&#160;&#160;&#160;&#160;&#160;&#160;&#160;&#160;&#160;&#160;&#160;&#160;&#160;&#160;&#160;&#160;&#160;&#160;&#160;&#160;&#160;&#160;&#160;&#160;&#160;&#160;&#160;&#160;&#160;&#160;&#160;&#160;&#160;</text>
<polygon fill="none" stroke="#99ccff" points="1036.1411,-596 1036.1411,-613 1127.1411,-613 1127.1411,-596 1036.1411,-596"/>
<text text-anchor="start" x="1058.5374" y="-601.2" font-family="Courier,monospace" font-size="11.00" fill="#000000">boolean</text>
<polygon fill="none" stroke="#99ccff" points="304.1411,-579 304.1411,-596 1036.1411,-596 1036.1411,-579 304.1411,-579"/>
<text text-anchor="start" x="307.1411" y="-584.2" font-family="Courier,monospace" font-size="11.00" fill="#000000"> &#160;&#160;&#160;&#160;&#160;&#160;&#160;&#160;&#160;&#160;&#160;&#160;&#160;&#160;&#160;&#160;&#160;&#160;&#160;&#160;&#160;&#160;&#160;&#160;&#160;&#160;&#160;&#160;&#160;&#160;&#160;&#160;&#160;&#160;&#160;&#160;&#160;&#160;&#160;&#160;Name &#160;&#160;&#160;&#160;&#160;&#160;&#160;&#160;&#160;&#160;&#160;&#160;&#160;&#160;&#160;&#160;&#160;&#160;&#160;&#160;&#160;&#160;&#160;&#160;&#160;&#160;&#160;&#160;&#160;&#160;&#160;&#160;&#160;&#160;&#160;&#160;&#160;&#160;</text>
<polygon fill="none" stroke="#99ccff" points="1036.1411,-579 1036.1411,-596 1127.1411,-596 1127.1411,-579 1036.1411,-579"/>
<text text-anchor="start" x="1045.3352" y="-584.2" font-family="Courier,monospace" font-size="11.00" fill="#000000">string(255)</text>
<polygon fill="none" stroke="#99ccff" points="304.1411,-562 304.1411,-579 1036.1411,-579 1036.1411,-562 304.1411,-562"/>
<text text-anchor="start" x="307.1411" y="-567.2" font-family="Courier,monospace" font-size="11.00" fill="#000000"> &#160;&#160;&#160;&#160;&#160;&#160;&#160;&#160;&#160;&#160;&#160;&#160;&#160;&#160;&#160;&#160;&#160;&#160;&#160;&#160;&#160;&#160;&#160;&#160;&#160;&#160;&#160;&#160;&#160;&#160;&#160;&#160;&#160;&#160;&#160;&#160;&#160;&#160;&#160;&#160;LastModifiedById &#160;&#160;&#160;&#160;&#160;&#160;&#160;&#160;&#160;&#160;&#160;&#160;&#160;&#160;&#160;&#160;&#160;&#160;&#160;&#160;&#160;&#160;&#160;&#160;&#160;&#160;&#160;&#160;&#160;&#160;&#160;&#160;&#160;&#160;&#160;&#160;&#160;&#160;</text>
<polygon fill="none" stroke="#99ccff" points="1036.1411,-562 1036.1411,-579 1127.1411,-579 1127.1411,-562 1036.1411,-562"/>
<text text-anchor="start" x="1038.7341" y="-567.2" font-family="Courier,monospace" font-size="11.00" fill="#000000">reference(18)</text>
<polygon fill="none" stroke="#99ccff" points="304.1411,-545 304.1411,-562 1036.1411,-562 1036.1411,-545 304.1411,-545"/>
<text text-anchor="start" x="307.1411" y="-550.2" font-family="Courier,monospace" font-size="11.00" fill="#000000"> &#160;&#160;&#160;&#160;&#160;&#160;&#160;&#160;&#160;&#160;&#160;&#160;&#160;&#160;&#160;&#160;&#160;&#160;&#160;&#160;&#160;&#160;&#160;&#160;&#160;&#160;&#160;&#160;&#160;&#160;&#160;&#160;&#160;&#160;&#160;&#160;&#160;&#160;&#160;&#160;LastViewedDate &#160;&#160;&#160;&#160;&#160;&#160;&#160;&#160;&#160;&#160;&#160;&#160;&#160;&#160;&#160;&#160;&#160;&#160;&#160;&#160;&#160;&#160;&#160;&#160;&#160;&#160;&#160;&#160;&#160;&#160;&#160;&#160;&#160;&#160;&#160;&#160;&#160;&#160;</text>
<polygon fill="none" stroke="#99ccff" points="1036.1411,-545 1036.1411,-562 1127.1411,-562 1127.1411,-545 1036.1411,-545"/>
<text text-anchor="start" x="1055.2368" y="-550.2" font-family="Courier,monospace" font-size="11.00" fill="#000000">datetime</text>
<polygon fill="none" stroke="#99ccff" points="304.1411,-528 304.1411,-545 1036.1411,-545 1036.1411,-528 304.1411,-528"/>
<text text-anchor="start" x="307.1411" y="-533.2" font-family="Courier,monospace" font-size="11.00" fill="#000000"> &#160;&#160;&#160;&#160;&#160;&#160;&#160;&#160;&#160;&#160;&#160;&#160;&#160;&#160;&#160;&#160;&#160;&#160;&#160;&#160;&#160;&#160;&#160;&#160;&#160;&#160;&#160;&#160;&#160;&#160;&#160;&#160;&#160;&#160;&#160;&#160;&#160;&#160;&#160;&#160;LastReferencedDate &#160;&#160;&#160;&#160;&#160;&#160;&#160;&#160;&#160;&#160;&#160;&#160;&#160;&#160;&#160;&#160;&#160;&#160;&#160;&#160;&#160;&#160;&#160;&#160;&#160;&#160;&#160;&#160;&#160;&#160;&#160;&#160;&#160;&#160;&#160;&#160;&#160;&#160;</text>
<polygon fill="none" stroke="#99ccff" points="1036.1411,-528 1036.1411,-545 1127.1411,-545 1127.1411,-528 1036.1411,-528"/>
<text text-anchor="start" x="1055.2368" y="-533.2" font-family="Courier,monospace" font-size="11.00" fill="#000000">datetime</text>
<polygon fill="none" stroke="#99ccff" points="304.1411,-511 304.1411,-528 1036.1411,-528 1036.1411,-511 304.1411,-511"/>
<text text-anchor="start" x="307.1411" y="-516.2" font-family="Courier,monospace" font-size="11.00" fill="#000000"> &#160;&#160;&#160;&#160;&#160;&#160;&#160;&#160;&#160;&#160;&#160;&#160;&#160;&#160;&#160;&#160;&#160;&#160;&#160;&#160;&#160;&#160;&#160;&#160;&#160;&#160;&#160;&#160;&#160;&#160;&#160;&#160;&#160;&#160;&#160;&#160;&#160;&#160;&#160;&#160;LoanApplicationId &#160;&#160;&#160;&#160;&#160;&#160;&#160;&#160;&#160;&#160;&#160;&#160;&#160;&#160;&#160;&#160;&#160;&#160;&#160;&#160;&#160;&#160;&#160;&#160;&#160;&#160;&#160;&#160;&#160;&#160;&#160;&#160;&#160;&#160;&#160;&#160;&#160;&#160;</text>
<polygon fill="none" stroke="#99ccff" points="1036.1411,-511 1036.1411,-528 1127.1411,-528 1127.1411,-511 1036.1411,-511"/>
<text text-anchor="start" x="1038.7341" y="-516.2" font-family="Courier,monospace" font-size="11.00" fill="#000000">reference(18)</text>
<polygon fill="none" stroke="#99ccff" points="304.1411,-494 304.1411,-511 1036.1411,-511 1036.1411,-494 304.1411,-494"/>
<text text-anchor="start" x="307.1411" y="-499.2" font-family="Courier,monospace" font-size="11.00" fill="#000000"> &#160;&#160;&#160;&#160;&#160;&#160;&#160;&#160;&#160;&#160;&#160;&#160;&#160;&#160;&#160;&#160;&#160;&#160;&#160;&#160;&#160;&#160;&#160;&#160;&#160;&#160;&#160;&#160;&#160;&#160;&#160;&#160;&#160;&#160;&#160;&#160;&#160;&#160;&#160;&#160;LoanApplicantId &#160;&#160;&#160;&#160;&#160;&#160;&#160;&#160;&#160;&#160;&#160;&#160;&#160;&#160;&#160;&#160;&#160;&#160;&#160;&#160;&#160;&#160;&#160;&#160;&#160;&#160;&#160;&#160;&#160;&#160;&#160;&#160;&#160;&#160;&#160;&#160;&#160;&#160;</text>
<polygon fill="none" stroke="#99ccff" points="1036.1411,-494 1036.1411,-511 1127.1411,-511 1127.1411,-494 1036.1411,-494"/>
<text text-anchor="start" x="1038.7341" y="-499.2" font-family="Courier,monospace" font-size="11.00" fill="#000000">reference(18)</text>
<polygon fill="none" stroke="#99ccff" points="304.1411,-477 304.1411,-494 1036.1411,-494 1036.1411,-477 304.1411,-477"/>
<text text-anchor="start" x="307.1411" y="-482.2" font-family="Courier,monospace" font-size="11.00" fill="#000000"> &#160;&#160;&#160;&#160;&#160;&#160;&#160;&#160;&#160;&#160;&#160;&#160;&#160;&#160;&#160;&#160;&#160;&#160;&#160;&#160;&#160;&#160;&#160;&#160;&#160;&#160;&#160;&#160;&#160;&#160;&#160;&#160;&#160;&#160;&#160;&#160;&#160;&#160;&#160;&#160;EmployerName &#160;&#160;&#160;&#160;&#160;&#160;&#160;&#160;&#160;&#160;&#160;&#160;&#160;&#160;&#160;&#160;&#160;&#160;&#160;&#160;&#160;&#160;&#160;&#160;&#160;&#160;&#160;&#160;&#160;&#160;&#160;&#160;&#160;&#160;&#160;&#160;&#160;&#160;</text>
<polygon fill="none" stroke="#99ccff" points="1036.1411,-477 1036.1411,-494 1127.1411,-494 1127.1411,-477 1036.1411,-477"/>
<text text-anchor="start" x="1045.3352" y="-482.2" font-family="Courier,monospace" font-size="11.00" fill="#000000">string(255)</text>
<polygon fill="none" stroke="#99ccff" points="304.1411,-460 304.1411,-477 1036.1411,-477 1036.1411,-460 304.1411,-460"/>
<text text-anchor="start" x="307.1411" y="-465.2" font-family="Courier,monospace" font-size="11.00" fill="#000000"> &#160;&#160;&#160;&#160;&#160;&#160;&#160;&#160;&#160;&#160;&#160;&#160;&#160;&#160;&#160;&#160;&#160;&#160;&#160;&#160;&#160;&#160;&#160;&#160;&#160;&#160;&#160;&#160;&#160;&#160;&#160;&#160;&#160;&#160;&#160;&#160;&#160;&#160;&#160;&#160;EmployerStreet &#160;&#160;&#160;&#160;&#160;&#160;&#160;&#160;&#160;&#160;&#160;&#160;&#160;&#160;&#160;&#160;&#160;&#160;&#160;&#160;&#160;&#160;&#160;&#160;&#160;&#160;&#160;&#160;&#160;&#160;&#160;&#160;&#160;&#160;&#160;&#160;&#160;&#160;</text>
<polygon fill="none" stroke="#99ccff" points="1036.1411,-460 1036.1411,-477 1127.1411,-477 1127.1411,-460 1036.1411,-460"/>
<text text-anchor="start" x="1038.7341" y="-465.2" font-family="Courier,monospace" font-size="11.00" fill="#000000">textarea(255)</text>
<polygon fill="none" stroke="#99ccff" points="304.1411,-443 304.1411,-460 1036.1411,-460 1036.1411,-443 304.1411,-443"/>
<text text-anchor="start" x="307.1411" y="-448.2" font-family="Courier,monospace" font-size="11.00" fill="#000000"> &#160;&#160;&#160;&#160;&#160;&#160;&#160;&#160;&#160;&#160;&#160;&#160;&#160;&#160;&#160;&#160;&#160;&#160;&#160;&#160;&#160;&#160;&#160;&#160;&#160;&#160;&#160;&#160;&#160;&#160;&#160;&#160;&#160;&#160;&#160;&#160;&#160;&#160;&#160;&#160;EmployerCity &#160;&#160;&#160;&#160;&#160;&#160;&#160;&#160;&#160;&#160;&#160;&#160;&#160;&#160;&#160;&#160;&#160;&#160;&#160;&#160;&#160;&#160;&#160;&#160;&#160;&#160;&#160;&#160;&#160;&#160;&#160;&#160;&#160;&#160;&#160;&#160;&#160;&#160;</text>
<polygon fill="none" stroke="#99ccff" points="1036.1411,-443 1036.1411,-460 1127.1411,-460 1127.1411,-443 1036.1411,-443"/>
<text text-anchor="start" x="1048.6357" y="-448.2" font-family="Courier,monospace" font-size="11.00" fill="#000000">string(40)</text>
<polygon fill="none" stroke="#99ccff" points="304.1411,-426 304.1411,-443 1036.1411,-443 1036.1411,-426 304.1411,-426"/>
<text text-anchor="start" x="307.1411" y="-431.2" font-family="Courier,monospace" font-size="11.00" fill="#000000"> &#160;&#160;&#160;&#160;&#160;&#160;&#160;&#160;&#160;&#160;&#160;&#160;&#160;&#160;&#160;&#160;&#160;&#160;&#160;&#160;&#160;&#160;&#160;&#160;&#160;&#160;&#160;&#160;&#160;&#160;&#160;&#160;&#160;&#160;&#160;&#160;&#160;&#160;&#160;&#160;EmployerState &#160;&#160;&#160;&#160;&#160;&#160;&#160;&#160;&#160;&#160;&#160;&#160;&#160;&#160;&#160;&#160;&#160;&#160;&#160;&#160;&#160;&#160;&#160;&#160;&#160;&#160;&#160;&#160;&#160;&#160;&#160;&#160;&#160;&#160;&#160;&#160;&#160;&#160;</text>
<polygon fill="none" stroke="#99ccff" points="1036.1411,-426 1036.1411,-443 1127.1411,-443 1127.1411,-426 1036.1411,-426"/>
<text text-anchor="start" x="1048.6357" y="-431.2" font-family="Courier,monospace" font-size="11.00" fill="#000000">string(80)</text>
<polygon fill="none" stroke="#99ccff" points="304.1411,-409 304.1411,-426 1036.1411,-426 1036.1411,-409 304.1411,-409"/>
<text text-anchor="start" x="307.1411" y="-414.2" font-family="Courier,monospace" font-size="11.00" fill="#000000"> &#160;&#160;&#160;&#160;&#160;&#160;&#160;&#160;&#160;&#160;&#160;&#160;&#160;&#160;&#160;&#160;&#160;&#160;&#160;&#160;&#160;&#160;&#160;&#160;&#160;&#160;&#160;&#160;&#160;&#160;&#160;&#160;&#160;&#160;&#160;&#160;&#160;&#160;&#160;&#160;EmployerPostalCode &#160;&#160;&#160;&#160;&#160;&#160;&#160;&#160;&#160;&#160;&#160;&#160;&#160;&#160;&#160;&#160;&#160;&#160;&#160;&#160;&#160;&#160;&#160;&#160;&#160;&#160;&#160;&#160;&#160;&#160;&#160;&#160;&#160;&#160;&#160;&#160;&#160;&#160;</text>
<polygon fill="none" stroke="#99ccff" points="1036.1411,-409 1036.1411,-426 1127.1411,-426 1127.1411,-409 1036.1411,-409"/>
<text text-anchor="start" x="1048.6357" y="-414.2" font-family="Courier,monospace" font-size="11.00" fill="#000000">string(20)</text>
<polygon fill="none" stroke="#99ccff" points="304.1411,-392 304.1411,-409 1036.1411,-409 1036.1411,-392 304.1411,-392"/>
<text text-anchor="start" x="307.1411" y="-397.2" font-family="Courier,monospace" font-size="11.00" fill="#000000"> &#160;&#160;&#160;&#160;&#160;&#160;&#160;&#160;&#160;&#160;&#160;&#160;&#160;&#160;&#160;&#160;&#160;&#160;&#160;&#160;&#160;&#160;&#160;&#160;&#160;&#160;&#160;&#160;&#160;&#160;&#160;&#160;&#160;&#160;&#160;&#160;&#160;&#160;&#160;&#160;EmployerCountry &#160;&#160;&#160;&#160;&#160;&#160;&#160;&#160;&#160;&#160;&#160;&#160;&#160;&#160;&#160;&#160;&#160;&#160;&#160;&#160;&#160;&#160;&#160;&#160;&#160;&#160;&#160;&#160;&#160;&#160;&#160;&#160;&#160;&#160;&#160;&#160;&#160;&#160;</text>
<polygon fill="none" stroke="#99ccff" points="1036.1411,-392 1036.1411,-409 1127.1411,-409 1127.1411,-392 1036.1411,-392"/>
<text text-anchor="start" x="1048.6357" y="-397.2" font-family="Courier,monospace" font-size="11.00" fill="#000000">string(80)</text>
<polygon fill="none" stroke="#99ccff" points="304.1411,-375 304.1411,-392 1036.1411,-392 1036.1411,-375 304.1411,-375"/>
<text text-anchor="start" x="307.1411" y="-380.2" font-family="Courier,monospace" font-size="11.00" fill="#000000"> &#160;&#160;&#160;&#160;&#160;&#160;&#160;&#160;&#160;&#160;&#160;&#160;&#160;&#160;&#160;&#160;&#160;&#160;&#160;&#160;&#160;&#160;&#160;&#160;&#160;&#160;&#160;&#160;&#160;&#160;&#160;&#160;&#160;&#160;&#160;&#160;&#160;&#160;&#160;&#160;EmployerLatitude &#160;&#160;&#160;&#160;&#160;&#160;&#160;&#160;&#160;&#160;&#160;&#160;&#160;&#160;&#160;&#160;&#160;&#160;&#160;&#160;&#160;&#160;&#160;&#160;&#160;&#160;&#160;&#160;&#160;&#160;&#160;&#160;&#160;&#160;&#160;&#160;&#160;&#160;</text>
<polygon fill="none" stroke="#99ccff" points="1036.1411,-375 1036.1411,-392 1127.1411,-392 1127.1411,-375 1036.1411,-375"/>
<text text-anchor="start" x="1061.8379" y="-380.2" font-family="Courier,monospace" font-size="11.00" fill="#000000">double</text>
<polygon fill="none" stroke="#99ccff" points="304.1411,-358 304.1411,-375 1036.1411,-375 1036.1411,-358 304.1411,-358"/>
<text text-anchor="start" x="307.1411" y="-363.2" font-family="Courier,monospace" font-size="11.00" fill="#000000"> &#160;&#160;&#160;&#160;&#160;&#160;&#160;&#160;&#160;&#160;&#160;&#160;&#160;&#160;&#160;&#160;&#160;&#160;&#160;&#160;&#160;&#160;&#160;&#160;&#160;&#160;&#160;&#160;&#160;&#160;&#160;&#160;&#160;&#160;&#160;&#160;&#160;&#160;&#160;&#160;EmployerLongitude &#160;&#160;&#160;&#160;&#160;&#160;&#160;&#160;&#160;&#160;&#160;&#160;&#160;&#160;&#160;&#160;&#160;&#160;&#160;&#160;&#160;&#160;&#160;&#160;&#160;&#160;&#160;&#160;&#160;&#160;&#160;&#160;&#160;&#160;&#160;&#160;&#160;&#160;</text>
<polygon fill="none" stroke="#99ccff" points="1036.1411,-358 1036.1411,-375 1127.1411,-375 1127.1411,-358 1036.1411,-358"/>
<text text-anchor="start" x="1061.8379" y="-363.2" font-family="Courier,monospace" font-size="11.00" fill="#000000">double</text>
<polygon fill="none" stroke="#99ccff" points="304.1411,-341 304.1411,-358 1036.1411,-358 1036.1411,-341 304.1411,-341"/>
<text text-anchor="start" x="307.1411" y="-346.2" font-family="Courier,monospace" font-size="11.00" fill="#000000"> &#160;&#160;&#160;&#160;&#160;&#160;&#160;&#160;&#160;&#160;&#160;&#160;&#160;&#160;&#160;&#160;&#160;&#160;&#160;&#160;&#160;&#160;&#160;&#160;&#160;&#160;&#160;&#160;&#160;&#160;&#160;&#160;&#160;&#160;&#160;&#160;&#160;&#160;&#160;&#160;EmployerGeocodeAccuracy &#160;&#160;&#160;&#160;&#160;&#160;&#160;&#160;&#160;&#160;&#160;&#160;&#160;&#160;&#160;&#160;&#160;&#160;&#160;&#160;&#160;&#160;&#160;&#160;&#160;&#160;&#160;&#160;&#160;&#160;&#160;&#160;&#160;&#160;&#160;&#160;&#160;&#160;</text>
<polygon fill="none" stroke="#99ccff" points="1036.1411,-341 1036.1411,-358 1127.1411,-358 1127.1411,-341 1036.1411,-341"/>
<text text-anchor="start" x="1038.7341" y="-346.2" font-family="Courier,monospace" font-size="11.00" fill="#000000">picklist(255)</text>
<polygon fill="none" stroke="#99ccff" points="304.1411,-324 304.1411,-341 1036.1411,-341 1036.1411,-324 304.1411,-324"/>
<text text-anchor="start" x="307.1411" y="-329.2" font-family="Courier,monospace" font-size="11.00" fill="#000000"> &#160;&#160;&#160;&#160;&#160;&#160;&#160;&#160;&#160;&#160;&#160;&#160;&#160;&#160;&#160;&#160;&#160;&#160;&#160;&#160;&#160;&#160;&#160;&#160;&#160;&#160;&#160;&#160;&#160;&#160;&#160;&#160;&#160;&#160;&#160;&#160;&#160;&#160;&#160;&#160;EmployerAddress &#160;&#160;&#160;&#160;&#160;&#160;&#160;&#160;&#160;&#160;&#160;&#160;&#160;&#160;&#160;&#160;&#160;&#160;&#160;&#160;&#160;&#160;&#160;&#160;&#160;&#160;&#160;&#160;&#160;&#160;&#160;&#160;&#160;&#160;&#160;&#160;&#160;&#160;</text>
<polygon fill="none" stroke="#99ccff" points="1036.1411,-324 1036.1411,-341 1127.1411,-341 1127.1411,-324 1036.1411,-324"/>
<text text-anchor="start" x="1058.5374" y="-329.2" font-family="Courier,monospace" font-size="11.00" fill="#000000">address</text>
<polygon fill="none" stroke="#99ccff" points="304.1411,-307 304.1411,-324 1036.1411,-324 1036.1411,-307 304.1411,-307"/>
<text text-anchor="start" x="307.1411" y="-312.2" font-family="Courier,monospace" font-size="11.00" fill="#000000"> &#160;&#160;&#160;&#160;&#160;&#160;&#160;&#160;&#160;&#160;&#160;&#160;&#160;&#160;&#160;&#160;&#160;&#160;&#160;&#160;&#160;&#160;&#160;&#160;&#160;&#160;&#160;&#160;&#160;&#160;&#160;&#160;&#160;&#160;&#160;&#160;&#160;&#160;&#160;&#160;IsSelfEmployed &#160;&#160;&#160;&#160;&#160;&#160;&#160;&#160;&#160;&#160;&#160;&#160;&#160;&#160;&#160;&#160;&#160;&#160;&#160;&#160;&#160;&#160;&#160;&#160;&#160;&#160;&#160;&#160;&#160;&#160;&#160;&#160;&#160;&#160;&#160;&#160;&#160;&#160;</text>
<polygon fill="none" stroke="#99ccff" points="1036.1411,-307 1036.1411,-324 1127.1411,-324 1127.1411,-307 1036.1411,-307"/>
<text text-anchor="start" x="1058.5374" y="-312.2" font-family="Courier,monospace" font-size="11.00" fill="#000000">boolean</text>
<polygon fill="none" stroke="#99ccff" points="304.1411,-290 304.1411,-307 1036.1411,-307 1036.1411,-290 304.1411,-290"/>
<text text-anchor="start" x="307.1411" y="-295.2" font-family="Courier,monospace" font-size="11.00" fill="#000000"> &#160;&#160;&#160;&#160;&#160;&#160;&#160;&#160;&#160;&#160;&#160;&#160;&#160;&#160;&#160;&#160;&#160;&#160;&#160;&#160;&#160;&#160;&#160;&#160;&#160;&#160;&#160;&#160;&#160;&#160;&#160;&#160;&#160;&#160;&#160;&#160;&#160;&#160;&#160;&#160;CurrentJobYearCount &#160;&#160;&#160;&#160;&#160;&#160;&#160;&#160;&#160;&#160;&#160;&#160;&#160;&#160;&#160;&#160;&#160;&#160;&#160;&#160;&#160;&#160;&#160;&#160;&#160;&#160;&#160;&#160;&#160;&#160;&#160;&#160;&#160;&#160;&#160;&#160;&#160;&#160;</text>
<polygon fill="none" stroke="#99ccff" points="1036.1411,-290 1036.1411,-307 1127.1411,-307 1127.1411,-290 1036.1411,-290"/>
<text text-anchor="start" x="1071.7395" y="-295.2" font-family="Courier,monospace" font-size="11.00" fill="#000000">int</text>
<polygon fill="none" stroke="#99ccff" points="304.1411,-273 304.1411,-290 1036.1411,-290 1036.1411,-273 304.1411,-273"/>
<text text-anchor="start" x="307.082" y="-278.2" font-family="Courier,monospace" font-size="11.00" fill="#000000"> &#160;&#160;&#160;&#160;&#160;&#160;&#160;&#160;&#160;&#160;&#160;&#160;&#160;&#160;&#160;&#160;&#160;&#160;&#160;&#160;&#160;&#160;&#160;&#160;&#160;&#160;&#160;&#160;&#160;&#160;&#160;&#160;&#160;&#160;&#160;&#160;&#160;&#160;&#160;&#160;CurrentJobAdditionalMonthCount &#160;&#160;&#160;&#160;&#160;&#160;&#160;&#160;&#160;&#160;&#160;&#160;&#160;&#160;&#160;&#160;&#160;&#160;&#160;&#160;&#160;&#160;&#160;&#160;&#160;&#160;&#160;&#160;&#160;&#160;&#160;&#160;&#160;&#160;&#160;&#160;&#160;&#160;</text>
<polygon fill="none" stroke="#99ccff" points="1036.1411,-273 1036.1411,-290 1127.1411,-290 1127.1411,-273 1036.1411,-273"/>
<text text-anchor="start" x="1071.7395" y="-278.2" font-family="Courier,monospace" font-size="11.00" fill="#000000">int</text>
<polygon fill="none" stroke="#99ccff" points="304.1411,-256 304.1411,-273 1036.1411,-273 1036.1411,-256 304.1411,-256"/>
<text text-anchor="start" x="307.1411" y="-261.2" font-family="Courier,monospace" font-size="11.00" fill="#000000"> &#160;&#160;&#160;&#160;&#160;&#160;&#160;&#160;&#160;&#160;&#160;&#160;&#160;&#160;&#160;&#160;&#160;&#160;&#160;&#160;&#160;&#160;&#160;&#160;&#160;&#160;&#160;&#160;&#160;&#160;&#160;&#160;&#160;&#160;&#160;&#160;&#160;&#160;&#160;&#160;IsRelToTransactionParty &#160;&#160;&#160;&#160;&#160;&#160;&#160;&#160;&#160;&#160;&#160;&#160;&#160;&#160;&#160;&#160;&#160;&#160;&#160;&#160;&#160;&#160;&#160;&#160;&#160;&#160;&#160;&#160;&#160;&#160;&#160;&#160;&#160;&#160;&#160;&#160;&#160;&#160;</text>
<polygon fill="none" stroke="#99ccff" points="1036.1411,-256 1036.1411,-273 1127.1411,-273 1127.1411,-256 1036.1411,-256"/>
<text text-anchor="start" x="1058.5374" y="-261.2" font-family="Courier,monospace" font-size="11.00" fill="#000000">boolean</text>
<polygon fill="none" stroke="#99ccff" points="304.1411,-239 304.1411,-256 1036.1411,-256 1036.1411,-239 304.1411,-239"/>
<text text-anchor="start" x="307.1411" y="-244.2" font-family="Courier,monospace" font-size="11.00" fill="#000000"> &#160;&#160;&#160;&#160;&#160;&#160;&#160;&#160;&#160;&#160;&#160;&#160;&#160;&#160;&#160;&#160;&#160;&#160;&#160;&#160;&#160;&#160;&#160;&#160;&#160;&#160;&#160;&#160;&#160;&#160;&#160;&#160;&#160;&#160;&#160;&#160;&#160;&#160;&#160;&#160;JobTitle &#160;&#160;&#160;&#160;&#160;&#160;&#160;&#160;&#160;&#160;&#160;&#160;&#160;&#160;&#160;&#160;&#160;&#160;&#160;&#160;&#160;&#160;&#160;&#160;&#160;&#160;&#160;&#160;&#160;&#160;&#160;&#160;&#160;&#160;&#160;&#160;&#160;&#160;</text>
<polygon fill="none" stroke="#99ccff" points="1036.1411,-239 1036.1411,-256 1127.1411,-256 1127.1411,-239 1036.1411,-239"/>
<text text-anchor="start" x="1045.3352" y="-244.2" font-family="Courier,monospace" font-size="11.00" fill="#000000">string(255)</text>
<polygon fill="none" stroke="#99ccff" points="304.1411,-222 304.1411,-239 1036.1411,-239 1036.1411,-222 304.1411,-222"/>
<text text-anchor="start" x="307.1411" y="-227.2" font-family="Courier,monospace" font-size="11.00" fill="#000000"> &#160;&#160;&#160;&#160;&#160;&#160;&#160;&#160;&#160;&#160;&#160;&#160;&#160;&#160;&#160;&#160;&#160;&#160;&#160;&#160;&#160;&#160;&#160;&#160;&#160;&#160;&#160;&#160;&#160;&#160;&#160;&#160;&#160;&#160;&#160;&#160;&#160;&#160;&#160;&#160;EmployerPhone &#160;&#160;&#160;&#160;&#160;&#160;&#160;&#160;&#160;&#160;&#160;&#160;&#160;&#160;&#160;&#160;&#160;&#160;&#160;&#160;&#160;&#160;&#160;&#160;&#160;&#160;&#160;&#160;&#160;&#160;&#160;&#160;&#160;&#160;&#160;&#160;&#160;&#160;</text>
<polygon fill="none" stroke="#99ccff" points="1036.1411,-222 1036.1411,-239 1127.1411,-239 1127.1411,-222 1036.1411,-222"/>
<text text-anchor="start" x="1051.9363" y="-227.2" font-family="Courier,monospace" font-size="11.00" fill="#000000">phone(40)</text>
<polygon fill="none" stroke="#99ccff" points="304.1411,-205 304.1411,-222 1036.1411,-222 1036.1411,-205 304.1411,-205"/>
<text text-anchor="start" x="307.1411" y="-210.2" font-family="Courier,monospace" font-size="11.00" fill="#000000"> &#160;&#160;&#160;&#160;&#160;&#160;&#160;&#160;&#160;&#160;&#160;&#160;&#160;&#160;&#160;&#160;&#160;&#160;&#160;&#160;&#160;&#160;&#160;&#160;&#160;&#160;&#160;&#160;&#160;&#160;&#160;&#160;&#160;&#160;&#160;&#160;&#160;&#160;&#160;&#160;IsLessThanQuarterShare &#160;&#160;&#160;&#160;&#160;&#160;&#160;&#160;&#160;&#160;&#160;&#160;&#160;&#160;&#160;&#160;&#160;&#160;&#160;&#160;&#160;&#160;&#160;&#160;&#160;&#160;&#160;&#160;&#160;&#160;&#160;&#160;&#160;&#160;&#160;&#160;&#160;&#160;</text>
<polygon fill="none" stroke="#99ccff" points="1036.1411,-205 1036.1411,-222 1127.1411,-222 1127.1411,-205 1036.1411,-205"/>
<text text-anchor="start" x="1058.5374" y="-210.2" font-family="Courier,monospace" font-size="11.00" fill="#000000">boolean</text>
<polygon fill="none" stroke="#99ccff" points="304.1411,-188 304.1411,-205 1036.1411,-205 1036.1411,-188 304.1411,-188"/>
<text text-anchor="start" x="307.1411" y="-193.2" font-family="Courier,monospace" font-size="11.00" fill="#000000"> &#160;&#160;&#160;&#160;&#160;&#160;&#160;&#160;&#160;&#160;&#160;&#160;&#160;&#160;&#160;&#160;&#160;&#160;&#160;&#160;&#160;&#160;&#160;&#160;&#160;&#160;&#160;&#160;&#160;&#160;&#160;&#160;&#160;&#160;&#160;&#160;&#160;&#160;&#160;&#160;StartDate &#160;&#160;&#160;&#160;&#160;&#160;&#160;&#160;&#160;&#160;&#160;&#160;&#160;&#160;&#160;&#160;&#160;&#160;&#160;&#160;&#160;&#160;&#160;&#160;&#160;&#160;&#160;&#160;&#160;&#160;&#160;&#160;&#160;&#160;&#160;&#160;&#160;&#160;</text>
<polygon fill="none" stroke="#99ccff" points="1036.1411,-188 1036.1411,-205 1127.1411,-205 1127.1411,-188 1036.1411,-188"/>
<text text-anchor="start" x="1068.439" y="-193.2" font-family="Courier,monospace" font-size="11.00" fill="#000000">date</text>
<polygon fill="none" stroke="#99ccff" points="304.1411,-171 304.1411,-188 1036.1411,-188 1036.1411,-171 304.1411,-171"/>
<text text-anchor="start" x="307.1411" y="-176.2" font-family="Courier,monospace" font-size="11.00" fill="#000000"> &#160;&#160;&#160;&#160;&#160;&#160;&#160;&#160;&#160;&#160;&#160;&#160;&#160;&#160;&#160;&#160;&#160;&#160;&#160;&#160;&#160;&#160;&#160;&#160;&#160;&#160;&#160;&#160;&#160;&#160;&#160;&#160;&#160;&#160;&#160;&#160;&#160;&#160;&#160;&#160;EndDate &#160;&#160;&#160;&#160;&#160;&#160;&#160;&#160;&#160;&#160;&#160;&#160;&#160;&#160;&#160;&#160;&#160;&#160;&#160;&#160;&#160;&#160;&#160;&#160;&#160;&#160;&#160;&#160;&#160;&#160;&#160;&#160;&#160;&#160;&#160;&#160;&#160;&#160;</text>
<polygon fill="none" stroke="#99ccff" points="1036.1411,-171 1036.1411,-188 1127.1411,-188 1127.1411,-171 1036.1411,-171"/>
<text text-anchor="start" x="1068.439" y="-176.2" font-family="Courier,monospace" font-size="11.00" fill="#000000">date</text>
<polygon fill="none" stroke="#99ccff" points="304.1411,-154 304.1411,-171 1036.1411,-171 1036.1411,-154 304.1411,-154"/>
<text text-anchor="start" x="307.1411" y="-159.2" font-family="Courier,monospace" font-size="11.00" fill="#000000"> &#160;&#160;&#160;&#160;&#160;&#160;&#160;&#160;&#160;&#160;&#160;&#160;&#160;&#160;&#160;&#160;&#160;&#160;&#160;&#160;&#160;&#160;&#160;&#160;&#160;&#160;&#160;&#160;&#160;&#160;&#160;&#160;&#160;&#160;&#160;&#160;&#160;&#160;&#160;&#160;MonthlyIncome &#160;&#160;&#160;&#160;&#160;&#160;&#160;&#160;&#160;&#160;&#160;&#160;&#160;&#160;&#160;&#160;&#160;&#160;&#160;&#160;&#160;&#160;&#160;&#160;&#160;&#160;&#160;&#160;&#160;&#160;&#160;&#160;&#160;&#160;&#160;&#160;&#160;&#160;</text>
<polygon fill="none" stroke="#99ccff" points="1036.1411,-154 1036.1411,-171 1127.1411,-171 1127.1411,-154 1036.1411,-154"/>
<text text-anchor="start" x="1055.2368" y="-159.2" font-family="Courier,monospace" font-size="11.00" fill="#000000">currency</text>
<polygon fill="none" stroke="#99ccff" points="304.1411,-137 304.1411,-154 1036.1411,-154 1036.1411,-137 304.1411,-137"/>
<text text-anchor="start" x="307.1411" y="-142.2" font-family="Courier,monospace" font-size="11.00" fill="#000000"> &#160;&#160;&#160;&#160;&#160;&#160;&#160;&#160;&#160;&#160;&#160;&#160;&#160;&#160;&#160;&#160;&#160;&#160;&#160;&#160;&#160;&#160;&#160;&#160;&#160;&#160;&#160;&#160;&#160;&#160;&#160;&#160;&#160;&#160;&#160;&#160;&#160;&#160;&#160;&#160;MonthlyBaseIncomeAmount &#160;&#160;&#160;&#160;&#160;&#160;&#160;&#160;&#160;&#160;&#160;&#160;&#160;&#160;&#160;&#160;&#160;&#160;&#160;&#160;&#160;&#160;&#160;&#160;&#160;&#160;&#160;&#160;&#160;&#160;&#160;&#160;&#160;&#160;&#160;&#160;&#160;&#160;</text>
<polygon fill="none" stroke="#99ccff" points="1036.1411,-137 1036.1411,-154 1127.1411,-154 1127.1411,-137 1036.1411,-137"/>
<text text-anchor="start" x="1055.2368" y="-142.2" font-family="Courier,monospace" font-size="11.00" fill="#000000">currency</text>
<polygon fill="none" stroke="#99ccff" points="304.1411,-120 304.1411,-137 1036.1411,-137 1036.1411,-120 304.1411,-120"/>
<text text-anchor="start" x="307.1411" y="-125.2" font-family="Courier,monospace" font-size="11.00" fill="#000000"> &#160;&#160;&#160;&#160;&#160;&#160;&#160;&#160;&#160;&#160;&#160;&#160;&#160;&#160;&#160;&#160;&#160;&#160;&#160;&#160;&#160;&#160;&#160;&#160;&#160;&#160;&#160;&#160;&#160;&#160;&#160;&#160;&#160;&#160;&#160;&#160;&#160;&#160;&#160;&#160;MonthlyOvertimeAmount &#160;&#160;&#160;&#160;&#160;&#160;&#160;&#160;&#160;&#160;&#160;&#160;&#160;&#160;&#160;&#160;&#160;&#160;&#160;&#160;&#160;&#160;&#160;&#160;&#160;&#160;&#160;&#160;&#160;&#160;&#160;&#160;&#160;&#160;&#160;&#160;&#160;&#160;</text>
<polygon fill="none" stroke="#99ccff" points="1036.1411,-120 1036.1411,-137 1127.1411,-137 1127.1411,-120 1036.1411,-120"/>
<text text-anchor="start" x="1055.2368" y="-125.2" font-family="Courier,monospace" font-size="11.00" fill="#000000">currency</text>
<polygon fill="none" stroke="#99ccff" points="304.1411,-103 304.1411,-120 1036.1411,-120 1036.1411,-103 304.1411,-103"/>
<text text-anchor="start" x="307.1411" y="-108.2" font-family="Courier,monospace" font-size="11.00" fill="#000000"> &#160;&#160;&#160;&#160;&#160;&#160;&#160;&#160;&#160;&#160;&#160;&#160;&#160;&#160;&#160;&#160;&#160;&#160;&#160;&#160;&#160;&#160;&#160;&#160;&#160;&#160;&#160;&#160;&#160;&#160;&#160;&#160;&#160;&#160;&#160;&#160;&#160;&#160;&#160;&#160;MonthlyBonusAmount &#160;&#160;&#160;&#160;&#160;&#160;&#160;&#160;&#160;&#160;&#160;&#160;&#160;&#160;&#160;&#160;&#160;&#160;&#160;&#160;&#160;&#160;&#160;&#160;&#160;&#160;&#160;&#160;&#160;&#160;&#160;&#160;&#160;&#160;&#160;&#160;&#160;&#160;</text>
<polygon fill="none" stroke="#99ccff" points="1036.1411,-103 1036.1411,-120 1127.1411,-120 1127.1411,-103 1036.1411,-103"/>
<text text-anchor="start" x="1055.2368" y="-108.2" font-family="Courier,monospace" font-size="11.00" fill="#000000">currency</text>
<polygon fill="none" stroke="#99ccff" points="304.1411,-86 304.1411,-103 1036.1411,-103 1036.1411,-86 304.1411,-86"/>
<text text-anchor="start" x="307.1411" y="-91.2" font-family="Courier,monospace" font-size="11.00" fill="#000000"> &#160;&#160;&#160;&#160;&#160;&#160;&#160;&#160;&#160;&#160;&#160;&#160;&#160;&#160;&#160;&#160;&#160;&#160;&#160;&#160;&#160;&#160;&#160;&#160;&#160;&#160;&#160;&#160;&#160;&#160;&#160;&#160;&#160;&#160;&#160;&#160;&#160;&#160;&#160;&#160;MonthlyCommissionAmount &#160;&#160;&#160;&#160;&#160;&#160;&#160;&#160;&#160;&#160;&#160;&#160;&#160;&#160;&#160;&#160;&#160;&#160;&#160;&#160;&#160;&#160;&#160;&#160;&#160;&#160;&#160;&#160;&#160;&#160;&#160;&#160;&#160;&#160;&#160;&#160;&#160;&#160;</text>
<polygon fill="none" stroke="#99ccff" points="1036.1411,-86 1036.1411,-103 1127.1411,-103 1127.1411,-86 1036.1411,-86"/>
<text text-anchor="start" x="1055.2368" y="-91.2" font-family="Courier,monospace" font-size="11.00" fill="#000000">currency</text>
<polygon fill="none" stroke="#99ccff" points="304.1411,-69 304.1411,-86 1036.1411,-86 1036.1411,-69 304.1411,-69"/>
<text text-anchor="start" x="307.1411" y="-74.2" font-family="Courier,monospace" font-size="11.00" fill="#000000"> &#160;&#160;&#160;&#160;&#160;&#160;&#160;&#160;&#160;&#160;&#160;&#160;&#160;&#160;&#160;&#160;&#160;&#160;&#160;&#160;&#160;&#160;&#160;&#160;&#160;&#160;&#160;&#160;&#160;&#160;&#160;&#160;&#160;&#160;&#160;&#160;&#160;&#160;&#160;&#160;MonthlyMilitaryEntlAmt &#160;&#160;&#160;&#160;&#160;&#160;&#160;&#160;&#160;&#160;&#160;&#160;&#160;&#160;&#160;&#160;&#160;&#160;&#160;&#160;&#160;&#160;&#160;&#160;&#160;&#160;&#160;&#160;&#160;&#160;&#160;&#160;&#160;&#160;&#160;&#160;&#160;&#160;</text>
<polygon fill="none" stroke="#99ccff" points="1036.1411,-69 1036.1411,-86 1127.1411,-86 1127.1411,-69 1036.1411,-69"/>
<text text-anchor="start" x="1055.2368" y="-74.2" font-family="Courier,monospace" font-size="11.00" fill="#000000">currency</text>
<polygon fill="none" stroke="#99ccff" points="304.1411,-52 304.1411,-69 1036.1411,-69 1036.1411,-52 304.1411,-52"/>
<text text-anchor="start" x="307.1411" y="-57.2" font-family="Courier,monospace" font-size="11.00" fill="#000000"> &#160;&#160;&#160;&#160;&#160;&#160;&#160;&#160;&#160;&#160;&#160;&#160;&#160;&#160;&#160;&#160;&#160;&#160;&#160;&#160;&#160;&#160;&#160;&#160;&#160;&#160;&#160;&#160;&#160;&#160;&#160;&#160;&#160;&#160;&#160;&#160;&#160;&#160;&#160;&#160;MonthlyOtherIncomeAmount &#160;&#160;&#160;&#160;&#160;&#160;&#160;&#160;&#160;&#160;&#160;&#160;&#160;&#160;&#160;&#160;&#160;&#160;&#160;&#160;&#160;&#160;&#160;&#160;&#160;&#160;&#160;&#160;&#160;&#160;&#160;&#160;&#160;&#160;&#160;&#160;&#160;&#160;</text>
<polygon fill="none" stroke="#99ccff" points="1036.1411,-52 1036.1411,-69 1127.1411,-69 1127.1411,-52 1036.1411,-52"/>
<text text-anchor="start" x="1055.2368" y="-57.2" font-family="Courier,monospace" font-size="11.00" fill="#000000">currency</text>
<polygon fill="none" stroke="#99ccff" points="304.1411,-35 304.1411,-52 1036.1411,-52 1036.1411,-35 304.1411,-35"/>
<text text-anchor="start" x="307.1411" y="-40.2" font-family="Courier,monospace" font-size="11.00" fill="#000000"> &#160;&#160;&#160;&#160;&#160;&#160;&#160;&#160;&#160;&#160;&#160;&#160;&#160;&#160;&#160;&#160;&#160;&#160;&#160;&#160;&#160;&#160;&#160;&#160;&#160;&#160;&#160;&#160;&#160;&#160;&#160;&#160;&#160;&#160;&#160;&#160;&#160;&#160;&#160;&#160;MonthlyTotalIncomeAmount &#160;&#160;&#160;&#160;&#160;&#160;&#160;&#160;&#160;&#160;&#160;&#160;&#160;&#160;&#160;&#160;&#160;&#160;&#160;&#160;&#160;&#160;&#160;&#160;&#160;&#160;&#160;&#160;&#160;&#160;&#160;&#160;&#160;&#160;&#160;&#160;&#160;&#160;</text>
<polygon fill="none" stroke="#99ccff" points="1036.1411,-35 1036.1411,-52 1127.1411,-52 1127.1411,-35 1036.1411,-35"/>
<text text-anchor="start" x="1055.2368" y="-40.2" font-family="Courier,monospace" font-size="11.00" fill="#000000">currency</text>
<polygon fill="none" stroke="#99ccff" points="304.1411,-18 304.1411,-35 1036.1411,-35 1036.1411,-18 304.1411,-18"/>
<text text-anchor="start" x="307.1411" y="-23.2" font-family="Courier,monospace" font-size="11.00" fill="#000000"> &#160;&#160;&#160;&#160;&#160;&#160;&#160;&#160;&#160;&#160;&#160;&#160;&#160;&#160;&#160;&#160;&#160;&#160;&#160;&#160;&#160;&#160;&#160;&#160;&#160;&#160;&#160;&#160;&#160;&#160;&#160;&#160;&#160;&#160;&#160;&#160;&#160;&#160;&#160;&#160;EmploymentExtIdentifier &#160;&#160;&#160;&#160;&#160;&#160;&#160;&#160;&#160;&#160;&#160;&#160;&#160;&#160;&#160;&#160;&#160;&#160;&#160;&#160;&#160;&#160;&#160;&#160;&#160;&#160;&#160;&#160;&#160;&#160;&#160;&#160;&#160;&#160;&#160;&#160;&#160;&#160;</text>
<polygon fill="none" stroke="#99ccff" points="1036.1411,-18 1036.1411,-35 1127.1411,-35 1127.1411,-18 1036.1411,-18"/>
<text text-anchor="start" x="1045.3352" y="-23.2" font-family="Courier,monospace" font-size="11.00" fill="#000000">string(255)</text>
<polygon fill="none" stroke="#99ccff" points="302.6411,-17 302.6411,-665 1127.6411,-665 1127.6411,-17 302.6411,-17"/>
</a>
</g>
</g>
<!-- Group -->
<g id="node2" class="node">
<title>Group</title>
<text text-anchor="middle" x="93.814" y="-627.7" font-family="Courier,monospace" font-size="11.00" fill="#000000">Group</text>
</g>
<!-- LoanApplicantEmployment&#45;&gt;Group -->
<g id="edge1" class="edge">
<title>LoanApplicantEmployment:w&#45;&gt;Group:e</title>
<path fill="none" stroke="#ff99cc" d="M289.7173,-622.0673C227.382,-622.6336 158.2014,-626.6404 121.0245,-629.0913"/>
<polygon fill="#ff99cc" stroke="#ff99cc" points="296.1412,-622.0374 304.1579,-625.6 300.1412,-622.0187 304.1411,-622 304.1411,-622 304.1411,-622 300.1412,-622.0187 304.1243,-618.4 296.1412,-622.0374 296.1412,-622.0374"/>
<ellipse fill="none" stroke="#ff99cc" cx="292.9412" cy="-622.0524" rx="3.2" ry="3.2"/>
<text text-anchor="middle" x="245.1345" y="-628.8015" font-family="Monaco" font-size="9.00" fill="#000000">Owner</text>
</g>
<!-- User -->
<g id="node3" class="node">
<title>User</title>
<text text-anchor="middle" x="93.814" y="-575.7" font-family="Courier,monospace" font-size="11.00" fill="#000000">User</text>
</g>
<!-- LoanApplicantEmployment&#45;&gt;User -->
<g id="edge2" class="edge">
<title>LoanApplicantEmployment:w&#45;&gt;User:e</title>
<path fill="none" stroke="#ff99cc" d="M293.3892,-612.1141C291.8401,-608.6671 289.9283,-605.1312 285.6411,-602.9985 257.3189,-588.9094 166.7009,-582.5572 120.8831,-580.1869"/>
<polygon fill="#ff99cc" stroke="#ff99cc" points="298.2521,-616.5853 301.7045,-624.6501 301.1966,-619.2926 304.1411,-622 304.1411,-622 304.1411,-622 301.1966,-619.2926 306.5777,-619.3499 298.2521,-616.5853 298.2521,-616.5853"/>
<ellipse fill="none" stroke="#ff99cc" cx="295.8964" cy="-614.4194" rx="3.2" ry="3.2"/>
<text text-anchor="middle" x="245.1345" y="-606.8015" font-family="Monaco" font-size="9.00" fill="#000000">Owner</text>
</g>
<!-- LoanApplicantEmployment&#45;&gt;User -->
<g id="edge3" class="edge">
<title>LoanApplicantEmployment:w&#45;&gt;User:e</title>
<path fill="none" stroke="#ff99cc" d="M289.697,-570.9988C288.5076,-570.9987 287.1828,-570.9986 285.6411,-570.9985 249.6353,-570.9971 240.6104,-569.7011 204.6279,-570.9985 176.0993,-572.0272 143.5197,-574.5408 121.1082,-576.4785"/>
<polygon fill="#ff99cc" stroke="#ff99cc" points="296.1411,-570.9993 304.1408,-574.6 300.1411,-570.9996 304.1411,-571 304.1411,-571 304.1411,-571 300.1411,-570.9996 304.1414,-567.4 296.1411,-570.9993 296.1411,-570.9993"/>
<ellipse fill="none" stroke="#ff99cc" cx="292.9411" cy="-570.999" rx="3.2" ry="3.2"/>
<text text-anchor="middle" x="245.1345" y="-574.8015" font-family="Monaco" font-size="9.00" fill="#000000">LastModifiedBy</text>
</g>
<!-- ResidentialLoanApplication -->
<g id="node4" class="node">
<title>ResidentialLoanApplication</title>
<text text-anchor="middle" x="93.814" y="-520.7" font-family="Courier,monospace" font-size="11.00" fill="#000000">ResidentialLoanApplication</text>
</g>
<!-- LoanApplicantEmployment&#45;&gt;ResidentialLoanApplication -->
<g id="edge4" class="edge">
<title>LoanApplicantEmployment:w&#45;&gt;ResidentialLoanApplication:e</title>
<path fill="none" stroke="#ff99cc" d="M289.6655,-520.0302C255.5507,-520.1685 219.3712,-520.7651 187.5141,-521.4554"/>
<polygon fill="#ff99cc" stroke="#ff99cc" points="296.1411,-520.0167 304.1486,-523.6 300.1411,-520.0084 304.1411,-520 304.1411,-520 304.1411,-520 300.1411,-520.0084 304.1336,-516.4 296.1411,-520.0167 296.1411,-520.0167"/>
<ellipse fill="none" stroke="#ff99cc" cx="292.9411" cy="-520.0234" rx="3.2" ry="3.2"/>
<text text-anchor="middle" x="245.1345" y="-525.8015" font-family="Monaco" font-size="9.00" fill="#000000">LoanApplication</text>
</g>
<!-- LoanApplicant -->
<g id="node5" class="node">
<title>LoanApplicant</title>
<text text-anchor="middle" x="93.814" y="-471.7" font-family="Courier,monospace" font-size="11.00" fill="#000000">LoanApplicant</text>
</g>
<!-- LoanApplicantEmployment&#45;&gt;LoanApplicant -->
<g id="edge5" class="edge">
<title>LoanApplicantEmployment:w&#45;&gt;LoanApplicant:e</title>
<path fill="none" stroke="#ff99cc" d="M290.6277,-497.8172C289.2425,-497.1191 287.6448,-496.4791 285.6411,-495.9985 238.7285,-484.746 183.8973,-479.5085 144.8993,-477.0795"/>
<polygon fill="#ff99cc" stroke="#ff99cc" points="296.6716,-500.1352 302.852,-506.3613 300.4064,-501.5676 304.1411,-503 304.1411,-503 304.1411,-503 300.4064,-501.5676 305.4303,-499.6387 296.6716,-500.1352 296.6716,-500.1352"/>
<ellipse fill="none" stroke="#ff99cc" cx="293.6838" cy="-498.9893" rx="3.2" ry="3.2"/>
<text text-anchor="middle" x="245.1345" y="-499.8015" font-family="Monaco" font-size="9.00" fill="#000000">LoanApplicant</text>
</g>
</g>
</svg>
