<?xml version="1.0" encoding="UTF-8" standalone="no"?>
<!DOCTYPE svg PUBLIC "-//W3C//DTD SVG 1.1//EN"
 "http://www.w3.org/Graphics/SVG/1.1/DTD/svg11.dtd">
<!-- Generated by graphviz version 2.40.1 (20161225.0304)
 -->
<!-- Title: Salesforce+ ERD Pages: 1 -->
<svg width="1136pt" height="537pt"
 viewBox="0.00 0.00 1135.64 537.00" xmlns="http://www.w3.org/2000/svg" xmlns:xlink="http://www.w3.org/1999/xlink">
<g id="graph0" class="graph" transform="scale(1 1) rotate(0) translate(4 533)">
<title>Salesforce+ ERD</title>
<polygon fill="#efeffd" stroke="transparent" points="-4,4 -4,-533 1131.6411,-533 1131.6411,4 -4,4"/>
<text text-anchor="middle" x="1079.1345" y="-5.8" font-family="Courier,monospace" font-size="9.00" fill="#000000">Salesforce ERD </text>
<!-- LoanApplicantDeclaration -->
<g id="node1" class="node">
<title>LoanApplicantDeclaration</title>
<g id="a_node1"><a xlink:href="#" xlink:title=" LoanApplicantDeclaration ">
<polygon fill="#ffeeff" stroke="transparent" points="302.6411,-17 302.6411,-529 1127.6411,-529 1127.6411,-17 302.6411,-17"/>
<polygon fill="#add8e6" stroke="transparent" points="304.1411,-511 304.1411,-528 1127.1411,-528 1127.1411,-511 304.1411,-511"/>
<polygon fill="none" stroke="#99ccff" points="304.1411,-511 304.1411,-528 1127.1411,-528 1127.1411,-511 304.1411,-511"/>
<text text-anchor="start" x="636.4282" y="-517.2" font-family="Courier,monospace" font-weight="bold" font-size="11.00" fill="#000000">LoanApplicantDeclaration</text>
<polygon fill="#99ccff" stroke="transparent" points="304.1411,-494 304.1411,-511 996.1411,-511 996.1411,-494 304.1411,-494"/>
<polygon fill="none" stroke="#99ccff" points="304.1411,-494 304.1411,-511 996.1411,-511 996.1411,-494 304.1411,-494"/>
<text text-anchor="start" x="307.1411" y="-500.2" font-family="Courier,monospace" font-size="11.00" fill="#000000"> &#160;&#160;&#160;&#160;&#160;&#160;&#160;&#160;&#160;&#160;&#160;&#160;&#160;&#160;&#160;&#160;&#160;&#160;&#160;&#160;&#160;&#160;&#160;&#160;&#160;&#160;&#160;&#160;&#160;&#160;&#160;&#160;&#160;&#160;&#160;&#160;&#160;&#160;&#160;&#160;&#160;&#160;</text>
<text text-anchor="start" x="590.9873" y="-500.2" font-family="Courier,monospace" font-weight="bold" font-size="11.00" fill="#000000">Id</text>
<text text-anchor="start" x="604.1895" y="-500.2" font-family="Courier,monospace" font-size="11.00" fill="#000000"> &#160;&#160;&#160;&#160;&#160;&#160;&#160;&#160;&#160;&#160;&#160;&#160;&#160;&#160;&#160;&#160;&#160;&#160;&#160;&#160;&#160;&#160;&#160;&#160;&#160;&#160;&#160;&#160;&#160;&#160;&#160;&#160;&#160;&#160;&#160;&#160;&#160;&#160;&#160;</text>
<polygon fill="none" stroke="#99ccff" points="996.1411,-494 996.1411,-511 1127.1411,-511 1127.1411,-494 996.1411,-494"/>
<text text-anchor="start" x="1041.8379" y="-499.2" font-family="Courier,monospace" font-size="11.00" fill="#000000">id(18)</text>
<polygon fill="none" stroke="#99ccff" points="304.1411,-477 304.1411,-494 996.1411,-494 996.1411,-477 304.1411,-477"/>
<text text-anchor="start" x="307.1411" y="-482.2" font-family="Courier,monospace" font-size="11.00" fill="#000000"> &#160;&#160;&#160;&#160;&#160;&#160;&#160;&#160;&#160;&#160;&#160;&#160;&#160;&#160;&#160;&#160;&#160;&#160;&#160;&#160;&#160;&#160;&#160;&#160;&#160;&#160;&#160;&#160;&#160;&#160;&#160;&#160;&#160;&#160;&#160;&#160;&#160;&#160;&#160;&#160;OwnerId &#160;&#160;&#160;&#160;&#160;&#160;&#160;&#160;&#160;&#160;&#160;&#160;&#160;&#160;&#160;&#160;&#160;&#160;&#160;&#160;&#160;&#160;&#160;&#160;&#160;&#160;&#160;&#160;&#160;&#160;&#160;&#160;&#160;&#160;&#160;&#160;&#160;&#160;</text>
<polygon fill="none" stroke="#99ccff" points="996.1411,-477 996.1411,-494 1127.1411,-494 1127.1411,-477 996.1411,-477"/>
<text text-anchor="start" x="1018.7341" y="-482.2" font-family="Courier,monospace" font-size="11.00" fill="#000000">reference(18)</text>
<polygon fill="none" stroke="#99ccff" points="304.1411,-460 304.1411,-477 996.1411,-477 996.1411,-460 304.1411,-460"/>
<text text-anchor="start" x="307.1411" y="-465.2" font-family="Courier,monospace" font-size="11.00" fill="#000000"> &#160;&#160;&#160;&#160;&#160;&#160;&#160;&#160;&#160;&#160;&#160;&#160;&#160;&#160;&#160;&#160;&#160;&#160;&#160;&#160;&#160;&#160;&#160;&#160;&#160;&#160;&#160;&#160;&#160;&#160;&#160;&#160;&#160;&#160;&#160;&#160;&#160;&#160;&#160;&#160;IsDeleted &#160;&#160;&#160;&#160;&#160;&#160;&#160;&#160;&#160;&#160;&#160;&#160;&#160;&#160;&#160;&#160;&#160;&#160;&#160;&#160;&#160;&#160;&#160;&#160;&#160;&#160;&#160;&#160;&#160;&#160;&#160;&#160;&#160;&#160;&#160;&#160;&#160;&#160;</text>
<polygon fill="none" stroke="#99ccff" points="996.1411,-460 996.1411,-477 1127.1411,-477 1127.1411,-460 996.1411,-460"/>
<text text-anchor="start" x="1038.5374" y="-465.2" font-family="Courier,monospace" font-size="11.00" fill="#000000">boolean</text>
<polygon fill="none" stroke="#99ccff" points="304.1411,-443 304.1411,-460 996.1411,-460 996.1411,-443 304.1411,-443"/>
<text text-anchor="start" x="307.1411" y="-448.2" font-family="Courier,monospace" font-size="11.00" fill="#000000"> &#160;&#160;&#160;&#160;&#160;&#160;&#160;&#160;&#160;&#160;&#160;&#160;&#160;&#160;&#160;&#160;&#160;&#160;&#160;&#160;&#160;&#160;&#160;&#160;&#160;&#160;&#160;&#160;&#160;&#160;&#160;&#160;&#160;&#160;&#160;&#160;&#160;&#160;&#160;&#160;Name &#160;&#160;&#160;&#160;&#160;&#160;&#160;&#160;&#160;&#160;&#160;&#160;&#160;&#160;&#160;&#160;&#160;&#160;&#160;&#160;&#160;&#160;&#160;&#160;&#160;&#160;&#160;&#160;&#160;&#160;&#160;&#160;&#160;&#160;&#160;&#160;&#160;&#160;</text>
<polygon fill="none" stroke="#99ccff" points="996.1411,-443 996.1411,-460 1127.1411,-460 1127.1411,-443 996.1411,-443"/>
<text text-anchor="start" x="1025.3352" y="-448.2" font-family="Courier,monospace" font-size="11.00" fill="#000000">string(255)</text>
<polygon fill="none" stroke="#99ccff" points="304.1411,-426 304.1411,-443 996.1411,-443 996.1411,-426 304.1411,-426"/>
<text text-anchor="start" x="307.1411" y="-431.2" font-family="Courier,monospace" font-size="11.00" fill="#000000"> &#160;&#160;&#160;&#160;&#160;&#160;&#160;&#160;&#160;&#160;&#160;&#160;&#160;&#160;&#160;&#160;&#160;&#160;&#160;&#160;&#160;&#160;&#160;&#160;&#160;&#160;&#160;&#160;&#160;&#160;&#160;&#160;&#160;&#160;&#160;&#160;&#160;&#160;&#160;&#160;LastModifiedById &#160;&#160;&#160;&#160;&#160;&#160;&#160;&#160;&#160;&#160;&#160;&#160;&#160;&#160;&#160;&#160;&#160;&#160;&#160;&#160;&#160;&#160;&#160;&#160;&#160;&#160;&#160;&#160;&#160;&#160;&#160;&#160;&#160;&#160;&#160;&#160;&#160;&#160;</text>
<polygon fill="none" stroke="#99ccff" points="996.1411,-426 996.1411,-443 1127.1411,-443 1127.1411,-426 996.1411,-426"/>
<text text-anchor="start" x="1018.7341" y="-431.2" font-family="Courier,monospace" font-size="11.00" fill="#000000">reference(18)</text>
<polygon fill="none" stroke="#99ccff" points="304.1411,-409 304.1411,-426 996.1411,-426 996.1411,-409 304.1411,-409"/>
<text text-anchor="start" x="307.1411" y="-414.2" font-family="Courier,monospace" font-size="11.00" fill="#000000"> &#160;&#160;&#160;&#160;&#160;&#160;&#160;&#160;&#160;&#160;&#160;&#160;&#160;&#160;&#160;&#160;&#160;&#160;&#160;&#160;&#160;&#160;&#160;&#160;&#160;&#160;&#160;&#160;&#160;&#160;&#160;&#160;&#160;&#160;&#160;&#160;&#160;&#160;&#160;&#160;LastViewedDate &#160;&#160;&#160;&#160;&#160;&#160;&#160;&#160;&#160;&#160;&#160;&#160;&#160;&#160;&#160;&#160;&#160;&#160;&#160;&#160;&#160;&#160;&#160;&#160;&#160;&#160;&#160;&#160;&#160;&#160;&#160;&#160;&#160;&#160;&#160;&#160;&#160;&#160;</text>
<polygon fill="none" stroke="#99ccff" points="996.1411,-409 996.1411,-426 1127.1411,-426 1127.1411,-409 996.1411,-409"/>
<text text-anchor="start" x="1035.2368" y="-414.2" font-family="Courier,monospace" font-size="11.00" fill="#000000">datetime</text>
<polygon fill="none" stroke="#99ccff" points="304.1411,-392 304.1411,-409 996.1411,-409 996.1411,-392 304.1411,-392"/>
<text text-anchor="start" x="307.1411" y="-397.2" font-family="Courier,monospace" font-size="11.00" fill="#000000"> &#160;&#160;&#160;&#160;&#160;&#160;&#160;&#160;&#160;&#160;&#160;&#160;&#160;&#160;&#160;&#160;&#160;&#160;&#160;&#160;&#160;&#160;&#160;&#160;&#160;&#160;&#160;&#160;&#160;&#160;&#160;&#160;&#160;&#160;&#160;&#160;&#160;&#160;&#160;&#160;LastReferencedDate &#160;&#160;&#160;&#160;&#160;&#160;&#160;&#160;&#160;&#160;&#160;&#160;&#160;&#160;&#160;&#160;&#160;&#160;&#160;&#160;&#160;&#160;&#160;&#160;&#160;&#160;&#160;&#160;&#160;&#160;&#160;&#160;&#160;&#160;&#160;&#160;&#160;&#160;</text>
<polygon fill="none" stroke="#99ccff" points="996.1411,-392 996.1411,-409 1127.1411,-409 1127.1411,-392 996.1411,-392"/>
<text text-anchor="start" x="1035.2368" y="-397.2" font-family="Courier,monospace" font-size="11.00" fill="#000000">datetime</text>
<polygon fill="none" stroke="#99ccff" points="304.1411,-375 304.1411,-392 996.1411,-392 996.1411,-375 304.1411,-375"/>
<text text-anchor="start" x="307.1411" y="-380.2" font-family="Courier,monospace" font-size="11.00" fill="#000000"> &#160;&#160;&#160;&#160;&#160;&#160;&#160;&#160;&#160;&#160;&#160;&#160;&#160;&#160;&#160;&#160;&#160;&#160;&#160;&#160;&#160;&#160;&#160;&#160;&#160;&#160;&#160;&#160;&#160;&#160;&#160;&#160;&#160;&#160;&#160;&#160;&#160;&#160;&#160;&#160;LoanApplicationId &#160;&#160;&#160;&#160;&#160;&#160;&#160;&#160;&#160;&#160;&#160;&#160;&#160;&#160;&#160;&#160;&#160;&#160;&#160;&#160;&#160;&#160;&#160;&#160;&#160;&#160;&#160;&#160;&#160;&#160;&#160;&#160;&#160;&#160;&#160;&#160;&#160;&#160;</text>
<polygon fill="none" stroke="#99ccff" points="996.1411,-375 996.1411,-392 1127.1411,-392 1127.1411,-375 996.1411,-375"/>
<text text-anchor="start" x="1018.7341" y="-380.2" font-family="Courier,monospace" font-size="11.00" fill="#000000">reference(18)</text>
<polygon fill="none" stroke="#99ccff" points="304.1411,-358 304.1411,-375 996.1411,-375 996.1411,-358 304.1411,-358"/>
<text text-anchor="start" x="307.1411" y="-363.2" font-family="Courier,monospace" font-size="11.00" fill="#000000"> &#160;&#160;&#160;&#160;&#160;&#160;&#160;&#160;&#160;&#160;&#160;&#160;&#160;&#160;&#160;&#160;&#160;&#160;&#160;&#160;&#160;&#160;&#160;&#160;&#160;&#160;&#160;&#160;&#160;&#160;&#160;&#160;&#160;&#160;&#160;&#160;&#160;&#160;&#160;&#160;LoanApplicantId &#160;&#160;&#160;&#160;&#160;&#160;&#160;&#160;&#160;&#160;&#160;&#160;&#160;&#160;&#160;&#160;&#160;&#160;&#160;&#160;&#160;&#160;&#160;&#160;&#160;&#160;&#160;&#160;&#160;&#160;&#160;&#160;&#160;&#160;&#160;&#160;&#160;&#160;</text>
<polygon fill="none" stroke="#99ccff" points="996.1411,-358 996.1411,-375 1127.1411,-375 1127.1411,-358 996.1411,-358"/>
<text text-anchor="start" x="1018.7341" y="-363.2" font-family="Courier,monospace" font-size="11.00" fill="#000000">reference(18)</text>
<polygon fill="none" stroke="#99ccff" points="304.1411,-341 304.1411,-358 996.1411,-358 996.1411,-341 304.1411,-341"/>
<text text-anchor="start" x="307.1411" y="-346.2" font-family="Courier,monospace" font-size="11.00" fill="#000000"> &#160;&#160;&#160;&#160;&#160;&#160;&#160;&#160;&#160;&#160;&#160;&#160;&#160;&#160;&#160;&#160;&#160;&#160;&#160;&#160;&#160;&#160;&#160;&#160;&#160;&#160;&#160;&#160;&#160;&#160;&#160;&#160;&#160;&#160;&#160;&#160;&#160;&#160;&#160;&#160;HasOutstandingJudgement &#160;&#160;&#160;&#160;&#160;&#160;&#160;&#160;&#160;&#160;&#160;&#160;&#160;&#160;&#160;&#160;&#160;&#160;&#160;&#160;&#160;&#160;&#160;&#160;&#160;&#160;&#160;&#160;&#160;&#160;&#160;&#160;&#160;&#160;&#160;&#160;&#160;&#160;</text>
<polygon fill="none" stroke="#99ccff" points="996.1411,-341 996.1411,-358 1127.1411,-358 1127.1411,-341 996.1411,-341"/>
<text text-anchor="start" x="1038.5374" y="-346.2" font-family="Courier,monospace" font-size="11.00" fill="#000000">boolean</text>
<polygon fill="none" stroke="#99ccff" points="304.1411,-324 304.1411,-341 996.1411,-341 996.1411,-324 304.1411,-324"/>
<text text-anchor="start" x="307.1411" y="-329.2" font-family="Courier,monospace" font-size="11.00" fill="#000000"> &#160;&#160;&#160;&#160;&#160;&#160;&#160;&#160;&#160;&#160;&#160;&#160;&#160;&#160;&#160;&#160;&#160;&#160;&#160;&#160;&#160;&#160;&#160;&#160;&#160;&#160;&#160;&#160;&#160;&#160;&#160;&#160;&#160;&#160;&#160;&#160;&#160;&#160;&#160;&#160;HasDeclaredBankruptcy &#160;&#160;&#160;&#160;&#160;&#160;&#160;&#160;&#160;&#160;&#160;&#160;&#160;&#160;&#160;&#160;&#160;&#160;&#160;&#160;&#160;&#160;&#160;&#160;&#160;&#160;&#160;&#160;&#160;&#160;&#160;&#160;&#160;&#160;&#160;&#160;&#160;&#160;</text>
<polygon fill="none" stroke="#99ccff" points="996.1411,-324 996.1411,-341 1127.1411,-341 1127.1411,-324 996.1411,-324"/>
<text text-anchor="start" x="1038.5374" y="-329.2" font-family="Courier,monospace" font-size="11.00" fill="#000000">boolean</text>
<polygon fill="none" stroke="#99ccff" points="304.1411,-307 304.1411,-324 996.1411,-324 996.1411,-307 304.1411,-307"/>
<text text-anchor="start" x="307.1411" y="-312.2" font-family="Courier,monospace" font-size="11.00" fill="#000000"> &#160;&#160;&#160;&#160;&#160;&#160;&#160;&#160;&#160;&#160;&#160;&#160;&#160;&#160;&#160;&#160;&#160;&#160;&#160;&#160;&#160;&#160;&#160;&#160;&#160;&#160;&#160;&#160;&#160;&#160;&#160;&#160;&#160;&#160;&#160;&#160;&#160;&#160;&#160;&#160;IsRelatedToSeller &#160;&#160;&#160;&#160;&#160;&#160;&#160;&#160;&#160;&#160;&#160;&#160;&#160;&#160;&#160;&#160;&#160;&#160;&#160;&#160;&#160;&#160;&#160;&#160;&#160;&#160;&#160;&#160;&#160;&#160;&#160;&#160;&#160;&#160;&#160;&#160;&#160;&#160;</text>
<polygon fill="none" stroke="#99ccff" points="996.1411,-307 996.1411,-324 1127.1411,-324 1127.1411,-307 996.1411,-307"/>
<text text-anchor="start" x="1038.5374" y="-312.2" font-family="Courier,monospace" font-size="11.00" fill="#000000">boolean</text>
<polygon fill="none" stroke="#99ccff" points="304.1411,-290 304.1411,-307 996.1411,-307 996.1411,-290 304.1411,-290"/>
<text text-anchor="start" x="307.1411" y="-295.2" font-family="Courier,monospace" font-size="11.00" fill="#000000"> &#160;&#160;&#160;&#160;&#160;&#160;&#160;&#160;&#160;&#160;&#160;&#160;&#160;&#160;&#160;&#160;&#160;&#160;&#160;&#160;&#160;&#160;&#160;&#160;&#160;&#160;&#160;&#160;&#160;&#160;&#160;&#160;&#160;&#160;&#160;&#160;&#160;&#160;&#160;&#160;HasUndisclAddlPropApp &#160;&#160;&#160;&#160;&#160;&#160;&#160;&#160;&#160;&#160;&#160;&#160;&#160;&#160;&#160;&#160;&#160;&#160;&#160;&#160;&#160;&#160;&#160;&#160;&#160;&#160;&#160;&#160;&#160;&#160;&#160;&#160;&#160;&#160;&#160;&#160;&#160;&#160;</text>
<polygon fill="none" stroke="#99ccff" points="996.1411,-290 996.1411,-307 1127.1411,-307 1127.1411,-290 996.1411,-290"/>
<text text-anchor="start" x="1038.5374" y="-295.2" font-family="Courier,monospace" font-size="11.00" fill="#000000">boolean</text>
<polygon fill="none" stroke="#99ccff" points="304.1411,-273 304.1411,-290 996.1411,-290 996.1411,-273 304.1411,-273"/>
<text text-anchor="start" x="307.1411" y="-278.2" font-family="Courier,monospace" font-size="11.00" fill="#000000"> &#160;&#160;&#160;&#160;&#160;&#160;&#160;&#160;&#160;&#160;&#160;&#160;&#160;&#160;&#160;&#160;&#160;&#160;&#160;&#160;&#160;&#160;&#160;&#160;&#160;&#160;&#160;&#160;&#160;&#160;&#160;&#160;&#160;&#160;&#160;&#160;&#160;&#160;&#160;&#160;HasUndisclAddlCreditApp &#160;&#160;&#160;&#160;&#160;&#160;&#160;&#160;&#160;&#160;&#160;&#160;&#160;&#160;&#160;&#160;&#160;&#160;&#160;&#160;&#160;&#160;&#160;&#160;&#160;&#160;&#160;&#160;&#160;&#160;&#160;&#160;&#160;&#160;&#160;&#160;&#160;&#160;</text>
<polygon fill="none" stroke="#99ccff" points="996.1411,-273 996.1411,-290 1127.1411,-290 1127.1411,-273 996.1411,-273"/>
<text text-anchor="start" x="1038.5374" y="-278.2" font-family="Courier,monospace" font-size="11.00" fill="#000000">boolean</text>
<polygon fill="none" stroke="#99ccff" points="304.1411,-256 304.1411,-273 996.1411,-273 996.1411,-256 304.1411,-256"/>
<text text-anchor="start" x="307.1411" y="-261.2" font-family="Courier,monospace" font-size="11.00" fill="#000000"> &#160;&#160;&#160;&#160;&#160;&#160;&#160;&#160;&#160;&#160;&#160;&#160;&#160;&#160;&#160;&#160;&#160;&#160;&#160;&#160;&#160;&#160;&#160;&#160;&#160;&#160;&#160;&#160;&#160;&#160;&#160;&#160;&#160;&#160;&#160;&#160;&#160;&#160;&#160;&#160;IsSubjectToPriorityLien &#160;&#160;&#160;&#160;&#160;&#160;&#160;&#160;&#160;&#160;&#160;&#160;&#160;&#160;&#160;&#160;&#160;&#160;&#160;&#160;&#160;&#160;&#160;&#160;&#160;&#160;&#160;&#160;&#160;&#160;&#160;&#160;&#160;&#160;&#160;&#160;&#160;&#160;</text>
<polygon fill="none" stroke="#99ccff" points="996.1411,-256 996.1411,-273 1127.1411,-273 1127.1411,-256 996.1411,-256"/>
<text text-anchor="start" x="1038.5374" y="-261.2" font-family="Courier,monospace" font-size="11.00" fill="#000000">boolean</text>
<polygon fill="none" stroke="#99ccff" points="304.1411,-239 304.1411,-256 996.1411,-256 996.1411,-239 304.1411,-239"/>
<text text-anchor="start" x="307.1411" y="-244.2" font-family="Courier,monospace" font-size="11.00" fill="#000000"> &#160;&#160;&#160;&#160;&#160;&#160;&#160;&#160;&#160;&#160;&#160;&#160;&#160;&#160;&#160;&#160;&#160;&#160;&#160;&#160;&#160;&#160;&#160;&#160;&#160;&#160;&#160;&#160;&#160;&#160;&#160;&#160;&#160;&#160;&#160;&#160;&#160;&#160;&#160;&#160;IsCoSignerUndisclDebt &#160;&#160;&#160;&#160;&#160;&#160;&#160;&#160;&#160;&#160;&#160;&#160;&#160;&#160;&#160;&#160;&#160;&#160;&#160;&#160;&#160;&#160;&#160;&#160;&#160;&#160;&#160;&#160;&#160;&#160;&#160;&#160;&#160;&#160;&#160;&#160;&#160;&#160;</text>
<polygon fill="none" stroke="#99ccff" points="996.1411,-239 996.1411,-256 1127.1411,-256 1127.1411,-239 996.1411,-239"/>
<text text-anchor="start" x="1038.5374" y="-244.2" font-family="Courier,monospace" font-size="11.00" fill="#000000">boolean</text>
<polygon fill="none" stroke="#99ccff" points="304.1411,-222 304.1411,-239 996.1411,-239 996.1411,-222 304.1411,-222"/>
<text text-anchor="start" x="307.1411" y="-227.2" font-family="Courier,monospace" font-size="11.00" fill="#000000"> &#160;&#160;&#160;&#160;&#160;&#160;&#160;&#160;&#160;&#160;&#160;&#160;&#160;&#160;&#160;&#160;&#160;&#160;&#160;&#160;&#160;&#160;&#160;&#160;&#160;&#160;&#160;&#160;&#160;&#160;&#160;&#160;&#160;&#160;&#160;&#160;&#160;&#160;&#160;&#160;HasDeedSurrender &#160;&#160;&#160;&#160;&#160;&#160;&#160;&#160;&#160;&#160;&#160;&#160;&#160;&#160;&#160;&#160;&#160;&#160;&#160;&#160;&#160;&#160;&#160;&#160;&#160;&#160;&#160;&#160;&#160;&#160;&#160;&#160;&#160;&#160;&#160;&#160;&#160;&#160;</text>
<polygon fill="none" stroke="#99ccff" points="996.1411,-222 996.1411,-239 1127.1411,-239 1127.1411,-222 996.1411,-222"/>
<text text-anchor="start" x="1038.5374" y="-227.2" font-family="Courier,monospace" font-size="11.00" fill="#000000">boolean</text>
<polygon fill="none" stroke="#99ccff" points="304.1411,-205 304.1411,-222 996.1411,-222 996.1411,-205 304.1411,-205"/>
<text text-anchor="start" x="307.1411" y="-210.2" font-family="Courier,monospace" font-size="11.00" fill="#000000"> &#160;&#160;&#160;&#160;&#160;&#160;&#160;&#160;&#160;&#160;&#160;&#160;&#160;&#160;&#160;&#160;&#160;&#160;&#160;&#160;&#160;&#160;&#160;&#160;&#160;&#160;&#160;&#160;&#160;&#160;&#160;&#160;&#160;&#160;&#160;&#160;&#160;&#160;&#160;&#160;HasPastShortSale &#160;&#160;&#160;&#160;&#160;&#160;&#160;&#160;&#160;&#160;&#160;&#160;&#160;&#160;&#160;&#160;&#160;&#160;&#160;&#160;&#160;&#160;&#160;&#160;&#160;&#160;&#160;&#160;&#160;&#160;&#160;&#160;&#160;&#160;&#160;&#160;&#160;&#160;</text>
<polygon fill="none" stroke="#99ccff" points="996.1411,-205 996.1411,-222 1127.1411,-222 1127.1411,-205 996.1411,-205"/>
<text text-anchor="start" x="1038.5374" y="-210.2" font-family="Courier,monospace" font-size="11.00" fill="#000000">boolean</text>
<polygon fill="none" stroke="#99ccff" points="304.1411,-188 304.1411,-205 996.1411,-205 996.1411,-188 304.1411,-188"/>
<text text-anchor="start" x="307.1411" y="-193.2" font-family="Courier,monospace" font-size="11.00" fill="#000000"> &#160;&#160;&#160;&#160;&#160;&#160;&#160;&#160;&#160;&#160;&#160;&#160;&#160;&#160;&#160;&#160;&#160;&#160;&#160;&#160;&#160;&#160;&#160;&#160;&#160;&#160;&#160;&#160;&#160;&#160;&#160;&#160;&#160;&#160;&#160;&#160;&#160;&#160;&#160;&#160;IsPrimaryResidence &#160;&#160;&#160;&#160;&#160;&#160;&#160;&#160;&#160;&#160;&#160;&#160;&#160;&#160;&#160;&#160;&#160;&#160;&#160;&#160;&#160;&#160;&#160;&#160;&#160;&#160;&#160;&#160;&#160;&#160;&#160;&#160;&#160;&#160;&#160;&#160;&#160;&#160;</text>
<polygon fill="none" stroke="#99ccff" points="996.1411,-188 996.1411,-205 1127.1411,-205 1127.1411,-188 996.1411,-188"/>
<text text-anchor="start" x="1038.5374" y="-193.2" font-family="Courier,monospace" font-size="11.00" fill="#000000">boolean</text>
<polygon fill="none" stroke="#99ccff" points="304.1411,-171 304.1411,-188 996.1411,-188 996.1411,-171 304.1411,-171"/>
<text text-anchor="start" x="307.1411" y="-176.2" font-family="Courier,monospace" font-size="11.00" fill="#000000"> &#160;&#160;&#160;&#160;&#160;&#160;&#160;&#160;&#160;&#160;&#160;&#160;&#160;&#160;&#160;&#160;&#160;&#160;&#160;&#160;&#160;&#160;&#160;&#160;&#160;&#160;&#160;&#160;&#160;&#160;&#160;&#160;&#160;&#160;&#160;&#160;&#160;&#160;&#160;&#160;HasOwnershipInterest &#160;&#160;&#160;&#160;&#160;&#160;&#160;&#160;&#160;&#160;&#160;&#160;&#160;&#160;&#160;&#160;&#160;&#160;&#160;&#160;&#160;&#160;&#160;&#160;&#160;&#160;&#160;&#160;&#160;&#160;&#160;&#160;&#160;&#160;&#160;&#160;&#160;&#160;</text>
<polygon fill="none" stroke="#99ccff" points="996.1411,-171 996.1411,-188 1127.1411,-188 1127.1411,-171 996.1411,-171"/>
<text text-anchor="start" x="1038.5374" y="-176.2" font-family="Courier,monospace" font-size="11.00" fill="#000000">boolean</text>
<polygon fill="none" stroke="#99ccff" points="304.1411,-154 304.1411,-171 996.1411,-171 996.1411,-154 304.1411,-154"/>
<text text-anchor="start" x="307.1411" y="-159.2" font-family="Courier,monospace" font-size="11.00" fill="#000000"> &#160;&#160;&#160;&#160;&#160;&#160;&#160;&#160;&#160;&#160;&#160;&#160;&#160;&#160;&#160;&#160;&#160;&#160;&#160;&#160;&#160;&#160;&#160;&#160;&#160;&#160;&#160;&#160;&#160;&#160;&#160;&#160;&#160;&#160;&#160;&#160;&#160;&#160;&#160;&#160;PriorPropertyUsageType &#160;&#160;&#160;&#160;&#160;&#160;&#160;&#160;&#160;&#160;&#160;&#160;&#160;&#160;&#160;&#160;&#160;&#160;&#160;&#160;&#160;&#160;&#160;&#160;&#160;&#160;&#160;&#160;&#160;&#160;&#160;&#160;&#160;&#160;&#160;&#160;&#160;&#160;</text>
<polygon fill="none" stroke="#99ccff" points="996.1411,-154 996.1411,-171 1127.1411,-171 1127.1411,-154 996.1411,-154"/>
<text text-anchor="start" x="1022.0347" y="-159.2" font-family="Courier,monospace" font-size="11.00" fill="#000000">picklist(40)</text>
<polygon fill="none" stroke="#99ccff" points="304.1411,-137 304.1411,-154 996.1411,-154 996.1411,-137 304.1411,-137"/>
<text text-anchor="start" x="307.1411" y="-142.2" font-family="Courier,monospace" font-size="11.00" fill="#000000"> &#160;&#160;&#160;&#160;&#160;&#160;&#160;&#160;&#160;&#160;&#160;&#160;&#160;&#160;&#160;&#160;&#160;&#160;&#160;&#160;&#160;&#160;&#160;&#160;&#160;&#160;&#160;&#160;&#160;&#160;&#160;&#160;&#160;&#160;&#160;&#160;&#160;&#160;&#160;&#160;PriorPropertyTitleType &#160;&#160;&#160;&#160;&#160;&#160;&#160;&#160;&#160;&#160;&#160;&#160;&#160;&#160;&#160;&#160;&#160;&#160;&#160;&#160;&#160;&#160;&#160;&#160;&#160;&#160;&#160;&#160;&#160;&#160;&#160;&#160;&#160;&#160;&#160;&#160;&#160;&#160;</text>
<polygon fill="none" stroke="#99ccff" points="996.1411,-137 996.1411,-154 1127.1411,-154 1127.1411,-137 996.1411,-137"/>
<text text-anchor="start" x="1022.0347" y="-142.2" font-family="Courier,monospace" font-size="11.00" fill="#000000">picklist(40)</text>
<polygon fill="none" stroke="#99ccff" points="304.1411,-120 304.1411,-137 996.1411,-137 996.1411,-120 304.1411,-120"/>
<text text-anchor="start" x="307.1411" y="-125.2" font-family="Courier,monospace" font-size="11.00" fill="#000000"> &#160;&#160;&#160;&#160;&#160;&#160;&#160;&#160;&#160;&#160;&#160;&#160;&#160;&#160;&#160;&#160;&#160;&#160;&#160;&#160;&#160;&#160;&#160;&#160;&#160;&#160;&#160;&#160;&#160;&#160;&#160;&#160;&#160;&#160;&#160;&#160;&#160;&#160;&#160;&#160;HasBorrowedMoney &#160;&#160;&#160;&#160;&#160;&#160;&#160;&#160;&#160;&#160;&#160;&#160;&#160;&#160;&#160;&#160;&#160;&#160;&#160;&#160;&#160;&#160;&#160;&#160;&#160;&#160;&#160;&#160;&#160;&#160;&#160;&#160;&#160;&#160;&#160;&#160;&#160;&#160;</text>
<polygon fill="none" stroke="#99ccff" points="996.1411,-120 996.1411,-137 1127.1411,-137 1127.1411,-120 996.1411,-120"/>
<text text-anchor="start" x="1038.5374" y="-125.2" font-family="Courier,monospace" font-size="11.00" fill="#000000">boolean</text>
<polygon fill="none" stroke="#99ccff" points="304.1411,-103 304.1411,-120 996.1411,-120 996.1411,-103 304.1411,-103"/>
<text text-anchor="start" x="307.1411" y="-108.2" font-family="Courier,monospace" font-size="11.00" fill="#000000"> &#160;&#160;&#160;&#160;&#160;&#160;&#160;&#160;&#160;&#160;&#160;&#160;&#160;&#160;&#160;&#160;&#160;&#160;&#160;&#160;&#160;&#160;&#160;&#160;&#160;&#160;&#160;&#160;&#160;&#160;&#160;&#160;&#160;&#160;&#160;&#160;&#160;&#160;&#160;&#160;BorrowedAmount &#160;&#160;&#160;&#160;&#160;&#160;&#160;&#160;&#160;&#160;&#160;&#160;&#160;&#160;&#160;&#160;&#160;&#160;&#160;&#160;&#160;&#160;&#160;&#160;&#160;&#160;&#160;&#160;&#160;&#160;&#160;&#160;&#160;&#160;&#160;&#160;&#160;&#160;</text>
<polygon fill="none" stroke="#99ccff" points="996.1411,-103 996.1411,-120 1127.1411,-120 1127.1411,-103 996.1411,-103"/>
<text text-anchor="start" x="1035.2368" y="-108.2" font-family="Courier,monospace" font-size="11.00" fill="#000000">currency</text>
<polygon fill="none" stroke="#99ccff" points="304.1411,-86 304.1411,-103 996.1411,-103 996.1411,-86 304.1411,-86"/>
<text text-anchor="start" x="307.1411" y="-91.2" font-family="Courier,monospace" font-size="11.00" fill="#000000"> &#160;&#160;&#160;&#160;&#160;&#160;&#160;&#160;&#160;&#160;&#160;&#160;&#160;&#160;&#160;&#160;&#160;&#160;&#160;&#160;&#160;&#160;&#160;&#160;&#160;&#160;&#160;&#160;&#160;&#160;&#160;&#160;&#160;&#160;&#160;&#160;&#160;&#160;&#160;&#160;IsPresentlyDelinquent &#160;&#160;&#160;&#160;&#160;&#160;&#160;&#160;&#160;&#160;&#160;&#160;&#160;&#160;&#160;&#160;&#160;&#160;&#160;&#160;&#160;&#160;&#160;&#160;&#160;&#160;&#160;&#160;&#160;&#160;&#160;&#160;&#160;&#160;&#160;&#160;&#160;&#160;</text>
<polygon fill="none" stroke="#99ccff" points="996.1411,-86 996.1411,-103 1127.1411,-103 1127.1411,-86 996.1411,-86"/>
<text text-anchor="start" x="1038.5374" y="-91.2" font-family="Courier,monospace" font-size="11.00" fill="#000000">boolean</text>
<polygon fill="none" stroke="#99ccff" points="304.1411,-69 304.1411,-86 996.1411,-86 996.1411,-69 304.1411,-69"/>
<text text-anchor="start" x="307.1411" y="-74.2" font-family="Courier,monospace" font-size="11.00" fill="#000000"> &#160;&#160;&#160;&#160;&#160;&#160;&#160;&#160;&#160;&#160;&#160;&#160;&#160;&#160;&#160;&#160;&#160;&#160;&#160;&#160;&#160;&#160;&#160;&#160;&#160;&#160;&#160;&#160;&#160;&#160;&#160;&#160;&#160;&#160;&#160;&#160;&#160;&#160;&#160;&#160;IsPartyToLawsuit &#160;&#160;&#160;&#160;&#160;&#160;&#160;&#160;&#160;&#160;&#160;&#160;&#160;&#160;&#160;&#160;&#160;&#160;&#160;&#160;&#160;&#160;&#160;&#160;&#160;&#160;&#160;&#160;&#160;&#160;&#160;&#160;&#160;&#160;&#160;&#160;&#160;&#160;</text>
<polygon fill="none" stroke="#99ccff" points="996.1411,-69 996.1411,-86 1127.1411,-86 1127.1411,-69 996.1411,-69"/>
<text text-anchor="start" x="1038.5374" y="-74.2" font-family="Courier,monospace" font-size="11.00" fill="#000000">boolean</text>
<polygon fill="none" stroke="#99ccff" points="304.1411,-52 304.1411,-69 996.1411,-69 996.1411,-52 304.1411,-52"/>
<text text-anchor="start" x="307.1411" y="-57.2" font-family="Courier,monospace" font-size="11.00" fill="#000000"> &#160;&#160;&#160;&#160;&#160;&#160;&#160;&#160;&#160;&#160;&#160;&#160;&#160;&#160;&#160;&#160;&#160;&#160;&#160;&#160;&#160;&#160;&#160;&#160;&#160;&#160;&#160;&#160;&#160;&#160;&#160;&#160;&#160;&#160;&#160;&#160;&#160;&#160;&#160;&#160;HasPropertyForeclosed &#160;&#160;&#160;&#160;&#160;&#160;&#160;&#160;&#160;&#160;&#160;&#160;&#160;&#160;&#160;&#160;&#160;&#160;&#160;&#160;&#160;&#160;&#160;&#160;&#160;&#160;&#160;&#160;&#160;&#160;&#160;&#160;&#160;&#160;&#160;&#160;&#160;&#160;</text>
<polygon fill="none" stroke="#99ccff" points="996.1411,-52 996.1411,-69 1127.1411,-69 1127.1411,-52 996.1411,-52"/>
<text text-anchor="start" x="1038.5374" y="-57.2" font-family="Courier,monospace" font-size="11.00" fill="#000000">boolean</text>
<polygon fill="none" stroke="#99ccff" points="304.1411,-35 304.1411,-52 996.1411,-52 996.1411,-35 304.1411,-35"/>
<text text-anchor="start" x="307.1411" y="-40.2" font-family="Courier,monospace" font-size="11.00" fill="#000000"> &#160;&#160;&#160;&#160;&#160;&#160;&#160;&#160;&#160;&#160;&#160;&#160;&#160;&#160;&#160;&#160;&#160;&#160;&#160;&#160;&#160;&#160;&#160;&#160;&#160;&#160;&#160;&#160;&#160;&#160;&#160;&#160;&#160;&#160;&#160;&#160;&#160;&#160;&#160;&#160;BankruptcyType &#160;&#160;&#160;&#160;&#160;&#160;&#160;&#160;&#160;&#160;&#160;&#160;&#160;&#160;&#160;&#160;&#160;&#160;&#160;&#160;&#160;&#160;&#160;&#160;&#160;&#160;&#160;&#160;&#160;&#160;&#160;&#160;&#160;&#160;&#160;&#160;&#160;&#160;</text>
<polygon fill="none" stroke="#99ccff" points="996.1411,-35 996.1411,-52 1127.1411,-52 1127.1411,-35 996.1411,-35"/>
<text text-anchor="start" x="998.9309" y="-40.2" font-family="Courier,monospace" font-size="11.00" fill="#000000">multipicklist(4099)</text>
<polygon fill="none" stroke="#99ccff" points="304.1411,-18 304.1411,-35 996.1411,-35 996.1411,-18 304.1411,-18"/>
<text text-anchor="start" x="306.8853" y="-23.2" font-family="Courier,monospace" font-size="11.00" fill="#000000"> &#160;&#160;&#160;&#160;&#160;&#160;&#160;&#160;&#160;&#160;&#160;&#160;&#160;&#160;&#160;&#160;&#160;&#160;&#160;&#160;&#160;&#160;&#160;&#160;&#160;&#160;&#160;&#160;&#160;&#160;&#160;&#160;&#160;&#160;&#160;&#160;&#160;&#160;&#160;&#160;DeclarationExtIdentifier &#160;&#160;&#160;&#160;&#160;&#160;&#160;&#160;&#160;&#160;&#160;&#160;&#160;&#160;&#160;&#160;&#160;&#160;&#160;&#160;&#160;&#160;&#160;&#160;&#160;&#160;&#160;&#160;&#160;&#160;&#160;&#160;&#160;&#160;&#160;&#160;&#160;&#160;</text>
<polygon fill="none" stroke="#99ccff" points="996.1411,-18 996.1411,-35 1127.1411,-35 1127.1411,-18 996.1411,-18"/>
<text text-anchor="start" x="1025.3352" y="-23.2" font-family="Courier,monospace" font-size="11.00" fill="#000000">string(255)</text>
<polygon fill="none" stroke="#99ccff" points="302.6411,-17 302.6411,-529 1127.6411,-529 1127.6411,-17 302.6411,-17"/>
</a>
</g>
</g>
<!-- Group -->
<g id="node2" class="node">
<title>Group</title>
<text text-anchor="middle" x="93.814" y="-491.7" font-family="Courier,monospace" font-size="11.00" fill="#000000">Group</text>
</g>
<!-- LoanApplicantDeclaration&#45;&gt;Group -->
<g id="edge1" class="edge">
<title>LoanApplicantDeclaration:w&#45;&gt;Group:e</title>
<path fill="none" stroke="#ff99cc" d="M289.7173,-486.0673C227.382,-486.6336 158.2014,-490.6404 121.0245,-493.0913"/>
<polygon fill="#ff99cc" stroke="#ff99cc" points="296.1412,-486.0374 304.1579,-489.6 300.1412,-486.0187 304.1411,-486 304.1411,-486 304.1411,-486 300.1412,-486.0187 304.1243,-482.4 296.1412,-486.0374 296.1412,-486.0374"/>
<ellipse fill="none" stroke="#ff99cc" cx="292.9412" cy="-486.0524" rx="3.2" ry="3.2"/>
<text text-anchor="middle" x="245.1345" y="-492.8015" font-family="Monaco" font-size="9.00" fill="#000000">Owner</text>
</g>
<!-- User -->
<g id="node3" class="node">
<title>User</title>
<text text-anchor="middle" x="93.814" y="-439.7" font-family="Courier,monospace" font-size="11.00" fill="#000000">User</text>
</g>
<!-- LoanApplicantDeclaration&#45;&gt;User -->
<g id="edge2" class="edge">
<title>LoanApplicantDeclaration:w&#45;&gt;User:e</title>
<path fill="none" stroke="#ff99cc" d="M293.3892,-476.1141C291.8401,-472.6671 289.9283,-469.1312 285.6411,-466.9985 257.3189,-452.9094 166.7009,-446.5572 120.8831,-444.1869"/>
<polygon fill="#ff99cc" stroke="#ff99cc" points="298.2521,-480.5853 301.7045,-488.6501 301.1966,-483.2926 304.1411,-486 304.1411,-486 304.1411,-486 301.1966,-483.2926 306.5777,-483.3499 298.2521,-480.5853 298.2521,-480.5853"/>
<ellipse fill="none" stroke="#ff99cc" cx="295.8964" cy="-478.4194" rx="3.2" ry="3.2"/>
<text text-anchor="middle" x="245.1345" y="-470.8015" font-family="Monaco" font-size="9.00" fill="#000000">Owner</text>
</g>
<!-- LoanApplicantDeclaration&#45;&gt;User -->
<g id="edge3" class="edge">
<title>LoanApplicantDeclaration:w&#45;&gt;User:e</title>
<path fill="none" stroke="#ff99cc" d="M289.697,-434.9988C288.5076,-434.9987 287.1828,-434.9986 285.6411,-434.9985 249.6353,-434.9971 240.6104,-433.7011 204.6279,-434.9985 176.0993,-436.0272 143.5197,-438.5408 121.1082,-440.4785"/>
<polygon fill="#ff99cc" stroke="#ff99cc" points="296.1411,-434.9993 304.1408,-438.6 300.1411,-434.9996 304.1411,-435 304.1411,-435 304.1411,-435 300.1411,-434.9996 304.1414,-431.4 296.1411,-434.9993 296.1411,-434.9993"/>
<ellipse fill="none" stroke="#ff99cc" cx="292.9411" cy="-434.999" rx="3.2" ry="3.2"/>
<text text-anchor="middle" x="245.1345" y="-438.8015" font-family="Monaco" font-size="9.00" fill="#000000">LastModifiedBy</text>
</g>
<!-- ResidentialLoanApplication -->
<g id="node4" class="node">
<title>ResidentialLoanApplication</title>
<text text-anchor="middle" x="93.814" y="-384.7" font-family="Courier,monospace" font-size="11.00" fill="#000000">ResidentialLoanApplication</text>
</g>
<!-- LoanApplicantDeclaration&#45;&gt;ResidentialLoanApplication -->
<g id="edge4" class="edge">
<title>LoanApplicantDeclaration:w&#45;&gt;ResidentialLoanApplication:e</title>
<path fill="none" stroke="#ff99cc" d="M289.6655,-384.0302C255.5507,-384.1685 219.3712,-384.7651 187.5141,-385.4554"/>
<polygon fill="#ff99cc" stroke="#ff99cc" points="296.1411,-384.0167 304.1486,-387.6 300.1411,-384.0084 304.1411,-384 304.1411,-384 304.1411,-384 300.1411,-384.0084 304.1336,-380.4 296.1411,-384.0167 296.1411,-384.0167"/>
<ellipse fill="none" stroke="#ff99cc" cx="292.9411" cy="-384.0234" rx="3.2" ry="3.2"/>
<text text-anchor="middle" x="245.1345" y="-389.8015" font-family="Monaco" font-size="9.00" fill="#000000">LoanApplication</text>
</g>
<!-- LoanApplicant -->
<g id="node5" class="node">
<title>LoanApplicant</title>
<text text-anchor="middle" x="93.814" y="-335.7" font-family="Courier,monospace" font-size="11.00" fill="#000000">LoanApplicant</text>
</g>
<!-- LoanApplicantDeclaration&#45;&gt;LoanApplicant -->
<g id="edge5" class="edge">
<title>LoanApplicantDeclaration:w&#45;&gt;LoanApplicant:e</title>
<path fill="none" stroke="#ff99cc" d="M290.6277,-361.8172C289.2425,-361.1191 287.6448,-360.4791 285.6411,-359.9985 238.7285,-348.746 183.8973,-343.5085 144.8993,-341.0795"/>
<polygon fill="#ff99cc" stroke="#ff99cc" points="296.6716,-364.1352 302.852,-370.3613 300.4064,-365.5676 304.1411,-367 304.1411,-367 304.1411,-367 300.4064,-365.5676 305.4303,-363.6387 296.6716,-364.1352 296.6716,-364.1352"/>
<ellipse fill="none" stroke="#ff99cc" cx="293.6838" cy="-362.9893" rx="3.2" ry="3.2"/>
<text text-anchor="middle" x="245.1345" y="-363.8015" font-family="Monaco" font-size="9.00" fill="#000000">LoanApplicant</text>
</g>
</g>
</svg>
