<?xml version="1.0" encoding="UTF-8" standalone="no"?>
<!DOCTYPE svg PUBLIC "-//W3C//DTD SVG 1.1//EN"
 "http://www.w3.org/Graphics/SVG/1.1/DTD/svg11.dtd">
<!-- Generated by graphviz version 2.40.1 (20161225.0304)
 -->
<!-- Title: Salesforce+ ERD Pages: 1 -->
<svg width="1096pt" height="214pt"
 viewBox="0.00 0.00 1095.64 214.00" xmlns="http://www.w3.org/2000/svg" xmlns:xlink="http://www.w3.org/1999/xlink">
<g id="graph0" class="graph" transform="scale(1 1) rotate(0) translate(4 210)">
<title>Salesforce+ ERD</title>
<polygon fill="#efeffd" stroke="transparent" points="-4,4 -4,-210 1091.6411,-210 1091.6411,4 -4,4"/>
<text text-anchor="middle" x="1039.1345" y="-5.8" font-family="Courier,monospace" font-size="9.00" fill="#000000">Salesforce ERD </text>
<!-- LoanApplicationTitleHolder -->
<g id="node1" class="node">
<title>LoanApplicationTitleHolder</title>
<g id="a_node1"><a xlink:href="#" xlink:title=" LoanApplicationTitleHolder ">
<polygon fill="#ffeeff" stroke="transparent" points="302.6411,-17 302.6411,-206 1087.6411,-206 1087.6411,-17 302.6411,-17"/>
<polygon fill="#add8e6" stroke="transparent" points="304.1411,-187.5 304.1411,-204.5 1087.1411,-204.5 1087.1411,-187.5 304.1411,-187.5"/>
<polygon fill="none" stroke="#99ccff" points="304.1411,-187.5 304.1411,-204.5 1087.1411,-204.5 1087.1411,-187.5 304.1411,-187.5"/>
<text text-anchor="start" x="609.8271" y="-193.7" font-family="Courier,monospace" font-weight="bold" font-size="11.00" fill="#000000">LoanApplicationTitleHolder</text>
<polygon fill="#99ccff" stroke="transparent" points="304.1411,-170.5 304.1411,-187.5 996.1411,-187.5 996.1411,-170.5 304.1411,-170.5"/>
<polygon fill="none" stroke="#99ccff" points="304.1411,-170.5 304.1411,-187.5 996.1411,-187.5 996.1411,-170.5 304.1411,-170.5"/>
<text text-anchor="start" x="307.1411" y="-176.7" font-family="Courier,monospace" font-size="11.00" fill="#000000"> &#160;&#160;&#160;&#160;&#160;&#160;&#160;&#160;&#160;&#160;&#160;&#160;&#160;&#160;&#160;&#160;&#160;&#160;&#160;&#160;&#160;&#160;&#160;&#160;&#160;&#160;&#160;&#160;&#160;&#160;&#160;&#160;&#160;&#160;&#160;&#160;&#160;&#160;&#160;&#160;&#160;&#160;</text>
<text text-anchor="start" x="590.9873" y="-176.7" font-family="Courier,monospace" font-weight="bold" font-size="11.00" fill="#000000">Id</text>
<text text-anchor="start" x="604.1895" y="-176.7" font-family="Courier,monospace" font-size="11.00" fill="#000000"> &#160;&#160;&#160;&#160;&#160;&#160;&#160;&#160;&#160;&#160;&#160;&#160;&#160;&#160;&#160;&#160;&#160;&#160;&#160;&#160;&#160;&#160;&#160;&#160;&#160;&#160;&#160;&#160;&#160;&#160;&#160;&#160;&#160;&#160;&#160;&#160;&#160;&#160;&#160;</text>
<polygon fill="none" stroke="#99ccff" points="996.1411,-170.5 996.1411,-187.5 1087.1411,-187.5 1087.1411,-170.5 996.1411,-170.5"/>
<text text-anchor="start" x="1021.8379" y="-175.7" font-family="Courier,monospace" font-size="11.00" fill="#000000">id(18)</text>
<polygon fill="none" stroke="#99ccff" points="304.1411,-153.5 304.1411,-170.5 996.1411,-170.5 996.1411,-153.5 304.1411,-153.5"/>
<text text-anchor="start" x="307.1411" y="-158.7" font-family="Courier,monospace" font-size="11.00" fill="#000000"> &#160;&#160;&#160;&#160;&#160;&#160;&#160;&#160;&#160;&#160;&#160;&#160;&#160;&#160;&#160;&#160;&#160;&#160;&#160;&#160;&#160;&#160;&#160;&#160;&#160;&#160;&#160;&#160;&#160;&#160;&#160;&#160;&#160;&#160;&#160;&#160;&#160;&#160;&#160;&#160;IsDeleted &#160;&#160;&#160;&#160;&#160;&#160;&#160;&#160;&#160;&#160;&#160;&#160;&#160;&#160;&#160;&#160;&#160;&#160;&#160;&#160;&#160;&#160;&#160;&#160;&#160;&#160;&#160;&#160;&#160;&#160;&#160;&#160;&#160;&#160;&#160;&#160;&#160;&#160;</text>
<polygon fill="none" stroke="#99ccff" points="996.1411,-153.5 996.1411,-170.5 1087.1411,-170.5 1087.1411,-153.5 996.1411,-153.5"/>
<text text-anchor="start" x="1018.5374" y="-158.7" font-family="Courier,monospace" font-size="11.00" fill="#000000">boolean</text>
<polygon fill="none" stroke="#99ccff" points="304.1411,-136.5 304.1411,-153.5 996.1411,-153.5 996.1411,-136.5 304.1411,-136.5"/>
<text text-anchor="start" x="307.1411" y="-141.7" font-family="Courier,monospace" font-size="11.00" fill="#000000"> &#160;&#160;&#160;&#160;&#160;&#160;&#160;&#160;&#160;&#160;&#160;&#160;&#160;&#160;&#160;&#160;&#160;&#160;&#160;&#160;&#160;&#160;&#160;&#160;&#160;&#160;&#160;&#160;&#160;&#160;&#160;&#160;&#160;&#160;&#160;&#160;&#160;&#160;&#160;&#160;Name &#160;&#160;&#160;&#160;&#160;&#160;&#160;&#160;&#160;&#160;&#160;&#160;&#160;&#160;&#160;&#160;&#160;&#160;&#160;&#160;&#160;&#160;&#160;&#160;&#160;&#160;&#160;&#160;&#160;&#160;&#160;&#160;&#160;&#160;&#160;&#160;&#160;&#160;</text>
<polygon fill="none" stroke="#99ccff" points="996.1411,-136.5 996.1411,-153.5 1087.1411,-153.5 1087.1411,-136.5 996.1411,-136.5"/>
<text text-anchor="start" x="1005.3352" y="-141.7" font-family="Courier,monospace" font-size="11.00" fill="#000000">string(255)</text>
<polygon fill="none" stroke="#99ccff" points="304.1411,-119.5 304.1411,-136.5 996.1411,-136.5 996.1411,-119.5 304.1411,-119.5"/>
<text text-anchor="start" x="307.1411" y="-124.7" font-family="Courier,monospace" font-size="11.00" fill="#000000"> &#160;&#160;&#160;&#160;&#160;&#160;&#160;&#160;&#160;&#160;&#160;&#160;&#160;&#160;&#160;&#160;&#160;&#160;&#160;&#160;&#160;&#160;&#160;&#160;&#160;&#160;&#160;&#160;&#160;&#160;&#160;&#160;&#160;&#160;&#160;&#160;&#160;&#160;&#160;&#160;LastModifiedById &#160;&#160;&#160;&#160;&#160;&#160;&#160;&#160;&#160;&#160;&#160;&#160;&#160;&#160;&#160;&#160;&#160;&#160;&#160;&#160;&#160;&#160;&#160;&#160;&#160;&#160;&#160;&#160;&#160;&#160;&#160;&#160;&#160;&#160;&#160;&#160;&#160;&#160;</text>
<polygon fill="none" stroke="#99ccff" points="996.1411,-119.5 996.1411,-136.5 1087.1411,-136.5 1087.1411,-119.5 996.1411,-119.5"/>
<text text-anchor="start" x="998.7341" y="-124.7" font-family="Courier,monospace" font-size="11.00" fill="#000000">reference(18)</text>
<polygon fill="none" stroke="#99ccff" points="304.1411,-102.5 304.1411,-119.5 996.1411,-119.5 996.1411,-102.5 304.1411,-102.5"/>
<text text-anchor="start" x="307.1411" y="-107.7" font-family="Courier,monospace" font-size="11.00" fill="#000000"> &#160;&#160;&#160;&#160;&#160;&#160;&#160;&#160;&#160;&#160;&#160;&#160;&#160;&#160;&#160;&#160;&#160;&#160;&#160;&#160;&#160;&#160;&#160;&#160;&#160;&#160;&#160;&#160;&#160;&#160;&#160;&#160;&#160;&#160;&#160;&#160;&#160;&#160;&#160;&#160;LastViewedDate &#160;&#160;&#160;&#160;&#160;&#160;&#160;&#160;&#160;&#160;&#160;&#160;&#160;&#160;&#160;&#160;&#160;&#160;&#160;&#160;&#160;&#160;&#160;&#160;&#160;&#160;&#160;&#160;&#160;&#160;&#160;&#160;&#160;&#160;&#160;&#160;&#160;&#160;</text>
<polygon fill="none" stroke="#99ccff" points="996.1411,-102.5 996.1411,-119.5 1087.1411,-119.5 1087.1411,-102.5 996.1411,-102.5"/>
<text text-anchor="start" x="1015.2368" y="-107.7" font-family="Courier,monospace" font-size="11.00" fill="#000000">datetime</text>
<polygon fill="none" stroke="#99ccff" points="304.1411,-85.5 304.1411,-102.5 996.1411,-102.5 996.1411,-85.5 304.1411,-85.5"/>
<text text-anchor="start" x="307.1411" y="-90.7" font-family="Courier,monospace" font-size="11.00" fill="#000000"> &#160;&#160;&#160;&#160;&#160;&#160;&#160;&#160;&#160;&#160;&#160;&#160;&#160;&#160;&#160;&#160;&#160;&#160;&#160;&#160;&#160;&#160;&#160;&#160;&#160;&#160;&#160;&#160;&#160;&#160;&#160;&#160;&#160;&#160;&#160;&#160;&#160;&#160;&#160;&#160;LastReferencedDate &#160;&#160;&#160;&#160;&#160;&#160;&#160;&#160;&#160;&#160;&#160;&#160;&#160;&#160;&#160;&#160;&#160;&#160;&#160;&#160;&#160;&#160;&#160;&#160;&#160;&#160;&#160;&#160;&#160;&#160;&#160;&#160;&#160;&#160;&#160;&#160;&#160;&#160;</text>
<polygon fill="none" stroke="#99ccff" points="996.1411,-85.5 996.1411,-102.5 1087.1411,-102.5 1087.1411,-85.5 996.1411,-85.5"/>
<text text-anchor="start" x="1015.2368" y="-90.7" font-family="Courier,monospace" font-size="11.00" fill="#000000">datetime</text>
<polygon fill="none" stroke="#99ccff" points="304.1411,-68.5 304.1411,-85.5 996.1411,-85.5 996.1411,-68.5 304.1411,-68.5"/>
<text text-anchor="start" x="307.1411" y="-73.7" font-family="Courier,monospace" font-size="11.00" fill="#000000"> &#160;&#160;&#160;&#160;&#160;&#160;&#160;&#160;&#160;&#160;&#160;&#160;&#160;&#160;&#160;&#160;&#160;&#160;&#160;&#160;&#160;&#160;&#160;&#160;&#160;&#160;&#160;&#160;&#160;&#160;&#160;&#160;&#160;&#160;&#160;&#160;&#160;&#160;&#160;&#160;LoanApplicationId &#160;&#160;&#160;&#160;&#160;&#160;&#160;&#160;&#160;&#160;&#160;&#160;&#160;&#160;&#160;&#160;&#160;&#160;&#160;&#160;&#160;&#160;&#160;&#160;&#160;&#160;&#160;&#160;&#160;&#160;&#160;&#160;&#160;&#160;&#160;&#160;&#160;&#160;</text>
<polygon fill="none" stroke="#99ccff" points="996.1411,-68.5 996.1411,-85.5 1087.1411,-85.5 1087.1411,-68.5 996.1411,-68.5"/>
<text text-anchor="start" x="998.7341" y="-73.7" font-family="Courier,monospace" font-size="11.00" fill="#000000">reference(18)</text>
<polygon fill="none" stroke="#99ccff" points="304.1411,-51.5 304.1411,-68.5 996.1411,-68.5 996.1411,-51.5 304.1411,-51.5"/>
<text text-anchor="start" x="307.1411" y="-56.7" font-family="Courier,monospace" font-size="11.00" fill="#000000"> &#160;&#160;&#160;&#160;&#160;&#160;&#160;&#160;&#160;&#160;&#160;&#160;&#160;&#160;&#160;&#160;&#160;&#160;&#160;&#160;&#160;&#160;&#160;&#160;&#160;&#160;&#160;&#160;&#160;&#160;&#160;&#160;&#160;&#160;&#160;&#160;&#160;&#160;&#160;&#160;TitleHolderName &#160;&#160;&#160;&#160;&#160;&#160;&#160;&#160;&#160;&#160;&#160;&#160;&#160;&#160;&#160;&#160;&#160;&#160;&#160;&#160;&#160;&#160;&#160;&#160;&#160;&#160;&#160;&#160;&#160;&#160;&#160;&#160;&#160;&#160;&#160;&#160;&#160;&#160;</text>
<polygon fill="none" stroke="#99ccff" points="996.1411,-51.5 996.1411,-68.5 1087.1411,-68.5 1087.1411,-51.5 996.1411,-51.5"/>
<text text-anchor="start" x="1005.3352" y="-56.7" font-family="Courier,monospace" font-size="11.00" fill="#000000">string(255)</text>
<polygon fill="none" stroke="#99ccff" points="304.1411,-34.5 304.1411,-51.5 996.1411,-51.5 996.1411,-34.5 304.1411,-34.5"/>
<text text-anchor="start" x="307.1411" y="-39.7" font-family="Courier,monospace" font-size="11.00" fill="#000000"> &#160;&#160;&#160;&#160;&#160;&#160;&#160;&#160;&#160;&#160;&#160;&#160;&#160;&#160;&#160;&#160;&#160;&#160;&#160;&#160;&#160;&#160;&#160;&#160;&#160;&#160;&#160;&#160;&#160;&#160;&#160;&#160;&#160;&#160;&#160;&#160;&#160;&#160;&#160;&#160;IsCurrentTitleHolder &#160;&#160;&#160;&#160;&#160;&#160;&#160;&#160;&#160;&#160;&#160;&#160;&#160;&#160;&#160;&#160;&#160;&#160;&#160;&#160;&#160;&#160;&#160;&#160;&#160;&#160;&#160;&#160;&#160;&#160;&#160;&#160;&#160;&#160;&#160;&#160;&#160;&#160;</text>
<polygon fill="none" stroke="#99ccff" points="996.1411,-34.5 996.1411,-51.5 1087.1411,-51.5 1087.1411,-34.5 996.1411,-34.5"/>
<text text-anchor="start" x="1018.5374" y="-39.7" font-family="Courier,monospace" font-size="11.00" fill="#000000">boolean</text>
<polygon fill="none" stroke="#99ccff" points="304.1411,-17.5 304.1411,-34.5 996.1411,-34.5 996.1411,-17.5 304.1411,-17.5"/>
<text text-anchor="start" x="306.8853" y="-22.7" font-family="Courier,monospace" font-size="11.00" fill="#000000"> &#160;&#160;&#160;&#160;&#160;&#160;&#160;&#160;&#160;&#160;&#160;&#160;&#160;&#160;&#160;&#160;&#160;&#160;&#160;&#160;&#160;&#160;&#160;&#160;&#160;&#160;&#160;&#160;&#160;&#160;&#160;&#160;&#160;&#160;&#160;&#160;&#160;&#160;&#160;&#160;TitleHolderExtIdentifier &#160;&#160;&#160;&#160;&#160;&#160;&#160;&#160;&#160;&#160;&#160;&#160;&#160;&#160;&#160;&#160;&#160;&#160;&#160;&#160;&#160;&#160;&#160;&#160;&#160;&#160;&#160;&#160;&#160;&#160;&#160;&#160;&#160;&#160;&#160;&#160;&#160;&#160;</text>
<polygon fill="none" stroke="#99ccff" points="996.1411,-17.5 996.1411,-34.5 1087.1411,-34.5 1087.1411,-17.5 996.1411,-17.5"/>
<text text-anchor="start" x="1005.3352" y="-22.7" font-family="Courier,monospace" font-size="11.00" fill="#000000">string(255)</text>
<polygon fill="none" stroke="#99ccff" points="302.6411,-17 302.6411,-206 1087.6411,-206 1087.6411,-17 302.6411,-17"/>
</a>
</g>
</g>
<!-- User -->
<g id="node2" class="node">
<title>User</title>
<text text-anchor="middle" x="93.814" y="-125.2" font-family="Courier,monospace" font-size="11.00" fill="#000000">User</text>
</g>
<!-- LoanApplicationTitleHolder&#45;&gt;User -->
<g id="edge1" class="edge">
<title>LoanApplicationTitleHolder:w&#45;&gt;User:e</title>
<path fill="none" stroke="#ff99cc" d="M289.729,-128.5C227.4386,-128.5 158.2357,-128.5 121.0404,-128.5"/>
<polygon fill="#ff99cc" stroke="#ff99cc" points="296.1411,-128.5001 304.1411,-132.1 300.1411,-128.5 304.1411,-128.5 304.1411,-128.5 304.1411,-128.5 300.1411,-128.5 304.1411,-124.9 296.1411,-128.5001 296.1411,-128.5001"/>
<ellipse fill="none" stroke="#ff99cc" cx="292.9411" cy="-128.5001" rx="3.2" ry="3.2"/>
<text text-anchor="middle" x="245.1345" y="-133.3015" font-family="Monaco" font-size="9.00" fill="#000000">LastModifiedBy</text>
</g>
<!-- ResidentialLoanApplication -->
<g id="node3" class="node">
<title>ResidentialLoanApplication</title>
<text text-anchor="middle" x="93.814" y="-73.2" font-family="Courier,monospace" font-size="11.00" fill="#000000">ResidentialLoanApplication</text>
</g>
<!-- LoanApplicationTitleHolder&#45;&gt;ResidentialLoanApplication -->
<g id="edge2" class="edge">
<title>LoanApplicationTitleHolder:w&#45;&gt;ResidentialLoanApplication:e</title>
<path fill="none" stroke="#ff99cc" d="M289.6678,-76.5C255.5579,-76.5 219.3793,-76.5 187.5214,-76.5"/>
<polygon fill="#ff99cc" stroke="#ff99cc" points="296.1411,-76.5001 304.1411,-80.1 300.1411,-76.5 304.1411,-76.5 304.1411,-76.5 304.1411,-76.5 300.1411,-76.5 304.1411,-72.9 296.1411,-76.5001 296.1411,-76.5001"/>
<ellipse fill="none" stroke="#ff99cc" cx="292.9411" cy="-76.5001" rx="3.2" ry="3.2"/>
<text text-anchor="middle" x="245.1345" y="-82.3015" font-family="Monaco" font-size="9.00" fill="#000000">LoanApplication</text>
</g>
</g>
</svg>
