<?xml version="1.0" encoding="UTF-8" standalone="no"?>
<!DOCTYPE svg PUBLIC "-//W3C//DTD SVG 1.1//EN"
 "http://www.w3.org/Graphics/SVG/1.1/DTD/svg11.dtd">
<!-- Generated by graphviz version 2.40.1 (20161225.0304)
 -->
<!-- Title: Salesforce+ ERD Pages: 1 -->
<svg width="1110pt" height="401pt"
 viewBox="0.00 0.00 1109.65 401.00" xmlns="http://www.w3.org/2000/svg" xmlns:xlink="http://www.w3.org/1999/xlink">
<g id="graph0" class="graph" transform="scale(1 1) rotate(0) translate(4 397)">
<title>Salesforce+ ERD</title>
<polygon fill="#efeffd" stroke="transparent" points="-4,4 -4,-397 1105.6455,-397 1105.6455,4 -4,4"/>
<text text-anchor="middle" x="1053.1389" y="-5.8" font-family="Courier,monospace" font-size="9.00" fill="#000000">Salesforce ERD </text>
<!-- LoanApplicationLiability -->
<g id="node1" class="node">
<title>LoanApplicationLiability</title>
<g id="a_node1"><a xlink:href="#" xlink:title=" LoanApplicationLiability ">
<polygon fill="#ffeeff" stroke="transparent" points="329.6455,-17 329.6455,-393 1101.6455,-393 1101.6455,-17 329.6455,-17"/>
<polygon fill="#add8e6" stroke="transparent" points="330.6455,-375 330.6455,-392 1100.6455,-392 1100.6455,-375 330.6455,-375"/>
<polygon fill="none" stroke="#99ccff" points="330.6455,-375 330.6455,-392 1100.6455,-392 1100.6455,-375 330.6455,-375"/>
<text text-anchor="start" x="636.4326" y="-381.2" font-family="Courier,monospace" font-weight="bold" font-size="11.00" fill="#000000">LoanApplicationLiability</text>
<polygon fill="#99ccff" stroke="transparent" points="330.6455,-358 330.6455,-375 1009.6455,-375 1009.6455,-358 330.6455,-358"/>
<polygon fill="none" stroke="#99ccff" points="330.6455,-358 330.6455,-375 1009.6455,-375 1009.6455,-358 330.6455,-358"/>
<text text-anchor="start" x="333.6455" y="-364.2" font-family="Courier,monospace" font-size="11.00" fill="#000000"> &#160;&#160;&#160;&#160;&#160;&#160;&#160;&#160;&#160;&#160;&#160;&#160;&#160;&#160;&#160;&#160;&#160;&#160;&#160;&#160;&#160;&#160;&#160;&#160;&#160;&#160;&#160;&#160;&#160;&#160;&#160;&#160;&#160;&#160;&#160;&#160;&#160;&#160;&#160;&#160;&#160;&#160;</text>
<text text-anchor="start" x="617.4917" y="-364.2" font-family="Courier,monospace" font-weight="bold" font-size="11.00" fill="#000000">Id</text>
<text text-anchor="start" x="630.6938" y="-364.2" font-family="Courier,monospace" font-size="11.00" fill="#000000"> &#160;&#160;&#160;&#160;&#160;&#160;&#160;&#160;&#160;&#160;&#160;&#160;&#160;&#160;&#160;&#160;&#160;&#160;&#160;&#160;&#160;&#160;&#160;&#160;&#160;&#160;&#160;&#160;&#160;&#160;&#160;&#160;&#160;&#160;&#160;&#160;&#160;&#160;&#160;</text>
<polygon fill="none" stroke="#99ccff" points="1009.6455,-358 1009.6455,-375 1100.6455,-375 1100.6455,-358 1009.6455,-358"/>
<text text-anchor="start" x="1035.3423" y="-363.2" font-family="Courier,monospace" font-size="11.00" fill="#000000">id(18)</text>
<polygon fill="none" stroke="#99ccff" points="330.6455,-341 330.6455,-358 1009.6455,-358 1009.6455,-341 330.6455,-341"/>
<text text-anchor="start" x="333.6455" y="-346.2" font-family="Courier,monospace" font-size="11.00" fill="#000000"> &#160;&#160;&#160;&#160;&#160;&#160;&#160;&#160;&#160;&#160;&#160;&#160;&#160;&#160;&#160;&#160;&#160;&#160;&#160;&#160;&#160;&#160;&#160;&#160;&#160;&#160;&#160;&#160;&#160;&#160;&#160;&#160;&#160;&#160;&#160;&#160;&#160;&#160;&#160;&#160;OwnerId &#160;&#160;&#160;&#160;&#160;&#160;&#160;&#160;&#160;&#160;&#160;&#160;&#160;&#160;&#160;&#160;&#160;&#160;&#160;&#160;&#160;&#160;&#160;&#160;&#160;&#160;&#160;&#160;&#160;&#160;&#160;&#160;&#160;&#160;&#160;&#160;&#160;&#160;</text>
<polygon fill="none" stroke="#99ccff" points="1009.6455,-341 1009.6455,-358 1100.6455,-358 1100.6455,-341 1009.6455,-341"/>
<text text-anchor="start" x="1012.2385" y="-346.2" font-family="Courier,monospace" font-size="11.00" fill="#000000">reference(18)</text>
<polygon fill="none" stroke="#99ccff" points="330.6455,-324 330.6455,-341 1009.6455,-341 1009.6455,-324 330.6455,-324"/>
<text text-anchor="start" x="333.6455" y="-329.2" font-family="Courier,monospace" font-size="11.00" fill="#000000"> &#160;&#160;&#160;&#160;&#160;&#160;&#160;&#160;&#160;&#160;&#160;&#160;&#160;&#160;&#160;&#160;&#160;&#160;&#160;&#160;&#160;&#160;&#160;&#160;&#160;&#160;&#160;&#160;&#160;&#160;&#160;&#160;&#160;&#160;&#160;&#160;&#160;&#160;&#160;&#160;IsDeleted &#160;&#160;&#160;&#160;&#160;&#160;&#160;&#160;&#160;&#160;&#160;&#160;&#160;&#160;&#160;&#160;&#160;&#160;&#160;&#160;&#160;&#160;&#160;&#160;&#160;&#160;&#160;&#160;&#160;&#160;&#160;&#160;&#160;&#160;&#160;&#160;&#160;&#160;</text>
<polygon fill="none" stroke="#99ccff" points="1009.6455,-324 1009.6455,-341 1100.6455,-341 1100.6455,-324 1009.6455,-324"/>
<text text-anchor="start" x="1032.0417" y="-329.2" font-family="Courier,monospace" font-size="11.00" fill="#000000">boolean</text>
<polygon fill="none" stroke="#99ccff" points="330.6455,-307 330.6455,-324 1009.6455,-324 1009.6455,-307 330.6455,-307"/>
<text text-anchor="start" x="333.6455" y="-312.2" font-family="Courier,monospace" font-size="11.00" fill="#000000"> &#160;&#160;&#160;&#160;&#160;&#160;&#160;&#160;&#160;&#160;&#160;&#160;&#160;&#160;&#160;&#160;&#160;&#160;&#160;&#160;&#160;&#160;&#160;&#160;&#160;&#160;&#160;&#160;&#160;&#160;&#160;&#160;&#160;&#160;&#160;&#160;&#160;&#160;&#160;&#160;Name &#160;&#160;&#160;&#160;&#160;&#160;&#160;&#160;&#160;&#160;&#160;&#160;&#160;&#160;&#160;&#160;&#160;&#160;&#160;&#160;&#160;&#160;&#160;&#160;&#160;&#160;&#160;&#160;&#160;&#160;&#160;&#160;&#160;&#160;&#160;&#160;&#160;&#160;</text>
<polygon fill="none" stroke="#99ccff" points="1009.6455,-307 1009.6455,-324 1100.6455,-324 1100.6455,-307 1009.6455,-307"/>
<text text-anchor="start" x="1018.8396" y="-312.2" font-family="Courier,monospace" font-size="11.00" fill="#000000">string(255)</text>
<polygon fill="none" stroke="#99ccff" points="330.6455,-290 330.6455,-307 1009.6455,-307 1009.6455,-290 330.6455,-290"/>
<text text-anchor="start" x="333.6455" y="-295.2" font-family="Courier,monospace" font-size="11.00" fill="#000000"> &#160;&#160;&#160;&#160;&#160;&#160;&#160;&#160;&#160;&#160;&#160;&#160;&#160;&#160;&#160;&#160;&#160;&#160;&#160;&#160;&#160;&#160;&#160;&#160;&#160;&#160;&#160;&#160;&#160;&#160;&#160;&#160;&#160;&#160;&#160;&#160;&#160;&#160;&#160;&#160;LastModifiedById &#160;&#160;&#160;&#160;&#160;&#160;&#160;&#160;&#160;&#160;&#160;&#160;&#160;&#160;&#160;&#160;&#160;&#160;&#160;&#160;&#160;&#160;&#160;&#160;&#160;&#160;&#160;&#160;&#160;&#160;&#160;&#160;&#160;&#160;&#160;&#160;&#160;&#160;</text>
<polygon fill="none" stroke="#99ccff" points="1009.6455,-290 1009.6455,-307 1100.6455,-307 1100.6455,-290 1009.6455,-290"/>
<text text-anchor="start" x="1012.2385" y="-295.2" font-family="Courier,monospace" font-size="11.00" fill="#000000">reference(18)</text>
<polygon fill="none" stroke="#99ccff" points="330.6455,-273 330.6455,-290 1009.6455,-290 1009.6455,-273 330.6455,-273"/>
<text text-anchor="start" x="333.6455" y="-278.2" font-family="Courier,monospace" font-size="11.00" fill="#000000"> &#160;&#160;&#160;&#160;&#160;&#160;&#160;&#160;&#160;&#160;&#160;&#160;&#160;&#160;&#160;&#160;&#160;&#160;&#160;&#160;&#160;&#160;&#160;&#160;&#160;&#160;&#160;&#160;&#160;&#160;&#160;&#160;&#160;&#160;&#160;&#160;&#160;&#160;&#160;&#160;LastViewedDate &#160;&#160;&#160;&#160;&#160;&#160;&#160;&#160;&#160;&#160;&#160;&#160;&#160;&#160;&#160;&#160;&#160;&#160;&#160;&#160;&#160;&#160;&#160;&#160;&#160;&#160;&#160;&#160;&#160;&#160;&#160;&#160;&#160;&#160;&#160;&#160;&#160;&#160;</text>
<polygon fill="none" stroke="#99ccff" points="1009.6455,-273 1009.6455,-290 1100.6455,-290 1100.6455,-273 1009.6455,-273"/>
<text text-anchor="start" x="1028.7412" y="-278.2" font-family="Courier,monospace" font-size="11.00" fill="#000000">datetime</text>
<polygon fill="none" stroke="#99ccff" points="330.6455,-256 330.6455,-273 1009.6455,-273 1009.6455,-256 330.6455,-256"/>
<text text-anchor="start" x="333.6455" y="-261.2" font-family="Courier,monospace" font-size="11.00" fill="#000000"> &#160;&#160;&#160;&#160;&#160;&#160;&#160;&#160;&#160;&#160;&#160;&#160;&#160;&#160;&#160;&#160;&#160;&#160;&#160;&#160;&#160;&#160;&#160;&#160;&#160;&#160;&#160;&#160;&#160;&#160;&#160;&#160;&#160;&#160;&#160;&#160;&#160;&#160;&#160;&#160;LastReferencedDate &#160;&#160;&#160;&#160;&#160;&#160;&#160;&#160;&#160;&#160;&#160;&#160;&#160;&#160;&#160;&#160;&#160;&#160;&#160;&#160;&#160;&#160;&#160;&#160;&#160;&#160;&#160;&#160;&#160;&#160;&#160;&#160;&#160;&#160;&#160;&#160;&#160;&#160;</text>
<polygon fill="none" stroke="#99ccff" points="1009.6455,-256 1009.6455,-273 1100.6455,-273 1100.6455,-256 1009.6455,-256"/>
<text text-anchor="start" x="1028.7412" y="-261.2" font-family="Courier,monospace" font-size="11.00" fill="#000000">datetime</text>
<polygon fill="none" stroke="#99ccff" points="330.6455,-239 330.6455,-256 1009.6455,-256 1009.6455,-239 330.6455,-239"/>
<text text-anchor="start" x="333.6455" y="-244.2" font-family="Courier,monospace" font-size="11.00" fill="#000000"> &#160;&#160;&#160;&#160;&#160;&#160;&#160;&#160;&#160;&#160;&#160;&#160;&#160;&#160;&#160;&#160;&#160;&#160;&#160;&#160;&#160;&#160;&#160;&#160;&#160;&#160;&#160;&#160;&#160;&#160;&#160;&#160;&#160;&#160;&#160;&#160;&#160;&#160;&#160;&#160;LoanApplicationId &#160;&#160;&#160;&#160;&#160;&#160;&#160;&#160;&#160;&#160;&#160;&#160;&#160;&#160;&#160;&#160;&#160;&#160;&#160;&#160;&#160;&#160;&#160;&#160;&#160;&#160;&#160;&#160;&#160;&#160;&#160;&#160;&#160;&#160;&#160;&#160;&#160;&#160;</text>
<polygon fill="none" stroke="#99ccff" points="1009.6455,-239 1009.6455,-256 1100.6455,-256 1100.6455,-239 1009.6455,-239"/>
<text text-anchor="start" x="1012.2385" y="-244.2" font-family="Courier,monospace" font-size="11.00" fill="#000000">reference(18)</text>
<polygon fill="none" stroke="#99ccff" points="330.6455,-222 330.6455,-239 1009.6455,-239 1009.6455,-222 330.6455,-222"/>
<text text-anchor="start" x="333.4907" y="-227.2" font-family="Courier,monospace" font-size="11.00" fill="#000000"> &#160;&#160;&#160;&#160;&#160;&#160;&#160;&#160;&#160;&#160;&#160;&#160;&#160;&#160;&#160;&#160;&#160;&#160;&#160;&#160;&#160;&#160;&#160;&#160;&#160;&#160;&#160;&#160;&#160;&#160;&#160;&#160;&#160;&#160;&#160;&#160;&#160;&#160;&#160;&#160;LoanApplicationAssetId &#160;&#160;&#160;&#160;&#160;&#160;&#160;&#160;&#160;&#160;&#160;&#160;&#160;&#160;&#160;&#160;&#160;&#160;&#160;&#160;&#160;&#160;&#160;&#160;&#160;&#160;&#160;&#160;&#160;&#160;&#160;&#160;&#160;&#160;&#160;&#160;&#160;&#160;</text>
<polygon fill="none" stroke="#99ccff" points="1009.6455,-222 1009.6455,-239 1100.6455,-239 1100.6455,-222 1009.6455,-222"/>
<text text-anchor="start" x="1012.2385" y="-227.2" font-family="Courier,monospace" font-size="11.00" fill="#000000">reference(18)</text>
<polygon fill="none" stroke="#99ccff" points="330.6455,-205 330.6455,-222 1009.6455,-222 1009.6455,-205 330.6455,-205"/>
<text text-anchor="start" x="333.6455" y="-210.2" font-family="Courier,monospace" font-size="11.00" fill="#000000"> &#160;&#160;&#160;&#160;&#160;&#160;&#160;&#160;&#160;&#160;&#160;&#160;&#160;&#160;&#160;&#160;&#160;&#160;&#160;&#160;&#160;&#160;&#160;&#160;&#160;&#160;&#160;&#160;&#160;&#160;&#160;&#160;&#160;&#160;&#160;&#160;&#160;&#160;&#160;&#160;AccountType &#160;&#160;&#160;&#160;&#160;&#160;&#160;&#160;&#160;&#160;&#160;&#160;&#160;&#160;&#160;&#160;&#160;&#160;&#160;&#160;&#160;&#160;&#160;&#160;&#160;&#160;&#160;&#160;&#160;&#160;&#160;&#160;&#160;&#160;&#160;&#160;&#160;&#160;</text>
<polygon fill="none" stroke="#99ccff" points="1009.6455,-205 1009.6455,-222 1100.6455,-222 1100.6455,-205 1009.6455,-205"/>
<text text-anchor="start" x="1015.5391" y="-210.2" font-family="Courier,monospace" font-size="11.00" fill="#000000">picklist(40)</text>
<polygon fill="none" stroke="#99ccff" points="330.6455,-188 330.6455,-205 1009.6455,-205 1009.6455,-188 330.6455,-188"/>
<text text-anchor="start" x="333.6455" y="-193.2" font-family="Courier,monospace" font-size="11.00" fill="#000000"> &#160;&#160;&#160;&#160;&#160;&#160;&#160;&#160;&#160;&#160;&#160;&#160;&#160;&#160;&#160;&#160;&#160;&#160;&#160;&#160;&#160;&#160;&#160;&#160;&#160;&#160;&#160;&#160;&#160;&#160;&#160;&#160;&#160;&#160;&#160;&#160;&#160;&#160;&#160;&#160;LoanType &#160;&#160;&#160;&#160;&#160;&#160;&#160;&#160;&#160;&#160;&#160;&#160;&#160;&#160;&#160;&#160;&#160;&#160;&#160;&#160;&#160;&#160;&#160;&#160;&#160;&#160;&#160;&#160;&#160;&#160;&#160;&#160;&#160;&#160;&#160;&#160;&#160;&#160;</text>
<polygon fill="none" stroke="#99ccff" points="1009.6455,-188 1009.6455,-205 1100.6455,-205 1100.6455,-188 1009.6455,-188"/>
<text text-anchor="start" x="1015.5391" y="-193.2" font-family="Courier,monospace" font-size="11.00" fill="#000000">picklist(40)</text>
<polygon fill="none" stroke="#99ccff" points="330.6455,-171 330.6455,-188 1009.6455,-188 1009.6455,-171 330.6455,-171"/>
<text text-anchor="start" x="333.6455" y="-176.2" font-family="Courier,monospace" font-size="11.00" fill="#000000"> &#160;&#160;&#160;&#160;&#160;&#160;&#160;&#160;&#160;&#160;&#160;&#160;&#160;&#160;&#160;&#160;&#160;&#160;&#160;&#160;&#160;&#160;&#160;&#160;&#160;&#160;&#160;&#160;&#160;&#160;&#160;&#160;&#160;&#160;&#160;&#160;&#160;&#160;&#160;&#160;OtherLiabilityType &#160;&#160;&#160;&#160;&#160;&#160;&#160;&#160;&#160;&#160;&#160;&#160;&#160;&#160;&#160;&#160;&#160;&#160;&#160;&#160;&#160;&#160;&#160;&#160;&#160;&#160;&#160;&#160;&#160;&#160;&#160;&#160;&#160;&#160;&#160;&#160;&#160;&#160;</text>
<polygon fill="none" stroke="#99ccff" points="1009.6455,-171 1009.6455,-188 1100.6455,-188 1100.6455,-171 1009.6455,-171"/>
<text text-anchor="start" x="1015.5391" y="-176.2" font-family="Courier,monospace" font-size="11.00" fill="#000000">picklist(40)</text>
<polygon fill="none" stroke="#99ccff" points="330.6455,-154 330.6455,-171 1009.6455,-171 1009.6455,-154 330.6455,-154"/>
<text text-anchor="start" x="333.6455" y="-159.2" font-family="Courier,monospace" font-size="11.00" fill="#000000"> &#160;&#160;&#160;&#160;&#160;&#160;&#160;&#160;&#160;&#160;&#160;&#160;&#160;&#160;&#160;&#160;&#160;&#160;&#160;&#160;&#160;&#160;&#160;&#160;&#160;&#160;&#160;&#160;&#160;&#160;&#160;&#160;&#160;&#160;&#160;&#160;&#160;&#160;&#160;&#160;CreditorName &#160;&#160;&#160;&#160;&#160;&#160;&#160;&#160;&#160;&#160;&#160;&#160;&#160;&#160;&#160;&#160;&#160;&#160;&#160;&#160;&#160;&#160;&#160;&#160;&#160;&#160;&#160;&#160;&#160;&#160;&#160;&#160;&#160;&#160;&#160;&#160;&#160;&#160;</text>
<polygon fill="none" stroke="#99ccff" points="1009.6455,-154 1009.6455,-171 1100.6455,-171 1100.6455,-154 1009.6455,-154"/>
<text text-anchor="start" x="1018.8396" y="-159.2" font-family="Courier,monospace" font-size="11.00" fill="#000000">string(255)</text>
<polygon fill="none" stroke="#99ccff" points="330.6455,-137 330.6455,-154 1009.6455,-154 1009.6455,-137 330.6455,-137"/>
<text text-anchor="start" x="333.6455" y="-142.2" font-family="Courier,monospace" font-size="11.00" fill="#000000"> &#160;&#160;&#160;&#160;&#160;&#160;&#160;&#160;&#160;&#160;&#160;&#160;&#160;&#160;&#160;&#160;&#160;&#160;&#160;&#160;&#160;&#160;&#160;&#160;&#160;&#160;&#160;&#160;&#160;&#160;&#160;&#160;&#160;&#160;&#160;&#160;&#160;&#160;&#160;&#160;AccountNumber &#160;&#160;&#160;&#160;&#160;&#160;&#160;&#160;&#160;&#160;&#160;&#160;&#160;&#160;&#160;&#160;&#160;&#160;&#160;&#160;&#160;&#160;&#160;&#160;&#160;&#160;&#160;&#160;&#160;&#160;&#160;&#160;&#160;&#160;&#160;&#160;&#160;&#160;</text>
<polygon fill="none" stroke="#99ccff" points="1009.6455,-137 1009.6455,-154 1100.6455,-154 1100.6455,-137 1009.6455,-137"/>
<text text-anchor="start" x="1018.8396" y="-142.2" font-family="Courier,monospace" font-size="11.00" fill="#000000">string(255)</text>
<polygon fill="none" stroke="#99ccff" points="330.6455,-120 330.6455,-137 1009.6455,-137 1009.6455,-120 330.6455,-120"/>
<text text-anchor="start" x="333.6455" y="-125.2" font-family="Courier,monospace" font-size="11.00" fill="#000000"> &#160;&#160;&#160;&#160;&#160;&#160;&#160;&#160;&#160;&#160;&#160;&#160;&#160;&#160;&#160;&#160;&#160;&#160;&#160;&#160;&#160;&#160;&#160;&#160;&#160;&#160;&#160;&#160;&#160;&#160;&#160;&#160;&#160;&#160;&#160;&#160;&#160;&#160;&#160;&#160;MonthlyPaymentAmount &#160;&#160;&#160;&#160;&#160;&#160;&#160;&#160;&#160;&#160;&#160;&#160;&#160;&#160;&#160;&#160;&#160;&#160;&#160;&#160;&#160;&#160;&#160;&#160;&#160;&#160;&#160;&#160;&#160;&#160;&#160;&#160;&#160;&#160;&#160;&#160;&#160;&#160;</text>
<polygon fill="none" stroke="#99ccff" points="1009.6455,-120 1009.6455,-137 1100.6455,-137 1100.6455,-120 1009.6455,-120"/>
<text text-anchor="start" x="1028.7412" y="-125.2" font-family="Courier,monospace" font-size="11.00" fill="#000000">currency</text>
<polygon fill="none" stroke="#99ccff" points="330.6455,-103 330.6455,-120 1009.6455,-120 1009.6455,-103 330.6455,-103"/>
<text text-anchor="start" x="333.6455" y="-108.2" font-family="Courier,monospace" font-size="11.00" fill="#000000"> &#160;&#160;&#160;&#160;&#160;&#160;&#160;&#160;&#160;&#160;&#160;&#160;&#160;&#160;&#160;&#160;&#160;&#160;&#160;&#160;&#160;&#160;&#160;&#160;&#160;&#160;&#160;&#160;&#160;&#160;&#160;&#160;&#160;&#160;&#160;&#160;&#160;&#160;&#160;&#160;UnpaidBalanceAmount &#160;&#160;&#160;&#160;&#160;&#160;&#160;&#160;&#160;&#160;&#160;&#160;&#160;&#160;&#160;&#160;&#160;&#160;&#160;&#160;&#160;&#160;&#160;&#160;&#160;&#160;&#160;&#160;&#160;&#160;&#160;&#160;&#160;&#160;&#160;&#160;&#160;&#160;</text>
<polygon fill="none" stroke="#99ccff" points="1009.6455,-103 1009.6455,-120 1100.6455,-120 1100.6455,-103 1009.6455,-103"/>
<text text-anchor="start" x="1028.7412" y="-108.2" font-family="Courier,monospace" font-size="11.00" fill="#000000">currency</text>
<polygon fill="none" stroke="#99ccff" points="330.6455,-86 330.6455,-103 1009.6455,-103 1009.6455,-86 330.6455,-86"/>
<text text-anchor="start" x="333.6455" y="-91.2" font-family="Courier,monospace" font-size="11.00" fill="#000000"> &#160;&#160;&#160;&#160;&#160;&#160;&#160;&#160;&#160;&#160;&#160;&#160;&#160;&#160;&#160;&#160;&#160;&#160;&#160;&#160;&#160;&#160;&#160;&#160;&#160;&#160;&#160;&#160;&#160;&#160;&#160;&#160;&#160;&#160;&#160;&#160;&#160;&#160;&#160;&#160;ShouldBePaidInFull &#160;&#160;&#160;&#160;&#160;&#160;&#160;&#160;&#160;&#160;&#160;&#160;&#160;&#160;&#160;&#160;&#160;&#160;&#160;&#160;&#160;&#160;&#160;&#160;&#160;&#160;&#160;&#160;&#160;&#160;&#160;&#160;&#160;&#160;&#160;&#160;&#160;&#160;</text>
<polygon fill="none" stroke="#99ccff" points="1009.6455,-86 1009.6455,-103 1100.6455,-103 1100.6455,-86 1009.6455,-86"/>
<text text-anchor="start" x="1032.0417" y="-91.2" font-family="Courier,monospace" font-size="11.00" fill="#000000">boolean</text>
<polygon fill="none" stroke="#99ccff" points="330.6455,-69 330.6455,-86 1009.6455,-86 1009.6455,-69 330.6455,-69"/>
<text text-anchor="start" x="333.6455" y="-74.2" font-family="Courier,monospace" font-size="11.00" fill="#000000"> &#160;&#160;&#160;&#160;&#160;&#160;&#160;&#160;&#160;&#160;&#160;&#160;&#160;&#160;&#160;&#160;&#160;&#160;&#160;&#160;&#160;&#160;&#160;&#160;&#160;&#160;&#160;&#160;&#160;&#160;&#160;&#160;&#160;&#160;&#160;&#160;&#160;&#160;&#160;&#160;IsJointLiability &#160;&#160;&#160;&#160;&#160;&#160;&#160;&#160;&#160;&#160;&#160;&#160;&#160;&#160;&#160;&#160;&#160;&#160;&#160;&#160;&#160;&#160;&#160;&#160;&#160;&#160;&#160;&#160;&#160;&#160;&#160;&#160;&#160;&#160;&#160;&#160;&#160;&#160;</text>
<polygon fill="none" stroke="#99ccff" points="1009.6455,-69 1009.6455,-86 1100.6455,-86 1100.6455,-69 1009.6455,-69"/>
<text text-anchor="start" x="1032.0417" y="-74.2" font-family="Courier,monospace" font-size="11.00" fill="#000000">boolean</text>
<polygon fill="none" stroke="#99ccff" points="330.6455,-52 330.6455,-69 1009.6455,-69 1009.6455,-52 330.6455,-52"/>
<text text-anchor="start" x="333.6455" y="-57.2" font-family="Courier,monospace" font-size="11.00" fill="#000000"> &#160;&#160;&#160;&#160;&#160;&#160;&#160;&#160;&#160;&#160;&#160;&#160;&#160;&#160;&#160;&#160;&#160;&#160;&#160;&#160;&#160;&#160;&#160;&#160;&#160;&#160;&#160;&#160;&#160;&#160;&#160;&#160;&#160;&#160;&#160;&#160;&#160;&#160;&#160;&#160;CreditLimitAmount &#160;&#160;&#160;&#160;&#160;&#160;&#160;&#160;&#160;&#160;&#160;&#160;&#160;&#160;&#160;&#160;&#160;&#160;&#160;&#160;&#160;&#160;&#160;&#160;&#160;&#160;&#160;&#160;&#160;&#160;&#160;&#160;&#160;&#160;&#160;&#160;&#160;&#160;</text>
<polygon fill="none" stroke="#99ccff" points="1009.6455,-52 1009.6455,-69 1100.6455,-69 1100.6455,-52 1009.6455,-52"/>
<text text-anchor="start" x="1028.7412" y="-57.2" font-family="Courier,monospace" font-size="11.00" fill="#000000">currency</text>
<polygon fill="none" stroke="#99ccff" points="330.6455,-35 330.6455,-52 1009.6455,-52 1009.6455,-35 330.6455,-35"/>
<text text-anchor="start" x="333.6455" y="-40.2" font-family="Courier,monospace" font-size="11.00" fill="#000000"> &#160;&#160;&#160;&#160;&#160;&#160;&#160;&#160;&#160;&#160;&#160;&#160;&#160;&#160;&#160;&#160;&#160;&#160;&#160;&#160;&#160;&#160;&#160;&#160;&#160;&#160;&#160;&#160;&#160;&#160;&#160;&#160;&#160;&#160;&#160;&#160;&#160;&#160;&#160;&#160;LiabilityClass &#160;&#160;&#160;&#160;&#160;&#160;&#160;&#160;&#160;&#160;&#160;&#160;&#160;&#160;&#160;&#160;&#160;&#160;&#160;&#160;&#160;&#160;&#160;&#160;&#160;&#160;&#160;&#160;&#160;&#160;&#160;&#160;&#160;&#160;&#160;&#160;&#160;&#160;</text>
<polygon fill="none" stroke="#99ccff" points="1009.6455,-35 1009.6455,-52 1100.6455,-52 1100.6455,-35 1009.6455,-35"/>
<text text-anchor="start" x="1015.5391" y="-40.2" font-family="Courier,monospace" font-size="11.00" fill="#000000">picklist(40)</text>
<polygon fill="none" stroke="#99ccff" points="330.6455,-18 330.6455,-35 1009.6455,-35 1009.6455,-18 330.6455,-18"/>
<text text-anchor="start" x="333.4907" y="-23.2" font-family="Courier,monospace" font-size="11.00" fill="#000000"> &#160;&#160;&#160;&#160;&#160;&#160;&#160;&#160;&#160;&#160;&#160;&#160;&#160;&#160;&#160;&#160;&#160;&#160;&#160;&#160;&#160;&#160;&#160;&#160;&#160;&#160;&#160;&#160;&#160;&#160;&#160;&#160;&#160;&#160;&#160;&#160;&#160;&#160;&#160;&#160;LiabilityExtIdentifier &#160;&#160;&#160;&#160;&#160;&#160;&#160;&#160;&#160;&#160;&#160;&#160;&#160;&#160;&#160;&#160;&#160;&#160;&#160;&#160;&#160;&#160;&#160;&#160;&#160;&#160;&#160;&#160;&#160;&#160;&#160;&#160;&#160;&#160;&#160;&#160;&#160;&#160;</text>
<polygon fill="none" stroke="#99ccff" points="1009.6455,-18 1009.6455,-35 1100.6455,-35 1100.6455,-18 1009.6455,-18"/>
<text text-anchor="start" x="1018.8396" y="-23.2" font-family="Courier,monospace" font-size="11.00" fill="#000000">string(255)</text>
<polygon fill="none" stroke="#99ccff" points="329.6455,-17 329.6455,-393 1101.6455,-393 1101.6455,-17 329.6455,-17"/>
</a>
</g>
</g>
<!-- Group -->
<g id="node2" class="node">
<title>Group</title>
<text text-anchor="middle" x="93.814" y="-355.7" font-family="Courier,monospace" font-size="11.00" fill="#000000">Group</text>
</g>
<!-- LoanApplicationLiability&#45;&gt;Group -->
<g id="edge1" class="edge">
<title>LoanApplicationLiability:w&#45;&gt;Group:e</title>
<path fill="none" stroke="#ff99cc" d="M315.8131,-350.0565C243.3817,-350.594 162.3858,-354.843 121.152,-357.286"/>
<polygon fill="#ff99cc" stroke="#ff99cc" points="322.6456,-350.0305 330.6592,-353.6 326.6455,-350.0153 330.6455,-350 330.6455,-350 330.6455,-350 326.6455,-350.0153 330.6318,-346.4 322.6456,-350.0305 322.6456,-350.0305"/>
<ellipse fill="none" stroke="#ff99cc" cx="319.4456" cy="-350.0427" rx="3.2" ry="3.2"/>
<text text-anchor="middle" x="258.6367" y="-356.8015" font-family="Monaco" font-size="9.00" fill="#000000">Owner</text>
</g>
<!-- User -->
<g id="node3" class="node">
<title>User</title>
<text text-anchor="middle" x="93.814" y="-303.7" font-family="Courier,monospace" font-size="11.00" fill="#000000">User</text>
</g>
<!-- LoanApplicationLiability&#45;&gt;User -->
<g id="edge2" class="edge">
<title>LoanApplicationLiability:w&#45;&gt;User:e</title>
<path fill="none" stroke="#ff99cc" d="M320.2008,-340.0812C318.7228,-336.6301 316.8783,-333.1001 312.6455,-330.9985 279.6114,-314.5971 172.0082,-309.2858 121.0479,-307.6649"/>
<polygon fill="#ff99cc" stroke="#ff99cc" points="324.8445,-344.491 328.1665,-352.6105 327.745,-347.2455 330.6455,-350 330.6455,-350 330.6455,-350 327.745,-347.2455 333.1245,-347.3895 324.8445,-344.491 324.8445,-344.491"/>
<ellipse fill="none" stroke="#ff99cc" cx="322.5241" cy="-342.2874" rx="3.2" ry="3.2"/>
<text text-anchor="middle" x="258.6367" y="-334.8015" font-family="Monaco" font-size="9.00" fill="#000000">Owner</text>
</g>
<!-- LoanApplicationLiability&#45;&gt;User -->
<g id="edge3" class="edge">
<title>LoanApplicationLiability:w&#45;&gt;User:e</title>
<path fill="none" stroke="#ff99cc" d="M316.3092,-297.3131C315.2273,-297.1845 314.0269,-297.0751 312.6455,-296.9985 264.7113,-294.3418 252.5871,-294.8387 204.6279,-296.9985 176.0681,-298.2847 143.4934,-301.4266 121.0915,-303.8485"/>
<polygon fill="#ff99cc" stroke="#ff99cc" points="322.7003,-298.0651 330.2248,-302.5753 326.6729,-298.5325 330.6455,-299 330.6455,-299 330.6455,-299 326.6729,-298.5325 331.0662,-295.4247 322.7003,-298.0651 322.7003,-298.0651"/>
<ellipse fill="none" stroke="#ff99cc" cx="319.5222" cy="-297.6911" rx="3.2" ry="3.2"/>
<text text-anchor="middle" x="258.6367" y="-300.8015" font-family="Monaco" font-size="9.00" fill="#000000">LastModifiedBy</text>
</g>
<!-- ResidentialLoanApplication -->
<g id="node4" class="node">
<title>ResidentialLoanApplication</title>
<text text-anchor="middle" x="93.814" y="-248.7" font-family="Courier,monospace" font-size="11.00" fill="#000000">ResidentialLoanApplication</text>
</g>
<!-- LoanApplicationLiability&#45;&gt;ResidentialLoanApplication -->
<g id="edge4" class="edge">
<title>LoanApplicationLiability:w&#45;&gt;ResidentialLoanApplication:e</title>
<path fill="none" stroke="#ff99cc" d="M316.1194,-248.0241C272.8919,-248.1641 226.5669,-248.8938 187.4536,-249.6906"/>
<polygon fill="#ff99cc" stroke="#ff99cc" points="322.6455,-248.0133 330.6515,-251.6 326.6455,-248.0067 330.6455,-248 330.6455,-248 330.6455,-248 326.6455,-248.0067 330.6395,-244.4 322.6455,-248.0133 322.6455,-248.0133"/>
<ellipse fill="none" stroke="#ff99cc" cx="319.4455" cy="-248.0187" rx="3.2" ry="3.2"/>
<text text-anchor="middle" x="258.6367" y="-253.8015" font-family="Monaco" font-size="9.00" fill="#000000">LoanApplication</text>
</g>
<!-- LoanApplicationAsset -->
<g id="node5" class="node">
<title>LoanApplicationAsset</title>
<text text-anchor="middle" x="93.814" y="-199.7" font-family="Courier,monospace" font-size="11.00" fill="#000000">LoanApplicationAsset</text>
</g>
<!-- LoanApplicationLiability&#45;&gt;LoanApplicationAsset -->
<g id="edge5" class="edge">
<title>LoanApplicationLiability:w&#45;&gt;LoanApplicationAsset:e</title>
<path fill="none" stroke="#ff99cc" d="M317.235,-225.652C315.9505,-225.0119 314.4724,-224.4327 312.6455,-223.9985 265.2094,-212.7258 210.6223,-207.4746 167.8341,-205.0424"/>
<polygon fill="#ff99cc" stroke="#ff99cc" points="323.2146,-228.0366 329.312,-234.3439 326.9301,-229.5183 330.6455,-231 330.6455,-231 330.6455,-231 326.9301,-229.5183 331.9791,-227.6561 323.2146,-228.0366 323.2146,-228.0366"/>
<ellipse fill="none" stroke="#ff99cc" cx="320.2422" cy="-226.8512" rx="3.2" ry="3.2"/>
<text text-anchor="middle" x="258.6367" y="-227.8015" font-family="Monaco" font-size="9.00" fill="#000000">LoanApplicationAsset</text>
</g>
</g>
</svg>
