<?xml version="1.0" encoding="UTF-8" standalone="no"?>
<!DOCTYPE svg PUBLIC "-//W3C//DTD SVG 1.1//EN"
 "http://www.w3.org/Graphics/SVG/1.1/DTD/svg11.dtd">
<!-- Generated by graphviz version 2.40.1 (20161225.0304)
 -->
<!-- Title: Salesforce+ ERD Pages: 1 -->
<svg width="924pt" height="262pt"
 viewBox="0.00 0.00 923.61 262.00" xmlns="http://www.w3.org/2000/svg" xmlns:xlink="http://www.w3.org/1999/xlink">
<g id="graph0" class="graph" transform="scale(1 1) rotate(0) translate(4 258)">
<title>Salesforce+ ERD</title>
<polygon fill="#efeffd" stroke="transparent" points="-4,4 -4,-258 919.6123,-258 919.6123,4 -4,4"/>
<text text-anchor="middle" x="867.1057" y="-5.8" font-family="Courier,monospace" font-size="9.00" fill="#000000">Salesforce ERD </text>
<!-- Location -->
<g id="node1" class="node">
<title>Location</title>
<g id="a_node1"><a xlink:href="#" xlink:title=" Location ">
<polygon fill="#ffeeff" stroke="transparent" points="163.6123,-17 163.6123,-223 915.6123,-223 915.6123,-17 163.6123,-17"/>
<polygon fill="#add8e6" stroke="transparent" points="164.6123,-205 164.6123,-222 914.6123,-222 914.6123,-205 164.6123,-205"/>
<polygon fill="none" stroke="#99ccff" points="164.6123,-205 164.6123,-222 914.6123,-222 914.6123,-205 164.6123,-205"/>
<text text-anchor="start" x="513.208" y="-211.2" font-family="Courier,monospace" font-weight="bold" font-size="11.00" fill="#000000">Location</text>
<polygon fill="#99ccff" stroke="transparent" points="164.6123,-188 164.6123,-205 823.6123,-205 823.6123,-188 164.6123,-188"/>
<polygon fill="none" stroke="#99ccff" points="164.6123,-188 164.6123,-205 823.6123,-205 823.6123,-188 164.6123,-188"/>
<text text-anchor="start" x="167.6123" y="-194.2" font-family="Courier,monospace" font-size="11.00" fill="#000000"> &#160;&#160;&#160;&#160;&#160;&#160;&#160;&#160;&#160;&#160;&#160;&#160;&#160;&#160;&#160;&#160;&#160;&#160;&#160;&#160;&#160;&#160;&#160;&#160;&#160;&#160;&#160;&#160;&#160;&#160;&#160;&#160;&#160;&#160;&#160;&#160;&#160;&#160;&#160;&#160;&#160;&#160;</text>
<text text-anchor="start" x="451.4585" y="-194.2" font-family="Courier,monospace" font-weight="bold" font-size="11.00" fill="#000000">Id</text>
<text text-anchor="start" x="464.6606" y="-194.2" font-family="Courier,monospace" font-size="11.00" fill="#000000"> &#160;&#160;&#160;&#160;&#160;&#160;&#160;&#160;&#160;&#160;&#160;&#160;&#160;&#160;&#160;&#160;&#160;&#160;&#160;&#160;&#160;&#160;&#160;&#160;&#160;&#160;&#160;&#160;&#160;&#160;&#160;&#160;&#160;&#160;&#160;&#160;&#160;&#160;&#160;</text>
<polygon fill="none" stroke="#99ccff" points="823.6123,-188 823.6123,-205 914.6123,-205 914.6123,-188 823.6123,-188"/>
<text text-anchor="start" x="849.3091" y="-193.2" font-family="Courier,monospace" font-size="11.00" fill="#000000">id(18)</text>
<polygon fill="none" stroke="#99ccff" points="164.6123,-171 164.6123,-188 823.6123,-188 823.6123,-171 164.6123,-171"/>
<text text-anchor="start" x="167.6123" y="-176.2" font-family="Courier,monospace" font-size="11.00" fill="#000000"> &#160;&#160;&#160;&#160;&#160;&#160;&#160;&#160;&#160;&#160;&#160;&#160;&#160;&#160;&#160;&#160;&#160;&#160;&#160;&#160;&#160;&#160;&#160;&#160;&#160;&#160;&#160;&#160;&#160;&#160;&#160;&#160;&#160;&#160;&#160;&#160;&#160;&#160;&#160;&#160;OwnerId &#160;&#160;&#160;&#160;&#160;&#160;&#160;&#160;&#160;&#160;&#160;&#160;&#160;&#160;&#160;&#160;&#160;&#160;&#160;&#160;&#160;&#160;&#160;&#160;&#160;&#160;&#160;&#160;&#160;&#160;&#160;&#160;&#160;&#160;&#160;&#160;&#160;&#160;</text>
<polygon fill="none" stroke="#99ccff" points="823.6123,-171 823.6123,-188 914.6123,-188 914.6123,-171 823.6123,-171"/>
<text text-anchor="start" x="826.2053" y="-176.2" font-family="Courier,monospace" font-size="11.00" fill="#000000">reference(18)</text>
<polygon fill="none" stroke="#99ccff" points="164.6123,-154 164.6123,-171 823.6123,-171 823.6123,-154 164.6123,-154"/>
<text text-anchor="start" x="167.6123" y="-159.2" font-family="Courier,monospace" font-size="11.00" fill="#000000"> &#160;&#160;&#160;&#160;&#160;&#160;&#160;&#160;&#160;&#160;&#160;&#160;&#160;&#160;&#160;&#160;&#160;&#160;&#160;&#160;&#160;&#160;&#160;&#160;&#160;&#160;&#160;&#160;&#160;&#160;&#160;&#160;&#160;&#160;&#160;&#160;&#160;&#160;&#160;&#160;IsDeleted &#160;&#160;&#160;&#160;&#160;&#160;&#160;&#160;&#160;&#160;&#160;&#160;&#160;&#160;&#160;&#160;&#160;&#160;&#160;&#160;&#160;&#160;&#160;&#160;&#160;&#160;&#160;&#160;&#160;&#160;&#160;&#160;&#160;&#160;&#160;&#160;&#160;&#160;</text>
<polygon fill="none" stroke="#99ccff" points="823.6123,-154 823.6123,-171 914.6123,-171 914.6123,-154 823.6123,-154"/>
<text text-anchor="start" x="846.0085" y="-159.2" font-family="Courier,monospace" font-size="11.00" fill="#000000">boolean</text>
<polygon fill="none" stroke="#99ccff" points="164.6123,-137 164.6123,-154 823.6123,-154 823.6123,-137 164.6123,-137"/>
<text text-anchor="start" x="167.6123" y="-142.2" font-family="Courier,monospace" font-size="11.00" fill="#000000"> &#160;&#160;&#160;&#160;&#160;&#160;&#160;&#160;&#160;&#160;&#160;&#160;&#160;&#160;&#160;&#160;&#160;&#160;&#160;&#160;&#160;&#160;&#160;&#160;&#160;&#160;&#160;&#160;&#160;&#160;&#160;&#160;&#160;&#160;&#160;&#160;&#160;&#160;&#160;&#160;Name &#160;&#160;&#160;&#160;&#160;&#160;&#160;&#160;&#160;&#160;&#160;&#160;&#160;&#160;&#160;&#160;&#160;&#160;&#160;&#160;&#160;&#160;&#160;&#160;&#160;&#160;&#160;&#160;&#160;&#160;&#160;&#160;&#160;&#160;&#160;&#160;&#160;&#160;</text>
<polygon fill="none" stroke="#99ccff" points="823.6123,-137 823.6123,-154 914.6123,-154 914.6123,-137 823.6123,-137"/>
<text text-anchor="start" x="832.8064" y="-142.2" font-family="Courier,monospace" font-size="11.00" fill="#000000">string(255)</text>
<polygon fill="none" stroke="#99ccff" points="164.6123,-120 164.6123,-137 823.6123,-137 823.6123,-120 164.6123,-120"/>
<text text-anchor="start" x="167.6123" y="-125.2" font-family="Courier,monospace" font-size="11.00" fill="#000000"> &#160;&#160;&#160;&#160;&#160;&#160;&#160;&#160;&#160;&#160;&#160;&#160;&#160;&#160;&#160;&#160;&#160;&#160;&#160;&#160;&#160;&#160;&#160;&#160;&#160;&#160;&#160;&#160;&#160;&#160;&#160;&#160;&#160;&#160;&#160;&#160;&#160;&#160;&#160;&#160;LastModifiedById &#160;&#160;&#160;&#160;&#160;&#160;&#160;&#160;&#160;&#160;&#160;&#160;&#160;&#160;&#160;&#160;&#160;&#160;&#160;&#160;&#160;&#160;&#160;&#160;&#160;&#160;&#160;&#160;&#160;&#160;&#160;&#160;&#160;&#160;&#160;&#160;&#160;&#160;</text>
<polygon fill="none" stroke="#99ccff" points="823.6123,-120 823.6123,-137 914.6123,-137 914.6123,-120 823.6123,-120"/>
<text text-anchor="start" x="826.2053" y="-125.2" font-family="Courier,monospace" font-size="11.00" fill="#000000">reference(18)</text>
<polygon fill="none" stroke="#99ccff" points="164.6123,-103 164.6123,-120 823.6123,-120 823.6123,-103 164.6123,-103"/>
<text text-anchor="start" x="167.6123" y="-108.2" font-family="Courier,monospace" font-size="11.00" fill="#000000"> &#160;&#160;&#160;&#160;&#160;&#160;&#160;&#160;&#160;&#160;&#160;&#160;&#160;&#160;&#160;&#160;&#160;&#160;&#160;&#160;&#160;&#160;&#160;&#160;&#160;&#160;&#160;&#160;&#160;&#160;&#160;&#160;&#160;&#160;&#160;&#160;&#160;&#160;&#160;&#160;LastViewedDate &#160;&#160;&#160;&#160;&#160;&#160;&#160;&#160;&#160;&#160;&#160;&#160;&#160;&#160;&#160;&#160;&#160;&#160;&#160;&#160;&#160;&#160;&#160;&#160;&#160;&#160;&#160;&#160;&#160;&#160;&#160;&#160;&#160;&#160;&#160;&#160;&#160;&#160;</text>
<polygon fill="none" stroke="#99ccff" points="823.6123,-103 823.6123,-120 914.6123,-120 914.6123,-103 823.6123,-103"/>
<text text-anchor="start" x="842.708" y="-108.2" font-family="Courier,monospace" font-size="11.00" fill="#000000">datetime</text>
<polygon fill="none" stroke="#99ccff" points="164.6123,-86 164.6123,-103 823.6123,-103 823.6123,-86 164.6123,-86"/>
<text text-anchor="start" x="167.6123" y="-91.2" font-family="Courier,monospace" font-size="11.00" fill="#000000"> &#160;&#160;&#160;&#160;&#160;&#160;&#160;&#160;&#160;&#160;&#160;&#160;&#160;&#160;&#160;&#160;&#160;&#160;&#160;&#160;&#160;&#160;&#160;&#160;&#160;&#160;&#160;&#160;&#160;&#160;&#160;&#160;&#160;&#160;&#160;&#160;&#160;&#160;&#160;&#160;LastReferencedDate &#160;&#160;&#160;&#160;&#160;&#160;&#160;&#160;&#160;&#160;&#160;&#160;&#160;&#160;&#160;&#160;&#160;&#160;&#160;&#160;&#160;&#160;&#160;&#160;&#160;&#160;&#160;&#160;&#160;&#160;&#160;&#160;&#160;&#160;&#160;&#160;&#160;&#160;</text>
<polygon fill="none" stroke="#99ccff" points="823.6123,-86 823.6123,-103 914.6123,-103 914.6123,-86 823.6123,-86"/>
<text text-anchor="start" x="842.708" y="-91.2" font-family="Courier,monospace" font-size="11.00" fill="#000000">datetime</text>
<polygon fill="none" stroke="#99ccff" points="164.6123,-69 164.6123,-86 823.6123,-86 823.6123,-69 164.6123,-69"/>
<text text-anchor="start" x="167.6123" y="-74.2" font-family="Courier,monospace" font-size="11.00" fill="#000000"> &#160;&#160;&#160;&#160;&#160;&#160;&#160;&#160;&#160;&#160;&#160;&#160;&#160;&#160;&#160;&#160;&#160;&#160;&#160;&#160;&#160;&#160;&#160;&#160;&#160;&#160;&#160;&#160;&#160;&#160;&#160;&#160;&#160;&#160;&#160;&#160;&#160;&#160;&#160;&#160;LocationType &#160;&#160;&#160;&#160;&#160;&#160;&#160;&#160;&#160;&#160;&#160;&#160;&#160;&#160;&#160;&#160;&#160;&#160;&#160;&#160;&#160;&#160;&#160;&#160;&#160;&#160;&#160;&#160;&#160;&#160;&#160;&#160;&#160;&#160;&#160;&#160;&#160;&#160;</text>
<polygon fill="none" stroke="#99ccff" points="823.6123,-69 823.6123,-86 914.6123,-86 914.6123,-69 823.6123,-69"/>
<text text-anchor="start" x="829.5059" y="-74.2" font-family="Courier,monospace" font-size="11.00" fill="#000000">picklist(40)</text>
<polygon fill="none" stroke="#99ccff" points="164.6123,-52 164.6123,-69 823.6123,-69 823.6123,-52 164.6123,-52"/>
<text text-anchor="start" x="167.6123" y="-57.2" font-family="Courier,monospace" font-size="11.00" fill="#000000"> &#160;&#160;&#160;&#160;&#160;&#160;&#160;&#160;&#160;&#160;&#160;&#160;&#160;&#160;&#160;&#160;&#160;&#160;&#160;&#160;&#160;&#160;&#160;&#160;&#160;&#160;&#160;&#160;&#160;&#160;&#160;&#160;&#160;&#160;&#160;&#160;&#160;&#160;&#160;&#160;IsMobile &#160;&#160;&#160;&#160;&#160;&#160;&#160;&#160;&#160;&#160;&#160;&#160;&#160;&#160;&#160;&#160;&#160;&#160;&#160;&#160;&#160;&#160;&#160;&#160;&#160;&#160;&#160;&#160;&#160;&#160;&#160;&#160;&#160;&#160;&#160;&#160;&#160;&#160;</text>
<polygon fill="none" stroke="#99ccff" points="823.6123,-52 823.6123,-69 914.6123,-69 914.6123,-52 823.6123,-52"/>
<text text-anchor="start" x="846.0085" y="-57.2" font-family="Courier,monospace" font-size="11.00" fill="#000000">boolean</text>
<polygon fill="none" stroke="#99ccff" points="164.6123,-35 164.6123,-52 823.6123,-52 823.6123,-35 164.6123,-35"/>
<text text-anchor="start" x="167.3591" y="-40.2" font-family="Courier,monospace" font-size="11.00" fill="#000000"> &#160;&#160;&#160;&#160;&#160;&#160;&#160;&#160;&#160;&#160;&#160;&#160;&#160;&#160;&#160;&#160;&#160;&#160;&#160;&#160;&#160;&#160;&#160;&#160;&#160;&#160;&#160;&#160;&#160;&#160;&#160;&#160;&#160;&#160;&#160;&#160;&#160;&#160;&#160;&#160;IsInventoryLocation &#160;&#160;&#160;&#160;&#160;&#160;&#160;&#160;&#160;&#160;&#160;&#160;&#160;&#160;&#160;&#160;&#160;&#160;&#160;&#160;&#160;&#160;&#160;&#160;&#160;&#160;&#160;&#160;&#160;&#160;&#160;&#160;&#160;&#160;&#160;&#160;&#160;&#160;</text>
<polygon fill="none" stroke="#99ccff" points="823.6123,-35 823.6123,-52 914.6123,-52 914.6123,-35 823.6123,-35"/>
<text text-anchor="start" x="846.0085" y="-40.2" font-family="Courier,monospace" font-size="11.00" fill="#000000">boolean</text>
<polygon fill="none" stroke="#99ccff" points="164.6123,-18 164.6123,-35 823.6123,-35 823.6123,-18 164.6123,-18"/>
<text text-anchor="start" x="167.6123" y="-23.2" font-family="Courier,monospace" font-size="11.00" fill="#000000"> &#160;&#160;&#160;&#160;&#160;&#160;&#160;&#160;&#160;&#160;&#160;&#160;&#160;&#160;&#160;&#160;&#160;&#160;&#160;&#160;&#160;&#160;&#160;&#160;&#160;&#160;&#160;&#160;&#160;&#160;&#160;&#160;&#160;&#160;&#160;&#160;&#160;&#160;&#160;&#160;RootLocationId &#160;&#160;&#160;&#160;&#160;&#160;&#160;&#160;&#160;&#160;&#160;&#160;&#160;&#160;&#160;&#160;&#160;&#160;&#160;&#160;&#160;&#160;&#160;&#160;&#160;&#160;&#160;&#160;&#160;&#160;&#160;&#160;&#160;&#160;&#160;&#160;&#160;&#160;</text>
<polygon fill="none" stroke="#99ccff" points="823.6123,-18 823.6123,-35 914.6123,-35 914.6123,-18 823.6123,-18"/>
<text text-anchor="start" x="826.2053" y="-23.2" font-family="Courier,monospace" font-size="11.00" fill="#000000">reference(18)</text>
<polygon fill="none" stroke="#99ccff" points="163.6123,-17 163.6123,-223 915.6123,-223 915.6123,-17 163.6123,-17"/>
</a>
</g>
</g>
<!-- Location&#45;&gt;Location -->
<g id="edge4" class="edge">
<title>Location:w&#45;&gt;Location:e</title>
<path fill="none" stroke="#3e7ab7" d="M151.3765,-31.6951C57.9191,-79.0743 75.8896,-236 494.1123,-236 931.1123,-236 931.1123,-227.3333 823.6123,-197"/>
<polygon fill="#3e7ab7" stroke="#3e7ab7" points="157.2637,-29.162 166.0352,-29.3069 160.938,-27.581 164.6123,-26 164.6123,-26 164.6123,-26 160.938,-27.581 163.1894,-22.6931 157.2637,-29.162 157.2637,-29.162"/>
<ellipse fill="none" stroke="#3e7ab7" cx="154.3242" cy="-30.4268" rx="3.2" ry="3.2"/>
<text text-anchor="middle" x="539.6123" y="-240.1988" font-family="Arial" font-size="12.00" fill="#000000">RootLocation</text>
</g>
<!-- Group -->
<g id="node2" class="node">
<title>Group</title>
<text text-anchor="middle" x="27" y="-185.7" font-family="Courier,monospace" font-size="11.00" fill="#000000">Group</text>
</g>
<!-- Location&#45;&gt;Group -->
<g id="edge1" class="edge">
<title>Location:w&#45;&gt;Group:e</title>
<path fill="none" stroke="#ff99cc" d="M149.9692,-180.1572C115.3611,-180.8704 78.3846,-183.8676 54.1209,-186.177"/>
<polygon fill="#ff99cc" stroke="#ff99cc" points="156.6128,-180.0859 164.651,-183.5998 160.6125,-180.043 164.6123,-180 164.6123,-180 164.6123,-180 160.6125,-180.043 164.5736,-176.4002 156.6128,-180.0859 156.6128,-180.0859"/>
<ellipse fill="none" stroke="#ff99cc" cx="153.4129" cy="-180.1203" rx="3.2" ry="3.2"/>
<text text-anchor="middle" x="108.8062" y="-188.8015" font-family="Monaco" font-size="9.00" fill="#000000">Owner</text>
</g>
<!-- User -->
<g id="node3" class="node">
<title>User</title>
<text text-anchor="middle" x="27" y="-131.7" font-family="Courier,monospace" font-size="11.00" fill="#000000">User</text>
</g>
<!-- Location&#45;&gt;User -->
<g id="edge2" class="edge">
<title>Location:w&#45;&gt;User:e</title>
<path fill="none" stroke="#ff99cc" d="M153.8712,-169.9171C152.4084,-166.6171 150.5709,-163.2297 146.6123,-160.9985 138.6055,-156.4857 86.7958,-146.1992 54.0421,-140.0035"/>
<polygon fill="#ff99cc" stroke="#ff99cc" points="158.7796,-174.5246 162.1484,-182.6247 161.6959,-177.2623 164.6123,-180 164.6123,-180 164.6123,-180 161.6959,-177.2623 167.0762,-177.3753 158.7796,-174.5246 158.7796,-174.5246"/>
<ellipse fill="none" stroke="#ff99cc" cx="156.4465" cy="-172.3345" rx="3.2" ry="3.2"/>
<text text-anchor="middle" x="108.8062" y="-164.8015" font-family="Monaco" font-size="9.00" fill="#000000">Owner</text>
</g>
<!-- Location&#45;&gt;User -->
<g id="edge3" class="edge">
<title>Location:w&#45;&gt;User:e</title>
<path fill="none" stroke="#ff99cc" d="M149.971,-128.1385C148.968,-128.0817 147.8638,-128.0333 146.6123,-127.9985 113.0198,-127.0648 104.5009,-125.3498 71,-127.9985 65.6023,-128.4253 59.8667,-129.1422 54.3816,-129.9586"/>
<polygon fill="#ff99cc" stroke="#ff99cc" points="156.6261,-128.5301 164.4008,-132.5938 160.6192,-128.765 164.6123,-129 164.6123,-129 164.6123,-129 160.6192,-128.765 164.8238,-125.4062 156.6261,-128.5301 156.6261,-128.5301"/>
<ellipse fill="none" stroke="#ff99cc" cx="153.4316" cy="-128.3421" rx="3.2" ry="3.2"/>
<text text-anchor="middle" x="108.8062" y="-132.8015" font-family="Monaco" font-size="9.00" fill="#000000">LastModifiedBy</text>
</g>
</g>
</svg>
