<?xml version="1.0" encoding="UTF-8" standalone="no"?>
<!DOCTYPE svg PUBLIC "-//W3C//DTD SVG 1.1//EN"
 "http://www.w3.org/Graphics/SVG/1.1/DTD/svg11.dtd">
<!-- Generated by graphviz version 2.40.1 (20161225.0304)
 -->
<!-- Title: Salesforce+ ERD Pages: 1 -->
<svg width="1024pt" height="224pt"
 viewBox="0.00 0.00 1024.43 223.50" xmlns="http://www.w3.org/2000/svg" xmlns:xlink="http://www.w3.org/1999/xlink">
<g id="graph0" class="graph" transform="scale(1 1) rotate(0) translate(4 219.5)">
<title>Salesforce+ ERD</title>
<polygon fill="#efeffd" stroke="transparent" points="-4,4 -4,-219.5 1020.4263,-219.5 1020.4263,4 -4,4"/>
<text text-anchor="middle" x="967.9197" y="-5.8" font-family="Courier,monospace" font-size="9.00" fill="#000000">Salesforce ERD </text>
<!-- ObjectPermissions -->
<g id="node1" class="node">
<title>ObjectPermissions</title>
<g id="a_node1"><a xlink:href="#" xlink:title=" ObjectPermissions ">
<polygon fill="#ffeeff" stroke="transparent" points="211.4263,-26.5 211.4263,-215.5 1016.4263,-215.5 1016.4263,-26.5 211.4263,-26.5"/>
<polygon fill="#add8e6" stroke="transparent" points="212.9263,-197 212.9263,-214 1015.9263,-214 1015.9263,-197 212.9263,-197"/>
<polygon fill="none" stroke="#99ccff" points="212.9263,-197 212.9263,-214 1015.9263,-214 1015.9263,-197 212.9263,-197"/>
<text text-anchor="start" x="558.3171" y="-203.2" font-family="Courier,monospace" font-weight="bold" font-size="11.00" fill="#000000">ObjectPermissions</text>
<polygon fill="#99ccff" stroke="transparent" points="212.9263,-180 212.9263,-197 924.9263,-197 924.9263,-180 212.9263,-180"/>
<polygon fill="none" stroke="#99ccff" points="212.9263,-180 212.9263,-197 924.9263,-197 924.9263,-180 212.9263,-180"/>
<text text-anchor="start" x="215.9263" y="-186.2" font-family="Courier,monospace" font-size="11.00" fill="#000000"> &#160;&#160;&#160;&#160;&#160;&#160;&#160;&#160;&#160;&#160;&#160;&#160;&#160;&#160;&#160;&#160;&#160;&#160;&#160;&#160;&#160;&#160;&#160;&#160;&#160;&#160;&#160;&#160;&#160;&#160;&#160;&#160;&#160;&#160;&#160;&#160;&#160;&#160;&#160;&#160;&#160;&#160;</text>
<text text-anchor="start" x="499.7725" y="-186.2" font-family="Courier,monospace" font-weight="bold" font-size="11.00" fill="#000000">Id</text>
<text text-anchor="start" x="512.9746" y="-186.2" font-family="Courier,monospace" font-size="11.00" fill="#000000"> &#160;&#160;&#160;&#160;&#160;&#160;&#160;&#160;&#160;&#160;&#160;&#160;&#160;&#160;&#160;&#160;&#160;&#160;&#160;&#160;&#160;&#160;&#160;&#160;&#160;&#160;&#160;&#160;&#160;&#160;&#160;&#160;&#160;&#160;&#160;&#160;&#160;&#160;&#160;</text>
<polygon fill="none" stroke="#99ccff" points="924.9263,-180 924.9263,-197 1015.9263,-197 1015.9263,-180 924.9263,-180"/>
<text text-anchor="start" x="950.623" y="-185.2" font-family="Courier,monospace" font-size="11.00" fill="#000000">id(18)</text>
<polygon fill="none" stroke="#99ccff" points="212.9263,-163 212.9263,-180 924.9263,-180 924.9263,-163 212.9263,-163"/>
<text text-anchor="start" x="215.9263" y="-168.2" font-family="Courier,monospace" font-size="11.00" fill="#000000"> &#160;&#160;&#160;&#160;&#160;&#160;&#160;&#160;&#160;&#160;&#160;&#160;&#160;&#160;&#160;&#160;&#160;&#160;&#160;&#160;&#160;&#160;&#160;&#160;&#160;&#160;&#160;&#160;&#160;&#160;&#160;&#160;&#160;&#160;&#160;&#160;&#160;&#160;&#160;&#160;ParentId &#160;&#160;&#160;&#160;&#160;&#160;&#160;&#160;&#160;&#160;&#160;&#160;&#160;&#160;&#160;&#160;&#160;&#160;&#160;&#160;&#160;&#160;&#160;&#160;&#160;&#160;&#160;&#160;&#160;&#160;&#160;&#160;&#160;&#160;&#160;&#160;&#160;&#160;</text>
<polygon fill="none" stroke="#99ccff" points="924.9263,-163 924.9263,-180 1015.9263,-180 1015.9263,-163 924.9263,-163"/>
<text text-anchor="start" x="927.5193" y="-168.2" font-family="Courier,monospace" font-size="11.00" fill="#000000">reference(18)</text>
<polygon fill="none" stroke="#99ccff" points="212.9263,-146 212.9263,-163 924.9263,-163 924.9263,-146 212.9263,-146"/>
<text text-anchor="start" x="215.9263" y="-151.2" font-family="Courier,monospace" font-size="11.00" fill="#000000"> &#160;&#160;&#160;&#160;&#160;&#160;&#160;&#160;&#160;&#160;&#160;&#160;&#160;&#160;&#160;&#160;&#160;&#160;&#160;&#160;&#160;&#160;&#160;&#160;&#160;&#160;&#160;&#160;&#160;&#160;&#160;&#160;&#160;&#160;&#160;&#160;&#160;&#160;&#160;&#160;SobjectType &#160;&#160;&#160;&#160;&#160;&#160;&#160;&#160;&#160;&#160;&#160;&#160;&#160;&#160;&#160;&#160;&#160;&#160;&#160;&#160;&#160;&#160;&#160;&#160;&#160;&#160;&#160;&#160;&#160;&#160;&#160;&#160;&#160;&#160;&#160;&#160;&#160;&#160;</text>
<polygon fill="none" stroke="#99ccff" points="924.9263,-146 924.9263,-163 1015.9263,-163 1015.9263,-146 924.9263,-146"/>
<text text-anchor="start" x="930.8198" y="-151.2" font-family="Courier,monospace" font-size="11.00" fill="#000000">picklist(40)</text>
<polygon fill="none" stroke="#99ccff" points="212.9263,-129 212.9263,-146 924.9263,-146 924.9263,-129 212.9263,-129"/>
<text text-anchor="start" x="215.9263" y="-134.2" font-family="Courier,monospace" font-size="11.00" fill="#000000"> &#160;&#160;&#160;&#160;&#160;&#160;&#160;&#160;&#160;&#160;&#160;&#160;&#160;&#160;&#160;&#160;&#160;&#160;&#160;&#160;&#160;&#160;&#160;&#160;&#160;&#160;&#160;&#160;&#160;&#160;&#160;&#160;&#160;&#160;&#160;&#160;&#160;&#160;&#160;&#160;PermissionsCreate &#160;&#160;&#160;&#160;&#160;&#160;&#160;&#160;&#160;&#160;&#160;&#160;&#160;&#160;&#160;&#160;&#160;&#160;&#160;&#160;&#160;&#160;&#160;&#160;&#160;&#160;&#160;&#160;&#160;&#160;&#160;&#160;&#160;&#160;&#160;&#160;&#160;&#160;</text>
<polygon fill="none" stroke="#99ccff" points="924.9263,-129 924.9263,-146 1015.9263,-146 1015.9263,-129 924.9263,-129"/>
<text text-anchor="start" x="947.3225" y="-134.2" font-family="Courier,monospace" font-size="11.00" fill="#000000">boolean</text>
<polygon fill="none" stroke="#99ccff" points="212.9263,-112 212.9263,-129 924.9263,-129 924.9263,-112 212.9263,-112"/>
<text text-anchor="start" x="215.9263" y="-117.2" font-family="Courier,monospace" font-size="11.00" fill="#000000"> &#160;&#160;&#160;&#160;&#160;&#160;&#160;&#160;&#160;&#160;&#160;&#160;&#160;&#160;&#160;&#160;&#160;&#160;&#160;&#160;&#160;&#160;&#160;&#160;&#160;&#160;&#160;&#160;&#160;&#160;&#160;&#160;&#160;&#160;&#160;&#160;&#160;&#160;&#160;&#160;PermissionsRead &#160;&#160;&#160;&#160;&#160;&#160;&#160;&#160;&#160;&#160;&#160;&#160;&#160;&#160;&#160;&#160;&#160;&#160;&#160;&#160;&#160;&#160;&#160;&#160;&#160;&#160;&#160;&#160;&#160;&#160;&#160;&#160;&#160;&#160;&#160;&#160;&#160;&#160;</text>
<polygon fill="none" stroke="#99ccff" points="924.9263,-112 924.9263,-129 1015.9263,-129 1015.9263,-112 924.9263,-112"/>
<text text-anchor="start" x="947.3225" y="-117.2" font-family="Courier,monospace" font-size="11.00" fill="#000000">boolean</text>
<polygon fill="none" stroke="#99ccff" points="212.9263,-95 212.9263,-112 924.9263,-112 924.9263,-95 212.9263,-95"/>
<text text-anchor="start" x="215.9263" y="-100.2" font-family="Courier,monospace" font-size="11.00" fill="#000000"> &#160;&#160;&#160;&#160;&#160;&#160;&#160;&#160;&#160;&#160;&#160;&#160;&#160;&#160;&#160;&#160;&#160;&#160;&#160;&#160;&#160;&#160;&#160;&#160;&#160;&#160;&#160;&#160;&#160;&#160;&#160;&#160;&#160;&#160;&#160;&#160;&#160;&#160;&#160;&#160;PermissionsEdit &#160;&#160;&#160;&#160;&#160;&#160;&#160;&#160;&#160;&#160;&#160;&#160;&#160;&#160;&#160;&#160;&#160;&#160;&#160;&#160;&#160;&#160;&#160;&#160;&#160;&#160;&#160;&#160;&#160;&#160;&#160;&#160;&#160;&#160;&#160;&#160;&#160;&#160;</text>
<polygon fill="none" stroke="#99ccff" points="924.9263,-95 924.9263,-112 1015.9263,-112 1015.9263,-95 924.9263,-95"/>
<text text-anchor="start" x="947.3225" y="-100.2" font-family="Courier,monospace" font-size="11.00" fill="#000000">boolean</text>
<polygon fill="none" stroke="#99ccff" points="212.9263,-78 212.9263,-95 924.9263,-95 924.9263,-78 212.9263,-78"/>
<text text-anchor="start" x="215.9263" y="-83.2" font-family="Courier,monospace" font-size="11.00" fill="#000000"> &#160;&#160;&#160;&#160;&#160;&#160;&#160;&#160;&#160;&#160;&#160;&#160;&#160;&#160;&#160;&#160;&#160;&#160;&#160;&#160;&#160;&#160;&#160;&#160;&#160;&#160;&#160;&#160;&#160;&#160;&#160;&#160;&#160;&#160;&#160;&#160;&#160;&#160;&#160;&#160;PermissionsDelete &#160;&#160;&#160;&#160;&#160;&#160;&#160;&#160;&#160;&#160;&#160;&#160;&#160;&#160;&#160;&#160;&#160;&#160;&#160;&#160;&#160;&#160;&#160;&#160;&#160;&#160;&#160;&#160;&#160;&#160;&#160;&#160;&#160;&#160;&#160;&#160;&#160;&#160;</text>
<polygon fill="none" stroke="#99ccff" points="924.9263,-78 924.9263,-95 1015.9263,-95 1015.9263,-78 924.9263,-78"/>
<text text-anchor="start" x="947.3225" y="-83.2" font-family="Courier,monospace" font-size="11.00" fill="#000000">boolean</text>
<polygon fill="none" stroke="#99ccff" points="212.9263,-61 212.9263,-78 924.9263,-78 924.9263,-61 212.9263,-61"/>
<text text-anchor="start" x="215.9263" y="-66.2" font-family="Courier,monospace" font-size="11.00" fill="#000000"> &#160;&#160;&#160;&#160;&#160;&#160;&#160;&#160;&#160;&#160;&#160;&#160;&#160;&#160;&#160;&#160;&#160;&#160;&#160;&#160;&#160;&#160;&#160;&#160;&#160;&#160;&#160;&#160;&#160;&#160;&#160;&#160;&#160;&#160;&#160;&#160;&#160;&#160;&#160;&#160;PermissionsViewAllRecords &#160;&#160;&#160;&#160;&#160;&#160;&#160;&#160;&#160;&#160;&#160;&#160;&#160;&#160;&#160;&#160;&#160;&#160;&#160;&#160;&#160;&#160;&#160;&#160;&#160;&#160;&#160;&#160;&#160;&#160;&#160;&#160;&#160;&#160;&#160;&#160;&#160;&#160;</text>
<polygon fill="none" stroke="#99ccff" points="924.9263,-61 924.9263,-78 1015.9263,-78 1015.9263,-61 924.9263,-61"/>
<text text-anchor="start" x="947.3225" y="-66.2" font-family="Courier,monospace" font-size="11.00" fill="#000000">boolean</text>
<polygon fill="none" stroke="#99ccff" points="212.9263,-44 212.9263,-61 924.9263,-61 924.9263,-44 212.9263,-44"/>
<text text-anchor="start" x="215.7688" y="-49.2" font-family="Courier,monospace" font-size="11.00" fill="#000000"> &#160;&#160;&#160;&#160;&#160;&#160;&#160;&#160;&#160;&#160;&#160;&#160;&#160;&#160;&#160;&#160;&#160;&#160;&#160;&#160;&#160;&#160;&#160;&#160;&#160;&#160;&#160;&#160;&#160;&#160;&#160;&#160;&#160;&#160;&#160;&#160;&#160;&#160;&#160;&#160;PermissionsModifyAllRecords &#160;&#160;&#160;&#160;&#160;&#160;&#160;&#160;&#160;&#160;&#160;&#160;&#160;&#160;&#160;&#160;&#160;&#160;&#160;&#160;&#160;&#160;&#160;&#160;&#160;&#160;&#160;&#160;&#160;&#160;&#160;&#160;&#160;&#160;&#160;&#160;&#160;&#160;</text>
<polygon fill="none" stroke="#99ccff" points="924.9263,-44 924.9263,-61 1015.9263,-61 1015.9263,-44 924.9263,-44"/>
<text text-anchor="start" x="947.3225" y="-49.2" font-family="Courier,monospace" font-size="11.00" fill="#000000">boolean</text>
<polygon fill="none" stroke="#99ccff" points="212.9263,-27 212.9263,-44 924.9263,-44 924.9263,-27 212.9263,-27"/>
<text text-anchor="start" x="215.9263" y="-32.2" font-family="Courier,monospace" font-size="11.00" fill="#000000"> &#160;&#160;&#160;&#160;&#160;&#160;&#160;&#160;&#160;&#160;&#160;&#160;&#160;&#160;&#160;&#160;&#160;&#160;&#160;&#160;&#160;&#160;&#160;&#160;&#160;&#160;&#160;&#160;&#160;&#160;&#160;&#160;&#160;&#160;&#160;&#160;&#160;&#160;&#160;&#160;LastModifiedById &#160;&#160;&#160;&#160;&#160;&#160;&#160;&#160;&#160;&#160;&#160;&#160;&#160;&#160;&#160;&#160;&#160;&#160;&#160;&#160;&#160;&#160;&#160;&#160;&#160;&#160;&#160;&#160;&#160;&#160;&#160;&#160;&#160;&#160;&#160;&#160;&#160;&#160;</text>
<polygon fill="none" stroke="#99ccff" points="924.9263,-27 924.9263,-44 1015.9263,-44 1015.9263,-27 924.9263,-27"/>
<text text-anchor="start" x="927.5193" y="-32.2" font-family="Courier,monospace" font-size="11.00" fill="#000000">reference(18)</text>
<polygon fill="none" stroke="#99ccff" points="211.4263,-26.5 211.4263,-215.5 1016.4263,-215.5 1016.4263,-26.5 211.4263,-26.5"/>
</a>
</g>
</g>
<!-- PermissionSet -->
<g id="node2" class="node">
<title>PermissionSet</title>
<text text-anchor="middle" x="50.907" y="-168.7" font-family="Courier,monospace" font-size="11.00" fill="#000000">PermissionSet</text>
</g>
<!-- ObjectPermissions&#45;&gt;PermissionSet -->
<g id="edge1" class="edge">
<title>ObjectPermissions:w&#45;&gt;PermissionSet:e</title>
<path fill="none" stroke="#ff99cc" d="M198.3607,-172C165.157,-172 129.7698,-172 101.9867,-172"/>
<polygon fill="#ff99cc" stroke="#ff99cc" points="204.9263,-172.0001 212.9263,-175.6 208.9263,-172 212.9263,-172 212.9263,-172 212.9263,-172 208.9263,-172 212.9262,-168.4 204.9263,-172.0001 204.9263,-172.0001"/>
<ellipse fill="none" stroke="#ff99cc" cx="201.7263" cy="-172.0001" rx="3.2" ry="3.2"/>
<text text-anchor="middle" x="156.6201" y="-176.8015" font-family="Monaco" font-size="9.00" fill="#000000">Parent</text>
</g>
<!-- User -->
<g id="node3" class="node">
<title>User</title>
<text text-anchor="middle" x="50.907" y="-31.7" font-family="Courier,monospace" font-size="11.00" fill="#000000">User</text>
</g>
<!-- ObjectPermissions&#45;&gt;User -->
<g id="edge2" class="edge">
<title>ObjectPermissions:w&#45;&gt;User:e</title>
<path fill="none" stroke="#ff99cc" d="M198.2761,-35C154.5557,-35 107.0649,-35 78.1405,-35"/>
<polygon fill="#ff99cc" stroke="#ff99cc" points="204.9263,-35.0001 212.9263,-38.6 208.9263,-35 212.9263,-35 212.9263,-35 212.9263,-35 208.9263,-35 212.9262,-31.4 204.9263,-35.0001 204.9263,-35.0001"/>
<ellipse fill="none" stroke="#ff99cc" cx="201.7263" cy="-35.0001" rx="3.2" ry="3.2"/>
<text text-anchor="middle" x="156.6201" y="-39.8015" font-family="Monaco" font-size="9.00" fill="#000000">LastModifiedBy</text>
</g>
</g>
</svg>
