<?xml version="1.0" encoding="UTF-8" standalone="no"?>
<!DOCTYPE svg PUBLIC "-//W3C//DTD SVG 1.1//EN"
 "http://www.w3.org/Graphics/SVG/1.1/DTD/svg11.dtd">
<!-- Generated by graphviz version 2.40.1 (20161225.0304)
 -->
<!-- Title: Salesforce+ ERD Pages: 1 -->
<svg width="978pt" height="174pt"
 viewBox="0.00 0.00 978.22 174.00" xmlns="http://www.w3.org/2000/svg" xmlns:xlink="http://www.w3.org/1999/xlink">
<g id="graph0" class="graph" transform="scale(1 1) rotate(0) translate(4 170)">
<title>Salesforce+ ERD</title>
<polygon fill="#efeffd" stroke="transparent" points="-4,4 -4,-170 974.2241,-170 974.2241,4 -4,4"/>
<text text-anchor="middle" x="921.7175" y="-5.8" font-family="Courier,monospace" font-size="9.00" fill="#000000">Salesforce ERD </text>
<!-- OpportunityShare -->
<g id="node1" class="node">
<title>OpportunityShare</title>
<g id="a_node1"><a xlink:href="#" xlink:title=" OpportunityShare ">
<polygon fill="#ffeeff" stroke="transparent" points="198.2241,-17 198.2241,-155 970.2241,-155 970.2241,-17 198.2241,-17"/>
<polygon fill="#add8e6" stroke="transparent" points="199.2241,-137 199.2241,-154 969.2241,-154 969.2241,-137 199.2241,-137"/>
<polygon fill="none" stroke="#99ccff" points="199.2241,-137 199.2241,-154 969.2241,-154 969.2241,-137 199.2241,-137"/>
<text text-anchor="start" x="531.4155" y="-143.2" font-family="Courier,monospace" font-weight="bold" font-size="11.00" fill="#000000">OpportunityShare</text>
<polygon fill="#99ccff" stroke="transparent" points="199.2241,-120 199.2241,-137 878.2241,-137 878.2241,-120 199.2241,-120"/>
<polygon fill="none" stroke="#99ccff" points="199.2241,-120 199.2241,-137 878.2241,-137 878.2241,-120 199.2241,-120"/>
<text text-anchor="start" x="202.2241" y="-126.2" font-family="Courier,monospace" font-size="11.00" fill="#000000"> &#160;&#160;&#160;&#160;&#160;&#160;&#160;&#160;&#160;&#160;&#160;&#160;&#160;&#160;&#160;&#160;&#160;&#160;&#160;&#160;&#160;&#160;&#160;&#160;&#160;&#160;&#160;&#160;&#160;&#160;&#160;&#160;&#160;&#160;&#160;&#160;&#160;&#160;&#160;&#160;&#160;&#160;</text>
<text text-anchor="start" x="486.0703" y="-126.2" font-family="Courier,monospace" font-weight="bold" font-size="11.00" fill="#000000">Id</text>
<text text-anchor="start" x="499.2725" y="-126.2" font-family="Courier,monospace" font-size="11.00" fill="#000000"> &#160;&#160;&#160;&#160;&#160;&#160;&#160;&#160;&#160;&#160;&#160;&#160;&#160;&#160;&#160;&#160;&#160;&#160;&#160;&#160;&#160;&#160;&#160;&#160;&#160;&#160;&#160;&#160;&#160;&#160;&#160;&#160;&#160;&#160;&#160;&#160;&#160;&#160;&#160;</text>
<polygon fill="none" stroke="#99ccff" points="878.2241,-120 878.2241,-137 969.2241,-137 969.2241,-120 878.2241,-120"/>
<text text-anchor="start" x="903.9209" y="-125.2" font-family="Courier,monospace" font-size="11.00" fill="#000000">id(18)</text>
<polygon fill="none" stroke="#99ccff" points="199.2241,-103 199.2241,-120 878.2241,-120 878.2241,-103 199.2241,-103"/>
<text text-anchor="start" x="202.2241" y="-108.2" font-family="Courier,monospace" font-size="11.00" fill="#000000"> &#160;&#160;&#160;&#160;&#160;&#160;&#160;&#160;&#160;&#160;&#160;&#160;&#160;&#160;&#160;&#160;&#160;&#160;&#160;&#160;&#160;&#160;&#160;&#160;&#160;&#160;&#160;&#160;&#160;&#160;&#160;&#160;&#160;&#160;&#160;&#160;&#160;&#160;&#160;&#160;OpportunityId &#160;&#160;&#160;&#160;&#160;&#160;&#160;&#160;&#160;&#160;&#160;&#160;&#160;&#160;&#160;&#160;&#160;&#160;&#160;&#160;&#160;&#160;&#160;&#160;&#160;&#160;&#160;&#160;&#160;&#160;&#160;&#160;&#160;&#160;&#160;&#160;&#160;&#160;</text>
<polygon fill="none" stroke="#99ccff" points="878.2241,-103 878.2241,-120 969.2241,-120 969.2241,-103 878.2241,-103"/>
<text text-anchor="start" x="880.8171" y="-108.2" font-family="Courier,monospace" font-size="11.00" fill="#000000">reference(18)</text>
<polygon fill="none" stroke="#99ccff" points="199.2241,-86 199.2241,-103 878.2241,-103 878.2241,-86 199.2241,-86"/>
<text text-anchor="start" x="202.2241" y="-91.2" font-family="Courier,monospace" font-size="11.00" fill="#000000"> &#160;&#160;&#160;&#160;&#160;&#160;&#160;&#160;&#160;&#160;&#160;&#160;&#160;&#160;&#160;&#160;&#160;&#160;&#160;&#160;&#160;&#160;&#160;&#160;&#160;&#160;&#160;&#160;&#160;&#160;&#160;&#160;&#160;&#160;&#160;&#160;&#160;&#160;&#160;&#160;UserOrGroupId &#160;&#160;&#160;&#160;&#160;&#160;&#160;&#160;&#160;&#160;&#160;&#160;&#160;&#160;&#160;&#160;&#160;&#160;&#160;&#160;&#160;&#160;&#160;&#160;&#160;&#160;&#160;&#160;&#160;&#160;&#160;&#160;&#160;&#160;&#160;&#160;&#160;&#160;</text>
<polygon fill="none" stroke="#99ccff" points="878.2241,-86 878.2241,-103 969.2241,-103 969.2241,-86 878.2241,-86"/>
<text text-anchor="start" x="880.8171" y="-91.2" font-family="Courier,monospace" font-size="11.00" fill="#000000">reference(18)</text>
<polygon fill="none" stroke="#99ccff" points="199.2241,-69 199.2241,-86 878.2241,-86 878.2241,-69 199.2241,-69"/>
<text text-anchor="start" x="202.0693" y="-74.2" font-family="Courier,monospace" font-size="11.00" fill="#000000"> &#160;&#160;&#160;&#160;&#160;&#160;&#160;&#160;&#160;&#160;&#160;&#160;&#160;&#160;&#160;&#160;&#160;&#160;&#160;&#160;&#160;&#160;&#160;&#160;&#160;&#160;&#160;&#160;&#160;&#160;&#160;&#160;&#160;&#160;&#160;&#160;&#160;&#160;&#160;&#160;OpportunityAccessLevel &#160;&#160;&#160;&#160;&#160;&#160;&#160;&#160;&#160;&#160;&#160;&#160;&#160;&#160;&#160;&#160;&#160;&#160;&#160;&#160;&#160;&#160;&#160;&#160;&#160;&#160;&#160;&#160;&#160;&#160;&#160;&#160;&#160;&#160;&#160;&#160;&#160;&#160;</text>
<polygon fill="none" stroke="#99ccff" points="878.2241,-69 878.2241,-86 969.2241,-86 969.2241,-69 878.2241,-69"/>
<text text-anchor="start" x="884.1177" y="-74.2" font-family="Courier,monospace" font-size="11.00" fill="#000000">picklist(40)</text>
<polygon fill="none" stroke="#99ccff" points="199.2241,-52 199.2241,-69 878.2241,-69 878.2241,-52 199.2241,-52"/>
<text text-anchor="start" x="202.2241" y="-57.2" font-family="Courier,monospace" font-size="11.00" fill="#000000"> &#160;&#160;&#160;&#160;&#160;&#160;&#160;&#160;&#160;&#160;&#160;&#160;&#160;&#160;&#160;&#160;&#160;&#160;&#160;&#160;&#160;&#160;&#160;&#160;&#160;&#160;&#160;&#160;&#160;&#160;&#160;&#160;&#160;&#160;&#160;&#160;&#160;&#160;&#160;&#160;RowCause &#160;&#160;&#160;&#160;&#160;&#160;&#160;&#160;&#160;&#160;&#160;&#160;&#160;&#160;&#160;&#160;&#160;&#160;&#160;&#160;&#160;&#160;&#160;&#160;&#160;&#160;&#160;&#160;&#160;&#160;&#160;&#160;&#160;&#160;&#160;&#160;&#160;&#160;</text>
<polygon fill="none" stroke="#99ccff" points="878.2241,-52 878.2241,-69 969.2241,-69 969.2241,-52 878.2241,-52"/>
<text text-anchor="start" x="884.1177" y="-57.2" font-family="Courier,monospace" font-size="11.00" fill="#000000">picklist(40)</text>
<polygon fill="none" stroke="#99ccff" points="199.2241,-35 199.2241,-52 878.2241,-52 878.2241,-35 199.2241,-35"/>
<text text-anchor="start" x="202.2241" y="-40.2" font-family="Courier,monospace" font-size="11.00" fill="#000000"> &#160;&#160;&#160;&#160;&#160;&#160;&#160;&#160;&#160;&#160;&#160;&#160;&#160;&#160;&#160;&#160;&#160;&#160;&#160;&#160;&#160;&#160;&#160;&#160;&#160;&#160;&#160;&#160;&#160;&#160;&#160;&#160;&#160;&#160;&#160;&#160;&#160;&#160;&#160;&#160;LastModifiedById &#160;&#160;&#160;&#160;&#160;&#160;&#160;&#160;&#160;&#160;&#160;&#160;&#160;&#160;&#160;&#160;&#160;&#160;&#160;&#160;&#160;&#160;&#160;&#160;&#160;&#160;&#160;&#160;&#160;&#160;&#160;&#160;&#160;&#160;&#160;&#160;&#160;&#160;</text>
<polygon fill="none" stroke="#99ccff" points="878.2241,-35 878.2241,-52 969.2241,-52 969.2241,-35 878.2241,-35"/>
<text text-anchor="start" x="880.8171" y="-40.2" font-family="Courier,monospace" font-size="11.00" fill="#000000">reference(18)</text>
<polygon fill="none" stroke="#99ccff" points="199.2241,-18 199.2241,-35 878.2241,-35 878.2241,-18 199.2241,-18"/>
<text text-anchor="start" x="202.2241" y="-23.2" font-family="Courier,monospace" font-size="11.00" fill="#000000"> &#160;&#160;&#160;&#160;&#160;&#160;&#160;&#160;&#160;&#160;&#160;&#160;&#160;&#160;&#160;&#160;&#160;&#160;&#160;&#160;&#160;&#160;&#160;&#160;&#160;&#160;&#160;&#160;&#160;&#160;&#160;&#160;&#160;&#160;&#160;&#160;&#160;&#160;&#160;&#160;IsDeleted &#160;&#160;&#160;&#160;&#160;&#160;&#160;&#160;&#160;&#160;&#160;&#160;&#160;&#160;&#160;&#160;&#160;&#160;&#160;&#160;&#160;&#160;&#160;&#160;&#160;&#160;&#160;&#160;&#160;&#160;&#160;&#160;&#160;&#160;&#160;&#160;&#160;&#160;</text>
<polygon fill="none" stroke="#99ccff" points="878.2241,-18 878.2241,-35 969.2241,-35 969.2241,-18 878.2241,-18"/>
<text text-anchor="start" x="900.6204" y="-23.2" font-family="Courier,monospace" font-size="11.00" fill="#000000">boolean</text>
<polygon fill="none" stroke="#99ccff" points="198.2241,-17 198.2241,-155 970.2241,-155 970.2241,-17 198.2241,-17"/>
</a>
</g>
</g>
<!-- Opportunity -->
<g id="node2" class="node">
<title>Opportunity</title>
<text text-anchor="middle" x="44.3059" y="-144.7" font-family="Courier,monospace" font-size="11.00" fill="#000000">Opportunity</text>
</g>
<!-- OpportunityShare&#45;&gt;Opportunity -->
<g id="edge1" class="edge">
<title>OpportunityShare:w&#45;&gt;Opportunity:e</title>
<path fill="none" stroke="#ff99cc" d="M184.7803,-112.4683C150.787,-114.6025 115.2463,-123.6667 88.4186,-132.1051"/>
<polygon fill="#ff99cc" stroke="#ff99cc" points="191.2283,-112.2593 199.3408,-115.5981 195.2262,-112.1297 199.2241,-112 199.2241,-112 199.2241,-112 195.2262,-112.1297 199.1074,-108.4019 191.2283,-112.2593 191.2283,-112.2593"/>
<ellipse fill="none" stroke="#ff99cc" cx="188.03" cy="-112.363" rx="3.2" ry="3.2"/>
<text text-anchor="middle" x="143.418" y="-130.8015" font-family="Monaco" font-size="9.00" fill="#000000">Opportunity</text>
</g>
<!-- Group -->
<g id="node3" class="node">
<title>Group</title>
<text text-anchor="middle" x="44.3059" y="-95.7" font-family="Courier,monospace" font-size="11.00" fill="#000000">Group</text>
</g>
<!-- OpportunityShare&#45;&gt;Group -->
<g id="edge2" class="edge">
<title>OpportunityShare:w&#45;&gt;Group:e</title>
<path fill="none" stroke="#ff99cc" d="M184.5717,-95.0558C143.4877,-95.3576 99.0483,-96.8191 71.4457,-97.8751"/>
<polygon fill="#ff99cc" stroke="#ff99cc" points="191.2242,-95.0305 199.2379,-98.6 195.2242,-95.0153 199.2241,-95 199.2241,-95 199.2241,-95 195.2242,-95.0153 199.2104,-91.4 191.2242,-95.0305 191.2242,-95.0305"/>
<ellipse fill="none" stroke="#ff99cc" cx="188.0242" cy="-95.0428" rx="3.2" ry="3.2"/>
<text text-anchor="middle" x="143.418" y="-100.8015" font-family="Monaco" font-size="9.00" fill="#000000">UserOrGroup</text>
</g>
<!-- User -->
<g id="node4" class="node">
<title>User</title>
<text text-anchor="middle" x="44.3059" y="-41.7" font-family="Courier,monospace" font-size="11.00" fill="#000000">User</text>
</g>
<!-- OpportunityShare&#45;&gt;User -->
<g id="edge3" class="edge">
<title>OpportunityShare:w&#45;&gt;User:e</title>
<path fill="none" stroke="#ff99cc" d="M187.6268,-85.8902C186.1295,-83.7035 184.2668,-81.5538 181.2241,-79.9985 145.7238,-61.8528 100.1241,-52.6418 71.5506,-48.334"/>
<polygon fill="#ff99cc" stroke="#ff99cc" points="192.9329,-90.0582 197.0003,-97.831 196.0785,-92.5291 199.2241,-95 199.2241,-95 199.2241,-95 196.0785,-92.5291 201.4479,-92.169 192.9329,-90.0582 192.9329,-90.0582"/>
<ellipse fill="none" stroke="#ff99cc" cx="190.4165" cy="-88.0815" rx="3.2" ry="3.2"/>
<text text-anchor="middle" x="143.418" y="-83.8015" font-family="Monaco" font-size="9.00" fill="#000000">UserOrGroup</text>
</g>
<!-- OpportunityShare&#45;&gt;User -->
<g id="edge4" class="edge">
<title>OpportunityShare:w&#45;&gt;User:e</title>
<path fill="none" stroke="#ff99cc" d="M184.8878,-41.3131C183.8059,-41.1845 182.6055,-41.0751 181.2241,-40.9985 147.6702,-39.1388 139.1994,-39.9036 105.6118,-40.9985 94.4184,-41.3634 82.0937,-42.1022 71.4488,-42.8467"/>
<polygon fill="#ff99cc" stroke="#ff99cc" points="191.2789,-42.0651 198.8034,-46.5753 195.2515,-42.5325 199.2241,-43 199.2241,-43 199.2241,-43 195.2515,-42.5325 199.6448,-39.4247 191.2789,-42.0651 191.2789,-42.0651"/>
<ellipse fill="none" stroke="#ff99cc" cx="188.1009" cy="-41.6911" rx="3.2" ry="3.2"/>
<text text-anchor="middle" x="143.418" y="-45.8015" font-family="Monaco" font-size="9.00" fill="#000000">LastModifiedBy</text>
</g>
</g>
</svg>
