<?xml version="1.0" encoding="UTF-8" standalone="no"?>
<!DOCTYPE svg PUBLIC "-//W3C//DTD SVG 1.1//EN"
 "http://www.w3.org/Graphics/SVG/1.1/DTD/svg11.dtd">
<!-- Generated by graphviz version 2.40.1 (20161225.0304)
 -->
<!-- Title: Salesforce+ ERD Pages: 1 -->
<svg width="1033pt" height="159pt"
 viewBox="0.00 0.00 1033.04 159.00" xmlns="http://www.w3.org/2000/svg" xmlns:xlink="http://www.w3.org/1999/xlink">
<g id="graph0" class="graph" transform="scale(1 1) rotate(0) translate(4 155)">
<title>Salesforce+ ERD</title>
<polygon fill="#efeffd" stroke="transparent" points="-4,4 -4,-155 1029.0352,-155 1029.0352,4 -4,4"/>
<text text-anchor="middle" x="976.5286" y="-5.8" font-family="Courier,monospace" font-size="9.00" fill="#000000">Salesforce ERD </text>
<!-- PermissionSetAssignment -->
<g id="node1" class="node">
<title>PermissionSetAssignment</title>
<g id="a_node1"><a xlink:href="#" xlink:title=" PermissionSetAssignment ">
<polygon fill="#ffeeff" stroke="transparent" points="266.0352,-58.5 266.0352,-145.5 1025.0352,-145.5 1025.0352,-58.5 266.0352,-58.5"/>
<polygon fill="#add8e6" stroke="transparent" points="267.5352,-127 267.5352,-144 1024.5352,-144 1024.5352,-127 267.5352,-127"/>
<polygon fill="none" stroke="#99ccff" points="267.5352,-127 267.5352,-144 1024.5352,-144 1024.5352,-127 267.5352,-127"/>
<text text-anchor="start" x="570.1228" y="-133.2" font-family="Courier,monospace" font-weight="bold" font-size="11.00" fill="#000000">PermissionSetAssignment</text>
<polygon fill="#99ccff" stroke="transparent" points="267.5352,-110 267.5352,-127 933.5352,-127 933.5352,-110 267.5352,-110"/>
<polygon fill="none" stroke="#99ccff" points="267.5352,-110 267.5352,-127 933.5352,-127 933.5352,-110 267.5352,-110"/>
<text text-anchor="start" x="270.5352" y="-116.2" font-family="Courier,monospace" font-size="11.00" fill="#000000"> &#160;&#160;&#160;&#160;&#160;&#160;&#160;&#160;&#160;&#160;&#160;&#160;&#160;&#160;&#160;&#160;&#160;&#160;&#160;&#160;&#160;&#160;&#160;&#160;&#160;&#160;&#160;&#160;&#160;&#160;&#160;&#160;&#160;&#160;&#160;&#160;&#160;&#160;&#160;&#160;&#160;&#160;</text>
<text text-anchor="start" x="554.3813" y="-116.2" font-family="Courier,monospace" font-weight="bold" font-size="11.00" fill="#000000">Id</text>
<text text-anchor="start" x="567.5835" y="-116.2" font-family="Courier,monospace" font-size="11.00" fill="#000000"> &#160;&#160;&#160;&#160;&#160;&#160;&#160;&#160;&#160;&#160;&#160;&#160;&#160;&#160;&#160;&#160;&#160;&#160;&#160;&#160;&#160;&#160;&#160;&#160;&#160;&#160;&#160;&#160;&#160;&#160;&#160;&#160;&#160;&#160;&#160;&#160;&#160;&#160;&#160;</text>
<polygon fill="none" stroke="#99ccff" points="933.5352,-110 933.5352,-127 1024.5352,-127 1024.5352,-110 933.5352,-110"/>
<text text-anchor="start" x="959.2319" y="-115.2" font-family="Courier,monospace" font-size="11.00" fill="#000000">id(18)</text>
<polygon fill="none" stroke="#99ccff" points="267.5352,-93 267.5352,-110 933.5352,-110 933.5352,-93 267.5352,-93"/>
<text text-anchor="start" x="270.5352" y="-98.2" font-family="Courier,monospace" font-size="11.00" fill="#000000"> &#160;&#160;&#160;&#160;&#160;&#160;&#160;&#160;&#160;&#160;&#160;&#160;&#160;&#160;&#160;&#160;&#160;&#160;&#160;&#160;&#160;&#160;&#160;&#160;&#160;&#160;&#160;&#160;&#160;&#160;&#160;&#160;&#160;&#160;&#160;&#160;&#160;&#160;&#160;&#160;PermissionSetId &#160;&#160;&#160;&#160;&#160;&#160;&#160;&#160;&#160;&#160;&#160;&#160;&#160;&#160;&#160;&#160;&#160;&#160;&#160;&#160;&#160;&#160;&#160;&#160;&#160;&#160;&#160;&#160;&#160;&#160;&#160;&#160;&#160;&#160;&#160;&#160;&#160;&#160;</text>
<polygon fill="none" stroke="#99ccff" points="933.5352,-93 933.5352,-110 1024.5352,-110 1024.5352,-93 933.5352,-93"/>
<text text-anchor="start" x="936.1282" y="-98.2" font-family="Courier,monospace" font-size="11.00" fill="#000000">reference(18)</text>
<polygon fill="none" stroke="#99ccff" points="267.5352,-76 267.5352,-93 933.5352,-93 933.5352,-76 267.5352,-76"/>
<text text-anchor="start" x="270.4814" y="-81.2" font-family="Courier,monospace" font-size="11.00" fill="#000000"> &#160;&#160;&#160;&#160;&#160;&#160;&#160;&#160;&#160;&#160;&#160;&#160;&#160;&#160;&#160;&#160;&#160;&#160;&#160;&#160;&#160;&#160;&#160;&#160;&#160;&#160;&#160;&#160;&#160;&#160;&#160;&#160;&#160;&#160;&#160;&#160;&#160;&#160;&#160;&#160;PermissionSetGroupId &#160;&#160;&#160;&#160;&#160;&#160;&#160;&#160;&#160;&#160;&#160;&#160;&#160;&#160;&#160;&#160;&#160;&#160;&#160;&#160;&#160;&#160;&#160;&#160;&#160;&#160;&#160;&#160;&#160;&#160;&#160;&#160;&#160;&#160;&#160;&#160;&#160;&#160;</text>
<polygon fill="none" stroke="#99ccff" points="933.5352,-76 933.5352,-93 1024.5352,-93 1024.5352,-76 933.5352,-76"/>
<text text-anchor="start" x="936.1282" y="-81.2" font-family="Courier,monospace" font-size="11.00" fill="#000000">reference(18)</text>
<polygon fill="none" stroke="#99ccff" points="267.5352,-59 267.5352,-76 933.5352,-76 933.5352,-59 267.5352,-59"/>
<text text-anchor="start" x="270.5352" y="-64.2" font-family="Courier,monospace" font-size="11.00" fill="#000000"> &#160;&#160;&#160;&#160;&#160;&#160;&#160;&#160;&#160;&#160;&#160;&#160;&#160;&#160;&#160;&#160;&#160;&#160;&#160;&#160;&#160;&#160;&#160;&#160;&#160;&#160;&#160;&#160;&#160;&#160;&#160;&#160;&#160;&#160;&#160;&#160;&#160;&#160;&#160;&#160;AssigneeId &#160;&#160;&#160;&#160;&#160;&#160;&#160;&#160;&#160;&#160;&#160;&#160;&#160;&#160;&#160;&#160;&#160;&#160;&#160;&#160;&#160;&#160;&#160;&#160;&#160;&#160;&#160;&#160;&#160;&#160;&#160;&#160;&#160;&#160;&#160;&#160;&#160;&#160;</text>
<polygon fill="none" stroke="#99ccff" points="933.5352,-59 933.5352,-76 1024.5352,-76 1024.5352,-59 933.5352,-59"/>
<text text-anchor="start" x="936.1282" y="-64.2" font-family="Courier,monospace" font-size="11.00" fill="#000000">reference(18)</text>
<polygon fill="none" stroke="#99ccff" points="266.0352,-58.5 266.0352,-145.5 1025.0352,-145.5 1025.0352,-58.5 266.0352,-58.5"/>
</a>
</g>
</g>
<!-- PermissionSet -->
<g id="node2" class="node">
<title>PermissionSet</title>
<text text-anchor="middle" x="67.4097" y="-129.7" font-family="Courier,monospace" font-size="11.00" fill="#000000">PermissionSet</text>
</g>
<!-- PermissionSetAssignment&#45;&gt;PermissionSet -->
<g id="edge1" class="edge">
<title>PermissionSetAssignment:w&#45;&gt;PermissionSet:e</title>
<path fill="none" stroke="#ff99cc" d="M252.9862,-101.2629C205.6846,-102.9258 154.9213,-112.1736 118.4648,-120.2608"/>
<polygon fill="#ff99cc" stroke="#ff99cc" points="259.5365,-101.1446 267.6002,-104.5994 263.5358,-101.0723 267.5352,-101 267.5352,-101 267.5352,-101 263.5358,-101.0723 267.4701,-97.4006 259.5365,-101.1446 259.5365,-101.1446"/>
<ellipse fill="none" stroke="#ff99cc" cx="256.337" cy="-101.2024" rx="3.2" ry="3.2"/>
<text text-anchor="middle" x="200.4272" y="-117.8015" font-family="Monaco" font-size="9.00" fill="#000000">PermissionSet</text>
</g>
<!-- PermissionSetGroup -->
<g id="node3" class="node">
<title>PermissionSetGroup</title>
<text text-anchor="middle" x="67.4097" y="-80.7" font-family="Courier,monospace" font-size="11.00" fill="#000000">PermissionSetGroup</text>
</g>
<!-- PermissionSetAssignment&#45;&gt;PermissionSetGroup -->
<g id="edge2" class="edge">
<title>PermissionSetAssignment:w&#45;&gt;PermissionSetGroup:e</title>
<path fill="none" stroke="#ff99cc" d="M252.8816,-84C212.6902,-84 169.5712,-84 135.0322,-84"/>
<polygon fill="#ff99cc" stroke="#ff99cc" points="259.5352,-84.0001 267.5352,-87.6 263.5352,-84 267.5352,-84 267.5352,-84 267.5352,-84 263.5352,-84 267.5351,-80.4 259.5352,-84.0001 259.5352,-84.0001"/>
<ellipse fill="none" stroke="#ff99cc" cx="256.3352" cy="-84.0001" rx="3.2" ry="3.2"/>
<text text-anchor="middle" x="200.4272" y="-88.8015" font-family="Monaco" font-size="9.00" fill="#000000">PermissionSetGroup</text>
</g>
<!-- User -->
<g id="node4" class="node">
<title>User</title>
<text text-anchor="middle" x="67.4097" y="-31.7" font-family="Courier,monospace" font-size="11.00" fill="#000000">User</text>
</g>
<!-- PermissionSetAssignment&#45;&gt;User -->
<g id="edge3" class="edge">
<title>PermissionSetAssignment:w&#45;&gt;User:e</title>
<path fill="none" stroke="#ff99cc" d="M253.1154,-66.7416C194.2993,-64.6909 130.1047,-50.8974 94.7044,-42.1814"/>
<polygon fill="#ff99cc" stroke="#ff99cc" points="259.5364,-66.8566 267.4706,-70.5994 263.5358,-66.9283 267.5352,-67 267.5352,-67 267.5352,-67 263.5358,-66.9283 267.5997,-63.4006 259.5364,-66.8566 259.5364,-66.8566"/>
<ellipse fill="none" stroke="#ff99cc" cx="256.337" cy="-66.7993" rx="3.2" ry="3.2"/>
<text text-anchor="middle" x="200.4272" y="-71.8015" font-family="Monaco" font-size="9.00" fill="#000000">Assignee</text>
</g>
</g>
</svg>
