<?xml version="1.0" encoding="UTF-8" standalone="no"?>
<!DOCTYPE svg PUBLIC "-//W3C//DTD SVG 1.1//EN"
 "http://www.w3.org/Graphics/SVG/1.1/DTD/svg11.dtd">
<!-- Generated by graphviz version 2.40.1 (20161225.0304)
 -->
<!-- Title: Salesforce+ ERD Pages: 1 -->
<svg width="1005pt" height="503pt"
 viewBox="0.00 0.00 1004.82 503.00" xmlns="http://www.w3.org/2000/svg" xmlns:xlink="http://www.w3.org/1999/xlink">
<g id="graph0" class="graph" transform="scale(1 1) rotate(0) translate(4 499)">
<title>Salesforce+ ERD</title>
<polygon fill="#efeffd" stroke="transparent" points="-4,4 -4,-499 1000.8198,-499 1000.8198,4 -4,4"/>
<text text-anchor="middle" x="948.3132" y="-5.8" font-family="Courier,monospace" font-size="9.00" fill="#000000">Salesforce ERD </text>
<!-- PersonLifeEvent -->
<g id="node1" class="node">
<title>PersonLifeEvent</title>
<g id="a_node1"><a xlink:href="#" xlink:title=" PersonLifeEvent ">
<polygon fill="#ffeeff" stroke="transparent" points="171.8198,-17 171.8198,-495 996.8198,-495 996.8198,-17 171.8198,-17"/>
<polygon fill="#add8e6" stroke="transparent" points="173.3198,-477 173.3198,-494 996.3198,-494 996.3198,-477 173.3198,-477"/>
<polygon fill="none" stroke="#99ccff" points="173.3198,-477 173.3198,-494 996.3198,-494 996.3198,-477 173.3198,-477"/>
<text text-anchor="start" x="535.3118" y="-483.2" font-family="Courier,monospace" font-weight="bold" font-size="11.00" fill="#000000">PersonLifeEvent</text>
<polygon fill="#99ccff" stroke="transparent" points="173.3198,-460 173.3198,-477 891.3198,-477 891.3198,-460 173.3198,-460"/>
<polygon fill="none" stroke="#99ccff" points="173.3198,-460 173.3198,-477 891.3198,-477 891.3198,-460 173.3198,-460"/>
<text text-anchor="start" x="176.3198" y="-466.2" font-family="Courier,monospace" font-size="11.00" fill="#000000"> &#160;&#160;&#160;&#160;&#160;&#160;&#160;&#160;&#160;&#160;&#160;&#160;&#160;&#160;&#160;&#160;&#160;&#160;&#160;&#160;&#160;&#160;&#160;&#160;&#160;&#160;&#160;&#160;&#160;&#160;&#160;&#160;&#160;&#160;&#160;&#160;&#160;&#160;&#160;&#160;&#160;&#160;</text>
<text text-anchor="start" x="460.166" y="-466.2" font-family="Courier,monospace" font-weight="bold" font-size="11.00" fill="#000000">Id</text>
<text text-anchor="start" x="473.3682" y="-466.2" font-family="Courier,monospace" font-size="11.00" fill="#000000"> &#160;&#160;&#160;&#160;&#160;&#160;&#160;&#160;&#160;&#160;&#160;&#160;&#160;&#160;&#160;&#160;&#160;&#160;&#160;&#160;&#160;&#160;&#160;&#160;&#160;&#160;&#160;&#160;&#160;&#160;&#160;&#160;&#160;&#160;&#160;&#160;&#160;&#160;&#160;</text>
<polygon fill="none" stroke="#99ccff" points="891.3198,-460 891.3198,-477 996.3198,-477 996.3198,-460 891.3198,-460"/>
<text text-anchor="start" x="924.0166" y="-465.2" font-family="Courier,monospace" font-size="11.00" fill="#000000">id(18)</text>
<polygon fill="none" stroke="#99ccff" points="173.3198,-443 173.3198,-460 891.3198,-460 891.3198,-443 173.3198,-443"/>
<text text-anchor="start" x="176.3198" y="-448.2" font-family="Courier,monospace" font-size="11.00" fill="#000000"> &#160;&#160;&#160;&#160;&#160;&#160;&#160;&#160;&#160;&#160;&#160;&#160;&#160;&#160;&#160;&#160;&#160;&#160;&#160;&#160;&#160;&#160;&#160;&#160;&#160;&#160;&#160;&#160;&#160;&#160;&#160;&#160;&#160;&#160;&#160;&#160;&#160;&#160;&#160;&#160;OwnerId &#160;&#160;&#160;&#160;&#160;&#160;&#160;&#160;&#160;&#160;&#160;&#160;&#160;&#160;&#160;&#160;&#160;&#160;&#160;&#160;&#160;&#160;&#160;&#160;&#160;&#160;&#160;&#160;&#160;&#160;&#160;&#160;&#160;&#160;&#160;&#160;&#160;&#160;</text>
<polygon fill="none" stroke="#99ccff" points="891.3198,-443 891.3198,-460 996.3198,-460 996.3198,-443 891.3198,-443"/>
<text text-anchor="start" x="900.9128" y="-448.2" font-family="Courier,monospace" font-size="11.00" fill="#000000">reference(18)</text>
<polygon fill="none" stroke="#99ccff" points="173.3198,-426 173.3198,-443 891.3198,-443 891.3198,-426 173.3198,-426"/>
<text text-anchor="start" x="176.3198" y="-431.2" font-family="Courier,monospace" font-size="11.00" fill="#000000"> &#160;&#160;&#160;&#160;&#160;&#160;&#160;&#160;&#160;&#160;&#160;&#160;&#160;&#160;&#160;&#160;&#160;&#160;&#160;&#160;&#160;&#160;&#160;&#160;&#160;&#160;&#160;&#160;&#160;&#160;&#160;&#160;&#160;&#160;&#160;&#160;&#160;&#160;&#160;&#160;IsDeleted &#160;&#160;&#160;&#160;&#160;&#160;&#160;&#160;&#160;&#160;&#160;&#160;&#160;&#160;&#160;&#160;&#160;&#160;&#160;&#160;&#160;&#160;&#160;&#160;&#160;&#160;&#160;&#160;&#160;&#160;&#160;&#160;&#160;&#160;&#160;&#160;&#160;&#160;</text>
<polygon fill="none" stroke="#99ccff" points="891.3198,-426 891.3198,-443 996.3198,-443 996.3198,-426 891.3198,-426"/>
<text text-anchor="start" x="920.7161" y="-431.2" font-family="Courier,monospace" font-size="11.00" fill="#000000">boolean</text>
<polygon fill="none" stroke="#99ccff" points="173.3198,-409 173.3198,-426 891.3198,-426 891.3198,-409 173.3198,-409"/>
<text text-anchor="start" x="176.3198" y="-414.2" font-family="Courier,monospace" font-size="11.00" fill="#000000"> &#160;&#160;&#160;&#160;&#160;&#160;&#160;&#160;&#160;&#160;&#160;&#160;&#160;&#160;&#160;&#160;&#160;&#160;&#160;&#160;&#160;&#160;&#160;&#160;&#160;&#160;&#160;&#160;&#160;&#160;&#160;&#160;&#160;&#160;&#160;&#160;&#160;&#160;&#160;&#160;Name &#160;&#160;&#160;&#160;&#160;&#160;&#160;&#160;&#160;&#160;&#160;&#160;&#160;&#160;&#160;&#160;&#160;&#160;&#160;&#160;&#160;&#160;&#160;&#160;&#160;&#160;&#160;&#160;&#160;&#160;&#160;&#160;&#160;&#160;&#160;&#160;&#160;&#160;</text>
<polygon fill="none" stroke="#99ccff" points="891.3198,-409 891.3198,-426 996.3198,-426 996.3198,-409 891.3198,-409"/>
<text text-anchor="start" x="907.5139" y="-414.2" font-family="Courier,monospace" font-size="11.00" fill="#000000">string(255)</text>
<polygon fill="none" stroke="#99ccff" points="173.3198,-392 173.3198,-409 891.3198,-409 891.3198,-392 173.3198,-392"/>
<text text-anchor="start" x="176.3198" y="-397.2" font-family="Courier,monospace" font-size="11.00" fill="#000000"> &#160;&#160;&#160;&#160;&#160;&#160;&#160;&#160;&#160;&#160;&#160;&#160;&#160;&#160;&#160;&#160;&#160;&#160;&#160;&#160;&#160;&#160;&#160;&#160;&#160;&#160;&#160;&#160;&#160;&#160;&#160;&#160;&#160;&#160;&#160;&#160;&#160;&#160;&#160;&#160;LastModifiedById &#160;&#160;&#160;&#160;&#160;&#160;&#160;&#160;&#160;&#160;&#160;&#160;&#160;&#160;&#160;&#160;&#160;&#160;&#160;&#160;&#160;&#160;&#160;&#160;&#160;&#160;&#160;&#160;&#160;&#160;&#160;&#160;&#160;&#160;&#160;&#160;&#160;&#160;</text>
<polygon fill="none" stroke="#99ccff" points="891.3198,-392 891.3198,-409 996.3198,-409 996.3198,-392 891.3198,-392"/>
<text text-anchor="start" x="900.9128" y="-397.2" font-family="Courier,monospace" font-size="11.00" fill="#000000">reference(18)</text>
<polygon fill="none" stroke="#99ccff" points="173.3198,-375 173.3198,-392 891.3198,-392 891.3198,-375 173.3198,-375"/>
<text text-anchor="start" x="176.3198" y="-380.2" font-family="Courier,monospace" font-size="11.00" fill="#000000"> &#160;&#160;&#160;&#160;&#160;&#160;&#160;&#160;&#160;&#160;&#160;&#160;&#160;&#160;&#160;&#160;&#160;&#160;&#160;&#160;&#160;&#160;&#160;&#160;&#160;&#160;&#160;&#160;&#160;&#160;&#160;&#160;&#160;&#160;&#160;&#160;&#160;&#160;&#160;&#160;LastViewedDate &#160;&#160;&#160;&#160;&#160;&#160;&#160;&#160;&#160;&#160;&#160;&#160;&#160;&#160;&#160;&#160;&#160;&#160;&#160;&#160;&#160;&#160;&#160;&#160;&#160;&#160;&#160;&#160;&#160;&#160;&#160;&#160;&#160;&#160;&#160;&#160;&#160;&#160;</text>
<polygon fill="none" stroke="#99ccff" points="891.3198,-375 891.3198,-392 996.3198,-392 996.3198,-375 891.3198,-375"/>
<text text-anchor="start" x="917.4155" y="-380.2" font-family="Courier,monospace" font-size="11.00" fill="#000000">datetime</text>
<polygon fill="none" stroke="#99ccff" points="173.3198,-358 173.3198,-375 891.3198,-375 891.3198,-358 173.3198,-358"/>
<text text-anchor="start" x="176.3198" y="-363.2" font-family="Courier,monospace" font-size="11.00" fill="#000000"> &#160;&#160;&#160;&#160;&#160;&#160;&#160;&#160;&#160;&#160;&#160;&#160;&#160;&#160;&#160;&#160;&#160;&#160;&#160;&#160;&#160;&#160;&#160;&#160;&#160;&#160;&#160;&#160;&#160;&#160;&#160;&#160;&#160;&#160;&#160;&#160;&#160;&#160;&#160;&#160;LastReferencedDate &#160;&#160;&#160;&#160;&#160;&#160;&#160;&#160;&#160;&#160;&#160;&#160;&#160;&#160;&#160;&#160;&#160;&#160;&#160;&#160;&#160;&#160;&#160;&#160;&#160;&#160;&#160;&#160;&#160;&#160;&#160;&#160;&#160;&#160;&#160;&#160;&#160;&#160;</text>
<polygon fill="none" stroke="#99ccff" points="891.3198,-358 891.3198,-375 996.3198,-375 996.3198,-358 891.3198,-358"/>
<text text-anchor="start" x="917.4155" y="-363.2" font-family="Courier,monospace" font-size="11.00" fill="#000000">datetime</text>
<polygon fill="none" stroke="#99ccff" points="173.3198,-341 173.3198,-358 891.3198,-358 891.3198,-341 173.3198,-341"/>
<text text-anchor="start" x="176.3198" y="-346.2" font-family="Courier,monospace" font-size="11.00" fill="#000000"> &#160;&#160;&#160;&#160;&#160;&#160;&#160;&#160;&#160;&#160;&#160;&#160;&#160;&#160;&#160;&#160;&#160;&#160;&#160;&#160;&#160;&#160;&#160;&#160;&#160;&#160;&#160;&#160;&#160;&#160;&#160;&#160;&#160;&#160;&#160;&#160;&#160;&#160;&#160;&#160;PrimaryPersonId &#160;&#160;&#160;&#160;&#160;&#160;&#160;&#160;&#160;&#160;&#160;&#160;&#160;&#160;&#160;&#160;&#160;&#160;&#160;&#160;&#160;&#160;&#160;&#160;&#160;&#160;&#160;&#160;&#160;&#160;&#160;&#160;&#160;&#160;&#160;&#160;&#160;&#160;</text>
<polygon fill="none" stroke="#99ccff" points="891.3198,-341 891.3198,-358 996.3198,-358 996.3198,-341 891.3198,-341"/>
<text text-anchor="start" x="900.9128" y="-346.2" font-family="Courier,monospace" font-size="11.00" fill="#000000">reference(18)</text>
<polygon fill="none" stroke="#99ccff" points="173.3198,-324 173.3198,-341 891.3198,-341 891.3198,-324 173.3198,-324"/>
<text text-anchor="start" x="176.3198" y="-329.2" font-family="Courier,monospace" font-size="11.00" fill="#000000"> &#160;&#160;&#160;&#160;&#160;&#160;&#160;&#160;&#160;&#160;&#160;&#160;&#160;&#160;&#160;&#160;&#160;&#160;&#160;&#160;&#160;&#160;&#160;&#160;&#160;&#160;&#160;&#160;&#160;&#160;&#160;&#160;&#160;&#160;&#160;&#160;&#160;&#160;&#160;&#160;EventDate &#160;&#160;&#160;&#160;&#160;&#160;&#160;&#160;&#160;&#160;&#160;&#160;&#160;&#160;&#160;&#160;&#160;&#160;&#160;&#160;&#160;&#160;&#160;&#160;&#160;&#160;&#160;&#160;&#160;&#160;&#160;&#160;&#160;&#160;&#160;&#160;&#160;&#160;</text>
<polygon fill="none" stroke="#99ccff" points="891.3198,-324 891.3198,-341 996.3198,-341 996.3198,-324 891.3198,-324"/>
<text text-anchor="start" x="917.4155" y="-329.2" font-family="Courier,monospace" font-size="11.00" fill="#000000">datetime</text>
<polygon fill="none" stroke="#99ccff" points="173.3198,-307 173.3198,-324 891.3198,-324 891.3198,-307 173.3198,-307"/>
<text text-anchor="start" x="176.3198" y="-312.2" font-family="Courier,monospace" font-size="11.00" fill="#000000"> &#160;&#160;&#160;&#160;&#160;&#160;&#160;&#160;&#160;&#160;&#160;&#160;&#160;&#160;&#160;&#160;&#160;&#160;&#160;&#160;&#160;&#160;&#160;&#160;&#160;&#160;&#160;&#160;&#160;&#160;&#160;&#160;&#160;&#160;&#160;&#160;&#160;&#160;&#160;&#160;EventDescription &#160;&#160;&#160;&#160;&#160;&#160;&#160;&#160;&#160;&#160;&#160;&#160;&#160;&#160;&#160;&#160;&#160;&#160;&#160;&#160;&#160;&#160;&#160;&#160;&#160;&#160;&#160;&#160;&#160;&#160;&#160;&#160;&#160;&#160;&#160;&#160;&#160;&#160;</text>
<polygon fill="none" stroke="#99ccff" points="891.3198,-307 891.3198,-324 996.3198,-324 996.3198,-307 891.3198,-307"/>
<text text-anchor="start" x="894.3118" y="-312.2" font-family="Courier,monospace" font-size="11.00" fill="#000000">textarea(32000)</text>
<polygon fill="none" stroke="#99ccff" points="173.3198,-290 173.3198,-307 891.3198,-307 891.3198,-290 173.3198,-290"/>
<text text-anchor="start" x="176.3198" y="-295.2" font-family="Courier,monospace" font-size="11.00" fill="#000000"> &#160;&#160;&#160;&#160;&#160;&#160;&#160;&#160;&#160;&#160;&#160;&#160;&#160;&#160;&#160;&#160;&#160;&#160;&#160;&#160;&#160;&#160;&#160;&#160;&#160;&#160;&#160;&#160;&#160;&#160;&#160;&#160;&#160;&#160;&#160;&#160;&#160;&#160;&#160;&#160;IsTentative &#160;&#160;&#160;&#160;&#160;&#160;&#160;&#160;&#160;&#160;&#160;&#160;&#160;&#160;&#160;&#160;&#160;&#160;&#160;&#160;&#160;&#160;&#160;&#160;&#160;&#160;&#160;&#160;&#160;&#160;&#160;&#160;&#160;&#160;&#160;&#160;&#160;&#160;</text>
<polygon fill="none" stroke="#99ccff" points="891.3198,-290 891.3198,-307 996.3198,-307 996.3198,-290 891.3198,-290"/>
<text text-anchor="start" x="920.7161" y="-295.2" font-family="Courier,monospace" font-size="11.00" fill="#000000">boolean</text>
<polygon fill="none" stroke="#99ccff" points="173.3198,-273 173.3198,-290 891.3198,-290 891.3198,-273 173.3198,-273"/>
<text text-anchor="start" x="176.3198" y="-278.2" font-family="Courier,monospace" font-size="11.00" fill="#000000"> &#160;&#160;&#160;&#160;&#160;&#160;&#160;&#160;&#160;&#160;&#160;&#160;&#160;&#160;&#160;&#160;&#160;&#160;&#160;&#160;&#160;&#160;&#160;&#160;&#160;&#160;&#160;&#160;&#160;&#160;&#160;&#160;&#160;&#160;&#160;&#160;&#160;&#160;&#160;&#160;RelatedPersonId &#160;&#160;&#160;&#160;&#160;&#160;&#160;&#160;&#160;&#160;&#160;&#160;&#160;&#160;&#160;&#160;&#160;&#160;&#160;&#160;&#160;&#160;&#160;&#160;&#160;&#160;&#160;&#160;&#160;&#160;&#160;&#160;&#160;&#160;&#160;&#160;&#160;&#160;</text>
<polygon fill="none" stroke="#99ccff" points="891.3198,-273 891.3198,-290 996.3198,-290 996.3198,-273 891.3198,-273"/>
<text text-anchor="start" x="900.9128" y="-278.2" font-family="Courier,monospace" font-size="11.00" fill="#000000">reference(18)</text>
<polygon fill="none" stroke="#99ccff" points="173.3198,-256 173.3198,-273 891.3198,-273 891.3198,-256 173.3198,-256"/>
<text text-anchor="start" x="176.3198" y="-261.2" font-family="Courier,monospace" font-size="11.00" fill="#000000"> &#160;&#160;&#160;&#160;&#160;&#160;&#160;&#160;&#160;&#160;&#160;&#160;&#160;&#160;&#160;&#160;&#160;&#160;&#160;&#160;&#160;&#160;&#160;&#160;&#160;&#160;&#160;&#160;&#160;&#160;&#160;&#160;&#160;&#160;&#160;&#160;&#160;&#160;&#160;&#160;EventType &#160;&#160;&#160;&#160;&#160;&#160;&#160;&#160;&#160;&#160;&#160;&#160;&#160;&#160;&#160;&#160;&#160;&#160;&#160;&#160;&#160;&#160;&#160;&#160;&#160;&#160;&#160;&#160;&#160;&#160;&#160;&#160;&#160;&#160;&#160;&#160;&#160;&#160;</text>
<polygon fill="none" stroke="#99ccff" points="891.3198,-256 891.3198,-273 996.3198,-273 996.3198,-256 891.3198,-256"/>
<text text-anchor="start" x="904.2134" y="-261.2" font-family="Courier,monospace" font-size="11.00" fill="#000000">picklist(40)</text>
<polygon fill="none" stroke="#99ccff" points="173.3198,-239 173.3198,-256 891.3198,-256 891.3198,-239 173.3198,-239"/>
<text text-anchor="start" x="176.3198" y="-244.2" font-family="Courier,monospace" font-size="11.00" fill="#000000"> &#160;&#160;&#160;&#160;&#160;&#160;&#160;&#160;&#160;&#160;&#160;&#160;&#160;&#160;&#160;&#160;&#160;&#160;&#160;&#160;&#160;&#160;&#160;&#160;&#160;&#160;&#160;&#160;&#160;&#160;&#160;&#160;&#160;&#160;&#160;&#160;&#160;&#160;&#160;&#160;SourceSystemIdentifier &#160;&#160;&#160;&#160;&#160;&#160;&#160;&#160;&#160;&#160;&#160;&#160;&#160;&#160;&#160;&#160;&#160;&#160;&#160;&#160;&#160;&#160;&#160;&#160;&#160;&#160;&#160;&#160;&#160;&#160;&#160;&#160;&#160;&#160;&#160;&#160;&#160;&#160;</text>
<polygon fill="none" stroke="#99ccff" points="891.3198,-239 891.3198,-256 996.3198,-256 996.3198,-239 891.3198,-239"/>
<text text-anchor="start" x="907.5139" y="-244.2" font-family="Courier,monospace" font-size="11.00" fill="#000000">string(255)</text>
<polygon fill="none" stroke="#99ccff" points="173.3198,-222 173.3198,-239 891.3198,-239 891.3198,-222 173.3198,-222"/>
<text text-anchor="start" x="176.3198" y="-227.2" font-family="Courier,monospace" font-size="11.00" fill="#000000"> &#160;&#160;&#160;&#160;&#160;&#160;&#160;&#160;&#160;&#160;&#160;&#160;&#160;&#160;&#160;&#160;&#160;&#160;&#160;&#160;&#160;&#160;&#160;&#160;&#160;&#160;&#160;&#160;&#160;&#160;&#160;&#160;&#160;&#160;&#160;&#160;&#160;&#160;&#160;&#160;SourceSystem &#160;&#160;&#160;&#160;&#160;&#160;&#160;&#160;&#160;&#160;&#160;&#160;&#160;&#160;&#160;&#160;&#160;&#160;&#160;&#160;&#160;&#160;&#160;&#160;&#160;&#160;&#160;&#160;&#160;&#160;&#160;&#160;&#160;&#160;&#160;&#160;&#160;&#160;</text>
<polygon fill="none" stroke="#99ccff" points="891.3198,-222 891.3198,-239 996.3198,-239 996.3198,-222 891.3198,-222"/>
<text text-anchor="start" x="907.5139" y="-227.2" font-family="Courier,monospace" font-size="11.00" fill="#000000">string(255)</text>
<polygon fill="none" stroke="#99ccff" points="173.3198,-205 173.3198,-222 891.3198,-222 891.3198,-205 173.3198,-205"/>
<text text-anchor="start" x="176.3198" y="-210.2" font-family="Courier,monospace" font-size="11.00" fill="#000000"> &#160;&#160;&#160;&#160;&#160;&#160;&#160;&#160;&#160;&#160;&#160;&#160;&#160;&#160;&#160;&#160;&#160;&#160;&#160;&#160;&#160;&#160;&#160;&#160;&#160;&#160;&#160;&#160;&#160;&#160;&#160;&#160;&#160;&#160;&#160;&#160;&#160;&#160;&#160;&#160;EventLocationStreet &#160;&#160;&#160;&#160;&#160;&#160;&#160;&#160;&#160;&#160;&#160;&#160;&#160;&#160;&#160;&#160;&#160;&#160;&#160;&#160;&#160;&#160;&#160;&#160;&#160;&#160;&#160;&#160;&#160;&#160;&#160;&#160;&#160;&#160;&#160;&#160;&#160;&#160;</text>
<polygon fill="none" stroke="#99ccff" points="891.3198,-205 891.3198,-222 996.3198,-222 996.3198,-205 891.3198,-205"/>
<text text-anchor="start" x="900.9128" y="-210.2" font-family="Courier,monospace" font-size="11.00" fill="#000000">textarea(255)</text>
<polygon fill="none" stroke="#99ccff" points="173.3198,-188 173.3198,-205 891.3198,-205 891.3198,-188 173.3198,-188"/>
<text text-anchor="start" x="176.3198" y="-193.2" font-family="Courier,monospace" font-size="11.00" fill="#000000"> &#160;&#160;&#160;&#160;&#160;&#160;&#160;&#160;&#160;&#160;&#160;&#160;&#160;&#160;&#160;&#160;&#160;&#160;&#160;&#160;&#160;&#160;&#160;&#160;&#160;&#160;&#160;&#160;&#160;&#160;&#160;&#160;&#160;&#160;&#160;&#160;&#160;&#160;&#160;&#160;EventLocationCity &#160;&#160;&#160;&#160;&#160;&#160;&#160;&#160;&#160;&#160;&#160;&#160;&#160;&#160;&#160;&#160;&#160;&#160;&#160;&#160;&#160;&#160;&#160;&#160;&#160;&#160;&#160;&#160;&#160;&#160;&#160;&#160;&#160;&#160;&#160;&#160;&#160;&#160;</text>
<polygon fill="none" stroke="#99ccff" points="891.3198,-188 891.3198,-205 996.3198,-205 996.3198,-188 891.3198,-188"/>
<text text-anchor="start" x="910.8145" y="-193.2" font-family="Courier,monospace" font-size="11.00" fill="#000000">string(40)</text>
<polygon fill="none" stroke="#99ccff" points="173.3198,-171 173.3198,-188 891.3198,-188 891.3198,-171 173.3198,-171"/>
<text text-anchor="start" x="176.3198" y="-176.2" font-family="Courier,monospace" font-size="11.00" fill="#000000"> &#160;&#160;&#160;&#160;&#160;&#160;&#160;&#160;&#160;&#160;&#160;&#160;&#160;&#160;&#160;&#160;&#160;&#160;&#160;&#160;&#160;&#160;&#160;&#160;&#160;&#160;&#160;&#160;&#160;&#160;&#160;&#160;&#160;&#160;&#160;&#160;&#160;&#160;&#160;&#160;EventLocationState &#160;&#160;&#160;&#160;&#160;&#160;&#160;&#160;&#160;&#160;&#160;&#160;&#160;&#160;&#160;&#160;&#160;&#160;&#160;&#160;&#160;&#160;&#160;&#160;&#160;&#160;&#160;&#160;&#160;&#160;&#160;&#160;&#160;&#160;&#160;&#160;&#160;&#160;</text>
<polygon fill="none" stroke="#99ccff" points="891.3198,-171 891.3198,-188 996.3198,-188 996.3198,-171 891.3198,-171"/>
<text text-anchor="start" x="910.8145" y="-176.2" font-family="Courier,monospace" font-size="11.00" fill="#000000">string(80)</text>
<polygon fill="none" stroke="#99ccff" points="173.3198,-154 173.3198,-171 891.3198,-171 891.3198,-154 173.3198,-154"/>
<text text-anchor="start" x="176.3198" y="-159.2" font-family="Courier,monospace" font-size="11.00" fill="#000000"> &#160;&#160;&#160;&#160;&#160;&#160;&#160;&#160;&#160;&#160;&#160;&#160;&#160;&#160;&#160;&#160;&#160;&#160;&#160;&#160;&#160;&#160;&#160;&#160;&#160;&#160;&#160;&#160;&#160;&#160;&#160;&#160;&#160;&#160;&#160;&#160;&#160;&#160;&#160;&#160;EventLocationPostalCode &#160;&#160;&#160;&#160;&#160;&#160;&#160;&#160;&#160;&#160;&#160;&#160;&#160;&#160;&#160;&#160;&#160;&#160;&#160;&#160;&#160;&#160;&#160;&#160;&#160;&#160;&#160;&#160;&#160;&#160;&#160;&#160;&#160;&#160;&#160;&#160;&#160;&#160;</text>
<polygon fill="none" stroke="#99ccff" points="891.3198,-154 891.3198,-171 996.3198,-171 996.3198,-154 891.3198,-154"/>
<text text-anchor="start" x="910.8145" y="-159.2" font-family="Courier,monospace" font-size="11.00" fill="#000000">string(20)</text>
<polygon fill="none" stroke="#99ccff" points="173.3198,-137 173.3198,-154 891.3198,-154 891.3198,-137 173.3198,-137"/>
<text text-anchor="start" x="176.3198" y="-142.2" font-family="Courier,monospace" font-size="11.00" fill="#000000"> &#160;&#160;&#160;&#160;&#160;&#160;&#160;&#160;&#160;&#160;&#160;&#160;&#160;&#160;&#160;&#160;&#160;&#160;&#160;&#160;&#160;&#160;&#160;&#160;&#160;&#160;&#160;&#160;&#160;&#160;&#160;&#160;&#160;&#160;&#160;&#160;&#160;&#160;&#160;&#160;EventLocationCountry &#160;&#160;&#160;&#160;&#160;&#160;&#160;&#160;&#160;&#160;&#160;&#160;&#160;&#160;&#160;&#160;&#160;&#160;&#160;&#160;&#160;&#160;&#160;&#160;&#160;&#160;&#160;&#160;&#160;&#160;&#160;&#160;&#160;&#160;&#160;&#160;&#160;&#160;</text>
<polygon fill="none" stroke="#99ccff" points="891.3198,-137 891.3198,-154 996.3198,-154 996.3198,-137 891.3198,-137"/>
<text text-anchor="start" x="910.8145" y="-142.2" font-family="Courier,monospace" font-size="11.00" fill="#000000">string(80)</text>
<polygon fill="none" stroke="#99ccff" points="173.3198,-120 173.3198,-137 891.3198,-137 891.3198,-120 173.3198,-120"/>
<text text-anchor="start" x="176.3198" y="-125.2" font-family="Courier,monospace" font-size="11.00" fill="#000000"> &#160;&#160;&#160;&#160;&#160;&#160;&#160;&#160;&#160;&#160;&#160;&#160;&#160;&#160;&#160;&#160;&#160;&#160;&#160;&#160;&#160;&#160;&#160;&#160;&#160;&#160;&#160;&#160;&#160;&#160;&#160;&#160;&#160;&#160;&#160;&#160;&#160;&#160;&#160;&#160;EventLocationLatitude &#160;&#160;&#160;&#160;&#160;&#160;&#160;&#160;&#160;&#160;&#160;&#160;&#160;&#160;&#160;&#160;&#160;&#160;&#160;&#160;&#160;&#160;&#160;&#160;&#160;&#160;&#160;&#160;&#160;&#160;&#160;&#160;&#160;&#160;&#160;&#160;&#160;&#160;</text>
<polygon fill="none" stroke="#99ccff" points="891.3198,-120 891.3198,-137 996.3198,-137 996.3198,-120 891.3198,-120"/>
<text text-anchor="start" x="924.0166" y="-125.2" font-family="Courier,monospace" font-size="11.00" fill="#000000">double</text>
<polygon fill="none" stroke="#99ccff" points="173.3198,-103 173.3198,-120 891.3198,-120 891.3198,-103 173.3198,-103"/>
<text text-anchor="start" x="176.3198" y="-108.2" font-family="Courier,monospace" font-size="11.00" fill="#000000"> &#160;&#160;&#160;&#160;&#160;&#160;&#160;&#160;&#160;&#160;&#160;&#160;&#160;&#160;&#160;&#160;&#160;&#160;&#160;&#160;&#160;&#160;&#160;&#160;&#160;&#160;&#160;&#160;&#160;&#160;&#160;&#160;&#160;&#160;&#160;&#160;&#160;&#160;&#160;&#160;EventLocationLongitude &#160;&#160;&#160;&#160;&#160;&#160;&#160;&#160;&#160;&#160;&#160;&#160;&#160;&#160;&#160;&#160;&#160;&#160;&#160;&#160;&#160;&#160;&#160;&#160;&#160;&#160;&#160;&#160;&#160;&#160;&#160;&#160;&#160;&#160;&#160;&#160;&#160;&#160;</text>
<polygon fill="none" stroke="#99ccff" points="891.3198,-103 891.3198,-120 996.3198,-120 996.3198,-103 891.3198,-103"/>
<text text-anchor="start" x="924.0166" y="-108.2" font-family="Courier,monospace" font-size="11.00" fill="#000000">double</text>
<polygon fill="none" stroke="#99ccff" points="173.3198,-86 173.3198,-103 891.3198,-103 891.3198,-86 173.3198,-86"/>
<text text-anchor="start" x="175.8618" y="-91.2" font-family="Courier,monospace" font-size="11.00" fill="#000000"> &#160;&#160;&#160;&#160;&#160;&#160;&#160;&#160;&#160;&#160;&#160;&#160;&#160;&#160;&#160;&#160;&#160;&#160;&#160;&#160;&#160;&#160;&#160;&#160;&#160;&#160;&#160;&#160;&#160;&#160;&#160;&#160;&#160;&#160;&#160;&#160;&#160;&#160;&#160;&#160;EventLocationGeocodeAccuracy &#160;&#160;&#160;&#160;&#160;&#160;&#160;&#160;&#160;&#160;&#160;&#160;&#160;&#160;&#160;&#160;&#160;&#160;&#160;&#160;&#160;&#160;&#160;&#160;&#160;&#160;&#160;&#160;&#160;&#160;&#160;&#160;&#160;&#160;&#160;&#160;&#160;&#160;</text>
<polygon fill="none" stroke="#99ccff" points="891.3198,-86 891.3198,-103 996.3198,-103 996.3198,-86 891.3198,-86"/>
<text text-anchor="start" x="900.9128" y="-91.2" font-family="Courier,monospace" font-size="11.00" fill="#000000">picklist(255)</text>
<polygon fill="none" stroke="#99ccff" points="173.3198,-69 173.3198,-86 891.3198,-86 891.3198,-69 173.3198,-69"/>
<text text-anchor="start" x="176.3198" y="-74.2" font-family="Courier,monospace" font-size="11.00" fill="#000000"> &#160;&#160;&#160;&#160;&#160;&#160;&#160;&#160;&#160;&#160;&#160;&#160;&#160;&#160;&#160;&#160;&#160;&#160;&#160;&#160;&#160;&#160;&#160;&#160;&#160;&#160;&#160;&#160;&#160;&#160;&#160;&#160;&#160;&#160;&#160;&#160;&#160;&#160;&#160;&#160;EventLocation &#160;&#160;&#160;&#160;&#160;&#160;&#160;&#160;&#160;&#160;&#160;&#160;&#160;&#160;&#160;&#160;&#160;&#160;&#160;&#160;&#160;&#160;&#160;&#160;&#160;&#160;&#160;&#160;&#160;&#160;&#160;&#160;&#160;&#160;&#160;&#160;&#160;&#160;</text>
<polygon fill="none" stroke="#99ccff" points="891.3198,-69 891.3198,-86 996.3198,-86 996.3198,-69 891.3198,-69"/>
<text text-anchor="start" x="920.7161" y="-74.2" font-family="Courier,monospace" font-size="11.00" fill="#000000">address</text>
<polygon fill="none" stroke="#99ccff" points="173.3198,-52 173.3198,-69 891.3198,-69 891.3198,-52 173.3198,-52"/>
<text text-anchor="start" x="176.3198" y="-57.2" font-family="Courier,monospace" font-size="11.00" fill="#000000"> &#160;&#160;&#160;&#160;&#160;&#160;&#160;&#160;&#160;&#160;&#160;&#160;&#160;&#160;&#160;&#160;&#160;&#160;&#160;&#160;&#160;&#160;&#160;&#160;&#160;&#160;&#160;&#160;&#160;&#160;&#160;&#160;&#160;&#160;&#160;&#160;&#160;&#160;&#160;&#160;IsExpired &#160;&#160;&#160;&#160;&#160;&#160;&#160;&#160;&#160;&#160;&#160;&#160;&#160;&#160;&#160;&#160;&#160;&#160;&#160;&#160;&#160;&#160;&#160;&#160;&#160;&#160;&#160;&#160;&#160;&#160;&#160;&#160;&#160;&#160;&#160;&#160;&#160;&#160;</text>
<polygon fill="none" stroke="#99ccff" points="891.3198,-52 891.3198,-69 996.3198,-69 996.3198,-52 891.3198,-52"/>
<text text-anchor="start" x="920.7161" y="-57.2" font-family="Courier,monospace" font-size="11.00" fill="#000000">boolean</text>
<polygon fill="none" stroke="#99ccff" points="173.3198,-35 173.3198,-52 891.3198,-52 891.3198,-35 173.3198,-35"/>
<text text-anchor="start" x="176.3198" y="-40.2" font-family="Courier,monospace" font-size="11.00" fill="#000000"> &#160;&#160;&#160;&#160;&#160;&#160;&#160;&#160;&#160;&#160;&#160;&#160;&#160;&#160;&#160;&#160;&#160;&#160;&#160;&#160;&#160;&#160;&#160;&#160;&#160;&#160;&#160;&#160;&#160;&#160;&#160;&#160;&#160;&#160;&#160;&#160;&#160;&#160;&#160;&#160;ExpirationDate &#160;&#160;&#160;&#160;&#160;&#160;&#160;&#160;&#160;&#160;&#160;&#160;&#160;&#160;&#160;&#160;&#160;&#160;&#160;&#160;&#160;&#160;&#160;&#160;&#160;&#160;&#160;&#160;&#160;&#160;&#160;&#160;&#160;&#160;&#160;&#160;&#160;&#160;</text>
<polygon fill="none" stroke="#99ccff" points="891.3198,-35 891.3198,-52 996.3198,-52 996.3198,-35 891.3198,-35"/>
<text text-anchor="start" x="917.4155" y="-40.2" font-family="Courier,monospace" font-size="11.00" fill="#000000">datetime</text>
<polygon fill="none" stroke="#99ccff" points="173.3198,-18 173.3198,-35 891.3198,-35 891.3198,-18 173.3198,-18"/>
<text text-anchor="start" x="176.3198" y="-23.2" font-family="Courier,monospace" font-size="11.00" fill="#000000"> &#160;&#160;&#160;&#160;&#160;&#160;&#160;&#160;&#160;&#160;&#160;&#160;&#160;&#160;&#160;&#160;&#160;&#160;&#160;&#160;&#160;&#160;&#160;&#160;&#160;&#160;&#160;&#160;&#160;&#160;&#160;&#160;&#160;&#160;&#160;&#160;&#160;&#160;&#160;&#160;ExpirationDescription &#160;&#160;&#160;&#160;&#160;&#160;&#160;&#160;&#160;&#160;&#160;&#160;&#160;&#160;&#160;&#160;&#160;&#160;&#160;&#160;&#160;&#160;&#160;&#160;&#160;&#160;&#160;&#160;&#160;&#160;&#160;&#160;&#160;&#160;&#160;&#160;&#160;&#160;</text>
<polygon fill="none" stroke="#99ccff" points="891.3198,-18 891.3198,-35 996.3198,-35 996.3198,-18 891.3198,-18"/>
<text text-anchor="start" x="894.3118" y="-23.2" font-family="Courier,monospace" font-size="11.00" fill="#000000">textarea(32000)</text>
<polygon fill="none" stroke="#99ccff" points="171.8198,-17 171.8198,-495 996.8198,-495 996.8198,-17 171.8198,-17"/>
</a>
</g>
</g>
<!-- Group -->
<g id="node2" class="node">
<title>Group</title>
<text text-anchor="middle" x="31.1038" y="-457.7" font-family="Courier,monospace" font-size="11.00" fill="#000000">Group</text>
</g>
<!-- PersonLifeEvent&#45;&gt;Group -->
<g id="edge1" class="edge">
<title>PersonLifeEvent:w&#45;&gt;Group:e</title>
<path fill="none" stroke="#ff99cc" d="M158.5287,-452.1504C122.2867,-452.8588 83.4732,-455.9246 58.3352,-458.2508"/>
<polygon fill="#ff99cc" stroke="#ff99cc" points="165.3202,-452.0814 173.3565,-455.5998 169.32,-452.0407 173.3198,-452 173.3198,-452 173.3198,-452 169.32,-452.0407 173.2832,-448.4002 165.3202,-452.0814 165.3202,-452.0814"/>
<ellipse fill="none" stroke="#ff99cc" cx="162.1204" cy="-452.114" rx="3.2" ry="3.2"/>
<text text-anchor="middle" x="117.0137" y="-460.8015" font-family="Monaco" font-size="9.00" fill="#000000">Owner</text>
</g>
<!-- User -->
<g id="node3" class="node">
<title>User</title>
<text text-anchor="middle" x="31.1038" y="-403.7" font-family="Courier,monospace" font-size="11.00" fill="#000000">User</text>
</g>
<!-- PersonLifeEvent&#45;&gt;User -->
<g id="edge2" class="edge">
<title>PersonLifeEvent:w&#45;&gt;User:e</title>
<path fill="none" stroke="#ff99cc" d="M162.4708,-442.2995C160.9098,-438.8753 159.0152,-435.3066 154.8198,-432.9985 138.5226,-424.0328 89.5708,-415.5422 58.3506,-410.828"/>
<polygon fill="#ff99cc" stroke="#ff99cc" points="167.3561,-446.6676 170.9202,-454.6837 170.338,-449.3338 173.3198,-452 173.3198,-452 173.3198,-452 170.338,-449.3338 175.7194,-449.3163 167.3561,-446.6676 167.3561,-446.6676"/>
<ellipse fill="none" stroke="#ff99cc" cx="164.9706" cy="-444.5347" rx="3.2" ry="3.2"/>
<text text-anchor="middle" x="117.0137" y="-436.8015" font-family="Monaco" font-size="9.00" fill="#000000">Owner</text>
</g>
<!-- PersonLifeEvent&#45;&gt;User -->
<g id="edge3" class="edge">
<title>PersonLifeEvent:w&#45;&gt;User:e</title>
<path fill="none" stroke="#ff99cc" d="M158.885,-399.3486C157.6956,-399.2046 156.3682,-399.0821 154.8198,-398.9985 121.2631,-397.1886 112.6989,-396.2321 79.2075,-398.9985 72.3733,-399.5631 65.048,-400.5714 58.2266,-401.6862"/>
<polygon fill="#ff99cc" stroke="#ff99cc" points="165.3717,-400.0907 172.9106,-404.5767 169.3457,-400.5453 173.3198,-401 173.3198,-401 173.3198,-401 169.3457,-400.5453 173.729,-397.4233 165.3717,-400.0907 165.3717,-400.0907"/>
<ellipse fill="none" stroke="#ff99cc" cx="162.1924" cy="-399.7269" rx="3.2" ry="3.2"/>
<text text-anchor="middle" x="117.0137" y="-402.8015" font-family="Monaco" font-size="9.00" fill="#000000">LastModifiedBy</text>
</g>
<!-- Contact -->
<g id="node4" class="node">
<title>Contact</title>
<text text-anchor="middle" x="31.1038" y="-308.7" font-family="Courier,monospace" font-size="11.00" fill="#000000">Contact</text>
</g>
<!-- PersonLifeEvent&#45;&gt;Contact -->
<g id="edge4" class="edge">
<title>PersonLifeEvent:w&#45;&gt;Contact:e</title>
<path fill="none" stroke="#ff99cc" d="M158.9226,-349.4281C123.8188,-346.7311 87.3359,-335.013 62.377,-325.3974"/>
<polygon fill="#ff99cc" stroke="#ff99cc" points="165.3261,-349.6824 173.1769,-353.5972 169.323,-349.8412 173.3198,-350 173.3198,-350 173.3198,-350 169.323,-349.8412 173.4627,-346.4028 165.3261,-349.6824 165.3261,-349.6824"/>
<ellipse fill="none" stroke="#ff99cc" cx="162.1287" cy="-349.5554" rx="3.2" ry="3.2"/>
<text text-anchor="middle" x="117.0137" y="-352.8015" font-family="Monaco" font-size="9.00" fill="#000000">PrimaryPerson</text>
</g>
<!-- PersonLifeEvent&#45;&gt;Contact -->
<g id="edge5" class="edge">
<title>PersonLifeEvent:w&#45;&gt;Contact:e</title>
<path fill="none" stroke="#ff99cc" d="M158.5651,-282.4834C123.8018,-284.6796 87.3196,-293.9377 62.3368,-301.5075"/>
<polygon fill="#ff99cc" stroke="#ff99cc" points="165.3241,-282.262 173.4377,-285.5981 169.322,-282.131 173.3198,-282 173.3198,-282 173.3198,-282 169.322,-282.131 173.2019,-278.4019 165.3241,-282.262 165.3241,-282.262"/>
<ellipse fill="none" stroke="#ff99cc" cx="162.1258" cy="-282.3668" rx="3.2" ry="3.2"/>
<text text-anchor="middle" x="117.0137" y="-300.8015" font-family="Monaco" font-size="9.00" fill="#000000">RelatedPerson</text>
</g>
</g>
</svg>
