<?xml version="1.0" encoding="UTF-8" standalone="no"?>
<!DOCTYPE svg PUBLIC "-//W3C//DTD SVG 1.1//EN"
 "http://www.w3.org/Graphics/SVG/1.1/DTD/svg11.dtd">
<!-- Generated by graphviz version 2.40.1 (20161225.0304)
 -->
<!-- Title: Salesforce+ ERD Pages: 1 -->
<svg width="925pt" height="253pt"
 viewBox="0.00 0.00 924.82 253.00" xmlns="http://www.w3.org/2000/svg" xmlns:xlink="http://www.w3.org/1999/xlink">
<g id="graph0" class="graph" transform="scale(1 1) rotate(0) translate(4 249)">
<title>Salesforce+ ERD</title>
<polygon fill="#efeffd" stroke="transparent" points="-4,4 -4,-249 920.8198,-249 920.8198,4 -4,4"/>
<text text-anchor="middle" x="868.3132" y="-5.8" font-family="Courier,monospace" font-size="9.00" fill="#000000">Salesforce ERD </text>
<!-- Producer -->
<g id="node1" class="node">
<title>Producer</title>
<g id="a_node1"><a xlink:href="#" xlink:title=" Producer ">
<polygon fill="#ffeeff" stroke="transparent" points="171.8198,-39 171.8198,-245 916.8198,-245 916.8198,-39 171.8198,-39"/>
<polygon fill="#add8e6" stroke="transparent" points="173.3198,-227 173.3198,-244 916.3198,-244 916.3198,-227 173.3198,-227"/>
<polygon fill="none" stroke="#99ccff" points="173.3198,-227 173.3198,-244 916.3198,-244 916.3198,-227 173.3198,-227"/>
<text text-anchor="start" x="518.4155" y="-233.2" font-family="Courier,monospace" font-weight="bold" font-size="11.00" fill="#000000">Producer</text>
<polygon fill="#99ccff" stroke="transparent" points="173.3198,-210 173.3198,-227 825.3198,-227 825.3198,-210 173.3198,-210"/>
<polygon fill="none" stroke="#99ccff" points="173.3198,-210 173.3198,-227 825.3198,-227 825.3198,-210 173.3198,-210"/>
<text text-anchor="start" x="176.3198" y="-216.2" font-family="Courier,monospace" font-size="11.00" fill="#000000"> &#160;&#160;&#160;&#160;&#160;&#160;&#160;&#160;&#160;&#160;&#160;&#160;&#160;&#160;&#160;&#160;&#160;&#160;&#160;&#160;&#160;&#160;&#160;&#160;&#160;&#160;&#160;&#160;&#160;&#160;&#160;&#160;&#160;&#160;&#160;&#160;&#160;&#160;&#160;&#160;&#160;&#160;</text>
<text text-anchor="start" x="460.166" y="-216.2" font-family="Courier,monospace" font-weight="bold" font-size="11.00" fill="#000000">Id</text>
<text text-anchor="start" x="473.3682" y="-216.2" font-family="Courier,monospace" font-size="11.00" fill="#000000"> &#160;&#160;&#160;&#160;&#160;&#160;&#160;&#160;&#160;&#160;&#160;&#160;&#160;&#160;&#160;&#160;&#160;&#160;&#160;&#160;&#160;&#160;&#160;&#160;&#160;&#160;&#160;&#160;&#160;&#160;&#160;&#160;&#160;&#160;&#160;&#160;&#160;&#160;&#160;</text>
<polygon fill="none" stroke="#99ccff" points="825.3198,-210 825.3198,-227 916.3198,-227 916.3198,-210 825.3198,-210"/>
<text text-anchor="start" x="851.0166" y="-215.2" font-family="Courier,monospace" font-size="11.00" fill="#000000">id(18)</text>
<polygon fill="none" stroke="#99ccff" points="173.3198,-193 173.3198,-210 825.3198,-210 825.3198,-193 173.3198,-193"/>
<text text-anchor="start" x="176.3198" y="-198.2" font-family="Courier,monospace" font-size="11.00" fill="#000000"> &#160;&#160;&#160;&#160;&#160;&#160;&#160;&#160;&#160;&#160;&#160;&#160;&#160;&#160;&#160;&#160;&#160;&#160;&#160;&#160;&#160;&#160;&#160;&#160;&#160;&#160;&#160;&#160;&#160;&#160;&#160;&#160;&#160;&#160;&#160;&#160;&#160;&#160;&#160;&#160;OwnerId &#160;&#160;&#160;&#160;&#160;&#160;&#160;&#160;&#160;&#160;&#160;&#160;&#160;&#160;&#160;&#160;&#160;&#160;&#160;&#160;&#160;&#160;&#160;&#160;&#160;&#160;&#160;&#160;&#160;&#160;&#160;&#160;&#160;&#160;&#160;&#160;&#160;&#160;</text>
<polygon fill="none" stroke="#99ccff" points="825.3198,-193 825.3198,-210 916.3198,-210 916.3198,-193 825.3198,-193"/>
<text text-anchor="start" x="827.9128" y="-198.2" font-family="Courier,monospace" font-size="11.00" fill="#000000">reference(18)</text>
<polygon fill="none" stroke="#99ccff" points="173.3198,-176 173.3198,-193 825.3198,-193 825.3198,-176 173.3198,-176"/>
<text text-anchor="start" x="176.3198" y="-181.2" font-family="Courier,monospace" font-size="11.00" fill="#000000"> &#160;&#160;&#160;&#160;&#160;&#160;&#160;&#160;&#160;&#160;&#160;&#160;&#160;&#160;&#160;&#160;&#160;&#160;&#160;&#160;&#160;&#160;&#160;&#160;&#160;&#160;&#160;&#160;&#160;&#160;&#160;&#160;&#160;&#160;&#160;&#160;&#160;&#160;&#160;&#160;IsDeleted &#160;&#160;&#160;&#160;&#160;&#160;&#160;&#160;&#160;&#160;&#160;&#160;&#160;&#160;&#160;&#160;&#160;&#160;&#160;&#160;&#160;&#160;&#160;&#160;&#160;&#160;&#160;&#160;&#160;&#160;&#160;&#160;&#160;&#160;&#160;&#160;&#160;&#160;</text>
<polygon fill="none" stroke="#99ccff" points="825.3198,-176 825.3198,-193 916.3198,-193 916.3198,-176 825.3198,-176"/>
<text text-anchor="start" x="847.7161" y="-181.2" font-family="Courier,monospace" font-size="11.00" fill="#000000">boolean</text>
<polygon fill="none" stroke="#99ccff" points="173.3198,-159 173.3198,-176 825.3198,-176 825.3198,-159 173.3198,-159"/>
<text text-anchor="start" x="176.3198" y="-164.2" font-family="Courier,monospace" font-size="11.00" fill="#000000"> &#160;&#160;&#160;&#160;&#160;&#160;&#160;&#160;&#160;&#160;&#160;&#160;&#160;&#160;&#160;&#160;&#160;&#160;&#160;&#160;&#160;&#160;&#160;&#160;&#160;&#160;&#160;&#160;&#160;&#160;&#160;&#160;&#160;&#160;&#160;&#160;&#160;&#160;&#160;&#160;Name &#160;&#160;&#160;&#160;&#160;&#160;&#160;&#160;&#160;&#160;&#160;&#160;&#160;&#160;&#160;&#160;&#160;&#160;&#160;&#160;&#160;&#160;&#160;&#160;&#160;&#160;&#160;&#160;&#160;&#160;&#160;&#160;&#160;&#160;&#160;&#160;&#160;&#160;</text>
<polygon fill="none" stroke="#99ccff" points="825.3198,-159 825.3198,-176 916.3198,-176 916.3198,-159 825.3198,-159"/>
<text text-anchor="start" x="834.5139" y="-164.2" font-family="Courier,monospace" font-size="11.00" fill="#000000">string(255)</text>
<polygon fill="none" stroke="#99ccff" points="173.3198,-142 173.3198,-159 825.3198,-159 825.3198,-142 173.3198,-142"/>
<text text-anchor="start" x="176.3198" y="-147.2" font-family="Courier,monospace" font-size="11.00" fill="#000000"> &#160;&#160;&#160;&#160;&#160;&#160;&#160;&#160;&#160;&#160;&#160;&#160;&#160;&#160;&#160;&#160;&#160;&#160;&#160;&#160;&#160;&#160;&#160;&#160;&#160;&#160;&#160;&#160;&#160;&#160;&#160;&#160;&#160;&#160;&#160;&#160;&#160;&#160;&#160;&#160;LastModifiedById &#160;&#160;&#160;&#160;&#160;&#160;&#160;&#160;&#160;&#160;&#160;&#160;&#160;&#160;&#160;&#160;&#160;&#160;&#160;&#160;&#160;&#160;&#160;&#160;&#160;&#160;&#160;&#160;&#160;&#160;&#160;&#160;&#160;&#160;&#160;&#160;&#160;&#160;</text>
<polygon fill="none" stroke="#99ccff" points="825.3198,-142 825.3198,-159 916.3198,-159 916.3198,-142 825.3198,-142"/>
<text text-anchor="start" x="827.9128" y="-147.2" font-family="Courier,monospace" font-size="11.00" fill="#000000">reference(18)</text>
<polygon fill="none" stroke="#99ccff" points="173.3198,-125 173.3198,-142 825.3198,-142 825.3198,-125 173.3198,-125"/>
<text text-anchor="start" x="176.3198" y="-130.2" font-family="Courier,monospace" font-size="11.00" fill="#000000"> &#160;&#160;&#160;&#160;&#160;&#160;&#160;&#160;&#160;&#160;&#160;&#160;&#160;&#160;&#160;&#160;&#160;&#160;&#160;&#160;&#160;&#160;&#160;&#160;&#160;&#160;&#160;&#160;&#160;&#160;&#160;&#160;&#160;&#160;&#160;&#160;&#160;&#160;&#160;&#160;LastViewedDate &#160;&#160;&#160;&#160;&#160;&#160;&#160;&#160;&#160;&#160;&#160;&#160;&#160;&#160;&#160;&#160;&#160;&#160;&#160;&#160;&#160;&#160;&#160;&#160;&#160;&#160;&#160;&#160;&#160;&#160;&#160;&#160;&#160;&#160;&#160;&#160;&#160;&#160;</text>
<polygon fill="none" stroke="#99ccff" points="825.3198,-125 825.3198,-142 916.3198,-142 916.3198,-125 825.3198,-125"/>
<text text-anchor="start" x="844.4155" y="-130.2" font-family="Courier,monospace" font-size="11.00" fill="#000000">datetime</text>
<polygon fill="none" stroke="#99ccff" points="173.3198,-108 173.3198,-125 825.3198,-125 825.3198,-108 173.3198,-108"/>
<text text-anchor="start" x="175.8672" y="-113.2" font-family="Courier,monospace" font-size="11.00" fill="#000000"> &#160;&#160;&#160;&#160;&#160;&#160;&#160;&#160;&#160;&#160;&#160;&#160;&#160;&#160;&#160;&#160;&#160;&#160;&#160;&#160;&#160;&#160;&#160;&#160;&#160;&#160;&#160;&#160;&#160;&#160;&#160;&#160;&#160;&#160;&#160;&#160;&#160;&#160;&#160;&#160;LastReferencedDate &#160;&#160;&#160;&#160;&#160;&#160;&#160;&#160;&#160;&#160;&#160;&#160;&#160;&#160;&#160;&#160;&#160;&#160;&#160;&#160;&#160;&#160;&#160;&#160;&#160;&#160;&#160;&#160;&#160;&#160;&#160;&#160;&#160;&#160;&#160;&#160;&#160;&#160;</text>
<polygon fill="none" stroke="#99ccff" points="825.3198,-108 825.3198,-125 916.3198,-125 916.3198,-108 825.3198,-108"/>
<text text-anchor="start" x="844.4155" y="-113.2" font-family="Courier,monospace" font-size="11.00" fill="#000000">datetime</text>
<polygon fill="none" stroke="#99ccff" points="173.3198,-91 173.3198,-108 825.3198,-108 825.3198,-91 173.3198,-91"/>
<text text-anchor="start" x="176.3198" y="-96.2" font-family="Courier,monospace" font-size="11.00" fill="#000000"> &#160;&#160;&#160;&#160;&#160;&#160;&#160;&#160;&#160;&#160;&#160;&#160;&#160;&#160;&#160;&#160;&#160;&#160;&#160;&#160;&#160;&#160;&#160;&#160;&#160;&#160;&#160;&#160;&#160;&#160;&#160;&#160;&#160;&#160;&#160;&#160;&#160;&#160;&#160;&#160;InternalUserId &#160;&#160;&#160;&#160;&#160;&#160;&#160;&#160;&#160;&#160;&#160;&#160;&#160;&#160;&#160;&#160;&#160;&#160;&#160;&#160;&#160;&#160;&#160;&#160;&#160;&#160;&#160;&#160;&#160;&#160;&#160;&#160;&#160;&#160;&#160;&#160;&#160;&#160;</text>
<polygon fill="none" stroke="#99ccff" points="825.3198,-91 825.3198,-108 916.3198,-108 916.3198,-91 825.3198,-91"/>
<text text-anchor="start" x="827.9128" y="-96.2" font-family="Courier,monospace" font-size="11.00" fill="#000000">reference(18)</text>
<polygon fill="none" stroke="#99ccff" points="173.3198,-74 173.3198,-91 825.3198,-91 825.3198,-74 173.3198,-74"/>
<text text-anchor="start" x="176.3198" y="-79.2" font-family="Courier,monospace" font-size="11.00" fill="#000000"> &#160;&#160;&#160;&#160;&#160;&#160;&#160;&#160;&#160;&#160;&#160;&#160;&#160;&#160;&#160;&#160;&#160;&#160;&#160;&#160;&#160;&#160;&#160;&#160;&#160;&#160;&#160;&#160;&#160;&#160;&#160;&#160;&#160;&#160;&#160;&#160;&#160;&#160;&#160;&#160;AccountId &#160;&#160;&#160;&#160;&#160;&#160;&#160;&#160;&#160;&#160;&#160;&#160;&#160;&#160;&#160;&#160;&#160;&#160;&#160;&#160;&#160;&#160;&#160;&#160;&#160;&#160;&#160;&#160;&#160;&#160;&#160;&#160;&#160;&#160;&#160;&#160;&#160;&#160;</text>
<polygon fill="none" stroke="#99ccff" points="825.3198,-74 825.3198,-91 916.3198,-91 916.3198,-74 825.3198,-74"/>
<text text-anchor="start" x="827.9128" y="-79.2" font-family="Courier,monospace" font-size="11.00" fill="#000000">reference(18)</text>
<polygon fill="none" stroke="#99ccff" points="173.3198,-57 173.3198,-74 825.3198,-74 825.3198,-57 173.3198,-57"/>
<text text-anchor="start" x="176.3198" y="-62.2" font-family="Courier,monospace" font-size="11.00" fill="#000000"> &#160;&#160;&#160;&#160;&#160;&#160;&#160;&#160;&#160;&#160;&#160;&#160;&#160;&#160;&#160;&#160;&#160;&#160;&#160;&#160;&#160;&#160;&#160;&#160;&#160;&#160;&#160;&#160;&#160;&#160;&#160;&#160;&#160;&#160;&#160;&#160;&#160;&#160;&#160;&#160;Type &#160;&#160;&#160;&#160;&#160;&#160;&#160;&#160;&#160;&#160;&#160;&#160;&#160;&#160;&#160;&#160;&#160;&#160;&#160;&#160;&#160;&#160;&#160;&#160;&#160;&#160;&#160;&#160;&#160;&#160;&#160;&#160;&#160;&#160;&#160;&#160;&#160;&#160;</text>
<polygon fill="none" stroke="#99ccff" points="825.3198,-57 825.3198,-74 916.3198,-74 916.3198,-57 825.3198,-57"/>
<text text-anchor="start" x="831.2134" y="-62.2" font-family="Courier,monospace" font-size="11.00" fill="#000000">picklist(40)</text>
<polygon fill="none" stroke="#99ccff" points="173.3198,-40 173.3198,-57 825.3198,-57 825.3198,-40 173.3198,-40"/>
<text text-anchor="start" x="176.3198" y="-45.2" font-family="Courier,monospace" font-size="11.00" fill="#000000"> &#160;&#160;&#160;&#160;&#160;&#160;&#160;&#160;&#160;&#160;&#160;&#160;&#160;&#160;&#160;&#160;&#160;&#160;&#160;&#160;&#160;&#160;&#160;&#160;&#160;&#160;&#160;&#160;&#160;&#160;&#160;&#160;&#160;&#160;&#160;&#160;&#160;&#160;&#160;&#160;ContactId &#160;&#160;&#160;&#160;&#160;&#160;&#160;&#160;&#160;&#160;&#160;&#160;&#160;&#160;&#160;&#160;&#160;&#160;&#160;&#160;&#160;&#160;&#160;&#160;&#160;&#160;&#160;&#160;&#160;&#160;&#160;&#160;&#160;&#160;&#160;&#160;&#160;&#160;</text>
<polygon fill="none" stroke="#99ccff" points="825.3198,-40 825.3198,-57 916.3198,-57 916.3198,-40 825.3198,-40"/>
<text text-anchor="start" x="827.9128" y="-45.2" font-family="Courier,monospace" font-size="11.00" fill="#000000">reference(18)</text>
<polygon fill="none" stroke="#99ccff" points="171.8198,-39 171.8198,-245 916.8198,-245 916.8198,-39 171.8198,-39"/>
</a>
</g>
</g>
<!-- Group -->
<g id="node2" class="node">
<title>Group</title>
<text text-anchor="middle" x="31.1038" y="-206.7" font-family="Courier,monospace" font-size="11.00" fill="#000000">Group</text>
</g>
<!-- Producer&#45;&gt;Group -->
<g id="edge1" class="edge">
<title>Producer:w&#45;&gt;Group:e</title>
<path fill="none" stroke="#ff99cc" d="M158.5339,-202.1337C122.3024,-202.7634 83.4849,-205.4885 58.3419,-207.5563"/>
<polygon fill="#ff99cc" stroke="#ff99cc" points="165.3202,-202.0724 173.3524,-205.5999 169.32,-202.0362 173.3198,-202 173.3198,-202 173.3198,-202 169.32,-202.0362 173.2872,-198.4001 165.3202,-202.0724 165.3202,-202.0724"/>
<ellipse fill="none" stroke="#ff99cc" cx="162.1203" cy="-202.1014" rx="3.2" ry="3.2"/>
<text text-anchor="middle" x="117.0137" y="-209.8015" font-family="Monaco" font-size="9.00" fill="#000000">Owner</text>
</g>
<!-- User -->
<g id="node3" class="node">
<title>User</title>
<text text-anchor="middle" x="31.1038" y="-146.7" font-family="Courier,monospace" font-size="11.00" fill="#000000">User</text>
</g>
<!-- Producer&#45;&gt;User -->
<g id="edge2" class="edge">
<title>Producer:w&#45;&gt;User:e</title>
<path fill="none" stroke="#ff99cc" d="M162.5874,-192.2871C161.0378,-188.5712 159.2138,-184.6043 154.8198,-181.9985 125.0163,-164.3244 112.7366,-171.7422 79.2075,-163 72.4269,-161.2321 65.1214,-159.2814 58.3019,-157.4407"/>
<polygon fill="#ff99cc" stroke="#ff99cc" points="167.3882,-196.6319 170.9042,-204.6692 170.354,-199.3159 173.3198,-202 173.3198,-202 173.3198,-202 170.354,-199.3159 175.7355,-199.3308 167.3882,-196.6319 167.3882,-196.6319"/>
<ellipse fill="none" stroke="#ff99cc" cx="165.0156" cy="-194.4846" rx="3.2" ry="3.2"/>
<text text-anchor="middle" x="117.0137" y="-185.8015" font-family="Monaco" font-size="9.00" fill="#000000">Owner</text>
</g>
<!-- Producer&#45;&gt;User -->
<g id="edge3" class="edge">
<title>Producer:w&#45;&gt;User:e</title>
<path fill="none" stroke="#ff99cc" d="M158.8964,-148.524C157.7071,-148.3079 156.3766,-148.124 154.8198,-147.9985 121.323,-145.2989 112.8057,-147.2999 79.2075,-147.9985 72.4385,-148.1393 65.1372,-148.3914 58.3182,-148.6702"/>
<polygon fill="#ff99cc" stroke="#ff99cc" points="165.4352,-149.6464 172.7107,-154.5481 169.3775,-150.3232 173.3198,-151 173.3198,-151 173.3198,-151 169.3775,-150.3232 173.9289,-147.4519 165.4352,-149.6464 165.4352,-149.6464"/>
<ellipse fill="none" stroke="#ff99cc" cx="162.2813" cy="-149.105" rx="3.2" ry="3.2"/>
<text text-anchor="middle" x="117.0137" y="-151.8015" font-family="Monaco" font-size="9.00" fill="#000000">LastModifiedBy</text>
</g>
<!-- Producer&#45;&gt;User -->
<g id="edge4" class="edge">
<title>Producer:w&#45;&gt;User:e</title>
<path fill="none" stroke="#ff99cc" d="M158.9227,-99.7352C121.2001,-103.4765 82.8516,-120.7409 58.1356,-134.0032"/>
<polygon fill="#ff99cc" stroke="#ff99cc" points="165.3302,-99.4081 173.5034,-102.5953 169.325,-99.204 173.3198,-99 173.3198,-99 173.3198,-99 169.325,-99.204 173.1362,-95.4047 165.3302,-99.4081 165.3302,-99.4081"/>
<ellipse fill="none" stroke="#ff99cc" cx="162.1344" cy="-99.5713" rx="3.2" ry="3.2"/>
<text text-anchor="middle" x="117.0137" y="-126.8015" font-family="Monaco" font-size="9.00" fill="#000000">InternalUser</text>
</g>
<!-- Account -->
<g id="node4" class="node">
<title>Account</title>
<text text-anchor="middle" x="31.1038" y="-80.7" font-family="Courier,monospace" font-size="11.00" fill="#000000">Account</text>
</g>
<!-- Producer&#45;&gt;Account -->
<g id="edge5" class="edge">
<title>Producer:w&#45;&gt;Account:e</title>
<path fill="none" stroke="#ff99cc" d="M158.7846,-82.0324C124.43,-82.1798 87.6665,-82.8007 62.4533,-83.3061"/>
<polygon fill="#ff99cc" stroke="#ff99cc" points="165.3198,-82.0179 173.3279,-85.6 169.3198,-82.009 173.3198,-82 173.3198,-82 173.3198,-82 169.3198,-82.009 173.3118,-78.4 165.3198,-82.0179 165.3198,-82.0179"/>
<ellipse fill="none" stroke="#ff99cc" cx="162.1199" cy="-82.0251" rx="3.2" ry="3.2"/>
<text text-anchor="middle" x="117.0137" y="-87.8015" font-family="Monaco" font-size="9.00" fill="#000000">Account</text>
</g>
<!-- Contact -->
<g id="node5" class="node">
<title>Contact</title>
<text text-anchor="middle" x="31.1038" y="-31.7" font-family="Courier,monospace" font-size="11.00" fill="#000000">Contact</text>
</g>
<!-- Producer&#45;&gt;Contact -->
<g id="edge6" class="edge">
<title>Producer:w&#45;&gt;Contact:e</title>
<path fill="none" stroke="#ff99cc" d="M158.7348,-47.7892C124.283,-46.8316 87.5496,-42.7957 62.38,-39.5103"/>
<polygon fill="#ff99cc" stroke="#ff99cc" points="165.3207,-47.8843 173.2678,-51.5996 169.3202,-47.9422 173.3198,-48 173.3198,-48 173.3198,-48 169.3202,-47.9422 173.3719,-44.4004 165.3207,-47.8843 165.3207,-47.8843"/>
<ellipse fill="none" stroke="#ff99cc" cx="162.121" cy="-47.8381" rx="3.2" ry="3.2"/>
<text text-anchor="middle" x="117.0137" y="-52.8015" font-family="Monaco" font-size="9.00" fill="#000000">Contact</text>
</g>
</g>
</svg>
