<?xml version="1.0" encoding="UTF-8" standalone="no"?>
<!DOCTYPE svg PUBLIC "-//W3C//DTD SVG 1.1//EN"
 "http://www.w3.org/Graphics/SVG/1.1/DTD/svg11.dtd">
<!-- Generated by graphviz version 2.40.1 (20161225.0304)
 -->
<!-- Title: Salesforce+ ERD Pages: 1 -->
<svg width="1024pt" height="316pt"
 viewBox="0.00 0.00 1024.43 316.00" xmlns="http://www.w3.org/2000/svg" xmlns:xlink="http://www.w3.org/1999/xlink">
<g id="graph0" class="graph" transform="scale(1 1) rotate(0) translate(4 312)">
<title>Salesforce+ ERD</title>
<polygon fill="#efeffd" stroke="transparent" points="-4,4 -4,-312 1020.4316,-312 1020.4316,4 -4,4"/>
<text text-anchor="middle" x="967.925" y="-5.8" font-family="Courier,monospace" font-size="9.00" fill="#000000">Salesforce ERD </text>
<!-- Product2 -->
<g id="node1" class="node">
<title>Product2</title>
<g id="a_node1"><a xlink:href="#" xlink:title=" Product2 ">
<polygon fill="#ffeeff" stroke="transparent" points="244.4316,-17 244.4316,-308 1016.4316,-308 1016.4316,-17 244.4316,-17"/>
<polygon fill="#add8e6" stroke="transparent" points="245.4316,-289.5 245.4316,-306.5 1015.4316,-306.5 1015.4316,-289.5 245.4316,-289.5"/>
<polygon fill="none" stroke="#99ccff" points="245.4316,-289.5 245.4316,-306.5 1015.4316,-306.5 1015.4316,-289.5 245.4316,-289.5"/>
<text text-anchor="start" x="604.0273" y="-295.7" font-family="Courier,monospace" font-weight="bold" font-size="11.00" fill="#000000">Product2</text>
<polygon fill="#99ccff" stroke="transparent" points="245.4316,-272.5 245.4316,-289.5 917.4316,-289.5 917.4316,-272.5 245.4316,-272.5"/>
<polygon fill="none" stroke="#99ccff" points="245.4316,-272.5 245.4316,-289.5 917.4316,-289.5 917.4316,-272.5 245.4316,-272.5"/>
<text text-anchor="start" x="248.4316" y="-278.7" font-family="Courier,monospace" font-size="11.00" fill="#000000"> &#160;&#160;&#160;&#160;&#160;&#160;&#160;&#160;&#160;&#160;&#160;&#160;&#160;&#160;&#160;&#160;&#160;&#160;&#160;&#160;&#160;&#160;&#160;&#160;&#160;&#160;&#160;&#160;&#160;&#160;&#160;&#160;&#160;&#160;&#160;&#160;&#160;&#160;&#160;&#160;&#160;&#160;</text>
<text text-anchor="start" x="532.2778" y="-278.7" font-family="Courier,monospace" font-weight="bold" font-size="11.00" fill="#000000">Id</text>
<text text-anchor="start" x="545.48" y="-278.7" font-family="Courier,monospace" font-size="11.00" fill="#000000"> &#160;&#160;&#160;&#160;&#160;&#160;&#160;&#160;&#160;&#160;&#160;&#160;&#160;&#160;&#160;&#160;&#160;&#160;&#160;&#160;&#160;&#160;&#160;&#160;&#160;&#160;&#160;&#160;&#160;&#160;&#160;&#160;&#160;&#160;&#160;&#160;&#160;&#160;&#160;</text>
<polygon fill="none" stroke="#99ccff" points="917.4316,-272.5 917.4316,-289.5 1015.4316,-289.5 1015.4316,-272.5 917.4316,-272.5"/>
<text text-anchor="start" x="946.6284" y="-277.7" font-family="Courier,monospace" font-size="11.00" fill="#000000">id(18)</text>
<polygon fill="none" stroke="#99ccff" points="245.4316,-255.5 245.4316,-272.5 917.4316,-272.5 917.4316,-255.5 245.4316,-255.5"/>
<text text-anchor="start" x="248.4316" y="-260.7" font-family="Courier,monospace" font-size="11.00" fill="#000000"> &#160;&#160;&#160;&#160;&#160;&#160;&#160;&#160;&#160;&#160;&#160;&#160;&#160;&#160;&#160;&#160;&#160;&#160;&#160;&#160;&#160;&#160;&#160;&#160;&#160;&#160;&#160;&#160;&#160;&#160;&#160;&#160;&#160;&#160;&#160;&#160;&#160;&#160;&#160;&#160;Name &#160;&#160;&#160;&#160;&#160;&#160;&#160;&#160;&#160;&#160;&#160;&#160;&#160;&#160;&#160;&#160;&#160;&#160;&#160;&#160;&#160;&#160;&#160;&#160;&#160;&#160;&#160;&#160;&#160;&#160;&#160;&#160;&#160;&#160;&#160;&#160;&#160;&#160;</text>
<polygon fill="none" stroke="#99ccff" points="917.4316,-255.5 917.4316,-272.5 1015.4316,-272.5 1015.4316,-255.5 917.4316,-255.5"/>
<text text-anchor="start" x="930.1257" y="-260.7" font-family="Courier,monospace" font-size="11.00" fill="#000000">string(255)</text>
<polygon fill="none" stroke="#99ccff" points="245.4316,-238.5 245.4316,-255.5 917.4316,-255.5 917.4316,-238.5 245.4316,-238.5"/>
<text text-anchor="start" x="248.4316" y="-243.7" font-family="Courier,monospace" font-size="11.00" fill="#000000"> &#160;&#160;&#160;&#160;&#160;&#160;&#160;&#160;&#160;&#160;&#160;&#160;&#160;&#160;&#160;&#160;&#160;&#160;&#160;&#160;&#160;&#160;&#160;&#160;&#160;&#160;&#160;&#160;&#160;&#160;&#160;&#160;&#160;&#160;&#160;&#160;&#160;&#160;&#160;&#160;ProductCode &#160;&#160;&#160;&#160;&#160;&#160;&#160;&#160;&#160;&#160;&#160;&#160;&#160;&#160;&#160;&#160;&#160;&#160;&#160;&#160;&#160;&#160;&#160;&#160;&#160;&#160;&#160;&#160;&#160;&#160;&#160;&#160;&#160;&#160;&#160;&#160;&#160;&#160;</text>
<polygon fill="none" stroke="#99ccff" points="917.4316,-238.5 917.4316,-255.5 1015.4316,-255.5 1015.4316,-238.5 917.4316,-238.5"/>
<text text-anchor="start" x="930.1257" y="-243.7" font-family="Courier,monospace" font-size="11.00" fill="#000000">string(255)</text>
<polygon fill="none" stroke="#99ccff" points="245.4316,-221.5 245.4316,-238.5 917.4316,-238.5 917.4316,-221.5 245.4316,-221.5"/>
<text text-anchor="start" x="248.4316" y="-226.7" font-family="Courier,monospace" font-size="11.00" fill="#000000"> &#160;&#160;&#160;&#160;&#160;&#160;&#160;&#160;&#160;&#160;&#160;&#160;&#160;&#160;&#160;&#160;&#160;&#160;&#160;&#160;&#160;&#160;&#160;&#160;&#160;&#160;&#160;&#160;&#160;&#160;&#160;&#160;&#160;&#160;&#160;&#160;&#160;&#160;&#160;&#160;Description &#160;&#160;&#160;&#160;&#160;&#160;&#160;&#160;&#160;&#160;&#160;&#160;&#160;&#160;&#160;&#160;&#160;&#160;&#160;&#160;&#160;&#160;&#160;&#160;&#160;&#160;&#160;&#160;&#160;&#160;&#160;&#160;&#160;&#160;&#160;&#160;&#160;&#160;</text>
<polygon fill="none" stroke="#99ccff" points="917.4316,-221.5 917.4316,-238.5 1015.4316,-238.5 1015.4316,-221.5 917.4316,-221.5"/>
<text text-anchor="start" x="920.2241" y="-226.7" font-family="Courier,monospace" font-size="11.00" fill="#000000">textarea(4000)</text>
<polygon fill="none" stroke="#99ccff" points="245.4316,-204.5 245.4316,-221.5 917.4316,-221.5 917.4316,-204.5 245.4316,-204.5"/>
<text text-anchor="start" x="248.4316" y="-209.7" font-family="Courier,monospace" font-size="11.00" fill="#000000"> &#160;&#160;&#160;&#160;&#160;&#160;&#160;&#160;&#160;&#160;&#160;&#160;&#160;&#160;&#160;&#160;&#160;&#160;&#160;&#160;&#160;&#160;&#160;&#160;&#160;&#160;&#160;&#160;&#160;&#160;&#160;&#160;&#160;&#160;&#160;&#160;&#160;&#160;&#160;&#160;IsActive &#160;&#160;&#160;&#160;&#160;&#160;&#160;&#160;&#160;&#160;&#160;&#160;&#160;&#160;&#160;&#160;&#160;&#160;&#160;&#160;&#160;&#160;&#160;&#160;&#160;&#160;&#160;&#160;&#160;&#160;&#160;&#160;&#160;&#160;&#160;&#160;&#160;&#160;</text>
<polygon fill="none" stroke="#99ccff" points="917.4316,-204.5 917.4316,-221.5 1015.4316,-221.5 1015.4316,-204.5 917.4316,-204.5"/>
<text text-anchor="start" x="943.3279" y="-209.7" font-family="Courier,monospace" font-size="11.00" fill="#000000">boolean</text>
<polygon fill="none" stroke="#99ccff" points="245.4316,-187.5 245.4316,-204.5 917.4316,-204.5 917.4316,-187.5 245.4316,-187.5"/>
<text text-anchor="start" x="248.4316" y="-192.7" font-family="Courier,monospace" font-size="11.00" fill="#000000"> &#160;&#160;&#160;&#160;&#160;&#160;&#160;&#160;&#160;&#160;&#160;&#160;&#160;&#160;&#160;&#160;&#160;&#160;&#160;&#160;&#160;&#160;&#160;&#160;&#160;&#160;&#160;&#160;&#160;&#160;&#160;&#160;&#160;&#160;&#160;&#160;&#160;&#160;&#160;&#160;LastModifiedById &#160;&#160;&#160;&#160;&#160;&#160;&#160;&#160;&#160;&#160;&#160;&#160;&#160;&#160;&#160;&#160;&#160;&#160;&#160;&#160;&#160;&#160;&#160;&#160;&#160;&#160;&#160;&#160;&#160;&#160;&#160;&#160;&#160;&#160;&#160;&#160;&#160;&#160;</text>
<polygon fill="none" stroke="#99ccff" points="917.4316,-187.5 917.4316,-204.5 1015.4316,-204.5 1015.4316,-187.5 917.4316,-187.5"/>
<text text-anchor="start" x="923.5247" y="-192.7" font-family="Courier,monospace" font-size="11.00" fill="#000000">reference(18)</text>
<polygon fill="none" stroke="#99ccff" points="245.4316,-170.5 245.4316,-187.5 917.4316,-187.5 917.4316,-170.5 245.4316,-170.5"/>
<text text-anchor="start" x="248.4316" y="-175.7" font-family="Courier,monospace" font-size="11.00" fill="#000000"> &#160;&#160;&#160;&#160;&#160;&#160;&#160;&#160;&#160;&#160;&#160;&#160;&#160;&#160;&#160;&#160;&#160;&#160;&#160;&#160;&#160;&#160;&#160;&#160;&#160;&#160;&#160;&#160;&#160;&#160;&#160;&#160;&#160;&#160;&#160;&#160;&#160;&#160;&#160;&#160;Family &#160;&#160;&#160;&#160;&#160;&#160;&#160;&#160;&#160;&#160;&#160;&#160;&#160;&#160;&#160;&#160;&#160;&#160;&#160;&#160;&#160;&#160;&#160;&#160;&#160;&#160;&#160;&#160;&#160;&#160;&#160;&#160;&#160;&#160;&#160;&#160;&#160;&#160;</text>
<polygon fill="none" stroke="#99ccff" points="917.4316,-170.5 917.4316,-187.5 1015.4316,-187.5 1015.4316,-170.5 917.4316,-170.5"/>
<text text-anchor="start" x="926.8252" y="-175.7" font-family="Courier,monospace" font-size="11.00" fill="#000000">picklist(40)</text>
<polygon fill="none" stroke="#99ccff" points="245.4316,-153.5 245.4316,-170.5 917.4316,-170.5 917.4316,-153.5 245.4316,-153.5"/>
<text text-anchor="start" x="248.4316" y="-158.7" font-family="Courier,monospace" font-size="11.00" fill="#000000"> &#160;&#160;&#160;&#160;&#160;&#160;&#160;&#160;&#160;&#160;&#160;&#160;&#160;&#160;&#160;&#160;&#160;&#160;&#160;&#160;&#160;&#160;&#160;&#160;&#160;&#160;&#160;&#160;&#160;&#160;&#160;&#160;&#160;&#160;&#160;&#160;&#160;&#160;&#160;&#160;ExternalDataSourceId &#160;&#160;&#160;&#160;&#160;&#160;&#160;&#160;&#160;&#160;&#160;&#160;&#160;&#160;&#160;&#160;&#160;&#160;&#160;&#160;&#160;&#160;&#160;&#160;&#160;&#160;&#160;&#160;&#160;&#160;&#160;&#160;&#160;&#160;&#160;&#160;&#160;&#160;</text>
<polygon fill="none" stroke="#99ccff" points="917.4316,-153.5 917.4316,-170.5 1015.4316,-170.5 1015.4316,-153.5 917.4316,-153.5"/>
<text text-anchor="start" x="923.5247" y="-158.7" font-family="Courier,monospace" font-size="11.00" fill="#000000">reference(18)</text>
<polygon fill="none" stroke="#99ccff" points="245.4316,-136.5 245.4316,-153.5 917.4316,-153.5 917.4316,-136.5 245.4316,-136.5"/>
<text text-anchor="start" x="248.4316" y="-141.7" font-family="Courier,monospace" font-size="11.00" fill="#000000"> &#160;&#160;&#160;&#160;&#160;&#160;&#160;&#160;&#160;&#160;&#160;&#160;&#160;&#160;&#160;&#160;&#160;&#160;&#160;&#160;&#160;&#160;&#160;&#160;&#160;&#160;&#160;&#160;&#160;&#160;&#160;&#160;&#160;&#160;&#160;&#160;&#160;&#160;&#160;&#160;ExternalId &#160;&#160;&#160;&#160;&#160;&#160;&#160;&#160;&#160;&#160;&#160;&#160;&#160;&#160;&#160;&#160;&#160;&#160;&#160;&#160;&#160;&#160;&#160;&#160;&#160;&#160;&#160;&#160;&#160;&#160;&#160;&#160;&#160;&#160;&#160;&#160;&#160;&#160;</text>
<polygon fill="none" stroke="#99ccff" points="917.4316,-136.5 917.4316,-153.5 1015.4316,-153.5 1015.4316,-136.5 917.4316,-136.5"/>
<text text-anchor="start" x="930.1257" y="-141.7" font-family="Courier,monospace" font-size="11.00" fill="#000000">string(255)</text>
<polygon fill="none" stroke="#99ccff" points="245.4316,-119.5 245.4316,-136.5 917.4316,-136.5 917.4316,-119.5 245.4316,-119.5"/>
<text text-anchor="start" x="248.4316" y="-124.7" font-family="Courier,monospace" font-size="11.00" fill="#000000"> &#160;&#160;&#160;&#160;&#160;&#160;&#160;&#160;&#160;&#160;&#160;&#160;&#160;&#160;&#160;&#160;&#160;&#160;&#160;&#160;&#160;&#160;&#160;&#160;&#160;&#160;&#160;&#160;&#160;&#160;&#160;&#160;&#160;&#160;&#160;&#160;&#160;&#160;&#160;&#160;DisplayUrl &#160;&#160;&#160;&#160;&#160;&#160;&#160;&#160;&#160;&#160;&#160;&#160;&#160;&#160;&#160;&#160;&#160;&#160;&#160;&#160;&#160;&#160;&#160;&#160;&#160;&#160;&#160;&#160;&#160;&#160;&#160;&#160;&#160;&#160;&#160;&#160;&#160;&#160;</text>
<polygon fill="none" stroke="#99ccff" points="917.4316,-119.5 917.4316,-136.5 1015.4316,-136.5 1015.4316,-119.5 917.4316,-119.5"/>
<text text-anchor="start" x="936.7268" y="-124.7" font-family="Courier,monospace" font-size="11.00" fill="#000000">url(1000)</text>
<polygon fill="none" stroke="#99ccff" points="245.4316,-102.5 245.4316,-119.5 917.4316,-119.5 917.4316,-102.5 245.4316,-102.5"/>
<text text-anchor="start" x="248.0774" y="-107.7" font-family="Courier,monospace" font-size="11.00" fill="#000000"> &#160;&#160;&#160;&#160;&#160;&#160;&#160;&#160;&#160;&#160;&#160;&#160;&#160;&#160;&#160;&#160;&#160;&#160;&#160;&#160;&#160;&#160;&#160;&#160;&#160;&#160;&#160;&#160;&#160;&#160;&#160;&#160;&#160;&#160;&#160;&#160;&#160;&#160;&#160;&#160;QuantityUnitOfMeasure &#160;&#160;&#160;&#160;&#160;&#160;&#160;&#160;&#160;&#160;&#160;&#160;&#160;&#160;&#160;&#160;&#160;&#160;&#160;&#160;&#160;&#160;&#160;&#160;&#160;&#160;&#160;&#160;&#160;&#160;&#160;&#160;&#160;&#160;&#160;&#160;&#160;&#160;</text>
<polygon fill="none" stroke="#99ccff" points="917.4316,-102.5 917.4316,-119.5 1015.4316,-119.5 1015.4316,-102.5 917.4316,-102.5"/>
<text text-anchor="start" x="926.8252" y="-107.7" font-family="Courier,monospace" font-size="11.00" fill="#000000">picklist(40)</text>
<polygon fill="none" stroke="#99ccff" points="245.4316,-85.5 245.4316,-102.5 917.4316,-102.5 917.4316,-85.5 245.4316,-85.5"/>
<text text-anchor="start" x="248.4316" y="-90.7" font-family="Courier,monospace" font-size="11.00" fill="#000000"> &#160;&#160;&#160;&#160;&#160;&#160;&#160;&#160;&#160;&#160;&#160;&#160;&#160;&#160;&#160;&#160;&#160;&#160;&#160;&#160;&#160;&#160;&#160;&#160;&#160;&#160;&#160;&#160;&#160;&#160;&#160;&#160;&#160;&#160;&#160;&#160;&#160;&#160;&#160;&#160;IsDeleted &#160;&#160;&#160;&#160;&#160;&#160;&#160;&#160;&#160;&#160;&#160;&#160;&#160;&#160;&#160;&#160;&#160;&#160;&#160;&#160;&#160;&#160;&#160;&#160;&#160;&#160;&#160;&#160;&#160;&#160;&#160;&#160;&#160;&#160;&#160;&#160;&#160;&#160;</text>
<polygon fill="none" stroke="#99ccff" points="917.4316,-85.5 917.4316,-102.5 1015.4316,-102.5 1015.4316,-85.5 917.4316,-85.5"/>
<text text-anchor="start" x="943.3279" y="-90.7" font-family="Courier,monospace" font-size="11.00" fill="#000000">boolean</text>
<polygon fill="none" stroke="#99ccff" points="245.4316,-68.5 245.4316,-85.5 917.4316,-85.5 917.4316,-68.5 245.4316,-68.5"/>
<text text-anchor="start" x="248.4316" y="-73.7" font-family="Courier,monospace" font-size="11.00" fill="#000000"> &#160;&#160;&#160;&#160;&#160;&#160;&#160;&#160;&#160;&#160;&#160;&#160;&#160;&#160;&#160;&#160;&#160;&#160;&#160;&#160;&#160;&#160;&#160;&#160;&#160;&#160;&#160;&#160;&#160;&#160;&#160;&#160;&#160;&#160;&#160;&#160;&#160;&#160;&#160;&#160;IsArchived &#160;&#160;&#160;&#160;&#160;&#160;&#160;&#160;&#160;&#160;&#160;&#160;&#160;&#160;&#160;&#160;&#160;&#160;&#160;&#160;&#160;&#160;&#160;&#160;&#160;&#160;&#160;&#160;&#160;&#160;&#160;&#160;&#160;&#160;&#160;&#160;&#160;&#160;</text>
<polygon fill="none" stroke="#99ccff" points="917.4316,-68.5 917.4316,-85.5 1015.4316,-85.5 1015.4316,-68.5 917.4316,-68.5"/>
<text text-anchor="start" x="943.3279" y="-73.7" font-family="Courier,monospace" font-size="11.00" fill="#000000">boolean</text>
<polygon fill="none" stroke="#99ccff" points="245.4316,-51.5 245.4316,-68.5 917.4316,-68.5 917.4316,-51.5 245.4316,-51.5"/>
<text text-anchor="start" x="248.4316" y="-56.7" font-family="Courier,monospace" font-size="11.00" fill="#000000"> &#160;&#160;&#160;&#160;&#160;&#160;&#160;&#160;&#160;&#160;&#160;&#160;&#160;&#160;&#160;&#160;&#160;&#160;&#160;&#160;&#160;&#160;&#160;&#160;&#160;&#160;&#160;&#160;&#160;&#160;&#160;&#160;&#160;&#160;&#160;&#160;&#160;&#160;&#160;&#160;LastViewedDate &#160;&#160;&#160;&#160;&#160;&#160;&#160;&#160;&#160;&#160;&#160;&#160;&#160;&#160;&#160;&#160;&#160;&#160;&#160;&#160;&#160;&#160;&#160;&#160;&#160;&#160;&#160;&#160;&#160;&#160;&#160;&#160;&#160;&#160;&#160;&#160;&#160;&#160;</text>
<polygon fill="none" stroke="#99ccff" points="917.4316,-51.5 917.4316,-68.5 1015.4316,-68.5 1015.4316,-51.5 917.4316,-51.5"/>
<text text-anchor="start" x="940.0273" y="-56.7" font-family="Courier,monospace" font-size="11.00" fill="#000000">datetime</text>
<polygon fill="none" stroke="#99ccff" points="245.4316,-34.5 245.4316,-51.5 917.4316,-51.5 917.4316,-34.5 245.4316,-34.5"/>
<text text-anchor="start" x="248.4316" y="-39.7" font-family="Courier,monospace" font-size="11.00" fill="#000000"> &#160;&#160;&#160;&#160;&#160;&#160;&#160;&#160;&#160;&#160;&#160;&#160;&#160;&#160;&#160;&#160;&#160;&#160;&#160;&#160;&#160;&#160;&#160;&#160;&#160;&#160;&#160;&#160;&#160;&#160;&#160;&#160;&#160;&#160;&#160;&#160;&#160;&#160;&#160;&#160;LastReferencedDate &#160;&#160;&#160;&#160;&#160;&#160;&#160;&#160;&#160;&#160;&#160;&#160;&#160;&#160;&#160;&#160;&#160;&#160;&#160;&#160;&#160;&#160;&#160;&#160;&#160;&#160;&#160;&#160;&#160;&#160;&#160;&#160;&#160;&#160;&#160;&#160;&#160;&#160;</text>
<polygon fill="none" stroke="#99ccff" points="917.4316,-34.5 917.4316,-51.5 1015.4316,-51.5 1015.4316,-34.5 917.4316,-34.5"/>
<text text-anchor="start" x="940.0273" y="-39.7" font-family="Courier,monospace" font-size="11.00" fill="#000000">datetime</text>
<polygon fill="none" stroke="#99ccff" points="245.4316,-17.5 245.4316,-34.5 917.4316,-34.5 917.4316,-17.5 245.4316,-17.5"/>
<text text-anchor="start" x="248.4316" y="-22.7" font-family="Courier,monospace" font-size="11.00" fill="#000000"> &#160;&#160;&#160;&#160;&#160;&#160;&#160;&#160;&#160;&#160;&#160;&#160;&#160;&#160;&#160;&#160;&#160;&#160;&#160;&#160;&#160;&#160;&#160;&#160;&#160;&#160;&#160;&#160;&#160;&#160;&#160;&#160;&#160;&#160;&#160;&#160;&#160;&#160;&#160;&#160;StockKeepingUnit &#160;&#160;&#160;&#160;&#160;&#160;&#160;&#160;&#160;&#160;&#160;&#160;&#160;&#160;&#160;&#160;&#160;&#160;&#160;&#160;&#160;&#160;&#160;&#160;&#160;&#160;&#160;&#160;&#160;&#160;&#160;&#160;&#160;&#160;&#160;&#160;&#160;&#160;</text>
<polygon fill="none" stroke="#99ccff" points="917.4316,-17.5 917.4316,-34.5 1015.4316,-34.5 1015.4316,-17.5 917.4316,-17.5"/>
<text text-anchor="start" x="930.1257" y="-22.7" font-family="Courier,monospace" font-size="11.00" fill="#000000">string(180)</text>
<polygon fill="none" stroke="#99ccff" points="244.4316,-17 244.4316,-308 1016.4316,-308 1016.4316,-17 244.4316,-17"/>
</a>
</g>
</g>
<!-- User -->
<g id="node2" class="node">
<title>User</title>
<text text-anchor="middle" x="67.4097" y="-200.2" font-family="Courier,monospace" font-size="11.00" fill="#000000">User</text>
</g>
<!-- Product2&#45;&gt;User -->
<g id="edge1" class="edge">
<title>Product2:w&#45;&gt;User:e</title>
<path fill="none" stroke="#ff99cc" d="M230.8182,-196.5743C180.9165,-197.0653 126.2998,-199.883 94.5406,-201.7697"/>
<polygon fill="#ff99cc" stroke="#ff99cc" points="237.4317,-196.5407 245.45,-200.1 241.4317,-196.5204 245.4316,-196.5 245.4316,-196.5 245.4316,-196.5 241.4317,-196.5204 245.4133,-192.9 237.4317,-196.5407 237.4317,-196.5407"/>
<ellipse fill="none" stroke="#ff99cc" cx="234.2318" cy="-196.557" rx="3.2" ry="3.2"/>
<text text-anchor="middle" x="189.6255" y="-203.3015" font-family="Monaco" font-size="9.00" fill="#000000">LastModifiedBy</text>
</g>
<!-- ExternalDataSource -->
<g id="node3" class="node">
<title>ExternalDataSource</title>
<text text-anchor="middle" x="67.4097" y="-151.2" font-family="Courier,monospace" font-size="11.00" fill="#000000">ExternalDataSource</text>
</g>
<!-- Product2&#45;&gt;ExternalDataSource -->
<g id="edge2" class="edge">
<title>Product2:w&#45;&gt;ExternalDataSource:e</title>
<path fill="none" stroke="#ff99cc" d="M230.6957,-161.4245C198.2605,-161.1029 163.8436,-159.7998 135.0128,-158.4093"/>
<polygon fill="#ff99cc" stroke="#ff99cc" points="237.4317,-161.459 245.4132,-165.1 241.4317,-161.4795 245.4316,-161.5 245.4316,-161.5 245.4316,-161.5 241.4317,-161.4795 245.4501,-157.9 237.4317,-161.459 237.4317,-161.459"/>
<ellipse fill="none" stroke="#ff99cc" cx="234.2318" cy="-161.4425" rx="3.2" ry="3.2"/>
</g>
</g>
</svg>
