<?xml version="1.0" encoding="UTF-8" standalone="no"?>
<!DOCTYPE svg PUBLIC "-//W3C//DTD SVG 1.1//EN"
 "http://www.w3.org/Graphics/SVG/1.1/DTD/svg11.dtd">
<!-- Generated by graphviz version 2.40.1 (20161225.0304)
 -->
<!-- Title: Salesforce+ ERD Pages: 1 -->
<svg width="822pt" height="95pt"
 viewBox="0.00 0.00 822.00 95.00" xmlns="http://www.w3.org/2000/svg" xmlns:xlink="http://www.w3.org/1999/xlink">
<g id="graph0" class="graph" transform="scale(1 1) rotate(0) translate(4 91)">
<title>Salesforce+ ERD</title>
<polygon fill="#efeffd" stroke="transparent" points="-4,4 -4,-91 818.0044,-91 818.0044,4 -4,4"/>
<text text-anchor="middle" x="765.4978" y="-5.8" font-family="Courier,monospace" font-size="9.00" fill="#000000">Salesforce ERD </text>
<!-- QueueSobject -->
<g id="node1" class="node">
<title>QueueSobject</title>
<g id="a_node1"><a xlink:href="#" xlink:title=" QueueSobject ">
<polygon fill="#ffeeff" stroke="transparent" points="115.0044,-17 115.0044,-87 814.0044,-87 814.0044,-17 115.0044,-17"/>
<polygon fill="#add8e6" stroke="transparent" points="116.5044,-69 116.5044,-86 813.5044,-86 813.5044,-69 116.5044,-69"/>
<polygon fill="none" stroke="#99ccff" points="116.5044,-69 116.5044,-86 813.5044,-86 813.5044,-69 116.5044,-69"/>
<text text-anchor="start" x="425.3979" y="-75.2" font-family="Courier,monospace" font-weight="bold" font-size="11.00" fill="#000000">QueueSobject</text>
<polygon fill="#99ccff" stroke="transparent" points="116.5044,-52 116.5044,-69 722.5044,-69 722.5044,-52 116.5044,-52"/>
<polygon fill="none" stroke="#99ccff" points="116.5044,-52 116.5044,-69 722.5044,-69 722.5044,-52 116.5044,-52"/>
<text text-anchor="start" x="119.5044" y="-58.2" font-family="Courier,monospace" font-size="11.00" fill="#000000"> &#160;&#160;&#160;&#160;&#160;&#160;&#160;&#160;&#160;&#160;&#160;&#160;&#160;&#160;&#160;&#160;&#160;&#160;&#160;&#160;&#160;&#160;&#160;&#160;&#160;&#160;&#160;&#160;&#160;&#160;&#160;&#160;&#160;&#160;&#160;&#160;&#160;&#160;&#160;&#160;&#160;&#160;</text>
<text text-anchor="start" x="403.3506" y="-58.2" font-family="Courier,monospace" font-weight="bold" font-size="11.00" fill="#000000">Id</text>
<text text-anchor="start" x="416.5527" y="-58.2" font-family="Courier,monospace" font-size="11.00" fill="#000000"> &#160;&#160;&#160;&#160;&#160;&#160;&#160;&#160;&#160;&#160;&#160;&#160;&#160;&#160;&#160;&#160;&#160;&#160;&#160;&#160;&#160;&#160;&#160;&#160;&#160;&#160;&#160;&#160;&#160;&#160;&#160;&#160;&#160;&#160;&#160;&#160;&#160;&#160;&#160;</text>
<polygon fill="none" stroke="#99ccff" points="722.5044,-52 722.5044,-69 813.5044,-69 813.5044,-52 722.5044,-52"/>
<text text-anchor="start" x="748.2012" y="-57.2" font-family="Courier,monospace" font-size="11.00" fill="#000000">id(18)</text>
<polygon fill="none" stroke="#99ccff" points="116.5044,-35 116.5044,-52 722.5044,-52 722.5044,-35 116.5044,-35"/>
<text text-anchor="start" x="119.5044" y="-40.2" font-family="Courier,monospace" font-size="11.00" fill="#000000"> &#160;&#160;&#160;&#160;&#160;&#160;&#160;&#160;&#160;&#160;&#160;&#160;&#160;&#160;&#160;&#160;&#160;&#160;&#160;&#160;&#160;&#160;&#160;&#160;&#160;&#160;&#160;&#160;&#160;&#160;&#160;&#160;&#160;&#160;&#160;&#160;&#160;&#160;&#160;&#160;QueueId &#160;&#160;&#160;&#160;&#160;&#160;&#160;&#160;&#160;&#160;&#160;&#160;&#160;&#160;&#160;&#160;&#160;&#160;&#160;&#160;&#160;&#160;&#160;&#160;&#160;&#160;&#160;&#160;&#160;&#160;&#160;&#160;&#160;&#160;&#160;&#160;&#160;&#160;</text>
<polygon fill="none" stroke="#99ccff" points="722.5044,-35 722.5044,-52 813.5044,-52 813.5044,-35 722.5044,-35"/>
<text text-anchor="start" x="725.0974" y="-40.2" font-family="Courier,monospace" font-size="11.00" fill="#000000">reference(18)</text>
<polygon fill="none" stroke="#99ccff" points="116.5044,-18 116.5044,-35 722.5044,-35 722.5044,-18 116.5044,-18"/>
<text text-anchor="start" x="119.1555" y="-23.2" font-family="Courier,monospace" font-size="11.00" fill="#000000"> &#160;&#160;&#160;&#160;&#160;&#160;&#160;&#160;&#160;&#160;&#160;&#160;&#160;&#160;&#160;&#160;&#160;&#160;&#160;&#160;&#160;&#160;&#160;&#160;&#160;&#160;&#160;&#160;&#160;&#160;&#160;&#160;&#160;&#160;&#160;&#160;&#160;&#160;&#160;&#160;SobjectType &#160;&#160;&#160;&#160;&#160;&#160;&#160;&#160;&#160;&#160;&#160;&#160;&#160;&#160;&#160;&#160;&#160;&#160;&#160;&#160;&#160;&#160;&#160;&#160;&#160;&#160;&#160;&#160;&#160;&#160;&#160;&#160;&#160;&#160;&#160;&#160;&#160;&#160;</text>
<polygon fill="none" stroke="#99ccff" points="722.5044,-18 722.5044,-35 813.5044,-35 813.5044,-18 722.5044,-18"/>
<text text-anchor="start" x="728.3979" y="-23.2" font-family="Courier,monospace" font-size="11.00" fill="#000000">picklist(40)</text>
<polygon fill="none" stroke="#99ccff" points="115.0044,-17 115.0044,-87 814.0044,-87 814.0044,-17 115.0044,-17"/>
</a>
</g>
</g>
<!-- Group -->
<g id="node2" class="node">
<title>Group</title>
<text text-anchor="middle" x="27" y="-39.7" font-family="Courier,monospace" font-size="11.00" fill="#000000">Group</text>
</g>
<!-- QueueSobject&#45;&gt;Group -->
<g id="edge1" class="edge">
<title>QueueSobject:w&#45;&gt;Group:e</title>
<path fill="none" stroke="#ff99cc" d="M101.9221,-43C85.0754,-43 67.7603,-43 54.0253,-43"/>
<polygon fill="#ff99cc" stroke="#ff99cc" points="108.5044,-43.0001 116.5044,-46.6 112.5044,-43 116.5044,-43 116.5044,-43 116.5044,-43 112.5044,-43 116.5044,-39.4 108.5044,-43.0001 108.5044,-43.0001"/>
<ellipse fill="none" stroke="#ff99cc" cx="105.3044" cy="-43.0001" rx="3.2" ry="3.2"/>
<text text-anchor="middle" x="84.5022" y="-47.8015" font-family="Monaco" font-size="9.00" fill="#000000">Queue</text>
</g>
</g>
</svg>
