<?xml version="1.0" encoding="UTF-8" standalone="no"?>
<!DOCTYPE svg PUBLIC "-//W3C//DTD SVG 1.1//EN"
 "http://www.w3.org/Graphics/SVG/1.1/DTD/svg11.dtd">
<!-- Generated by graphviz version 2.40.1 (20161225.0304)
 -->
<!-- Title: Salesforce+ ERD Pages: 1 -->
<svg width="948pt" height="355pt"
 viewBox="0.00 0.00 948.43 355.00" xmlns="http://www.w3.org/2000/svg" xmlns:xlink="http://www.w3.org/1999/xlink">
<g id="graph0" class="graph" transform="scale(1 1) rotate(0) translate(4 351)">
<title>Salesforce+ ERD</title>
<polygon fill="#efeffd" stroke="transparent" points="-4,4 -4,-351 944.4268,-351 944.4268,4 -4,4"/>
<text text-anchor="middle" x="891.9202" y="-5.8" font-family="Courier,monospace" font-size="9.00" fill="#000000">Salesforce ERD </text>
<!-- SetupEntityAccess -->
<g id="node1" class="node">
<title>SetupEntityAccess</title>
<g id="a_node1"><a xlink:href="#" xlink:title=" SetupEntityAccess ">
<polygon fill="#ffeeff" stroke="transparent" points="214.4268,-156.5 214.4268,-243.5 940.4268,-243.5 940.4268,-156.5 214.4268,-156.5"/>
<polygon fill="#add8e6" stroke="transparent" points="215.4268,-225 215.4268,-242 939.4268,-242 939.4268,-225 215.4268,-225"/>
<polygon fill="none" stroke="#99ccff" points="215.4268,-225 215.4268,-242 939.4268,-242 939.4268,-225 215.4268,-225"/>
<text text-anchor="start" x="521.3176" y="-231.2" font-family="Courier,monospace" font-weight="bold" font-size="11.00" fill="#000000">SetupEntityAccess</text>
<polygon fill="#99ccff" stroke="transparent" points="215.4268,-208 215.4268,-225 848.4268,-225 848.4268,-208 215.4268,-208"/>
<polygon fill="none" stroke="#99ccff" points="215.4268,-208 215.4268,-225 848.4268,-225 848.4268,-208 215.4268,-208"/>
<text text-anchor="start" x="218.4268" y="-214.2" font-family="Courier,monospace" font-size="11.00" fill="#000000"> &#160;&#160;&#160;&#160;&#160;&#160;&#160;&#160;&#160;&#160;&#160;&#160;&#160;&#160;&#160;&#160;&#160;&#160;&#160;&#160;&#160;&#160;&#160;&#160;&#160;&#160;&#160;&#160;&#160;&#160;&#160;&#160;&#160;&#160;&#160;&#160;&#160;&#160;&#160;&#160;&#160;&#160;</text>
<text text-anchor="start" x="502.2729" y="-214.2" font-family="Courier,monospace" font-weight="bold" font-size="11.00" fill="#000000">Id</text>
<text text-anchor="start" x="515.4751" y="-214.2" font-family="Courier,monospace" font-size="11.00" fill="#000000"> &#160;&#160;&#160;&#160;&#160;&#160;&#160;&#160;&#160;&#160;&#160;&#160;&#160;&#160;&#160;&#160;&#160;&#160;&#160;&#160;&#160;&#160;&#160;&#160;&#160;&#160;&#160;&#160;&#160;&#160;&#160;&#160;&#160;&#160;&#160;&#160;&#160;&#160;&#160;</text>
<polygon fill="none" stroke="#99ccff" points="848.4268,-208 848.4268,-225 939.4268,-225 939.4268,-208 848.4268,-208"/>
<text text-anchor="start" x="874.1235" y="-213.2" font-family="Courier,monospace" font-size="11.00" fill="#000000">id(18)</text>
<polygon fill="none" stroke="#99ccff" points="215.4268,-191 215.4268,-208 848.4268,-208 848.4268,-191 215.4268,-191"/>
<text text-anchor="start" x="218.4268" y="-196.2" font-family="Courier,monospace" font-size="11.00" fill="#000000"> &#160;&#160;&#160;&#160;&#160;&#160;&#160;&#160;&#160;&#160;&#160;&#160;&#160;&#160;&#160;&#160;&#160;&#160;&#160;&#160;&#160;&#160;&#160;&#160;&#160;&#160;&#160;&#160;&#160;&#160;&#160;&#160;&#160;&#160;&#160;&#160;&#160;&#160;&#160;&#160;ParentId &#160;&#160;&#160;&#160;&#160;&#160;&#160;&#160;&#160;&#160;&#160;&#160;&#160;&#160;&#160;&#160;&#160;&#160;&#160;&#160;&#160;&#160;&#160;&#160;&#160;&#160;&#160;&#160;&#160;&#160;&#160;&#160;&#160;&#160;&#160;&#160;&#160;&#160;</text>
<polygon fill="none" stroke="#99ccff" points="848.4268,-191 848.4268,-208 939.4268,-208 939.4268,-191 848.4268,-191"/>
<text text-anchor="start" x="851.0198" y="-196.2" font-family="Courier,monospace" font-size="11.00" fill="#000000">reference(18)</text>
<polygon fill="none" stroke="#99ccff" points="215.4268,-174 215.4268,-191 848.4268,-191 848.4268,-174 215.4268,-174"/>
<text text-anchor="start" x="218.4268" y="-179.2" font-family="Courier,monospace" font-size="11.00" fill="#000000"> &#160;&#160;&#160;&#160;&#160;&#160;&#160;&#160;&#160;&#160;&#160;&#160;&#160;&#160;&#160;&#160;&#160;&#160;&#160;&#160;&#160;&#160;&#160;&#160;&#160;&#160;&#160;&#160;&#160;&#160;&#160;&#160;&#160;&#160;&#160;&#160;&#160;&#160;&#160;&#160;SetupEntityId &#160;&#160;&#160;&#160;&#160;&#160;&#160;&#160;&#160;&#160;&#160;&#160;&#160;&#160;&#160;&#160;&#160;&#160;&#160;&#160;&#160;&#160;&#160;&#160;&#160;&#160;&#160;&#160;&#160;&#160;&#160;&#160;&#160;&#160;&#160;&#160;&#160;&#160;</text>
<polygon fill="none" stroke="#99ccff" points="848.4268,-174 848.4268,-191 939.4268,-191 939.4268,-174 848.4268,-174"/>
<text text-anchor="start" x="851.0198" y="-179.2" font-family="Courier,monospace" font-size="11.00" fill="#000000">reference(18)</text>
<polygon fill="none" stroke="#99ccff" points="215.4268,-157 215.4268,-174 848.4268,-174 848.4268,-157 215.4268,-157"/>
<text text-anchor="start" x="218.3757" y="-162.2" font-family="Courier,monospace" font-size="11.00" fill="#000000"> &#160;&#160;&#160;&#160;&#160;&#160;&#160;&#160;&#160;&#160;&#160;&#160;&#160;&#160;&#160;&#160;&#160;&#160;&#160;&#160;&#160;&#160;&#160;&#160;&#160;&#160;&#160;&#160;&#160;&#160;&#160;&#160;&#160;&#160;&#160;&#160;&#160;&#160;&#160;&#160;SetupEntityType &#160;&#160;&#160;&#160;&#160;&#160;&#160;&#160;&#160;&#160;&#160;&#160;&#160;&#160;&#160;&#160;&#160;&#160;&#160;&#160;&#160;&#160;&#160;&#160;&#160;&#160;&#160;&#160;&#160;&#160;&#160;&#160;&#160;&#160;&#160;&#160;&#160;&#160;</text>
<polygon fill="none" stroke="#99ccff" points="848.4268,-157 848.4268,-174 939.4268,-174 939.4268,-157 848.4268,-157"/>
<text text-anchor="start" x="854.3203" y="-162.2" font-family="Courier,monospace" font-size="11.00" fill="#000000">picklist(40)</text>
<polygon fill="none" stroke="#99ccff" points="214.4268,-156.5 214.4268,-243.5 940.4268,-243.5 940.4268,-156.5 214.4268,-156.5"/>
</a>
</g>
</g>
<!-- PermissionSet -->
<g id="node2" class="node">
<title>PermissionSet</title>
<text text-anchor="middle" x="74.0107" y="-325.7" font-family="Courier,monospace" font-size="11.00" fill="#000000">PermissionSet</text>
</g>
<!-- SetupEntityAccess&#45;&gt;PermissionSet -->
<g id="edge1" class="edge">
<title>SetupEntityAccess:w&#45;&gt;PermissionSet:e</title>
<path fill="none" stroke="#ff99cc" d="M203.863,-207.7786C201.9212,-215.1915 202.8078,-226.0052 197.4268,-235 177.8773,-267.6783 178.6808,-282.4156 148.0215,-305 141.1698,-310.0471 133.2082,-314.0636 125.0979,-317.251"/>
<polygon fill="#ff99cc" stroke="#ff99cc" points="209.0548,-203.8373 217.6035,-201.8674 212.2408,-201.4186 215.4268,-199 215.4268,-199 215.4268,-199 212.2408,-201.4186 213.25,-196.1326 209.0548,-203.8373 209.0548,-203.8373"/>
<ellipse fill="none" stroke="#ff99cc" cx="206.5061" cy="-205.7722" rx="3.2" ry="3.2"/>
<text text-anchor="middle" x="181.2241" y="-293.8015" font-family="Monaco" font-size="9.00" fill="#000000">Parent</text>
</g>
<!-- ApexClass -->
<g id="node3" class="node">
<title>ApexClass</title>
<text text-anchor="middle" x="74.0107" y="-276.7" font-family="Courier,monospace" font-size="11.00" fill="#000000">ApexClass</text>
</g>
<!-- SetupEntityAccess&#45;&gt;ApexClass -->
<g id="edge2" class="edge">
<title>SetupEntityAccess:w&#45;&gt;ApexClass:e</title>
<path fill="none" stroke="#ff99cc" d="M204.3182,-191.5381C202.8016,-196.3212 201.5944,-202.1194 197.4268,-207 177.344,-230.5181 174.4282,-239.9032 148.0215,-256 137.0643,-262.6792 124.0474,-267.7062 112.0083,-271.3875"/>
<polygon fill="#ff99cc" stroke="#ff99cc" points="209.3571,-187.2115 217.7719,-184.7313 212.3919,-184.6058 215.4268,-182 215.4268,-182 215.4268,-182 212.3919,-184.6058 213.0816,-179.2687 209.3571,-187.2115 209.3571,-187.2115"/>
<ellipse fill="none" stroke="#ff99cc" cx="206.9293" cy="-189.2961" rx="3.2" ry="3.2"/>
</g>
<!-- ApexPage -->
<g id="node4" class="node">
<title>ApexPage</title>
<text text-anchor="middle" x="74.0107" y="-227.7" font-family="Courier,monospace" font-size="11.00" fill="#000000">ApexPage</text>
</g>
<!-- SetupEntityAccess&#45;&gt;ApexPage -->
<g id="edge3" class="edge">
<title>SetupEntityAccess:w&#45;&gt;ApexPage:e</title>
<path fill="none" stroke="#ff99cc" d="M202.4984,-188.9106C201.1319,-190.0178 199.5282,-191.0952 197.4268,-192 168.2228,-204.5746 133.5974,-215.1635 108.4661,-222.12"/>
<polygon fill="#ff99cc" stroke="#ff99cc" points="208.3714,-185.7713 217.1239,-185.1749 211.8991,-183.8857 215.4268,-182 215.4268,-182 215.4268,-182 211.8991,-183.8857 213.7297,-178.8251 208.3714,-185.7713 208.3714,-185.7713"/>
<ellipse fill="none" stroke="#ff99cc" cx="205.5493" cy="-187.2798" rx="3.2" ry="3.2"/>
</g>
<!-- ConnectedApplication -->
<g id="node5" class="node">
<title>ConnectedApplication</title>
<text text-anchor="middle" x="74.0107" y="-178.7" font-family="Courier,monospace" font-size="11.00" fill="#000000">ConnectedApplication</text>
</g>
<!-- SetupEntityAccess&#45;&gt;ConnectedApplication -->
<g id="edge4" class="edge">
<title>SetupEntityAccess:w&#45;&gt;ConnectedApplication:e</title>
<path fill="none" stroke="#ff99cc" d="M200.856,-182C183.2841,-182 165.082,-182 148.1386,-182"/>
<polygon fill="#ff99cc" stroke="#ff99cc" points="207.4268,-182.0001 215.4268,-185.6 211.4268,-182 215.4268,-182 215.4268,-182 215.4268,-182 211.4268,-182 215.4267,-178.4 207.4268,-182.0001 207.4268,-182.0001"/>
<ellipse fill="none" stroke="#ff99cc" cx="204.2268" cy="-182.0001" rx="3.2" ry="3.2"/>
</g>
<!-- CustomPermission -->
<g id="node6" class="node">
<title>CustomPermission</title>
<text text-anchor="middle" x="74.0107" y="-129.7" font-family="Courier,monospace" font-size="11.00" fill="#000000">CustomPermission</text>
</g>
<!-- SetupEntityAccess&#45;&gt;CustomPermission -->
<g id="edge5" class="edge">
<title>SetupEntityAccess:w&#45;&gt;CustomPermission:e</title>
<path fill="none" stroke="#ff99cc" d="M201.1235,-179.2375C183.3586,-173.8168 159.464,-161.9694 148.0215,-158 141.4867,-155.7331 134.6183,-153.3772 127.8085,-151.0578"/>
<polygon fill="#ff99cc" stroke="#ff99cc" points="207.5719,-180.4829 214.7441,-185.5347 211.4993,-181.2414 215.4268,-182 215.4268,-182 215.4268,-182 211.4993,-181.2414 216.1095,-178.4653 207.5719,-180.4829 207.5719,-180.4829"/>
<ellipse fill="none" stroke="#ff99cc" cx="204.43" cy="-179.876" rx="3.2" ry="3.2"/>
</g>
<!-- ExternalDataSource -->
<g id="node7" class="node">
<title>ExternalDataSource</title>
<text text-anchor="middle" x="74.0107" y="-80.7" font-family="Courier,monospace" font-size="11.00" fill="#000000">ExternalDataSource</text>
</g>
<!-- SetupEntityAccess&#45;&gt;ExternalDataSource -->
<g id="edge6" class="edge">
<title>SetupEntityAccess:w&#45;&gt;ExternalDataSource:e</title>
<path fill="none" stroke="#ff99cc" d="M203.8801,-173.0094C202.3205,-169.5551 200.7082,-165.5825 197.4268,-162 175.6757,-138.2533 175.0786,-126.4621 148.0215,-109 144.1471,-106.4995 139.9964,-104.2223 135.711,-102.1531"/>
<polygon fill="#ff99cc" stroke="#ff99cc" points="209.1145,-177.0851 213.2151,-184.8405 212.2706,-179.5425 215.4268,-182 215.4268,-182 215.4268,-182 212.2706,-179.5425 217.6385,-179.1595 209.1145,-177.0851 209.1145,-177.0851"/>
<ellipse fill="none" stroke="#ff99cc" cx="206.5897" cy="-175.1191" rx="3.2" ry="3.2"/>
</g>
<!-- NamedCredential -->
<g id="node8" class="node">
<title>NamedCredential</title>
<text text-anchor="middle" x="74.0107" y="-31.7" font-family="Courier,monospace" font-size="11.00" fill="#000000">NamedCredential</text>
</g>
<!-- SetupEntityAccess&#45;&gt;NamedCredential -->
<g id="edge7" class="edge">
<title>SetupEntityAccess:w&#45;&gt;NamedCredential:e</title>
<path fill="none" stroke="#ff99cc" d="M202.248,-175.7739C196.2887,-164.0845 207.6612,-138.2939 197.4268,-119 181.3997,-88.786 176.2548,-79.3037 148.0215,-60 142.9834,-56.5554 137.4297,-53.5493 131.6973,-50.934"/>
<polygon fill="#ff99cc" stroke="#ff99cc" points="208.1934,-178.5826 213.8889,-185.255 211.8101,-180.2913 215.4268,-182 215.4268,-182 215.4268,-182 211.8101,-180.2913 216.9646,-178.745 208.1934,-178.5826 208.1934,-178.5826"/>
<ellipse fill="none" stroke="#ff99cc" cx="205.3" cy="-177.2157" rx="3.2" ry="3.2"/>
</g>
</g>
</svg>
