<?xml version="1.0" encoding="UTF-8" standalone="no"?>
<!DOCTYPE svg PUBLIC "-//W3C//DTD SVG 1.1//EN"
 "http://www.w3.org/Graphics/SVG/1.1/DTD/svg11.dtd">
<!-- Generated by graphviz version 2.40.1 (20161225.0304)
 -->
<!-- Title: Salesforce+ ERD Pages: 1 -->
<svg width="834pt" height="197pt"
 viewBox="0.00 0.00 834.00 197.00" xmlns="http://www.w3.org/2000/svg" xmlns:xlink="http://www.w3.org/1999/xlink">
<g id="graph0" class="graph" transform="scale(1 1) rotate(0) translate(4 193)">
<title>Salesforce+ ERD</title>
<polygon fill="#efeffd" stroke="transparent" points="-4,4 -4,-193 830,-193 830,4 -4,4"/>
<text text-anchor="middle" x="777.4934" y="-5.8" font-family="Courier,monospace" font-size="9.00" fill="#000000">Salesforce ERD </text>
<!-- UserRecordAccess -->
<g id="node1" class="node">
<title>UserRecordAccess</title>
<g id="a_node1"><a xlink:href="#" xlink:title=" UserRecordAccess ">
<polygon fill="#ffeeff" stroke="transparent" points="87,-17 87,-189 826,-189 826,-17 87,-17"/>
<polygon fill="#add8e6" stroke="transparent" points="88.5,-171 88.5,-188 825.5,-188 825.5,-171 88.5,-171"/>
<polygon fill="none" stroke="#99ccff" points="88.5,-171 88.5,-188 825.5,-188 825.5,-171 88.5,-171"/>
<text text-anchor="start" x="404.1914" y="-177.2" font-family="Courier,monospace" font-weight="bold" font-size="11.00" fill="#000000">UserRecordAccess</text>
<polygon fill="#99ccff" stroke="transparent" points="88.5,-154 88.5,-171 734.5,-171 734.5,-154 88.5,-154"/>
<polygon fill="none" stroke="#99ccff" points="88.5,-154 88.5,-171 734.5,-171 734.5,-154 88.5,-154"/>
<text text-anchor="start" x="91.5" y="-160.2" font-family="Courier,monospace" font-size="11.00" fill="#000000"> &#160;&#160;&#160;&#160;&#160;&#160;&#160;&#160;&#160;&#160;&#160;&#160;&#160;&#160;&#160;&#160;&#160;&#160;&#160;&#160;&#160;&#160;&#160;&#160;&#160;&#160;&#160;&#160;&#160;&#160;&#160;&#160;&#160;&#160;&#160;&#160;&#160;&#160;&#160;&#160;&#160;&#160;</text>
<text text-anchor="start" x="375.3462" y="-160.2" font-family="Courier,monospace" font-weight="bold" font-size="11.00" fill="#000000">Id</text>
<text text-anchor="start" x="388.5483" y="-160.2" font-family="Courier,monospace" font-size="11.00" fill="#000000"> &#160;&#160;&#160;&#160;&#160;&#160;&#160;&#160;&#160;&#160;&#160;&#160;&#160;&#160;&#160;&#160;&#160;&#160;&#160;&#160;&#160;&#160;&#160;&#160;&#160;&#160;&#160;&#160;&#160;&#160;&#160;&#160;&#160;&#160;&#160;&#160;&#160;&#160;&#160;</text>
<polygon fill="none" stroke="#99ccff" points="734.5,-154 734.5,-171 825.5,-171 825.5,-154 734.5,-154"/>
<text text-anchor="start" x="760.1968" y="-159.2" font-family="Courier,monospace" font-size="11.00" fill="#000000">id(18)</text>
<polygon fill="none" stroke="#99ccff" points="88.5,-137 88.5,-154 734.5,-154 734.5,-137 88.5,-137"/>
<text text-anchor="start" x="91.5" y="-142.2" font-family="Courier,monospace" font-size="11.00" fill="#000000"> &#160;&#160;&#160;&#160;&#160;&#160;&#160;&#160;&#160;&#160;&#160;&#160;&#160;&#160;&#160;&#160;&#160;&#160;&#160;&#160;&#160;&#160;&#160;&#160;&#160;&#160;&#160;&#160;&#160;&#160;&#160;&#160;&#160;&#160;&#160;&#160;&#160;&#160;&#160;&#160;UserId &#160;&#160;&#160;&#160;&#160;&#160;&#160;&#160;&#160;&#160;&#160;&#160;&#160;&#160;&#160;&#160;&#160;&#160;&#160;&#160;&#160;&#160;&#160;&#160;&#160;&#160;&#160;&#160;&#160;&#160;&#160;&#160;&#160;&#160;&#160;&#160;&#160;&#160;</text>
<polygon fill="none" stroke="#99ccff" points="734.5,-137 734.5,-154 825.5,-154 825.5,-137 734.5,-137"/>
<text text-anchor="start" x="737.093" y="-142.2" font-family="Courier,monospace" font-size="11.00" fill="#000000">reference(18)</text>
<polygon fill="none" stroke="#99ccff" points="88.5,-120 88.5,-137 734.5,-137 734.5,-120 88.5,-120"/>
<text text-anchor="start" x="91.5" y="-125.2" font-family="Courier,monospace" font-size="11.00" fill="#000000"> &#160;&#160;&#160;&#160;&#160;&#160;&#160;&#160;&#160;&#160;&#160;&#160;&#160;&#160;&#160;&#160;&#160;&#160;&#160;&#160;&#160;&#160;&#160;&#160;&#160;&#160;&#160;&#160;&#160;&#160;&#160;&#160;&#160;&#160;&#160;&#160;&#160;&#160;&#160;&#160;RecordId &#160;&#160;&#160;&#160;&#160;&#160;&#160;&#160;&#160;&#160;&#160;&#160;&#160;&#160;&#160;&#160;&#160;&#160;&#160;&#160;&#160;&#160;&#160;&#160;&#160;&#160;&#160;&#160;&#160;&#160;&#160;&#160;&#160;&#160;&#160;&#160;&#160;&#160;</text>
<polygon fill="none" stroke="#99ccff" points="734.5,-120 734.5,-137 825.5,-137 825.5,-120 734.5,-120"/>
<text text-anchor="start" x="740.3936" y="-125.2" font-family="Courier,monospace" font-size="11.00" fill="#000000">picklist(40)</text>
<polygon fill="none" stroke="#99ccff" points="88.5,-103 88.5,-120 734.5,-120 734.5,-103 88.5,-103"/>
<text text-anchor="start" x="91.5" y="-108.2" font-family="Courier,monospace" font-size="11.00" fill="#000000"> &#160;&#160;&#160;&#160;&#160;&#160;&#160;&#160;&#160;&#160;&#160;&#160;&#160;&#160;&#160;&#160;&#160;&#160;&#160;&#160;&#160;&#160;&#160;&#160;&#160;&#160;&#160;&#160;&#160;&#160;&#160;&#160;&#160;&#160;&#160;&#160;&#160;&#160;&#160;&#160;HasReadAccess &#160;&#160;&#160;&#160;&#160;&#160;&#160;&#160;&#160;&#160;&#160;&#160;&#160;&#160;&#160;&#160;&#160;&#160;&#160;&#160;&#160;&#160;&#160;&#160;&#160;&#160;&#160;&#160;&#160;&#160;&#160;&#160;&#160;&#160;&#160;&#160;&#160;&#160;</text>
<polygon fill="none" stroke="#99ccff" points="734.5,-103 734.5,-120 825.5,-120 825.5,-103 734.5,-103"/>
<text text-anchor="start" x="756.8962" y="-108.2" font-family="Courier,monospace" font-size="11.00" fill="#000000">boolean</text>
<polygon fill="none" stroke="#99ccff" points="88.5,-86 88.5,-103 734.5,-103 734.5,-86 88.5,-86"/>
<text text-anchor="start" x="91.5" y="-91.2" font-family="Courier,monospace" font-size="11.00" fill="#000000"> &#160;&#160;&#160;&#160;&#160;&#160;&#160;&#160;&#160;&#160;&#160;&#160;&#160;&#160;&#160;&#160;&#160;&#160;&#160;&#160;&#160;&#160;&#160;&#160;&#160;&#160;&#160;&#160;&#160;&#160;&#160;&#160;&#160;&#160;&#160;&#160;&#160;&#160;&#160;&#160;HasEditAccess &#160;&#160;&#160;&#160;&#160;&#160;&#160;&#160;&#160;&#160;&#160;&#160;&#160;&#160;&#160;&#160;&#160;&#160;&#160;&#160;&#160;&#160;&#160;&#160;&#160;&#160;&#160;&#160;&#160;&#160;&#160;&#160;&#160;&#160;&#160;&#160;&#160;&#160;</text>
<polygon fill="none" stroke="#99ccff" points="734.5,-86 734.5,-103 825.5,-103 825.5,-86 734.5,-86"/>
<text text-anchor="start" x="756.8962" y="-91.2" font-family="Courier,monospace" font-size="11.00" fill="#000000">boolean</text>
<polygon fill="none" stroke="#99ccff" points="88.5,-69 88.5,-86 734.5,-86 734.5,-69 88.5,-69"/>
<text text-anchor="start" x="91.5" y="-74.2" font-family="Courier,monospace" font-size="11.00" fill="#000000"> &#160;&#160;&#160;&#160;&#160;&#160;&#160;&#160;&#160;&#160;&#160;&#160;&#160;&#160;&#160;&#160;&#160;&#160;&#160;&#160;&#160;&#160;&#160;&#160;&#160;&#160;&#160;&#160;&#160;&#160;&#160;&#160;&#160;&#160;&#160;&#160;&#160;&#160;&#160;&#160;HasDeleteAccess &#160;&#160;&#160;&#160;&#160;&#160;&#160;&#160;&#160;&#160;&#160;&#160;&#160;&#160;&#160;&#160;&#160;&#160;&#160;&#160;&#160;&#160;&#160;&#160;&#160;&#160;&#160;&#160;&#160;&#160;&#160;&#160;&#160;&#160;&#160;&#160;&#160;&#160;</text>
<polygon fill="none" stroke="#99ccff" points="734.5,-69 734.5,-86 825.5,-86 825.5,-69 734.5,-69"/>
<text text-anchor="start" x="756.8962" y="-74.2" font-family="Courier,monospace" font-size="11.00" fill="#000000">boolean</text>
<polygon fill="none" stroke="#99ccff" points="88.5,-52 88.5,-69 734.5,-69 734.5,-52 88.5,-52"/>
<text text-anchor="start" x="91.3479" y="-57.2" font-family="Courier,monospace" font-size="11.00" fill="#000000"> &#160;&#160;&#160;&#160;&#160;&#160;&#160;&#160;&#160;&#160;&#160;&#160;&#160;&#160;&#160;&#160;&#160;&#160;&#160;&#160;&#160;&#160;&#160;&#160;&#160;&#160;&#160;&#160;&#160;&#160;&#160;&#160;&#160;&#160;&#160;&#160;&#160;&#160;&#160;&#160;HasTransferAccess &#160;&#160;&#160;&#160;&#160;&#160;&#160;&#160;&#160;&#160;&#160;&#160;&#160;&#160;&#160;&#160;&#160;&#160;&#160;&#160;&#160;&#160;&#160;&#160;&#160;&#160;&#160;&#160;&#160;&#160;&#160;&#160;&#160;&#160;&#160;&#160;&#160;&#160;</text>
<polygon fill="none" stroke="#99ccff" points="734.5,-52 734.5,-69 825.5,-69 825.5,-52 734.5,-52"/>
<text text-anchor="start" x="756.8962" y="-57.2" font-family="Courier,monospace" font-size="11.00" fill="#000000">boolean</text>
<polygon fill="none" stroke="#99ccff" points="88.5,-35 88.5,-52 734.5,-52 734.5,-35 88.5,-35"/>
<text text-anchor="start" x="91.5" y="-40.2" font-family="Courier,monospace" font-size="11.00" fill="#000000"> &#160;&#160;&#160;&#160;&#160;&#160;&#160;&#160;&#160;&#160;&#160;&#160;&#160;&#160;&#160;&#160;&#160;&#160;&#160;&#160;&#160;&#160;&#160;&#160;&#160;&#160;&#160;&#160;&#160;&#160;&#160;&#160;&#160;&#160;&#160;&#160;&#160;&#160;&#160;&#160;HasAllAccess &#160;&#160;&#160;&#160;&#160;&#160;&#160;&#160;&#160;&#160;&#160;&#160;&#160;&#160;&#160;&#160;&#160;&#160;&#160;&#160;&#160;&#160;&#160;&#160;&#160;&#160;&#160;&#160;&#160;&#160;&#160;&#160;&#160;&#160;&#160;&#160;&#160;&#160;</text>
<polygon fill="none" stroke="#99ccff" points="734.5,-35 734.5,-52 825.5,-52 825.5,-35 734.5,-35"/>
<text text-anchor="start" x="756.8962" y="-40.2" font-family="Courier,monospace" font-size="11.00" fill="#000000">boolean</text>
<polygon fill="none" stroke="#99ccff" points="88.5,-18 88.5,-35 734.5,-35 734.5,-18 88.5,-18"/>
<text text-anchor="start" x="91.5" y="-23.2" font-family="Courier,monospace" font-size="11.00" fill="#000000"> &#160;&#160;&#160;&#160;&#160;&#160;&#160;&#160;&#160;&#160;&#160;&#160;&#160;&#160;&#160;&#160;&#160;&#160;&#160;&#160;&#160;&#160;&#160;&#160;&#160;&#160;&#160;&#160;&#160;&#160;&#160;&#160;&#160;&#160;&#160;&#160;&#160;&#160;&#160;&#160;MaxAccessLevel &#160;&#160;&#160;&#160;&#160;&#160;&#160;&#160;&#160;&#160;&#160;&#160;&#160;&#160;&#160;&#160;&#160;&#160;&#160;&#160;&#160;&#160;&#160;&#160;&#160;&#160;&#160;&#160;&#160;&#160;&#160;&#160;&#160;&#160;&#160;&#160;&#160;&#160;</text>
<polygon fill="none" stroke="#99ccff" points="734.5,-18 734.5,-35 825.5,-35 825.5,-18 734.5,-18"/>
<text text-anchor="start" x="740.3936" y="-23.2" font-family="Courier,monospace" font-size="11.00" fill="#000000">picklist(40)</text>
<polygon fill="none" stroke="#99ccff" points="87,-17 87,-189 826,-189 826,-17 87,-17"/>
</a>
</g>
</g>
<!-- User -->
<g id="node2" class="node">
<title>User</title>
<text text-anchor="middle" x="27" y="-142.7" font-family="Courier,monospace" font-size="11.00" fill="#000000">User</text>
</g>
<!-- UserRecordAccess&#45;&gt;User -->
<g id="edge1" class="edge">
<title>UserRecordAccess:w&#45;&gt;User:e</title>
<path fill="none" stroke="#ff99cc" d="M73.9098,-146C67.1588,-146 60.4225,-146 54.2475,-146"/>
<polygon fill="#ff99cc" stroke="#ff99cc" points="80.5,-146.0001 88.5,-149.6 84.5,-146 88.5,-146 88.5,-146 88.5,-146 84.5,-146 88.5,-142.4 80.5,-146.0001 80.5,-146.0001"/>
<ellipse fill="none" stroke="#ff99cc" cx="77.3" cy="-146.0001" rx="3.2" ry="3.2"/>
</g>
</g>
</svg>
