<?xml version="1.0" encoding="UTF-8" standalone="no"?>
<!DOCTYPE svg PUBLIC "-//W3C//DTD SVG 1.1//EN"
 "http://www.w3.org/Graphics/SVG/1.1/DTD/svg11.dtd">
<!-- Generated by graphviz version 2.40.1 (20161225.0304)
 -->
<!-- Title: Salesforce+ ERD Pages: 1 -->
<svg width="1018pt" height="300pt"
 viewBox="0.00 0.00 1017.82 300.00" xmlns="http://www.w3.org/2000/svg" xmlns:xlink="http://www.w3.org/1999/xlink">
<g id="graph0" class="graph" transform="scale(1 1) rotate(0) translate(4 296)">
<title>Salesforce+ ERD</title>
<polygon fill="#efeffd" stroke="transparent" points="-4,4 -4,-296 1013.8198,-296 1013.8198,4 -4,4"/>
<text text-anchor="middle" x="961.3132" y="-5.8" font-family="Courier,monospace" font-size="9.00" fill="#000000">Salesforce ERD </text>
<!-- UserRole -->
<g id="node1" class="node">
<title>UserRole</title>
<g id="a_node1"><a xlink:href="#" xlink:title=" UserRole ">
<polygon fill="#ffeeff" stroke="transparent" points="171.8198,-17 171.8198,-274 1009.8198,-274 1009.8198,-17 171.8198,-17"/>
<polygon fill="#add8e6" stroke="transparent" points="172.8198,-255.5 172.8198,-272.5 1008.8198,-272.5 1008.8198,-255.5 172.8198,-255.5"/>
<polygon fill="none" stroke="#99ccff" points="172.8198,-255.5 172.8198,-272.5 1008.8198,-272.5 1008.8198,-255.5 172.8198,-255.5"/>
<text text-anchor="start" x="564.4155" y="-261.7" font-family="Courier,monospace" font-weight="bold" font-size="11.00" fill="#000000">UserRole</text>
<polygon fill="#99ccff" stroke="transparent" points="172.8198,-238.5 172.8198,-255.5 917.8198,-255.5 917.8198,-238.5 172.8198,-238.5"/>
<polygon fill="none" stroke="#99ccff" points="172.8198,-238.5 172.8198,-255.5 917.8198,-255.5 917.8198,-238.5 172.8198,-238.5"/>
<text text-anchor="start" x="175.8198" y="-244.7" font-family="Courier,monospace" font-size="11.00" fill="#000000"> &#160;&#160;&#160;&#160;&#160;&#160;&#160;&#160;&#160;&#160;&#160;&#160;&#160;&#160;&#160;&#160;&#160;&#160;&#160;&#160;&#160;&#160;&#160;&#160;&#160;&#160;&#160;&#160;&#160;&#160;&#160;&#160;&#160;&#160;&#160;&#160;&#160;&#160;&#160;&#160;&#160;&#160;</text>
<text text-anchor="start" x="459.666" y="-244.7" font-family="Courier,monospace" font-weight="bold" font-size="11.00" fill="#000000">Id</text>
<text text-anchor="start" x="472.8682" y="-244.7" font-family="Courier,monospace" font-size="11.00" fill="#000000"> &#160;&#160;&#160;&#160;&#160;&#160;&#160;&#160;&#160;&#160;&#160;&#160;&#160;&#160;&#160;&#160;&#160;&#160;&#160;&#160;&#160;&#160;&#160;&#160;&#160;&#160;&#160;&#160;&#160;&#160;&#160;&#160;&#160;&#160;&#160;&#160;&#160;&#160;&#160;</text>
<polygon fill="none" stroke="#99ccff" points="917.8198,-238.5 917.8198,-255.5 1008.8198,-255.5 1008.8198,-238.5 917.8198,-238.5"/>
<text text-anchor="start" x="943.5166" y="-243.7" font-family="Courier,monospace" font-size="11.00" fill="#000000">id(18)</text>
<polygon fill="none" stroke="#99ccff" points="172.8198,-221.5 172.8198,-238.5 917.8198,-238.5 917.8198,-221.5 172.8198,-221.5"/>
<text text-anchor="start" x="175.8198" y="-226.7" font-family="Courier,monospace" font-size="11.00" fill="#000000"> &#160;&#160;&#160;&#160;&#160;&#160;&#160;&#160;&#160;&#160;&#160;&#160;&#160;&#160;&#160;&#160;&#160;&#160;&#160;&#160;&#160;&#160;&#160;&#160;&#160;&#160;&#160;&#160;&#160;&#160;&#160;&#160;&#160;&#160;&#160;&#160;&#160;&#160;&#160;&#160;Name &#160;&#160;&#160;&#160;&#160;&#160;&#160;&#160;&#160;&#160;&#160;&#160;&#160;&#160;&#160;&#160;&#160;&#160;&#160;&#160;&#160;&#160;&#160;&#160;&#160;&#160;&#160;&#160;&#160;&#160;&#160;&#160;&#160;&#160;&#160;&#160;&#160;&#160;</text>
<polygon fill="none" stroke="#99ccff" points="917.8198,-221.5 917.8198,-238.5 1008.8198,-238.5 1008.8198,-221.5 917.8198,-221.5"/>
<text text-anchor="start" x="930.3145" y="-226.7" font-family="Courier,monospace" font-size="11.00" fill="#000000">string(80)</text>
<polygon fill="none" stroke="#99ccff" points="172.8198,-204.5 172.8198,-221.5 917.8198,-221.5 917.8198,-204.5 172.8198,-204.5"/>
<text text-anchor="start" x="175.8198" y="-209.7" font-family="Courier,monospace" font-size="11.00" fill="#000000"> &#160;&#160;&#160;&#160;&#160;&#160;&#160;&#160;&#160;&#160;&#160;&#160;&#160;&#160;&#160;&#160;&#160;&#160;&#160;&#160;&#160;&#160;&#160;&#160;&#160;&#160;&#160;&#160;&#160;&#160;&#160;&#160;&#160;&#160;&#160;&#160;&#160;&#160;&#160;&#160;ParentRoleId &#160;&#160;&#160;&#160;&#160;&#160;&#160;&#160;&#160;&#160;&#160;&#160;&#160;&#160;&#160;&#160;&#160;&#160;&#160;&#160;&#160;&#160;&#160;&#160;&#160;&#160;&#160;&#160;&#160;&#160;&#160;&#160;&#160;&#160;&#160;&#160;&#160;&#160;</text>
<polygon fill="none" stroke="#99ccff" points="917.8198,-204.5 917.8198,-221.5 1008.8198,-221.5 1008.8198,-204.5 917.8198,-204.5"/>
<text text-anchor="start" x="920.4128" y="-209.7" font-family="Courier,monospace" font-size="11.00" fill="#000000">reference(18)</text>
<polygon fill="none" stroke="#99ccff" points="172.8198,-187.5 172.8198,-204.5 917.8198,-204.5 917.8198,-187.5 172.8198,-187.5"/>
<text text-anchor="start" x="175.8198" y="-192.7" font-family="Courier,monospace" font-size="11.00" fill="#000000"> &#160;&#160;&#160;&#160;&#160;&#160;&#160;&#160;&#160;&#160;&#160;&#160;&#160;&#160;&#160;&#160;&#160;&#160;&#160;&#160;&#160;&#160;&#160;&#160;&#160;&#160;&#160;&#160;&#160;&#160;&#160;&#160;&#160;&#160;&#160;&#160;&#160;&#160;&#160;&#160;RollupDescription &#160;&#160;&#160;&#160;&#160;&#160;&#160;&#160;&#160;&#160;&#160;&#160;&#160;&#160;&#160;&#160;&#160;&#160;&#160;&#160;&#160;&#160;&#160;&#160;&#160;&#160;&#160;&#160;&#160;&#160;&#160;&#160;&#160;&#160;&#160;&#160;&#160;&#160;</text>
<polygon fill="none" stroke="#99ccff" points="917.8198,-187.5 917.8198,-204.5 1008.8198,-204.5 1008.8198,-187.5 917.8198,-187.5"/>
<text text-anchor="start" x="930.3145" y="-192.7" font-family="Courier,monospace" font-size="11.00" fill="#000000">string(80)</text>
<polygon fill="none" stroke="#99ccff" points="172.8198,-170.5 172.8198,-187.5 917.8198,-187.5 917.8198,-170.5 172.8198,-170.5"/>
<text text-anchor="start" x="175.6597" y="-175.7" font-family="Courier,monospace" font-size="11.00" fill="#000000"> &#160;&#160;&#160;&#160;&#160;&#160;&#160;&#160;&#160;&#160;&#160;&#160;&#160;&#160;&#160;&#160;&#160;&#160;&#160;&#160;&#160;&#160;&#160;&#160;&#160;&#160;&#160;&#160;&#160;&#160;&#160;&#160;&#160;&#160;&#160;&#160;&#160;&#160;&#160;&#160;OpportunityAccessForAccountOwner &#160;&#160;&#160;&#160;&#160;&#160;&#160;&#160;&#160;&#160;&#160;&#160;&#160;&#160;&#160;&#160;&#160;&#160;&#160;&#160;&#160;&#160;&#160;&#160;&#160;&#160;&#160;&#160;&#160;&#160;&#160;&#160;&#160;&#160;&#160;&#160;&#160;&#160;</text>
<polygon fill="none" stroke="#99ccff" points="917.8198,-170.5 917.8198,-187.5 1008.8198,-187.5 1008.8198,-170.5 917.8198,-170.5"/>
<text text-anchor="start" x="923.7134" y="-175.7" font-family="Courier,monospace" font-size="11.00" fill="#000000">picklist(40)</text>
<polygon fill="none" stroke="#99ccff" points="172.8198,-153.5 172.8198,-170.5 917.8198,-170.5 917.8198,-153.5 172.8198,-153.5"/>
<text text-anchor="start" x="175.8198" y="-158.7" font-family="Courier,monospace" font-size="11.00" fill="#000000"> &#160;&#160;&#160;&#160;&#160;&#160;&#160;&#160;&#160;&#160;&#160;&#160;&#160;&#160;&#160;&#160;&#160;&#160;&#160;&#160;&#160;&#160;&#160;&#160;&#160;&#160;&#160;&#160;&#160;&#160;&#160;&#160;&#160;&#160;&#160;&#160;&#160;&#160;&#160;&#160;CaseAccessForAccountOwner &#160;&#160;&#160;&#160;&#160;&#160;&#160;&#160;&#160;&#160;&#160;&#160;&#160;&#160;&#160;&#160;&#160;&#160;&#160;&#160;&#160;&#160;&#160;&#160;&#160;&#160;&#160;&#160;&#160;&#160;&#160;&#160;&#160;&#160;&#160;&#160;&#160;&#160;</text>
<polygon fill="none" stroke="#99ccff" points="917.8198,-153.5 917.8198,-170.5 1008.8198,-170.5 1008.8198,-153.5 917.8198,-153.5"/>
<text text-anchor="start" x="923.7134" y="-158.7" font-family="Courier,monospace" font-size="11.00" fill="#000000">picklist(40)</text>
<polygon fill="none" stroke="#99ccff" points="172.8198,-136.5 172.8198,-153.5 917.8198,-153.5 917.8198,-136.5 172.8198,-136.5"/>
<text text-anchor="start" x="175.8198" y="-141.7" font-family="Courier,monospace" font-size="11.00" fill="#000000"> &#160;&#160;&#160;&#160;&#160;&#160;&#160;&#160;&#160;&#160;&#160;&#160;&#160;&#160;&#160;&#160;&#160;&#160;&#160;&#160;&#160;&#160;&#160;&#160;&#160;&#160;&#160;&#160;&#160;&#160;&#160;&#160;&#160;&#160;&#160;&#160;&#160;&#160;&#160;&#160;ContactAccessForAccountOwner &#160;&#160;&#160;&#160;&#160;&#160;&#160;&#160;&#160;&#160;&#160;&#160;&#160;&#160;&#160;&#160;&#160;&#160;&#160;&#160;&#160;&#160;&#160;&#160;&#160;&#160;&#160;&#160;&#160;&#160;&#160;&#160;&#160;&#160;&#160;&#160;&#160;&#160;</text>
<polygon fill="none" stroke="#99ccff" points="917.8198,-136.5 917.8198,-153.5 1008.8198,-153.5 1008.8198,-136.5 917.8198,-136.5"/>
<text text-anchor="start" x="923.7134" y="-141.7" font-family="Courier,monospace" font-size="11.00" fill="#000000">picklist(40)</text>
<polygon fill="none" stroke="#99ccff" points="172.8198,-119.5 172.8198,-136.5 917.8198,-136.5 917.8198,-119.5 172.8198,-119.5"/>
<text text-anchor="start" x="175.8198" y="-124.7" font-family="Courier,monospace" font-size="11.00" fill="#000000"> &#160;&#160;&#160;&#160;&#160;&#160;&#160;&#160;&#160;&#160;&#160;&#160;&#160;&#160;&#160;&#160;&#160;&#160;&#160;&#160;&#160;&#160;&#160;&#160;&#160;&#160;&#160;&#160;&#160;&#160;&#160;&#160;&#160;&#160;&#160;&#160;&#160;&#160;&#160;&#160;ForecastUserId &#160;&#160;&#160;&#160;&#160;&#160;&#160;&#160;&#160;&#160;&#160;&#160;&#160;&#160;&#160;&#160;&#160;&#160;&#160;&#160;&#160;&#160;&#160;&#160;&#160;&#160;&#160;&#160;&#160;&#160;&#160;&#160;&#160;&#160;&#160;&#160;&#160;&#160;</text>
<polygon fill="none" stroke="#99ccff" points="917.8198,-119.5 917.8198,-136.5 1008.8198,-136.5 1008.8198,-119.5 917.8198,-119.5"/>
<text text-anchor="start" x="920.4128" y="-124.7" font-family="Courier,monospace" font-size="11.00" fill="#000000">reference(18)</text>
<polygon fill="none" stroke="#99ccff" points="172.8198,-102.5 172.8198,-119.5 917.8198,-119.5 917.8198,-102.5 172.8198,-102.5"/>
<text text-anchor="start" x="175.8198" y="-107.7" font-family="Courier,monospace" font-size="11.00" fill="#000000"> &#160;&#160;&#160;&#160;&#160;&#160;&#160;&#160;&#160;&#160;&#160;&#160;&#160;&#160;&#160;&#160;&#160;&#160;&#160;&#160;&#160;&#160;&#160;&#160;&#160;&#160;&#160;&#160;&#160;&#160;&#160;&#160;&#160;&#160;&#160;&#160;&#160;&#160;&#160;&#160;MayForecastManagerShare &#160;&#160;&#160;&#160;&#160;&#160;&#160;&#160;&#160;&#160;&#160;&#160;&#160;&#160;&#160;&#160;&#160;&#160;&#160;&#160;&#160;&#160;&#160;&#160;&#160;&#160;&#160;&#160;&#160;&#160;&#160;&#160;&#160;&#160;&#160;&#160;&#160;&#160;</text>
<polygon fill="none" stroke="#99ccff" points="917.8198,-102.5 917.8198,-119.5 1008.8198,-119.5 1008.8198,-102.5 917.8198,-102.5"/>
<text text-anchor="start" x="940.2161" y="-107.7" font-family="Courier,monospace" font-size="11.00" fill="#000000">boolean</text>
<polygon fill="none" stroke="#99ccff" points="172.8198,-85.5 172.8198,-102.5 917.8198,-102.5 917.8198,-85.5 172.8198,-85.5"/>
<text text-anchor="start" x="175.8198" y="-90.7" font-family="Courier,monospace" font-size="11.00" fill="#000000"> &#160;&#160;&#160;&#160;&#160;&#160;&#160;&#160;&#160;&#160;&#160;&#160;&#160;&#160;&#160;&#160;&#160;&#160;&#160;&#160;&#160;&#160;&#160;&#160;&#160;&#160;&#160;&#160;&#160;&#160;&#160;&#160;&#160;&#160;&#160;&#160;&#160;&#160;&#160;&#160;LastModifiedById &#160;&#160;&#160;&#160;&#160;&#160;&#160;&#160;&#160;&#160;&#160;&#160;&#160;&#160;&#160;&#160;&#160;&#160;&#160;&#160;&#160;&#160;&#160;&#160;&#160;&#160;&#160;&#160;&#160;&#160;&#160;&#160;&#160;&#160;&#160;&#160;&#160;&#160;</text>
<polygon fill="none" stroke="#99ccff" points="917.8198,-85.5 917.8198,-102.5 1008.8198,-102.5 1008.8198,-85.5 917.8198,-85.5"/>
<text text-anchor="start" x="920.4128" y="-90.7" font-family="Courier,monospace" font-size="11.00" fill="#000000">reference(18)</text>
<polygon fill="none" stroke="#99ccff" points="172.8198,-68.5 172.8198,-85.5 917.8198,-85.5 917.8198,-68.5 172.8198,-68.5"/>
<text text-anchor="start" x="175.8198" y="-73.7" font-family="Courier,monospace" font-size="11.00" fill="#000000"> &#160;&#160;&#160;&#160;&#160;&#160;&#160;&#160;&#160;&#160;&#160;&#160;&#160;&#160;&#160;&#160;&#160;&#160;&#160;&#160;&#160;&#160;&#160;&#160;&#160;&#160;&#160;&#160;&#160;&#160;&#160;&#160;&#160;&#160;&#160;&#160;&#160;&#160;&#160;&#160;DeveloperName &#160;&#160;&#160;&#160;&#160;&#160;&#160;&#160;&#160;&#160;&#160;&#160;&#160;&#160;&#160;&#160;&#160;&#160;&#160;&#160;&#160;&#160;&#160;&#160;&#160;&#160;&#160;&#160;&#160;&#160;&#160;&#160;&#160;&#160;&#160;&#160;&#160;&#160;</text>
<polygon fill="none" stroke="#99ccff" points="917.8198,-68.5 917.8198,-85.5 1008.8198,-85.5 1008.8198,-68.5 917.8198,-68.5"/>
<text text-anchor="start" x="930.3145" y="-73.7" font-family="Courier,monospace" font-size="11.00" fill="#000000">string(80)</text>
<polygon fill="none" stroke="#99ccff" points="172.8198,-51.5 172.8198,-68.5 917.8198,-68.5 917.8198,-51.5 172.8198,-51.5"/>
<text text-anchor="start" x="175.8198" y="-56.7" font-family="Courier,monospace" font-size="11.00" fill="#000000"> &#160;&#160;&#160;&#160;&#160;&#160;&#160;&#160;&#160;&#160;&#160;&#160;&#160;&#160;&#160;&#160;&#160;&#160;&#160;&#160;&#160;&#160;&#160;&#160;&#160;&#160;&#160;&#160;&#160;&#160;&#160;&#160;&#160;&#160;&#160;&#160;&#160;&#160;&#160;&#160;PortalAccountId &#160;&#160;&#160;&#160;&#160;&#160;&#160;&#160;&#160;&#160;&#160;&#160;&#160;&#160;&#160;&#160;&#160;&#160;&#160;&#160;&#160;&#160;&#160;&#160;&#160;&#160;&#160;&#160;&#160;&#160;&#160;&#160;&#160;&#160;&#160;&#160;&#160;&#160;</text>
<polygon fill="none" stroke="#99ccff" points="917.8198,-51.5 917.8198,-68.5 1008.8198,-68.5 1008.8198,-51.5 917.8198,-51.5"/>
<text text-anchor="start" x="920.4128" y="-56.7" font-family="Courier,monospace" font-size="11.00" fill="#000000">reference(18)</text>
<polygon fill="none" stroke="#99ccff" points="172.8198,-34.5 172.8198,-51.5 917.8198,-51.5 917.8198,-34.5 172.8198,-34.5"/>
<text text-anchor="start" x="175.8198" y="-39.7" font-family="Courier,monospace" font-size="11.00" fill="#000000"> &#160;&#160;&#160;&#160;&#160;&#160;&#160;&#160;&#160;&#160;&#160;&#160;&#160;&#160;&#160;&#160;&#160;&#160;&#160;&#160;&#160;&#160;&#160;&#160;&#160;&#160;&#160;&#160;&#160;&#160;&#160;&#160;&#160;&#160;&#160;&#160;&#160;&#160;&#160;&#160;PortalType &#160;&#160;&#160;&#160;&#160;&#160;&#160;&#160;&#160;&#160;&#160;&#160;&#160;&#160;&#160;&#160;&#160;&#160;&#160;&#160;&#160;&#160;&#160;&#160;&#160;&#160;&#160;&#160;&#160;&#160;&#160;&#160;&#160;&#160;&#160;&#160;&#160;&#160;</text>
<polygon fill="none" stroke="#99ccff" points="917.8198,-34.5 917.8198,-51.5 1008.8198,-51.5 1008.8198,-34.5 917.8198,-34.5"/>
<text text-anchor="start" x="923.7134" y="-39.7" font-family="Courier,monospace" font-size="11.00" fill="#000000">picklist(40)</text>
<polygon fill="none" stroke="#99ccff" points="172.8198,-17.5 172.8198,-34.5 917.8198,-34.5 917.8198,-17.5 172.8198,-17.5"/>
<text text-anchor="start" x="175.8198" y="-22.7" font-family="Courier,monospace" font-size="11.00" fill="#000000"> &#160;&#160;&#160;&#160;&#160;&#160;&#160;&#160;&#160;&#160;&#160;&#160;&#160;&#160;&#160;&#160;&#160;&#160;&#160;&#160;&#160;&#160;&#160;&#160;&#160;&#160;&#160;&#160;&#160;&#160;&#160;&#160;&#160;&#160;&#160;&#160;&#160;&#160;&#160;&#160;PortalAccountOwnerId &#160;&#160;&#160;&#160;&#160;&#160;&#160;&#160;&#160;&#160;&#160;&#160;&#160;&#160;&#160;&#160;&#160;&#160;&#160;&#160;&#160;&#160;&#160;&#160;&#160;&#160;&#160;&#160;&#160;&#160;&#160;&#160;&#160;&#160;&#160;&#160;&#160;&#160;</text>
<polygon fill="none" stroke="#99ccff" points="917.8198,-17.5 917.8198,-34.5 1008.8198,-34.5 1008.8198,-17.5 917.8198,-17.5"/>
<text text-anchor="start" x="920.4128" y="-22.7" font-family="Courier,monospace" font-size="11.00" fill="#000000">reference(18)</text>
<polygon fill="none" stroke="#99ccff" points="171.8198,-17 171.8198,-274 1009.8198,-274 1009.8198,-17 171.8198,-17"/>
</a>
</g>
</g>
<!-- UserRole&#45;&gt;UserRole -->
<g id="edge1" class="edge">
<title>UserRole:w&#45;&gt;UserRole:e</title>
<path fill="none" stroke="#3e7ab7" d="M159.2374,-219.065C55.6062,-262.7332 74.459,-287 545.3198,-287 1035.8198,-287 1035.8198,-278.3333 917.8198,-247.5"/>
<polygon fill="#3e7ab7" stroke="#3e7ab7" points="165.4171,-216.5331 174.1847,-216.8312 169.1185,-215.0165 172.8198,-213.5 172.8198,-213.5 172.8198,-213.5 169.1185,-215.0165 171.4549,-210.1688 165.4171,-216.5331 165.4171,-216.5331"/>
<ellipse fill="none" stroke="#3e7ab7" cx="162.456" cy="-217.7463" rx="3.2" ry="3.2"/>
</g>
<!-- User -->
<g id="node2" class="node">
<title>User</title>
<text text-anchor="middle" x="31.1038" y="-101.2" font-family="Courier,monospace" font-size="11.00" fill="#000000">User</text>
</g>
<!-- UserRole&#45;&gt;User -->
<g id="edge2" class="edge">
<title>UserRole:w&#45;&gt;User:e</title>
<path fill="none" stroke="#ff99cc" d="M157.9903,-127.1178C121.7137,-125.3182 83.2638,-117.528 58.3238,-111.5884"/>
<polygon fill="#ff99cc" stroke="#ff99cc" points="164.8225,-127.2938 172.7271,-131.0988 168.8212,-127.3969 172.8198,-127.5 172.8198,-127.5 172.8198,-127.5 168.8212,-127.3969 172.9126,-123.9012 164.8225,-127.2938 164.8225,-127.2938"/>
<ellipse fill="none" stroke="#ff99cc" cx="161.6235" cy="-127.2114" rx="3.2" ry="3.2"/>
</g>
<!-- UserRole&#45;&gt;User -->
<g id="edge3" class="edge">
<title>UserRole:w&#45;&gt;User:e</title>
<path fill="none" stroke="#ff99cc" d="M158.0683,-93.6839C121.9286,-94.5497 83.2612,-98.2967 58.2232,-101.1399"/>
<polygon fill="#ff99cc" stroke="#ff99cc" points="164.8204,-93.5998 172.8647,-97.0997 168.8201,-93.5499 172.8198,-93.5 172.8198,-93.5 172.8198,-93.5 168.8201,-93.5499 172.7749,-89.9003 164.8204,-93.5998 164.8204,-93.5998"/>
<ellipse fill="none" stroke="#ff99cc" cx="161.6207" cy="-93.6397" rx="3.2" ry="3.2"/>
<text text-anchor="middle" x="117.0137" y="-103.3015" font-family="Monaco" font-size="9.00" fill="#000000">LastModifiedBy</text>
</g>
<!-- UserRole&#45;&gt;User -->
<g id="edge5" class="edge">
<title>UserRole:w&#45;&gt;User:e</title>
<path fill="none" stroke="#ff99cc" d="M158.5661,-28.1769C130.0256,-37.1635 84.6364,-66.7877 56.4243,-86.3758"/>
<polygon fill="#ff99cc" stroke="#ff99cc" points="164.9573,-26.9767 173.4843,-29.0381 168.8886,-26.2383 172.8198,-25.5 172.8198,-25.5 172.8198,-25.5 168.8886,-26.2383 172.1553,-21.9619 164.9573,-26.9767 164.9573,-26.9767"/>
<ellipse fill="none" stroke="#ff99cc" cx="161.8123" cy="-27.5673" rx="3.2" ry="3.2"/>
</g>
<!-- Account -->
<g id="node3" class="node">
<title>Account</title>
<text text-anchor="middle" x="31.1038" y="-52.2" font-family="Courier,monospace" font-size="11.00" fill="#000000">Account</text>
</g>
<!-- UserRole&#45;&gt;Account -->
<g id="edge4" class="edge">
<title>UserRole:w&#45;&gt;Account:e</title>
<path fill="none" stroke="#ff99cc" d="M158.332,-59.4351C124.0911,-59.1405 87.459,-57.8987 62.3377,-56.8878"/>
<polygon fill="#ff99cc" stroke="#ff99cc" points="164.8199,-59.4641 172.8037,-63.1 168.8199,-59.4821 172.8198,-59.5 172.8198,-59.5 172.8198,-59.5 168.8199,-59.4821 172.836,-55.9 164.8199,-59.4641 164.8199,-59.4641"/>
<ellipse fill="none" stroke="#ff99cc" cx="161.6199" cy="-59.4498" rx="3.2" ry="3.2"/>
</g>
</g>
</svg>
