<?xml version="1.0" encoding="UTF-8" standalone="no"?>
<!DOCTYPE svg PUBLIC "-//W3C//DTD SVG 1.1//EN"
 "http://www.w3.org/Graphics/SVG/1.1/DTD/svg11.dtd">
<!-- Generated by graphviz version 2.40.1 (20161225.0304)
 -->
<!-- Title: Salesforce+ ERD Pages: 1 -->
<svg width="780pt" height="180pt"
 viewBox="0.00 0.00 780.00 180.00" xmlns="http://www.w3.org/2000/svg" xmlns:xlink="http://www.w3.org/1999/xlink">
<g id="graph0" class="graph" transform="scale(1 1) rotate(0) translate(4 176)">
<title>Salesforce+ ERD</title>
<polygon fill="#efeffd" stroke="transparent" points="-4,4 -4,-176 776,-176 776,4 -4,4"/>
<text text-anchor="middle" x="723.4934" y="-5.8" font-family="Courier,monospace" font-size="9.00" fill="#000000">Salesforce ERD </text>
<!-- UserLicense -->
<g id="node1" class="node">
<title>UserLicense</title>
<g id="a_node1"><a xlink:href="#" xlink:title=" UserLicense ">
<polygon fill="#ffeeff" stroke="transparent" points="0,-17 0,-172 772,-172 772,-17 0,-17"/>
<polygon fill="#add8e6" stroke="transparent" points="1,-153.5 1,-170.5 771,-170.5 771,-153.5 1,-153.5"/>
<polygon fill="none" stroke="#99ccff" points="1,-153.5 1,-170.5 771,-170.5 771,-153.5 1,-153.5"/>
<text text-anchor="start" x="349.6941" y="-159.7" font-family="Courier,monospace" font-weight="bold" font-size="11.00" fill="#000000">UserLicense</text>
<polygon fill="#99ccff" stroke="transparent" points="1,-136.5 1,-153.5 686,-153.5 686,-136.5 1,-136.5"/>
<polygon fill="none" stroke="#99ccff" points="1,-136.5 1,-153.5 686,-153.5 686,-136.5 1,-136.5"/>
<text text-anchor="start" x="4" y="-142.7" font-family="Courier,monospace" font-size="11.00" fill="#000000"> &#160;&#160;&#160;&#160;&#160;&#160;&#160;&#160;&#160;&#160;&#160;&#160;&#160;&#160;&#160;&#160;&#160;&#160;&#160;&#160;&#160;&#160;&#160;&#160;&#160;&#160;&#160;&#160;&#160;&#160;&#160;&#160;&#160;&#160;&#160;&#160;&#160;&#160;&#160;&#160;&#160;&#160;</text>
<text text-anchor="start" x="287.8462" y="-142.7" font-family="Courier,monospace" font-weight="bold" font-size="11.00" fill="#000000">Id</text>
<text text-anchor="start" x="301.0483" y="-142.7" font-family="Courier,monospace" font-size="11.00" fill="#000000"> &#160;&#160;&#160;&#160;&#160;&#160;&#160;&#160;&#160;&#160;&#160;&#160;&#160;&#160;&#160;&#160;&#160;&#160;&#160;&#160;&#160;&#160;&#160;&#160;&#160;&#160;&#160;&#160;&#160;&#160;&#160;&#160;&#160;&#160;&#160;&#160;&#160;&#160;&#160;</text>
<polygon fill="none" stroke="#99ccff" points="686,-136.5 686,-153.5 771,-153.5 771,-136.5 686,-136.5"/>
<text text-anchor="start" x="708.6968" y="-141.7" font-family="Courier,monospace" font-size="11.00" fill="#000000">id(18)</text>
<polygon fill="none" stroke="#99ccff" points="1,-119.5 1,-136.5 686,-136.5 686,-119.5 1,-119.5"/>
<text text-anchor="start" x="4" y="-124.7" font-family="Courier,monospace" font-size="11.00" fill="#000000"> &#160;&#160;&#160;&#160;&#160;&#160;&#160;&#160;&#160;&#160;&#160;&#160;&#160;&#160;&#160;&#160;&#160;&#160;&#160;&#160;&#160;&#160;&#160;&#160;&#160;&#160;&#160;&#160;&#160;&#160;&#160;&#160;&#160;&#160;&#160;&#160;&#160;&#160;&#160;&#160;LicenseDefinitionKey &#160;&#160;&#160;&#160;&#160;&#160;&#160;&#160;&#160;&#160;&#160;&#160;&#160;&#160;&#160;&#160;&#160;&#160;&#160;&#160;&#160;&#160;&#160;&#160;&#160;&#160;&#160;&#160;&#160;&#160;&#160;&#160;&#160;&#160;&#160;&#160;&#160;&#160;</text>
<polygon fill="none" stroke="#99ccff" points="686,-119.5 686,-136.5 771,-136.5 771,-119.5 686,-119.5"/>
<text text-anchor="start" x="695.4946" y="-124.7" font-family="Courier,monospace" font-size="11.00" fill="#000000">string(40)</text>
<polygon fill="none" stroke="#99ccff" points="1,-102.5 1,-119.5 686,-119.5 686,-102.5 1,-102.5"/>
<text text-anchor="start" x="4" y="-107.7" font-family="Courier,monospace" font-size="11.00" fill="#000000"> &#160;&#160;&#160;&#160;&#160;&#160;&#160;&#160;&#160;&#160;&#160;&#160;&#160;&#160;&#160;&#160;&#160;&#160;&#160;&#160;&#160;&#160;&#160;&#160;&#160;&#160;&#160;&#160;&#160;&#160;&#160;&#160;&#160;&#160;&#160;&#160;&#160;&#160;&#160;&#160;TotalLicenses &#160;&#160;&#160;&#160;&#160;&#160;&#160;&#160;&#160;&#160;&#160;&#160;&#160;&#160;&#160;&#160;&#160;&#160;&#160;&#160;&#160;&#160;&#160;&#160;&#160;&#160;&#160;&#160;&#160;&#160;&#160;&#160;&#160;&#160;&#160;&#160;&#160;&#160;</text>
<polygon fill="none" stroke="#99ccff" points="686,-102.5 686,-119.5 771,-119.5 771,-102.5 686,-102.5"/>
<text text-anchor="start" x="718.5984" y="-107.7" font-family="Courier,monospace" font-size="11.00" fill="#000000">int</text>
<polygon fill="none" stroke="#99ccff" points="1,-85.5 1,-102.5 686,-102.5 686,-85.5 1,-85.5"/>
<text text-anchor="start" x="4" y="-90.7" font-family="Courier,monospace" font-size="11.00" fill="#000000"> &#160;&#160;&#160;&#160;&#160;&#160;&#160;&#160;&#160;&#160;&#160;&#160;&#160;&#160;&#160;&#160;&#160;&#160;&#160;&#160;&#160;&#160;&#160;&#160;&#160;&#160;&#160;&#160;&#160;&#160;&#160;&#160;&#160;&#160;&#160;&#160;&#160;&#160;&#160;&#160;Status &#160;&#160;&#160;&#160;&#160;&#160;&#160;&#160;&#160;&#160;&#160;&#160;&#160;&#160;&#160;&#160;&#160;&#160;&#160;&#160;&#160;&#160;&#160;&#160;&#160;&#160;&#160;&#160;&#160;&#160;&#160;&#160;&#160;&#160;&#160;&#160;&#160;&#160;</text>
<polygon fill="none" stroke="#99ccff" points="686,-85.5 686,-102.5 771,-102.5 771,-85.5 686,-85.5"/>
<text text-anchor="start" x="688.8936" y="-90.7" font-family="Courier,monospace" font-size="11.00" fill="#000000">picklist(40)</text>
<polygon fill="none" stroke="#99ccff" points="1,-68.5 1,-85.5 686,-85.5 686,-68.5 1,-68.5"/>
<text text-anchor="start" x="4" y="-73.7" font-family="Courier,monospace" font-size="11.00" fill="#000000"> &#160;&#160;&#160;&#160;&#160;&#160;&#160;&#160;&#160;&#160;&#160;&#160;&#160;&#160;&#160;&#160;&#160;&#160;&#160;&#160;&#160;&#160;&#160;&#160;&#160;&#160;&#160;&#160;&#160;&#160;&#160;&#160;&#160;&#160;&#160;&#160;&#160;&#160;&#160;&#160;UsedLicenses &#160;&#160;&#160;&#160;&#160;&#160;&#160;&#160;&#160;&#160;&#160;&#160;&#160;&#160;&#160;&#160;&#160;&#160;&#160;&#160;&#160;&#160;&#160;&#160;&#160;&#160;&#160;&#160;&#160;&#160;&#160;&#160;&#160;&#160;&#160;&#160;&#160;&#160;</text>
<polygon fill="none" stroke="#99ccff" points="686,-68.5 686,-85.5 771,-85.5 771,-68.5 686,-68.5"/>
<text text-anchor="start" x="718.5984" y="-73.7" font-family="Courier,monospace" font-size="11.00" fill="#000000">int</text>
<polygon fill="none" stroke="#99ccff" points="1,-51.5 1,-68.5 686,-68.5 686,-51.5 1,-51.5"/>
<text text-anchor="start" x="3.5447" y="-56.7" font-family="Courier,monospace" font-size="11.00" fill="#000000"> &#160;&#160;&#160;&#160;&#160;&#160;&#160;&#160;&#160;&#160;&#160;&#160;&#160;&#160;&#160;&#160;&#160;&#160;&#160;&#160;&#160;&#160;&#160;&#160;&#160;&#160;&#160;&#160;&#160;&#160;&#160;&#160;&#160;&#160;&#160;&#160;&#160;&#160;&#160;&#160;UsedLicensesLastUpdated &#160;&#160;&#160;&#160;&#160;&#160;&#160;&#160;&#160;&#160;&#160;&#160;&#160;&#160;&#160;&#160;&#160;&#160;&#160;&#160;&#160;&#160;&#160;&#160;&#160;&#160;&#160;&#160;&#160;&#160;&#160;&#160;&#160;&#160;&#160;&#160;&#160;&#160;</text>
<polygon fill="none" stroke="#99ccff" points="686,-51.5 686,-68.5 771,-68.5 771,-51.5 686,-51.5"/>
<text text-anchor="start" x="702.0957" y="-56.7" font-family="Courier,monospace" font-size="11.00" fill="#000000">datetime</text>
<polygon fill="none" stroke="#99ccff" points="1,-34.5 1,-51.5 686,-51.5 686,-34.5 1,-34.5"/>
<text text-anchor="start" x="4" y="-39.7" font-family="Courier,monospace" font-size="11.00" fill="#000000"> &#160;&#160;&#160;&#160;&#160;&#160;&#160;&#160;&#160;&#160;&#160;&#160;&#160;&#160;&#160;&#160;&#160;&#160;&#160;&#160;&#160;&#160;&#160;&#160;&#160;&#160;&#160;&#160;&#160;&#160;&#160;&#160;&#160;&#160;&#160;&#160;&#160;&#160;&#160;&#160;Name &#160;&#160;&#160;&#160;&#160;&#160;&#160;&#160;&#160;&#160;&#160;&#160;&#160;&#160;&#160;&#160;&#160;&#160;&#160;&#160;&#160;&#160;&#160;&#160;&#160;&#160;&#160;&#160;&#160;&#160;&#160;&#160;&#160;&#160;&#160;&#160;&#160;&#160;</text>
<polygon fill="none" stroke="#99ccff" points="686,-34.5 686,-51.5 771,-51.5 771,-34.5 686,-34.5"/>
<text text-anchor="start" x="695.4946" y="-39.7" font-family="Courier,monospace" font-size="11.00" fill="#000000">string(40)</text>
<polygon fill="none" stroke="#99ccff" points="1,-17.5 1,-34.5 686,-34.5 686,-17.5 1,-17.5"/>
<text text-anchor="start" x="4" y="-22.7" font-family="Courier,monospace" font-size="11.00" fill="#000000"> &#160;&#160;&#160;&#160;&#160;&#160;&#160;&#160;&#160;&#160;&#160;&#160;&#160;&#160;&#160;&#160;&#160;&#160;&#160;&#160;&#160;&#160;&#160;&#160;&#160;&#160;&#160;&#160;&#160;&#160;&#160;&#160;&#160;&#160;&#160;&#160;&#160;&#160;&#160;&#160;MasterLabel &#160;&#160;&#160;&#160;&#160;&#160;&#160;&#160;&#160;&#160;&#160;&#160;&#160;&#160;&#160;&#160;&#160;&#160;&#160;&#160;&#160;&#160;&#160;&#160;&#160;&#160;&#160;&#160;&#160;&#160;&#160;&#160;&#160;&#160;&#160;&#160;&#160;&#160;</text>
<polygon fill="none" stroke="#99ccff" points="686,-17.5 686,-34.5 771,-34.5 771,-17.5 686,-17.5"/>
<text text-anchor="start" x="695.4946" y="-22.7" font-family="Courier,monospace" font-size="11.00" fill="#000000">string(80)</text>
<polygon fill="none" stroke="#99ccff" points="0,-17 0,-172 772,-172 772,-17 0,-17"/>
</a>
</g>
</g>
</g>
</svg>
