<?xml version="1.0" encoding="UTF-8" standalone="no"?>
<!DOCTYPE svg PUBLIC "-//W3C//DTD SVG 1.1//EN"
 "http://www.w3.org/Graphics/SVG/1.1/DTD/svg11.dtd">
<!-- Generated by graphviz version 2.40.1 (20161225.0304)
 -->
<!-- Title: Salesforce+ ERD Pages: 1 -->
<svg width="904pt" height="129pt"
 viewBox="0.00 0.00 903.61 129.00" xmlns="http://www.w3.org/2000/svg" xmlns:xlink="http://www.w3.org/1999/xlink">
<g id="graph0" class="graph" transform="scale(1 1) rotate(0) translate(4 125)">
<title>Salesforce+ ERD</title>
<polygon fill="#efeffd" stroke="transparent" points="-4,4 -4,-125 899.6123,-125 899.6123,4 -4,4"/>
<text text-anchor="middle" x="847.1057" y="-5.8" font-family="Courier,monospace" font-size="9.00" fill="#000000">Salesforce ERD </text>
<!-- UserLogin -->
<g id="node1" class="node">
<title>UserLogin</title>
<g id="a_node1"><a xlink:href="#" xlink:title=" UserLogin ">
<polygon fill="#ffeeff" stroke="transparent" points="163.6123,-17 163.6123,-121 895.6123,-121 895.6123,-17 163.6123,-17"/>
<polygon fill="#add8e6" stroke="transparent" points="164.6123,-103 164.6123,-120 894.6123,-120 894.6123,-103 164.6123,-103"/>
<polygon fill="none" stroke="#99ccff" points="164.6123,-103 164.6123,-120 894.6123,-120 894.6123,-103 164.6123,-103"/>
<text text-anchor="start" x="499.9075" y="-109.2" font-family="Courier,monospace" font-weight="bold" font-size="11.00" fill="#000000">UserLogin</text>
<polygon fill="#99ccff" stroke="transparent" points="164.6123,-86 164.6123,-103 803.6123,-103 803.6123,-86 164.6123,-86"/>
<polygon fill="none" stroke="#99ccff" points="164.6123,-86 164.6123,-103 803.6123,-103 803.6123,-86 164.6123,-86"/>
<text text-anchor="start" x="167.6123" y="-92.2" font-family="Courier,monospace" font-size="11.00" fill="#000000"> &#160;&#160;&#160;&#160;&#160;&#160;&#160;&#160;&#160;&#160;&#160;&#160;&#160;&#160;&#160;&#160;&#160;&#160;&#160;&#160;&#160;&#160;&#160;&#160;&#160;&#160;&#160;&#160;&#160;&#160;&#160;&#160;&#160;&#160;&#160;&#160;&#160;&#160;&#160;&#160;&#160;&#160;</text>
<text text-anchor="start" x="451.4585" y="-92.2" font-family="Courier,monospace" font-weight="bold" font-size="11.00" fill="#000000">Id</text>
<text text-anchor="start" x="464.6606" y="-92.2" font-family="Courier,monospace" font-size="11.00" fill="#000000"> &#160;&#160;&#160;&#160;&#160;&#160;&#160;&#160;&#160;&#160;&#160;&#160;&#160;&#160;&#160;&#160;&#160;&#160;&#160;&#160;&#160;&#160;&#160;&#160;&#160;&#160;&#160;&#160;&#160;&#160;&#160;&#160;&#160;&#160;&#160;&#160;&#160;&#160;&#160;</text>
<polygon fill="none" stroke="#99ccff" points="803.6123,-86 803.6123,-103 894.6123,-103 894.6123,-86 803.6123,-86"/>
<text text-anchor="start" x="829.3091" y="-91.2" font-family="Courier,monospace" font-size="11.00" fill="#000000">id(18)</text>
<polygon fill="none" stroke="#99ccff" points="164.6123,-69 164.6123,-86 803.6123,-86 803.6123,-69 164.6123,-69"/>
<text text-anchor="start" x="167.6123" y="-74.2" font-family="Courier,monospace" font-size="11.00" fill="#000000"> &#160;&#160;&#160;&#160;&#160;&#160;&#160;&#160;&#160;&#160;&#160;&#160;&#160;&#160;&#160;&#160;&#160;&#160;&#160;&#160;&#160;&#160;&#160;&#160;&#160;&#160;&#160;&#160;&#160;&#160;&#160;&#160;&#160;&#160;&#160;&#160;&#160;&#160;&#160;&#160;UserId &#160;&#160;&#160;&#160;&#160;&#160;&#160;&#160;&#160;&#160;&#160;&#160;&#160;&#160;&#160;&#160;&#160;&#160;&#160;&#160;&#160;&#160;&#160;&#160;&#160;&#160;&#160;&#160;&#160;&#160;&#160;&#160;&#160;&#160;&#160;&#160;&#160;&#160;</text>
<polygon fill="none" stroke="#99ccff" points="803.6123,-69 803.6123,-86 894.6123,-86 894.6123,-69 803.6123,-69"/>
<text text-anchor="start" x="806.2053" y="-74.2" font-family="Courier,monospace" font-size="11.00" fill="#000000">reference(18)</text>
<polygon fill="none" stroke="#99ccff" points="164.6123,-52 164.6123,-69 803.6123,-69 803.6123,-52 164.6123,-52"/>
<text text-anchor="start" x="167.6123" y="-57.2" font-family="Courier,monospace" font-size="11.00" fill="#000000"> &#160;&#160;&#160;&#160;&#160;&#160;&#160;&#160;&#160;&#160;&#160;&#160;&#160;&#160;&#160;&#160;&#160;&#160;&#160;&#160;&#160;&#160;&#160;&#160;&#160;&#160;&#160;&#160;&#160;&#160;&#160;&#160;&#160;&#160;&#160;&#160;&#160;&#160;&#160;&#160;IsFrozen &#160;&#160;&#160;&#160;&#160;&#160;&#160;&#160;&#160;&#160;&#160;&#160;&#160;&#160;&#160;&#160;&#160;&#160;&#160;&#160;&#160;&#160;&#160;&#160;&#160;&#160;&#160;&#160;&#160;&#160;&#160;&#160;&#160;&#160;&#160;&#160;&#160;&#160;</text>
<polygon fill="none" stroke="#99ccff" points="803.6123,-52 803.6123,-69 894.6123,-69 894.6123,-52 803.6123,-52"/>
<text text-anchor="start" x="826.0085" y="-57.2" font-family="Courier,monospace" font-size="11.00" fill="#000000">boolean</text>
<polygon fill="none" stroke="#99ccff" points="164.6123,-35 164.6123,-52 803.6123,-52 803.6123,-35 164.6123,-35"/>
<text text-anchor="start" x="167.2607" y="-40.2" font-family="Courier,monospace" font-size="11.00" fill="#000000"> &#160;&#160;&#160;&#160;&#160;&#160;&#160;&#160;&#160;&#160;&#160;&#160;&#160;&#160;&#160;&#160;&#160;&#160;&#160;&#160;&#160;&#160;&#160;&#160;&#160;&#160;&#160;&#160;&#160;&#160;&#160;&#160;&#160;&#160;&#160;&#160;&#160;&#160;&#160;&#160;IsPasswordLocked &#160;&#160;&#160;&#160;&#160;&#160;&#160;&#160;&#160;&#160;&#160;&#160;&#160;&#160;&#160;&#160;&#160;&#160;&#160;&#160;&#160;&#160;&#160;&#160;&#160;&#160;&#160;&#160;&#160;&#160;&#160;&#160;&#160;&#160;&#160;&#160;&#160;&#160;</text>
<polygon fill="none" stroke="#99ccff" points="803.6123,-35 803.6123,-52 894.6123,-52 894.6123,-35 803.6123,-35"/>
<text text-anchor="start" x="826.0085" y="-40.2" font-family="Courier,monospace" font-size="11.00" fill="#000000">boolean</text>
<polygon fill="none" stroke="#99ccff" points="164.6123,-18 164.6123,-35 803.6123,-35 803.6123,-18 164.6123,-18"/>
<text text-anchor="start" x="167.2607" y="-23.2" font-family="Courier,monospace" font-size="11.00" fill="#000000"> &#160;&#160;&#160;&#160;&#160;&#160;&#160;&#160;&#160;&#160;&#160;&#160;&#160;&#160;&#160;&#160;&#160;&#160;&#160;&#160;&#160;&#160;&#160;&#160;&#160;&#160;&#160;&#160;&#160;&#160;&#160;&#160;&#160;&#160;&#160;&#160;&#160;&#160;&#160;&#160;LastModifiedById &#160;&#160;&#160;&#160;&#160;&#160;&#160;&#160;&#160;&#160;&#160;&#160;&#160;&#160;&#160;&#160;&#160;&#160;&#160;&#160;&#160;&#160;&#160;&#160;&#160;&#160;&#160;&#160;&#160;&#160;&#160;&#160;&#160;&#160;&#160;&#160;&#160;&#160;</text>
<polygon fill="none" stroke="#99ccff" points="803.6123,-18 803.6123,-35 894.6123,-35 894.6123,-18 803.6123,-18"/>
<text text-anchor="start" x="806.2053" y="-23.2" font-family="Courier,monospace" font-size="11.00" fill="#000000">reference(18)</text>
<polygon fill="none" stroke="#99ccff" points="163.6123,-17 163.6123,-121 895.6123,-121 895.6123,-17 163.6123,-17"/>
</a>
</g>
</g>
<!-- User -->
<g id="node2" class="node">
<title>User</title>
<text text-anchor="middle" x="27" y="-48.7" font-family="Courier,monospace" font-size="11.00" fill="#000000">User</text>
</g>
<!-- UserLogin&#45;&gt;User -->
<g id="edge1" class="edge">
<title>UserLogin:w&#45;&gt;User:e</title>
<path fill="none" stroke="#ff99cc" d="M149.8259,-77.5487C114.9605,-75.5006 78.2371,-66.8916 54.1296,-60.2266"/>
<polygon fill="#ff99cc" stroke="#ff99cc" points="156.616,-77.7559 164.5025,-81.5983 160.6142,-77.878 164.6123,-78 164.6123,-78 164.6123,-78 160.6142,-77.878 164.7221,-74.4017 156.616,-77.7559 156.616,-77.7559"/>
<ellipse fill="none" stroke="#ff99cc" cx="153.4175" cy="-77.6583" rx="3.2" ry="3.2"/>
</g>
<!-- UserLogin&#45;&gt;User -->
<g id="edge2" class="edge">
<title>UserLogin:w&#45;&gt;User:e</title>
<path fill="none" stroke="#ff99cc" d="M149.8259,-26.4513C114.9605,-28.4994 78.2371,-37.1084 54.1296,-43.7734"/>
<polygon fill="#ff99cc" stroke="#ff99cc" points="156.616,-26.2441 164.7221,-29.5983 160.6142,-26.122 164.6123,-26 164.6123,-26 164.6123,-26 160.6142,-26.122 164.5025,-22.4017 156.616,-26.2441 156.616,-26.2441"/>
<ellipse fill="none" stroke="#ff99cc" cx="153.4175" cy="-26.3417" rx="3.2" ry="3.2"/>
<text text-anchor="middle" x="108.8062" y="-43.8015" font-family="Monaco" font-size="9.00" fill="#000000">LastModifiedBy</text>
</g>
</g>
</svg>
